<svg width="24" height="24" viewBox="0 0 24 24" fill="none" xmlns="http://www.w3.org/2000/svg">
<path d="M21.7078 4.54102L19.4557 2.289C19.4451 2.278 19.4204 2.25 19.3643 2.25H4.6357C4.5865 2.25 4.5549 2.278 4.5443 2.289L2.2922 4.54102C2.2817 4.55202 2.25 4.57701 2.25 4.62201V19.344C2.25 19.401 2.2852 19.429 2.2852 19.432L4.5444 21.688C4.5514 21.695 4.6006 21.755 4.6849 21.755H19.3152C19.3749 21.755 19.4241 21.72 19.4768 21.671L21.7009 19.446C21.7044 19.443 21.75 19.397 21.75 19.33V4.629C21.7499 4.594 21.7359 4.57302 21.7078 4.54102ZM21.2721 4.668L19.8491 5.793L18.233 4.172L19.3291 2.724L21.2721 4.668ZM15.6434 7.483L16.6308 6.21802L17.8043 7.392L16.5394 8.379L15.6434 7.483ZM16.3216 8.69901V15.303L15.2991 16.322H8.7008L7.6784 15.303V8.69901L8.7008 7.68002H15.2991L16.3216 8.69901ZM15.2851 7.31403H8.7148L7.6994 6.01401H16.3005L15.2851 7.31403ZM8.3565 7.483L7.4816 8.358L6.2167 7.371L7.3938 6.19302L8.3565 7.483ZM7.3165 8.71701V15.285L6.0129 16.301V7.70102L7.3165 8.71701ZM7.4851 15.647L8.3565 16.519L7.3692 17.787L6.1922 16.607L7.4851 15.647ZM8.7148 16.708H15.2851L16.3005 18.012H7.6994L8.7148 16.708ZM15.6434 16.519L16.5183 15.644L17.7832 16.631L16.6062 17.809L15.6434 16.519ZM16.708 15.285V8.71701L18.0081 7.70102V16.301L16.708 15.285ZM16.8592 5.905L17.98 4.48203L19.54 6.04202L18.117 7.16302L16.8592 5.905ZM16.5886 5.62701H7.4113L6.3959 4.32401H17.604L16.5886 5.62701ZM7.1408 5.905L5.9076 7.142L4.3265 5.905L5.9076 4.32401L7.1408 5.905ZM5.6264 7.40903V16.593L4.3265 17.608V6.39401L5.6264 7.40903ZM5.9076 16.86L7.1408 18.097L5.9076 19.678L4.3265 18.097L5.9076 16.86ZM7.4113 18.374H16.5886L17.604 19.678H6.3959L7.4113 18.374ZM16.8592 18.097L18.0923 16.86L19.6735 18.097L18.0923 19.678L16.8592 18.097ZM18.3735 16.593V7.40903L19.6735 6.39401V17.608L18.3735 16.593ZM18.911 2.63702L17.8956 3.93701H6.0797L5.0678 2.63702H18.911ZM4.6708 2.72803L5.6546 3.99301L3.9927 5.65601L2.7278 4.668L4.6708 2.72803ZM2.6365 5.09003L3.94 6.10202V17.921L2.6365 18.937V5.09003ZM4.6708 21.277L2.7278 19.334L3.9927 18.346L5.6546 20.012L4.6708 21.277ZM5.0889 21.39L6.1043 20.086H17.9202L18.9321 21.39H5.0889ZM19.3291 21.277L18.3454 20.012L20.0073 18.346L21.2721 19.334L19.3291 21.277ZM21.3845 18.916L20.0845 17.9V6.08102L21.3845 5.065V18.916Z" fill="#333335"/>
<path d="M21.7078 4.54102L19.4557 2.289C19.4451 2.278 19.4204 2.25 19.3643 2.25H4.6357C4.5865 2.25 4.5549 2.278 4.5443 2.289L2.2922 4.54102C2.2817 4.55202 2.25 4.57701 2.25 4.62201V19.344C2.25 19.401 2.2852 19.429 2.2852 19.432L4.5444 21.688C4.5514 21.695 4.6006 21.755 4.6849 21.755H19.3152C19.3749 21.755 19.4241 21.72 19.4768 21.671L21.7009 19.446C21.7044 19.443 21.75 19.397 21.75 19.33V4.629C21.7499 4.594 21.7359 4.57302 21.7078 4.54102ZM21.2721 4.668L19.8491 5.793L18.233 4.172L19.3291 2.724L21.2721 4.668ZM15.6434 7.483L16.6308 6.21802L17.8043 7.392L16.5394 8.379L15.6434 7.483ZM16.3216 8.69901V15.303L15.2991 16.322H8.7008L7.6784 15.303V8.69901L8.7008 7.68002H15.2991L16.3216 8.69901ZM15.2851 7.31403H8.7148L7.6994 6.01401H16.3005L15.2851 7.31403ZM8.3565 7.483L7.4816 8.358L6.2167 7.371L7.3938 6.19302L8.3565 7.483ZM7.3165 8.71701V15.285L6.0129 16.301V7.70102L7.3165 8.71701ZM7.4851 15.647L8.3565 16.519L7.3692 17.787L6.1922 16.607L7.4851 15.647ZM8.7148 16.708H15.2851L16.3005 18.012H7.6994L8.7148 16.708ZM15.6434 16.519L16.5183 15.644L17.7832 16.631L16.6062 17.809L15.6434 16.519ZM16.708 15.285V8.71701L18.0081 7.70102V16.301L16.708 15.285ZM16.8592 5.905L17.98 4.48203L19.54 6.04202L18.117 7.16302L16.8592 5.905ZM16.5886 5.62701H7.4113L6.3959 4.32401H17.604L16.5886 5.62701ZM7.1408 5.905L5.9076 7.142L4.3265 5.905L5.9076 4.32401L7.1408 5.905ZM5.6264 7.40903V16.593L4.3265 17.608V6.39401L5.6264 7.40903ZM5.9076 16.86L7.1408 18.097L5.9076 19.678L4.3265 18.097L5.9076 16.86ZM7.4113 18.374H16.5886L17.604 19.678H6.3959L7.4113 18.374ZM16.8592 18.097L18.0923 16.86L19.6735 18.097L18.0923 19.678L16.8592 18.097ZM18.3735 16.593V7.40903L19.6735 6.39401V17.608L18.3735 16.593ZM18.911 2.63702L17.8956 3.93701H6.0797L5.0678 2.63702H18.911ZM4.6708 2.72803L5.6546 3.99301L3.9927 5.65601L2.7278 4.668L4.6708 2.72803ZM2.6365 5.09003L3.94 6.10202V17.921L2.6365 18.937V5.09003ZM4.6708 21.277L2.7278 19.334L3.9927 18.346L5.6546 20.012L4.6708 21.277ZM5.0889 21.39L6.1043 20.086H17.9202L18.9321 21.39H5.0889ZM19.3291 21.277L18.3454 20.012L20.0073 18.346L21.2721 19.334L19.3291 21.277ZM21.3845 18.916L20.0845 17.9V6.08102L21.3845 5.065V18.916Z" fill="black" fill-opacity="0.2"/>
<path d="M21.7078 4.54102L19.4557 2.289C19.4451 2.278 19.4204 2.25 19.3643 2.25H4.6357C4.5865 2.25 4.5549 2.278 4.5443 2.289L2.2922 4.54102C2.2817 4.55202 2.25 4.57701 2.25 4.62201V19.344C2.25 19.401 2.2852 19.429 2.2852 19.432L4.5444 21.688C4.5514 21.695 4.6006 21.755 4.6849 21.755H19.3152C19.3749 21.755 19.4241 21.72 19.4768 21.671L21.7009 19.446C21.7044 19.443 21.75 19.397 21.75 19.33V4.629C21.7499 4.594 21.7359 4.57302 21.7078 4.54102ZM21.2721 4.668L19.8491 5.793L18.233 4.172L19.3291 2.724L21.2721 4.668ZM15.6434 7.483L16.6308 6.21802L17.8043 7.392L16.5394 8.379L15.6434 7.483ZM16.3216 8.69901V15.303L15.2991 16.322H8.7008L7.6784 15.303V8.69901L8.7008 7.68002H15.2991L16.3216 8.69901ZM15.2851 7.31403H8.7148L7.6994 6.01401H16.3005L15.2851 7.31403ZM8.3565 7.483L7.4816 8.358L6.2167 7.371L7.3938 6.19302L8.3565 7.483ZM7.3165 8.71701V15.285L6.0129 16.301V7.70102L7.3165 8.71701ZM7.4851 15.647L8.3565 16.519L7.3692 17.787L6.1922 16.607L7.4851 15.647ZM8.7148 16.708H15.2851L16.3005 18.012H7.6994L8.7148 16.708ZM15.6434 16.519L16.5183 15.644L17.7832 16.631L16.6062 17.809L15.6434 16.519ZM16.708 15.285V8.71701L18.0081 7.70102V16.301L16.708 15.285ZM16.8592 5.905L17.98 4.48203L19.54 6.04202L18.117 7.16302L16.8592 5.905ZM16.5886 5.62701H7.4113L6.3959 4.32401H17.604L16.5886 5.62701ZM7.1408 5.905L5.9076 7.142L4.3265 5.905L5.9076 4.32401L7.1408 5.905ZM5.6264 7.40903V16.593L4.3265 17.608V6.39401L5.6264 7.40903ZM5.9076 16.86L7.1408 18.097L5.9076 19.678L4.3265 18.097L5.9076 16.86ZM7.4113 18.374H16.5886L17.604 19.678H6.3959L7.4113 18.374ZM16.8592 18.097L18.0923 16.86L19.6735 18.097L18.0923 19.678L16.8592 18.097ZM18.3735 16.593V7.40903L19.6735 6.39401V17.608L18.3735 16.593ZM18.911 2.63702L17.8956 3.93701H6.0797L5.0678 2.63702H18.911ZM4.6708 2.72803L5.6546 3.99301L3.9927 5.65601L2.7278 4.668L4.6708 2.72803ZM2.6365 5.09003L3.94 6.10202V17.921L2.6365 18.937V5.09003ZM4.6708 21.277L2.7278 19.334L3.9927 18.346L5.6546 20.012L4.6708 21.277ZM5.0889 21.39L6.1043 20.086H17.9202L18.9321 21.39H5.0889ZM19.3291 21.277L18.3454 20.012L20.0073 18.346L21.2721 19.334L19.3291 21.277ZM21.3845 18.916L20.0845 17.9V6.08102L21.3845 5.065V18.916Z" fill="black" fill-opacity="0.2"/>
<path d="M21.7078 4.54102L19.4557 2.289C19.4451 2.278 19.4204 2.25 19.3643 2.25H4.6357C4.5865 2.25 4.5549 2.278 4.5443 2.289L2.2922 4.54102C2.2817 4.55202 2.25 4.57701 2.25 4.62201V19.344C2.25 19.401 2.2852 19.429 2.2852 19.432L4.5444 21.688C4.5514 21.695 4.6006 21.755 4.6849 21.755H19.3152C19.3749 21.755 19.4241 21.72 19.4768 21.671L21.7009 19.446C21.7044 19.443 21.75 19.397 21.75 19.33V4.629C21.7499 4.594 21.7359 4.57302 21.7078 4.54102ZM21.2721 4.668L19.8491 5.793L18.233 4.172L19.3291 2.724L21.2721 4.668ZM15.6434 7.483L16.6308 6.21802L17.8043 7.392L16.5394 8.379L15.6434 7.483ZM16.3216 8.69901V15.303L15.2991 16.322H8.7008L7.6784 15.303V8.69901L8.7008 7.68002H15.2991L16.3216 8.69901ZM15.2851 7.31403H8.7148L7.6994 6.01401H16.3005L15.2851 7.31403ZM8.3565 7.483L7.4816 8.358L6.2167 7.371L7.3938 6.19302L8.3565 7.483ZM7.3165 8.71701V15.285L6.0129 16.301V7.70102L7.3165 8.71701ZM7.4851 15.647L8.3565 16.519L7.3692 17.787L6.1922 16.607L7.4851 15.647ZM8.7148 16.708H15.2851L16.3005 18.012H7.6994L8.7148 16.708ZM15.6434 16.519L16.5183 15.644L17.7832 16.631L16.6062 17.809L15.6434 16.519ZM16.708 15.285V8.71701L18.0081 7.70102V16.301L16.708 15.285ZM16.8592 5.905L17.98 4.48203L19.54 6.04202L18.117 7.16302L16.8592 5.905ZM16.5886 5.62701H7.4113L6.3959 4.32401H17.604L16.5886 5.62701ZM7.1408 5.905L5.9076 7.142L4.3265 5.905L5.9076 4.32401L7.1408 5.905ZM5.6264 7.40903V16.593L4.3265 17.608V6.39401L5.6264 7.40903ZM5.9076 16.86L7.1408 18.097L5.9076 19.678L4.3265 18.097L5.9076 16.86ZM7.4113 18.374H16.5886L17.604 19.678H6.3959L7.4113 18.374ZM16.8592 18.097L18.0923 16.86L19.6735 18.097L18.0923 19.678L16.8592 18.097ZM18.3735 16.593V7.40903L19.6735 6.39401V17.608L18.3735 16.593ZM18.911 2.63702L17.8956 3.93701H6.0797L5.0678 2.63702H18.911ZM4.6708 2.72803L5.6546 3.99301L3.9927 5.65601L2.7278 4.668L4.6708 2.72803ZM2.6365 5.09003L3.94 6.10202V17.921L2.6365 18.937V5.09003ZM4.6708 21.277L2.7278 19.334L3.9927 18.346L5.6546 20.012L4.6708 21.277ZM5.0889 21.39L6.1043 20.086H17.9202L18.9321 21.39H5.0889ZM19.3291 21.277L18.3454 20.012L20.0073 18.346L21.2721 19.334L19.3291 21.277ZM21.3845 18.916L20.0845 17.9V6.08102L21.3845 5.065V18.916Z" fill="black" fill-opacity="0.2"/>
<path d="M21.7078 4.54102L19.4557 2.289C19.4451 2.278 19.4204 2.25 19.3643 2.25H4.6357C4.5865 2.25 4.5549 2.278 4.5443 2.289L2.2922 4.54102C2.2817 4.55202 2.25 4.57701 2.25 4.62201V19.344C2.25 19.401 2.2852 19.429 2.2852 19.432L4.5444 21.688C4.5514 21.695 4.6006 21.755 4.6849 21.755H19.3152C19.3749 21.755 19.4241 21.72 19.4768 21.671L21.7009 19.446C21.7044 19.443 21.75 19.397 21.75 19.33V4.629C21.7499 4.594 21.7359 4.57302 21.7078 4.54102ZM21.2721 4.668L19.8491 5.793L18.233 4.172L19.3291 2.724L21.2721 4.668ZM15.6434 7.483L16.6308 6.21802L17.8043 7.392L16.5394 8.379L15.6434 7.483ZM16.3216 8.69901V15.303L15.2991 16.322H8.7008L7.6784 15.303V8.69901L8.7008 7.68002H15.2991L16.3216 8.69901ZM15.2851 7.31403H8.7148L7.6994 6.01401H16.3005L15.2851 7.31403ZM8.3565 7.483L7.4816 8.358L6.2167 7.371L7.3938 6.19302L8.3565 7.483ZM7.3165 8.71701V15.285L6.0129 16.301V7.70102L7.3165 8.71701ZM7.4851 15.647L8.3565 16.519L7.3692 17.787L6.1922 16.607L7.4851 15.647ZM8.7148 16.708H15.2851L16.3005 18.012H7.6994L8.7148 16.708ZM15.6434 16.519L16.5183 15.644L17.7832 16.631L16.6062 17.809L15.6434 16.519ZM16.708 15.285V8.71701L18.0081 7.70102V16.301L16.708 15.285ZM16.8592 5.905L17.98 4.48203L19.54 6.04202L18.117 7.16302L16.8592 5.905ZM16.5886 5.62701H7.4113L6.3959 4.32401H17.604L16.5886 5.62701ZM7.1408 5.905L5.9076 7.142L4.3265 5.905L5.9076 4.32401L7.1408 5.905ZM5.6264 7.40903V16.593L4.3265 17.608V6.39401L5.6264 7.40903ZM5.9076 16.86L7.1408 18.097L5.9076 19.678L4.3265 18.097L5.9076 16.86ZM7.4113 18.374H16.5886L17.604 19.678H6.3959L7.4113 18.374ZM16.8592 18.097L18.0923 16.86L19.6735 18.097L18.0923 19.678L16.8592 18.097ZM18.3735 16.593V7.40903L19.6735 6.39401V17.608L18.3735 16.593ZM18.911 2.63702L17.8956 3.93701H6.0797L5.0678 2.63702H18.911ZM4.6708 2.72803L5.6546 3.99301L3.9927 5.65601L2.7278 4.668L4.6708 2.72803ZM2.6365 5.09003L3.94 6.10202V17.921L2.6365 18.937V5.09003ZM4.6708 21.277L2.7278 19.334L3.9927 18.346L5.6546 20.012L4.6708 21.277ZM5.0889 21.39L6.1043 20.086H17.9202L18.9321 21.39H5.0889ZM19.3291 21.277L18.3454 20.012L20.0073 18.346L21.2721 19.334L19.3291 21.277ZM21.3845 18.916L20.0845 17.9V6.08102L21.3845 5.065V18.916Z" fill="black" fill-opacity="0.2"/>
<path d="M21.7078 4.54102L19.4557 2.289C19.4451 2.278 19.4204 2.25 19.3643 2.25H4.6357C4.5865 2.25 4.5549 2.278 4.5443 2.289L2.2922 4.54102C2.2817 4.55202 2.25 4.57701 2.25 4.62201V19.344C2.25 19.401 2.2852 19.429 2.2852 19.432L4.5444 21.688C4.5514 21.695 4.6006 21.755 4.6849 21.755H19.3152C19.3749 21.755 19.4241 21.72 19.4768 21.671L21.7009 19.446C21.7044 19.443 21.75 19.397 21.75 19.33V4.629C21.7499 4.594 21.7359 4.57302 21.7078 4.54102ZM21.2721 4.668L19.8491 5.793L18.233 4.172L19.3291 2.724L21.2721 4.668ZM15.6434 7.483L16.6308 6.21802L17.8043 7.392L16.5394 8.379L15.6434 7.483ZM16.3216 8.69901V15.303L15.2991 16.322H8.7008L7.6784 15.303V8.69901L8.7008 7.68002H15.2991L16.3216 8.69901ZM15.2851 7.31403H8.7148L7.6994 6.01401H16.3005L15.2851 7.31403ZM8.3565 7.483L7.4816 8.358L6.2167 7.371L7.3938 6.19302L8.3565 7.483ZM7.3165 8.71701V15.285L6.0129 16.301V7.70102L7.3165 8.71701ZM7.4851 15.647L8.3565 16.519L7.3692 17.787L6.1922 16.607L7.4851 15.647ZM8.7148 16.708H15.2851L16.3005 18.012H7.6994L8.7148 16.708ZM15.6434 16.519L16.5183 15.644L17.7832 16.631L16.6062 17.809L15.6434 16.519ZM16.708 15.285V8.71701L18.0081 7.70102V16.301L16.708 15.285ZM16.8592 5.905L17.98 4.48203L19.54 6.04202L18.117 7.16302L16.8592 5.905ZM16.5886 5.62701H7.4113L6.3959 4.32401H17.604L16.5886 5.62701ZM7.1408 5.905L5.9076 7.142L4.3265 5.905L5.9076 4.32401L7.1408 5.905ZM5.6264 7.40903V16.593L4.3265 17.608V6.39401L5.6264 7.40903ZM5.9076 16.86L7.1408 18.097L5.9076 19.678L4.3265 18.097L5.9076 16.86ZM7.4113 18.374H16.5886L17.604 19.678H6.3959L7.4113 18.374ZM16.8592 18.097L18.0923 16.86L19.6735 18.097L18.0923 19.678L16.8592 18.097ZM18.3735 16.593V7.40903L19.6735 6.39401V17.608L18.3735 16.593ZM18.911 2.63702L17.8956 3.93701H6.0797L5.0678 2.63702H18.911ZM4.6708 2.72803L5.6546 3.99301L3.9927 5.65601L2.7278 4.668L4.6708 2.72803ZM2.6365 5.09003L3.94 6.10202V17.921L2.6365 18.937V5.09003ZM4.6708 21.277L2.7278 19.334L3.9927 18.346L5.6546 20.012L4.6708 21.277ZM5.0889 21.39L6.1043 20.086H17.9202L18.9321 21.39H5.0889ZM19.3291 21.277L18.3454 20.012L20.0073 18.346L21.2721 19.334L19.3291 21.277ZM21.3845 18.916L20.0845 17.9V6.08102L21.3845 5.065V18.916Z" fill="black" fill-opacity="0.2"/>
<path d="M21.7078 4.54102L19.4557 2.289C19.4451 2.278 19.4204 2.25 19.3643 2.25H4.6357C4.5865 2.25 4.5549 2.278 4.5443 2.289L2.2922 4.54102C2.2817 4.55202 2.25 4.57701 2.25 4.62201V19.344C2.25 19.401 2.2852 19.429 2.2852 19.432L4.5444 21.688C4.5514 21.695 4.6006 21.755 4.6849 21.755H19.3152C19.3749 21.755 19.4241 21.72 19.4768 21.671L21.7009 19.446C21.7044 19.443 21.75 19.397 21.75 19.33V4.629C21.7499 4.594 21.7359 4.57302 21.7078 4.54102ZM21.2721 4.668L19.8491 5.793L18.233 4.172L19.3291 2.724L21.2721 4.668ZM15.6434 7.483L16.6308 6.21802L17.8043 7.392L16.5394 8.379L15.6434 7.483ZM16.3216 8.69901V15.303L15.2991 16.322H8.7008L7.6784 15.303V8.69901L8.7008 7.68002H15.2991L16.3216 8.69901ZM15.2851 7.31403H8.7148L7.6994 6.01401H16.3005L15.2851 7.31403ZM8.3565 7.483L7.4816 8.358L6.2167 7.371L7.3938 6.19302L8.3565 7.483ZM7.3165 8.71701V15.285L6.0129 16.301V7.70102L7.3165 8.71701ZM7.4851 15.647L8.3565 16.519L7.3692 17.787L6.1922 16.607L7.4851 15.647ZM8.7148 16.708H15.2851L16.3005 18.012H7.6994L8.7148 16.708ZM15.6434 16.519L16.5183 15.644L17.7832 16.631L16.6062 17.809L15.6434 16.519ZM16.708 15.285V8.71701L18.0081 7.70102V16.301L16.708 15.285ZM16.8592 5.905L17.98 4.48203L19.54 6.04202L18.117 7.16302L16.8592 5.905ZM16.5886 5.62701H7.4113L6.3959 4.32401H17.604L16.5886 5.62701ZM7.1408 5.905L5.9076 7.142L4.3265 5.905L5.9076 4.32401L7.1408 5.905ZM5.6264 7.40903V16.593L4.3265 17.608V6.39401L5.6264 7.40903ZM5.9076 16.86L7.1408 18.097L5.9076 19.678L4.3265 18.097L5.9076 16.86ZM7.4113 18.374H16.5886L17.604 19.678H6.3959L7.4113 18.374ZM16.8592 18.097L18.0923 16.86L19.6735 18.097L18.0923 19.678L16.8592 18.097ZM18.3735 16.593V7.40903L19.6735 6.39401V17.608L18.3735 16.593ZM18.911 2.63702L17.8956 3.93701H6.0797L5.0678 2.63702H18.911ZM4.6708 2.72803L5.6546 3.99301L3.9927 5.65601L2.7278 4.668L4.6708 2.72803ZM2.6365 5.09003L3.94 6.10202V17.921L2.6365 18.937V5.09003ZM4.6708 21.277L2.7278 19.334L3.9927 18.346L5.6546 20.012L4.6708 21.277ZM5.0889 21.39L6.1043 20.086H17.9202L18.9321 21.39H5.0889ZM19.3291 21.277L18.3454 20.012L20.0073 18.346L21.2721 19.334L19.3291 21.277ZM21.3845 18.916L20.0845 17.9V6.08102L21.3845 5.065V18.916Z" fill="black" fill-opacity="0.2"/>
<path d="M21.7078 4.54102L19.4557 2.289C19.4451 2.278 19.4204 2.25 19.3643 2.25H4.6357C4.5865 2.25 4.5549 2.278 4.5443 2.289L2.2922 4.54102C2.2817 4.55202 2.25 4.57701 2.25 4.62201V19.344C2.25 19.401 2.2852 19.429 2.2852 19.432L4.5444 21.688C4.5514 21.695 4.6006 21.755 4.6849 21.755H19.3152C19.3749 21.755 19.4241 21.72 19.4768 21.671L21.7009 19.446C21.7044 19.443 21.75 19.397 21.75 19.33V4.629C21.7499 4.594 21.7359 4.57302 21.7078 4.54102ZM21.2721 4.668L19.8491 5.793L18.233 4.172L19.3291 2.724L21.2721 4.668ZM15.6434 7.483L16.6308 6.21802L17.8043 7.392L16.5394 8.379L15.6434 7.483ZM16.3216 8.69901V15.303L15.2991 16.322H8.7008L7.6784 15.303V8.69901L8.7008 7.68002H15.2991L16.3216 8.69901ZM15.2851 7.31403H8.7148L7.6994 6.01401H16.3005L15.2851 7.31403ZM8.3565 7.483L7.4816 8.358L6.2167 7.371L7.3938 6.19302L8.3565 7.483ZM7.3165 8.71701V15.285L6.0129 16.301V7.70102L7.3165 8.71701ZM7.4851 15.647L8.3565 16.519L7.3692 17.787L6.1922 16.607L7.4851 15.647ZM8.7148 16.708H15.2851L16.3005 18.012H7.6994L8.7148 16.708ZM15.6434 16.519L16.5183 15.644L17.7832 16.631L16.6062 17.809L15.6434 16.519ZM16.708 15.285V8.71701L18.0081 7.70102V16.301L16.708 15.285ZM16.8592 5.905L17.98 4.48203L19.54 6.04202L18.117 7.16302L16.8592 5.905ZM16.5886 5.62701H7.4113L6.3959 4.32401H17.604L16.5886 5.62701ZM7.1408 5.905L5.9076 7.142L4.3265 5.905L5.9076 4.32401L7.1408 5.905ZM5.6264 7.40903V16.593L4.3265 17.608V6.39401L5.6264 7.40903ZM5.9076 16.86L7.1408 18.097L5.9076 19.678L4.3265 18.097L5.9076 16.86ZM7.4113 18.374H16.5886L17.604 19.678H6.3959L7.4113 18.374ZM16.8592 18.097L18.0923 16.86L19.6735 18.097L18.0923 19.678L16.8592 18.097ZM18.3735 16.593V7.40903L19.6735 6.39401V17.608L18.3735 16.593ZM18.911 2.63702L17.8956 3.93701H6.0797L5.0678 2.63702H18.911ZM4.6708 2.72803L5.6546 3.99301L3.9927 5.65601L2.7278 4.668L4.6708 2.72803ZM2.6365 5.09003L3.94 6.10202V17.921L2.6365 18.937V5.09003ZM4.6708 21.277L2.7278 19.334L3.9927 18.346L5.6546 20.012L4.6708 21.277ZM5.0889 21.39L6.1043 20.086H17.9202L18.9321 21.39H5.0889ZM19.3291 21.277L18.3454 20.012L20.0073 18.346L21.2721 19.334L19.3291 21.277ZM21.3845 18.916L20.0845 17.9V6.08102L21.3845 5.065V18.916Z" fill="black" fill-opacity="0.2"/>
<path d="M21.7078 4.54102L19.4557 2.289C19.4451 2.278 19.4204 2.25 19.3643 2.25H4.6357C4.5865 2.25 4.5549 2.278 4.5443 2.289L2.2922 4.54102C2.2817 4.55202 2.25 4.57701 2.25 4.62201V19.344C2.25 19.401 2.2852 19.429 2.2852 19.432L4.5444 21.688C4.5514 21.695 4.6006 21.755 4.6849 21.755H19.3152C19.3749 21.755 19.4241 21.72 19.4768 21.671L21.7009 19.446C21.7044 19.443 21.75 19.397 21.75 19.33V4.629C21.7499 4.594 21.7359 4.57302 21.7078 4.54102ZM21.2721 4.668L19.8491 5.793L18.233 4.172L19.3291 2.724L21.2721 4.668ZM15.6434 7.483L16.6308 6.21802L17.8043 7.392L16.5394 8.379L15.6434 7.483ZM16.3216 8.69901V15.303L15.2991 16.322H8.7008L7.6784 15.303V8.69901L8.7008 7.68002H15.2991L16.3216 8.69901ZM15.2851 7.31403H8.7148L7.6994 6.01401H16.3005L15.2851 7.31403ZM8.3565 7.483L7.4816 8.358L6.2167 7.371L7.3938 6.19302L8.3565 7.483ZM7.3165 8.71701V15.285L6.0129 16.301V7.70102L7.3165 8.71701ZM7.4851 15.647L8.3565 16.519L7.3692 17.787L6.1922 16.607L7.4851 15.647ZM8.7148 16.708H15.2851L16.3005 18.012H7.6994L8.7148 16.708ZM15.6434 16.519L16.5183 15.644L17.7832 16.631L16.6062 17.809L15.6434 16.519ZM16.708 15.285V8.71701L18.0081 7.70102V16.301L16.708 15.285ZM16.8592 5.905L17.98 4.48203L19.54 6.04202L18.117 7.16302L16.8592 5.905ZM16.5886 5.62701H7.4113L6.3959 4.32401H17.604L16.5886 5.62701ZM7.1408 5.905L5.9076 7.142L4.3265 5.905L5.9076 4.32401L7.1408 5.905ZM5.6264 7.40903V16.593L4.3265 17.608V6.39401L5.6264 7.40903ZM5.9076 16.86L7.1408 18.097L5.9076 19.678L4.3265 18.097L5.9076 16.86ZM7.4113 18.374H16.5886L17.604 19.678H6.3959L7.4113 18.374ZM16.8592 18.097L18.0923 16.86L19.6735 18.097L18.0923 19.678L16.8592 18.097ZM18.3735 16.593V7.40903L19.6735 6.39401V17.608L18.3735 16.593ZM18.911 2.63702L17.8956 3.93701H6.0797L5.0678 2.63702H18.911ZM4.6708 2.72803L5.6546 3.99301L3.9927 5.65601L2.7278 4.668L4.6708 2.72803ZM2.6365 5.09003L3.94 6.10202V17.921L2.6365 18.937V5.09003ZM4.6708 21.277L2.7278 19.334L3.9927 18.346L5.6546 20.012L4.6708 21.277ZM5.0889 21.39L6.1043 20.086H17.9202L18.9321 21.39H5.0889ZM19.3291 21.277L18.3454 20.012L20.0073 18.346L21.2721 19.334L19.3291 21.277ZM21.3845 18.916L20.0845 17.9V6.08102L21.3845 5.065V18.916Z" fill="black" fill-opacity="0.2"/>
<path d="M21.7078 4.54102L19.4557 2.289C19.4451 2.278 19.4204 2.25 19.3643 2.25H4.6357C4.5865 2.25 4.5549 2.278 4.5443 2.289L2.2922 4.54102C2.2817 4.55202 2.25 4.57701 2.25 4.62201V19.344C2.25 19.401 2.2852 19.429 2.2852 19.432L4.5444 21.688C4.5514 21.695 4.6006 21.755 4.6849 21.755H19.3152C19.3749 21.755 19.4241 21.72 19.4768 21.671L21.7009 19.446C21.7044 19.443 21.75 19.397 21.75 19.33V4.629C21.7499 4.594 21.7359 4.57302 21.7078 4.54102ZM21.2721 4.668L19.8491 5.793L18.233 4.172L19.3291 2.724L21.2721 4.668ZM15.6434 7.483L16.6308 6.21802L17.8043 7.392L16.5394 8.379L15.6434 7.483ZM16.3216 8.69901V15.303L15.2991 16.322H8.7008L7.6784 15.303V8.69901L8.7008 7.68002H15.2991L16.3216 8.69901ZM15.2851 7.31403H8.7148L7.6994 6.01401H16.3005L15.2851 7.31403ZM8.3565 7.483L7.4816 8.358L6.2167 7.371L7.3938 6.19302L8.3565 7.483ZM7.3165 8.71701V15.285L6.0129 16.301V7.70102L7.3165 8.71701ZM7.4851 15.647L8.3565 16.519L7.3692 17.787L6.1922 16.607L7.4851 15.647ZM8.7148 16.708H15.2851L16.3005 18.012H7.6994L8.7148 16.708ZM15.6434 16.519L16.5183 15.644L17.7832 16.631L16.6062 17.809L15.6434 16.519ZM16.708 15.285V8.71701L18.0081 7.70102V16.301L16.708 15.285ZM16.8592 5.905L17.98 4.48203L19.54 6.04202L18.117 7.16302L16.8592 5.905ZM16.5886 5.62701H7.4113L6.3959 4.32401H17.604L16.5886 5.62701ZM7.1408 5.905L5.9076 7.142L4.3265 5.905L5.9076 4.32401L7.1408 5.905ZM5.6264 7.40903V16.593L4.3265 17.608V6.39401L5.6264 7.40903ZM5.9076 16.86L7.1408 18.097L5.9076 19.678L4.3265 18.097L5.9076 16.86ZM7.4113 18.374H16.5886L17.604 19.678H6.3959L7.4113 18.374ZM16.8592 18.097L18.0923 16.86L19.6735 18.097L18.0923 19.678L16.8592 18.097ZM18.3735 16.593V7.40903L19.6735 6.39401V17.608L18.3735 16.593ZM18.911 2.63702L17.8956 3.93701H6.0797L5.0678 2.63702H18.911ZM4.6708 2.72803L5.6546 3.99301L3.9927 5.65601L2.7278 4.668L4.6708 2.72803ZM2.6365 5.09003L3.94 6.10202V17.921L2.6365 18.937V5.09003ZM4.6708 21.277L2.7278 19.334L3.9927 18.346L5.6546 20.012L4.6708 21.277ZM5.0889 21.39L6.1043 20.086H17.9202L18.9321 21.39H5.0889ZM19.3291 21.277L18.3454 20.012L20.0073 18.346L21.2721 19.334L19.3291 21.277ZM21.3845 18.916L20.0845 17.9V6.08102L21.3845 5.065V18.916Z" stroke="#333335" stroke-width="0.25"/>
<path d="M21.7078 4.54102L19.4557 2.289C19.4451 2.278 19.4204 2.25 19.3643 2.25H4.6357C4.5865 2.25 4.5549 2.278 4.5443 2.289L2.2922 4.54102C2.2817 4.55202 2.25 4.57701 2.25 4.62201V19.344C2.25 19.401 2.2852 19.429 2.2852 19.432L4.5444 21.688C4.5514 21.695 4.6006 21.755 4.6849 21.755H19.3152C19.3749 21.755 19.4241 21.72 19.4768 21.671L21.7009 19.446C21.7044 19.443 21.75 19.397 21.75 19.33V4.629C21.7499 4.594 21.7359 4.57302 21.7078 4.54102ZM21.2721 4.668L19.8491 5.793L18.233 4.172L19.3291 2.724L21.2721 4.668ZM15.6434 7.483L16.6308 6.21802L17.8043 7.392L16.5394 8.379L15.6434 7.483ZM16.3216 8.69901V15.303L15.2991 16.322H8.7008L7.6784 15.303V8.69901L8.7008 7.68002H15.2991L16.3216 8.69901ZM15.2851 7.31403H8.7148L7.6994 6.01401H16.3005L15.2851 7.31403ZM8.3565 7.483L7.4816 8.358L6.2167 7.371L7.3938 6.19302L8.3565 7.483ZM7.3165 8.71701V15.285L6.0129 16.301V7.70102L7.3165 8.71701ZM7.4851 15.647L8.3565 16.519L7.3692 17.787L6.1922 16.607L7.4851 15.647ZM8.7148 16.708H15.2851L16.3005 18.012H7.6994L8.7148 16.708ZM15.6434 16.519L16.5183 15.644L17.7832 16.631L16.6062 17.809L15.6434 16.519ZM16.708 15.285V8.71701L18.0081 7.70102V16.301L16.708 15.285ZM16.8592 5.905L17.98 4.48203L19.54 6.04202L18.117 7.16302L16.8592 5.905ZM16.5886 5.62701H7.4113L6.3959 4.32401H17.604L16.5886 5.62701ZM7.1408 5.905L5.9076 7.142L4.3265 5.905L5.9076 4.32401L7.1408 5.905ZM5.6264 7.40903V16.593L4.3265 17.608V6.39401L5.6264 7.40903ZM5.9076 16.86L7.1408 18.097L5.9076 19.678L4.3265 18.097L5.9076 16.86ZM7.4113 18.374H16.5886L17.604 19.678H6.3959L7.4113 18.374ZM16.8592 18.097L18.0923 16.86L19.6735 18.097L18.0923 19.678L16.8592 18.097ZM18.3735 16.593V7.40903L19.6735 6.39401V17.608L18.3735 16.593ZM18.911 2.63702L17.8956 3.93701H6.0797L5.0678 2.63702H18.911ZM4.6708 2.72803L5.6546 3.99301L3.9927 5.65601L2.7278 4.668L4.6708 2.72803ZM2.6365 5.09003L3.94 6.10202V17.921L2.6365 18.937V5.09003ZM4.6708 21.277L2.7278 19.334L3.9927 18.346L5.6546 20.012L4.6708 21.277ZM5.0889 21.39L6.1043 20.086H17.9202L18.9321 21.39H5.0889ZM19.3291 21.277L18.3454 20.012L20.0073 18.346L21.2721 19.334L19.3291 21.277ZM21.3845 18.916L20.0845 17.9V6.08102L21.3845 5.065V18.916Z" stroke="black" stroke-opacity="0.2" stroke-width="0.25"/>
<path d="M21.7078 4.54102L19.4557 2.289C19.4451 2.278 19.4204 2.25 19.3643 2.25H4.6357C4.5865 2.25 4.5549 2.278 4.5443 2.289L2.2922 4.54102C2.2817 4.55202 2.25 4.57701 2.25 4.62201V19.344C2.25 19.401 2.2852 19.429 2.2852 19.432L4.5444 21.688C4.5514 21.695 4.6006 21.755 4.6849 21.755H19.3152C19.3749 21.755 19.4241 21.72 19.4768 21.671L21.7009 19.446C21.7044 19.443 21.75 19.397 21.75 19.33V4.629C21.7499 4.594 21.7359 4.57302 21.7078 4.54102ZM21.2721 4.668L19.8491 5.793L18.233 4.172L19.3291 2.724L21.2721 4.668ZM15.6434 7.483L16.6308 6.21802L17.8043 7.392L16.5394 8.379L15.6434 7.483ZM16.3216 8.69901V15.303L15.2991 16.322H8.7008L7.6784 15.303V8.69901L8.7008 7.68002H15.2991L16.3216 8.69901ZM15.2851 7.31403H8.7148L7.6994 6.01401H16.3005L15.2851 7.31403ZM8.3565 7.483L7.4816 8.358L6.2167 7.371L7.3938 6.19302L8.3565 7.483ZM7.3165 8.71701V15.285L6.0129 16.301V7.70102L7.3165 8.71701ZM7.4851 15.647L8.3565 16.519L7.3692 17.787L6.1922 16.607L7.4851 15.647ZM8.7148 16.708H15.2851L16.3005 18.012H7.6994L8.7148 16.708ZM15.6434 16.519L16.5183 15.644L17.7832 16.631L16.6062 17.809L15.6434 16.519ZM16.708 15.285V8.71701L18.0081 7.70102V16.301L16.708 15.285ZM16.8592 5.905L17.98 4.48203L19.54 6.04202L18.117 7.16302L16.8592 5.905ZM16.5886 5.62701H7.4113L6.3959 4.32401H17.604L16.5886 5.62701ZM7.1408 5.905L5.9076 7.142L4.3265 5.905L5.9076 4.32401L7.1408 5.905ZM5.6264 7.40903V16.593L4.3265 17.608V6.39401L5.6264 7.40903ZM5.9076 16.86L7.1408 18.097L5.9076 19.678L4.3265 18.097L5.9076 16.86ZM7.4113 18.374H16.5886L17.604 19.678H6.3959L7.4113 18.374ZM16.8592 18.097L18.0923 16.86L19.6735 18.097L18.0923 19.678L16.8592 18.097ZM18.3735 16.593V7.40903L19.6735 6.39401V17.608L18.3735 16.593ZM18.911 2.63702L17.8956 3.93701H6.0797L5.0678 2.63702H18.911ZM4.6708 2.72803L5.6546 3.99301L3.9927 5.65601L2.7278 4.668L4.6708 2.72803ZM2.6365 5.09003L3.94 6.10202V17.921L2.6365 18.937V5.09003ZM4.6708 21.277L2.7278 19.334L3.9927 18.346L5.6546 20.012L4.6708 21.277ZM5.0889 21.39L6.1043 20.086H17.9202L18.9321 21.39H5.0889ZM19.3291 21.277L18.3454 20.012L20.0073 18.346L21.2721 19.334L19.3291 21.277ZM21.3845 18.916L20.0845 17.9V6.08102L21.3845 5.065V18.916Z" stroke="black" stroke-opacity="0.2" stroke-width="0.25"/>
<path d="M21.7078 4.54102L19.4557 2.289C19.4451 2.278 19.4204 2.25 19.3643 2.25H4.6357C4.5865 2.25 4.5549 2.278 4.5443 2.289L2.2922 4.54102C2.2817 4.55202 2.25 4.57701 2.25 4.62201V19.344C2.25 19.401 2.2852 19.429 2.2852 19.432L4.5444 21.688C4.5514 21.695 4.6006 21.755 4.6849 21.755H19.3152C19.3749 21.755 19.4241 21.72 19.4768 21.671L21.7009 19.446C21.7044 19.443 21.75 19.397 21.75 19.33V4.629C21.7499 4.594 21.7359 4.57302 21.7078 4.54102ZM21.2721 4.668L19.8491 5.793L18.233 4.172L19.3291 2.724L21.2721 4.668ZM15.6434 7.483L16.6308 6.21802L17.8043 7.392L16.5394 8.379L15.6434 7.483ZM16.3216 8.69901V15.303L15.2991 16.322H8.7008L7.6784 15.303V8.69901L8.7008 7.68002H15.2991L16.3216 8.69901ZM15.2851 7.31403H8.7148L7.6994 6.01401H16.3005L15.2851 7.31403ZM8.3565 7.483L7.4816 8.358L6.2167 7.371L7.3938 6.19302L8.3565 7.483ZM7.3165 8.71701V15.285L6.0129 16.301V7.70102L7.3165 8.71701ZM7.4851 15.647L8.3565 16.519L7.3692 17.787L6.1922 16.607L7.4851 15.647ZM8.7148 16.708H15.2851L16.3005 18.012H7.6994L8.7148 16.708ZM15.6434 16.519L16.5183 15.644L17.7832 16.631L16.6062 17.809L15.6434 16.519ZM16.708 15.285V8.71701L18.0081 7.70102V16.301L16.708 15.285ZM16.8592 5.905L17.98 4.48203L19.54 6.04202L18.117 7.16302L16.8592 5.905ZM16.5886 5.62701H7.4113L6.3959 4.32401H17.604L16.5886 5.62701ZM7.1408 5.905L5.9076 7.142L4.3265 5.905L5.9076 4.32401L7.1408 5.905ZM5.6264 7.40903V16.593L4.3265 17.608V6.39401L5.6264 7.40903ZM5.9076 16.86L7.1408 18.097L5.9076 19.678L4.3265 18.097L5.9076 16.86ZM7.4113 18.374H16.5886L17.604 19.678H6.3959L7.4113 18.374ZM16.8592 18.097L18.0923 16.86L19.6735 18.097L18.0923 19.678L16.8592 18.097ZM18.3735 16.593V7.40903L19.6735 6.39401V17.608L18.3735 16.593ZM18.911 2.63702L17.8956 3.93701H6.0797L5.0678 2.63702H18.911ZM4.6708 2.72803L5.6546 3.99301L3.9927 5.65601L2.7278 4.668L4.6708 2.72803ZM2.6365 5.09003L3.94 6.10202V17.921L2.6365 18.937V5.09003ZM4.6708 21.277L2.7278 19.334L3.9927 18.346L5.6546 20.012L4.6708 21.277ZM5.0889 21.39L6.1043 20.086H17.9202L18.9321 21.39H5.0889ZM19.3291 21.277L18.3454 20.012L20.0073 18.346L21.2721 19.334L19.3291 21.277ZM21.3845 18.916L20.0845 17.9V6.08102L21.3845 5.065V18.916Z" stroke="black" stroke-opacity="0.2" stroke-width="0.25"/>
<path d="M21.7078 4.54102L19.4557 2.289C19.4451 2.278 19.4204 2.25 19.3643 2.25H4.6357C4.5865 2.25 4.5549 2.278 4.5443 2.289L2.2922 4.54102C2.2817 4.55202 2.25 4.57701 2.25 4.62201V19.344C2.25 19.401 2.2852 19.429 2.2852 19.432L4.5444 21.688C4.5514 21.695 4.6006 21.755 4.6849 21.755H19.3152C19.3749 21.755 19.4241 21.72 19.4768 21.671L21.7009 19.446C21.7044 19.443 21.75 19.397 21.75 19.33V4.629C21.7499 4.594 21.7359 4.57302 21.7078 4.54102ZM21.2721 4.668L19.8491 5.793L18.233 4.172L19.3291 2.724L21.2721 4.668ZM15.6434 7.483L16.6308 6.21802L17.8043 7.392L16.5394 8.379L15.6434 7.483ZM16.3216 8.69901V15.303L15.2991 16.322H8.7008L7.6784 15.303V8.69901L8.7008 7.68002H15.2991L16.3216 8.69901ZM15.2851 7.31403H8.7148L7.6994 6.01401H16.3005L15.2851 7.31403ZM8.3565 7.483L7.4816 8.358L6.2167 7.371L7.3938 6.19302L8.3565 7.483ZM7.3165 8.71701V15.285L6.0129 16.301V7.70102L7.3165 8.71701ZM7.4851 15.647L8.3565 16.519L7.3692 17.787L6.1922 16.607L7.4851 15.647ZM8.7148 16.708H15.2851L16.3005 18.012H7.6994L8.7148 16.708ZM15.6434 16.519L16.5183 15.644L17.7832 16.631L16.6062 17.809L15.6434 16.519ZM16.708 15.285V8.71701L18.0081 7.70102V16.301L16.708 15.285ZM16.8592 5.905L17.98 4.48203L19.54 6.04202L18.117 7.16302L16.8592 5.905ZM16.5886 5.62701H7.4113L6.3959 4.32401H17.604L16.5886 5.62701ZM7.1408 5.905L5.9076 7.142L4.3265 5.905L5.9076 4.32401L7.1408 5.905ZM5.6264 7.40903V16.593L4.3265 17.608V6.39401L5.6264 7.40903ZM5.9076 16.86L7.1408 18.097L5.9076 19.678L4.3265 18.097L5.9076 16.86ZM7.4113 18.374H16.5886L17.604 19.678H6.3959L7.4113 18.374ZM16.8592 18.097L18.0923 16.86L19.6735 18.097L18.0923 19.678L16.8592 18.097ZM18.3735 16.593V7.40903L19.6735 6.39401V17.608L18.3735 16.593ZM18.911 2.63702L17.8956 3.93701H6.0797L5.0678 2.63702H18.911ZM4.6708 2.72803L5.6546 3.99301L3.9927 5.65601L2.7278 4.668L4.6708 2.72803ZM2.6365 5.09003L3.94 6.10202V17.921L2.6365 18.937V5.09003ZM4.6708 21.277L2.7278 19.334L3.9927 18.346L5.6546 20.012L4.6708 21.277ZM5.0889 21.39L6.1043 20.086H17.9202L18.9321 21.39H5.0889ZM19.3291 21.277L18.3454 20.012L20.0073 18.346L21.2721 19.334L19.3291 21.277ZM21.3845 18.916L20.0845 17.9V6.08102L21.3845 5.065V18.916Z" stroke="black" stroke-opacity="0.2" stroke-width="0.25"/>
<path d="M21.7078 4.54102L19.4557 2.289C19.4451 2.278 19.4204 2.25 19.3643 2.25H4.6357C4.5865 2.25 4.5549 2.278 4.5443 2.289L2.2922 4.54102C2.2817 4.55202 2.25 4.57701 2.25 4.62201V19.344C2.25 19.401 2.2852 19.429 2.2852 19.432L4.5444 21.688C4.5514 21.695 4.6006 21.755 4.6849 21.755H19.3152C19.3749 21.755 19.4241 21.72 19.4768 21.671L21.7009 19.446C21.7044 19.443 21.75 19.397 21.75 19.33V4.629C21.7499 4.594 21.7359 4.57302 21.7078 4.54102ZM21.2721 4.668L19.8491 5.793L18.233 4.172L19.3291 2.724L21.2721 4.668ZM15.6434 7.483L16.6308 6.21802L17.8043 7.392L16.5394 8.379L15.6434 7.483ZM16.3216 8.69901V15.303L15.2991 16.322H8.7008L7.6784 15.303V8.69901L8.7008 7.68002H15.2991L16.3216 8.69901ZM15.2851 7.31403H8.7148L7.6994 6.01401H16.3005L15.2851 7.31403ZM8.3565 7.483L7.4816 8.358L6.2167 7.371L7.3938 6.19302L8.3565 7.483ZM7.3165 8.71701V15.285L6.0129 16.301V7.70102L7.3165 8.71701ZM7.4851 15.647L8.3565 16.519L7.3692 17.787L6.1922 16.607L7.4851 15.647ZM8.7148 16.708H15.2851L16.3005 18.012H7.6994L8.7148 16.708ZM15.6434 16.519L16.5183 15.644L17.7832 16.631L16.6062 17.809L15.6434 16.519ZM16.708 15.285V8.71701L18.0081 7.70102V16.301L16.708 15.285ZM16.8592 5.905L17.98 4.48203L19.54 6.04202L18.117 7.16302L16.8592 5.905ZM16.5886 5.62701H7.4113L6.3959 4.32401H17.604L16.5886 5.62701ZM7.1408 5.905L5.9076 7.142L4.3265 5.905L5.9076 4.32401L7.1408 5.905ZM5.6264 7.40903V16.593L4.3265 17.608V6.39401L5.6264 7.40903ZM5.9076 16.86L7.1408 18.097L5.9076 19.678L4.3265 18.097L5.9076 16.86ZM7.4113 18.374H16.5886L17.604 19.678H6.3959L7.4113 18.374ZM16.8592 18.097L18.0923 16.86L19.6735 18.097L18.0923 19.678L16.8592 18.097ZM18.3735 16.593V7.40903L19.6735 6.39401V17.608L18.3735 16.593ZM18.911 2.63702L17.8956 3.93701H6.0797L5.0678 2.63702H18.911ZM4.6708 2.72803L5.6546 3.99301L3.9927 5.65601L2.7278 4.668L4.6708 2.72803ZM2.6365 5.09003L3.94 6.10202V17.921L2.6365 18.937V5.09003ZM4.6708 21.277L2.7278 19.334L3.9927 18.346L5.6546 20.012L4.6708 21.277ZM5.0889 21.39L6.1043 20.086H17.9202L18.9321 21.39H5.0889ZM19.3291 21.277L18.3454 20.012L20.0073 18.346L21.2721 19.334L19.3291 21.277ZM21.3845 18.916L20.0845 17.9V6.08102L21.3845 5.065V18.916Z" stroke="black" stroke-opacity="0.2" stroke-width="0.25"/>
<path d="M21.7078 4.54102L19.4557 2.289C19.4451 2.278 19.4204 2.25 19.3643 2.25H4.6357C4.5865 2.25 4.5549 2.278 4.5443 2.289L2.2922 4.54102C2.2817 4.55202 2.25 4.57701 2.25 4.62201V19.344C2.25 19.401 2.2852 19.429 2.2852 19.432L4.5444 21.688C4.5514 21.695 4.6006 21.755 4.6849 21.755H19.3152C19.3749 21.755 19.4241 21.72 19.4768 21.671L21.7009 19.446C21.7044 19.443 21.75 19.397 21.75 19.33V4.629C21.7499 4.594 21.7359 4.57302 21.7078 4.54102ZM21.2721 4.668L19.8491 5.793L18.233 4.172L19.3291 2.724L21.2721 4.668ZM15.6434 7.483L16.6308 6.21802L17.8043 7.392L16.5394 8.379L15.6434 7.483ZM16.3216 8.69901V15.303L15.2991 16.322H8.7008L7.6784 15.303V8.69901L8.7008 7.68002H15.2991L16.3216 8.69901ZM15.2851 7.31403H8.7148L7.6994 6.01401H16.3005L15.2851 7.31403ZM8.3565 7.483L7.4816 8.358L6.2167 7.371L7.3938 6.19302L8.3565 7.483ZM7.3165 8.71701V15.285L6.0129 16.301V7.70102L7.3165 8.71701ZM7.4851 15.647L8.3565 16.519L7.3692 17.787L6.1922 16.607L7.4851 15.647ZM8.7148 16.708H15.2851L16.3005 18.012H7.6994L8.7148 16.708ZM15.6434 16.519L16.5183 15.644L17.7832 16.631L16.6062 17.809L15.6434 16.519ZM16.708 15.285V8.71701L18.0081 7.70102V16.301L16.708 15.285ZM16.8592 5.905L17.98 4.48203L19.54 6.04202L18.117 7.16302L16.8592 5.905ZM16.5886 5.62701H7.4113L6.3959 4.32401H17.604L16.5886 5.62701ZM7.1408 5.905L5.9076 7.142L4.3265 5.905L5.9076 4.32401L7.1408 5.905ZM5.6264 7.40903V16.593L4.3265 17.608V6.39401L5.6264 7.40903ZM5.9076 16.86L7.1408 18.097L5.9076 19.678L4.3265 18.097L5.9076 16.86ZM7.4113 18.374H16.5886L17.604 19.678H6.3959L7.4113 18.374ZM16.8592 18.097L18.0923 16.86L19.6735 18.097L18.0923 19.678L16.8592 18.097ZM18.3735 16.593V7.40903L19.6735 6.39401V17.608L18.3735 16.593ZM18.911 2.63702L17.8956 3.93701H6.0797L5.0678 2.63702H18.911ZM4.6708 2.72803L5.6546 3.99301L3.9927 5.65601L2.7278 4.668L4.6708 2.72803ZM2.6365 5.09003L3.94 6.10202V17.921L2.6365 18.937V5.09003ZM4.6708 21.277L2.7278 19.334L3.9927 18.346L5.6546 20.012L4.6708 21.277ZM5.0889 21.39L6.1043 20.086H17.9202L18.9321 21.39H5.0889ZM19.3291 21.277L18.3454 20.012L20.0073 18.346L21.2721 19.334L19.3291 21.277ZM21.3845 18.916L20.0845 17.9V6.08102L21.3845 5.065V18.916Z" stroke="black" stroke-opacity="0.2" stroke-width="0.25"/>
<path d="M21.7078 4.54102L19.4557 2.289C19.4451 2.278 19.4204 2.25 19.3643 2.25H4.6357C4.5865 2.25 4.5549 2.278 4.5443 2.289L2.2922 4.54102C2.2817 4.55202 2.25 4.57701 2.25 4.62201V19.344C2.25 19.401 2.2852 19.429 2.2852 19.432L4.5444 21.688C4.5514 21.695 4.6006 21.755 4.6849 21.755H19.3152C19.3749 21.755 19.4241 21.72 19.4768 21.671L21.7009 19.446C21.7044 19.443 21.75 19.397 21.75 19.33V4.629C21.7499 4.594 21.7359 4.57302 21.7078 4.54102ZM21.2721 4.668L19.8491 5.793L18.233 4.172L19.3291 2.724L21.2721 4.668ZM15.6434 7.483L16.6308 6.21802L17.8043 7.392L16.5394 8.379L15.6434 7.483ZM16.3216 8.69901V15.303L15.2991 16.322H8.7008L7.6784 15.303V8.69901L8.7008 7.68002H15.2991L16.3216 8.69901ZM15.2851 7.31403H8.7148L7.6994 6.01401H16.3005L15.2851 7.31403ZM8.3565 7.483L7.4816 8.358L6.2167 7.371L7.3938 6.19302L8.3565 7.483ZM7.3165 8.71701V15.285L6.0129 16.301V7.70102L7.3165 8.71701ZM7.4851 15.647L8.3565 16.519L7.3692 17.787L6.1922 16.607L7.4851 15.647ZM8.7148 16.708H15.2851L16.3005 18.012H7.6994L8.7148 16.708ZM15.6434 16.519L16.5183 15.644L17.7832 16.631L16.6062 17.809L15.6434 16.519ZM16.708 15.285V8.71701L18.0081 7.70102V16.301L16.708 15.285ZM16.8592 5.905L17.98 4.48203L19.54 6.04202L18.117 7.16302L16.8592 5.905ZM16.5886 5.62701H7.4113L6.3959 4.32401H17.604L16.5886 5.62701ZM7.1408 5.905L5.9076 7.142L4.3265 5.905L5.9076 4.32401L7.1408 5.905ZM5.6264 7.40903V16.593L4.3265 17.608V6.39401L5.6264 7.40903ZM5.9076 16.86L7.1408 18.097L5.9076 19.678L4.3265 18.097L5.9076 16.86ZM7.4113 18.374H16.5886L17.604 19.678H6.3959L7.4113 18.374ZM16.8592 18.097L18.0923 16.86L19.6735 18.097L18.0923 19.678L16.8592 18.097ZM18.3735 16.593V7.40903L19.6735 6.39401V17.608L18.3735 16.593ZM18.911 2.63702L17.8956 3.93701H6.0797L5.0678 2.63702H18.911ZM4.6708 2.72803L5.6546 3.99301L3.9927 5.65601L2.7278 4.668L4.6708 2.72803ZM2.6365 5.09003L3.94 6.10202V17.921L2.6365 18.937V5.09003ZM4.6708 21.277L2.7278 19.334L3.9927 18.346L5.6546 20.012L4.6708 21.277ZM5.0889 21.39L6.1043 20.086H17.9202L18.9321 21.39H5.0889ZM19.3291 21.277L18.3454 20.012L20.0073 18.346L21.2721 19.334L19.3291 21.277ZM21.3845 18.916L20.0845 17.9V6.08102L21.3845 5.065V18.916Z" stroke="black" stroke-opacity="0.2" stroke-width="0.25"/>
<path d="M21.7078 4.54102L19.4557 2.289C19.4451 2.278 19.4204 2.25 19.3643 2.25H4.6357C4.5865 2.25 4.5549 2.278 4.5443 2.289L2.2922 4.54102C2.2817 4.55202 2.25 4.57701 2.25 4.62201V19.344C2.25 19.401 2.2852 19.429 2.2852 19.432L4.5444 21.688C4.5514 21.695 4.6006 21.755 4.6849 21.755H19.3152C19.3749 21.755 19.4241 21.72 19.4768 21.671L21.7009 19.446C21.7044 19.443 21.75 19.397 21.75 19.33V4.629C21.7499 4.594 21.7359 4.57302 21.7078 4.54102ZM21.2721 4.668L19.8491 5.793L18.233 4.172L19.3291 2.724L21.2721 4.668ZM15.6434 7.483L16.6308 6.21802L17.8043 7.392L16.5394 8.379L15.6434 7.483ZM16.3216 8.69901V15.303L15.2991 16.322H8.7008L7.6784 15.303V8.69901L8.7008 7.68002H15.2991L16.3216 8.69901ZM15.2851 7.31403H8.7148L7.6994 6.01401H16.3005L15.2851 7.31403ZM8.3565 7.483L7.4816 8.358L6.2167 7.371L7.3938 6.19302L8.3565 7.483ZM7.3165 8.71701V15.285L6.0129 16.301V7.70102L7.3165 8.71701ZM7.4851 15.647L8.3565 16.519L7.3692 17.787L6.1922 16.607L7.4851 15.647ZM8.7148 16.708H15.2851L16.3005 18.012H7.6994L8.7148 16.708ZM15.6434 16.519L16.5183 15.644L17.7832 16.631L16.6062 17.809L15.6434 16.519ZM16.708 15.285V8.71701L18.0081 7.70102V16.301L16.708 15.285ZM16.8592 5.905L17.98 4.48203L19.54 6.04202L18.117 7.16302L16.8592 5.905ZM16.5886 5.62701H7.4113L6.3959 4.32401H17.604L16.5886 5.62701ZM7.1408 5.905L5.9076 7.142L4.3265 5.905L5.9076 4.32401L7.1408 5.905ZM5.6264 7.40903V16.593L4.3265 17.608V6.39401L5.6264 7.40903ZM5.9076 16.86L7.1408 18.097L5.9076 19.678L4.3265 18.097L5.9076 16.86ZM7.4113 18.374H16.5886L17.604 19.678H6.3959L7.4113 18.374ZM16.8592 18.097L18.0923 16.86L19.6735 18.097L18.0923 19.678L16.8592 18.097ZM18.3735 16.593V7.40903L19.6735 6.39401V17.608L18.3735 16.593ZM18.911 2.63702L17.8956 3.93701H6.0797L5.0678 2.63702H18.911ZM4.6708 2.72803L5.6546 3.99301L3.9927 5.65601L2.7278 4.668L4.6708 2.72803ZM2.6365 5.09003L3.94 6.10202V17.921L2.6365 18.937V5.09003ZM4.6708 21.277L2.7278 19.334L3.9927 18.346L5.6546 20.012L4.6708 21.277ZM5.0889 21.39L6.1043 20.086H17.9202L18.9321 21.39H5.0889ZM19.3291 21.277L18.3454 20.012L20.0073 18.346L21.2721 19.334L19.3291 21.277ZM21.3845 18.916L20.0845 17.9V6.08102L21.3845 5.065V18.916Z" stroke="black" stroke-opacity="0.2" stroke-width="0.25"/>
</svg>
