<svg width="24" height="24" viewBox="0 0 24 24" fill="none" xmlns="http://www.w3.org/2000/svg">
<path d="M18.1881 2.2002H5.818C5.7376 2.2002 5.6001 2.25221 5.6001 2.41721V21.5212C5.6001 21.6182 5.675 21.7052 5.8209 21.7052H18.1401C18.3371 21.7052 18.4171 21.5582 18.4171 21.4382V2.4202C18.4171 2.3322 18.3491 2.2002 18.1881 2.2002ZM17.6641 2.64322L15.7201 4.57822H8.3166L6.3492 2.64322H17.6641ZM15.5621 5.01822V18.9072H8.4507V5.01822H15.5621ZM6.0417 2.92621L8.0091 4.88422V19.0402L6.0417 20.9992V2.92621ZM6.3492 21.2662L8.3166 19.3272H15.7201L17.6641 21.2662H6.3492ZM17.9751 21.0032L16.0081 19.0012V4.9082L17.9751 2.9502V21.0032Z" fill="#333335"/>
<path d="M18.1881 2.2002H5.818C5.7376 2.2002 5.6001 2.25221 5.6001 2.41721V21.5212C5.6001 21.6182 5.675 21.7052 5.8209 21.7052H18.1401C18.3371 21.7052 18.4171 21.5582 18.4171 21.4382V2.4202C18.4171 2.3322 18.3491 2.2002 18.1881 2.2002ZM17.6641 2.64322L15.7201 4.57822H8.3166L6.3492 2.64322H17.6641ZM15.5621 5.01822V18.9072H8.4507V5.01822H15.5621ZM6.0417 2.92621L8.0091 4.88422V19.0402L6.0417 20.9992V2.92621ZM6.3492 21.2662L8.3166 19.3272H15.7201L17.6641 21.2662H6.3492ZM17.9751 21.0032L16.0081 19.0012V4.9082L17.9751 2.9502V21.0032Z" fill="black" fill-opacity="0.2"/>
<path d="M18.1881 2.2002H5.818C5.7376 2.2002 5.6001 2.25221 5.6001 2.41721V21.5212C5.6001 21.6182 5.675 21.7052 5.8209 21.7052H18.1401C18.3371 21.7052 18.4171 21.5582 18.4171 21.4382V2.4202C18.4171 2.3322 18.3491 2.2002 18.1881 2.2002ZM17.6641 2.64322L15.7201 4.57822H8.3166L6.3492 2.64322H17.6641ZM15.5621 5.01822V18.9072H8.4507V5.01822H15.5621ZM6.0417 2.92621L8.0091 4.88422V19.0402L6.0417 20.9992V2.92621ZM6.3492 21.2662L8.3166 19.3272H15.7201L17.6641 21.2662H6.3492ZM17.9751 21.0032L16.0081 19.0012V4.9082L17.9751 2.9502V21.0032Z" fill="black" fill-opacity="0.2"/>
<path d="M18.1881 2.2002H5.818C5.7376 2.2002 5.6001 2.25221 5.6001 2.41721V21.5212C5.6001 21.6182 5.675 21.7052 5.8209 21.7052H18.1401C18.3371 21.7052 18.4171 21.5582 18.4171 21.4382V2.4202C18.4171 2.3322 18.3491 2.2002 18.1881 2.2002ZM17.6641 2.64322L15.7201 4.57822H8.3166L6.3492 2.64322H17.6641ZM15.5621 5.01822V18.9072H8.4507V5.01822H15.5621ZM6.0417 2.92621L8.0091 4.88422V19.0402L6.0417 20.9992V2.92621ZM6.3492 21.2662L8.3166 19.3272H15.7201L17.6641 21.2662H6.3492ZM17.9751 21.0032L16.0081 19.0012V4.9082L17.9751 2.9502V21.0032Z" fill="black" fill-opacity="0.2"/>
<path d="M18.1881 2.2002H5.818C5.7376 2.2002 5.6001 2.25221 5.6001 2.41721V21.5212C5.6001 21.6182 5.675 21.7052 5.8209 21.7052H18.1401C18.3371 21.7052 18.4171 21.5582 18.4171 21.4382V2.4202C18.4171 2.3322 18.3491 2.2002 18.1881 2.2002ZM17.6641 2.64322L15.7201 4.57822H8.3166L6.3492 2.64322H17.6641ZM15.5621 5.01822V18.9072H8.4507V5.01822H15.5621ZM6.0417 2.92621L8.0091 4.88422V19.0402L6.0417 20.9992V2.92621ZM6.3492 21.2662L8.3166 19.3272H15.7201L17.6641 21.2662H6.3492ZM17.9751 21.0032L16.0081 19.0012V4.9082L17.9751 2.9502V21.0032Z" fill="black" fill-opacity="0.2"/>
<path d="M18.1881 2.2002H5.818C5.7376 2.2002 5.6001 2.25221 5.6001 2.41721V21.5212C5.6001 21.6182 5.675 21.7052 5.8209 21.7052H18.1401C18.3371 21.7052 18.4171 21.5582 18.4171 21.4382V2.4202C18.4171 2.3322 18.3491 2.2002 18.1881 2.2002ZM17.6641 2.64322L15.7201 4.57822H8.3166L6.3492 2.64322H17.6641ZM15.5621 5.01822V18.9072H8.4507V5.01822H15.5621ZM6.0417 2.92621L8.0091 4.88422V19.0402L6.0417 20.9992V2.92621ZM6.3492 21.2662L8.3166 19.3272H15.7201L17.6641 21.2662H6.3492ZM17.9751 21.0032L16.0081 19.0012V4.9082L17.9751 2.9502V21.0032Z" fill="black" fill-opacity="0.2"/>
<path d="M18.1881 2.2002H5.818C5.7376 2.2002 5.6001 2.25221 5.6001 2.41721V21.5212C5.6001 21.6182 5.675 21.7052 5.8209 21.7052H18.1401C18.3371 21.7052 18.4171 21.5582 18.4171 21.4382V2.4202C18.4171 2.3322 18.3491 2.2002 18.1881 2.2002ZM17.6641 2.64322L15.7201 4.57822H8.3166L6.3492 2.64322H17.6641ZM15.5621 5.01822V18.9072H8.4507V5.01822H15.5621ZM6.0417 2.92621L8.0091 4.88422V19.0402L6.0417 20.9992V2.92621ZM6.3492 21.2662L8.3166 19.3272H15.7201L17.6641 21.2662H6.3492ZM17.9751 21.0032L16.0081 19.0012V4.9082L17.9751 2.9502V21.0032Z" fill="black" fill-opacity="0.2"/>
<path d="M18.1881 2.2002H5.818C5.7376 2.2002 5.6001 2.25221 5.6001 2.41721V21.5212C5.6001 21.6182 5.675 21.7052 5.8209 21.7052H18.1401C18.3371 21.7052 18.4171 21.5582 18.4171 21.4382V2.4202C18.4171 2.3322 18.3491 2.2002 18.1881 2.2002ZM17.6641 2.64322L15.7201 4.57822H8.3166L6.3492 2.64322H17.6641ZM15.5621 5.01822V18.9072H8.4507V5.01822H15.5621ZM6.0417 2.92621L8.0091 4.88422V19.0402L6.0417 20.9992V2.92621ZM6.3492 21.2662L8.3166 19.3272H15.7201L17.6641 21.2662H6.3492ZM17.9751 21.0032L16.0081 19.0012V4.9082L17.9751 2.9502V21.0032Z" fill="black" fill-opacity="0.2"/>
<path d="M18.1881 2.2002H5.818C5.7376 2.2002 5.6001 2.25221 5.6001 2.41721V21.5212C5.6001 21.6182 5.675 21.7052 5.8209 21.7052H18.1401C18.3371 21.7052 18.4171 21.5582 18.4171 21.4382V2.4202C18.4171 2.3322 18.3491 2.2002 18.1881 2.2002ZM17.6641 2.64322L15.7201 4.57822H8.3166L6.3492 2.64322H17.6641ZM15.5621 5.01822V18.9072H8.4507V5.01822H15.5621ZM6.0417 2.92621L8.0091 4.88422V19.0402L6.0417 20.9992V2.92621ZM6.3492 21.2662L8.3166 19.3272H15.7201L17.6641 21.2662H6.3492ZM17.9751 21.0032L16.0081 19.0012V4.9082L17.9751 2.9502V21.0032Z" fill="black" fill-opacity="0.2"/>
<path d="M18.1881 2.2002H5.818C5.7376 2.2002 5.6001 2.25221 5.6001 2.41721V21.5212C5.6001 21.6182 5.675 21.7052 5.8209 21.7052H18.1401C18.3371 21.7052 18.4171 21.5582 18.4171 21.4382V2.4202C18.4171 2.3322 18.3491 2.2002 18.1881 2.2002ZM17.6641 2.64322L15.7201 4.57822H8.3166L6.3492 2.64322H17.6641ZM15.5621 5.01822V18.9072H8.4507V5.01822H15.5621ZM6.0417 2.92621L8.0091 4.88422V19.0402L6.0417 20.9992V2.92621ZM6.3492 21.2662L8.3166 19.3272H15.7201L17.6641 21.2662H6.3492ZM17.9751 21.0032L16.0081 19.0012V4.9082L17.9751 2.9502V21.0032Z" stroke="#333335" stroke-width="0.2"/>
<path d="M18.1881 2.2002H5.818C5.7376 2.2002 5.6001 2.25221 5.6001 2.41721V21.5212C5.6001 21.6182 5.675 21.7052 5.8209 21.7052H18.1401C18.3371 21.7052 18.4171 21.5582 18.4171 21.4382V2.4202C18.4171 2.3322 18.3491 2.2002 18.1881 2.2002ZM17.6641 2.64322L15.7201 4.57822H8.3166L6.3492 2.64322H17.6641ZM15.5621 5.01822V18.9072H8.4507V5.01822H15.5621ZM6.0417 2.92621L8.0091 4.88422V19.0402L6.0417 20.9992V2.92621ZM6.3492 21.2662L8.3166 19.3272H15.7201L17.6641 21.2662H6.3492ZM17.9751 21.0032L16.0081 19.0012V4.9082L17.9751 2.9502V21.0032Z" stroke="black" stroke-opacity="0.2" stroke-width="0.2"/>
<path d="M18.1881 2.2002H5.818C5.7376 2.2002 5.6001 2.25221 5.6001 2.41721V21.5212C5.6001 21.6182 5.675 21.7052 5.8209 21.7052H18.1401C18.3371 21.7052 18.4171 21.5582 18.4171 21.4382V2.4202C18.4171 2.3322 18.3491 2.2002 18.1881 2.2002ZM17.6641 2.64322L15.7201 4.57822H8.3166L6.3492 2.64322H17.6641ZM15.5621 5.01822V18.9072H8.4507V5.01822H15.5621ZM6.0417 2.92621L8.0091 4.88422V19.0402L6.0417 20.9992V2.92621ZM6.3492 21.2662L8.3166 19.3272H15.7201L17.6641 21.2662H6.3492ZM17.9751 21.0032L16.0081 19.0012V4.9082L17.9751 2.9502V21.0032Z" stroke="black" stroke-opacity="0.2" stroke-width="0.2"/>
<path d="M18.1881 2.2002H5.818C5.7376 2.2002 5.6001 2.25221 5.6001 2.41721V21.5212C5.6001 21.6182 5.675 21.7052 5.8209 21.7052H18.1401C18.3371 21.7052 18.4171 21.5582 18.4171 21.4382V2.4202C18.4171 2.3322 18.3491 2.2002 18.1881 2.2002ZM17.6641 2.64322L15.7201 4.57822H8.3166L6.3492 2.64322H17.6641ZM15.5621 5.01822V18.9072H8.4507V5.01822H15.5621ZM6.0417 2.92621L8.0091 4.88422V19.0402L6.0417 20.9992V2.92621ZM6.3492 21.2662L8.3166 19.3272H15.7201L17.6641 21.2662H6.3492ZM17.9751 21.0032L16.0081 19.0012V4.9082L17.9751 2.9502V21.0032Z" stroke="black" stroke-opacity="0.2" stroke-width="0.2"/>
<path d="M18.1881 2.2002H5.818C5.7376 2.2002 5.6001 2.25221 5.6001 2.41721V21.5212C5.6001 21.6182 5.675 21.7052 5.8209 21.7052H18.1401C18.3371 21.7052 18.4171 21.5582 18.4171 21.4382V2.4202C18.4171 2.3322 18.3491 2.2002 18.1881 2.2002ZM17.6641 2.64322L15.7201 4.57822H8.3166L6.3492 2.64322H17.6641ZM15.5621 5.01822V18.9072H8.4507V5.01822H15.5621ZM6.0417 2.92621L8.0091 4.88422V19.0402L6.0417 20.9992V2.92621ZM6.3492 21.2662L8.3166 19.3272H15.7201L17.6641 21.2662H6.3492ZM17.9751 21.0032L16.0081 19.0012V4.9082L17.9751 2.9502V21.0032Z" stroke="black" stroke-opacity="0.2" stroke-width="0.2"/>
<path d="M18.1881 2.2002H5.818C5.7376 2.2002 5.6001 2.25221 5.6001 2.41721V21.5212C5.6001 21.6182 5.675 21.7052 5.8209 21.7052H18.1401C18.3371 21.7052 18.4171 21.5582 18.4171 21.4382V2.4202C18.4171 2.3322 18.3491 2.2002 18.1881 2.2002ZM17.6641 2.64322L15.7201 4.57822H8.3166L6.3492 2.64322H17.6641ZM15.5621 5.01822V18.9072H8.4507V5.01822H15.5621ZM6.0417 2.92621L8.0091 4.88422V19.0402L6.0417 20.9992V2.92621ZM6.3492 21.2662L8.3166 19.3272H15.7201L17.6641 21.2662H6.3492ZM17.9751 21.0032L16.0081 19.0012V4.9082L17.9751 2.9502V21.0032Z" stroke="black" stroke-opacity="0.2" stroke-width="0.2"/>
<path d="M18.1881 2.2002H5.818C5.7376 2.2002 5.6001 2.25221 5.6001 2.41721V21.5212C5.6001 21.6182 5.675 21.7052 5.8209 21.7052H18.1401C18.3371 21.7052 18.4171 21.5582 18.4171 21.4382V2.4202C18.4171 2.3322 18.3491 2.2002 18.1881 2.2002ZM17.6641 2.64322L15.7201 4.57822H8.3166L6.3492 2.64322H17.6641ZM15.5621 5.01822V18.9072H8.4507V5.01822H15.5621ZM6.0417 2.92621L8.0091 4.88422V19.0402L6.0417 20.9992V2.92621ZM6.3492 21.2662L8.3166 19.3272H15.7201L17.6641 21.2662H6.3492ZM17.9751 21.0032L16.0081 19.0012V4.9082L17.9751 2.9502V21.0032Z" stroke="black" stroke-opacity="0.2" stroke-width="0.2"/>
<path d="M18.1881 2.2002H5.818C5.7376 2.2002 5.6001 2.25221 5.6001 2.41721V21.5212C5.6001 21.6182 5.675 21.7052 5.8209 21.7052H18.1401C18.3371 21.7052 18.4171 21.5582 18.4171 21.4382V2.4202C18.4171 2.3322 18.3491 2.2002 18.1881 2.2002ZM17.6641 2.64322L15.7201 4.57822H8.3166L6.3492 2.64322H17.6641ZM15.5621 5.01822V18.9072H8.4507V5.01822H15.5621ZM6.0417 2.92621L8.0091 4.88422V19.0402L6.0417 20.9992V2.92621ZM6.3492 21.2662L8.3166 19.3272H15.7201L17.6641 21.2662H6.3492ZM17.9751 21.0032L16.0081 19.0012V4.9082L17.9751 2.9502V21.0032Z" stroke="black" stroke-opacity="0.2" stroke-width="0.2"/>
<path d="M18.1881 2.2002H5.818C5.7376 2.2002 5.6001 2.25221 5.6001 2.41721V21.5212C5.6001 21.6182 5.675 21.7052 5.8209 21.7052H18.1401C18.3371 21.7052 18.4171 21.5582 18.4171 21.4382V2.4202C18.4171 2.3322 18.3491 2.2002 18.1881 2.2002ZM17.6641 2.64322L15.7201 4.57822H8.3166L6.3492 2.64322H17.6641ZM15.5621 5.01822V18.9072H8.4507V5.01822H15.5621ZM6.0417 2.92621L8.0091 4.88422V19.0402L6.0417 20.9992V2.92621ZM6.3492 21.2662L8.3166 19.3272H15.7201L17.6641 21.2662H6.3492ZM17.9751 21.0032L16.0081 19.0012V4.9082L17.9751 2.9502V21.0032Z" stroke="black" stroke-opacity="0.2" stroke-width="0.2"/>
</svg>
