<svg width="24" height="24" viewBox="0 0 24 24" fill="none" xmlns="http://www.w3.org/2000/svg">
<mask id="mask0_12_595636" style="mask-type:luminance" maskUnits="userSpaceOnUse" x="0" y="0" width="24" height="24">
<path d="M24 0H0V24H24V0Z" fill="white"/>
</mask>
<g mask="url(#mask0_12_595636)">
<path d="M16.563 2.2002H7.466C5.142 2.2002 3.25 4.0762 3.25 6.3812V17.5242C3.25 19.8302 5.142 21.7052 7.466 21.7052H16.563C18.887 21.7052 20.779 19.8302 20.779 17.5242V6.3812C20.779 4.0762 18.887 2.2002 16.563 2.2002ZM19.568 4.11121L19.678 4.2692C20.106 4.8992 20.336 5.6282 20.336 6.3812V6.6492H18.621L19.568 4.11121ZM20.312 7.08621V10.5892L18.649 7.08621H20.312ZM16.27 2.63721H16.539C17.466 2.63721 18.336 2.96821 19.061 3.59521L19.215 3.72522L16.27 4.2962V2.63721ZM16.27 4.73019L19.065 4.19421L18.146 6.6492H16.27V4.73019ZM16.27 7.08621H17.952L16.27 10.8932V7.08621ZM16.27 12.9932L17.976 16.7952H16.27V12.9932ZM16.27 17.2562H18.146L19.041 19.7072L16.27 19.1712V17.2562ZM8.179 2.63721H11.132L8.179 4.19022V2.63721ZM12.014 2.66522L15.613 4.55222L12.014 6.62122L8.412 4.55222L12.014 2.66522ZM8.179 4.91522L11.187 6.6492H8.179V4.91522ZM8.179 17.2562H11.167L8.179 18.9632V17.2562ZM4.944 3.5712C5.633 2.9572 6.524 2.6142 7.442 2.6142H7.735V4.27319L4.79401 3.7052L4.944 3.5712ZM5.85901 6.6492L4.964 4.19421L7.735 4.73019V6.6492H5.85901ZM7.735 7.08621V10.7272L6.049 7.08621H7.735ZM3.69301 6.3812C3.69301 5.6282 3.919 4.8992 4.351 4.2692L4.457 4.11121L5.407 6.6492H3.69301V6.3812ZM3.69301 7.08621H5.37601L3.69301 10.8932V7.08621ZM3.69301 12.9932L5.396 16.7952H3.69301V12.9932ZM4.461 19.7942L4.351 19.6332C3.919 19.0022 3.69301 18.2732 3.69301 17.5242V17.2562H5.384L4.461 19.7942ZM7.735 21.2642H7.466C6.544 21.2642 5.625 20.9172 4.944 20.3062L4.79401 20.1762L7.735 19.6052V21.2642ZM7.735 19.1722L4.964 19.7072L5.85901 17.2562H7.735V19.1722ZM7.735 16.7952H6.033L7.735 12.9932V16.7952ZM7.72701 11.9252L5.71201 16.4762L3.705 11.9532L5.71201 7.40921L7.763 11.8382L7.72701 11.9252ZM8.179 21.2642V19.7112L11.132 21.2642H8.179ZM8.412 19.3252L12.014 17.2842L15.613 19.3252L12.014 21.2362L8.412 19.3252ZM15.827 21.2642H12.897L15.827 19.7112V21.2642ZM15.827 18.9632L12.838 17.2562H15.827V18.9632ZM15.827 16.8152H8.179V7.08621H15.827V16.8152ZM15.827 6.66821H12.842L15.827 4.93521V6.66821ZM15.827 4.19022L12.897 2.63721H15.827V4.19022ZM19.061 20.3102C18.348 20.9252 17.454 21.2642 16.539 21.2642H16.27V19.6052L19.215 20.1762L19.061 20.3102ZM20.312 17.5242C20.336 18.2612 20.114 18.9942 19.678 19.6332L19.568 19.7902L18.621 17.2562H20.312V17.5242ZM20.336 16.8152H18.629L20.336 13.0132V16.8152ZM20.328 11.9252L18.313 16.4762L16.306 11.9532L18.309 7.41321L20.399 11.7442L20.328 11.9252Z" fill="#333335"/>
<path d="M16.563 2.2002H7.466C5.142 2.2002 3.25 4.0762 3.25 6.3812V17.5242C3.25 19.8302 5.142 21.7052 7.466 21.7052H16.563C18.887 21.7052 20.779 19.8302 20.779 17.5242V6.3812C20.779 4.0762 18.887 2.2002 16.563 2.2002ZM19.568 4.11121L19.678 4.2692C20.106 4.8992 20.336 5.6282 20.336 6.3812V6.6492H18.621L19.568 4.11121ZM20.312 7.08621V10.5892L18.649 7.08621H20.312ZM16.27 2.63721H16.539C17.466 2.63721 18.336 2.96821 19.061 3.59521L19.215 3.72522L16.27 4.2962V2.63721ZM16.27 4.73019L19.065 4.19421L18.146 6.6492H16.27V4.73019ZM16.27 7.08621H17.952L16.27 10.8932V7.08621ZM16.27 12.9932L17.976 16.7952H16.27V12.9932ZM16.27 17.2562H18.146L19.041 19.7072L16.27 19.1712V17.2562ZM8.179 2.63721H11.132L8.179 4.19022V2.63721ZM12.014 2.66522L15.613 4.55222L12.014 6.62122L8.412 4.55222L12.014 2.66522ZM8.179 4.91522L11.187 6.6492H8.179V4.91522ZM8.179 17.2562H11.167L8.179 18.9632V17.2562ZM4.944 3.5712C5.633 2.9572 6.524 2.6142 7.442 2.6142H7.735V4.27319L4.79401 3.7052L4.944 3.5712ZM5.85901 6.6492L4.964 4.19421L7.735 4.73019V6.6492H5.85901ZM7.735 7.08621V10.7272L6.049 7.08621H7.735ZM3.69301 6.3812C3.69301 5.6282 3.919 4.8992 4.351 4.2692L4.457 4.11121L5.407 6.6492H3.69301V6.3812ZM3.69301 7.08621H5.37601L3.69301 10.8932V7.08621ZM3.69301 12.9932L5.396 16.7952H3.69301V12.9932ZM4.461 19.7942L4.351 19.6332C3.919 19.0022 3.69301 18.2732 3.69301 17.5242V17.2562H5.384L4.461 19.7942ZM7.735 21.2642H7.466C6.544 21.2642 5.625 20.9172 4.944 20.3062L4.79401 20.1762L7.735 19.6052V21.2642ZM7.735 19.1722L4.964 19.7072L5.85901 17.2562H7.735V19.1722ZM7.735 16.7952H6.033L7.735 12.9932V16.7952ZM7.72701 11.9252L5.71201 16.4762L3.705 11.9532L5.71201 7.40921L7.763 11.8382L7.72701 11.9252ZM8.179 21.2642V19.7112L11.132 21.2642H8.179ZM8.412 19.3252L12.014 17.2842L15.613 19.3252L12.014 21.2362L8.412 19.3252ZM15.827 21.2642H12.897L15.827 19.7112V21.2642ZM15.827 18.9632L12.838 17.2562H15.827V18.9632ZM15.827 16.8152H8.179V7.08621H15.827V16.8152ZM15.827 6.66821H12.842L15.827 4.93521V6.66821ZM15.827 4.19022L12.897 2.63721H15.827V4.19022ZM19.061 20.3102C18.348 20.9252 17.454 21.2642 16.539 21.2642H16.27V19.6052L19.215 20.1762L19.061 20.3102ZM20.312 17.5242C20.336 18.2612 20.114 18.9942 19.678 19.6332L19.568 19.7902L18.621 17.2562H20.312V17.5242ZM20.336 16.8152H18.629L20.336 13.0132V16.8152ZM20.328 11.9252L18.313 16.4762L16.306 11.9532L18.309 7.41321L20.399 11.7442L20.328 11.9252Z" fill="black" fill-opacity="0.2"/>
<path d="M16.563 2.2002H7.466C5.142 2.2002 3.25 4.0762 3.25 6.3812V17.5242C3.25 19.8302 5.142 21.7052 7.466 21.7052H16.563C18.887 21.7052 20.779 19.8302 20.779 17.5242V6.3812C20.779 4.0762 18.887 2.2002 16.563 2.2002ZM19.568 4.11121L19.678 4.2692C20.106 4.8992 20.336 5.6282 20.336 6.3812V6.6492H18.621L19.568 4.11121ZM20.312 7.08621V10.5892L18.649 7.08621H20.312ZM16.27 2.63721H16.539C17.466 2.63721 18.336 2.96821 19.061 3.59521L19.215 3.72522L16.27 4.2962V2.63721ZM16.27 4.73019L19.065 4.19421L18.146 6.6492H16.27V4.73019ZM16.27 7.08621H17.952L16.27 10.8932V7.08621ZM16.27 12.9932L17.976 16.7952H16.27V12.9932ZM16.27 17.2562H18.146L19.041 19.7072L16.27 19.1712V17.2562ZM8.179 2.63721H11.132L8.179 4.19022V2.63721ZM12.014 2.66522L15.613 4.55222L12.014 6.62122L8.412 4.55222L12.014 2.66522ZM8.179 4.91522L11.187 6.6492H8.179V4.91522ZM8.179 17.2562H11.167L8.179 18.9632V17.2562ZM4.944 3.5712C5.633 2.9572 6.524 2.6142 7.442 2.6142H7.735V4.27319L4.79401 3.7052L4.944 3.5712ZM5.85901 6.6492L4.964 4.19421L7.735 4.73019V6.6492H5.85901ZM7.735 7.08621V10.7272L6.049 7.08621H7.735ZM3.69301 6.3812C3.69301 5.6282 3.919 4.8992 4.351 4.2692L4.457 4.11121L5.407 6.6492H3.69301V6.3812ZM3.69301 7.08621H5.37601L3.69301 10.8932V7.08621ZM3.69301 12.9932L5.396 16.7952H3.69301V12.9932ZM4.461 19.7942L4.351 19.6332C3.919 19.0022 3.69301 18.2732 3.69301 17.5242V17.2562H5.384L4.461 19.7942ZM7.735 21.2642H7.466C6.544 21.2642 5.625 20.9172 4.944 20.3062L4.79401 20.1762L7.735 19.6052V21.2642ZM7.735 19.1722L4.964 19.7072L5.85901 17.2562H7.735V19.1722ZM7.735 16.7952H6.033L7.735 12.9932V16.7952ZM7.72701 11.9252L5.71201 16.4762L3.705 11.9532L5.71201 7.40921L7.763 11.8382L7.72701 11.9252ZM8.179 21.2642V19.7112L11.132 21.2642H8.179ZM8.412 19.3252L12.014 17.2842L15.613 19.3252L12.014 21.2362L8.412 19.3252ZM15.827 21.2642H12.897L15.827 19.7112V21.2642ZM15.827 18.9632L12.838 17.2562H15.827V18.9632ZM15.827 16.8152H8.179V7.08621H15.827V16.8152ZM15.827 6.66821H12.842L15.827 4.93521V6.66821ZM15.827 4.19022L12.897 2.63721H15.827V4.19022ZM19.061 20.3102C18.348 20.9252 17.454 21.2642 16.539 21.2642H16.27V19.6052L19.215 20.1762L19.061 20.3102ZM20.312 17.5242C20.336 18.2612 20.114 18.9942 19.678 19.6332L19.568 19.7902L18.621 17.2562H20.312V17.5242ZM20.336 16.8152H18.629L20.336 13.0132V16.8152ZM20.328 11.9252L18.313 16.4762L16.306 11.9532L18.309 7.41321L20.399 11.7442L20.328 11.9252Z" fill="black" fill-opacity="0.2"/>
<path d="M16.563 2.2002H7.466C5.142 2.2002 3.25 4.0762 3.25 6.3812V17.5242C3.25 19.8302 5.142 21.7052 7.466 21.7052H16.563C18.887 21.7052 20.779 19.8302 20.779 17.5242V6.3812C20.779 4.0762 18.887 2.2002 16.563 2.2002ZM19.568 4.11121L19.678 4.2692C20.106 4.8992 20.336 5.6282 20.336 6.3812V6.6492H18.621L19.568 4.11121ZM20.312 7.08621V10.5892L18.649 7.08621H20.312ZM16.27 2.63721H16.539C17.466 2.63721 18.336 2.96821 19.061 3.59521L19.215 3.72522L16.27 4.2962V2.63721ZM16.27 4.73019L19.065 4.19421L18.146 6.6492H16.27V4.73019ZM16.27 7.08621H17.952L16.27 10.8932V7.08621ZM16.27 12.9932L17.976 16.7952H16.27V12.9932ZM16.27 17.2562H18.146L19.041 19.7072L16.27 19.1712V17.2562ZM8.179 2.63721H11.132L8.179 4.19022V2.63721ZM12.014 2.66522L15.613 4.55222L12.014 6.62122L8.412 4.55222L12.014 2.66522ZM8.179 4.91522L11.187 6.6492H8.179V4.91522ZM8.179 17.2562H11.167L8.179 18.9632V17.2562ZM4.944 3.5712C5.633 2.9572 6.524 2.6142 7.442 2.6142H7.735V4.27319L4.79401 3.7052L4.944 3.5712ZM5.85901 6.6492L4.964 4.19421L7.735 4.73019V6.6492H5.85901ZM7.735 7.08621V10.7272L6.049 7.08621H7.735ZM3.69301 6.3812C3.69301 5.6282 3.919 4.8992 4.351 4.2692L4.457 4.11121L5.407 6.6492H3.69301V6.3812ZM3.69301 7.08621H5.37601L3.69301 10.8932V7.08621ZM3.69301 12.9932L5.396 16.7952H3.69301V12.9932ZM4.461 19.7942L4.351 19.6332C3.919 19.0022 3.69301 18.2732 3.69301 17.5242V17.2562H5.384L4.461 19.7942ZM7.735 21.2642H7.466C6.544 21.2642 5.625 20.9172 4.944 20.3062L4.79401 20.1762L7.735 19.6052V21.2642ZM7.735 19.1722L4.964 19.7072L5.85901 17.2562H7.735V19.1722ZM7.735 16.7952H6.033L7.735 12.9932V16.7952ZM7.72701 11.9252L5.71201 16.4762L3.705 11.9532L5.71201 7.40921L7.763 11.8382L7.72701 11.9252ZM8.179 21.2642V19.7112L11.132 21.2642H8.179ZM8.412 19.3252L12.014 17.2842L15.613 19.3252L12.014 21.2362L8.412 19.3252ZM15.827 21.2642H12.897L15.827 19.7112V21.2642ZM15.827 18.9632L12.838 17.2562H15.827V18.9632ZM15.827 16.8152H8.179V7.08621H15.827V16.8152ZM15.827 6.66821H12.842L15.827 4.93521V6.66821ZM15.827 4.19022L12.897 2.63721H15.827V4.19022ZM19.061 20.3102C18.348 20.9252 17.454 21.2642 16.539 21.2642H16.27V19.6052L19.215 20.1762L19.061 20.3102ZM20.312 17.5242C20.336 18.2612 20.114 18.9942 19.678 19.6332L19.568 19.7902L18.621 17.2562H20.312V17.5242ZM20.336 16.8152H18.629L20.336 13.0132V16.8152ZM20.328 11.9252L18.313 16.4762L16.306 11.9532L18.309 7.41321L20.399 11.7442L20.328 11.9252Z" fill="black" fill-opacity="0.2"/>
<path d="M16.563 2.2002H7.466C5.142 2.2002 3.25 4.0762 3.25 6.3812V17.5242C3.25 19.8302 5.142 21.7052 7.466 21.7052H16.563C18.887 21.7052 20.779 19.8302 20.779 17.5242V6.3812C20.779 4.0762 18.887 2.2002 16.563 2.2002ZM19.568 4.11121L19.678 4.2692C20.106 4.8992 20.336 5.6282 20.336 6.3812V6.6492H18.621L19.568 4.11121ZM20.312 7.08621V10.5892L18.649 7.08621H20.312ZM16.27 2.63721H16.539C17.466 2.63721 18.336 2.96821 19.061 3.59521L19.215 3.72522L16.27 4.2962V2.63721ZM16.27 4.73019L19.065 4.19421L18.146 6.6492H16.27V4.73019ZM16.27 7.08621H17.952L16.27 10.8932V7.08621ZM16.27 12.9932L17.976 16.7952H16.27V12.9932ZM16.27 17.2562H18.146L19.041 19.7072L16.27 19.1712V17.2562ZM8.179 2.63721H11.132L8.179 4.19022V2.63721ZM12.014 2.66522L15.613 4.55222L12.014 6.62122L8.412 4.55222L12.014 2.66522ZM8.179 4.91522L11.187 6.6492H8.179V4.91522ZM8.179 17.2562H11.167L8.179 18.9632V17.2562ZM4.944 3.5712C5.633 2.9572 6.524 2.6142 7.442 2.6142H7.735V4.27319L4.79401 3.7052L4.944 3.5712ZM5.85901 6.6492L4.964 4.19421L7.735 4.73019V6.6492H5.85901ZM7.735 7.08621V10.7272L6.049 7.08621H7.735ZM3.69301 6.3812C3.69301 5.6282 3.919 4.8992 4.351 4.2692L4.457 4.11121L5.407 6.6492H3.69301V6.3812ZM3.69301 7.08621H5.37601L3.69301 10.8932V7.08621ZM3.69301 12.9932L5.396 16.7952H3.69301V12.9932ZM4.461 19.7942L4.351 19.6332C3.919 19.0022 3.69301 18.2732 3.69301 17.5242V17.2562H5.384L4.461 19.7942ZM7.735 21.2642H7.466C6.544 21.2642 5.625 20.9172 4.944 20.3062L4.79401 20.1762L7.735 19.6052V21.2642ZM7.735 19.1722L4.964 19.7072L5.85901 17.2562H7.735V19.1722ZM7.735 16.7952H6.033L7.735 12.9932V16.7952ZM7.72701 11.9252L5.71201 16.4762L3.705 11.9532L5.71201 7.40921L7.763 11.8382L7.72701 11.9252ZM8.179 21.2642V19.7112L11.132 21.2642H8.179ZM8.412 19.3252L12.014 17.2842L15.613 19.3252L12.014 21.2362L8.412 19.3252ZM15.827 21.2642H12.897L15.827 19.7112V21.2642ZM15.827 18.9632L12.838 17.2562H15.827V18.9632ZM15.827 16.8152H8.179V7.08621H15.827V16.8152ZM15.827 6.66821H12.842L15.827 4.93521V6.66821ZM15.827 4.19022L12.897 2.63721H15.827V4.19022ZM19.061 20.3102C18.348 20.9252 17.454 21.2642 16.539 21.2642H16.27V19.6052L19.215 20.1762L19.061 20.3102ZM20.312 17.5242C20.336 18.2612 20.114 18.9942 19.678 19.6332L19.568 19.7902L18.621 17.2562H20.312V17.5242ZM20.336 16.8152H18.629L20.336 13.0132V16.8152ZM20.328 11.9252L18.313 16.4762L16.306 11.9532L18.309 7.41321L20.399 11.7442L20.328 11.9252Z" fill="black" fill-opacity="0.2"/>
<path d="M16.563 2.2002H7.466C5.142 2.2002 3.25 4.0762 3.25 6.3812V17.5242C3.25 19.8302 5.142 21.7052 7.466 21.7052H16.563C18.887 21.7052 20.779 19.8302 20.779 17.5242V6.3812C20.779 4.0762 18.887 2.2002 16.563 2.2002ZM19.568 4.11121L19.678 4.2692C20.106 4.8992 20.336 5.6282 20.336 6.3812V6.6492H18.621L19.568 4.11121ZM20.312 7.08621V10.5892L18.649 7.08621H20.312ZM16.27 2.63721H16.539C17.466 2.63721 18.336 2.96821 19.061 3.59521L19.215 3.72522L16.27 4.2962V2.63721ZM16.27 4.73019L19.065 4.19421L18.146 6.6492H16.27V4.73019ZM16.27 7.08621H17.952L16.27 10.8932V7.08621ZM16.27 12.9932L17.976 16.7952H16.27V12.9932ZM16.27 17.2562H18.146L19.041 19.7072L16.27 19.1712V17.2562ZM8.179 2.63721H11.132L8.179 4.19022V2.63721ZM12.014 2.66522L15.613 4.55222L12.014 6.62122L8.412 4.55222L12.014 2.66522ZM8.179 4.91522L11.187 6.6492H8.179V4.91522ZM8.179 17.2562H11.167L8.179 18.9632V17.2562ZM4.944 3.5712C5.633 2.9572 6.524 2.6142 7.442 2.6142H7.735V4.27319L4.79401 3.7052L4.944 3.5712ZM5.85901 6.6492L4.964 4.19421L7.735 4.73019V6.6492H5.85901ZM7.735 7.08621V10.7272L6.049 7.08621H7.735ZM3.69301 6.3812C3.69301 5.6282 3.919 4.8992 4.351 4.2692L4.457 4.11121L5.407 6.6492H3.69301V6.3812ZM3.69301 7.08621H5.37601L3.69301 10.8932V7.08621ZM3.69301 12.9932L5.396 16.7952H3.69301V12.9932ZM4.461 19.7942L4.351 19.6332C3.919 19.0022 3.69301 18.2732 3.69301 17.5242V17.2562H5.384L4.461 19.7942ZM7.735 21.2642H7.466C6.544 21.2642 5.625 20.9172 4.944 20.3062L4.79401 20.1762L7.735 19.6052V21.2642ZM7.735 19.1722L4.964 19.7072L5.85901 17.2562H7.735V19.1722ZM7.735 16.7952H6.033L7.735 12.9932V16.7952ZM7.72701 11.9252L5.71201 16.4762L3.705 11.9532L5.71201 7.40921L7.763 11.8382L7.72701 11.9252ZM8.179 21.2642V19.7112L11.132 21.2642H8.179ZM8.412 19.3252L12.014 17.2842L15.613 19.3252L12.014 21.2362L8.412 19.3252ZM15.827 21.2642H12.897L15.827 19.7112V21.2642ZM15.827 18.9632L12.838 17.2562H15.827V18.9632ZM15.827 16.8152H8.179V7.08621H15.827V16.8152ZM15.827 6.66821H12.842L15.827 4.93521V6.66821ZM15.827 4.19022L12.897 2.63721H15.827V4.19022ZM19.061 20.3102C18.348 20.9252 17.454 21.2642 16.539 21.2642H16.27V19.6052L19.215 20.1762L19.061 20.3102ZM20.312 17.5242C20.336 18.2612 20.114 18.9942 19.678 19.6332L19.568 19.7902L18.621 17.2562H20.312V17.5242ZM20.336 16.8152H18.629L20.336 13.0132V16.8152ZM20.328 11.9252L18.313 16.4762L16.306 11.9532L18.309 7.41321L20.399 11.7442L20.328 11.9252Z" fill="black" fill-opacity="0.2"/>
<path d="M16.563 2.2002H7.466C5.142 2.2002 3.25 4.0762 3.25 6.3812V17.5242C3.25 19.8302 5.142 21.7052 7.466 21.7052H16.563C18.887 21.7052 20.779 19.8302 20.779 17.5242V6.3812C20.779 4.0762 18.887 2.2002 16.563 2.2002ZM19.568 4.11121L19.678 4.2692C20.106 4.8992 20.336 5.6282 20.336 6.3812V6.6492H18.621L19.568 4.11121ZM20.312 7.08621V10.5892L18.649 7.08621H20.312ZM16.27 2.63721H16.539C17.466 2.63721 18.336 2.96821 19.061 3.59521L19.215 3.72522L16.27 4.2962V2.63721ZM16.27 4.73019L19.065 4.19421L18.146 6.6492H16.27V4.73019ZM16.27 7.08621H17.952L16.27 10.8932V7.08621ZM16.27 12.9932L17.976 16.7952H16.27V12.9932ZM16.27 17.2562H18.146L19.041 19.7072L16.27 19.1712V17.2562ZM8.179 2.63721H11.132L8.179 4.19022V2.63721ZM12.014 2.66522L15.613 4.55222L12.014 6.62122L8.412 4.55222L12.014 2.66522ZM8.179 4.91522L11.187 6.6492H8.179V4.91522ZM8.179 17.2562H11.167L8.179 18.9632V17.2562ZM4.944 3.5712C5.633 2.9572 6.524 2.6142 7.442 2.6142H7.735V4.27319L4.79401 3.7052L4.944 3.5712ZM5.85901 6.6492L4.964 4.19421L7.735 4.73019V6.6492H5.85901ZM7.735 7.08621V10.7272L6.049 7.08621H7.735ZM3.69301 6.3812C3.69301 5.6282 3.919 4.8992 4.351 4.2692L4.457 4.11121L5.407 6.6492H3.69301V6.3812ZM3.69301 7.08621H5.37601L3.69301 10.8932V7.08621ZM3.69301 12.9932L5.396 16.7952H3.69301V12.9932ZM4.461 19.7942L4.351 19.6332C3.919 19.0022 3.69301 18.2732 3.69301 17.5242V17.2562H5.384L4.461 19.7942ZM7.735 21.2642H7.466C6.544 21.2642 5.625 20.9172 4.944 20.3062L4.79401 20.1762L7.735 19.6052V21.2642ZM7.735 19.1722L4.964 19.7072L5.85901 17.2562H7.735V19.1722ZM7.735 16.7952H6.033L7.735 12.9932V16.7952ZM7.72701 11.9252L5.71201 16.4762L3.705 11.9532L5.71201 7.40921L7.763 11.8382L7.72701 11.9252ZM8.179 21.2642V19.7112L11.132 21.2642H8.179ZM8.412 19.3252L12.014 17.2842L15.613 19.3252L12.014 21.2362L8.412 19.3252ZM15.827 21.2642H12.897L15.827 19.7112V21.2642ZM15.827 18.9632L12.838 17.2562H15.827V18.9632ZM15.827 16.8152H8.179V7.08621H15.827V16.8152ZM15.827 6.66821H12.842L15.827 4.93521V6.66821ZM15.827 4.19022L12.897 2.63721H15.827V4.19022ZM19.061 20.3102C18.348 20.9252 17.454 21.2642 16.539 21.2642H16.27V19.6052L19.215 20.1762L19.061 20.3102ZM20.312 17.5242C20.336 18.2612 20.114 18.9942 19.678 19.6332L19.568 19.7902L18.621 17.2562H20.312V17.5242ZM20.336 16.8152H18.629L20.336 13.0132V16.8152ZM20.328 11.9252L18.313 16.4762L16.306 11.9532L18.309 7.41321L20.399 11.7442L20.328 11.9252Z" fill="black" fill-opacity="0.2"/>
<path d="M16.563 2.2002H7.466C5.142 2.2002 3.25 4.0762 3.25 6.3812V17.5242C3.25 19.8302 5.142 21.7052 7.466 21.7052H16.563C18.887 21.7052 20.779 19.8302 20.779 17.5242V6.3812C20.779 4.0762 18.887 2.2002 16.563 2.2002ZM19.568 4.11121L19.678 4.2692C20.106 4.8992 20.336 5.6282 20.336 6.3812V6.6492H18.621L19.568 4.11121ZM20.312 7.08621V10.5892L18.649 7.08621H20.312ZM16.27 2.63721H16.539C17.466 2.63721 18.336 2.96821 19.061 3.59521L19.215 3.72522L16.27 4.2962V2.63721ZM16.27 4.73019L19.065 4.19421L18.146 6.6492H16.27V4.73019ZM16.27 7.08621H17.952L16.27 10.8932V7.08621ZM16.27 12.9932L17.976 16.7952H16.27V12.9932ZM16.27 17.2562H18.146L19.041 19.7072L16.27 19.1712V17.2562ZM8.179 2.63721H11.132L8.179 4.19022V2.63721ZM12.014 2.66522L15.613 4.55222L12.014 6.62122L8.412 4.55222L12.014 2.66522ZM8.179 4.91522L11.187 6.6492H8.179V4.91522ZM8.179 17.2562H11.167L8.179 18.9632V17.2562ZM4.944 3.5712C5.633 2.9572 6.524 2.6142 7.442 2.6142H7.735V4.27319L4.79401 3.7052L4.944 3.5712ZM5.85901 6.6492L4.964 4.19421L7.735 4.73019V6.6492H5.85901ZM7.735 7.08621V10.7272L6.049 7.08621H7.735ZM3.69301 6.3812C3.69301 5.6282 3.919 4.8992 4.351 4.2692L4.457 4.11121L5.407 6.6492H3.69301V6.3812ZM3.69301 7.08621H5.37601L3.69301 10.8932V7.08621ZM3.69301 12.9932L5.396 16.7952H3.69301V12.9932ZM4.461 19.7942L4.351 19.6332C3.919 19.0022 3.69301 18.2732 3.69301 17.5242V17.2562H5.384L4.461 19.7942ZM7.735 21.2642H7.466C6.544 21.2642 5.625 20.9172 4.944 20.3062L4.79401 20.1762L7.735 19.6052V21.2642ZM7.735 19.1722L4.964 19.7072L5.85901 17.2562H7.735V19.1722ZM7.735 16.7952H6.033L7.735 12.9932V16.7952ZM7.72701 11.9252L5.71201 16.4762L3.705 11.9532L5.71201 7.40921L7.763 11.8382L7.72701 11.9252ZM8.179 21.2642V19.7112L11.132 21.2642H8.179ZM8.412 19.3252L12.014 17.2842L15.613 19.3252L12.014 21.2362L8.412 19.3252ZM15.827 21.2642H12.897L15.827 19.7112V21.2642ZM15.827 18.9632L12.838 17.2562H15.827V18.9632ZM15.827 16.8152H8.179V7.08621H15.827V16.8152ZM15.827 6.66821H12.842L15.827 4.93521V6.66821ZM15.827 4.19022L12.897 2.63721H15.827V4.19022ZM19.061 20.3102C18.348 20.9252 17.454 21.2642 16.539 21.2642H16.27V19.6052L19.215 20.1762L19.061 20.3102ZM20.312 17.5242C20.336 18.2612 20.114 18.9942 19.678 19.6332L19.568 19.7902L18.621 17.2562H20.312V17.5242ZM20.336 16.8152H18.629L20.336 13.0132V16.8152ZM20.328 11.9252L18.313 16.4762L16.306 11.9532L18.309 7.41321L20.399 11.7442L20.328 11.9252Z" fill="black" fill-opacity="0.2"/>
<path d="M16.563 2.2002H7.466C5.142 2.2002 3.25 4.0762 3.25 6.3812V17.5242C3.25 19.8302 5.142 21.7052 7.466 21.7052H16.563C18.887 21.7052 20.779 19.8302 20.779 17.5242V6.3812C20.779 4.0762 18.887 2.2002 16.563 2.2002ZM19.568 4.11121L19.678 4.2692C20.106 4.8992 20.336 5.6282 20.336 6.3812V6.6492H18.621L19.568 4.11121ZM20.312 7.08621V10.5892L18.649 7.08621H20.312ZM16.27 2.63721H16.539C17.466 2.63721 18.336 2.96821 19.061 3.59521L19.215 3.72522L16.27 4.2962V2.63721ZM16.27 4.73019L19.065 4.19421L18.146 6.6492H16.27V4.73019ZM16.27 7.08621H17.952L16.27 10.8932V7.08621ZM16.27 12.9932L17.976 16.7952H16.27V12.9932ZM16.27 17.2562H18.146L19.041 19.7072L16.27 19.1712V17.2562ZM8.179 2.63721H11.132L8.179 4.19022V2.63721ZM12.014 2.66522L15.613 4.55222L12.014 6.62122L8.412 4.55222L12.014 2.66522ZM8.179 4.91522L11.187 6.6492H8.179V4.91522ZM8.179 17.2562H11.167L8.179 18.9632V17.2562ZM4.944 3.5712C5.633 2.9572 6.524 2.6142 7.442 2.6142H7.735V4.27319L4.79401 3.7052L4.944 3.5712ZM5.85901 6.6492L4.964 4.19421L7.735 4.73019V6.6492H5.85901ZM7.735 7.08621V10.7272L6.049 7.08621H7.735ZM3.69301 6.3812C3.69301 5.6282 3.919 4.8992 4.351 4.2692L4.457 4.11121L5.407 6.6492H3.69301V6.3812ZM3.69301 7.08621H5.37601L3.69301 10.8932V7.08621ZM3.69301 12.9932L5.396 16.7952H3.69301V12.9932ZM4.461 19.7942L4.351 19.6332C3.919 19.0022 3.69301 18.2732 3.69301 17.5242V17.2562H5.384L4.461 19.7942ZM7.735 21.2642H7.466C6.544 21.2642 5.625 20.9172 4.944 20.3062L4.79401 20.1762L7.735 19.6052V21.2642ZM7.735 19.1722L4.964 19.7072L5.85901 17.2562H7.735V19.1722ZM7.735 16.7952H6.033L7.735 12.9932V16.7952ZM7.72701 11.9252L5.71201 16.4762L3.705 11.9532L5.71201 7.40921L7.763 11.8382L7.72701 11.9252ZM8.179 21.2642V19.7112L11.132 21.2642H8.179ZM8.412 19.3252L12.014 17.2842L15.613 19.3252L12.014 21.2362L8.412 19.3252ZM15.827 21.2642H12.897L15.827 19.7112V21.2642ZM15.827 18.9632L12.838 17.2562H15.827V18.9632ZM15.827 16.8152H8.179V7.08621H15.827V16.8152ZM15.827 6.66821H12.842L15.827 4.93521V6.66821ZM15.827 4.19022L12.897 2.63721H15.827V4.19022ZM19.061 20.3102C18.348 20.9252 17.454 21.2642 16.539 21.2642H16.27V19.6052L19.215 20.1762L19.061 20.3102ZM20.312 17.5242C20.336 18.2612 20.114 18.9942 19.678 19.6332L19.568 19.7902L18.621 17.2562H20.312V17.5242ZM20.336 16.8152H18.629L20.336 13.0132V16.8152ZM20.328 11.9252L18.313 16.4762L16.306 11.9532L18.309 7.41321L20.399 11.7442L20.328 11.9252Z" fill="black" fill-opacity="0.2"/>
<path d="M16.563 2.2002H7.466C5.142 2.2002 3.25 4.0762 3.25 6.3812V17.5242C3.25 19.8302 5.142 21.7052 7.466 21.7052H16.563C18.887 21.7052 20.779 19.8302 20.779 17.5242V6.3812C20.779 4.0762 18.887 2.2002 16.563 2.2002ZM19.568 4.11121L19.678 4.2692C20.106 4.8992 20.336 5.6282 20.336 6.3812V6.6492H18.621L19.568 4.11121ZM20.312 7.08621V10.5892L18.649 7.08621H20.312ZM16.27 2.63721H16.539C17.466 2.63721 18.336 2.96821 19.061 3.59521L19.215 3.72522L16.27 4.2962V2.63721ZM16.27 4.73019L19.065 4.19421L18.146 6.6492H16.27V4.73019ZM16.27 7.08621H17.952L16.27 10.8932V7.08621ZM16.27 12.9932L17.976 16.7952H16.27V12.9932ZM16.27 17.2562H18.146L19.041 19.7072L16.27 19.1712V17.2562ZM8.179 2.63721H11.132L8.179 4.19022V2.63721ZM12.014 2.66522L15.613 4.55222L12.014 6.62122L8.412 4.55222L12.014 2.66522ZM8.179 4.91522L11.187 6.6492H8.179V4.91522ZM8.179 17.2562H11.167L8.179 18.9632V17.2562ZM4.944 3.5712C5.633 2.9572 6.524 2.6142 7.442 2.6142H7.735V4.27319L4.79401 3.7052L4.944 3.5712ZM5.85901 6.6492L4.964 4.19421L7.735 4.73019V6.6492H5.85901ZM7.735 7.08621V10.7272L6.049 7.08621H7.735ZM3.69301 6.3812C3.69301 5.6282 3.919 4.8992 4.351 4.2692L4.457 4.11121L5.407 6.6492H3.69301V6.3812ZM3.69301 7.08621H5.37601L3.69301 10.8932V7.08621ZM3.69301 12.9932L5.396 16.7952H3.69301V12.9932ZM4.461 19.7942L4.351 19.6332C3.919 19.0022 3.69301 18.2732 3.69301 17.5242V17.2562H5.384L4.461 19.7942ZM7.735 21.2642H7.466C6.544 21.2642 5.625 20.9172 4.944 20.3062L4.79401 20.1762L7.735 19.6052V21.2642ZM7.735 19.1722L4.964 19.7072L5.85901 17.2562H7.735V19.1722ZM7.735 16.7952H6.033L7.735 12.9932V16.7952ZM7.72701 11.9252L5.71201 16.4762L3.705 11.9532L5.71201 7.40921L7.763 11.8382L7.72701 11.9252ZM8.179 21.2642V19.7112L11.132 21.2642H8.179ZM8.412 19.3252L12.014 17.2842L15.613 19.3252L12.014 21.2362L8.412 19.3252ZM15.827 21.2642H12.897L15.827 19.7112V21.2642ZM15.827 18.9632L12.838 17.2562H15.827V18.9632ZM15.827 16.8152H8.179V7.08621H15.827V16.8152ZM15.827 6.66821H12.842L15.827 4.93521V6.66821ZM15.827 4.19022L12.897 2.63721H15.827V4.19022ZM19.061 20.3102C18.348 20.9252 17.454 21.2642 16.539 21.2642H16.27V19.6052L19.215 20.1762L19.061 20.3102ZM20.312 17.5242C20.336 18.2612 20.114 18.9942 19.678 19.6332L19.568 19.7902L18.621 17.2562H20.312V17.5242ZM20.336 16.8152H18.629L20.336 13.0132V16.8152ZM20.328 11.9252L18.313 16.4762L16.306 11.9532L18.309 7.41321L20.399 11.7442L20.328 11.9252Z" stroke="#333335" stroke-width="0.2"/>
<path d="M16.563 2.2002H7.466C5.142 2.2002 3.25 4.0762 3.25 6.3812V17.5242C3.25 19.8302 5.142 21.7052 7.466 21.7052H16.563C18.887 21.7052 20.779 19.8302 20.779 17.5242V6.3812C20.779 4.0762 18.887 2.2002 16.563 2.2002ZM19.568 4.11121L19.678 4.2692C20.106 4.8992 20.336 5.6282 20.336 6.3812V6.6492H18.621L19.568 4.11121ZM20.312 7.08621V10.5892L18.649 7.08621H20.312ZM16.27 2.63721H16.539C17.466 2.63721 18.336 2.96821 19.061 3.59521L19.215 3.72522L16.27 4.2962V2.63721ZM16.27 4.73019L19.065 4.19421L18.146 6.6492H16.27V4.73019ZM16.27 7.08621H17.952L16.27 10.8932V7.08621ZM16.27 12.9932L17.976 16.7952H16.27V12.9932ZM16.27 17.2562H18.146L19.041 19.7072L16.27 19.1712V17.2562ZM8.179 2.63721H11.132L8.179 4.19022V2.63721ZM12.014 2.66522L15.613 4.55222L12.014 6.62122L8.412 4.55222L12.014 2.66522ZM8.179 4.91522L11.187 6.6492H8.179V4.91522ZM8.179 17.2562H11.167L8.179 18.9632V17.2562ZM4.944 3.5712C5.633 2.9572 6.524 2.6142 7.442 2.6142H7.735V4.27319L4.79401 3.7052L4.944 3.5712ZM5.85901 6.6492L4.964 4.19421L7.735 4.73019V6.6492H5.85901ZM7.735 7.08621V10.7272L6.049 7.08621H7.735ZM3.69301 6.3812C3.69301 5.6282 3.919 4.8992 4.351 4.2692L4.457 4.11121L5.407 6.6492H3.69301V6.3812ZM3.69301 7.08621H5.37601L3.69301 10.8932V7.08621ZM3.69301 12.9932L5.396 16.7952H3.69301V12.9932ZM4.461 19.7942L4.351 19.6332C3.919 19.0022 3.69301 18.2732 3.69301 17.5242V17.2562H5.384L4.461 19.7942ZM7.735 21.2642H7.466C6.544 21.2642 5.625 20.9172 4.944 20.3062L4.79401 20.1762L7.735 19.6052V21.2642ZM7.735 19.1722L4.964 19.7072L5.85901 17.2562H7.735V19.1722ZM7.735 16.7952H6.033L7.735 12.9932V16.7952ZM7.72701 11.9252L5.71201 16.4762L3.705 11.9532L5.71201 7.40921L7.763 11.8382L7.72701 11.9252ZM8.179 21.2642V19.7112L11.132 21.2642H8.179ZM8.412 19.3252L12.014 17.2842L15.613 19.3252L12.014 21.2362L8.412 19.3252ZM15.827 21.2642H12.897L15.827 19.7112V21.2642ZM15.827 18.9632L12.838 17.2562H15.827V18.9632ZM15.827 16.8152H8.179V7.08621H15.827V16.8152ZM15.827 6.66821H12.842L15.827 4.93521V6.66821ZM15.827 4.19022L12.897 2.63721H15.827V4.19022ZM19.061 20.3102C18.348 20.9252 17.454 21.2642 16.539 21.2642H16.27V19.6052L19.215 20.1762L19.061 20.3102ZM20.312 17.5242C20.336 18.2612 20.114 18.9942 19.678 19.6332L19.568 19.7902L18.621 17.2562H20.312V17.5242ZM20.336 16.8152H18.629L20.336 13.0132V16.8152ZM20.328 11.9252L18.313 16.4762L16.306 11.9532L18.309 7.41321L20.399 11.7442L20.328 11.9252Z" stroke="black" stroke-opacity="0.2" stroke-width="0.2"/>
<path d="M16.563 2.2002H7.466C5.142 2.2002 3.25 4.0762 3.25 6.3812V17.5242C3.25 19.8302 5.142 21.7052 7.466 21.7052H16.563C18.887 21.7052 20.779 19.8302 20.779 17.5242V6.3812C20.779 4.0762 18.887 2.2002 16.563 2.2002ZM19.568 4.11121L19.678 4.2692C20.106 4.8992 20.336 5.6282 20.336 6.3812V6.6492H18.621L19.568 4.11121ZM20.312 7.08621V10.5892L18.649 7.08621H20.312ZM16.27 2.63721H16.539C17.466 2.63721 18.336 2.96821 19.061 3.59521L19.215 3.72522L16.27 4.2962V2.63721ZM16.27 4.73019L19.065 4.19421L18.146 6.6492H16.27V4.73019ZM16.27 7.08621H17.952L16.27 10.8932V7.08621ZM16.27 12.9932L17.976 16.7952H16.27V12.9932ZM16.27 17.2562H18.146L19.041 19.7072L16.27 19.1712V17.2562ZM8.179 2.63721H11.132L8.179 4.19022V2.63721ZM12.014 2.66522L15.613 4.55222L12.014 6.62122L8.412 4.55222L12.014 2.66522ZM8.179 4.91522L11.187 6.6492H8.179V4.91522ZM8.179 17.2562H11.167L8.179 18.9632V17.2562ZM4.944 3.5712C5.633 2.9572 6.524 2.6142 7.442 2.6142H7.735V4.27319L4.79401 3.7052L4.944 3.5712ZM5.85901 6.6492L4.964 4.19421L7.735 4.73019V6.6492H5.85901ZM7.735 7.08621V10.7272L6.049 7.08621H7.735ZM3.69301 6.3812C3.69301 5.6282 3.919 4.8992 4.351 4.2692L4.457 4.11121L5.407 6.6492H3.69301V6.3812ZM3.69301 7.08621H5.37601L3.69301 10.8932V7.08621ZM3.69301 12.9932L5.396 16.7952H3.69301V12.9932ZM4.461 19.7942L4.351 19.6332C3.919 19.0022 3.69301 18.2732 3.69301 17.5242V17.2562H5.384L4.461 19.7942ZM7.735 21.2642H7.466C6.544 21.2642 5.625 20.9172 4.944 20.3062L4.79401 20.1762L7.735 19.6052V21.2642ZM7.735 19.1722L4.964 19.7072L5.85901 17.2562H7.735V19.1722ZM7.735 16.7952H6.033L7.735 12.9932V16.7952ZM7.72701 11.9252L5.71201 16.4762L3.705 11.9532L5.71201 7.40921L7.763 11.8382L7.72701 11.9252ZM8.179 21.2642V19.7112L11.132 21.2642H8.179ZM8.412 19.3252L12.014 17.2842L15.613 19.3252L12.014 21.2362L8.412 19.3252ZM15.827 21.2642H12.897L15.827 19.7112V21.2642ZM15.827 18.9632L12.838 17.2562H15.827V18.9632ZM15.827 16.8152H8.179V7.08621H15.827V16.8152ZM15.827 6.66821H12.842L15.827 4.93521V6.66821ZM15.827 4.19022L12.897 2.63721H15.827V4.19022ZM19.061 20.3102C18.348 20.9252 17.454 21.2642 16.539 21.2642H16.27V19.6052L19.215 20.1762L19.061 20.3102ZM20.312 17.5242C20.336 18.2612 20.114 18.9942 19.678 19.6332L19.568 19.7902L18.621 17.2562H20.312V17.5242ZM20.336 16.8152H18.629L20.336 13.0132V16.8152ZM20.328 11.9252L18.313 16.4762L16.306 11.9532L18.309 7.41321L20.399 11.7442L20.328 11.9252Z" stroke="black" stroke-opacity="0.2" stroke-width="0.2"/>
<path d="M16.563 2.2002H7.466C5.142 2.2002 3.25 4.0762 3.25 6.3812V17.5242C3.25 19.8302 5.142 21.7052 7.466 21.7052H16.563C18.887 21.7052 20.779 19.8302 20.779 17.5242V6.3812C20.779 4.0762 18.887 2.2002 16.563 2.2002ZM19.568 4.11121L19.678 4.2692C20.106 4.8992 20.336 5.6282 20.336 6.3812V6.6492H18.621L19.568 4.11121ZM20.312 7.08621V10.5892L18.649 7.08621H20.312ZM16.27 2.63721H16.539C17.466 2.63721 18.336 2.96821 19.061 3.59521L19.215 3.72522L16.27 4.2962V2.63721ZM16.27 4.73019L19.065 4.19421L18.146 6.6492H16.27V4.73019ZM16.27 7.08621H17.952L16.27 10.8932V7.08621ZM16.27 12.9932L17.976 16.7952H16.27V12.9932ZM16.27 17.2562H18.146L19.041 19.7072L16.27 19.1712V17.2562ZM8.179 2.63721H11.132L8.179 4.19022V2.63721ZM12.014 2.66522L15.613 4.55222L12.014 6.62122L8.412 4.55222L12.014 2.66522ZM8.179 4.91522L11.187 6.6492H8.179V4.91522ZM8.179 17.2562H11.167L8.179 18.9632V17.2562ZM4.944 3.5712C5.633 2.9572 6.524 2.6142 7.442 2.6142H7.735V4.27319L4.79401 3.7052L4.944 3.5712ZM5.85901 6.6492L4.964 4.19421L7.735 4.73019V6.6492H5.85901ZM7.735 7.08621V10.7272L6.049 7.08621H7.735ZM3.69301 6.3812C3.69301 5.6282 3.919 4.8992 4.351 4.2692L4.457 4.11121L5.407 6.6492H3.69301V6.3812ZM3.69301 7.08621H5.37601L3.69301 10.8932V7.08621ZM3.69301 12.9932L5.396 16.7952H3.69301V12.9932ZM4.461 19.7942L4.351 19.6332C3.919 19.0022 3.69301 18.2732 3.69301 17.5242V17.2562H5.384L4.461 19.7942ZM7.735 21.2642H7.466C6.544 21.2642 5.625 20.9172 4.944 20.3062L4.79401 20.1762L7.735 19.6052V21.2642ZM7.735 19.1722L4.964 19.7072L5.85901 17.2562H7.735V19.1722ZM7.735 16.7952H6.033L7.735 12.9932V16.7952ZM7.72701 11.9252L5.71201 16.4762L3.705 11.9532L5.71201 7.40921L7.763 11.8382L7.72701 11.9252ZM8.179 21.2642V19.7112L11.132 21.2642H8.179ZM8.412 19.3252L12.014 17.2842L15.613 19.3252L12.014 21.2362L8.412 19.3252ZM15.827 21.2642H12.897L15.827 19.7112V21.2642ZM15.827 18.9632L12.838 17.2562H15.827V18.9632ZM15.827 16.8152H8.179V7.08621H15.827V16.8152ZM15.827 6.66821H12.842L15.827 4.93521V6.66821ZM15.827 4.19022L12.897 2.63721H15.827V4.19022ZM19.061 20.3102C18.348 20.9252 17.454 21.2642 16.539 21.2642H16.27V19.6052L19.215 20.1762L19.061 20.3102ZM20.312 17.5242C20.336 18.2612 20.114 18.9942 19.678 19.6332L19.568 19.7902L18.621 17.2562H20.312V17.5242ZM20.336 16.8152H18.629L20.336 13.0132V16.8152ZM20.328 11.9252L18.313 16.4762L16.306 11.9532L18.309 7.41321L20.399 11.7442L20.328 11.9252Z" stroke="black" stroke-opacity="0.2" stroke-width="0.2"/>
<path d="M16.563 2.2002H7.466C5.142 2.2002 3.25 4.0762 3.25 6.3812V17.5242C3.25 19.8302 5.142 21.7052 7.466 21.7052H16.563C18.887 21.7052 20.779 19.8302 20.779 17.5242V6.3812C20.779 4.0762 18.887 2.2002 16.563 2.2002ZM19.568 4.11121L19.678 4.2692C20.106 4.8992 20.336 5.6282 20.336 6.3812V6.6492H18.621L19.568 4.11121ZM20.312 7.08621V10.5892L18.649 7.08621H20.312ZM16.27 2.63721H16.539C17.466 2.63721 18.336 2.96821 19.061 3.59521L19.215 3.72522L16.27 4.2962V2.63721ZM16.27 4.73019L19.065 4.19421L18.146 6.6492H16.27V4.73019ZM16.27 7.08621H17.952L16.27 10.8932V7.08621ZM16.27 12.9932L17.976 16.7952H16.27V12.9932ZM16.27 17.2562H18.146L19.041 19.7072L16.27 19.1712V17.2562ZM8.179 2.63721H11.132L8.179 4.19022V2.63721ZM12.014 2.66522L15.613 4.55222L12.014 6.62122L8.412 4.55222L12.014 2.66522ZM8.179 4.91522L11.187 6.6492H8.179V4.91522ZM8.179 17.2562H11.167L8.179 18.9632V17.2562ZM4.944 3.5712C5.633 2.9572 6.524 2.6142 7.442 2.6142H7.735V4.27319L4.79401 3.7052L4.944 3.5712ZM5.85901 6.6492L4.964 4.19421L7.735 4.73019V6.6492H5.85901ZM7.735 7.08621V10.7272L6.049 7.08621H7.735ZM3.69301 6.3812C3.69301 5.6282 3.919 4.8992 4.351 4.2692L4.457 4.11121L5.407 6.6492H3.69301V6.3812ZM3.69301 7.08621H5.37601L3.69301 10.8932V7.08621ZM3.69301 12.9932L5.396 16.7952H3.69301V12.9932ZM4.461 19.7942L4.351 19.6332C3.919 19.0022 3.69301 18.2732 3.69301 17.5242V17.2562H5.384L4.461 19.7942ZM7.735 21.2642H7.466C6.544 21.2642 5.625 20.9172 4.944 20.3062L4.79401 20.1762L7.735 19.6052V21.2642ZM7.735 19.1722L4.964 19.7072L5.85901 17.2562H7.735V19.1722ZM7.735 16.7952H6.033L7.735 12.9932V16.7952ZM7.72701 11.9252L5.71201 16.4762L3.705 11.9532L5.71201 7.40921L7.763 11.8382L7.72701 11.9252ZM8.179 21.2642V19.7112L11.132 21.2642H8.179ZM8.412 19.3252L12.014 17.2842L15.613 19.3252L12.014 21.2362L8.412 19.3252ZM15.827 21.2642H12.897L15.827 19.7112V21.2642ZM15.827 18.9632L12.838 17.2562H15.827V18.9632ZM15.827 16.8152H8.179V7.08621H15.827V16.8152ZM15.827 6.66821H12.842L15.827 4.93521V6.66821ZM15.827 4.19022L12.897 2.63721H15.827V4.19022ZM19.061 20.3102C18.348 20.9252 17.454 21.2642 16.539 21.2642H16.27V19.6052L19.215 20.1762L19.061 20.3102ZM20.312 17.5242C20.336 18.2612 20.114 18.9942 19.678 19.6332L19.568 19.7902L18.621 17.2562H20.312V17.5242ZM20.336 16.8152H18.629L20.336 13.0132V16.8152ZM20.328 11.9252L18.313 16.4762L16.306 11.9532L18.309 7.41321L20.399 11.7442L20.328 11.9252Z" stroke="black" stroke-opacity="0.2" stroke-width="0.2"/>
<path d="M16.563 2.2002H7.466C5.142 2.2002 3.25 4.0762 3.25 6.3812V17.5242C3.25 19.8302 5.142 21.7052 7.466 21.7052H16.563C18.887 21.7052 20.779 19.8302 20.779 17.5242V6.3812C20.779 4.0762 18.887 2.2002 16.563 2.2002ZM19.568 4.11121L19.678 4.2692C20.106 4.8992 20.336 5.6282 20.336 6.3812V6.6492H18.621L19.568 4.11121ZM20.312 7.08621V10.5892L18.649 7.08621H20.312ZM16.27 2.63721H16.539C17.466 2.63721 18.336 2.96821 19.061 3.59521L19.215 3.72522L16.27 4.2962V2.63721ZM16.27 4.73019L19.065 4.19421L18.146 6.6492H16.27V4.73019ZM16.27 7.08621H17.952L16.27 10.8932V7.08621ZM16.27 12.9932L17.976 16.7952H16.27V12.9932ZM16.27 17.2562H18.146L19.041 19.7072L16.27 19.1712V17.2562ZM8.179 2.63721H11.132L8.179 4.19022V2.63721ZM12.014 2.66522L15.613 4.55222L12.014 6.62122L8.412 4.55222L12.014 2.66522ZM8.179 4.91522L11.187 6.6492H8.179V4.91522ZM8.179 17.2562H11.167L8.179 18.9632V17.2562ZM4.944 3.5712C5.633 2.9572 6.524 2.6142 7.442 2.6142H7.735V4.27319L4.79401 3.7052L4.944 3.5712ZM5.85901 6.6492L4.964 4.19421L7.735 4.73019V6.6492H5.85901ZM7.735 7.08621V10.7272L6.049 7.08621H7.735ZM3.69301 6.3812C3.69301 5.6282 3.919 4.8992 4.351 4.2692L4.457 4.11121L5.407 6.6492H3.69301V6.3812ZM3.69301 7.08621H5.37601L3.69301 10.8932V7.08621ZM3.69301 12.9932L5.396 16.7952H3.69301V12.9932ZM4.461 19.7942L4.351 19.6332C3.919 19.0022 3.69301 18.2732 3.69301 17.5242V17.2562H5.384L4.461 19.7942ZM7.735 21.2642H7.466C6.544 21.2642 5.625 20.9172 4.944 20.3062L4.79401 20.1762L7.735 19.6052V21.2642ZM7.735 19.1722L4.964 19.7072L5.85901 17.2562H7.735V19.1722ZM7.735 16.7952H6.033L7.735 12.9932V16.7952ZM7.72701 11.9252L5.71201 16.4762L3.705 11.9532L5.71201 7.40921L7.763 11.8382L7.72701 11.9252ZM8.179 21.2642V19.7112L11.132 21.2642H8.179ZM8.412 19.3252L12.014 17.2842L15.613 19.3252L12.014 21.2362L8.412 19.3252ZM15.827 21.2642H12.897L15.827 19.7112V21.2642ZM15.827 18.9632L12.838 17.2562H15.827V18.9632ZM15.827 16.8152H8.179V7.08621H15.827V16.8152ZM15.827 6.66821H12.842L15.827 4.93521V6.66821ZM15.827 4.19022L12.897 2.63721H15.827V4.19022ZM19.061 20.3102C18.348 20.9252 17.454 21.2642 16.539 21.2642H16.27V19.6052L19.215 20.1762L19.061 20.3102ZM20.312 17.5242C20.336 18.2612 20.114 18.9942 19.678 19.6332L19.568 19.7902L18.621 17.2562H20.312V17.5242ZM20.336 16.8152H18.629L20.336 13.0132V16.8152ZM20.328 11.9252L18.313 16.4762L16.306 11.9532L18.309 7.41321L20.399 11.7442L20.328 11.9252Z" stroke="black" stroke-opacity="0.2" stroke-width="0.2"/>
<path d="M16.563 2.2002H7.466C5.142 2.2002 3.25 4.0762 3.25 6.3812V17.5242C3.25 19.8302 5.142 21.7052 7.466 21.7052H16.563C18.887 21.7052 20.779 19.8302 20.779 17.5242V6.3812C20.779 4.0762 18.887 2.2002 16.563 2.2002ZM19.568 4.11121L19.678 4.2692C20.106 4.8992 20.336 5.6282 20.336 6.3812V6.6492H18.621L19.568 4.11121ZM20.312 7.08621V10.5892L18.649 7.08621H20.312ZM16.27 2.63721H16.539C17.466 2.63721 18.336 2.96821 19.061 3.59521L19.215 3.72522L16.27 4.2962V2.63721ZM16.27 4.73019L19.065 4.19421L18.146 6.6492H16.27V4.73019ZM16.27 7.08621H17.952L16.27 10.8932V7.08621ZM16.27 12.9932L17.976 16.7952H16.27V12.9932ZM16.27 17.2562H18.146L19.041 19.7072L16.27 19.1712V17.2562ZM8.179 2.63721H11.132L8.179 4.19022V2.63721ZM12.014 2.66522L15.613 4.55222L12.014 6.62122L8.412 4.55222L12.014 2.66522ZM8.179 4.91522L11.187 6.6492H8.179V4.91522ZM8.179 17.2562H11.167L8.179 18.9632V17.2562ZM4.944 3.5712C5.633 2.9572 6.524 2.6142 7.442 2.6142H7.735V4.27319L4.79401 3.7052L4.944 3.5712ZM5.85901 6.6492L4.964 4.19421L7.735 4.73019V6.6492H5.85901ZM7.735 7.08621V10.7272L6.049 7.08621H7.735ZM3.69301 6.3812C3.69301 5.6282 3.919 4.8992 4.351 4.2692L4.457 4.11121L5.407 6.6492H3.69301V6.3812ZM3.69301 7.08621H5.37601L3.69301 10.8932V7.08621ZM3.69301 12.9932L5.396 16.7952H3.69301V12.9932ZM4.461 19.7942L4.351 19.6332C3.919 19.0022 3.69301 18.2732 3.69301 17.5242V17.2562H5.384L4.461 19.7942ZM7.735 21.2642H7.466C6.544 21.2642 5.625 20.9172 4.944 20.3062L4.79401 20.1762L7.735 19.6052V21.2642ZM7.735 19.1722L4.964 19.7072L5.85901 17.2562H7.735V19.1722ZM7.735 16.7952H6.033L7.735 12.9932V16.7952ZM7.72701 11.9252L5.71201 16.4762L3.705 11.9532L5.71201 7.40921L7.763 11.8382L7.72701 11.9252ZM8.179 21.2642V19.7112L11.132 21.2642H8.179ZM8.412 19.3252L12.014 17.2842L15.613 19.3252L12.014 21.2362L8.412 19.3252ZM15.827 21.2642H12.897L15.827 19.7112V21.2642ZM15.827 18.9632L12.838 17.2562H15.827V18.9632ZM15.827 16.8152H8.179V7.08621H15.827V16.8152ZM15.827 6.66821H12.842L15.827 4.93521V6.66821ZM15.827 4.19022L12.897 2.63721H15.827V4.19022ZM19.061 20.3102C18.348 20.9252 17.454 21.2642 16.539 21.2642H16.27V19.6052L19.215 20.1762L19.061 20.3102ZM20.312 17.5242C20.336 18.2612 20.114 18.9942 19.678 19.6332L19.568 19.7902L18.621 17.2562H20.312V17.5242ZM20.336 16.8152H18.629L20.336 13.0132V16.8152ZM20.328 11.9252L18.313 16.4762L16.306 11.9532L18.309 7.41321L20.399 11.7442L20.328 11.9252Z" stroke="black" stroke-opacity="0.2" stroke-width="0.2"/>
<path d="M16.563 2.2002H7.466C5.142 2.2002 3.25 4.0762 3.25 6.3812V17.5242C3.25 19.8302 5.142 21.7052 7.466 21.7052H16.563C18.887 21.7052 20.779 19.8302 20.779 17.5242V6.3812C20.779 4.0762 18.887 2.2002 16.563 2.2002ZM19.568 4.11121L19.678 4.2692C20.106 4.8992 20.336 5.6282 20.336 6.3812V6.6492H18.621L19.568 4.11121ZM20.312 7.08621V10.5892L18.649 7.08621H20.312ZM16.27 2.63721H16.539C17.466 2.63721 18.336 2.96821 19.061 3.59521L19.215 3.72522L16.27 4.2962V2.63721ZM16.27 4.73019L19.065 4.19421L18.146 6.6492H16.27V4.73019ZM16.27 7.08621H17.952L16.27 10.8932V7.08621ZM16.27 12.9932L17.976 16.7952H16.27V12.9932ZM16.27 17.2562H18.146L19.041 19.7072L16.27 19.1712V17.2562ZM8.179 2.63721H11.132L8.179 4.19022V2.63721ZM12.014 2.66522L15.613 4.55222L12.014 6.62122L8.412 4.55222L12.014 2.66522ZM8.179 4.91522L11.187 6.6492H8.179V4.91522ZM8.179 17.2562H11.167L8.179 18.9632V17.2562ZM4.944 3.5712C5.633 2.9572 6.524 2.6142 7.442 2.6142H7.735V4.27319L4.79401 3.7052L4.944 3.5712ZM5.85901 6.6492L4.964 4.19421L7.735 4.73019V6.6492H5.85901ZM7.735 7.08621V10.7272L6.049 7.08621H7.735ZM3.69301 6.3812C3.69301 5.6282 3.919 4.8992 4.351 4.2692L4.457 4.11121L5.407 6.6492H3.69301V6.3812ZM3.69301 7.08621H5.37601L3.69301 10.8932V7.08621ZM3.69301 12.9932L5.396 16.7952H3.69301V12.9932ZM4.461 19.7942L4.351 19.6332C3.919 19.0022 3.69301 18.2732 3.69301 17.5242V17.2562H5.384L4.461 19.7942ZM7.735 21.2642H7.466C6.544 21.2642 5.625 20.9172 4.944 20.3062L4.79401 20.1762L7.735 19.6052V21.2642ZM7.735 19.1722L4.964 19.7072L5.85901 17.2562H7.735V19.1722ZM7.735 16.7952H6.033L7.735 12.9932V16.7952ZM7.72701 11.9252L5.71201 16.4762L3.705 11.9532L5.71201 7.40921L7.763 11.8382L7.72701 11.9252ZM8.179 21.2642V19.7112L11.132 21.2642H8.179ZM8.412 19.3252L12.014 17.2842L15.613 19.3252L12.014 21.2362L8.412 19.3252ZM15.827 21.2642H12.897L15.827 19.7112V21.2642ZM15.827 18.9632L12.838 17.2562H15.827V18.9632ZM15.827 16.8152H8.179V7.08621H15.827V16.8152ZM15.827 6.66821H12.842L15.827 4.93521V6.66821ZM15.827 4.19022L12.897 2.63721H15.827V4.19022ZM19.061 20.3102C18.348 20.9252 17.454 21.2642 16.539 21.2642H16.27V19.6052L19.215 20.1762L19.061 20.3102ZM20.312 17.5242C20.336 18.2612 20.114 18.9942 19.678 19.6332L19.568 19.7902L18.621 17.2562H20.312V17.5242ZM20.336 16.8152H18.629L20.336 13.0132V16.8152ZM20.328 11.9252L18.313 16.4762L16.306 11.9532L18.309 7.41321L20.399 11.7442L20.328 11.9252Z" stroke="black" stroke-opacity="0.2" stroke-width="0.2"/>
<path d="M16.563 2.2002H7.466C5.142 2.2002 3.25 4.0762 3.25 6.3812V17.5242C3.25 19.8302 5.142 21.7052 7.466 21.7052H16.563C18.887 21.7052 20.779 19.8302 20.779 17.5242V6.3812C20.779 4.0762 18.887 2.2002 16.563 2.2002ZM19.568 4.11121L19.678 4.2692C20.106 4.8992 20.336 5.6282 20.336 6.3812V6.6492H18.621L19.568 4.11121ZM20.312 7.08621V10.5892L18.649 7.08621H20.312ZM16.27 2.63721H16.539C17.466 2.63721 18.336 2.96821 19.061 3.59521L19.215 3.72522L16.27 4.2962V2.63721ZM16.27 4.73019L19.065 4.19421L18.146 6.6492H16.27V4.73019ZM16.27 7.08621H17.952L16.27 10.8932V7.08621ZM16.27 12.9932L17.976 16.7952H16.27V12.9932ZM16.27 17.2562H18.146L19.041 19.7072L16.27 19.1712V17.2562ZM8.179 2.63721H11.132L8.179 4.19022V2.63721ZM12.014 2.66522L15.613 4.55222L12.014 6.62122L8.412 4.55222L12.014 2.66522ZM8.179 4.91522L11.187 6.6492H8.179V4.91522ZM8.179 17.2562H11.167L8.179 18.9632V17.2562ZM4.944 3.5712C5.633 2.9572 6.524 2.6142 7.442 2.6142H7.735V4.27319L4.79401 3.7052L4.944 3.5712ZM5.85901 6.6492L4.964 4.19421L7.735 4.73019V6.6492H5.85901ZM7.735 7.08621V10.7272L6.049 7.08621H7.735ZM3.69301 6.3812C3.69301 5.6282 3.919 4.8992 4.351 4.2692L4.457 4.11121L5.407 6.6492H3.69301V6.3812ZM3.69301 7.08621H5.37601L3.69301 10.8932V7.08621ZM3.69301 12.9932L5.396 16.7952H3.69301V12.9932ZM4.461 19.7942L4.351 19.6332C3.919 19.0022 3.69301 18.2732 3.69301 17.5242V17.2562H5.384L4.461 19.7942ZM7.735 21.2642H7.466C6.544 21.2642 5.625 20.9172 4.944 20.3062L4.79401 20.1762L7.735 19.6052V21.2642ZM7.735 19.1722L4.964 19.7072L5.85901 17.2562H7.735V19.1722ZM7.735 16.7952H6.033L7.735 12.9932V16.7952ZM7.72701 11.9252L5.71201 16.4762L3.705 11.9532L5.71201 7.40921L7.763 11.8382L7.72701 11.9252ZM8.179 21.2642V19.7112L11.132 21.2642H8.179ZM8.412 19.3252L12.014 17.2842L15.613 19.3252L12.014 21.2362L8.412 19.3252ZM15.827 21.2642H12.897L15.827 19.7112V21.2642ZM15.827 18.9632L12.838 17.2562H15.827V18.9632ZM15.827 16.8152H8.179V7.08621H15.827V16.8152ZM15.827 6.66821H12.842L15.827 4.93521V6.66821ZM15.827 4.19022L12.897 2.63721H15.827V4.19022ZM19.061 20.3102C18.348 20.9252 17.454 21.2642 16.539 21.2642H16.27V19.6052L19.215 20.1762L19.061 20.3102ZM20.312 17.5242C20.336 18.2612 20.114 18.9942 19.678 19.6332L19.568 19.7902L18.621 17.2562H20.312V17.5242ZM20.336 16.8152H18.629L20.336 13.0132V16.8152ZM20.328 11.9252L18.313 16.4762L16.306 11.9532L18.309 7.41321L20.399 11.7442L20.328 11.9252Z" stroke="black" stroke-opacity="0.2" stroke-width="0.2"/>
</g>
</svg>
