<svg width="24" height="24" viewBox="0 0 24 24" fill="none" xmlns="http://www.w3.org/2000/svg">
<path d="M18.2131 4.52502L15.9901 2.29401C15.9621 2.26601 15.9181 2.25 15.8681 2.25H8.01713C7.94513 2.25 7.91411 2.28402 7.91111 2.28702L5.66612 4.54401C5.65612 4.55301 5.60014 4.597 5.60014 4.69V19.302C5.60014 19.361 5.59711 19.393 5.64411 19.436L7.90711 21.708C7.93611 21.74 7.97613 21.755 8.03013 21.755H15.8681C15.9431 21.755 15.9841 21.718 15.9901 21.708L16.0151 21.687L18.2541 19.436C18.2911 19.399 18.2981 19.355 18.2981 19.312V4.70901C18.2981 4.64101 18.2851 4.59702 18.2131 4.52502ZM15.9531 2.84003L17.7521 4.65002L16.4761 5.16501L15.4411 4.12302L15.9531 2.84003ZM14.6671 18.603H9.22712L8.80113 18.151V5.93903L9.25312 5.48901H14.6921L15.1411 5.93903V18.154L14.6671 18.603ZM14.9121 19.727H8.98911L9.27412 19.009H14.5981L14.9121 19.727ZM8.40012 5.98901V18.082L7.68214 18.397V5.69901L8.40012 5.98901ZM7.82313 5.32703L8.61912 4.52802L8.90412 5.24902L8.54112 5.61401L7.82313 5.32703ZM8.54112 18.478L8.90412 18.843L8.61912 19.564L7.82313 18.765L8.54112 18.478ZM8.98911 4.388H14.8871L14.6011 5.10602H9.27412L8.98911 4.388ZM14.9931 5.24902L15.2781 4.52802L16.0751 5.32703L15.3571 5.61401L14.9931 5.24902ZM15.3571 18.478L16.0751 18.765L15.2781 19.564L14.9931 18.843L15.3571 18.478ZM15.5201 18.107V5.98901L16.2381 5.69901V18.366L15.5201 18.107ZM15.5791 2.69901L15.0721 3.98203H8.82612L8.31812 2.69901H15.5791ZM7.94514 2.84003L8.45612 4.12302L7.42112 5.16501L6.14512 4.65002L7.94514 2.84003ZM6.00413 5.02402L7.28013 5.53601V18.531L6.00413 19.046V5.02402ZM7.94514 21.253L6.14512 19.443L7.42112 18.928L8.45612 19.967L7.94514 21.253ZM8.31812 21.415L8.82612 20.135H15.0461L15.5571 21.415H8.31812ZM15.9531 21.253L15.4411 19.967L16.4761 18.928L17.7521 19.443L15.9531 21.253ZM17.9181 19.068L16.6391 18.556V5.53601L17.9181 5.02402V19.068Z" fill="#333335"/>
<path d="M18.2131 4.52502L15.9901 2.29401C15.9621 2.26601 15.9181 2.25 15.8681 2.25H8.01713C7.94513 2.25 7.91411 2.28402 7.91111 2.28702L5.66612 4.54401C5.65612 4.55301 5.60014 4.597 5.60014 4.69V19.302C5.60014 19.361 5.59711 19.393 5.64411 19.436L7.90711 21.708C7.93611 21.74 7.97613 21.755 8.03013 21.755H15.8681C15.9431 21.755 15.9841 21.718 15.9901 21.708L16.0151 21.687L18.2541 19.436C18.2911 19.399 18.2981 19.355 18.2981 19.312V4.70901C18.2981 4.64101 18.2851 4.59702 18.2131 4.52502ZM15.9531 2.84003L17.7521 4.65002L16.4761 5.16501L15.4411 4.12302L15.9531 2.84003ZM14.6671 18.603H9.22712L8.80113 18.151V5.93903L9.25312 5.48901H14.6921L15.1411 5.93903V18.154L14.6671 18.603ZM14.9121 19.727H8.98911L9.27412 19.009H14.5981L14.9121 19.727ZM8.40012 5.98901V18.082L7.68214 18.397V5.69901L8.40012 5.98901ZM7.82313 5.32703L8.61912 4.52802L8.90412 5.24902L8.54112 5.61401L7.82313 5.32703ZM8.54112 18.478L8.90412 18.843L8.61912 19.564L7.82313 18.765L8.54112 18.478ZM8.98911 4.388H14.8871L14.6011 5.10602H9.27412L8.98911 4.388ZM14.9931 5.24902L15.2781 4.52802L16.0751 5.32703L15.3571 5.61401L14.9931 5.24902ZM15.3571 18.478L16.0751 18.765L15.2781 19.564L14.9931 18.843L15.3571 18.478ZM15.5201 18.107V5.98901L16.2381 5.69901V18.366L15.5201 18.107ZM15.5791 2.69901L15.0721 3.98203H8.82612L8.31812 2.69901H15.5791ZM7.94514 2.84003L8.45612 4.12302L7.42112 5.16501L6.14512 4.65002L7.94514 2.84003ZM6.00413 5.02402L7.28013 5.53601V18.531L6.00413 19.046V5.02402ZM7.94514 21.253L6.14512 19.443L7.42112 18.928L8.45612 19.967L7.94514 21.253ZM8.31812 21.415L8.82612 20.135H15.0461L15.5571 21.415H8.31812ZM15.9531 21.253L15.4411 19.967L16.4761 18.928L17.7521 19.443L15.9531 21.253ZM17.9181 19.068L16.6391 18.556V5.53601L17.9181 5.02402V19.068Z" fill="black" fill-opacity="0.2"/>
<path d="M18.2131 4.52502L15.9901 2.29401C15.9621 2.26601 15.9181 2.25 15.8681 2.25H8.01713C7.94513 2.25 7.91411 2.28402 7.91111 2.28702L5.66612 4.54401C5.65612 4.55301 5.60014 4.597 5.60014 4.69V19.302C5.60014 19.361 5.59711 19.393 5.64411 19.436L7.90711 21.708C7.93611 21.74 7.97613 21.755 8.03013 21.755H15.8681C15.9431 21.755 15.9841 21.718 15.9901 21.708L16.0151 21.687L18.2541 19.436C18.2911 19.399 18.2981 19.355 18.2981 19.312V4.70901C18.2981 4.64101 18.2851 4.59702 18.2131 4.52502ZM15.9531 2.84003L17.7521 4.65002L16.4761 5.16501L15.4411 4.12302L15.9531 2.84003ZM14.6671 18.603H9.22712L8.80113 18.151V5.93903L9.25312 5.48901H14.6921L15.1411 5.93903V18.154L14.6671 18.603ZM14.9121 19.727H8.98911L9.27412 19.009H14.5981L14.9121 19.727ZM8.40012 5.98901V18.082L7.68214 18.397V5.69901L8.40012 5.98901ZM7.82313 5.32703L8.61912 4.52802L8.90412 5.24902L8.54112 5.61401L7.82313 5.32703ZM8.54112 18.478L8.90412 18.843L8.61912 19.564L7.82313 18.765L8.54112 18.478ZM8.98911 4.388H14.8871L14.6011 5.10602H9.27412L8.98911 4.388ZM14.9931 5.24902L15.2781 4.52802L16.0751 5.32703L15.3571 5.61401L14.9931 5.24902ZM15.3571 18.478L16.0751 18.765L15.2781 19.564L14.9931 18.843L15.3571 18.478ZM15.5201 18.107V5.98901L16.2381 5.69901V18.366L15.5201 18.107ZM15.5791 2.69901L15.0721 3.98203H8.82612L8.31812 2.69901H15.5791ZM7.94514 2.84003L8.45612 4.12302L7.42112 5.16501L6.14512 4.65002L7.94514 2.84003ZM6.00413 5.02402L7.28013 5.53601V18.531L6.00413 19.046V5.02402ZM7.94514 21.253L6.14512 19.443L7.42112 18.928L8.45612 19.967L7.94514 21.253ZM8.31812 21.415L8.82612 20.135H15.0461L15.5571 21.415H8.31812ZM15.9531 21.253L15.4411 19.967L16.4761 18.928L17.7521 19.443L15.9531 21.253ZM17.9181 19.068L16.6391 18.556V5.53601L17.9181 5.02402V19.068Z" fill="black" fill-opacity="0.2"/>
<path d="M18.2131 4.52502L15.9901 2.29401C15.9621 2.26601 15.9181 2.25 15.8681 2.25H8.01713C7.94513 2.25 7.91411 2.28402 7.91111 2.28702L5.66612 4.54401C5.65612 4.55301 5.60014 4.597 5.60014 4.69V19.302C5.60014 19.361 5.59711 19.393 5.64411 19.436L7.90711 21.708C7.93611 21.74 7.97613 21.755 8.03013 21.755H15.8681C15.9431 21.755 15.9841 21.718 15.9901 21.708L16.0151 21.687L18.2541 19.436C18.2911 19.399 18.2981 19.355 18.2981 19.312V4.70901C18.2981 4.64101 18.2851 4.59702 18.2131 4.52502ZM15.9531 2.84003L17.7521 4.65002L16.4761 5.16501L15.4411 4.12302L15.9531 2.84003ZM14.6671 18.603H9.22712L8.80113 18.151V5.93903L9.25312 5.48901H14.6921L15.1411 5.93903V18.154L14.6671 18.603ZM14.9121 19.727H8.98911L9.27412 19.009H14.5981L14.9121 19.727ZM8.40012 5.98901V18.082L7.68214 18.397V5.69901L8.40012 5.98901ZM7.82313 5.32703L8.61912 4.52802L8.90412 5.24902L8.54112 5.61401L7.82313 5.32703ZM8.54112 18.478L8.90412 18.843L8.61912 19.564L7.82313 18.765L8.54112 18.478ZM8.98911 4.388H14.8871L14.6011 5.10602H9.27412L8.98911 4.388ZM14.9931 5.24902L15.2781 4.52802L16.0751 5.32703L15.3571 5.61401L14.9931 5.24902ZM15.3571 18.478L16.0751 18.765L15.2781 19.564L14.9931 18.843L15.3571 18.478ZM15.5201 18.107V5.98901L16.2381 5.69901V18.366L15.5201 18.107ZM15.5791 2.69901L15.0721 3.98203H8.82612L8.31812 2.69901H15.5791ZM7.94514 2.84003L8.45612 4.12302L7.42112 5.16501L6.14512 4.65002L7.94514 2.84003ZM6.00413 5.02402L7.28013 5.53601V18.531L6.00413 19.046V5.02402ZM7.94514 21.253L6.14512 19.443L7.42112 18.928L8.45612 19.967L7.94514 21.253ZM8.31812 21.415L8.82612 20.135H15.0461L15.5571 21.415H8.31812ZM15.9531 21.253L15.4411 19.967L16.4761 18.928L17.7521 19.443L15.9531 21.253ZM17.9181 19.068L16.6391 18.556V5.53601L17.9181 5.02402V19.068Z" fill="black" fill-opacity="0.2"/>
<path d="M18.2131 4.52502L15.9901 2.29401C15.9621 2.26601 15.9181 2.25 15.8681 2.25H8.01713C7.94513 2.25 7.91411 2.28402 7.91111 2.28702L5.66612 4.54401C5.65612 4.55301 5.60014 4.597 5.60014 4.69V19.302C5.60014 19.361 5.59711 19.393 5.64411 19.436L7.90711 21.708C7.93611 21.74 7.97613 21.755 8.03013 21.755H15.8681C15.9431 21.755 15.9841 21.718 15.9901 21.708L16.0151 21.687L18.2541 19.436C18.2911 19.399 18.2981 19.355 18.2981 19.312V4.70901C18.2981 4.64101 18.2851 4.59702 18.2131 4.52502ZM15.9531 2.84003L17.7521 4.65002L16.4761 5.16501L15.4411 4.12302L15.9531 2.84003ZM14.6671 18.603H9.22712L8.80113 18.151V5.93903L9.25312 5.48901H14.6921L15.1411 5.93903V18.154L14.6671 18.603ZM14.9121 19.727H8.98911L9.27412 19.009H14.5981L14.9121 19.727ZM8.40012 5.98901V18.082L7.68214 18.397V5.69901L8.40012 5.98901ZM7.82313 5.32703L8.61912 4.52802L8.90412 5.24902L8.54112 5.61401L7.82313 5.32703ZM8.54112 18.478L8.90412 18.843L8.61912 19.564L7.82313 18.765L8.54112 18.478ZM8.98911 4.388H14.8871L14.6011 5.10602H9.27412L8.98911 4.388ZM14.9931 5.24902L15.2781 4.52802L16.0751 5.32703L15.3571 5.61401L14.9931 5.24902ZM15.3571 18.478L16.0751 18.765L15.2781 19.564L14.9931 18.843L15.3571 18.478ZM15.5201 18.107V5.98901L16.2381 5.69901V18.366L15.5201 18.107ZM15.5791 2.69901L15.0721 3.98203H8.82612L8.31812 2.69901H15.5791ZM7.94514 2.84003L8.45612 4.12302L7.42112 5.16501L6.14512 4.65002L7.94514 2.84003ZM6.00413 5.02402L7.28013 5.53601V18.531L6.00413 19.046V5.02402ZM7.94514 21.253L6.14512 19.443L7.42112 18.928L8.45612 19.967L7.94514 21.253ZM8.31812 21.415L8.82612 20.135H15.0461L15.5571 21.415H8.31812ZM15.9531 21.253L15.4411 19.967L16.4761 18.928L17.7521 19.443L15.9531 21.253ZM17.9181 19.068L16.6391 18.556V5.53601L17.9181 5.02402V19.068Z" fill="black" fill-opacity="0.2"/>
<path d="M18.2131 4.52502L15.9901 2.29401C15.9621 2.26601 15.9181 2.25 15.8681 2.25H8.01713C7.94513 2.25 7.91411 2.28402 7.91111 2.28702L5.66612 4.54401C5.65612 4.55301 5.60014 4.597 5.60014 4.69V19.302C5.60014 19.361 5.59711 19.393 5.64411 19.436L7.90711 21.708C7.93611 21.74 7.97613 21.755 8.03013 21.755H15.8681C15.9431 21.755 15.9841 21.718 15.9901 21.708L16.0151 21.687L18.2541 19.436C18.2911 19.399 18.2981 19.355 18.2981 19.312V4.70901C18.2981 4.64101 18.2851 4.59702 18.2131 4.52502ZM15.9531 2.84003L17.7521 4.65002L16.4761 5.16501L15.4411 4.12302L15.9531 2.84003ZM14.6671 18.603H9.22712L8.80113 18.151V5.93903L9.25312 5.48901H14.6921L15.1411 5.93903V18.154L14.6671 18.603ZM14.9121 19.727H8.98911L9.27412 19.009H14.5981L14.9121 19.727ZM8.40012 5.98901V18.082L7.68214 18.397V5.69901L8.40012 5.98901ZM7.82313 5.32703L8.61912 4.52802L8.90412 5.24902L8.54112 5.61401L7.82313 5.32703ZM8.54112 18.478L8.90412 18.843L8.61912 19.564L7.82313 18.765L8.54112 18.478ZM8.98911 4.388H14.8871L14.6011 5.10602H9.27412L8.98911 4.388ZM14.9931 5.24902L15.2781 4.52802L16.0751 5.32703L15.3571 5.61401L14.9931 5.24902ZM15.3571 18.478L16.0751 18.765L15.2781 19.564L14.9931 18.843L15.3571 18.478ZM15.5201 18.107V5.98901L16.2381 5.69901V18.366L15.5201 18.107ZM15.5791 2.69901L15.0721 3.98203H8.82612L8.31812 2.69901H15.5791ZM7.94514 2.84003L8.45612 4.12302L7.42112 5.16501L6.14512 4.65002L7.94514 2.84003ZM6.00413 5.02402L7.28013 5.53601V18.531L6.00413 19.046V5.02402ZM7.94514 21.253L6.14512 19.443L7.42112 18.928L8.45612 19.967L7.94514 21.253ZM8.31812 21.415L8.82612 20.135H15.0461L15.5571 21.415H8.31812ZM15.9531 21.253L15.4411 19.967L16.4761 18.928L17.7521 19.443L15.9531 21.253ZM17.9181 19.068L16.6391 18.556V5.53601L17.9181 5.02402V19.068Z" fill="black" fill-opacity="0.2"/>
<path d="M18.2131 4.52502L15.9901 2.29401C15.9621 2.26601 15.9181 2.25 15.8681 2.25H8.01713C7.94513 2.25 7.91411 2.28402 7.91111 2.28702L5.66612 4.54401C5.65612 4.55301 5.60014 4.597 5.60014 4.69V19.302C5.60014 19.361 5.59711 19.393 5.64411 19.436L7.90711 21.708C7.93611 21.74 7.97613 21.755 8.03013 21.755H15.8681C15.9431 21.755 15.9841 21.718 15.9901 21.708L16.0151 21.687L18.2541 19.436C18.2911 19.399 18.2981 19.355 18.2981 19.312V4.70901C18.2981 4.64101 18.2851 4.59702 18.2131 4.52502ZM15.9531 2.84003L17.7521 4.65002L16.4761 5.16501L15.4411 4.12302L15.9531 2.84003ZM14.6671 18.603H9.22712L8.80113 18.151V5.93903L9.25312 5.48901H14.6921L15.1411 5.93903V18.154L14.6671 18.603ZM14.9121 19.727H8.98911L9.27412 19.009H14.5981L14.9121 19.727ZM8.40012 5.98901V18.082L7.68214 18.397V5.69901L8.40012 5.98901ZM7.82313 5.32703L8.61912 4.52802L8.90412 5.24902L8.54112 5.61401L7.82313 5.32703ZM8.54112 18.478L8.90412 18.843L8.61912 19.564L7.82313 18.765L8.54112 18.478ZM8.98911 4.388H14.8871L14.6011 5.10602H9.27412L8.98911 4.388ZM14.9931 5.24902L15.2781 4.52802L16.0751 5.32703L15.3571 5.61401L14.9931 5.24902ZM15.3571 18.478L16.0751 18.765L15.2781 19.564L14.9931 18.843L15.3571 18.478ZM15.5201 18.107V5.98901L16.2381 5.69901V18.366L15.5201 18.107ZM15.5791 2.69901L15.0721 3.98203H8.82612L8.31812 2.69901H15.5791ZM7.94514 2.84003L8.45612 4.12302L7.42112 5.16501L6.14512 4.65002L7.94514 2.84003ZM6.00413 5.02402L7.28013 5.53601V18.531L6.00413 19.046V5.02402ZM7.94514 21.253L6.14512 19.443L7.42112 18.928L8.45612 19.967L7.94514 21.253ZM8.31812 21.415L8.82612 20.135H15.0461L15.5571 21.415H8.31812ZM15.9531 21.253L15.4411 19.967L16.4761 18.928L17.7521 19.443L15.9531 21.253ZM17.9181 19.068L16.6391 18.556V5.53601L17.9181 5.02402V19.068Z" fill="black" fill-opacity="0.2"/>
<path d="M18.2131 4.52502L15.9901 2.29401C15.9621 2.26601 15.9181 2.25 15.8681 2.25H8.01713C7.94513 2.25 7.91411 2.28402 7.91111 2.28702L5.66612 4.54401C5.65612 4.55301 5.60014 4.597 5.60014 4.69V19.302C5.60014 19.361 5.59711 19.393 5.64411 19.436L7.90711 21.708C7.93611 21.74 7.97613 21.755 8.03013 21.755H15.8681C15.9431 21.755 15.9841 21.718 15.9901 21.708L16.0151 21.687L18.2541 19.436C18.2911 19.399 18.2981 19.355 18.2981 19.312V4.70901C18.2981 4.64101 18.2851 4.59702 18.2131 4.52502ZM15.9531 2.84003L17.7521 4.65002L16.4761 5.16501L15.4411 4.12302L15.9531 2.84003ZM14.6671 18.603H9.22712L8.80113 18.151V5.93903L9.25312 5.48901H14.6921L15.1411 5.93903V18.154L14.6671 18.603ZM14.9121 19.727H8.98911L9.27412 19.009H14.5981L14.9121 19.727ZM8.40012 5.98901V18.082L7.68214 18.397V5.69901L8.40012 5.98901ZM7.82313 5.32703L8.61912 4.52802L8.90412 5.24902L8.54112 5.61401L7.82313 5.32703ZM8.54112 18.478L8.90412 18.843L8.61912 19.564L7.82313 18.765L8.54112 18.478ZM8.98911 4.388H14.8871L14.6011 5.10602H9.27412L8.98911 4.388ZM14.9931 5.24902L15.2781 4.52802L16.0751 5.32703L15.3571 5.61401L14.9931 5.24902ZM15.3571 18.478L16.0751 18.765L15.2781 19.564L14.9931 18.843L15.3571 18.478ZM15.5201 18.107V5.98901L16.2381 5.69901V18.366L15.5201 18.107ZM15.5791 2.69901L15.0721 3.98203H8.82612L8.31812 2.69901H15.5791ZM7.94514 2.84003L8.45612 4.12302L7.42112 5.16501L6.14512 4.65002L7.94514 2.84003ZM6.00413 5.02402L7.28013 5.53601V18.531L6.00413 19.046V5.02402ZM7.94514 21.253L6.14512 19.443L7.42112 18.928L8.45612 19.967L7.94514 21.253ZM8.31812 21.415L8.82612 20.135H15.0461L15.5571 21.415H8.31812ZM15.9531 21.253L15.4411 19.967L16.4761 18.928L17.7521 19.443L15.9531 21.253ZM17.9181 19.068L16.6391 18.556V5.53601L17.9181 5.02402V19.068Z" fill="black" fill-opacity="0.2"/>
<path d="M18.2131 4.52502L15.9901 2.29401C15.9621 2.26601 15.9181 2.25 15.8681 2.25H8.01713C7.94513 2.25 7.91411 2.28402 7.91111 2.28702L5.66612 4.54401C5.65612 4.55301 5.60014 4.597 5.60014 4.69V19.302C5.60014 19.361 5.59711 19.393 5.64411 19.436L7.90711 21.708C7.93611 21.74 7.97613 21.755 8.03013 21.755H15.8681C15.9431 21.755 15.9841 21.718 15.9901 21.708L16.0151 21.687L18.2541 19.436C18.2911 19.399 18.2981 19.355 18.2981 19.312V4.70901C18.2981 4.64101 18.2851 4.59702 18.2131 4.52502ZM15.9531 2.84003L17.7521 4.65002L16.4761 5.16501L15.4411 4.12302L15.9531 2.84003ZM14.6671 18.603H9.22712L8.80113 18.151V5.93903L9.25312 5.48901H14.6921L15.1411 5.93903V18.154L14.6671 18.603ZM14.9121 19.727H8.98911L9.27412 19.009H14.5981L14.9121 19.727ZM8.40012 5.98901V18.082L7.68214 18.397V5.69901L8.40012 5.98901ZM7.82313 5.32703L8.61912 4.52802L8.90412 5.24902L8.54112 5.61401L7.82313 5.32703ZM8.54112 18.478L8.90412 18.843L8.61912 19.564L7.82313 18.765L8.54112 18.478ZM8.98911 4.388H14.8871L14.6011 5.10602H9.27412L8.98911 4.388ZM14.9931 5.24902L15.2781 4.52802L16.0751 5.32703L15.3571 5.61401L14.9931 5.24902ZM15.3571 18.478L16.0751 18.765L15.2781 19.564L14.9931 18.843L15.3571 18.478ZM15.5201 18.107V5.98901L16.2381 5.69901V18.366L15.5201 18.107ZM15.5791 2.69901L15.0721 3.98203H8.82612L8.31812 2.69901H15.5791ZM7.94514 2.84003L8.45612 4.12302L7.42112 5.16501L6.14512 4.65002L7.94514 2.84003ZM6.00413 5.02402L7.28013 5.53601V18.531L6.00413 19.046V5.02402ZM7.94514 21.253L6.14512 19.443L7.42112 18.928L8.45612 19.967L7.94514 21.253ZM8.31812 21.415L8.82612 20.135H15.0461L15.5571 21.415H8.31812ZM15.9531 21.253L15.4411 19.967L16.4761 18.928L17.7521 19.443L15.9531 21.253ZM17.9181 19.068L16.6391 18.556V5.53601L17.9181 5.02402V19.068Z" fill="black" fill-opacity="0.2"/>
<path d="M18.2131 4.52502L15.9901 2.29401C15.9621 2.26601 15.9181 2.25 15.8681 2.25H8.01713C7.94513 2.25 7.91411 2.28402 7.91111 2.28702L5.66612 4.54401C5.65612 4.55301 5.60014 4.597 5.60014 4.69V19.302C5.60014 19.361 5.59711 19.393 5.64411 19.436L7.90711 21.708C7.93611 21.74 7.97613 21.755 8.03013 21.755H15.8681C15.9431 21.755 15.9841 21.718 15.9901 21.708L16.0151 21.687L18.2541 19.436C18.2911 19.399 18.2981 19.355 18.2981 19.312V4.70901C18.2981 4.64101 18.2851 4.59702 18.2131 4.52502ZM15.9531 2.84003L17.7521 4.65002L16.4761 5.16501L15.4411 4.12302L15.9531 2.84003ZM14.6671 18.603H9.22712L8.80113 18.151V5.93903L9.25312 5.48901H14.6921L15.1411 5.93903V18.154L14.6671 18.603ZM14.9121 19.727H8.98911L9.27412 19.009H14.5981L14.9121 19.727ZM8.40012 5.98901V18.082L7.68214 18.397V5.69901L8.40012 5.98901ZM7.82313 5.32703L8.61912 4.52802L8.90412 5.24902L8.54112 5.61401L7.82313 5.32703ZM8.54112 18.478L8.90412 18.843L8.61912 19.564L7.82313 18.765L8.54112 18.478ZM8.98911 4.388H14.8871L14.6011 5.10602H9.27412L8.98911 4.388ZM14.9931 5.24902L15.2781 4.52802L16.0751 5.32703L15.3571 5.61401L14.9931 5.24902ZM15.3571 18.478L16.0751 18.765L15.2781 19.564L14.9931 18.843L15.3571 18.478ZM15.5201 18.107V5.98901L16.2381 5.69901V18.366L15.5201 18.107ZM15.5791 2.69901L15.0721 3.98203H8.82612L8.31812 2.69901H15.5791ZM7.94514 2.84003L8.45612 4.12302L7.42112 5.16501L6.14512 4.65002L7.94514 2.84003ZM6.00413 5.02402L7.28013 5.53601V18.531L6.00413 19.046V5.02402ZM7.94514 21.253L6.14512 19.443L7.42112 18.928L8.45612 19.967L7.94514 21.253ZM8.31812 21.415L8.82612 20.135H15.0461L15.5571 21.415H8.31812ZM15.9531 21.253L15.4411 19.967L16.4761 18.928L17.7521 19.443L15.9531 21.253ZM17.9181 19.068L16.6391 18.556V5.53601L17.9181 5.02402V19.068Z" stroke="#333335" stroke-width="0.25"/>
<path d="M18.2131 4.52502L15.9901 2.29401C15.9621 2.26601 15.9181 2.25 15.8681 2.25H8.01713C7.94513 2.25 7.91411 2.28402 7.91111 2.28702L5.66612 4.54401C5.65612 4.55301 5.60014 4.597 5.60014 4.69V19.302C5.60014 19.361 5.59711 19.393 5.64411 19.436L7.90711 21.708C7.93611 21.74 7.97613 21.755 8.03013 21.755H15.8681C15.9431 21.755 15.9841 21.718 15.9901 21.708L16.0151 21.687L18.2541 19.436C18.2911 19.399 18.2981 19.355 18.2981 19.312V4.70901C18.2981 4.64101 18.2851 4.59702 18.2131 4.52502ZM15.9531 2.84003L17.7521 4.65002L16.4761 5.16501L15.4411 4.12302L15.9531 2.84003ZM14.6671 18.603H9.22712L8.80113 18.151V5.93903L9.25312 5.48901H14.6921L15.1411 5.93903V18.154L14.6671 18.603ZM14.9121 19.727H8.98911L9.27412 19.009H14.5981L14.9121 19.727ZM8.40012 5.98901V18.082L7.68214 18.397V5.69901L8.40012 5.98901ZM7.82313 5.32703L8.61912 4.52802L8.90412 5.24902L8.54112 5.61401L7.82313 5.32703ZM8.54112 18.478L8.90412 18.843L8.61912 19.564L7.82313 18.765L8.54112 18.478ZM8.98911 4.388H14.8871L14.6011 5.10602H9.27412L8.98911 4.388ZM14.9931 5.24902L15.2781 4.52802L16.0751 5.32703L15.3571 5.61401L14.9931 5.24902ZM15.3571 18.478L16.0751 18.765L15.2781 19.564L14.9931 18.843L15.3571 18.478ZM15.5201 18.107V5.98901L16.2381 5.69901V18.366L15.5201 18.107ZM15.5791 2.69901L15.0721 3.98203H8.82612L8.31812 2.69901H15.5791ZM7.94514 2.84003L8.45612 4.12302L7.42112 5.16501L6.14512 4.65002L7.94514 2.84003ZM6.00413 5.02402L7.28013 5.53601V18.531L6.00413 19.046V5.02402ZM7.94514 21.253L6.14512 19.443L7.42112 18.928L8.45612 19.967L7.94514 21.253ZM8.31812 21.415L8.82612 20.135H15.0461L15.5571 21.415H8.31812ZM15.9531 21.253L15.4411 19.967L16.4761 18.928L17.7521 19.443L15.9531 21.253ZM17.9181 19.068L16.6391 18.556V5.53601L17.9181 5.02402V19.068Z" stroke="black" stroke-opacity="0.2" stroke-width="0.25"/>
<path d="M18.2131 4.52502L15.9901 2.29401C15.9621 2.26601 15.9181 2.25 15.8681 2.25H8.01713C7.94513 2.25 7.91411 2.28402 7.91111 2.28702L5.66612 4.54401C5.65612 4.55301 5.60014 4.597 5.60014 4.69V19.302C5.60014 19.361 5.59711 19.393 5.64411 19.436L7.90711 21.708C7.93611 21.74 7.97613 21.755 8.03013 21.755H15.8681C15.9431 21.755 15.9841 21.718 15.9901 21.708L16.0151 21.687L18.2541 19.436C18.2911 19.399 18.2981 19.355 18.2981 19.312V4.70901C18.2981 4.64101 18.2851 4.59702 18.2131 4.52502ZM15.9531 2.84003L17.7521 4.65002L16.4761 5.16501L15.4411 4.12302L15.9531 2.84003ZM14.6671 18.603H9.22712L8.80113 18.151V5.93903L9.25312 5.48901H14.6921L15.1411 5.93903V18.154L14.6671 18.603ZM14.9121 19.727H8.98911L9.27412 19.009H14.5981L14.9121 19.727ZM8.40012 5.98901V18.082L7.68214 18.397V5.69901L8.40012 5.98901ZM7.82313 5.32703L8.61912 4.52802L8.90412 5.24902L8.54112 5.61401L7.82313 5.32703ZM8.54112 18.478L8.90412 18.843L8.61912 19.564L7.82313 18.765L8.54112 18.478ZM8.98911 4.388H14.8871L14.6011 5.10602H9.27412L8.98911 4.388ZM14.9931 5.24902L15.2781 4.52802L16.0751 5.32703L15.3571 5.61401L14.9931 5.24902ZM15.3571 18.478L16.0751 18.765L15.2781 19.564L14.9931 18.843L15.3571 18.478ZM15.5201 18.107V5.98901L16.2381 5.69901V18.366L15.5201 18.107ZM15.5791 2.69901L15.0721 3.98203H8.82612L8.31812 2.69901H15.5791ZM7.94514 2.84003L8.45612 4.12302L7.42112 5.16501L6.14512 4.65002L7.94514 2.84003ZM6.00413 5.02402L7.28013 5.53601V18.531L6.00413 19.046V5.02402ZM7.94514 21.253L6.14512 19.443L7.42112 18.928L8.45612 19.967L7.94514 21.253ZM8.31812 21.415L8.82612 20.135H15.0461L15.5571 21.415H8.31812ZM15.9531 21.253L15.4411 19.967L16.4761 18.928L17.7521 19.443L15.9531 21.253ZM17.9181 19.068L16.6391 18.556V5.53601L17.9181 5.02402V19.068Z" stroke="black" stroke-opacity="0.2" stroke-width="0.25"/>
<path d="M18.2131 4.52502L15.9901 2.29401C15.9621 2.26601 15.9181 2.25 15.8681 2.25H8.01713C7.94513 2.25 7.91411 2.28402 7.91111 2.28702L5.66612 4.54401C5.65612 4.55301 5.60014 4.597 5.60014 4.69V19.302C5.60014 19.361 5.59711 19.393 5.64411 19.436L7.90711 21.708C7.93611 21.74 7.97613 21.755 8.03013 21.755H15.8681C15.9431 21.755 15.9841 21.718 15.9901 21.708L16.0151 21.687L18.2541 19.436C18.2911 19.399 18.2981 19.355 18.2981 19.312V4.70901C18.2981 4.64101 18.2851 4.59702 18.2131 4.52502ZM15.9531 2.84003L17.7521 4.65002L16.4761 5.16501L15.4411 4.12302L15.9531 2.84003ZM14.6671 18.603H9.22712L8.80113 18.151V5.93903L9.25312 5.48901H14.6921L15.1411 5.93903V18.154L14.6671 18.603ZM14.9121 19.727H8.98911L9.27412 19.009H14.5981L14.9121 19.727ZM8.40012 5.98901V18.082L7.68214 18.397V5.69901L8.40012 5.98901ZM7.82313 5.32703L8.61912 4.52802L8.90412 5.24902L8.54112 5.61401L7.82313 5.32703ZM8.54112 18.478L8.90412 18.843L8.61912 19.564L7.82313 18.765L8.54112 18.478ZM8.98911 4.388H14.8871L14.6011 5.10602H9.27412L8.98911 4.388ZM14.9931 5.24902L15.2781 4.52802L16.0751 5.32703L15.3571 5.61401L14.9931 5.24902ZM15.3571 18.478L16.0751 18.765L15.2781 19.564L14.9931 18.843L15.3571 18.478ZM15.5201 18.107V5.98901L16.2381 5.69901V18.366L15.5201 18.107ZM15.5791 2.69901L15.0721 3.98203H8.82612L8.31812 2.69901H15.5791ZM7.94514 2.84003L8.45612 4.12302L7.42112 5.16501L6.14512 4.65002L7.94514 2.84003ZM6.00413 5.02402L7.28013 5.53601V18.531L6.00413 19.046V5.02402ZM7.94514 21.253L6.14512 19.443L7.42112 18.928L8.45612 19.967L7.94514 21.253ZM8.31812 21.415L8.82612 20.135H15.0461L15.5571 21.415H8.31812ZM15.9531 21.253L15.4411 19.967L16.4761 18.928L17.7521 19.443L15.9531 21.253ZM17.9181 19.068L16.6391 18.556V5.53601L17.9181 5.02402V19.068Z" stroke="black" stroke-opacity="0.2" stroke-width="0.25"/>
<path d="M18.2131 4.52502L15.9901 2.29401C15.9621 2.26601 15.9181 2.25 15.8681 2.25H8.01713C7.94513 2.25 7.91411 2.28402 7.91111 2.28702L5.66612 4.54401C5.65612 4.55301 5.60014 4.597 5.60014 4.69V19.302C5.60014 19.361 5.59711 19.393 5.64411 19.436L7.90711 21.708C7.93611 21.74 7.97613 21.755 8.03013 21.755H15.8681C15.9431 21.755 15.9841 21.718 15.9901 21.708L16.0151 21.687L18.2541 19.436C18.2911 19.399 18.2981 19.355 18.2981 19.312V4.70901C18.2981 4.64101 18.2851 4.59702 18.2131 4.52502ZM15.9531 2.84003L17.7521 4.65002L16.4761 5.16501L15.4411 4.12302L15.9531 2.84003ZM14.6671 18.603H9.22712L8.80113 18.151V5.93903L9.25312 5.48901H14.6921L15.1411 5.93903V18.154L14.6671 18.603ZM14.9121 19.727H8.98911L9.27412 19.009H14.5981L14.9121 19.727ZM8.40012 5.98901V18.082L7.68214 18.397V5.69901L8.40012 5.98901ZM7.82313 5.32703L8.61912 4.52802L8.90412 5.24902L8.54112 5.61401L7.82313 5.32703ZM8.54112 18.478L8.90412 18.843L8.61912 19.564L7.82313 18.765L8.54112 18.478ZM8.98911 4.388H14.8871L14.6011 5.10602H9.27412L8.98911 4.388ZM14.9931 5.24902L15.2781 4.52802L16.0751 5.32703L15.3571 5.61401L14.9931 5.24902ZM15.3571 18.478L16.0751 18.765L15.2781 19.564L14.9931 18.843L15.3571 18.478ZM15.5201 18.107V5.98901L16.2381 5.69901V18.366L15.5201 18.107ZM15.5791 2.69901L15.0721 3.98203H8.82612L8.31812 2.69901H15.5791ZM7.94514 2.84003L8.45612 4.12302L7.42112 5.16501L6.14512 4.65002L7.94514 2.84003ZM6.00413 5.02402L7.28013 5.53601V18.531L6.00413 19.046V5.02402ZM7.94514 21.253L6.14512 19.443L7.42112 18.928L8.45612 19.967L7.94514 21.253ZM8.31812 21.415L8.82612 20.135H15.0461L15.5571 21.415H8.31812ZM15.9531 21.253L15.4411 19.967L16.4761 18.928L17.7521 19.443L15.9531 21.253ZM17.9181 19.068L16.6391 18.556V5.53601L17.9181 5.02402V19.068Z" stroke="black" stroke-opacity="0.2" stroke-width="0.25"/>
<path d="M18.2131 4.52502L15.9901 2.29401C15.9621 2.26601 15.9181 2.25 15.8681 2.25H8.01713C7.94513 2.25 7.91411 2.28402 7.91111 2.28702L5.66612 4.54401C5.65612 4.55301 5.60014 4.597 5.60014 4.69V19.302C5.60014 19.361 5.59711 19.393 5.64411 19.436L7.90711 21.708C7.93611 21.74 7.97613 21.755 8.03013 21.755H15.8681C15.9431 21.755 15.9841 21.718 15.9901 21.708L16.0151 21.687L18.2541 19.436C18.2911 19.399 18.2981 19.355 18.2981 19.312V4.70901C18.2981 4.64101 18.2851 4.59702 18.2131 4.52502ZM15.9531 2.84003L17.7521 4.65002L16.4761 5.16501L15.4411 4.12302L15.9531 2.84003ZM14.6671 18.603H9.22712L8.80113 18.151V5.93903L9.25312 5.48901H14.6921L15.1411 5.93903V18.154L14.6671 18.603ZM14.9121 19.727H8.98911L9.27412 19.009H14.5981L14.9121 19.727ZM8.40012 5.98901V18.082L7.68214 18.397V5.69901L8.40012 5.98901ZM7.82313 5.32703L8.61912 4.52802L8.90412 5.24902L8.54112 5.61401L7.82313 5.32703ZM8.54112 18.478L8.90412 18.843L8.61912 19.564L7.82313 18.765L8.54112 18.478ZM8.98911 4.388H14.8871L14.6011 5.10602H9.27412L8.98911 4.388ZM14.9931 5.24902L15.2781 4.52802L16.0751 5.32703L15.3571 5.61401L14.9931 5.24902ZM15.3571 18.478L16.0751 18.765L15.2781 19.564L14.9931 18.843L15.3571 18.478ZM15.5201 18.107V5.98901L16.2381 5.69901V18.366L15.5201 18.107ZM15.5791 2.69901L15.0721 3.98203H8.82612L8.31812 2.69901H15.5791ZM7.94514 2.84003L8.45612 4.12302L7.42112 5.16501L6.14512 4.65002L7.94514 2.84003ZM6.00413 5.02402L7.28013 5.53601V18.531L6.00413 19.046V5.02402ZM7.94514 21.253L6.14512 19.443L7.42112 18.928L8.45612 19.967L7.94514 21.253ZM8.31812 21.415L8.82612 20.135H15.0461L15.5571 21.415H8.31812ZM15.9531 21.253L15.4411 19.967L16.4761 18.928L17.7521 19.443L15.9531 21.253ZM17.9181 19.068L16.6391 18.556V5.53601L17.9181 5.02402V19.068Z" stroke="black" stroke-opacity="0.2" stroke-width="0.25"/>
<path d="M18.2131 4.52502L15.9901 2.29401C15.9621 2.26601 15.9181 2.25 15.8681 2.25H8.01713C7.94513 2.25 7.91411 2.28402 7.91111 2.28702L5.66612 4.54401C5.65612 4.55301 5.60014 4.597 5.60014 4.69V19.302C5.60014 19.361 5.59711 19.393 5.64411 19.436L7.90711 21.708C7.93611 21.74 7.97613 21.755 8.03013 21.755H15.8681C15.9431 21.755 15.9841 21.718 15.9901 21.708L16.0151 21.687L18.2541 19.436C18.2911 19.399 18.2981 19.355 18.2981 19.312V4.70901C18.2981 4.64101 18.2851 4.59702 18.2131 4.52502ZM15.9531 2.84003L17.7521 4.65002L16.4761 5.16501L15.4411 4.12302L15.9531 2.84003ZM14.6671 18.603H9.22712L8.80113 18.151V5.93903L9.25312 5.48901H14.6921L15.1411 5.93903V18.154L14.6671 18.603ZM14.9121 19.727H8.98911L9.27412 19.009H14.5981L14.9121 19.727ZM8.40012 5.98901V18.082L7.68214 18.397V5.69901L8.40012 5.98901ZM7.82313 5.32703L8.61912 4.52802L8.90412 5.24902L8.54112 5.61401L7.82313 5.32703ZM8.54112 18.478L8.90412 18.843L8.61912 19.564L7.82313 18.765L8.54112 18.478ZM8.98911 4.388H14.8871L14.6011 5.10602H9.27412L8.98911 4.388ZM14.9931 5.24902L15.2781 4.52802L16.0751 5.32703L15.3571 5.61401L14.9931 5.24902ZM15.3571 18.478L16.0751 18.765L15.2781 19.564L14.9931 18.843L15.3571 18.478ZM15.5201 18.107V5.98901L16.2381 5.69901V18.366L15.5201 18.107ZM15.5791 2.69901L15.0721 3.98203H8.82612L8.31812 2.69901H15.5791ZM7.94514 2.84003L8.45612 4.12302L7.42112 5.16501L6.14512 4.65002L7.94514 2.84003ZM6.00413 5.02402L7.28013 5.53601V18.531L6.00413 19.046V5.02402ZM7.94514 21.253L6.14512 19.443L7.42112 18.928L8.45612 19.967L7.94514 21.253ZM8.31812 21.415L8.82612 20.135H15.0461L15.5571 21.415H8.31812ZM15.9531 21.253L15.4411 19.967L16.4761 18.928L17.7521 19.443L15.9531 21.253ZM17.9181 19.068L16.6391 18.556V5.53601L17.9181 5.02402V19.068Z" stroke="black" stroke-opacity="0.2" stroke-width="0.25"/>
<path d="M18.2131 4.52502L15.9901 2.29401C15.9621 2.26601 15.9181 2.25 15.8681 2.25H8.01713C7.94513 2.25 7.91411 2.28402 7.91111 2.28702L5.66612 4.54401C5.65612 4.55301 5.60014 4.597 5.60014 4.69V19.302C5.60014 19.361 5.59711 19.393 5.64411 19.436L7.90711 21.708C7.93611 21.74 7.97613 21.755 8.03013 21.755H15.8681C15.9431 21.755 15.9841 21.718 15.9901 21.708L16.0151 21.687L18.2541 19.436C18.2911 19.399 18.2981 19.355 18.2981 19.312V4.70901C18.2981 4.64101 18.2851 4.59702 18.2131 4.52502ZM15.9531 2.84003L17.7521 4.65002L16.4761 5.16501L15.4411 4.12302L15.9531 2.84003ZM14.6671 18.603H9.22712L8.80113 18.151V5.93903L9.25312 5.48901H14.6921L15.1411 5.93903V18.154L14.6671 18.603ZM14.9121 19.727H8.98911L9.27412 19.009H14.5981L14.9121 19.727ZM8.40012 5.98901V18.082L7.68214 18.397V5.69901L8.40012 5.98901ZM7.82313 5.32703L8.61912 4.52802L8.90412 5.24902L8.54112 5.61401L7.82313 5.32703ZM8.54112 18.478L8.90412 18.843L8.61912 19.564L7.82313 18.765L8.54112 18.478ZM8.98911 4.388H14.8871L14.6011 5.10602H9.27412L8.98911 4.388ZM14.9931 5.24902L15.2781 4.52802L16.0751 5.32703L15.3571 5.61401L14.9931 5.24902ZM15.3571 18.478L16.0751 18.765L15.2781 19.564L14.9931 18.843L15.3571 18.478ZM15.5201 18.107V5.98901L16.2381 5.69901V18.366L15.5201 18.107ZM15.5791 2.69901L15.0721 3.98203H8.82612L8.31812 2.69901H15.5791ZM7.94514 2.84003L8.45612 4.12302L7.42112 5.16501L6.14512 4.65002L7.94514 2.84003ZM6.00413 5.02402L7.28013 5.53601V18.531L6.00413 19.046V5.02402ZM7.94514 21.253L6.14512 19.443L7.42112 18.928L8.45612 19.967L7.94514 21.253ZM8.31812 21.415L8.82612 20.135H15.0461L15.5571 21.415H8.31812ZM15.9531 21.253L15.4411 19.967L16.4761 18.928L17.7521 19.443L15.9531 21.253ZM17.9181 19.068L16.6391 18.556V5.53601L17.9181 5.02402V19.068Z" stroke="black" stroke-opacity="0.2" stroke-width="0.25"/>
<path d="M18.2131 4.52502L15.9901 2.29401C15.9621 2.26601 15.9181 2.25 15.8681 2.25H8.01713C7.94513 2.25 7.91411 2.28402 7.91111 2.28702L5.66612 4.54401C5.65612 4.55301 5.60014 4.597 5.60014 4.69V19.302C5.60014 19.361 5.59711 19.393 5.64411 19.436L7.90711 21.708C7.93611 21.74 7.97613 21.755 8.03013 21.755H15.8681C15.9431 21.755 15.9841 21.718 15.9901 21.708L16.0151 21.687L18.2541 19.436C18.2911 19.399 18.2981 19.355 18.2981 19.312V4.70901C18.2981 4.64101 18.2851 4.59702 18.2131 4.52502ZM15.9531 2.84003L17.7521 4.65002L16.4761 5.16501L15.4411 4.12302L15.9531 2.84003ZM14.6671 18.603H9.22712L8.80113 18.151V5.93903L9.25312 5.48901H14.6921L15.1411 5.93903V18.154L14.6671 18.603ZM14.9121 19.727H8.98911L9.27412 19.009H14.5981L14.9121 19.727ZM8.40012 5.98901V18.082L7.68214 18.397V5.69901L8.40012 5.98901ZM7.82313 5.32703L8.61912 4.52802L8.90412 5.24902L8.54112 5.61401L7.82313 5.32703ZM8.54112 18.478L8.90412 18.843L8.61912 19.564L7.82313 18.765L8.54112 18.478ZM8.98911 4.388H14.8871L14.6011 5.10602H9.27412L8.98911 4.388ZM14.9931 5.24902L15.2781 4.52802L16.0751 5.32703L15.3571 5.61401L14.9931 5.24902ZM15.3571 18.478L16.0751 18.765L15.2781 19.564L14.9931 18.843L15.3571 18.478ZM15.5201 18.107V5.98901L16.2381 5.69901V18.366L15.5201 18.107ZM15.5791 2.69901L15.0721 3.98203H8.82612L8.31812 2.69901H15.5791ZM7.94514 2.84003L8.45612 4.12302L7.42112 5.16501L6.14512 4.65002L7.94514 2.84003ZM6.00413 5.02402L7.28013 5.53601V18.531L6.00413 19.046V5.02402ZM7.94514 21.253L6.14512 19.443L7.42112 18.928L8.45612 19.967L7.94514 21.253ZM8.31812 21.415L8.82612 20.135H15.0461L15.5571 21.415H8.31812ZM15.9531 21.253L15.4411 19.967L16.4761 18.928L17.7521 19.443L15.9531 21.253ZM17.9181 19.068L16.6391 18.556V5.53601L17.9181 5.02402V19.068Z" stroke="black" stroke-opacity="0.2" stroke-width="0.25"/>
</svg>
