<svg width="24" height="24" viewBox="0 0 24 24" fill="none" xmlns="http://www.w3.org/2000/svg">
<path d="M22.2971 7.0672C21.9421 4.2902 19.5551 2.2002 16.7471 2.2002C14.6851 2.2002 12.1191 3.8582 12.0101 3.9292L11.9621 3.96222L11.9091 3.9292C11.8011 3.8582 9.23909 2.2002 7.17709 2.2002C4.10309 2.2002 1.6001 4.69919 1.6001 7.77319C1.6001 8.08219 1.6261 8.46922 1.6711 8.88922C1.7381 9.49922 1.85009 10.1602 2.00409 10.8632C2.17209 11.6222 2.4481 12.4322 2.8221 13.2802C3.1651 14.0492 3.58009 14.8012 4.05809 15.5002C4.54009 16.2022 5.09309 16.8792 5.71309 17.5112C6.32909 18.1432 7.02409 18.7492 7.77409 19.3112C8.52909 19.8722 9.3621 20.4042 10.2511 20.8942C10.5721 21.0692 10.9051 21.2442 11.2441 21.4112C11.3041 21.4412 11.3681 21.4742 11.4271 21.5122C11.5581 21.5822 11.6811 21.6492 11.8121 21.6862C11.9881 21.7382 12.1151 21.6752 12.2871 21.5902L12.3651 21.5492C12.8281 21.3292 13.2841 21.0912 13.7171 20.8542C14.5801 20.3742 15.3941 19.8532 16.1261 19.3032C16.8621 18.7572 17.5421 18.1652 18.1511 17.5482C18.7561 16.9312 19.3011 16.2732 19.7791 15.5852C20.2541 14.9012 20.6681 14.1722 21.0121 13.4212C21.3561 12.6702 21.6401 11.8742 21.8531 11.0562C22.0321 10.3612 22.1661 9.62919 22.2491 8.88519C22.2971 8.46919 22.3191 8.08219 22.3191 7.77319C22.3461 7.53519 22.3191 7.2972 22.2971 7.0672ZM19.6191 3.48621C20.7281 4.22621 21.4981 5.34921 21.7891 6.65421L21.8261 6.81821L17.6991 5.29721L19.5551 3.4462L19.6191 3.48621ZM17.4711 8.8262L18.8271 10.1492L17.0191 11.5032L17.4711 8.8262ZM17.1241 8.08621L14.4831 7.1972L17.1241 5.72522V8.08621ZM17.5611 8.29022V5.68021L21.7441 7.20822L19.1371 9.86722L17.5611 8.29022ZM15.4581 2.78021C15.9771 2.66521 16.3881 2.60922 16.7471 2.60922C17.5271 2.60922 18.3121 2.7992 19.0811 3.1702L19.2011 3.2262L17.3401 5.08521L15.3011 2.8132L15.4581 2.78021ZM17.0121 5.3342L13.9561 7.0372L12.3091 6.48019L14.9691 3.0592L17.0121 5.3342ZM12.1781 4.30121L12.3351 4.20822C12.6641 4.01422 13.2761 3.65419 14.0011 3.31219L14.3521 3.14819L12.1781 5.96622V4.30121ZM12.1781 6.85519L13.4781 7.29721L12.1781 8.02621V6.85519ZM11.9621 8.54321C12.0891 8.54321 12.2041 8.47222 12.3311 8.40222L13.8291 7.5762C13.9381 7.5062 13.9901 7.47621 14.0461 7.49521L17.1131 8.5242L16.5451 11.8782L16.5301 11.8972L14.1921 14.8082L11.9621 16.4742L9.70909 14.7892L7.37509 11.8782L6.8071 8.5242L9.91109 7.48019L11.4281 8.30521C11.4651 8.32421 11.5061 8.34619 11.5431 8.36819C11.6481 8.43119 11.7561 8.4952 11.8651 8.5282C11.8981 8.5392 11.9281 8.54321 11.9621 8.54321ZM16.6721 12.4212L17.0981 14.1832L14.8831 14.6372L16.6721 12.4212ZM14.0381 15.4442L13.6051 17.6152L12.3021 16.7452L14.0381 15.4442ZM11.5961 16.7232L10.2921 17.5892L9.85909 15.4212L11.5961 16.7232ZM9.0591 14.6372L6.8221 14.1832L7.27409 12.3992L9.0591 14.6372ZM6.44809 8.8002L6.90009 11.4802L5.09608 10.1272L6.44809 8.8002ZM4.7831 9.86722L2.2011 7.20822L6.35909 5.68021V8.29022L4.7831 9.86722ZM6.7961 8.0712V5.72522L9.44009 7.1972L6.7961 8.0712ZM10.4601 7.30121L11.7671 6.85519V8.00021L10.4601 7.30121ZM9.89209 3.31219C10.6321 3.62819 11.2591 4.0002 11.5961 4.2002L11.7671 4.30121V5.9892L9.55609 3.16721L9.89209 3.31219ZM11.6111 6.48019L9.96709 7.0372L6.9081 5.3342L8.9511 3.0592L11.6111 6.48019ZM4.81209 3.1962C5.54809 2.8022 6.32509 2.60922 7.17709 2.60922C7.56509 2.60922 7.9651 2.67221 8.4471 2.80621L8.5891 2.8472L6.5571 5.11121L4.70009 3.2562L4.81209 3.1962ZM2.10809 6.65121C2.42209 5.34921 3.19109 4.22621 4.27809 3.48621L4.34209 3.4462L6.19809 5.29721L2.07109 6.8222L2.10809 6.65121ZM2.32509 10.4692C2.23109 9.95621 2.13409 9.40222 2.06009 8.83722C2.01509 8.46922 1.98909 8.0972 1.98909 7.8222V7.59122L4.36409 10.0492L2.34309 10.5662L2.32509 10.4692ZM3.0461 12.7112C2.8071 12.1272 2.62709 11.5812 2.49309 11.0492L2.47009 10.9602L4.39009 10.4802L3.12408 12.8972L3.0461 12.7112ZM4.84608 10.4542L6.9451 12.0162L6.43008 14.0832L3.4041 13.2352L4.84608 10.4542ZM4.70808 15.7192C4.24808 15.0722 3.8791 14.4732 3.5761 13.8902L3.4791 13.7002L6.16109 14.4472L4.77109 15.8082L4.70808 15.7192ZM6.46709 17.6712C5.98909 17.2172 5.56309 16.7492 5.11909 16.2022L5.06609 16.1352L6.4191 14.8122L6.6431 17.8382L6.46709 17.6712ZM6.8111 14.5922L9.4101 15.1092L9.91809 17.7532L7.06509 18.0872L6.8111 14.5922ZM9.35109 19.8792C8.59209 19.4042 8.03609 19.0092 7.54709 18.6082L7.37909 18.4672L9.90709 18.1882L9.45909 19.9502L9.35109 19.8792ZM11.2481 20.9612C10.8751 20.7752 10.5161 20.5752 10.1721 20.3812L9.81808 20.1842L10.2321 18.5302L11.4981 21.0842L11.2481 20.9612ZM11.9621 21.0622L10.4301 18.0022L11.9621 16.9872L13.4931 18.0022L11.9621 21.0622ZM14.0871 20.1952C13.5421 20.5112 13.0821 20.7532 12.6451 20.9612L12.3991 21.0802L13.7101 18.5152L14.1511 20.1582L14.0871 20.1952ZM16.3511 18.6302C15.8241 19.0612 15.2411 19.4742 14.6171 19.8572L14.5091 19.9242L14.0351 18.1882L16.5191 18.4932L16.3511 18.6302ZM16.8291 18.1132L14.0011 17.7532L14.5351 15.1092L17.1351 14.5922L16.8291 18.1132ZM18.8051 16.1982C18.4311 16.6822 17.9981 17.1542 17.4301 17.6932L17.2541 17.8642L17.5051 14.8152L18.8531 16.1352L18.8051 16.1982ZM20.3441 13.8672C19.9961 14.5402 19.6081 15.1612 19.1891 15.7192L19.1221 15.8042L17.7361 14.4472L20.4441 13.6742L20.3441 13.8672ZM17.4901 14.0832L16.9741 12.0422L19.0741 10.4802L20.4931 13.2612L17.4901 14.0832ZM21.4271 11.0492C21.2891 11.6072 21.0981 12.1902 20.8741 12.7332L20.7991 12.9232L19.5331 10.4802L21.4491 10.9602L21.4271 11.0492ZM21.9351 7.82919C21.9091 8.11519 21.8861 8.45022 21.8601 8.83322V8.83722C21.7891 9.38022 21.7181 9.94121 21.5951 10.4732L21.5761 10.5662L19.5551 10.0492L21.9531 7.56921L21.9351 7.82919Z" fill="#333335"/>
<path d="M22.2971 7.0672C21.9421 4.2902 19.5551 2.2002 16.7471 2.2002C14.6851 2.2002 12.1191 3.8582 12.0101 3.9292L11.9621 3.96222L11.9091 3.9292C11.8011 3.8582 9.23909 2.2002 7.17709 2.2002C4.10309 2.2002 1.6001 4.69919 1.6001 7.77319C1.6001 8.08219 1.6261 8.46922 1.6711 8.88922C1.7381 9.49922 1.85009 10.1602 2.00409 10.8632C2.17209 11.6222 2.4481 12.4322 2.8221 13.2802C3.1651 14.0492 3.58009 14.8012 4.05809 15.5002C4.54009 16.2022 5.09309 16.8792 5.71309 17.5112C6.32909 18.1432 7.02409 18.7492 7.77409 19.3112C8.52909 19.8722 9.3621 20.4042 10.2511 20.8942C10.5721 21.0692 10.9051 21.2442 11.2441 21.4112C11.3041 21.4412 11.3681 21.4742 11.4271 21.5122C11.5581 21.5822 11.6811 21.6492 11.8121 21.6862C11.9881 21.7382 12.1151 21.6752 12.2871 21.5902L12.3651 21.5492C12.8281 21.3292 13.2841 21.0912 13.7171 20.8542C14.5801 20.3742 15.3941 19.8532 16.1261 19.3032C16.8621 18.7572 17.5421 18.1652 18.1511 17.5482C18.7561 16.9312 19.3011 16.2732 19.7791 15.5852C20.2541 14.9012 20.6681 14.1722 21.0121 13.4212C21.3561 12.6702 21.6401 11.8742 21.8531 11.0562C22.0321 10.3612 22.1661 9.62919 22.2491 8.88519C22.2971 8.46919 22.3191 8.08219 22.3191 7.77319C22.3461 7.53519 22.3191 7.2972 22.2971 7.0672ZM19.6191 3.48621C20.7281 4.22621 21.4981 5.34921 21.7891 6.65421L21.8261 6.81821L17.6991 5.29721L19.5551 3.4462L19.6191 3.48621ZM17.4711 8.8262L18.8271 10.1492L17.0191 11.5032L17.4711 8.8262ZM17.1241 8.08621L14.4831 7.1972L17.1241 5.72522V8.08621ZM17.5611 8.29022V5.68021L21.7441 7.20822L19.1371 9.86722L17.5611 8.29022ZM15.4581 2.78021C15.9771 2.66521 16.3881 2.60922 16.7471 2.60922C17.5271 2.60922 18.3121 2.7992 19.0811 3.1702L19.2011 3.2262L17.3401 5.08521L15.3011 2.8132L15.4581 2.78021ZM17.0121 5.3342L13.9561 7.0372L12.3091 6.48019L14.9691 3.0592L17.0121 5.3342ZM12.1781 4.30121L12.3351 4.20822C12.6641 4.01422 13.2761 3.65419 14.0011 3.31219L14.3521 3.14819L12.1781 5.96622V4.30121ZM12.1781 6.85519L13.4781 7.29721L12.1781 8.02621V6.85519ZM11.9621 8.54321C12.0891 8.54321 12.2041 8.47222 12.3311 8.40222L13.8291 7.5762C13.9381 7.5062 13.9901 7.47621 14.0461 7.49521L17.1131 8.5242L16.5451 11.8782L16.5301 11.8972L14.1921 14.8082L11.9621 16.4742L9.70909 14.7892L7.37509 11.8782L6.8071 8.5242L9.91109 7.48019L11.4281 8.30521C11.4651 8.32421 11.5061 8.34619 11.5431 8.36819C11.6481 8.43119 11.7561 8.4952 11.8651 8.5282C11.8981 8.5392 11.9281 8.54321 11.9621 8.54321ZM16.6721 12.4212L17.0981 14.1832L14.8831 14.6372L16.6721 12.4212ZM14.0381 15.4442L13.6051 17.6152L12.3021 16.7452L14.0381 15.4442ZM11.5961 16.7232L10.2921 17.5892L9.85909 15.4212L11.5961 16.7232ZM9.0591 14.6372L6.8221 14.1832L7.27409 12.3992L9.0591 14.6372ZM6.44809 8.8002L6.90009 11.4802L5.09608 10.1272L6.44809 8.8002ZM4.7831 9.86722L2.2011 7.20822L6.35909 5.68021V8.29022L4.7831 9.86722ZM6.7961 8.0712V5.72522L9.44009 7.1972L6.7961 8.0712ZM10.4601 7.30121L11.7671 6.85519V8.00021L10.4601 7.30121ZM9.89209 3.31219C10.6321 3.62819 11.2591 4.0002 11.5961 4.2002L11.7671 4.30121V5.9892L9.55609 3.16721L9.89209 3.31219ZM11.6111 6.48019L9.96709 7.0372L6.9081 5.3342L8.9511 3.0592L11.6111 6.48019ZM4.81209 3.1962C5.54809 2.8022 6.32509 2.60922 7.17709 2.60922C7.56509 2.60922 7.9651 2.67221 8.4471 2.80621L8.5891 2.8472L6.5571 5.11121L4.70009 3.2562L4.81209 3.1962ZM2.10809 6.65121C2.42209 5.34921 3.19109 4.22621 4.27809 3.48621L4.34209 3.4462L6.19809 5.29721L2.07109 6.8222L2.10809 6.65121ZM2.32509 10.4692C2.23109 9.95621 2.13409 9.40222 2.06009 8.83722C2.01509 8.46922 1.98909 8.0972 1.98909 7.8222V7.59122L4.36409 10.0492L2.34309 10.5662L2.32509 10.4692ZM3.0461 12.7112C2.8071 12.1272 2.62709 11.5812 2.49309 11.0492L2.47009 10.9602L4.39009 10.4802L3.12408 12.8972L3.0461 12.7112ZM4.84608 10.4542L6.9451 12.0162L6.43008 14.0832L3.4041 13.2352L4.84608 10.4542ZM4.70808 15.7192C4.24808 15.0722 3.8791 14.4732 3.5761 13.8902L3.4791 13.7002L6.16109 14.4472L4.77109 15.8082L4.70808 15.7192ZM6.46709 17.6712C5.98909 17.2172 5.56309 16.7492 5.11909 16.2022L5.06609 16.1352L6.4191 14.8122L6.6431 17.8382L6.46709 17.6712ZM6.8111 14.5922L9.4101 15.1092L9.91809 17.7532L7.06509 18.0872L6.8111 14.5922ZM9.35109 19.8792C8.59209 19.4042 8.03609 19.0092 7.54709 18.6082L7.37909 18.4672L9.90709 18.1882L9.45909 19.9502L9.35109 19.8792ZM11.2481 20.9612C10.8751 20.7752 10.5161 20.5752 10.1721 20.3812L9.81808 20.1842L10.2321 18.5302L11.4981 21.0842L11.2481 20.9612ZM11.9621 21.0622L10.4301 18.0022L11.9621 16.9872L13.4931 18.0022L11.9621 21.0622ZM14.0871 20.1952C13.5421 20.5112 13.0821 20.7532 12.6451 20.9612L12.3991 21.0802L13.7101 18.5152L14.1511 20.1582L14.0871 20.1952ZM16.3511 18.6302C15.8241 19.0612 15.2411 19.4742 14.6171 19.8572L14.5091 19.9242L14.0351 18.1882L16.5191 18.4932L16.3511 18.6302ZM16.8291 18.1132L14.0011 17.7532L14.5351 15.1092L17.1351 14.5922L16.8291 18.1132ZM18.8051 16.1982C18.4311 16.6822 17.9981 17.1542 17.4301 17.6932L17.2541 17.8642L17.5051 14.8152L18.8531 16.1352L18.8051 16.1982ZM20.3441 13.8672C19.9961 14.5402 19.6081 15.1612 19.1891 15.7192L19.1221 15.8042L17.7361 14.4472L20.4441 13.6742L20.3441 13.8672ZM17.4901 14.0832L16.9741 12.0422L19.0741 10.4802L20.4931 13.2612L17.4901 14.0832ZM21.4271 11.0492C21.2891 11.6072 21.0981 12.1902 20.8741 12.7332L20.7991 12.9232L19.5331 10.4802L21.4491 10.9602L21.4271 11.0492ZM21.9351 7.82919C21.9091 8.11519 21.8861 8.45022 21.8601 8.83322V8.83722C21.7891 9.38022 21.7181 9.94121 21.5951 10.4732L21.5761 10.5662L19.5551 10.0492L21.9531 7.56921L21.9351 7.82919Z" fill="black" fill-opacity="0.2"/>
<path d="M22.2971 7.0672C21.9421 4.2902 19.5551 2.2002 16.7471 2.2002C14.6851 2.2002 12.1191 3.8582 12.0101 3.9292L11.9621 3.96222L11.9091 3.9292C11.8011 3.8582 9.23909 2.2002 7.17709 2.2002C4.10309 2.2002 1.6001 4.69919 1.6001 7.77319C1.6001 8.08219 1.6261 8.46922 1.6711 8.88922C1.7381 9.49922 1.85009 10.1602 2.00409 10.8632C2.17209 11.6222 2.4481 12.4322 2.8221 13.2802C3.1651 14.0492 3.58009 14.8012 4.05809 15.5002C4.54009 16.2022 5.09309 16.8792 5.71309 17.5112C6.32909 18.1432 7.02409 18.7492 7.77409 19.3112C8.52909 19.8722 9.3621 20.4042 10.2511 20.8942C10.5721 21.0692 10.9051 21.2442 11.2441 21.4112C11.3041 21.4412 11.3681 21.4742 11.4271 21.5122C11.5581 21.5822 11.6811 21.6492 11.8121 21.6862C11.9881 21.7382 12.1151 21.6752 12.2871 21.5902L12.3651 21.5492C12.8281 21.3292 13.2841 21.0912 13.7171 20.8542C14.5801 20.3742 15.3941 19.8532 16.1261 19.3032C16.8621 18.7572 17.5421 18.1652 18.1511 17.5482C18.7561 16.9312 19.3011 16.2732 19.7791 15.5852C20.2541 14.9012 20.6681 14.1722 21.0121 13.4212C21.3561 12.6702 21.6401 11.8742 21.8531 11.0562C22.0321 10.3612 22.1661 9.62919 22.2491 8.88519C22.2971 8.46919 22.3191 8.08219 22.3191 7.77319C22.3461 7.53519 22.3191 7.2972 22.2971 7.0672ZM19.6191 3.48621C20.7281 4.22621 21.4981 5.34921 21.7891 6.65421L21.8261 6.81821L17.6991 5.29721L19.5551 3.4462L19.6191 3.48621ZM17.4711 8.8262L18.8271 10.1492L17.0191 11.5032L17.4711 8.8262ZM17.1241 8.08621L14.4831 7.1972L17.1241 5.72522V8.08621ZM17.5611 8.29022V5.68021L21.7441 7.20822L19.1371 9.86722L17.5611 8.29022ZM15.4581 2.78021C15.9771 2.66521 16.3881 2.60922 16.7471 2.60922C17.5271 2.60922 18.3121 2.7992 19.0811 3.1702L19.2011 3.2262L17.3401 5.08521L15.3011 2.8132L15.4581 2.78021ZM17.0121 5.3342L13.9561 7.0372L12.3091 6.48019L14.9691 3.0592L17.0121 5.3342ZM12.1781 4.30121L12.3351 4.20822C12.6641 4.01422 13.2761 3.65419 14.0011 3.31219L14.3521 3.14819L12.1781 5.96622V4.30121ZM12.1781 6.85519L13.4781 7.29721L12.1781 8.02621V6.85519ZM11.9621 8.54321C12.0891 8.54321 12.2041 8.47222 12.3311 8.40222L13.8291 7.5762C13.9381 7.5062 13.9901 7.47621 14.0461 7.49521L17.1131 8.5242L16.5451 11.8782L16.5301 11.8972L14.1921 14.8082L11.9621 16.4742L9.70909 14.7892L7.37509 11.8782L6.8071 8.5242L9.91109 7.48019L11.4281 8.30521C11.4651 8.32421 11.5061 8.34619 11.5431 8.36819C11.6481 8.43119 11.7561 8.4952 11.8651 8.5282C11.8981 8.5392 11.9281 8.54321 11.9621 8.54321ZM16.6721 12.4212L17.0981 14.1832L14.8831 14.6372L16.6721 12.4212ZM14.0381 15.4442L13.6051 17.6152L12.3021 16.7452L14.0381 15.4442ZM11.5961 16.7232L10.2921 17.5892L9.85909 15.4212L11.5961 16.7232ZM9.0591 14.6372L6.8221 14.1832L7.27409 12.3992L9.0591 14.6372ZM6.44809 8.8002L6.90009 11.4802L5.09608 10.1272L6.44809 8.8002ZM4.7831 9.86722L2.2011 7.20822L6.35909 5.68021V8.29022L4.7831 9.86722ZM6.7961 8.0712V5.72522L9.44009 7.1972L6.7961 8.0712ZM10.4601 7.30121L11.7671 6.85519V8.00021L10.4601 7.30121ZM9.89209 3.31219C10.6321 3.62819 11.2591 4.0002 11.5961 4.2002L11.7671 4.30121V5.9892L9.55609 3.16721L9.89209 3.31219ZM11.6111 6.48019L9.96709 7.0372L6.9081 5.3342L8.9511 3.0592L11.6111 6.48019ZM4.81209 3.1962C5.54809 2.8022 6.32509 2.60922 7.17709 2.60922C7.56509 2.60922 7.9651 2.67221 8.4471 2.80621L8.5891 2.8472L6.5571 5.11121L4.70009 3.2562L4.81209 3.1962ZM2.10809 6.65121C2.42209 5.34921 3.19109 4.22621 4.27809 3.48621L4.34209 3.4462L6.19809 5.29721L2.07109 6.8222L2.10809 6.65121ZM2.32509 10.4692C2.23109 9.95621 2.13409 9.40222 2.06009 8.83722C2.01509 8.46922 1.98909 8.0972 1.98909 7.8222V7.59122L4.36409 10.0492L2.34309 10.5662L2.32509 10.4692ZM3.0461 12.7112C2.8071 12.1272 2.62709 11.5812 2.49309 11.0492L2.47009 10.9602L4.39009 10.4802L3.12408 12.8972L3.0461 12.7112ZM4.84608 10.4542L6.9451 12.0162L6.43008 14.0832L3.4041 13.2352L4.84608 10.4542ZM4.70808 15.7192C4.24808 15.0722 3.8791 14.4732 3.5761 13.8902L3.4791 13.7002L6.16109 14.4472L4.77109 15.8082L4.70808 15.7192ZM6.46709 17.6712C5.98909 17.2172 5.56309 16.7492 5.11909 16.2022L5.06609 16.1352L6.4191 14.8122L6.6431 17.8382L6.46709 17.6712ZM6.8111 14.5922L9.4101 15.1092L9.91809 17.7532L7.06509 18.0872L6.8111 14.5922ZM9.35109 19.8792C8.59209 19.4042 8.03609 19.0092 7.54709 18.6082L7.37909 18.4672L9.90709 18.1882L9.45909 19.9502L9.35109 19.8792ZM11.2481 20.9612C10.8751 20.7752 10.5161 20.5752 10.1721 20.3812L9.81808 20.1842L10.2321 18.5302L11.4981 21.0842L11.2481 20.9612ZM11.9621 21.0622L10.4301 18.0022L11.9621 16.9872L13.4931 18.0022L11.9621 21.0622ZM14.0871 20.1952C13.5421 20.5112 13.0821 20.7532 12.6451 20.9612L12.3991 21.0802L13.7101 18.5152L14.1511 20.1582L14.0871 20.1952ZM16.3511 18.6302C15.8241 19.0612 15.2411 19.4742 14.6171 19.8572L14.5091 19.9242L14.0351 18.1882L16.5191 18.4932L16.3511 18.6302ZM16.8291 18.1132L14.0011 17.7532L14.5351 15.1092L17.1351 14.5922L16.8291 18.1132ZM18.8051 16.1982C18.4311 16.6822 17.9981 17.1542 17.4301 17.6932L17.2541 17.8642L17.5051 14.8152L18.8531 16.1352L18.8051 16.1982ZM20.3441 13.8672C19.9961 14.5402 19.6081 15.1612 19.1891 15.7192L19.1221 15.8042L17.7361 14.4472L20.4441 13.6742L20.3441 13.8672ZM17.4901 14.0832L16.9741 12.0422L19.0741 10.4802L20.4931 13.2612L17.4901 14.0832ZM21.4271 11.0492C21.2891 11.6072 21.0981 12.1902 20.8741 12.7332L20.7991 12.9232L19.5331 10.4802L21.4491 10.9602L21.4271 11.0492ZM21.9351 7.82919C21.9091 8.11519 21.8861 8.45022 21.8601 8.83322V8.83722C21.7891 9.38022 21.7181 9.94121 21.5951 10.4732L21.5761 10.5662L19.5551 10.0492L21.9531 7.56921L21.9351 7.82919Z" fill="black" fill-opacity="0.2"/>
<path d="M22.2971 7.0672C21.9421 4.2902 19.5551 2.2002 16.7471 2.2002C14.6851 2.2002 12.1191 3.8582 12.0101 3.9292L11.9621 3.96222L11.9091 3.9292C11.8011 3.8582 9.23909 2.2002 7.17709 2.2002C4.10309 2.2002 1.6001 4.69919 1.6001 7.77319C1.6001 8.08219 1.6261 8.46922 1.6711 8.88922C1.7381 9.49922 1.85009 10.1602 2.00409 10.8632C2.17209 11.6222 2.4481 12.4322 2.8221 13.2802C3.1651 14.0492 3.58009 14.8012 4.05809 15.5002C4.54009 16.2022 5.09309 16.8792 5.71309 17.5112C6.32909 18.1432 7.02409 18.7492 7.77409 19.3112C8.52909 19.8722 9.3621 20.4042 10.2511 20.8942C10.5721 21.0692 10.9051 21.2442 11.2441 21.4112C11.3041 21.4412 11.3681 21.4742 11.4271 21.5122C11.5581 21.5822 11.6811 21.6492 11.8121 21.6862C11.9881 21.7382 12.1151 21.6752 12.2871 21.5902L12.3651 21.5492C12.8281 21.3292 13.2841 21.0912 13.7171 20.8542C14.5801 20.3742 15.3941 19.8532 16.1261 19.3032C16.8621 18.7572 17.5421 18.1652 18.1511 17.5482C18.7561 16.9312 19.3011 16.2732 19.7791 15.5852C20.2541 14.9012 20.6681 14.1722 21.0121 13.4212C21.3561 12.6702 21.6401 11.8742 21.8531 11.0562C22.0321 10.3612 22.1661 9.62919 22.2491 8.88519C22.2971 8.46919 22.3191 8.08219 22.3191 7.77319C22.3461 7.53519 22.3191 7.2972 22.2971 7.0672ZM19.6191 3.48621C20.7281 4.22621 21.4981 5.34921 21.7891 6.65421L21.8261 6.81821L17.6991 5.29721L19.5551 3.4462L19.6191 3.48621ZM17.4711 8.8262L18.8271 10.1492L17.0191 11.5032L17.4711 8.8262ZM17.1241 8.08621L14.4831 7.1972L17.1241 5.72522V8.08621ZM17.5611 8.29022V5.68021L21.7441 7.20822L19.1371 9.86722L17.5611 8.29022ZM15.4581 2.78021C15.9771 2.66521 16.3881 2.60922 16.7471 2.60922C17.5271 2.60922 18.3121 2.7992 19.0811 3.1702L19.2011 3.2262L17.3401 5.08521L15.3011 2.8132L15.4581 2.78021ZM17.0121 5.3342L13.9561 7.0372L12.3091 6.48019L14.9691 3.0592L17.0121 5.3342ZM12.1781 4.30121L12.3351 4.20822C12.6641 4.01422 13.2761 3.65419 14.0011 3.31219L14.3521 3.14819L12.1781 5.96622V4.30121ZM12.1781 6.85519L13.4781 7.29721L12.1781 8.02621V6.85519ZM11.9621 8.54321C12.0891 8.54321 12.2041 8.47222 12.3311 8.40222L13.8291 7.5762C13.9381 7.5062 13.9901 7.47621 14.0461 7.49521L17.1131 8.5242L16.5451 11.8782L16.5301 11.8972L14.1921 14.8082L11.9621 16.4742L9.70909 14.7892L7.37509 11.8782L6.8071 8.5242L9.91109 7.48019L11.4281 8.30521C11.4651 8.32421 11.5061 8.34619 11.5431 8.36819C11.6481 8.43119 11.7561 8.4952 11.8651 8.5282C11.8981 8.5392 11.9281 8.54321 11.9621 8.54321ZM16.6721 12.4212L17.0981 14.1832L14.8831 14.6372L16.6721 12.4212ZM14.0381 15.4442L13.6051 17.6152L12.3021 16.7452L14.0381 15.4442ZM11.5961 16.7232L10.2921 17.5892L9.85909 15.4212L11.5961 16.7232ZM9.0591 14.6372L6.8221 14.1832L7.27409 12.3992L9.0591 14.6372ZM6.44809 8.8002L6.90009 11.4802L5.09608 10.1272L6.44809 8.8002ZM4.7831 9.86722L2.2011 7.20822L6.35909 5.68021V8.29022L4.7831 9.86722ZM6.7961 8.0712V5.72522L9.44009 7.1972L6.7961 8.0712ZM10.4601 7.30121L11.7671 6.85519V8.00021L10.4601 7.30121ZM9.89209 3.31219C10.6321 3.62819 11.2591 4.0002 11.5961 4.2002L11.7671 4.30121V5.9892L9.55609 3.16721L9.89209 3.31219ZM11.6111 6.48019L9.96709 7.0372L6.9081 5.3342L8.9511 3.0592L11.6111 6.48019ZM4.81209 3.1962C5.54809 2.8022 6.32509 2.60922 7.17709 2.60922C7.56509 2.60922 7.9651 2.67221 8.4471 2.80621L8.5891 2.8472L6.5571 5.11121L4.70009 3.2562L4.81209 3.1962ZM2.10809 6.65121C2.42209 5.34921 3.19109 4.22621 4.27809 3.48621L4.34209 3.4462L6.19809 5.29721L2.07109 6.8222L2.10809 6.65121ZM2.32509 10.4692C2.23109 9.95621 2.13409 9.40222 2.06009 8.83722C2.01509 8.46922 1.98909 8.0972 1.98909 7.8222V7.59122L4.36409 10.0492L2.34309 10.5662L2.32509 10.4692ZM3.0461 12.7112C2.8071 12.1272 2.62709 11.5812 2.49309 11.0492L2.47009 10.9602L4.39009 10.4802L3.12408 12.8972L3.0461 12.7112ZM4.84608 10.4542L6.9451 12.0162L6.43008 14.0832L3.4041 13.2352L4.84608 10.4542ZM4.70808 15.7192C4.24808 15.0722 3.8791 14.4732 3.5761 13.8902L3.4791 13.7002L6.16109 14.4472L4.77109 15.8082L4.70808 15.7192ZM6.46709 17.6712C5.98909 17.2172 5.56309 16.7492 5.11909 16.2022L5.06609 16.1352L6.4191 14.8122L6.6431 17.8382L6.46709 17.6712ZM6.8111 14.5922L9.4101 15.1092L9.91809 17.7532L7.06509 18.0872L6.8111 14.5922ZM9.35109 19.8792C8.59209 19.4042 8.03609 19.0092 7.54709 18.6082L7.37909 18.4672L9.90709 18.1882L9.45909 19.9502L9.35109 19.8792ZM11.2481 20.9612C10.8751 20.7752 10.5161 20.5752 10.1721 20.3812L9.81808 20.1842L10.2321 18.5302L11.4981 21.0842L11.2481 20.9612ZM11.9621 21.0622L10.4301 18.0022L11.9621 16.9872L13.4931 18.0022L11.9621 21.0622ZM14.0871 20.1952C13.5421 20.5112 13.0821 20.7532 12.6451 20.9612L12.3991 21.0802L13.7101 18.5152L14.1511 20.1582L14.0871 20.1952ZM16.3511 18.6302C15.8241 19.0612 15.2411 19.4742 14.6171 19.8572L14.5091 19.9242L14.0351 18.1882L16.5191 18.4932L16.3511 18.6302ZM16.8291 18.1132L14.0011 17.7532L14.5351 15.1092L17.1351 14.5922L16.8291 18.1132ZM18.8051 16.1982C18.4311 16.6822 17.9981 17.1542 17.4301 17.6932L17.2541 17.8642L17.5051 14.8152L18.8531 16.1352L18.8051 16.1982ZM20.3441 13.8672C19.9961 14.5402 19.6081 15.1612 19.1891 15.7192L19.1221 15.8042L17.7361 14.4472L20.4441 13.6742L20.3441 13.8672ZM17.4901 14.0832L16.9741 12.0422L19.0741 10.4802L20.4931 13.2612L17.4901 14.0832ZM21.4271 11.0492C21.2891 11.6072 21.0981 12.1902 20.8741 12.7332L20.7991 12.9232L19.5331 10.4802L21.4491 10.9602L21.4271 11.0492ZM21.9351 7.82919C21.9091 8.11519 21.8861 8.45022 21.8601 8.83322V8.83722C21.7891 9.38022 21.7181 9.94121 21.5951 10.4732L21.5761 10.5662L19.5551 10.0492L21.9531 7.56921L21.9351 7.82919Z" fill="black" fill-opacity="0.2"/>
<path d="M22.2971 7.0672C21.9421 4.2902 19.5551 2.2002 16.7471 2.2002C14.6851 2.2002 12.1191 3.8582 12.0101 3.9292L11.9621 3.96222L11.9091 3.9292C11.8011 3.8582 9.23909 2.2002 7.17709 2.2002C4.10309 2.2002 1.6001 4.69919 1.6001 7.77319C1.6001 8.08219 1.6261 8.46922 1.6711 8.88922C1.7381 9.49922 1.85009 10.1602 2.00409 10.8632C2.17209 11.6222 2.4481 12.4322 2.8221 13.2802C3.1651 14.0492 3.58009 14.8012 4.05809 15.5002C4.54009 16.2022 5.09309 16.8792 5.71309 17.5112C6.32909 18.1432 7.02409 18.7492 7.77409 19.3112C8.52909 19.8722 9.3621 20.4042 10.2511 20.8942C10.5721 21.0692 10.9051 21.2442 11.2441 21.4112C11.3041 21.4412 11.3681 21.4742 11.4271 21.5122C11.5581 21.5822 11.6811 21.6492 11.8121 21.6862C11.9881 21.7382 12.1151 21.6752 12.2871 21.5902L12.3651 21.5492C12.8281 21.3292 13.2841 21.0912 13.7171 20.8542C14.5801 20.3742 15.3941 19.8532 16.1261 19.3032C16.8621 18.7572 17.5421 18.1652 18.1511 17.5482C18.7561 16.9312 19.3011 16.2732 19.7791 15.5852C20.2541 14.9012 20.6681 14.1722 21.0121 13.4212C21.3561 12.6702 21.6401 11.8742 21.8531 11.0562C22.0321 10.3612 22.1661 9.62919 22.2491 8.88519C22.2971 8.46919 22.3191 8.08219 22.3191 7.77319C22.3461 7.53519 22.3191 7.2972 22.2971 7.0672ZM19.6191 3.48621C20.7281 4.22621 21.4981 5.34921 21.7891 6.65421L21.8261 6.81821L17.6991 5.29721L19.5551 3.4462L19.6191 3.48621ZM17.4711 8.8262L18.8271 10.1492L17.0191 11.5032L17.4711 8.8262ZM17.1241 8.08621L14.4831 7.1972L17.1241 5.72522V8.08621ZM17.5611 8.29022V5.68021L21.7441 7.20822L19.1371 9.86722L17.5611 8.29022ZM15.4581 2.78021C15.9771 2.66521 16.3881 2.60922 16.7471 2.60922C17.5271 2.60922 18.3121 2.7992 19.0811 3.1702L19.2011 3.2262L17.3401 5.08521L15.3011 2.8132L15.4581 2.78021ZM17.0121 5.3342L13.9561 7.0372L12.3091 6.48019L14.9691 3.0592L17.0121 5.3342ZM12.1781 4.30121L12.3351 4.20822C12.6641 4.01422 13.2761 3.65419 14.0011 3.31219L14.3521 3.14819L12.1781 5.96622V4.30121ZM12.1781 6.85519L13.4781 7.29721L12.1781 8.02621V6.85519ZM11.9621 8.54321C12.0891 8.54321 12.2041 8.47222 12.3311 8.40222L13.8291 7.5762C13.9381 7.5062 13.9901 7.47621 14.0461 7.49521L17.1131 8.5242L16.5451 11.8782L16.5301 11.8972L14.1921 14.8082L11.9621 16.4742L9.70909 14.7892L7.37509 11.8782L6.8071 8.5242L9.91109 7.48019L11.4281 8.30521C11.4651 8.32421 11.5061 8.34619 11.5431 8.36819C11.6481 8.43119 11.7561 8.4952 11.8651 8.5282C11.8981 8.5392 11.9281 8.54321 11.9621 8.54321ZM16.6721 12.4212L17.0981 14.1832L14.8831 14.6372L16.6721 12.4212ZM14.0381 15.4442L13.6051 17.6152L12.3021 16.7452L14.0381 15.4442ZM11.5961 16.7232L10.2921 17.5892L9.85909 15.4212L11.5961 16.7232ZM9.0591 14.6372L6.8221 14.1832L7.27409 12.3992L9.0591 14.6372ZM6.44809 8.8002L6.90009 11.4802L5.09608 10.1272L6.44809 8.8002ZM4.7831 9.86722L2.2011 7.20822L6.35909 5.68021V8.29022L4.7831 9.86722ZM6.7961 8.0712V5.72522L9.44009 7.1972L6.7961 8.0712ZM10.4601 7.30121L11.7671 6.85519V8.00021L10.4601 7.30121ZM9.89209 3.31219C10.6321 3.62819 11.2591 4.0002 11.5961 4.2002L11.7671 4.30121V5.9892L9.55609 3.16721L9.89209 3.31219ZM11.6111 6.48019L9.96709 7.0372L6.9081 5.3342L8.9511 3.0592L11.6111 6.48019ZM4.81209 3.1962C5.54809 2.8022 6.32509 2.60922 7.17709 2.60922C7.56509 2.60922 7.9651 2.67221 8.4471 2.80621L8.5891 2.8472L6.5571 5.11121L4.70009 3.2562L4.81209 3.1962ZM2.10809 6.65121C2.42209 5.34921 3.19109 4.22621 4.27809 3.48621L4.34209 3.4462L6.19809 5.29721L2.07109 6.8222L2.10809 6.65121ZM2.32509 10.4692C2.23109 9.95621 2.13409 9.40222 2.06009 8.83722C2.01509 8.46922 1.98909 8.0972 1.98909 7.8222V7.59122L4.36409 10.0492L2.34309 10.5662L2.32509 10.4692ZM3.0461 12.7112C2.8071 12.1272 2.62709 11.5812 2.49309 11.0492L2.47009 10.9602L4.39009 10.4802L3.12408 12.8972L3.0461 12.7112ZM4.84608 10.4542L6.9451 12.0162L6.43008 14.0832L3.4041 13.2352L4.84608 10.4542ZM4.70808 15.7192C4.24808 15.0722 3.8791 14.4732 3.5761 13.8902L3.4791 13.7002L6.16109 14.4472L4.77109 15.8082L4.70808 15.7192ZM6.46709 17.6712C5.98909 17.2172 5.56309 16.7492 5.11909 16.2022L5.06609 16.1352L6.4191 14.8122L6.6431 17.8382L6.46709 17.6712ZM6.8111 14.5922L9.4101 15.1092L9.91809 17.7532L7.06509 18.0872L6.8111 14.5922ZM9.35109 19.8792C8.59209 19.4042 8.03609 19.0092 7.54709 18.6082L7.37909 18.4672L9.90709 18.1882L9.45909 19.9502L9.35109 19.8792ZM11.2481 20.9612C10.8751 20.7752 10.5161 20.5752 10.1721 20.3812L9.81808 20.1842L10.2321 18.5302L11.4981 21.0842L11.2481 20.9612ZM11.9621 21.0622L10.4301 18.0022L11.9621 16.9872L13.4931 18.0022L11.9621 21.0622ZM14.0871 20.1952C13.5421 20.5112 13.0821 20.7532 12.6451 20.9612L12.3991 21.0802L13.7101 18.5152L14.1511 20.1582L14.0871 20.1952ZM16.3511 18.6302C15.8241 19.0612 15.2411 19.4742 14.6171 19.8572L14.5091 19.9242L14.0351 18.1882L16.5191 18.4932L16.3511 18.6302ZM16.8291 18.1132L14.0011 17.7532L14.5351 15.1092L17.1351 14.5922L16.8291 18.1132ZM18.8051 16.1982C18.4311 16.6822 17.9981 17.1542 17.4301 17.6932L17.2541 17.8642L17.5051 14.8152L18.8531 16.1352L18.8051 16.1982ZM20.3441 13.8672C19.9961 14.5402 19.6081 15.1612 19.1891 15.7192L19.1221 15.8042L17.7361 14.4472L20.4441 13.6742L20.3441 13.8672ZM17.4901 14.0832L16.9741 12.0422L19.0741 10.4802L20.4931 13.2612L17.4901 14.0832ZM21.4271 11.0492C21.2891 11.6072 21.0981 12.1902 20.8741 12.7332L20.7991 12.9232L19.5331 10.4802L21.4491 10.9602L21.4271 11.0492ZM21.9351 7.82919C21.9091 8.11519 21.8861 8.45022 21.8601 8.83322V8.83722C21.7891 9.38022 21.7181 9.94121 21.5951 10.4732L21.5761 10.5662L19.5551 10.0492L21.9531 7.56921L21.9351 7.82919Z" fill="black" fill-opacity="0.2"/>
<path d="M22.2971 7.0672C21.9421 4.2902 19.5551 2.2002 16.7471 2.2002C14.6851 2.2002 12.1191 3.8582 12.0101 3.9292L11.9621 3.96222L11.9091 3.9292C11.8011 3.8582 9.23909 2.2002 7.17709 2.2002C4.10309 2.2002 1.6001 4.69919 1.6001 7.77319C1.6001 8.08219 1.6261 8.46922 1.6711 8.88922C1.7381 9.49922 1.85009 10.1602 2.00409 10.8632C2.17209 11.6222 2.4481 12.4322 2.8221 13.2802C3.1651 14.0492 3.58009 14.8012 4.05809 15.5002C4.54009 16.2022 5.09309 16.8792 5.71309 17.5112C6.32909 18.1432 7.02409 18.7492 7.77409 19.3112C8.52909 19.8722 9.3621 20.4042 10.2511 20.8942C10.5721 21.0692 10.9051 21.2442 11.2441 21.4112C11.3041 21.4412 11.3681 21.4742 11.4271 21.5122C11.5581 21.5822 11.6811 21.6492 11.8121 21.6862C11.9881 21.7382 12.1151 21.6752 12.2871 21.5902L12.3651 21.5492C12.8281 21.3292 13.2841 21.0912 13.7171 20.8542C14.5801 20.3742 15.3941 19.8532 16.1261 19.3032C16.8621 18.7572 17.5421 18.1652 18.1511 17.5482C18.7561 16.9312 19.3011 16.2732 19.7791 15.5852C20.2541 14.9012 20.6681 14.1722 21.0121 13.4212C21.3561 12.6702 21.6401 11.8742 21.8531 11.0562C22.0321 10.3612 22.1661 9.62919 22.2491 8.88519C22.2971 8.46919 22.3191 8.08219 22.3191 7.77319C22.3461 7.53519 22.3191 7.2972 22.2971 7.0672ZM19.6191 3.48621C20.7281 4.22621 21.4981 5.34921 21.7891 6.65421L21.8261 6.81821L17.6991 5.29721L19.5551 3.4462L19.6191 3.48621ZM17.4711 8.8262L18.8271 10.1492L17.0191 11.5032L17.4711 8.8262ZM17.1241 8.08621L14.4831 7.1972L17.1241 5.72522V8.08621ZM17.5611 8.29022V5.68021L21.7441 7.20822L19.1371 9.86722L17.5611 8.29022ZM15.4581 2.78021C15.9771 2.66521 16.3881 2.60922 16.7471 2.60922C17.5271 2.60922 18.3121 2.7992 19.0811 3.1702L19.2011 3.2262L17.3401 5.08521L15.3011 2.8132L15.4581 2.78021ZM17.0121 5.3342L13.9561 7.0372L12.3091 6.48019L14.9691 3.0592L17.0121 5.3342ZM12.1781 4.30121L12.3351 4.20822C12.6641 4.01422 13.2761 3.65419 14.0011 3.31219L14.3521 3.14819L12.1781 5.96622V4.30121ZM12.1781 6.85519L13.4781 7.29721L12.1781 8.02621V6.85519ZM11.9621 8.54321C12.0891 8.54321 12.2041 8.47222 12.3311 8.40222L13.8291 7.5762C13.9381 7.5062 13.9901 7.47621 14.0461 7.49521L17.1131 8.5242L16.5451 11.8782L16.5301 11.8972L14.1921 14.8082L11.9621 16.4742L9.70909 14.7892L7.37509 11.8782L6.8071 8.5242L9.91109 7.48019L11.4281 8.30521C11.4651 8.32421 11.5061 8.34619 11.5431 8.36819C11.6481 8.43119 11.7561 8.4952 11.8651 8.5282C11.8981 8.5392 11.9281 8.54321 11.9621 8.54321ZM16.6721 12.4212L17.0981 14.1832L14.8831 14.6372L16.6721 12.4212ZM14.0381 15.4442L13.6051 17.6152L12.3021 16.7452L14.0381 15.4442ZM11.5961 16.7232L10.2921 17.5892L9.85909 15.4212L11.5961 16.7232ZM9.0591 14.6372L6.8221 14.1832L7.27409 12.3992L9.0591 14.6372ZM6.44809 8.8002L6.90009 11.4802L5.09608 10.1272L6.44809 8.8002ZM4.7831 9.86722L2.2011 7.20822L6.35909 5.68021V8.29022L4.7831 9.86722ZM6.7961 8.0712V5.72522L9.44009 7.1972L6.7961 8.0712ZM10.4601 7.30121L11.7671 6.85519V8.00021L10.4601 7.30121ZM9.89209 3.31219C10.6321 3.62819 11.2591 4.0002 11.5961 4.2002L11.7671 4.30121V5.9892L9.55609 3.16721L9.89209 3.31219ZM11.6111 6.48019L9.96709 7.0372L6.9081 5.3342L8.9511 3.0592L11.6111 6.48019ZM4.81209 3.1962C5.54809 2.8022 6.32509 2.60922 7.17709 2.60922C7.56509 2.60922 7.9651 2.67221 8.4471 2.80621L8.5891 2.8472L6.5571 5.11121L4.70009 3.2562L4.81209 3.1962ZM2.10809 6.65121C2.42209 5.34921 3.19109 4.22621 4.27809 3.48621L4.34209 3.4462L6.19809 5.29721L2.07109 6.8222L2.10809 6.65121ZM2.32509 10.4692C2.23109 9.95621 2.13409 9.40222 2.06009 8.83722C2.01509 8.46922 1.98909 8.0972 1.98909 7.8222V7.59122L4.36409 10.0492L2.34309 10.5662L2.32509 10.4692ZM3.0461 12.7112C2.8071 12.1272 2.62709 11.5812 2.49309 11.0492L2.47009 10.9602L4.39009 10.4802L3.12408 12.8972L3.0461 12.7112ZM4.84608 10.4542L6.9451 12.0162L6.43008 14.0832L3.4041 13.2352L4.84608 10.4542ZM4.70808 15.7192C4.24808 15.0722 3.8791 14.4732 3.5761 13.8902L3.4791 13.7002L6.16109 14.4472L4.77109 15.8082L4.70808 15.7192ZM6.46709 17.6712C5.98909 17.2172 5.56309 16.7492 5.11909 16.2022L5.06609 16.1352L6.4191 14.8122L6.6431 17.8382L6.46709 17.6712ZM6.8111 14.5922L9.4101 15.1092L9.91809 17.7532L7.06509 18.0872L6.8111 14.5922ZM9.35109 19.8792C8.59209 19.4042 8.03609 19.0092 7.54709 18.6082L7.37909 18.4672L9.90709 18.1882L9.45909 19.9502L9.35109 19.8792ZM11.2481 20.9612C10.8751 20.7752 10.5161 20.5752 10.1721 20.3812L9.81808 20.1842L10.2321 18.5302L11.4981 21.0842L11.2481 20.9612ZM11.9621 21.0622L10.4301 18.0022L11.9621 16.9872L13.4931 18.0022L11.9621 21.0622ZM14.0871 20.1952C13.5421 20.5112 13.0821 20.7532 12.6451 20.9612L12.3991 21.0802L13.7101 18.5152L14.1511 20.1582L14.0871 20.1952ZM16.3511 18.6302C15.8241 19.0612 15.2411 19.4742 14.6171 19.8572L14.5091 19.9242L14.0351 18.1882L16.5191 18.4932L16.3511 18.6302ZM16.8291 18.1132L14.0011 17.7532L14.5351 15.1092L17.1351 14.5922L16.8291 18.1132ZM18.8051 16.1982C18.4311 16.6822 17.9981 17.1542 17.4301 17.6932L17.2541 17.8642L17.5051 14.8152L18.8531 16.1352L18.8051 16.1982ZM20.3441 13.8672C19.9961 14.5402 19.6081 15.1612 19.1891 15.7192L19.1221 15.8042L17.7361 14.4472L20.4441 13.6742L20.3441 13.8672ZM17.4901 14.0832L16.9741 12.0422L19.0741 10.4802L20.4931 13.2612L17.4901 14.0832ZM21.4271 11.0492C21.2891 11.6072 21.0981 12.1902 20.8741 12.7332L20.7991 12.9232L19.5331 10.4802L21.4491 10.9602L21.4271 11.0492ZM21.9351 7.82919C21.9091 8.11519 21.8861 8.45022 21.8601 8.83322V8.83722C21.7891 9.38022 21.7181 9.94121 21.5951 10.4732L21.5761 10.5662L19.5551 10.0492L21.9531 7.56921L21.9351 7.82919Z" fill="black" fill-opacity="0.2"/>
<path d="M22.2971 7.0672C21.9421 4.2902 19.5551 2.2002 16.7471 2.2002C14.6851 2.2002 12.1191 3.8582 12.0101 3.9292L11.9621 3.96222L11.9091 3.9292C11.8011 3.8582 9.23909 2.2002 7.17709 2.2002C4.10309 2.2002 1.6001 4.69919 1.6001 7.77319C1.6001 8.08219 1.6261 8.46922 1.6711 8.88922C1.7381 9.49922 1.85009 10.1602 2.00409 10.8632C2.17209 11.6222 2.4481 12.4322 2.8221 13.2802C3.1651 14.0492 3.58009 14.8012 4.05809 15.5002C4.54009 16.2022 5.09309 16.8792 5.71309 17.5112C6.32909 18.1432 7.02409 18.7492 7.77409 19.3112C8.52909 19.8722 9.3621 20.4042 10.2511 20.8942C10.5721 21.0692 10.9051 21.2442 11.2441 21.4112C11.3041 21.4412 11.3681 21.4742 11.4271 21.5122C11.5581 21.5822 11.6811 21.6492 11.8121 21.6862C11.9881 21.7382 12.1151 21.6752 12.2871 21.5902L12.3651 21.5492C12.8281 21.3292 13.2841 21.0912 13.7171 20.8542C14.5801 20.3742 15.3941 19.8532 16.1261 19.3032C16.8621 18.7572 17.5421 18.1652 18.1511 17.5482C18.7561 16.9312 19.3011 16.2732 19.7791 15.5852C20.2541 14.9012 20.6681 14.1722 21.0121 13.4212C21.3561 12.6702 21.6401 11.8742 21.8531 11.0562C22.0321 10.3612 22.1661 9.62919 22.2491 8.88519C22.2971 8.46919 22.3191 8.08219 22.3191 7.77319C22.3461 7.53519 22.3191 7.2972 22.2971 7.0672ZM19.6191 3.48621C20.7281 4.22621 21.4981 5.34921 21.7891 6.65421L21.8261 6.81821L17.6991 5.29721L19.5551 3.4462L19.6191 3.48621ZM17.4711 8.8262L18.8271 10.1492L17.0191 11.5032L17.4711 8.8262ZM17.1241 8.08621L14.4831 7.1972L17.1241 5.72522V8.08621ZM17.5611 8.29022V5.68021L21.7441 7.20822L19.1371 9.86722L17.5611 8.29022ZM15.4581 2.78021C15.9771 2.66521 16.3881 2.60922 16.7471 2.60922C17.5271 2.60922 18.3121 2.7992 19.0811 3.1702L19.2011 3.2262L17.3401 5.08521L15.3011 2.8132L15.4581 2.78021ZM17.0121 5.3342L13.9561 7.0372L12.3091 6.48019L14.9691 3.0592L17.0121 5.3342ZM12.1781 4.30121L12.3351 4.20822C12.6641 4.01422 13.2761 3.65419 14.0011 3.31219L14.3521 3.14819L12.1781 5.96622V4.30121ZM12.1781 6.85519L13.4781 7.29721L12.1781 8.02621V6.85519ZM11.9621 8.54321C12.0891 8.54321 12.2041 8.47222 12.3311 8.40222L13.8291 7.5762C13.9381 7.5062 13.9901 7.47621 14.0461 7.49521L17.1131 8.5242L16.5451 11.8782L16.5301 11.8972L14.1921 14.8082L11.9621 16.4742L9.70909 14.7892L7.37509 11.8782L6.8071 8.5242L9.91109 7.48019L11.4281 8.30521C11.4651 8.32421 11.5061 8.34619 11.5431 8.36819C11.6481 8.43119 11.7561 8.4952 11.8651 8.5282C11.8981 8.5392 11.9281 8.54321 11.9621 8.54321ZM16.6721 12.4212L17.0981 14.1832L14.8831 14.6372L16.6721 12.4212ZM14.0381 15.4442L13.6051 17.6152L12.3021 16.7452L14.0381 15.4442ZM11.5961 16.7232L10.2921 17.5892L9.85909 15.4212L11.5961 16.7232ZM9.0591 14.6372L6.8221 14.1832L7.27409 12.3992L9.0591 14.6372ZM6.44809 8.8002L6.90009 11.4802L5.09608 10.1272L6.44809 8.8002ZM4.7831 9.86722L2.2011 7.20822L6.35909 5.68021V8.29022L4.7831 9.86722ZM6.7961 8.0712V5.72522L9.44009 7.1972L6.7961 8.0712ZM10.4601 7.30121L11.7671 6.85519V8.00021L10.4601 7.30121ZM9.89209 3.31219C10.6321 3.62819 11.2591 4.0002 11.5961 4.2002L11.7671 4.30121V5.9892L9.55609 3.16721L9.89209 3.31219ZM11.6111 6.48019L9.96709 7.0372L6.9081 5.3342L8.9511 3.0592L11.6111 6.48019ZM4.81209 3.1962C5.54809 2.8022 6.32509 2.60922 7.17709 2.60922C7.56509 2.60922 7.9651 2.67221 8.4471 2.80621L8.5891 2.8472L6.5571 5.11121L4.70009 3.2562L4.81209 3.1962ZM2.10809 6.65121C2.42209 5.34921 3.19109 4.22621 4.27809 3.48621L4.34209 3.4462L6.19809 5.29721L2.07109 6.8222L2.10809 6.65121ZM2.32509 10.4692C2.23109 9.95621 2.13409 9.40222 2.06009 8.83722C2.01509 8.46922 1.98909 8.0972 1.98909 7.8222V7.59122L4.36409 10.0492L2.34309 10.5662L2.32509 10.4692ZM3.0461 12.7112C2.8071 12.1272 2.62709 11.5812 2.49309 11.0492L2.47009 10.9602L4.39009 10.4802L3.12408 12.8972L3.0461 12.7112ZM4.84608 10.4542L6.9451 12.0162L6.43008 14.0832L3.4041 13.2352L4.84608 10.4542ZM4.70808 15.7192C4.24808 15.0722 3.8791 14.4732 3.5761 13.8902L3.4791 13.7002L6.16109 14.4472L4.77109 15.8082L4.70808 15.7192ZM6.46709 17.6712C5.98909 17.2172 5.56309 16.7492 5.11909 16.2022L5.06609 16.1352L6.4191 14.8122L6.6431 17.8382L6.46709 17.6712ZM6.8111 14.5922L9.4101 15.1092L9.91809 17.7532L7.06509 18.0872L6.8111 14.5922ZM9.35109 19.8792C8.59209 19.4042 8.03609 19.0092 7.54709 18.6082L7.37909 18.4672L9.90709 18.1882L9.45909 19.9502L9.35109 19.8792ZM11.2481 20.9612C10.8751 20.7752 10.5161 20.5752 10.1721 20.3812L9.81808 20.1842L10.2321 18.5302L11.4981 21.0842L11.2481 20.9612ZM11.9621 21.0622L10.4301 18.0022L11.9621 16.9872L13.4931 18.0022L11.9621 21.0622ZM14.0871 20.1952C13.5421 20.5112 13.0821 20.7532 12.6451 20.9612L12.3991 21.0802L13.7101 18.5152L14.1511 20.1582L14.0871 20.1952ZM16.3511 18.6302C15.8241 19.0612 15.2411 19.4742 14.6171 19.8572L14.5091 19.9242L14.0351 18.1882L16.5191 18.4932L16.3511 18.6302ZM16.8291 18.1132L14.0011 17.7532L14.5351 15.1092L17.1351 14.5922L16.8291 18.1132ZM18.8051 16.1982C18.4311 16.6822 17.9981 17.1542 17.4301 17.6932L17.2541 17.8642L17.5051 14.8152L18.8531 16.1352L18.8051 16.1982ZM20.3441 13.8672C19.9961 14.5402 19.6081 15.1612 19.1891 15.7192L19.1221 15.8042L17.7361 14.4472L20.4441 13.6742L20.3441 13.8672ZM17.4901 14.0832L16.9741 12.0422L19.0741 10.4802L20.4931 13.2612L17.4901 14.0832ZM21.4271 11.0492C21.2891 11.6072 21.0981 12.1902 20.8741 12.7332L20.7991 12.9232L19.5331 10.4802L21.4491 10.9602L21.4271 11.0492ZM21.9351 7.82919C21.9091 8.11519 21.8861 8.45022 21.8601 8.83322V8.83722C21.7891 9.38022 21.7181 9.94121 21.5951 10.4732L21.5761 10.5662L19.5551 10.0492L21.9531 7.56921L21.9351 7.82919Z" fill="black" fill-opacity="0.2"/>
<path d="M22.2971 7.0672C21.9421 4.2902 19.5551 2.2002 16.7471 2.2002C14.6851 2.2002 12.1191 3.8582 12.0101 3.9292L11.9621 3.96222L11.9091 3.9292C11.8011 3.8582 9.23909 2.2002 7.17709 2.2002C4.10309 2.2002 1.6001 4.69919 1.6001 7.77319C1.6001 8.08219 1.6261 8.46922 1.6711 8.88922C1.7381 9.49922 1.85009 10.1602 2.00409 10.8632C2.17209 11.6222 2.4481 12.4322 2.8221 13.2802C3.1651 14.0492 3.58009 14.8012 4.05809 15.5002C4.54009 16.2022 5.09309 16.8792 5.71309 17.5112C6.32909 18.1432 7.02409 18.7492 7.77409 19.3112C8.52909 19.8722 9.3621 20.4042 10.2511 20.8942C10.5721 21.0692 10.9051 21.2442 11.2441 21.4112C11.3041 21.4412 11.3681 21.4742 11.4271 21.5122C11.5581 21.5822 11.6811 21.6492 11.8121 21.6862C11.9881 21.7382 12.1151 21.6752 12.2871 21.5902L12.3651 21.5492C12.8281 21.3292 13.2841 21.0912 13.7171 20.8542C14.5801 20.3742 15.3941 19.8532 16.1261 19.3032C16.8621 18.7572 17.5421 18.1652 18.1511 17.5482C18.7561 16.9312 19.3011 16.2732 19.7791 15.5852C20.2541 14.9012 20.6681 14.1722 21.0121 13.4212C21.3561 12.6702 21.6401 11.8742 21.8531 11.0562C22.0321 10.3612 22.1661 9.62919 22.2491 8.88519C22.2971 8.46919 22.3191 8.08219 22.3191 7.77319C22.3461 7.53519 22.3191 7.2972 22.2971 7.0672ZM19.6191 3.48621C20.7281 4.22621 21.4981 5.34921 21.7891 6.65421L21.8261 6.81821L17.6991 5.29721L19.5551 3.4462L19.6191 3.48621ZM17.4711 8.8262L18.8271 10.1492L17.0191 11.5032L17.4711 8.8262ZM17.1241 8.08621L14.4831 7.1972L17.1241 5.72522V8.08621ZM17.5611 8.29022V5.68021L21.7441 7.20822L19.1371 9.86722L17.5611 8.29022ZM15.4581 2.78021C15.9771 2.66521 16.3881 2.60922 16.7471 2.60922C17.5271 2.60922 18.3121 2.7992 19.0811 3.1702L19.2011 3.2262L17.3401 5.08521L15.3011 2.8132L15.4581 2.78021ZM17.0121 5.3342L13.9561 7.0372L12.3091 6.48019L14.9691 3.0592L17.0121 5.3342ZM12.1781 4.30121L12.3351 4.20822C12.6641 4.01422 13.2761 3.65419 14.0011 3.31219L14.3521 3.14819L12.1781 5.96622V4.30121ZM12.1781 6.85519L13.4781 7.29721L12.1781 8.02621V6.85519ZM11.9621 8.54321C12.0891 8.54321 12.2041 8.47222 12.3311 8.40222L13.8291 7.5762C13.9381 7.5062 13.9901 7.47621 14.0461 7.49521L17.1131 8.5242L16.5451 11.8782L16.5301 11.8972L14.1921 14.8082L11.9621 16.4742L9.70909 14.7892L7.37509 11.8782L6.8071 8.5242L9.91109 7.48019L11.4281 8.30521C11.4651 8.32421 11.5061 8.34619 11.5431 8.36819C11.6481 8.43119 11.7561 8.4952 11.8651 8.5282C11.8981 8.5392 11.9281 8.54321 11.9621 8.54321ZM16.6721 12.4212L17.0981 14.1832L14.8831 14.6372L16.6721 12.4212ZM14.0381 15.4442L13.6051 17.6152L12.3021 16.7452L14.0381 15.4442ZM11.5961 16.7232L10.2921 17.5892L9.85909 15.4212L11.5961 16.7232ZM9.0591 14.6372L6.8221 14.1832L7.27409 12.3992L9.0591 14.6372ZM6.44809 8.8002L6.90009 11.4802L5.09608 10.1272L6.44809 8.8002ZM4.7831 9.86722L2.2011 7.20822L6.35909 5.68021V8.29022L4.7831 9.86722ZM6.7961 8.0712V5.72522L9.44009 7.1972L6.7961 8.0712ZM10.4601 7.30121L11.7671 6.85519V8.00021L10.4601 7.30121ZM9.89209 3.31219C10.6321 3.62819 11.2591 4.0002 11.5961 4.2002L11.7671 4.30121V5.9892L9.55609 3.16721L9.89209 3.31219ZM11.6111 6.48019L9.96709 7.0372L6.9081 5.3342L8.9511 3.0592L11.6111 6.48019ZM4.81209 3.1962C5.54809 2.8022 6.32509 2.60922 7.17709 2.60922C7.56509 2.60922 7.9651 2.67221 8.4471 2.80621L8.5891 2.8472L6.5571 5.11121L4.70009 3.2562L4.81209 3.1962ZM2.10809 6.65121C2.42209 5.34921 3.19109 4.22621 4.27809 3.48621L4.34209 3.4462L6.19809 5.29721L2.07109 6.8222L2.10809 6.65121ZM2.32509 10.4692C2.23109 9.95621 2.13409 9.40222 2.06009 8.83722C2.01509 8.46922 1.98909 8.0972 1.98909 7.8222V7.59122L4.36409 10.0492L2.34309 10.5662L2.32509 10.4692ZM3.0461 12.7112C2.8071 12.1272 2.62709 11.5812 2.49309 11.0492L2.47009 10.9602L4.39009 10.4802L3.12408 12.8972L3.0461 12.7112ZM4.84608 10.4542L6.9451 12.0162L6.43008 14.0832L3.4041 13.2352L4.84608 10.4542ZM4.70808 15.7192C4.24808 15.0722 3.8791 14.4732 3.5761 13.8902L3.4791 13.7002L6.16109 14.4472L4.77109 15.8082L4.70808 15.7192ZM6.46709 17.6712C5.98909 17.2172 5.56309 16.7492 5.11909 16.2022L5.06609 16.1352L6.4191 14.8122L6.6431 17.8382L6.46709 17.6712ZM6.8111 14.5922L9.4101 15.1092L9.91809 17.7532L7.06509 18.0872L6.8111 14.5922ZM9.35109 19.8792C8.59209 19.4042 8.03609 19.0092 7.54709 18.6082L7.37909 18.4672L9.90709 18.1882L9.45909 19.9502L9.35109 19.8792ZM11.2481 20.9612C10.8751 20.7752 10.5161 20.5752 10.1721 20.3812L9.81808 20.1842L10.2321 18.5302L11.4981 21.0842L11.2481 20.9612ZM11.9621 21.0622L10.4301 18.0022L11.9621 16.9872L13.4931 18.0022L11.9621 21.0622ZM14.0871 20.1952C13.5421 20.5112 13.0821 20.7532 12.6451 20.9612L12.3991 21.0802L13.7101 18.5152L14.1511 20.1582L14.0871 20.1952ZM16.3511 18.6302C15.8241 19.0612 15.2411 19.4742 14.6171 19.8572L14.5091 19.9242L14.0351 18.1882L16.5191 18.4932L16.3511 18.6302ZM16.8291 18.1132L14.0011 17.7532L14.5351 15.1092L17.1351 14.5922L16.8291 18.1132ZM18.8051 16.1982C18.4311 16.6822 17.9981 17.1542 17.4301 17.6932L17.2541 17.8642L17.5051 14.8152L18.8531 16.1352L18.8051 16.1982ZM20.3441 13.8672C19.9961 14.5402 19.6081 15.1612 19.1891 15.7192L19.1221 15.8042L17.7361 14.4472L20.4441 13.6742L20.3441 13.8672ZM17.4901 14.0832L16.9741 12.0422L19.0741 10.4802L20.4931 13.2612L17.4901 14.0832ZM21.4271 11.0492C21.2891 11.6072 21.0981 12.1902 20.8741 12.7332L20.7991 12.9232L19.5331 10.4802L21.4491 10.9602L21.4271 11.0492ZM21.9351 7.82919C21.9091 8.11519 21.8861 8.45022 21.8601 8.83322V8.83722C21.7891 9.38022 21.7181 9.94121 21.5951 10.4732L21.5761 10.5662L19.5551 10.0492L21.9531 7.56921L21.9351 7.82919Z" fill="black" fill-opacity="0.2"/>
<path d="M22.2971 7.0672C21.9421 4.2902 19.5551 2.2002 16.7471 2.2002C14.6851 2.2002 12.1191 3.8582 12.0101 3.9292L11.9621 3.96222L11.9091 3.9292C11.8011 3.8582 9.23909 2.2002 7.17709 2.2002C4.10309 2.2002 1.6001 4.69919 1.6001 7.77319C1.6001 8.08219 1.6261 8.46922 1.6711 8.88922C1.7381 9.49922 1.85009 10.1602 2.00409 10.8632C2.17209 11.6222 2.4481 12.4322 2.8221 13.2802C3.1651 14.0492 3.58009 14.8012 4.05809 15.5002C4.54009 16.2022 5.09309 16.8792 5.71309 17.5112C6.32909 18.1432 7.02409 18.7492 7.77409 19.3112C8.52909 19.8722 9.3621 20.4042 10.2511 20.8942C10.5721 21.0692 10.9051 21.2442 11.2441 21.4112C11.3041 21.4412 11.3681 21.4742 11.4271 21.5122C11.5581 21.5822 11.6811 21.6492 11.8121 21.6862C11.9881 21.7382 12.1151 21.6752 12.2871 21.5902L12.3651 21.5492C12.8281 21.3292 13.2841 21.0912 13.7171 20.8542C14.5801 20.3742 15.3941 19.8532 16.1261 19.3032C16.8621 18.7572 17.5421 18.1652 18.1511 17.5482C18.7561 16.9312 19.3011 16.2732 19.7791 15.5852C20.2541 14.9012 20.6681 14.1722 21.0121 13.4212C21.3561 12.6702 21.6401 11.8742 21.8531 11.0562C22.0321 10.3612 22.1661 9.62919 22.2491 8.88519C22.2971 8.46919 22.3191 8.08219 22.3191 7.77319C22.3461 7.53519 22.3191 7.2972 22.2971 7.0672ZM19.6191 3.48621C20.7281 4.22621 21.4981 5.34921 21.7891 6.65421L21.8261 6.81821L17.6991 5.29721L19.5551 3.4462L19.6191 3.48621ZM17.4711 8.8262L18.8271 10.1492L17.0191 11.5032L17.4711 8.8262ZM17.1241 8.08621L14.4831 7.1972L17.1241 5.72522V8.08621ZM17.5611 8.29022V5.68021L21.7441 7.20822L19.1371 9.86722L17.5611 8.29022ZM15.4581 2.78021C15.9771 2.66521 16.3881 2.60922 16.7471 2.60922C17.5271 2.60922 18.3121 2.7992 19.0811 3.1702L19.2011 3.2262L17.3401 5.08521L15.3011 2.8132L15.4581 2.78021ZM17.0121 5.3342L13.9561 7.0372L12.3091 6.48019L14.9691 3.0592L17.0121 5.3342ZM12.1781 4.30121L12.3351 4.20822C12.6641 4.01422 13.2761 3.65419 14.0011 3.31219L14.3521 3.14819L12.1781 5.96622V4.30121ZM12.1781 6.85519L13.4781 7.29721L12.1781 8.02621V6.85519ZM11.9621 8.54321C12.0891 8.54321 12.2041 8.47222 12.3311 8.40222L13.8291 7.5762C13.9381 7.5062 13.9901 7.47621 14.0461 7.49521L17.1131 8.5242L16.5451 11.8782L16.5301 11.8972L14.1921 14.8082L11.9621 16.4742L9.70909 14.7892L7.37509 11.8782L6.8071 8.5242L9.91109 7.48019L11.4281 8.30521C11.4651 8.32421 11.5061 8.34619 11.5431 8.36819C11.6481 8.43119 11.7561 8.4952 11.8651 8.5282C11.8981 8.5392 11.9281 8.54321 11.9621 8.54321ZM16.6721 12.4212L17.0981 14.1832L14.8831 14.6372L16.6721 12.4212ZM14.0381 15.4442L13.6051 17.6152L12.3021 16.7452L14.0381 15.4442ZM11.5961 16.7232L10.2921 17.5892L9.85909 15.4212L11.5961 16.7232ZM9.0591 14.6372L6.8221 14.1832L7.27409 12.3992L9.0591 14.6372ZM6.44809 8.8002L6.90009 11.4802L5.09608 10.1272L6.44809 8.8002ZM4.7831 9.86722L2.2011 7.20822L6.35909 5.68021V8.29022L4.7831 9.86722ZM6.7961 8.0712V5.72522L9.44009 7.1972L6.7961 8.0712ZM10.4601 7.30121L11.7671 6.85519V8.00021L10.4601 7.30121ZM9.89209 3.31219C10.6321 3.62819 11.2591 4.0002 11.5961 4.2002L11.7671 4.30121V5.9892L9.55609 3.16721L9.89209 3.31219ZM11.6111 6.48019L9.96709 7.0372L6.9081 5.3342L8.9511 3.0592L11.6111 6.48019ZM4.81209 3.1962C5.54809 2.8022 6.32509 2.60922 7.17709 2.60922C7.56509 2.60922 7.9651 2.67221 8.4471 2.80621L8.5891 2.8472L6.5571 5.11121L4.70009 3.2562L4.81209 3.1962ZM2.10809 6.65121C2.42209 5.34921 3.19109 4.22621 4.27809 3.48621L4.34209 3.4462L6.19809 5.29721L2.07109 6.8222L2.10809 6.65121ZM2.32509 10.4692C2.23109 9.95621 2.13409 9.40222 2.06009 8.83722C2.01509 8.46922 1.98909 8.0972 1.98909 7.8222V7.59122L4.36409 10.0492L2.34309 10.5662L2.32509 10.4692ZM3.0461 12.7112C2.8071 12.1272 2.62709 11.5812 2.49309 11.0492L2.47009 10.9602L4.39009 10.4802L3.12408 12.8972L3.0461 12.7112ZM4.84608 10.4542L6.9451 12.0162L6.43008 14.0832L3.4041 13.2352L4.84608 10.4542ZM4.70808 15.7192C4.24808 15.0722 3.8791 14.4732 3.5761 13.8902L3.4791 13.7002L6.16109 14.4472L4.77109 15.8082L4.70808 15.7192ZM6.46709 17.6712C5.98909 17.2172 5.56309 16.7492 5.11909 16.2022L5.06609 16.1352L6.4191 14.8122L6.6431 17.8382L6.46709 17.6712ZM6.8111 14.5922L9.4101 15.1092L9.91809 17.7532L7.06509 18.0872L6.8111 14.5922ZM9.35109 19.8792C8.59209 19.4042 8.03609 19.0092 7.54709 18.6082L7.37909 18.4672L9.90709 18.1882L9.45909 19.9502L9.35109 19.8792ZM11.2481 20.9612C10.8751 20.7752 10.5161 20.5752 10.1721 20.3812L9.81808 20.1842L10.2321 18.5302L11.4981 21.0842L11.2481 20.9612ZM11.9621 21.0622L10.4301 18.0022L11.9621 16.9872L13.4931 18.0022L11.9621 21.0622ZM14.0871 20.1952C13.5421 20.5112 13.0821 20.7532 12.6451 20.9612L12.3991 21.0802L13.7101 18.5152L14.1511 20.1582L14.0871 20.1952ZM16.3511 18.6302C15.8241 19.0612 15.2411 19.4742 14.6171 19.8572L14.5091 19.9242L14.0351 18.1882L16.5191 18.4932L16.3511 18.6302ZM16.8291 18.1132L14.0011 17.7532L14.5351 15.1092L17.1351 14.5922L16.8291 18.1132ZM18.8051 16.1982C18.4311 16.6822 17.9981 17.1542 17.4301 17.6932L17.2541 17.8642L17.5051 14.8152L18.8531 16.1352L18.8051 16.1982ZM20.3441 13.8672C19.9961 14.5402 19.6081 15.1612 19.1891 15.7192L19.1221 15.8042L17.7361 14.4472L20.4441 13.6742L20.3441 13.8672ZM17.4901 14.0832L16.9741 12.0422L19.0741 10.4802L20.4931 13.2612L17.4901 14.0832ZM21.4271 11.0492C21.2891 11.6072 21.0981 12.1902 20.8741 12.7332L20.7991 12.9232L19.5331 10.4802L21.4491 10.9602L21.4271 11.0492ZM21.9351 7.82919C21.9091 8.11519 21.8861 8.45022 21.8601 8.83322V8.83722C21.7891 9.38022 21.7181 9.94121 21.5951 10.4732L21.5761 10.5662L19.5551 10.0492L21.9531 7.56921L21.9351 7.82919Z" fill="black" fill-opacity="0.2"/>
<path d="M22.2971 7.0672C21.9421 4.2902 19.5551 2.2002 16.7471 2.2002C14.6851 2.2002 12.1191 3.8582 12.0101 3.9292L11.9621 3.96222L11.9091 3.9292C11.8011 3.8582 9.23909 2.2002 7.17709 2.2002C4.10309 2.2002 1.6001 4.69919 1.6001 7.77319C1.6001 8.08219 1.6261 8.46922 1.6711 8.88922C1.7381 9.49922 1.85009 10.1602 2.00409 10.8632C2.17209 11.6222 2.4481 12.4322 2.8221 13.2802C3.1651 14.0492 3.58009 14.8012 4.05809 15.5002C4.54009 16.2022 5.09309 16.8792 5.71309 17.5112C6.32909 18.1432 7.02409 18.7492 7.77409 19.3112C8.52909 19.8722 9.3621 20.4042 10.2511 20.8942C10.5721 21.0692 10.9051 21.2442 11.2441 21.4112C11.3041 21.4412 11.3681 21.4742 11.4271 21.5122C11.5581 21.5822 11.6811 21.6492 11.8121 21.6862C11.9881 21.7382 12.1151 21.6752 12.2871 21.5902L12.3651 21.5492C12.8281 21.3292 13.2841 21.0912 13.7171 20.8542C14.5801 20.3742 15.3941 19.8532 16.1261 19.3032C16.8621 18.7572 17.5421 18.1652 18.1511 17.5482C18.7561 16.9312 19.3011 16.2732 19.7791 15.5852C20.2541 14.9012 20.6681 14.1722 21.0121 13.4212C21.3561 12.6702 21.6401 11.8742 21.8531 11.0562C22.0321 10.3612 22.1661 9.62919 22.2491 8.88519C22.2971 8.46919 22.3191 8.08219 22.3191 7.77319C22.3461 7.53519 22.3191 7.2972 22.2971 7.0672ZM19.6191 3.48621C20.7281 4.22621 21.4981 5.34921 21.7891 6.65421L21.8261 6.81821L17.6991 5.29721L19.5551 3.4462L19.6191 3.48621ZM17.4711 8.8262L18.8271 10.1492L17.0191 11.5032L17.4711 8.8262ZM17.1241 8.08621L14.4831 7.1972L17.1241 5.72522V8.08621ZM17.5611 8.29022V5.68021L21.7441 7.20822L19.1371 9.86722L17.5611 8.29022ZM15.4581 2.78021C15.9771 2.66521 16.3881 2.60922 16.7471 2.60922C17.5271 2.60922 18.3121 2.7992 19.0811 3.1702L19.2011 3.2262L17.3401 5.08521L15.3011 2.8132L15.4581 2.78021ZM17.0121 5.3342L13.9561 7.0372L12.3091 6.48019L14.9691 3.0592L17.0121 5.3342ZM12.1781 4.30121L12.3351 4.20822C12.6641 4.01422 13.2761 3.65419 14.0011 3.31219L14.3521 3.14819L12.1781 5.96622V4.30121ZM12.1781 6.85519L13.4781 7.29721L12.1781 8.02621V6.85519ZM11.9621 8.54321C12.0891 8.54321 12.2041 8.47222 12.3311 8.40222L13.8291 7.5762C13.9381 7.5062 13.9901 7.47621 14.0461 7.49521L17.1131 8.5242L16.5451 11.8782L16.5301 11.8972L14.1921 14.8082L11.9621 16.4742L9.70909 14.7892L7.37509 11.8782L6.8071 8.5242L9.91109 7.48019L11.4281 8.30521C11.4651 8.32421 11.5061 8.34619 11.5431 8.36819C11.6481 8.43119 11.7561 8.4952 11.8651 8.5282C11.8981 8.5392 11.9281 8.54321 11.9621 8.54321ZM16.6721 12.4212L17.0981 14.1832L14.8831 14.6372L16.6721 12.4212ZM14.0381 15.4442L13.6051 17.6152L12.3021 16.7452L14.0381 15.4442ZM11.5961 16.7232L10.2921 17.5892L9.85909 15.4212L11.5961 16.7232ZM9.0591 14.6372L6.8221 14.1832L7.27409 12.3992L9.0591 14.6372ZM6.44809 8.8002L6.90009 11.4802L5.09608 10.1272L6.44809 8.8002ZM4.7831 9.86722L2.2011 7.20822L6.35909 5.68021V8.29022L4.7831 9.86722ZM6.7961 8.0712V5.72522L9.44009 7.1972L6.7961 8.0712ZM10.4601 7.30121L11.7671 6.85519V8.00021L10.4601 7.30121ZM9.89209 3.31219C10.6321 3.62819 11.2591 4.0002 11.5961 4.2002L11.7671 4.30121V5.9892L9.55609 3.16721L9.89209 3.31219ZM11.6111 6.48019L9.96709 7.0372L6.9081 5.3342L8.9511 3.0592L11.6111 6.48019ZM4.81209 3.1962C5.54809 2.8022 6.32509 2.60922 7.17709 2.60922C7.56509 2.60922 7.9651 2.67221 8.4471 2.80621L8.5891 2.8472L6.5571 5.11121L4.70009 3.2562L4.81209 3.1962ZM2.10809 6.65121C2.42209 5.34921 3.19109 4.22621 4.27809 3.48621L4.34209 3.4462L6.19809 5.29721L2.07109 6.8222L2.10809 6.65121ZM2.32509 10.4692C2.23109 9.95621 2.13409 9.40222 2.06009 8.83722C2.01509 8.46922 1.98909 8.0972 1.98909 7.8222V7.59122L4.36409 10.0492L2.34309 10.5662L2.32509 10.4692ZM3.0461 12.7112C2.8071 12.1272 2.62709 11.5812 2.49309 11.0492L2.47009 10.9602L4.39009 10.4802L3.12408 12.8972L3.0461 12.7112ZM4.84608 10.4542L6.9451 12.0162L6.43008 14.0832L3.4041 13.2352L4.84608 10.4542ZM4.70808 15.7192C4.24808 15.0722 3.8791 14.4732 3.5761 13.8902L3.4791 13.7002L6.16109 14.4472L4.77109 15.8082L4.70808 15.7192ZM6.46709 17.6712C5.98909 17.2172 5.56309 16.7492 5.11909 16.2022L5.06609 16.1352L6.4191 14.8122L6.6431 17.8382L6.46709 17.6712ZM6.8111 14.5922L9.4101 15.1092L9.91809 17.7532L7.06509 18.0872L6.8111 14.5922ZM9.35109 19.8792C8.59209 19.4042 8.03609 19.0092 7.54709 18.6082L7.37909 18.4672L9.90709 18.1882L9.45909 19.9502L9.35109 19.8792ZM11.2481 20.9612C10.8751 20.7752 10.5161 20.5752 10.1721 20.3812L9.81808 20.1842L10.2321 18.5302L11.4981 21.0842L11.2481 20.9612ZM11.9621 21.0622L10.4301 18.0022L11.9621 16.9872L13.4931 18.0022L11.9621 21.0622ZM14.0871 20.1952C13.5421 20.5112 13.0821 20.7532 12.6451 20.9612L12.3991 21.0802L13.7101 18.5152L14.1511 20.1582L14.0871 20.1952ZM16.3511 18.6302C15.8241 19.0612 15.2411 19.4742 14.6171 19.8572L14.5091 19.9242L14.0351 18.1882L16.5191 18.4932L16.3511 18.6302ZM16.8291 18.1132L14.0011 17.7532L14.5351 15.1092L17.1351 14.5922L16.8291 18.1132ZM18.8051 16.1982C18.4311 16.6822 17.9981 17.1542 17.4301 17.6932L17.2541 17.8642L17.5051 14.8152L18.8531 16.1352L18.8051 16.1982ZM20.3441 13.8672C19.9961 14.5402 19.6081 15.1612 19.1891 15.7192L19.1221 15.8042L17.7361 14.4472L20.4441 13.6742L20.3441 13.8672ZM17.4901 14.0832L16.9741 12.0422L19.0741 10.4802L20.4931 13.2612L17.4901 14.0832ZM21.4271 11.0492C21.2891 11.6072 21.0981 12.1902 20.8741 12.7332L20.7991 12.9232L19.5331 10.4802L21.4491 10.9602L21.4271 11.0492ZM21.9351 7.82919C21.9091 8.11519 21.8861 8.45022 21.8601 8.83322V8.83722C21.7891 9.38022 21.7181 9.94121 21.5951 10.4732L21.5761 10.5662L19.5551 10.0492L21.9531 7.56921L21.9351 7.82919Z" stroke="#333335" stroke-width="0.25"/>
<path d="M22.2971 7.0672C21.9421 4.2902 19.5551 2.2002 16.7471 2.2002C14.6851 2.2002 12.1191 3.8582 12.0101 3.9292L11.9621 3.96222L11.9091 3.9292C11.8011 3.8582 9.23909 2.2002 7.17709 2.2002C4.10309 2.2002 1.6001 4.69919 1.6001 7.77319C1.6001 8.08219 1.6261 8.46922 1.6711 8.88922C1.7381 9.49922 1.85009 10.1602 2.00409 10.8632C2.17209 11.6222 2.4481 12.4322 2.8221 13.2802C3.1651 14.0492 3.58009 14.8012 4.05809 15.5002C4.54009 16.2022 5.09309 16.8792 5.71309 17.5112C6.32909 18.1432 7.02409 18.7492 7.77409 19.3112C8.52909 19.8722 9.3621 20.4042 10.2511 20.8942C10.5721 21.0692 10.9051 21.2442 11.2441 21.4112C11.3041 21.4412 11.3681 21.4742 11.4271 21.5122C11.5581 21.5822 11.6811 21.6492 11.8121 21.6862C11.9881 21.7382 12.1151 21.6752 12.2871 21.5902L12.3651 21.5492C12.8281 21.3292 13.2841 21.0912 13.7171 20.8542C14.5801 20.3742 15.3941 19.8532 16.1261 19.3032C16.8621 18.7572 17.5421 18.1652 18.1511 17.5482C18.7561 16.9312 19.3011 16.2732 19.7791 15.5852C20.2541 14.9012 20.6681 14.1722 21.0121 13.4212C21.3561 12.6702 21.6401 11.8742 21.8531 11.0562C22.0321 10.3612 22.1661 9.62919 22.2491 8.88519C22.2971 8.46919 22.3191 8.08219 22.3191 7.77319C22.3461 7.53519 22.3191 7.2972 22.2971 7.0672ZM19.6191 3.48621C20.7281 4.22621 21.4981 5.34921 21.7891 6.65421L21.8261 6.81821L17.6991 5.29721L19.5551 3.4462L19.6191 3.48621ZM17.4711 8.8262L18.8271 10.1492L17.0191 11.5032L17.4711 8.8262ZM17.1241 8.08621L14.4831 7.1972L17.1241 5.72522V8.08621ZM17.5611 8.29022V5.68021L21.7441 7.20822L19.1371 9.86722L17.5611 8.29022ZM15.4581 2.78021C15.9771 2.66521 16.3881 2.60922 16.7471 2.60922C17.5271 2.60922 18.3121 2.7992 19.0811 3.1702L19.2011 3.2262L17.3401 5.08521L15.3011 2.8132L15.4581 2.78021ZM17.0121 5.3342L13.9561 7.0372L12.3091 6.48019L14.9691 3.0592L17.0121 5.3342ZM12.1781 4.30121L12.3351 4.20822C12.6641 4.01422 13.2761 3.65419 14.0011 3.31219L14.3521 3.14819L12.1781 5.96622V4.30121ZM12.1781 6.85519L13.4781 7.29721L12.1781 8.02621V6.85519ZM11.9621 8.54321C12.0891 8.54321 12.2041 8.47222 12.3311 8.40222L13.8291 7.5762C13.9381 7.5062 13.9901 7.47621 14.0461 7.49521L17.1131 8.5242L16.5451 11.8782L16.5301 11.8972L14.1921 14.8082L11.9621 16.4742L9.70909 14.7892L7.37509 11.8782L6.8071 8.5242L9.91109 7.48019L11.4281 8.30521C11.4651 8.32421 11.5061 8.34619 11.5431 8.36819C11.6481 8.43119 11.7561 8.4952 11.8651 8.5282C11.8981 8.5392 11.9281 8.54321 11.9621 8.54321ZM16.6721 12.4212L17.0981 14.1832L14.8831 14.6372L16.6721 12.4212ZM14.0381 15.4442L13.6051 17.6152L12.3021 16.7452L14.0381 15.4442ZM11.5961 16.7232L10.2921 17.5892L9.85909 15.4212L11.5961 16.7232ZM9.0591 14.6372L6.8221 14.1832L7.27409 12.3992L9.0591 14.6372ZM6.44809 8.8002L6.90009 11.4802L5.09608 10.1272L6.44809 8.8002ZM4.7831 9.86722L2.2011 7.20822L6.35909 5.68021V8.29022L4.7831 9.86722ZM6.7961 8.0712V5.72522L9.44009 7.1972L6.7961 8.0712ZM10.4601 7.30121L11.7671 6.85519V8.00021L10.4601 7.30121ZM9.89209 3.31219C10.6321 3.62819 11.2591 4.0002 11.5961 4.2002L11.7671 4.30121V5.9892L9.55609 3.16721L9.89209 3.31219ZM11.6111 6.48019L9.96709 7.0372L6.9081 5.3342L8.9511 3.0592L11.6111 6.48019ZM4.81209 3.1962C5.54809 2.8022 6.32509 2.60922 7.17709 2.60922C7.56509 2.60922 7.9651 2.67221 8.4471 2.80621L8.5891 2.8472L6.5571 5.11121L4.70009 3.2562L4.81209 3.1962ZM2.10809 6.65121C2.42209 5.34921 3.19109 4.22621 4.27809 3.48621L4.34209 3.4462L6.19809 5.29721L2.07109 6.8222L2.10809 6.65121ZM2.32509 10.4692C2.23109 9.95621 2.13409 9.40222 2.06009 8.83722C2.01509 8.46922 1.98909 8.0972 1.98909 7.8222V7.59122L4.36409 10.0492L2.34309 10.5662L2.32509 10.4692ZM3.0461 12.7112C2.8071 12.1272 2.62709 11.5812 2.49309 11.0492L2.47009 10.9602L4.39009 10.4802L3.12408 12.8972L3.0461 12.7112ZM4.84608 10.4542L6.9451 12.0162L6.43008 14.0832L3.4041 13.2352L4.84608 10.4542ZM4.70808 15.7192C4.24808 15.0722 3.8791 14.4732 3.5761 13.8902L3.4791 13.7002L6.16109 14.4472L4.77109 15.8082L4.70808 15.7192ZM6.46709 17.6712C5.98909 17.2172 5.56309 16.7492 5.11909 16.2022L5.06609 16.1352L6.4191 14.8122L6.6431 17.8382L6.46709 17.6712ZM6.8111 14.5922L9.4101 15.1092L9.91809 17.7532L7.06509 18.0872L6.8111 14.5922ZM9.35109 19.8792C8.59209 19.4042 8.03609 19.0092 7.54709 18.6082L7.37909 18.4672L9.90709 18.1882L9.45909 19.9502L9.35109 19.8792ZM11.2481 20.9612C10.8751 20.7752 10.5161 20.5752 10.1721 20.3812L9.81808 20.1842L10.2321 18.5302L11.4981 21.0842L11.2481 20.9612ZM11.9621 21.0622L10.4301 18.0022L11.9621 16.9872L13.4931 18.0022L11.9621 21.0622ZM14.0871 20.1952C13.5421 20.5112 13.0821 20.7532 12.6451 20.9612L12.3991 21.0802L13.7101 18.5152L14.1511 20.1582L14.0871 20.1952ZM16.3511 18.6302C15.8241 19.0612 15.2411 19.4742 14.6171 19.8572L14.5091 19.9242L14.0351 18.1882L16.5191 18.4932L16.3511 18.6302ZM16.8291 18.1132L14.0011 17.7532L14.5351 15.1092L17.1351 14.5922L16.8291 18.1132ZM18.8051 16.1982C18.4311 16.6822 17.9981 17.1542 17.4301 17.6932L17.2541 17.8642L17.5051 14.8152L18.8531 16.1352L18.8051 16.1982ZM20.3441 13.8672C19.9961 14.5402 19.6081 15.1612 19.1891 15.7192L19.1221 15.8042L17.7361 14.4472L20.4441 13.6742L20.3441 13.8672ZM17.4901 14.0832L16.9741 12.0422L19.0741 10.4802L20.4931 13.2612L17.4901 14.0832ZM21.4271 11.0492C21.2891 11.6072 21.0981 12.1902 20.8741 12.7332L20.7991 12.9232L19.5331 10.4802L21.4491 10.9602L21.4271 11.0492ZM21.9351 7.82919C21.9091 8.11519 21.8861 8.45022 21.8601 8.83322V8.83722C21.7891 9.38022 21.7181 9.94121 21.5951 10.4732L21.5761 10.5662L19.5551 10.0492L21.9531 7.56921L21.9351 7.82919Z" stroke="black" stroke-opacity="0.2" stroke-width="0.25"/>
<path d="M22.2971 7.0672C21.9421 4.2902 19.5551 2.2002 16.7471 2.2002C14.6851 2.2002 12.1191 3.8582 12.0101 3.9292L11.9621 3.96222L11.9091 3.9292C11.8011 3.8582 9.23909 2.2002 7.17709 2.2002C4.10309 2.2002 1.6001 4.69919 1.6001 7.77319C1.6001 8.08219 1.6261 8.46922 1.6711 8.88922C1.7381 9.49922 1.85009 10.1602 2.00409 10.8632C2.17209 11.6222 2.4481 12.4322 2.8221 13.2802C3.1651 14.0492 3.58009 14.8012 4.05809 15.5002C4.54009 16.2022 5.09309 16.8792 5.71309 17.5112C6.32909 18.1432 7.02409 18.7492 7.77409 19.3112C8.52909 19.8722 9.3621 20.4042 10.2511 20.8942C10.5721 21.0692 10.9051 21.2442 11.2441 21.4112C11.3041 21.4412 11.3681 21.4742 11.4271 21.5122C11.5581 21.5822 11.6811 21.6492 11.8121 21.6862C11.9881 21.7382 12.1151 21.6752 12.2871 21.5902L12.3651 21.5492C12.8281 21.3292 13.2841 21.0912 13.7171 20.8542C14.5801 20.3742 15.3941 19.8532 16.1261 19.3032C16.8621 18.7572 17.5421 18.1652 18.1511 17.5482C18.7561 16.9312 19.3011 16.2732 19.7791 15.5852C20.2541 14.9012 20.6681 14.1722 21.0121 13.4212C21.3561 12.6702 21.6401 11.8742 21.8531 11.0562C22.0321 10.3612 22.1661 9.62919 22.2491 8.88519C22.2971 8.46919 22.3191 8.08219 22.3191 7.77319C22.3461 7.53519 22.3191 7.2972 22.2971 7.0672ZM19.6191 3.48621C20.7281 4.22621 21.4981 5.34921 21.7891 6.65421L21.8261 6.81821L17.6991 5.29721L19.5551 3.4462L19.6191 3.48621ZM17.4711 8.8262L18.8271 10.1492L17.0191 11.5032L17.4711 8.8262ZM17.1241 8.08621L14.4831 7.1972L17.1241 5.72522V8.08621ZM17.5611 8.29022V5.68021L21.7441 7.20822L19.1371 9.86722L17.5611 8.29022ZM15.4581 2.78021C15.9771 2.66521 16.3881 2.60922 16.7471 2.60922C17.5271 2.60922 18.3121 2.7992 19.0811 3.1702L19.2011 3.2262L17.3401 5.08521L15.3011 2.8132L15.4581 2.78021ZM17.0121 5.3342L13.9561 7.0372L12.3091 6.48019L14.9691 3.0592L17.0121 5.3342ZM12.1781 4.30121L12.3351 4.20822C12.6641 4.01422 13.2761 3.65419 14.0011 3.31219L14.3521 3.14819L12.1781 5.96622V4.30121ZM12.1781 6.85519L13.4781 7.29721L12.1781 8.02621V6.85519ZM11.9621 8.54321C12.0891 8.54321 12.2041 8.47222 12.3311 8.40222L13.8291 7.5762C13.9381 7.5062 13.9901 7.47621 14.0461 7.49521L17.1131 8.5242L16.5451 11.8782L16.5301 11.8972L14.1921 14.8082L11.9621 16.4742L9.70909 14.7892L7.37509 11.8782L6.8071 8.5242L9.91109 7.48019L11.4281 8.30521C11.4651 8.32421 11.5061 8.34619 11.5431 8.36819C11.6481 8.43119 11.7561 8.4952 11.8651 8.5282C11.8981 8.5392 11.9281 8.54321 11.9621 8.54321ZM16.6721 12.4212L17.0981 14.1832L14.8831 14.6372L16.6721 12.4212ZM14.0381 15.4442L13.6051 17.6152L12.3021 16.7452L14.0381 15.4442ZM11.5961 16.7232L10.2921 17.5892L9.85909 15.4212L11.5961 16.7232ZM9.0591 14.6372L6.8221 14.1832L7.27409 12.3992L9.0591 14.6372ZM6.44809 8.8002L6.90009 11.4802L5.09608 10.1272L6.44809 8.8002ZM4.7831 9.86722L2.2011 7.20822L6.35909 5.68021V8.29022L4.7831 9.86722ZM6.7961 8.0712V5.72522L9.44009 7.1972L6.7961 8.0712ZM10.4601 7.30121L11.7671 6.85519V8.00021L10.4601 7.30121ZM9.89209 3.31219C10.6321 3.62819 11.2591 4.0002 11.5961 4.2002L11.7671 4.30121V5.9892L9.55609 3.16721L9.89209 3.31219ZM11.6111 6.48019L9.96709 7.0372L6.9081 5.3342L8.9511 3.0592L11.6111 6.48019ZM4.81209 3.1962C5.54809 2.8022 6.32509 2.60922 7.17709 2.60922C7.56509 2.60922 7.9651 2.67221 8.4471 2.80621L8.5891 2.8472L6.5571 5.11121L4.70009 3.2562L4.81209 3.1962ZM2.10809 6.65121C2.42209 5.34921 3.19109 4.22621 4.27809 3.48621L4.34209 3.4462L6.19809 5.29721L2.07109 6.8222L2.10809 6.65121ZM2.32509 10.4692C2.23109 9.95621 2.13409 9.40222 2.06009 8.83722C2.01509 8.46922 1.98909 8.0972 1.98909 7.8222V7.59122L4.36409 10.0492L2.34309 10.5662L2.32509 10.4692ZM3.0461 12.7112C2.8071 12.1272 2.62709 11.5812 2.49309 11.0492L2.47009 10.9602L4.39009 10.4802L3.12408 12.8972L3.0461 12.7112ZM4.84608 10.4542L6.9451 12.0162L6.43008 14.0832L3.4041 13.2352L4.84608 10.4542ZM4.70808 15.7192C4.24808 15.0722 3.8791 14.4732 3.5761 13.8902L3.4791 13.7002L6.16109 14.4472L4.77109 15.8082L4.70808 15.7192ZM6.46709 17.6712C5.98909 17.2172 5.56309 16.7492 5.11909 16.2022L5.06609 16.1352L6.4191 14.8122L6.6431 17.8382L6.46709 17.6712ZM6.8111 14.5922L9.4101 15.1092L9.91809 17.7532L7.06509 18.0872L6.8111 14.5922ZM9.35109 19.8792C8.59209 19.4042 8.03609 19.0092 7.54709 18.6082L7.37909 18.4672L9.90709 18.1882L9.45909 19.9502L9.35109 19.8792ZM11.2481 20.9612C10.8751 20.7752 10.5161 20.5752 10.1721 20.3812L9.81808 20.1842L10.2321 18.5302L11.4981 21.0842L11.2481 20.9612ZM11.9621 21.0622L10.4301 18.0022L11.9621 16.9872L13.4931 18.0022L11.9621 21.0622ZM14.0871 20.1952C13.5421 20.5112 13.0821 20.7532 12.6451 20.9612L12.3991 21.0802L13.7101 18.5152L14.1511 20.1582L14.0871 20.1952ZM16.3511 18.6302C15.8241 19.0612 15.2411 19.4742 14.6171 19.8572L14.5091 19.9242L14.0351 18.1882L16.5191 18.4932L16.3511 18.6302ZM16.8291 18.1132L14.0011 17.7532L14.5351 15.1092L17.1351 14.5922L16.8291 18.1132ZM18.8051 16.1982C18.4311 16.6822 17.9981 17.1542 17.4301 17.6932L17.2541 17.8642L17.5051 14.8152L18.8531 16.1352L18.8051 16.1982ZM20.3441 13.8672C19.9961 14.5402 19.6081 15.1612 19.1891 15.7192L19.1221 15.8042L17.7361 14.4472L20.4441 13.6742L20.3441 13.8672ZM17.4901 14.0832L16.9741 12.0422L19.0741 10.4802L20.4931 13.2612L17.4901 14.0832ZM21.4271 11.0492C21.2891 11.6072 21.0981 12.1902 20.8741 12.7332L20.7991 12.9232L19.5331 10.4802L21.4491 10.9602L21.4271 11.0492ZM21.9351 7.82919C21.9091 8.11519 21.8861 8.45022 21.8601 8.83322V8.83722C21.7891 9.38022 21.7181 9.94121 21.5951 10.4732L21.5761 10.5662L19.5551 10.0492L21.9531 7.56921L21.9351 7.82919Z" stroke="black" stroke-opacity="0.2" stroke-width="0.25"/>
<path d="M22.2971 7.0672C21.9421 4.2902 19.5551 2.2002 16.7471 2.2002C14.6851 2.2002 12.1191 3.8582 12.0101 3.9292L11.9621 3.96222L11.9091 3.9292C11.8011 3.8582 9.23909 2.2002 7.17709 2.2002C4.10309 2.2002 1.6001 4.69919 1.6001 7.77319C1.6001 8.08219 1.6261 8.46922 1.6711 8.88922C1.7381 9.49922 1.85009 10.1602 2.00409 10.8632C2.17209 11.6222 2.4481 12.4322 2.8221 13.2802C3.1651 14.0492 3.58009 14.8012 4.05809 15.5002C4.54009 16.2022 5.09309 16.8792 5.71309 17.5112C6.32909 18.1432 7.02409 18.7492 7.77409 19.3112C8.52909 19.8722 9.3621 20.4042 10.2511 20.8942C10.5721 21.0692 10.9051 21.2442 11.2441 21.4112C11.3041 21.4412 11.3681 21.4742 11.4271 21.5122C11.5581 21.5822 11.6811 21.6492 11.8121 21.6862C11.9881 21.7382 12.1151 21.6752 12.2871 21.5902L12.3651 21.5492C12.8281 21.3292 13.2841 21.0912 13.7171 20.8542C14.5801 20.3742 15.3941 19.8532 16.1261 19.3032C16.8621 18.7572 17.5421 18.1652 18.1511 17.5482C18.7561 16.9312 19.3011 16.2732 19.7791 15.5852C20.2541 14.9012 20.6681 14.1722 21.0121 13.4212C21.3561 12.6702 21.6401 11.8742 21.8531 11.0562C22.0321 10.3612 22.1661 9.62919 22.2491 8.88519C22.2971 8.46919 22.3191 8.08219 22.3191 7.77319C22.3461 7.53519 22.3191 7.2972 22.2971 7.0672ZM19.6191 3.48621C20.7281 4.22621 21.4981 5.34921 21.7891 6.65421L21.8261 6.81821L17.6991 5.29721L19.5551 3.4462L19.6191 3.48621ZM17.4711 8.8262L18.8271 10.1492L17.0191 11.5032L17.4711 8.8262ZM17.1241 8.08621L14.4831 7.1972L17.1241 5.72522V8.08621ZM17.5611 8.29022V5.68021L21.7441 7.20822L19.1371 9.86722L17.5611 8.29022ZM15.4581 2.78021C15.9771 2.66521 16.3881 2.60922 16.7471 2.60922C17.5271 2.60922 18.3121 2.7992 19.0811 3.1702L19.2011 3.2262L17.3401 5.08521L15.3011 2.8132L15.4581 2.78021ZM17.0121 5.3342L13.9561 7.0372L12.3091 6.48019L14.9691 3.0592L17.0121 5.3342ZM12.1781 4.30121L12.3351 4.20822C12.6641 4.01422 13.2761 3.65419 14.0011 3.31219L14.3521 3.14819L12.1781 5.96622V4.30121ZM12.1781 6.85519L13.4781 7.29721L12.1781 8.02621V6.85519ZM11.9621 8.54321C12.0891 8.54321 12.2041 8.47222 12.3311 8.40222L13.8291 7.5762C13.9381 7.5062 13.9901 7.47621 14.0461 7.49521L17.1131 8.5242L16.5451 11.8782L16.5301 11.8972L14.1921 14.8082L11.9621 16.4742L9.70909 14.7892L7.37509 11.8782L6.8071 8.5242L9.91109 7.48019L11.4281 8.30521C11.4651 8.32421 11.5061 8.34619 11.5431 8.36819C11.6481 8.43119 11.7561 8.4952 11.8651 8.5282C11.8981 8.5392 11.9281 8.54321 11.9621 8.54321ZM16.6721 12.4212L17.0981 14.1832L14.8831 14.6372L16.6721 12.4212ZM14.0381 15.4442L13.6051 17.6152L12.3021 16.7452L14.0381 15.4442ZM11.5961 16.7232L10.2921 17.5892L9.85909 15.4212L11.5961 16.7232ZM9.0591 14.6372L6.8221 14.1832L7.27409 12.3992L9.0591 14.6372ZM6.44809 8.8002L6.90009 11.4802L5.09608 10.1272L6.44809 8.8002ZM4.7831 9.86722L2.2011 7.20822L6.35909 5.68021V8.29022L4.7831 9.86722ZM6.7961 8.0712V5.72522L9.44009 7.1972L6.7961 8.0712ZM10.4601 7.30121L11.7671 6.85519V8.00021L10.4601 7.30121ZM9.89209 3.31219C10.6321 3.62819 11.2591 4.0002 11.5961 4.2002L11.7671 4.30121V5.9892L9.55609 3.16721L9.89209 3.31219ZM11.6111 6.48019L9.96709 7.0372L6.9081 5.3342L8.9511 3.0592L11.6111 6.48019ZM4.81209 3.1962C5.54809 2.8022 6.32509 2.60922 7.17709 2.60922C7.56509 2.60922 7.9651 2.67221 8.4471 2.80621L8.5891 2.8472L6.5571 5.11121L4.70009 3.2562L4.81209 3.1962ZM2.10809 6.65121C2.42209 5.34921 3.19109 4.22621 4.27809 3.48621L4.34209 3.4462L6.19809 5.29721L2.07109 6.8222L2.10809 6.65121ZM2.32509 10.4692C2.23109 9.95621 2.13409 9.40222 2.06009 8.83722C2.01509 8.46922 1.98909 8.0972 1.98909 7.8222V7.59122L4.36409 10.0492L2.34309 10.5662L2.32509 10.4692ZM3.0461 12.7112C2.8071 12.1272 2.62709 11.5812 2.49309 11.0492L2.47009 10.9602L4.39009 10.4802L3.12408 12.8972L3.0461 12.7112ZM4.84608 10.4542L6.9451 12.0162L6.43008 14.0832L3.4041 13.2352L4.84608 10.4542ZM4.70808 15.7192C4.24808 15.0722 3.8791 14.4732 3.5761 13.8902L3.4791 13.7002L6.16109 14.4472L4.77109 15.8082L4.70808 15.7192ZM6.46709 17.6712C5.98909 17.2172 5.56309 16.7492 5.11909 16.2022L5.06609 16.1352L6.4191 14.8122L6.6431 17.8382L6.46709 17.6712ZM6.8111 14.5922L9.4101 15.1092L9.91809 17.7532L7.06509 18.0872L6.8111 14.5922ZM9.35109 19.8792C8.59209 19.4042 8.03609 19.0092 7.54709 18.6082L7.37909 18.4672L9.90709 18.1882L9.45909 19.9502L9.35109 19.8792ZM11.2481 20.9612C10.8751 20.7752 10.5161 20.5752 10.1721 20.3812L9.81808 20.1842L10.2321 18.5302L11.4981 21.0842L11.2481 20.9612ZM11.9621 21.0622L10.4301 18.0022L11.9621 16.9872L13.4931 18.0022L11.9621 21.0622ZM14.0871 20.1952C13.5421 20.5112 13.0821 20.7532 12.6451 20.9612L12.3991 21.0802L13.7101 18.5152L14.1511 20.1582L14.0871 20.1952ZM16.3511 18.6302C15.8241 19.0612 15.2411 19.4742 14.6171 19.8572L14.5091 19.9242L14.0351 18.1882L16.5191 18.4932L16.3511 18.6302ZM16.8291 18.1132L14.0011 17.7532L14.5351 15.1092L17.1351 14.5922L16.8291 18.1132ZM18.8051 16.1982C18.4311 16.6822 17.9981 17.1542 17.4301 17.6932L17.2541 17.8642L17.5051 14.8152L18.8531 16.1352L18.8051 16.1982ZM20.3441 13.8672C19.9961 14.5402 19.6081 15.1612 19.1891 15.7192L19.1221 15.8042L17.7361 14.4472L20.4441 13.6742L20.3441 13.8672ZM17.4901 14.0832L16.9741 12.0422L19.0741 10.4802L20.4931 13.2612L17.4901 14.0832ZM21.4271 11.0492C21.2891 11.6072 21.0981 12.1902 20.8741 12.7332L20.7991 12.9232L19.5331 10.4802L21.4491 10.9602L21.4271 11.0492ZM21.9351 7.82919C21.9091 8.11519 21.8861 8.45022 21.8601 8.83322V8.83722C21.7891 9.38022 21.7181 9.94121 21.5951 10.4732L21.5761 10.5662L19.5551 10.0492L21.9531 7.56921L21.9351 7.82919Z" stroke="black" stroke-opacity="0.2" stroke-width="0.25"/>
<path d="M22.2971 7.0672C21.9421 4.2902 19.5551 2.2002 16.7471 2.2002C14.6851 2.2002 12.1191 3.8582 12.0101 3.9292L11.9621 3.96222L11.9091 3.9292C11.8011 3.8582 9.23909 2.2002 7.17709 2.2002C4.10309 2.2002 1.6001 4.69919 1.6001 7.77319C1.6001 8.08219 1.6261 8.46922 1.6711 8.88922C1.7381 9.49922 1.85009 10.1602 2.00409 10.8632C2.17209 11.6222 2.4481 12.4322 2.8221 13.2802C3.1651 14.0492 3.58009 14.8012 4.05809 15.5002C4.54009 16.2022 5.09309 16.8792 5.71309 17.5112C6.32909 18.1432 7.02409 18.7492 7.77409 19.3112C8.52909 19.8722 9.3621 20.4042 10.2511 20.8942C10.5721 21.0692 10.9051 21.2442 11.2441 21.4112C11.3041 21.4412 11.3681 21.4742 11.4271 21.5122C11.5581 21.5822 11.6811 21.6492 11.8121 21.6862C11.9881 21.7382 12.1151 21.6752 12.2871 21.5902L12.3651 21.5492C12.8281 21.3292 13.2841 21.0912 13.7171 20.8542C14.5801 20.3742 15.3941 19.8532 16.1261 19.3032C16.8621 18.7572 17.5421 18.1652 18.1511 17.5482C18.7561 16.9312 19.3011 16.2732 19.7791 15.5852C20.2541 14.9012 20.6681 14.1722 21.0121 13.4212C21.3561 12.6702 21.6401 11.8742 21.8531 11.0562C22.0321 10.3612 22.1661 9.62919 22.2491 8.88519C22.2971 8.46919 22.3191 8.08219 22.3191 7.77319C22.3461 7.53519 22.3191 7.2972 22.2971 7.0672ZM19.6191 3.48621C20.7281 4.22621 21.4981 5.34921 21.7891 6.65421L21.8261 6.81821L17.6991 5.29721L19.5551 3.4462L19.6191 3.48621ZM17.4711 8.8262L18.8271 10.1492L17.0191 11.5032L17.4711 8.8262ZM17.1241 8.08621L14.4831 7.1972L17.1241 5.72522V8.08621ZM17.5611 8.29022V5.68021L21.7441 7.20822L19.1371 9.86722L17.5611 8.29022ZM15.4581 2.78021C15.9771 2.66521 16.3881 2.60922 16.7471 2.60922C17.5271 2.60922 18.3121 2.7992 19.0811 3.1702L19.2011 3.2262L17.3401 5.08521L15.3011 2.8132L15.4581 2.78021ZM17.0121 5.3342L13.9561 7.0372L12.3091 6.48019L14.9691 3.0592L17.0121 5.3342ZM12.1781 4.30121L12.3351 4.20822C12.6641 4.01422 13.2761 3.65419 14.0011 3.31219L14.3521 3.14819L12.1781 5.96622V4.30121ZM12.1781 6.85519L13.4781 7.29721L12.1781 8.02621V6.85519ZM11.9621 8.54321C12.0891 8.54321 12.2041 8.47222 12.3311 8.40222L13.8291 7.5762C13.9381 7.5062 13.9901 7.47621 14.0461 7.49521L17.1131 8.5242L16.5451 11.8782L16.5301 11.8972L14.1921 14.8082L11.9621 16.4742L9.70909 14.7892L7.37509 11.8782L6.8071 8.5242L9.91109 7.48019L11.4281 8.30521C11.4651 8.32421 11.5061 8.34619 11.5431 8.36819C11.6481 8.43119 11.7561 8.4952 11.8651 8.5282C11.8981 8.5392 11.9281 8.54321 11.9621 8.54321ZM16.6721 12.4212L17.0981 14.1832L14.8831 14.6372L16.6721 12.4212ZM14.0381 15.4442L13.6051 17.6152L12.3021 16.7452L14.0381 15.4442ZM11.5961 16.7232L10.2921 17.5892L9.85909 15.4212L11.5961 16.7232ZM9.0591 14.6372L6.8221 14.1832L7.27409 12.3992L9.0591 14.6372ZM6.44809 8.8002L6.90009 11.4802L5.09608 10.1272L6.44809 8.8002ZM4.7831 9.86722L2.2011 7.20822L6.35909 5.68021V8.29022L4.7831 9.86722ZM6.7961 8.0712V5.72522L9.44009 7.1972L6.7961 8.0712ZM10.4601 7.30121L11.7671 6.85519V8.00021L10.4601 7.30121ZM9.89209 3.31219C10.6321 3.62819 11.2591 4.0002 11.5961 4.2002L11.7671 4.30121V5.9892L9.55609 3.16721L9.89209 3.31219ZM11.6111 6.48019L9.96709 7.0372L6.9081 5.3342L8.9511 3.0592L11.6111 6.48019ZM4.81209 3.1962C5.54809 2.8022 6.32509 2.60922 7.17709 2.60922C7.56509 2.60922 7.9651 2.67221 8.4471 2.80621L8.5891 2.8472L6.5571 5.11121L4.70009 3.2562L4.81209 3.1962ZM2.10809 6.65121C2.42209 5.34921 3.19109 4.22621 4.27809 3.48621L4.34209 3.4462L6.19809 5.29721L2.07109 6.8222L2.10809 6.65121ZM2.32509 10.4692C2.23109 9.95621 2.13409 9.40222 2.06009 8.83722C2.01509 8.46922 1.98909 8.0972 1.98909 7.8222V7.59122L4.36409 10.0492L2.34309 10.5662L2.32509 10.4692ZM3.0461 12.7112C2.8071 12.1272 2.62709 11.5812 2.49309 11.0492L2.47009 10.9602L4.39009 10.4802L3.12408 12.8972L3.0461 12.7112ZM4.84608 10.4542L6.9451 12.0162L6.43008 14.0832L3.4041 13.2352L4.84608 10.4542ZM4.70808 15.7192C4.24808 15.0722 3.8791 14.4732 3.5761 13.8902L3.4791 13.7002L6.16109 14.4472L4.77109 15.8082L4.70808 15.7192ZM6.46709 17.6712C5.98909 17.2172 5.56309 16.7492 5.11909 16.2022L5.06609 16.1352L6.4191 14.8122L6.6431 17.8382L6.46709 17.6712ZM6.8111 14.5922L9.4101 15.1092L9.91809 17.7532L7.06509 18.0872L6.8111 14.5922ZM9.35109 19.8792C8.59209 19.4042 8.03609 19.0092 7.54709 18.6082L7.37909 18.4672L9.90709 18.1882L9.45909 19.9502L9.35109 19.8792ZM11.2481 20.9612C10.8751 20.7752 10.5161 20.5752 10.1721 20.3812L9.81808 20.1842L10.2321 18.5302L11.4981 21.0842L11.2481 20.9612ZM11.9621 21.0622L10.4301 18.0022L11.9621 16.9872L13.4931 18.0022L11.9621 21.0622ZM14.0871 20.1952C13.5421 20.5112 13.0821 20.7532 12.6451 20.9612L12.3991 21.0802L13.7101 18.5152L14.1511 20.1582L14.0871 20.1952ZM16.3511 18.6302C15.8241 19.0612 15.2411 19.4742 14.6171 19.8572L14.5091 19.9242L14.0351 18.1882L16.5191 18.4932L16.3511 18.6302ZM16.8291 18.1132L14.0011 17.7532L14.5351 15.1092L17.1351 14.5922L16.8291 18.1132ZM18.8051 16.1982C18.4311 16.6822 17.9981 17.1542 17.4301 17.6932L17.2541 17.8642L17.5051 14.8152L18.8531 16.1352L18.8051 16.1982ZM20.3441 13.8672C19.9961 14.5402 19.6081 15.1612 19.1891 15.7192L19.1221 15.8042L17.7361 14.4472L20.4441 13.6742L20.3441 13.8672ZM17.4901 14.0832L16.9741 12.0422L19.0741 10.4802L20.4931 13.2612L17.4901 14.0832ZM21.4271 11.0492C21.2891 11.6072 21.0981 12.1902 20.8741 12.7332L20.7991 12.9232L19.5331 10.4802L21.4491 10.9602L21.4271 11.0492ZM21.9351 7.82919C21.9091 8.11519 21.8861 8.45022 21.8601 8.83322V8.83722C21.7891 9.38022 21.7181 9.94121 21.5951 10.4732L21.5761 10.5662L19.5551 10.0492L21.9531 7.56921L21.9351 7.82919Z" stroke="black" stroke-opacity="0.2" stroke-width="0.25"/>
<path d="M22.2971 7.0672C21.9421 4.2902 19.5551 2.2002 16.7471 2.2002C14.6851 2.2002 12.1191 3.8582 12.0101 3.9292L11.9621 3.96222L11.9091 3.9292C11.8011 3.8582 9.23909 2.2002 7.17709 2.2002C4.10309 2.2002 1.6001 4.69919 1.6001 7.77319C1.6001 8.08219 1.6261 8.46922 1.6711 8.88922C1.7381 9.49922 1.85009 10.1602 2.00409 10.8632C2.17209 11.6222 2.4481 12.4322 2.8221 13.2802C3.1651 14.0492 3.58009 14.8012 4.05809 15.5002C4.54009 16.2022 5.09309 16.8792 5.71309 17.5112C6.32909 18.1432 7.02409 18.7492 7.77409 19.3112C8.52909 19.8722 9.3621 20.4042 10.2511 20.8942C10.5721 21.0692 10.9051 21.2442 11.2441 21.4112C11.3041 21.4412 11.3681 21.4742 11.4271 21.5122C11.5581 21.5822 11.6811 21.6492 11.8121 21.6862C11.9881 21.7382 12.1151 21.6752 12.2871 21.5902L12.3651 21.5492C12.8281 21.3292 13.2841 21.0912 13.7171 20.8542C14.5801 20.3742 15.3941 19.8532 16.1261 19.3032C16.8621 18.7572 17.5421 18.1652 18.1511 17.5482C18.7561 16.9312 19.3011 16.2732 19.7791 15.5852C20.2541 14.9012 20.6681 14.1722 21.0121 13.4212C21.3561 12.6702 21.6401 11.8742 21.8531 11.0562C22.0321 10.3612 22.1661 9.62919 22.2491 8.88519C22.2971 8.46919 22.3191 8.08219 22.3191 7.77319C22.3461 7.53519 22.3191 7.2972 22.2971 7.0672ZM19.6191 3.48621C20.7281 4.22621 21.4981 5.34921 21.7891 6.65421L21.8261 6.81821L17.6991 5.29721L19.5551 3.4462L19.6191 3.48621ZM17.4711 8.8262L18.8271 10.1492L17.0191 11.5032L17.4711 8.8262ZM17.1241 8.08621L14.4831 7.1972L17.1241 5.72522V8.08621ZM17.5611 8.29022V5.68021L21.7441 7.20822L19.1371 9.86722L17.5611 8.29022ZM15.4581 2.78021C15.9771 2.66521 16.3881 2.60922 16.7471 2.60922C17.5271 2.60922 18.3121 2.7992 19.0811 3.1702L19.2011 3.2262L17.3401 5.08521L15.3011 2.8132L15.4581 2.78021ZM17.0121 5.3342L13.9561 7.0372L12.3091 6.48019L14.9691 3.0592L17.0121 5.3342ZM12.1781 4.30121L12.3351 4.20822C12.6641 4.01422 13.2761 3.65419 14.0011 3.31219L14.3521 3.14819L12.1781 5.96622V4.30121ZM12.1781 6.85519L13.4781 7.29721L12.1781 8.02621V6.85519ZM11.9621 8.54321C12.0891 8.54321 12.2041 8.47222 12.3311 8.40222L13.8291 7.5762C13.9381 7.5062 13.9901 7.47621 14.0461 7.49521L17.1131 8.5242L16.5451 11.8782L16.5301 11.8972L14.1921 14.8082L11.9621 16.4742L9.70909 14.7892L7.37509 11.8782L6.8071 8.5242L9.91109 7.48019L11.4281 8.30521C11.4651 8.32421 11.5061 8.34619 11.5431 8.36819C11.6481 8.43119 11.7561 8.4952 11.8651 8.5282C11.8981 8.5392 11.9281 8.54321 11.9621 8.54321ZM16.6721 12.4212L17.0981 14.1832L14.8831 14.6372L16.6721 12.4212ZM14.0381 15.4442L13.6051 17.6152L12.3021 16.7452L14.0381 15.4442ZM11.5961 16.7232L10.2921 17.5892L9.85909 15.4212L11.5961 16.7232ZM9.0591 14.6372L6.8221 14.1832L7.27409 12.3992L9.0591 14.6372ZM6.44809 8.8002L6.90009 11.4802L5.09608 10.1272L6.44809 8.8002ZM4.7831 9.86722L2.2011 7.20822L6.35909 5.68021V8.29022L4.7831 9.86722ZM6.7961 8.0712V5.72522L9.44009 7.1972L6.7961 8.0712ZM10.4601 7.30121L11.7671 6.85519V8.00021L10.4601 7.30121ZM9.89209 3.31219C10.6321 3.62819 11.2591 4.0002 11.5961 4.2002L11.7671 4.30121V5.9892L9.55609 3.16721L9.89209 3.31219ZM11.6111 6.48019L9.96709 7.0372L6.9081 5.3342L8.9511 3.0592L11.6111 6.48019ZM4.81209 3.1962C5.54809 2.8022 6.32509 2.60922 7.17709 2.60922C7.56509 2.60922 7.9651 2.67221 8.4471 2.80621L8.5891 2.8472L6.5571 5.11121L4.70009 3.2562L4.81209 3.1962ZM2.10809 6.65121C2.42209 5.34921 3.19109 4.22621 4.27809 3.48621L4.34209 3.4462L6.19809 5.29721L2.07109 6.8222L2.10809 6.65121ZM2.32509 10.4692C2.23109 9.95621 2.13409 9.40222 2.06009 8.83722C2.01509 8.46922 1.98909 8.0972 1.98909 7.8222V7.59122L4.36409 10.0492L2.34309 10.5662L2.32509 10.4692ZM3.0461 12.7112C2.8071 12.1272 2.62709 11.5812 2.49309 11.0492L2.47009 10.9602L4.39009 10.4802L3.12408 12.8972L3.0461 12.7112ZM4.84608 10.4542L6.9451 12.0162L6.43008 14.0832L3.4041 13.2352L4.84608 10.4542ZM4.70808 15.7192C4.24808 15.0722 3.8791 14.4732 3.5761 13.8902L3.4791 13.7002L6.16109 14.4472L4.77109 15.8082L4.70808 15.7192ZM6.46709 17.6712C5.98909 17.2172 5.56309 16.7492 5.11909 16.2022L5.06609 16.1352L6.4191 14.8122L6.6431 17.8382L6.46709 17.6712ZM6.8111 14.5922L9.4101 15.1092L9.91809 17.7532L7.06509 18.0872L6.8111 14.5922ZM9.35109 19.8792C8.59209 19.4042 8.03609 19.0092 7.54709 18.6082L7.37909 18.4672L9.90709 18.1882L9.45909 19.9502L9.35109 19.8792ZM11.2481 20.9612C10.8751 20.7752 10.5161 20.5752 10.1721 20.3812L9.81808 20.1842L10.2321 18.5302L11.4981 21.0842L11.2481 20.9612ZM11.9621 21.0622L10.4301 18.0022L11.9621 16.9872L13.4931 18.0022L11.9621 21.0622ZM14.0871 20.1952C13.5421 20.5112 13.0821 20.7532 12.6451 20.9612L12.3991 21.0802L13.7101 18.5152L14.1511 20.1582L14.0871 20.1952ZM16.3511 18.6302C15.8241 19.0612 15.2411 19.4742 14.6171 19.8572L14.5091 19.9242L14.0351 18.1882L16.5191 18.4932L16.3511 18.6302ZM16.8291 18.1132L14.0011 17.7532L14.5351 15.1092L17.1351 14.5922L16.8291 18.1132ZM18.8051 16.1982C18.4311 16.6822 17.9981 17.1542 17.4301 17.6932L17.2541 17.8642L17.5051 14.8152L18.8531 16.1352L18.8051 16.1982ZM20.3441 13.8672C19.9961 14.5402 19.6081 15.1612 19.1891 15.7192L19.1221 15.8042L17.7361 14.4472L20.4441 13.6742L20.3441 13.8672ZM17.4901 14.0832L16.9741 12.0422L19.0741 10.4802L20.4931 13.2612L17.4901 14.0832ZM21.4271 11.0492C21.2891 11.6072 21.0981 12.1902 20.8741 12.7332L20.7991 12.9232L19.5331 10.4802L21.4491 10.9602L21.4271 11.0492ZM21.9351 7.82919C21.9091 8.11519 21.8861 8.45022 21.8601 8.83322V8.83722C21.7891 9.38022 21.7181 9.94121 21.5951 10.4732L21.5761 10.5662L19.5551 10.0492L21.9531 7.56921L21.9351 7.82919Z" stroke="black" stroke-opacity="0.2" stroke-width="0.25"/>
<path d="M22.2971 7.0672C21.9421 4.2902 19.5551 2.2002 16.7471 2.2002C14.6851 2.2002 12.1191 3.8582 12.0101 3.9292L11.9621 3.96222L11.9091 3.9292C11.8011 3.8582 9.23909 2.2002 7.17709 2.2002C4.10309 2.2002 1.6001 4.69919 1.6001 7.77319C1.6001 8.08219 1.6261 8.46922 1.6711 8.88922C1.7381 9.49922 1.85009 10.1602 2.00409 10.8632C2.17209 11.6222 2.4481 12.4322 2.8221 13.2802C3.1651 14.0492 3.58009 14.8012 4.05809 15.5002C4.54009 16.2022 5.09309 16.8792 5.71309 17.5112C6.32909 18.1432 7.02409 18.7492 7.77409 19.3112C8.52909 19.8722 9.3621 20.4042 10.2511 20.8942C10.5721 21.0692 10.9051 21.2442 11.2441 21.4112C11.3041 21.4412 11.3681 21.4742 11.4271 21.5122C11.5581 21.5822 11.6811 21.6492 11.8121 21.6862C11.9881 21.7382 12.1151 21.6752 12.2871 21.5902L12.3651 21.5492C12.8281 21.3292 13.2841 21.0912 13.7171 20.8542C14.5801 20.3742 15.3941 19.8532 16.1261 19.3032C16.8621 18.7572 17.5421 18.1652 18.1511 17.5482C18.7561 16.9312 19.3011 16.2732 19.7791 15.5852C20.2541 14.9012 20.6681 14.1722 21.0121 13.4212C21.3561 12.6702 21.6401 11.8742 21.8531 11.0562C22.0321 10.3612 22.1661 9.62919 22.2491 8.88519C22.2971 8.46919 22.3191 8.08219 22.3191 7.77319C22.3461 7.53519 22.3191 7.2972 22.2971 7.0672ZM19.6191 3.48621C20.7281 4.22621 21.4981 5.34921 21.7891 6.65421L21.8261 6.81821L17.6991 5.29721L19.5551 3.4462L19.6191 3.48621ZM17.4711 8.8262L18.8271 10.1492L17.0191 11.5032L17.4711 8.8262ZM17.1241 8.08621L14.4831 7.1972L17.1241 5.72522V8.08621ZM17.5611 8.29022V5.68021L21.7441 7.20822L19.1371 9.86722L17.5611 8.29022ZM15.4581 2.78021C15.9771 2.66521 16.3881 2.60922 16.7471 2.60922C17.5271 2.60922 18.3121 2.7992 19.0811 3.1702L19.2011 3.2262L17.3401 5.08521L15.3011 2.8132L15.4581 2.78021ZM17.0121 5.3342L13.9561 7.0372L12.3091 6.48019L14.9691 3.0592L17.0121 5.3342ZM12.1781 4.30121L12.3351 4.20822C12.6641 4.01422 13.2761 3.65419 14.0011 3.31219L14.3521 3.14819L12.1781 5.96622V4.30121ZM12.1781 6.85519L13.4781 7.29721L12.1781 8.02621V6.85519ZM11.9621 8.54321C12.0891 8.54321 12.2041 8.47222 12.3311 8.40222L13.8291 7.5762C13.9381 7.5062 13.9901 7.47621 14.0461 7.49521L17.1131 8.5242L16.5451 11.8782L16.5301 11.8972L14.1921 14.8082L11.9621 16.4742L9.70909 14.7892L7.37509 11.8782L6.8071 8.5242L9.91109 7.48019L11.4281 8.30521C11.4651 8.32421 11.5061 8.34619 11.5431 8.36819C11.6481 8.43119 11.7561 8.4952 11.8651 8.5282C11.8981 8.5392 11.9281 8.54321 11.9621 8.54321ZM16.6721 12.4212L17.0981 14.1832L14.8831 14.6372L16.6721 12.4212ZM14.0381 15.4442L13.6051 17.6152L12.3021 16.7452L14.0381 15.4442ZM11.5961 16.7232L10.2921 17.5892L9.85909 15.4212L11.5961 16.7232ZM9.0591 14.6372L6.8221 14.1832L7.27409 12.3992L9.0591 14.6372ZM6.44809 8.8002L6.90009 11.4802L5.09608 10.1272L6.44809 8.8002ZM4.7831 9.86722L2.2011 7.20822L6.35909 5.68021V8.29022L4.7831 9.86722ZM6.7961 8.0712V5.72522L9.44009 7.1972L6.7961 8.0712ZM10.4601 7.30121L11.7671 6.85519V8.00021L10.4601 7.30121ZM9.89209 3.31219C10.6321 3.62819 11.2591 4.0002 11.5961 4.2002L11.7671 4.30121V5.9892L9.55609 3.16721L9.89209 3.31219ZM11.6111 6.48019L9.96709 7.0372L6.9081 5.3342L8.9511 3.0592L11.6111 6.48019ZM4.81209 3.1962C5.54809 2.8022 6.32509 2.60922 7.17709 2.60922C7.56509 2.60922 7.9651 2.67221 8.4471 2.80621L8.5891 2.8472L6.5571 5.11121L4.70009 3.2562L4.81209 3.1962ZM2.10809 6.65121C2.42209 5.34921 3.19109 4.22621 4.27809 3.48621L4.34209 3.4462L6.19809 5.29721L2.07109 6.8222L2.10809 6.65121ZM2.32509 10.4692C2.23109 9.95621 2.13409 9.40222 2.06009 8.83722C2.01509 8.46922 1.98909 8.0972 1.98909 7.8222V7.59122L4.36409 10.0492L2.34309 10.5662L2.32509 10.4692ZM3.0461 12.7112C2.8071 12.1272 2.62709 11.5812 2.49309 11.0492L2.47009 10.9602L4.39009 10.4802L3.12408 12.8972L3.0461 12.7112ZM4.84608 10.4542L6.9451 12.0162L6.43008 14.0832L3.4041 13.2352L4.84608 10.4542ZM4.70808 15.7192C4.24808 15.0722 3.8791 14.4732 3.5761 13.8902L3.4791 13.7002L6.16109 14.4472L4.77109 15.8082L4.70808 15.7192ZM6.46709 17.6712C5.98909 17.2172 5.56309 16.7492 5.11909 16.2022L5.06609 16.1352L6.4191 14.8122L6.6431 17.8382L6.46709 17.6712ZM6.8111 14.5922L9.4101 15.1092L9.91809 17.7532L7.06509 18.0872L6.8111 14.5922ZM9.35109 19.8792C8.59209 19.4042 8.03609 19.0092 7.54709 18.6082L7.37909 18.4672L9.90709 18.1882L9.45909 19.9502L9.35109 19.8792ZM11.2481 20.9612C10.8751 20.7752 10.5161 20.5752 10.1721 20.3812L9.81808 20.1842L10.2321 18.5302L11.4981 21.0842L11.2481 20.9612ZM11.9621 21.0622L10.4301 18.0022L11.9621 16.9872L13.4931 18.0022L11.9621 21.0622ZM14.0871 20.1952C13.5421 20.5112 13.0821 20.7532 12.6451 20.9612L12.3991 21.0802L13.7101 18.5152L14.1511 20.1582L14.0871 20.1952ZM16.3511 18.6302C15.8241 19.0612 15.2411 19.4742 14.6171 19.8572L14.5091 19.9242L14.0351 18.1882L16.5191 18.4932L16.3511 18.6302ZM16.8291 18.1132L14.0011 17.7532L14.5351 15.1092L17.1351 14.5922L16.8291 18.1132ZM18.8051 16.1982C18.4311 16.6822 17.9981 17.1542 17.4301 17.6932L17.2541 17.8642L17.5051 14.8152L18.8531 16.1352L18.8051 16.1982ZM20.3441 13.8672C19.9961 14.5402 19.6081 15.1612 19.1891 15.7192L19.1221 15.8042L17.7361 14.4472L20.4441 13.6742L20.3441 13.8672ZM17.4901 14.0832L16.9741 12.0422L19.0741 10.4802L20.4931 13.2612L17.4901 14.0832ZM21.4271 11.0492C21.2891 11.6072 21.0981 12.1902 20.8741 12.7332L20.7991 12.9232L19.5331 10.4802L21.4491 10.9602L21.4271 11.0492ZM21.9351 7.82919C21.9091 8.11519 21.8861 8.45022 21.8601 8.83322V8.83722C21.7891 9.38022 21.7181 9.94121 21.5951 10.4732L21.5761 10.5662L19.5551 10.0492L21.9531 7.56921L21.9351 7.82919Z" stroke="black" stroke-opacity="0.2" stroke-width="0.25"/>
<path d="M22.2971 7.0672C21.9421 4.2902 19.5551 2.2002 16.7471 2.2002C14.6851 2.2002 12.1191 3.8582 12.0101 3.9292L11.9621 3.96222L11.9091 3.9292C11.8011 3.8582 9.23909 2.2002 7.17709 2.2002C4.10309 2.2002 1.6001 4.69919 1.6001 7.77319C1.6001 8.08219 1.6261 8.46922 1.6711 8.88922C1.7381 9.49922 1.85009 10.1602 2.00409 10.8632C2.17209 11.6222 2.4481 12.4322 2.8221 13.2802C3.1651 14.0492 3.58009 14.8012 4.05809 15.5002C4.54009 16.2022 5.09309 16.8792 5.71309 17.5112C6.32909 18.1432 7.02409 18.7492 7.77409 19.3112C8.52909 19.8722 9.3621 20.4042 10.2511 20.8942C10.5721 21.0692 10.9051 21.2442 11.2441 21.4112C11.3041 21.4412 11.3681 21.4742 11.4271 21.5122C11.5581 21.5822 11.6811 21.6492 11.8121 21.6862C11.9881 21.7382 12.1151 21.6752 12.2871 21.5902L12.3651 21.5492C12.8281 21.3292 13.2841 21.0912 13.7171 20.8542C14.5801 20.3742 15.3941 19.8532 16.1261 19.3032C16.8621 18.7572 17.5421 18.1652 18.1511 17.5482C18.7561 16.9312 19.3011 16.2732 19.7791 15.5852C20.2541 14.9012 20.6681 14.1722 21.0121 13.4212C21.3561 12.6702 21.6401 11.8742 21.8531 11.0562C22.0321 10.3612 22.1661 9.62919 22.2491 8.88519C22.2971 8.46919 22.3191 8.08219 22.3191 7.77319C22.3461 7.53519 22.3191 7.2972 22.2971 7.0672ZM19.6191 3.48621C20.7281 4.22621 21.4981 5.34921 21.7891 6.65421L21.8261 6.81821L17.6991 5.29721L19.5551 3.4462L19.6191 3.48621ZM17.4711 8.8262L18.8271 10.1492L17.0191 11.5032L17.4711 8.8262ZM17.1241 8.08621L14.4831 7.1972L17.1241 5.72522V8.08621ZM17.5611 8.29022V5.68021L21.7441 7.20822L19.1371 9.86722L17.5611 8.29022ZM15.4581 2.78021C15.9771 2.66521 16.3881 2.60922 16.7471 2.60922C17.5271 2.60922 18.3121 2.7992 19.0811 3.1702L19.2011 3.2262L17.3401 5.08521L15.3011 2.8132L15.4581 2.78021ZM17.0121 5.3342L13.9561 7.0372L12.3091 6.48019L14.9691 3.0592L17.0121 5.3342ZM12.1781 4.30121L12.3351 4.20822C12.6641 4.01422 13.2761 3.65419 14.0011 3.31219L14.3521 3.14819L12.1781 5.96622V4.30121ZM12.1781 6.85519L13.4781 7.29721L12.1781 8.02621V6.85519ZM11.9621 8.54321C12.0891 8.54321 12.2041 8.47222 12.3311 8.40222L13.8291 7.5762C13.9381 7.5062 13.9901 7.47621 14.0461 7.49521L17.1131 8.5242L16.5451 11.8782L16.5301 11.8972L14.1921 14.8082L11.9621 16.4742L9.70909 14.7892L7.37509 11.8782L6.8071 8.5242L9.91109 7.48019L11.4281 8.30521C11.4651 8.32421 11.5061 8.34619 11.5431 8.36819C11.6481 8.43119 11.7561 8.4952 11.8651 8.5282C11.8981 8.5392 11.9281 8.54321 11.9621 8.54321ZM16.6721 12.4212L17.0981 14.1832L14.8831 14.6372L16.6721 12.4212ZM14.0381 15.4442L13.6051 17.6152L12.3021 16.7452L14.0381 15.4442ZM11.5961 16.7232L10.2921 17.5892L9.85909 15.4212L11.5961 16.7232ZM9.0591 14.6372L6.8221 14.1832L7.27409 12.3992L9.0591 14.6372ZM6.44809 8.8002L6.90009 11.4802L5.09608 10.1272L6.44809 8.8002ZM4.7831 9.86722L2.2011 7.20822L6.35909 5.68021V8.29022L4.7831 9.86722ZM6.7961 8.0712V5.72522L9.44009 7.1972L6.7961 8.0712ZM10.4601 7.30121L11.7671 6.85519V8.00021L10.4601 7.30121ZM9.89209 3.31219C10.6321 3.62819 11.2591 4.0002 11.5961 4.2002L11.7671 4.30121V5.9892L9.55609 3.16721L9.89209 3.31219ZM11.6111 6.48019L9.96709 7.0372L6.9081 5.3342L8.9511 3.0592L11.6111 6.48019ZM4.81209 3.1962C5.54809 2.8022 6.32509 2.60922 7.17709 2.60922C7.56509 2.60922 7.9651 2.67221 8.4471 2.80621L8.5891 2.8472L6.5571 5.11121L4.70009 3.2562L4.81209 3.1962ZM2.10809 6.65121C2.42209 5.34921 3.19109 4.22621 4.27809 3.48621L4.34209 3.4462L6.19809 5.29721L2.07109 6.8222L2.10809 6.65121ZM2.32509 10.4692C2.23109 9.95621 2.13409 9.40222 2.06009 8.83722C2.01509 8.46922 1.98909 8.0972 1.98909 7.8222V7.59122L4.36409 10.0492L2.34309 10.5662L2.32509 10.4692ZM3.0461 12.7112C2.8071 12.1272 2.62709 11.5812 2.49309 11.0492L2.47009 10.9602L4.39009 10.4802L3.12408 12.8972L3.0461 12.7112ZM4.84608 10.4542L6.9451 12.0162L6.43008 14.0832L3.4041 13.2352L4.84608 10.4542ZM4.70808 15.7192C4.24808 15.0722 3.8791 14.4732 3.5761 13.8902L3.4791 13.7002L6.16109 14.4472L4.77109 15.8082L4.70808 15.7192ZM6.46709 17.6712C5.98909 17.2172 5.56309 16.7492 5.11909 16.2022L5.06609 16.1352L6.4191 14.8122L6.6431 17.8382L6.46709 17.6712ZM6.8111 14.5922L9.4101 15.1092L9.91809 17.7532L7.06509 18.0872L6.8111 14.5922ZM9.35109 19.8792C8.59209 19.4042 8.03609 19.0092 7.54709 18.6082L7.37909 18.4672L9.90709 18.1882L9.45909 19.9502L9.35109 19.8792ZM11.2481 20.9612C10.8751 20.7752 10.5161 20.5752 10.1721 20.3812L9.81808 20.1842L10.2321 18.5302L11.4981 21.0842L11.2481 20.9612ZM11.9621 21.0622L10.4301 18.0022L11.9621 16.9872L13.4931 18.0022L11.9621 21.0622ZM14.0871 20.1952C13.5421 20.5112 13.0821 20.7532 12.6451 20.9612L12.3991 21.0802L13.7101 18.5152L14.1511 20.1582L14.0871 20.1952ZM16.3511 18.6302C15.8241 19.0612 15.2411 19.4742 14.6171 19.8572L14.5091 19.9242L14.0351 18.1882L16.5191 18.4932L16.3511 18.6302ZM16.8291 18.1132L14.0011 17.7532L14.5351 15.1092L17.1351 14.5922L16.8291 18.1132ZM18.8051 16.1982C18.4311 16.6822 17.9981 17.1542 17.4301 17.6932L17.2541 17.8642L17.5051 14.8152L18.8531 16.1352L18.8051 16.1982ZM20.3441 13.8672C19.9961 14.5402 19.6081 15.1612 19.1891 15.7192L19.1221 15.8042L17.7361 14.4472L20.4441 13.6742L20.3441 13.8672ZM17.4901 14.0832L16.9741 12.0422L19.0741 10.4802L20.4931 13.2612L17.4901 14.0832ZM21.4271 11.0492C21.2891 11.6072 21.0981 12.1902 20.8741 12.7332L20.7991 12.9232L19.5331 10.4802L21.4491 10.9602L21.4271 11.0492ZM21.9351 7.82919C21.9091 8.11519 21.8861 8.45022 21.8601 8.83322V8.83722C21.7891 9.38022 21.7181 9.94121 21.5951 10.4732L21.5761 10.5662L19.5551 10.0492L21.9531 7.56921L21.9351 7.82919Z" stroke="black" stroke-opacity="0.2" stroke-width="0.25"/>
<path d="M22.2971 7.0672C21.9421 4.2902 19.5551 2.2002 16.7471 2.2002C14.6851 2.2002 12.1191 3.8582 12.0101 3.9292L11.9621 3.96222L11.9091 3.9292C11.8011 3.8582 9.23909 2.2002 7.17709 2.2002C4.10309 2.2002 1.6001 4.69919 1.6001 7.77319C1.6001 8.08219 1.6261 8.46922 1.6711 8.88922C1.7381 9.49922 1.85009 10.1602 2.00409 10.8632C2.17209 11.6222 2.4481 12.4322 2.8221 13.2802C3.1651 14.0492 3.58009 14.8012 4.05809 15.5002C4.54009 16.2022 5.09309 16.8792 5.71309 17.5112C6.32909 18.1432 7.02409 18.7492 7.77409 19.3112C8.52909 19.8722 9.3621 20.4042 10.2511 20.8942C10.5721 21.0692 10.9051 21.2442 11.2441 21.4112C11.3041 21.4412 11.3681 21.4742 11.4271 21.5122C11.5581 21.5822 11.6811 21.6492 11.8121 21.6862C11.9881 21.7382 12.1151 21.6752 12.2871 21.5902L12.3651 21.5492C12.8281 21.3292 13.2841 21.0912 13.7171 20.8542C14.5801 20.3742 15.3941 19.8532 16.1261 19.3032C16.8621 18.7572 17.5421 18.1652 18.1511 17.5482C18.7561 16.9312 19.3011 16.2732 19.7791 15.5852C20.2541 14.9012 20.6681 14.1722 21.0121 13.4212C21.3561 12.6702 21.6401 11.8742 21.8531 11.0562C22.0321 10.3612 22.1661 9.62919 22.2491 8.88519C22.2971 8.46919 22.3191 8.08219 22.3191 7.77319C22.3461 7.53519 22.3191 7.2972 22.2971 7.0672ZM19.6191 3.48621C20.7281 4.22621 21.4981 5.34921 21.7891 6.65421L21.8261 6.81821L17.6991 5.29721L19.5551 3.4462L19.6191 3.48621ZM17.4711 8.8262L18.8271 10.1492L17.0191 11.5032L17.4711 8.8262ZM17.1241 8.08621L14.4831 7.1972L17.1241 5.72522V8.08621ZM17.5611 8.29022V5.68021L21.7441 7.20822L19.1371 9.86722L17.5611 8.29022ZM15.4581 2.78021C15.9771 2.66521 16.3881 2.60922 16.7471 2.60922C17.5271 2.60922 18.3121 2.7992 19.0811 3.1702L19.2011 3.2262L17.3401 5.08521L15.3011 2.8132L15.4581 2.78021ZM17.0121 5.3342L13.9561 7.0372L12.3091 6.48019L14.9691 3.0592L17.0121 5.3342ZM12.1781 4.30121L12.3351 4.20822C12.6641 4.01422 13.2761 3.65419 14.0011 3.31219L14.3521 3.14819L12.1781 5.96622V4.30121ZM12.1781 6.85519L13.4781 7.29721L12.1781 8.02621V6.85519ZM11.9621 8.54321C12.0891 8.54321 12.2041 8.47222 12.3311 8.40222L13.8291 7.5762C13.9381 7.5062 13.9901 7.47621 14.0461 7.49521L17.1131 8.5242L16.5451 11.8782L16.5301 11.8972L14.1921 14.8082L11.9621 16.4742L9.70909 14.7892L7.37509 11.8782L6.8071 8.5242L9.91109 7.48019L11.4281 8.30521C11.4651 8.32421 11.5061 8.34619 11.5431 8.36819C11.6481 8.43119 11.7561 8.4952 11.8651 8.5282C11.8981 8.5392 11.9281 8.54321 11.9621 8.54321ZM16.6721 12.4212L17.0981 14.1832L14.8831 14.6372L16.6721 12.4212ZM14.0381 15.4442L13.6051 17.6152L12.3021 16.7452L14.0381 15.4442ZM11.5961 16.7232L10.2921 17.5892L9.85909 15.4212L11.5961 16.7232ZM9.0591 14.6372L6.8221 14.1832L7.27409 12.3992L9.0591 14.6372ZM6.44809 8.8002L6.90009 11.4802L5.09608 10.1272L6.44809 8.8002ZM4.7831 9.86722L2.2011 7.20822L6.35909 5.68021V8.29022L4.7831 9.86722ZM6.7961 8.0712V5.72522L9.44009 7.1972L6.7961 8.0712ZM10.4601 7.30121L11.7671 6.85519V8.00021L10.4601 7.30121ZM9.89209 3.31219C10.6321 3.62819 11.2591 4.0002 11.5961 4.2002L11.7671 4.30121V5.9892L9.55609 3.16721L9.89209 3.31219ZM11.6111 6.48019L9.96709 7.0372L6.9081 5.3342L8.9511 3.0592L11.6111 6.48019ZM4.81209 3.1962C5.54809 2.8022 6.32509 2.60922 7.17709 2.60922C7.56509 2.60922 7.9651 2.67221 8.4471 2.80621L8.5891 2.8472L6.5571 5.11121L4.70009 3.2562L4.81209 3.1962ZM2.10809 6.65121C2.42209 5.34921 3.19109 4.22621 4.27809 3.48621L4.34209 3.4462L6.19809 5.29721L2.07109 6.8222L2.10809 6.65121ZM2.32509 10.4692C2.23109 9.95621 2.13409 9.40222 2.06009 8.83722C2.01509 8.46922 1.98909 8.0972 1.98909 7.8222V7.59122L4.36409 10.0492L2.34309 10.5662L2.32509 10.4692ZM3.0461 12.7112C2.8071 12.1272 2.62709 11.5812 2.49309 11.0492L2.47009 10.9602L4.39009 10.4802L3.12408 12.8972L3.0461 12.7112ZM4.84608 10.4542L6.9451 12.0162L6.43008 14.0832L3.4041 13.2352L4.84608 10.4542ZM4.70808 15.7192C4.24808 15.0722 3.8791 14.4732 3.5761 13.8902L3.4791 13.7002L6.16109 14.4472L4.77109 15.8082L4.70808 15.7192ZM6.46709 17.6712C5.98909 17.2172 5.56309 16.7492 5.11909 16.2022L5.06609 16.1352L6.4191 14.8122L6.6431 17.8382L6.46709 17.6712ZM6.8111 14.5922L9.4101 15.1092L9.91809 17.7532L7.06509 18.0872L6.8111 14.5922ZM9.35109 19.8792C8.59209 19.4042 8.03609 19.0092 7.54709 18.6082L7.37909 18.4672L9.90709 18.1882L9.45909 19.9502L9.35109 19.8792ZM11.2481 20.9612C10.8751 20.7752 10.5161 20.5752 10.1721 20.3812L9.81808 20.1842L10.2321 18.5302L11.4981 21.0842L11.2481 20.9612ZM11.9621 21.0622L10.4301 18.0022L11.9621 16.9872L13.4931 18.0022L11.9621 21.0622ZM14.0871 20.1952C13.5421 20.5112 13.0821 20.7532 12.6451 20.9612L12.3991 21.0802L13.7101 18.5152L14.1511 20.1582L14.0871 20.1952ZM16.3511 18.6302C15.8241 19.0612 15.2411 19.4742 14.6171 19.8572L14.5091 19.9242L14.0351 18.1882L16.5191 18.4932L16.3511 18.6302ZM16.8291 18.1132L14.0011 17.7532L14.5351 15.1092L17.1351 14.5922L16.8291 18.1132ZM18.8051 16.1982C18.4311 16.6822 17.9981 17.1542 17.4301 17.6932L17.2541 17.8642L17.5051 14.8152L18.8531 16.1352L18.8051 16.1982ZM20.3441 13.8672C19.9961 14.5402 19.6081 15.1612 19.1891 15.7192L19.1221 15.8042L17.7361 14.4472L20.4441 13.6742L20.3441 13.8672ZM17.4901 14.0832L16.9741 12.0422L19.0741 10.4802L20.4931 13.2612L17.4901 14.0832ZM21.4271 11.0492C21.2891 11.6072 21.0981 12.1902 20.8741 12.7332L20.7991 12.9232L19.5331 10.4802L21.4491 10.9602L21.4271 11.0492ZM21.9351 7.82919C21.9091 8.11519 21.8861 8.45022 21.8601 8.83322V8.83722C21.7891 9.38022 21.7181 9.94121 21.5951 10.4732L21.5761 10.5662L19.5551 10.0492L21.9531 7.56921L21.9351 7.82919Z" stroke="black" stroke-opacity="0.2" stroke-width="0.25"/>
</svg>
