<svg width="24" height="24" viewBox="0 0 24 24" fill="none" xmlns="http://www.w3.org/2000/svg">
<path d="M18.2189 8.95259C17.9211 8.04802 17.5015 7.1175 16.9692 6.1915C16.5056 5.38279 16.095 4.77371 15.68 4.26954C15.3957 3.88719 15.0686 3.50029 14.6536 3.0559C14.4742 2.86077 14.287 2.66905 14.1246 2.50889C13.9148 2.29571 13.6971 2.08255 13.4828 1.87389C13.2911 1.69117 13.0982 1.50843 12.9065 1.32571L12.7486 1.18248C12.7316 1.16443 12.7136 1.14298 12.6922 1.12607C12.6392 1.06854 12.5873 1.02117 12.5309 1.00425C12.4609 0.986204 12.4124 1.02568 12.3166 1.12156L12.2861 1.14751C12.1767 1.25128 12.0628 1.35618 11.9534 1.45995L11.8925 1.51296C11.6082 1.76899 11.3252 2.04308 11.0409 2.32618C10.918 2.44799 10.8007 2.57318 10.6822 2.69951C10.5559 2.83937 10.4296 2.97811 10.2976 3.10894L10.2582 3.15631C9.95702 3.50032 9.64231 3.86125 9.35019 4.26053L9.18893 4.48271C9.04004 4.68235 8.88212 4.89551 8.72535 5.12221L8.71182 5.14366C8.70392 5.15719 8.69036 5.18315 8.66442 5.20458C8.62043 5.24857 8.58098 5.31736 8.54601 5.38278C8.52458 5.41323 8.50652 5.44819 8.48509 5.47413C8.41967 5.57903 8.35427 5.67827 8.28886 5.78316C8.15351 5.99634 8.02605 6.21741 7.89973 6.43509C7.63693 6.9043 7.4012 7.38368 7.20044 7.84838C6.76845 8.87025 6.49322 9.82672 6.36126 10.7663C6.30486 11.1881 6.27441 11.6099 6.27441 12.0227C6.27441 13.3063 6.55412 14.6327 7.10454 15.9636L7.11356 16.002C7.11356 16.0065 7.11357 16.011 7.13049 16.0369L7.15304 16.0719C7.53653 17.0069 8.04861 17.9465 8.67234 18.8679L8.71182 18.9074L8.82572 19.0642C9.00054 19.3157 9.16634 19.5548 9.34568 19.7725C9.93106 20.5294 10.5728 21.2557 11.2631 21.9381C11.6173 22.2855 11.9805 22.6159 12.338 22.9205C12.4079 22.9814 12.4688 23.004 12.5342 22.9994C12.6222 22.9904 12.6967 22.9205 12.7711 22.8517L12.8275 22.7987C12.9234 22.7164 13.0193 22.634 13.1118 22.5472C13.3915 22.29 13.6746 22.0159 13.9543 21.734C14.1776 21.5073 14.4438 21.2331 14.6976 20.9421C15.0032 20.5902 16.0996 19.2165 16.3139 18.9119C16.6725 18.3897 17.021 17.7987 17.3538 17.1547C17.506 16.8591 17.6459 16.5546 17.7767 16.2501C18.2234 15.1933 18.5065 14.2232 18.6385 13.2848C18.6949 12.8585 18.7253 12.4321 18.7253 12.0227C18.7253 11.0234 18.555 9.99252 18.2189 8.95259ZM16.6026 6.57835C16.9162 7.11749 17.1305 7.54835 17.3053 7.9747L17.3357 8.04802L16.4797 8.73602L16.3793 6.20052L16.6026 6.57835ZM14.6231 3.7913L14.7675 3.96048C15.0032 4.24809 15.248 4.53909 15.4927 4.87408L15.6146 5.0478H14.3569L14.6231 3.7913ZM15.8458 5.54408L15.9732 8.90069L14.5577 8.50482L14.2994 5.54408H15.8458ZM15.1555 11.1836L14.6795 9.05297L15.9123 9.39697L15.1555 11.1836ZM15.16 12.854L15.8852 14.6451L14.6536 14.9891L15.16 12.854ZM13.4433 2.50438C13.5573 2.62619 13.6791 2.75589 13.802 2.88672C13.9238 3.01305 14.0468 3.13939 14.1641 3.2691L14.2036 3.30855L13.9723 4.41277L13.0418 2.05997L13.4433 2.50438ZM14.0197 8.17885L12.8275 7.27427L13.8325 5.96139L14.0197 8.17885ZM12.4779 1.99116L13.7535 5.26547L12.4734 6.90432L11.1977 5.24403L12.4779 1.99116ZM12.1237 7.27427L10.9315 8.17885L11.1199 5.96139L12.1237 7.27427ZM10.7612 3.3176C11.0014 3.02999 11.2722 2.76494 11.5079 2.52582L11.8711 2.16939L10.9879 4.47369L10.7262 3.36046L10.7612 3.3176ZM10.8435 8.80934L12.4779 7.59232L14.1077 8.80934L14.842 11.9968L14.1077 15.1842L12.4779 16.4024L10.8435 15.1842L10.1104 11.9968L10.8435 8.80934ZM14.0197 15.8632L13.8325 18.0807L12.8275 16.7723L14.0197 15.8632ZM12.0978 16.7678L11.1233 18.0852L10.901 15.8632L12.0978 16.7678ZM10.2717 14.9891L9.04002 14.6451L9.76978 12.854L10.2717 14.9891ZM9.06597 9.39697L10.2976 9.05297L9.79122 11.1881L9.06597 9.39697ZM9.59495 4.70039C9.7867 4.45225 9.96602 4.22216 10.1623 3.98643L10.2976 3.82176L10.5999 5.0478H9.32764L9.59495 4.70039ZM9.08401 5.54408H10.6518L10.3947 8.50482L8.97913 8.90069L9.08401 5.54408ZM7.60195 8.04461C7.8343 7.50096 8.12191 6.96521 8.34975 6.55691L8.57193 6.15653L8.47607 8.76986L7.56698 8.12243L7.60195 8.04461ZM6.82484 10.888C6.89026 10.244 7.05606 9.54471 7.33127 8.7439L7.37977 8.60969L8.36217 9.27966L6.78536 11.258L6.82484 10.888ZM7.35832 15.3974C7.08312 14.6451 6.89476 13.8883 6.79888 13.154L6.75038 12.7716L8.35876 14.7804L7.4102 15.5418L7.35832 15.3974ZM8.34975 17.4637C8.03506 16.9246 7.82077 16.4937 7.64594 16.0674L7.61548 15.9941L8.47156 15.3061L8.57193 17.8416L8.34975 17.4637ZM8.64188 14.3101L6.79437 12.0227L8.64188 9.7094L9.5679 12.0227L8.64188 14.3101ZM10.3281 20.2508L10.1849 20.0816C9.948 19.7985 9.70436 19.5029 9.45961 19.168L9.33666 18.9943H10.5954L10.3281 20.2508ZM9.10545 18.498L8.97913 15.1459L10.3947 15.5373L10.6518 18.498H9.10545ZM11.5079 21.5377C11.3985 21.4159 11.2721 21.2907 11.1503 21.1553C11.0274 21.0335 10.9056 20.9027 10.7872 20.7775L10.7477 20.7335L10.98 19.6338L11.9105 21.9855L11.5079 21.5377ZM12.4734 22.0509L11.1977 18.7766L12.4779 17.1378L13.7535 18.798L12.4734 22.0509ZM14.19 20.7245C13.9498 21.0121 13.6836 21.2771 13.4478 21.5117L13.0847 21.8727L13.9633 19.5684L14.225 20.6816L14.19 20.7245ZM15.3529 19.3462C15.1645 19.5898 14.9852 19.8244 14.7935 20.0556L14.6536 20.2203L14.3524 18.9943H15.6236L15.3529 19.3462ZM15.8683 18.498H14.3265L14.5577 15.5373L15.9732 15.1459L15.8683 18.498ZM16.3093 14.3327L15.3833 12.0227L16.3093 9.73536L18.1568 12.0193L16.3093 14.3327ZM17.3493 15.9974C17.118 16.5411 16.8293 17.0802 16.6026 17.4851L16.3793 17.8889L16.4752 15.2711L17.3842 15.9196L17.3493 15.9974ZM18.1264 13.154C18.061 13.7969 17.8952 14.4973 17.62 15.3026L17.5715 15.4369L16.5891 14.7624L18.1659 12.784L18.1264 13.154ZM16.5936 9.26162L17.541 8.50482L17.594 8.64467C17.8692 9.39698 18.0565 10.1538 18.1535 10.888L18.2008 11.2704L16.5936 9.26162Z" fill="#333335"/>
<path d="M18.2189 8.95259C17.9211 8.04802 17.5015 7.1175 16.9692 6.1915C16.5056 5.38279 16.095 4.77371 15.68 4.26954C15.3957 3.88719 15.0686 3.50029 14.6536 3.0559C14.4742 2.86077 14.287 2.66905 14.1246 2.50889C13.9148 2.29571 13.6971 2.08255 13.4828 1.87389C13.2911 1.69117 13.0982 1.50843 12.9065 1.32571L12.7486 1.18248C12.7316 1.16443 12.7136 1.14298 12.6922 1.12607C12.6392 1.06854 12.5873 1.02117 12.5309 1.00425C12.4609 0.986204 12.4124 1.02568 12.3166 1.12156L12.2861 1.14751C12.1767 1.25128 12.0628 1.35618 11.9534 1.45995L11.8925 1.51296C11.6082 1.76899 11.3252 2.04308 11.0409 2.32618C10.918 2.44799 10.8007 2.57318 10.6822 2.69951C10.5559 2.83937 10.4296 2.97811 10.2976 3.10894L10.2582 3.15631C9.95702 3.50032 9.64231 3.86125 9.35019 4.26053L9.18893 4.48271C9.04004 4.68235 8.88212 4.89551 8.72535 5.12221L8.71182 5.14366C8.70392 5.15719 8.69036 5.18315 8.66442 5.20458C8.62043 5.24857 8.58098 5.31736 8.54601 5.38278C8.52458 5.41323 8.50652 5.44819 8.48509 5.47413C8.41967 5.57903 8.35427 5.67827 8.28886 5.78316C8.15351 5.99634 8.02605 6.21741 7.89973 6.43509C7.63693 6.9043 7.4012 7.38368 7.20044 7.84838C6.76845 8.87025 6.49322 9.82672 6.36126 10.7663C6.30486 11.1881 6.27441 11.6099 6.27441 12.0227C6.27441 13.3063 6.55412 14.6327 7.10454 15.9636L7.11356 16.002C7.11356 16.0065 7.11357 16.011 7.13049 16.0369L7.15304 16.0719C7.53653 17.0069 8.04861 17.9465 8.67234 18.8679L8.71182 18.9074L8.82572 19.0642C9.00054 19.3157 9.16634 19.5548 9.34568 19.7725C9.93106 20.5294 10.5728 21.2557 11.2631 21.9381C11.6173 22.2855 11.9805 22.6159 12.338 22.9205C12.4079 22.9814 12.4688 23.004 12.5342 22.9994C12.6222 22.9904 12.6967 22.9205 12.7711 22.8517L12.8275 22.7987C12.9234 22.7164 13.0193 22.634 13.1118 22.5472C13.3915 22.29 13.6746 22.0159 13.9543 21.734C14.1776 21.5073 14.4438 21.2331 14.6976 20.9421C15.0032 20.5902 16.0996 19.2165 16.3139 18.9119C16.6725 18.3897 17.021 17.7987 17.3538 17.1547C17.506 16.8591 17.6459 16.5546 17.7767 16.2501C18.2234 15.1933 18.5065 14.2232 18.6385 13.2848C18.6949 12.8585 18.7253 12.4321 18.7253 12.0227C18.7253 11.0234 18.555 9.99252 18.2189 8.95259ZM16.6026 6.57835C16.9162 7.11749 17.1305 7.54835 17.3053 7.9747L17.3357 8.04802L16.4797 8.73602L16.3793 6.20052L16.6026 6.57835ZM14.6231 3.7913L14.7675 3.96048C15.0032 4.24809 15.248 4.53909 15.4927 4.87408L15.6146 5.0478H14.3569L14.6231 3.7913ZM15.8458 5.54408L15.9732 8.90069L14.5577 8.50482L14.2994 5.54408H15.8458ZM15.1555 11.1836L14.6795 9.05297L15.9123 9.39697L15.1555 11.1836ZM15.16 12.854L15.8852 14.6451L14.6536 14.9891L15.16 12.854ZM13.4433 2.50438C13.5573 2.62619 13.6791 2.75589 13.802 2.88672C13.9238 3.01305 14.0468 3.13939 14.1641 3.2691L14.2036 3.30855L13.9723 4.41277L13.0418 2.05997L13.4433 2.50438ZM14.0197 8.17885L12.8275 7.27427L13.8325 5.96139L14.0197 8.17885ZM12.4779 1.99116L13.7535 5.26547L12.4734 6.90432L11.1977 5.24403L12.4779 1.99116ZM12.1237 7.27427L10.9315 8.17885L11.1199 5.96139L12.1237 7.27427ZM10.7612 3.3176C11.0014 3.02999 11.2722 2.76494 11.5079 2.52582L11.8711 2.16939L10.9879 4.47369L10.7262 3.36046L10.7612 3.3176ZM10.8435 8.80934L12.4779 7.59232L14.1077 8.80934L14.842 11.9968L14.1077 15.1842L12.4779 16.4024L10.8435 15.1842L10.1104 11.9968L10.8435 8.80934ZM14.0197 15.8632L13.8325 18.0807L12.8275 16.7723L14.0197 15.8632ZM12.0978 16.7678L11.1233 18.0852L10.901 15.8632L12.0978 16.7678ZM10.2717 14.9891L9.04002 14.6451L9.76978 12.854L10.2717 14.9891ZM9.06597 9.39697L10.2976 9.05297L9.79122 11.1881L9.06597 9.39697ZM9.59495 4.70039C9.7867 4.45225 9.96602 4.22216 10.1623 3.98643L10.2976 3.82176L10.5999 5.0478H9.32764L9.59495 4.70039ZM9.08401 5.54408H10.6518L10.3947 8.50482L8.97913 8.90069L9.08401 5.54408ZM7.60195 8.04461C7.8343 7.50096 8.12191 6.96521 8.34975 6.55691L8.57193 6.15653L8.47607 8.76986L7.56698 8.12243L7.60195 8.04461ZM6.82484 10.888C6.89026 10.244 7.05606 9.54471 7.33127 8.7439L7.37977 8.60969L8.36217 9.27966L6.78536 11.258L6.82484 10.888ZM7.35832 15.3974C7.08312 14.6451 6.89476 13.8883 6.79888 13.154L6.75038 12.7716L8.35876 14.7804L7.4102 15.5418L7.35832 15.3974ZM8.34975 17.4637C8.03506 16.9246 7.82077 16.4937 7.64594 16.0674L7.61548 15.9941L8.47156 15.3061L8.57193 17.8416L8.34975 17.4637ZM8.64188 14.3101L6.79437 12.0227L8.64188 9.7094L9.5679 12.0227L8.64188 14.3101ZM10.3281 20.2508L10.1849 20.0816C9.948 19.7985 9.70436 19.5029 9.45961 19.168L9.33666 18.9943H10.5954L10.3281 20.2508ZM9.10545 18.498L8.97913 15.1459L10.3947 15.5373L10.6518 18.498H9.10545ZM11.5079 21.5377C11.3985 21.4159 11.2721 21.2907 11.1503 21.1553C11.0274 21.0335 10.9056 20.9027 10.7872 20.7775L10.7477 20.7335L10.98 19.6338L11.9105 21.9855L11.5079 21.5377ZM12.4734 22.0509L11.1977 18.7766L12.4779 17.1378L13.7535 18.798L12.4734 22.0509ZM14.19 20.7245C13.9498 21.0121 13.6836 21.2771 13.4478 21.5117L13.0847 21.8727L13.9633 19.5684L14.225 20.6816L14.19 20.7245ZM15.3529 19.3462C15.1645 19.5898 14.9852 19.8244 14.7935 20.0556L14.6536 20.2203L14.3524 18.9943H15.6236L15.3529 19.3462ZM15.8683 18.498H14.3265L14.5577 15.5373L15.9732 15.1459L15.8683 18.498ZM16.3093 14.3327L15.3833 12.0227L16.3093 9.73536L18.1568 12.0193L16.3093 14.3327ZM17.3493 15.9974C17.118 16.5411 16.8293 17.0802 16.6026 17.4851L16.3793 17.8889L16.4752 15.2711L17.3842 15.9196L17.3493 15.9974ZM18.1264 13.154C18.061 13.7969 17.8952 14.4973 17.62 15.3026L17.5715 15.4369L16.5891 14.7624L18.1659 12.784L18.1264 13.154ZM16.5936 9.26162L17.541 8.50482L17.594 8.64467C17.8692 9.39698 18.0565 10.1538 18.1535 10.888L18.2008 11.2704L16.5936 9.26162Z" fill="black" fill-opacity="0.2"/>
<path d="M18.2189 8.95259C17.9211 8.04802 17.5015 7.1175 16.9692 6.1915C16.5056 5.38279 16.095 4.77371 15.68 4.26954C15.3957 3.88719 15.0686 3.50029 14.6536 3.0559C14.4742 2.86077 14.287 2.66905 14.1246 2.50889C13.9148 2.29571 13.6971 2.08255 13.4828 1.87389C13.2911 1.69117 13.0982 1.50843 12.9065 1.32571L12.7486 1.18248C12.7316 1.16443 12.7136 1.14298 12.6922 1.12607C12.6392 1.06854 12.5873 1.02117 12.5309 1.00425C12.4609 0.986204 12.4124 1.02568 12.3166 1.12156L12.2861 1.14751C12.1767 1.25128 12.0628 1.35618 11.9534 1.45995L11.8925 1.51296C11.6082 1.76899 11.3252 2.04308 11.0409 2.32618C10.918 2.44799 10.8007 2.57318 10.6822 2.69951C10.5559 2.83937 10.4296 2.97811 10.2976 3.10894L10.2582 3.15631C9.95702 3.50032 9.64231 3.86125 9.35019 4.26053L9.18893 4.48271C9.04004 4.68235 8.88212 4.89551 8.72535 5.12221L8.71182 5.14366C8.70392 5.15719 8.69036 5.18315 8.66442 5.20458C8.62043 5.24857 8.58098 5.31736 8.54601 5.38278C8.52458 5.41323 8.50652 5.44819 8.48509 5.47413C8.41967 5.57903 8.35427 5.67827 8.28886 5.78316C8.15351 5.99634 8.02605 6.21741 7.89973 6.43509C7.63693 6.9043 7.4012 7.38368 7.20044 7.84838C6.76845 8.87025 6.49322 9.82672 6.36126 10.7663C6.30486 11.1881 6.27441 11.6099 6.27441 12.0227C6.27441 13.3063 6.55412 14.6327 7.10454 15.9636L7.11356 16.002C7.11356 16.0065 7.11357 16.011 7.13049 16.0369L7.15304 16.0719C7.53653 17.0069 8.04861 17.9465 8.67234 18.8679L8.71182 18.9074L8.82572 19.0642C9.00054 19.3157 9.16634 19.5548 9.34568 19.7725C9.93106 20.5294 10.5728 21.2557 11.2631 21.9381C11.6173 22.2855 11.9805 22.6159 12.338 22.9205C12.4079 22.9814 12.4688 23.004 12.5342 22.9994C12.6222 22.9904 12.6967 22.9205 12.7711 22.8517L12.8275 22.7987C12.9234 22.7164 13.0193 22.634 13.1118 22.5472C13.3915 22.29 13.6746 22.0159 13.9543 21.734C14.1776 21.5073 14.4438 21.2331 14.6976 20.9421C15.0032 20.5902 16.0996 19.2165 16.3139 18.9119C16.6725 18.3897 17.021 17.7987 17.3538 17.1547C17.506 16.8591 17.6459 16.5546 17.7767 16.2501C18.2234 15.1933 18.5065 14.2232 18.6385 13.2848C18.6949 12.8585 18.7253 12.4321 18.7253 12.0227C18.7253 11.0234 18.555 9.99252 18.2189 8.95259ZM16.6026 6.57835C16.9162 7.11749 17.1305 7.54835 17.3053 7.9747L17.3357 8.04802L16.4797 8.73602L16.3793 6.20052L16.6026 6.57835ZM14.6231 3.7913L14.7675 3.96048C15.0032 4.24809 15.248 4.53909 15.4927 4.87408L15.6146 5.0478H14.3569L14.6231 3.7913ZM15.8458 5.54408L15.9732 8.90069L14.5577 8.50482L14.2994 5.54408H15.8458ZM15.1555 11.1836L14.6795 9.05297L15.9123 9.39697L15.1555 11.1836ZM15.16 12.854L15.8852 14.6451L14.6536 14.9891L15.16 12.854ZM13.4433 2.50438C13.5573 2.62619 13.6791 2.75589 13.802 2.88672C13.9238 3.01305 14.0468 3.13939 14.1641 3.2691L14.2036 3.30855L13.9723 4.41277L13.0418 2.05997L13.4433 2.50438ZM14.0197 8.17885L12.8275 7.27427L13.8325 5.96139L14.0197 8.17885ZM12.4779 1.99116L13.7535 5.26547L12.4734 6.90432L11.1977 5.24403L12.4779 1.99116ZM12.1237 7.27427L10.9315 8.17885L11.1199 5.96139L12.1237 7.27427ZM10.7612 3.3176C11.0014 3.02999 11.2722 2.76494 11.5079 2.52582L11.8711 2.16939L10.9879 4.47369L10.7262 3.36046L10.7612 3.3176ZM10.8435 8.80934L12.4779 7.59232L14.1077 8.80934L14.842 11.9968L14.1077 15.1842L12.4779 16.4024L10.8435 15.1842L10.1104 11.9968L10.8435 8.80934ZM14.0197 15.8632L13.8325 18.0807L12.8275 16.7723L14.0197 15.8632ZM12.0978 16.7678L11.1233 18.0852L10.901 15.8632L12.0978 16.7678ZM10.2717 14.9891L9.04002 14.6451L9.76978 12.854L10.2717 14.9891ZM9.06597 9.39697L10.2976 9.05297L9.79122 11.1881L9.06597 9.39697ZM9.59495 4.70039C9.7867 4.45225 9.96602 4.22216 10.1623 3.98643L10.2976 3.82176L10.5999 5.0478H9.32764L9.59495 4.70039ZM9.08401 5.54408H10.6518L10.3947 8.50482L8.97913 8.90069L9.08401 5.54408ZM7.60195 8.04461C7.8343 7.50096 8.12191 6.96521 8.34975 6.55691L8.57193 6.15653L8.47607 8.76986L7.56698 8.12243L7.60195 8.04461ZM6.82484 10.888C6.89026 10.244 7.05606 9.54471 7.33127 8.7439L7.37977 8.60969L8.36217 9.27966L6.78536 11.258L6.82484 10.888ZM7.35832 15.3974C7.08312 14.6451 6.89476 13.8883 6.79888 13.154L6.75038 12.7716L8.35876 14.7804L7.4102 15.5418L7.35832 15.3974ZM8.34975 17.4637C8.03506 16.9246 7.82077 16.4937 7.64594 16.0674L7.61548 15.9941L8.47156 15.3061L8.57193 17.8416L8.34975 17.4637ZM8.64188 14.3101L6.79437 12.0227L8.64188 9.7094L9.5679 12.0227L8.64188 14.3101ZM10.3281 20.2508L10.1849 20.0816C9.948 19.7985 9.70436 19.5029 9.45961 19.168L9.33666 18.9943H10.5954L10.3281 20.2508ZM9.10545 18.498L8.97913 15.1459L10.3947 15.5373L10.6518 18.498H9.10545ZM11.5079 21.5377C11.3985 21.4159 11.2721 21.2907 11.1503 21.1553C11.0274 21.0335 10.9056 20.9027 10.7872 20.7775L10.7477 20.7335L10.98 19.6338L11.9105 21.9855L11.5079 21.5377ZM12.4734 22.0509L11.1977 18.7766L12.4779 17.1378L13.7535 18.798L12.4734 22.0509ZM14.19 20.7245C13.9498 21.0121 13.6836 21.2771 13.4478 21.5117L13.0847 21.8727L13.9633 19.5684L14.225 20.6816L14.19 20.7245ZM15.3529 19.3462C15.1645 19.5898 14.9852 19.8244 14.7935 20.0556L14.6536 20.2203L14.3524 18.9943H15.6236L15.3529 19.3462ZM15.8683 18.498H14.3265L14.5577 15.5373L15.9732 15.1459L15.8683 18.498ZM16.3093 14.3327L15.3833 12.0227L16.3093 9.73536L18.1568 12.0193L16.3093 14.3327ZM17.3493 15.9974C17.118 16.5411 16.8293 17.0802 16.6026 17.4851L16.3793 17.8889L16.4752 15.2711L17.3842 15.9196L17.3493 15.9974ZM18.1264 13.154C18.061 13.7969 17.8952 14.4973 17.62 15.3026L17.5715 15.4369L16.5891 14.7624L18.1659 12.784L18.1264 13.154ZM16.5936 9.26162L17.541 8.50482L17.594 8.64467C17.8692 9.39698 18.0565 10.1538 18.1535 10.888L18.2008 11.2704L16.5936 9.26162Z" fill="black" fill-opacity="0.2"/>
<path d="M18.2189 8.95259C17.9211 8.04802 17.5015 7.1175 16.9692 6.1915C16.5056 5.38279 16.095 4.77371 15.68 4.26954C15.3957 3.88719 15.0686 3.50029 14.6536 3.0559C14.4742 2.86077 14.287 2.66905 14.1246 2.50889C13.9148 2.29571 13.6971 2.08255 13.4828 1.87389C13.2911 1.69117 13.0982 1.50843 12.9065 1.32571L12.7486 1.18248C12.7316 1.16443 12.7136 1.14298 12.6922 1.12607C12.6392 1.06854 12.5873 1.02117 12.5309 1.00425C12.4609 0.986204 12.4124 1.02568 12.3166 1.12156L12.2861 1.14751C12.1767 1.25128 12.0628 1.35618 11.9534 1.45995L11.8925 1.51296C11.6082 1.76899 11.3252 2.04308 11.0409 2.32618C10.918 2.44799 10.8007 2.57318 10.6822 2.69951C10.5559 2.83937 10.4296 2.97811 10.2976 3.10894L10.2582 3.15631C9.95702 3.50032 9.64231 3.86125 9.35019 4.26053L9.18893 4.48271C9.04004 4.68235 8.88212 4.89551 8.72535 5.12221L8.71182 5.14366C8.70392 5.15719 8.69036 5.18315 8.66442 5.20458C8.62043 5.24857 8.58098 5.31736 8.54601 5.38278C8.52458 5.41323 8.50652 5.44819 8.48509 5.47413C8.41967 5.57903 8.35427 5.67827 8.28886 5.78316C8.15351 5.99634 8.02605 6.21741 7.89973 6.43509C7.63693 6.9043 7.4012 7.38368 7.20044 7.84838C6.76845 8.87025 6.49322 9.82672 6.36126 10.7663C6.30486 11.1881 6.27441 11.6099 6.27441 12.0227C6.27441 13.3063 6.55412 14.6327 7.10454 15.9636L7.11356 16.002C7.11356 16.0065 7.11357 16.011 7.13049 16.0369L7.15304 16.0719C7.53653 17.0069 8.04861 17.9465 8.67234 18.8679L8.71182 18.9074L8.82572 19.0642C9.00054 19.3157 9.16634 19.5548 9.34568 19.7725C9.93106 20.5294 10.5728 21.2557 11.2631 21.9381C11.6173 22.2855 11.9805 22.6159 12.338 22.9205C12.4079 22.9814 12.4688 23.004 12.5342 22.9994C12.6222 22.9904 12.6967 22.9205 12.7711 22.8517L12.8275 22.7987C12.9234 22.7164 13.0193 22.634 13.1118 22.5472C13.3915 22.29 13.6746 22.0159 13.9543 21.734C14.1776 21.5073 14.4438 21.2331 14.6976 20.9421C15.0032 20.5902 16.0996 19.2165 16.3139 18.9119C16.6725 18.3897 17.021 17.7987 17.3538 17.1547C17.506 16.8591 17.6459 16.5546 17.7767 16.2501C18.2234 15.1933 18.5065 14.2232 18.6385 13.2848C18.6949 12.8585 18.7253 12.4321 18.7253 12.0227C18.7253 11.0234 18.555 9.99252 18.2189 8.95259ZM16.6026 6.57835C16.9162 7.11749 17.1305 7.54835 17.3053 7.9747L17.3357 8.04802L16.4797 8.73602L16.3793 6.20052L16.6026 6.57835ZM14.6231 3.7913L14.7675 3.96048C15.0032 4.24809 15.248 4.53909 15.4927 4.87408L15.6146 5.0478H14.3569L14.6231 3.7913ZM15.8458 5.54408L15.9732 8.90069L14.5577 8.50482L14.2994 5.54408H15.8458ZM15.1555 11.1836L14.6795 9.05297L15.9123 9.39697L15.1555 11.1836ZM15.16 12.854L15.8852 14.6451L14.6536 14.9891L15.16 12.854ZM13.4433 2.50438C13.5573 2.62619 13.6791 2.75589 13.802 2.88672C13.9238 3.01305 14.0468 3.13939 14.1641 3.2691L14.2036 3.30855L13.9723 4.41277L13.0418 2.05997L13.4433 2.50438ZM14.0197 8.17885L12.8275 7.27427L13.8325 5.96139L14.0197 8.17885ZM12.4779 1.99116L13.7535 5.26547L12.4734 6.90432L11.1977 5.24403L12.4779 1.99116ZM12.1237 7.27427L10.9315 8.17885L11.1199 5.96139L12.1237 7.27427ZM10.7612 3.3176C11.0014 3.02999 11.2722 2.76494 11.5079 2.52582L11.8711 2.16939L10.9879 4.47369L10.7262 3.36046L10.7612 3.3176ZM10.8435 8.80934L12.4779 7.59232L14.1077 8.80934L14.842 11.9968L14.1077 15.1842L12.4779 16.4024L10.8435 15.1842L10.1104 11.9968L10.8435 8.80934ZM14.0197 15.8632L13.8325 18.0807L12.8275 16.7723L14.0197 15.8632ZM12.0978 16.7678L11.1233 18.0852L10.901 15.8632L12.0978 16.7678ZM10.2717 14.9891L9.04002 14.6451L9.76978 12.854L10.2717 14.9891ZM9.06597 9.39697L10.2976 9.05297L9.79122 11.1881L9.06597 9.39697ZM9.59495 4.70039C9.7867 4.45225 9.96602 4.22216 10.1623 3.98643L10.2976 3.82176L10.5999 5.0478H9.32764L9.59495 4.70039ZM9.08401 5.54408H10.6518L10.3947 8.50482L8.97913 8.90069L9.08401 5.54408ZM7.60195 8.04461C7.8343 7.50096 8.12191 6.96521 8.34975 6.55691L8.57193 6.15653L8.47607 8.76986L7.56698 8.12243L7.60195 8.04461ZM6.82484 10.888C6.89026 10.244 7.05606 9.54471 7.33127 8.7439L7.37977 8.60969L8.36217 9.27966L6.78536 11.258L6.82484 10.888ZM7.35832 15.3974C7.08312 14.6451 6.89476 13.8883 6.79888 13.154L6.75038 12.7716L8.35876 14.7804L7.4102 15.5418L7.35832 15.3974ZM8.34975 17.4637C8.03506 16.9246 7.82077 16.4937 7.64594 16.0674L7.61548 15.9941L8.47156 15.3061L8.57193 17.8416L8.34975 17.4637ZM8.64188 14.3101L6.79437 12.0227L8.64188 9.7094L9.5679 12.0227L8.64188 14.3101ZM10.3281 20.2508L10.1849 20.0816C9.948 19.7985 9.70436 19.5029 9.45961 19.168L9.33666 18.9943H10.5954L10.3281 20.2508ZM9.10545 18.498L8.97913 15.1459L10.3947 15.5373L10.6518 18.498H9.10545ZM11.5079 21.5377C11.3985 21.4159 11.2721 21.2907 11.1503 21.1553C11.0274 21.0335 10.9056 20.9027 10.7872 20.7775L10.7477 20.7335L10.98 19.6338L11.9105 21.9855L11.5079 21.5377ZM12.4734 22.0509L11.1977 18.7766L12.4779 17.1378L13.7535 18.798L12.4734 22.0509ZM14.19 20.7245C13.9498 21.0121 13.6836 21.2771 13.4478 21.5117L13.0847 21.8727L13.9633 19.5684L14.225 20.6816L14.19 20.7245ZM15.3529 19.3462C15.1645 19.5898 14.9852 19.8244 14.7935 20.0556L14.6536 20.2203L14.3524 18.9943H15.6236L15.3529 19.3462ZM15.8683 18.498H14.3265L14.5577 15.5373L15.9732 15.1459L15.8683 18.498ZM16.3093 14.3327L15.3833 12.0227L16.3093 9.73536L18.1568 12.0193L16.3093 14.3327ZM17.3493 15.9974C17.118 16.5411 16.8293 17.0802 16.6026 17.4851L16.3793 17.8889L16.4752 15.2711L17.3842 15.9196L17.3493 15.9974ZM18.1264 13.154C18.061 13.7969 17.8952 14.4973 17.62 15.3026L17.5715 15.4369L16.5891 14.7624L18.1659 12.784L18.1264 13.154ZM16.5936 9.26162L17.541 8.50482L17.594 8.64467C17.8692 9.39698 18.0565 10.1538 18.1535 10.888L18.2008 11.2704L16.5936 9.26162Z" fill="black" fill-opacity="0.2"/>
<path d="M18.2189 8.95259C17.9211 8.04802 17.5015 7.1175 16.9692 6.1915C16.5056 5.38279 16.095 4.77371 15.68 4.26954C15.3957 3.88719 15.0686 3.50029 14.6536 3.0559C14.4742 2.86077 14.287 2.66905 14.1246 2.50889C13.9148 2.29571 13.6971 2.08255 13.4828 1.87389C13.2911 1.69117 13.0982 1.50843 12.9065 1.32571L12.7486 1.18248C12.7316 1.16443 12.7136 1.14298 12.6922 1.12607C12.6392 1.06854 12.5873 1.02117 12.5309 1.00425C12.4609 0.986204 12.4124 1.02568 12.3166 1.12156L12.2861 1.14751C12.1767 1.25128 12.0628 1.35618 11.9534 1.45995L11.8925 1.51296C11.6082 1.76899 11.3252 2.04308 11.0409 2.32618C10.918 2.44799 10.8007 2.57318 10.6822 2.69951C10.5559 2.83937 10.4296 2.97811 10.2976 3.10894L10.2582 3.15631C9.95702 3.50032 9.64231 3.86125 9.35019 4.26053L9.18893 4.48271C9.04004 4.68235 8.88212 4.89551 8.72535 5.12221L8.71182 5.14366C8.70392 5.15719 8.69036 5.18315 8.66442 5.20458C8.62043 5.24857 8.58098 5.31736 8.54601 5.38278C8.52458 5.41323 8.50652 5.44819 8.48509 5.47413C8.41967 5.57903 8.35427 5.67827 8.28886 5.78316C8.15351 5.99634 8.02605 6.21741 7.89973 6.43509C7.63693 6.9043 7.4012 7.38368 7.20044 7.84838C6.76845 8.87025 6.49322 9.82672 6.36126 10.7663C6.30486 11.1881 6.27441 11.6099 6.27441 12.0227C6.27441 13.3063 6.55412 14.6327 7.10454 15.9636L7.11356 16.002C7.11356 16.0065 7.11357 16.011 7.13049 16.0369L7.15304 16.0719C7.53653 17.0069 8.04861 17.9465 8.67234 18.8679L8.71182 18.9074L8.82572 19.0642C9.00054 19.3157 9.16634 19.5548 9.34568 19.7725C9.93106 20.5294 10.5728 21.2557 11.2631 21.9381C11.6173 22.2855 11.9805 22.6159 12.338 22.9205C12.4079 22.9814 12.4688 23.004 12.5342 22.9994C12.6222 22.9904 12.6967 22.9205 12.7711 22.8517L12.8275 22.7987C12.9234 22.7164 13.0193 22.634 13.1118 22.5472C13.3915 22.29 13.6746 22.0159 13.9543 21.734C14.1776 21.5073 14.4438 21.2331 14.6976 20.9421C15.0032 20.5902 16.0996 19.2165 16.3139 18.9119C16.6725 18.3897 17.021 17.7987 17.3538 17.1547C17.506 16.8591 17.6459 16.5546 17.7767 16.2501C18.2234 15.1933 18.5065 14.2232 18.6385 13.2848C18.6949 12.8585 18.7253 12.4321 18.7253 12.0227C18.7253 11.0234 18.555 9.99252 18.2189 8.95259ZM16.6026 6.57835C16.9162 7.11749 17.1305 7.54835 17.3053 7.9747L17.3357 8.04802L16.4797 8.73602L16.3793 6.20052L16.6026 6.57835ZM14.6231 3.7913L14.7675 3.96048C15.0032 4.24809 15.248 4.53909 15.4927 4.87408L15.6146 5.0478H14.3569L14.6231 3.7913ZM15.8458 5.54408L15.9732 8.90069L14.5577 8.50482L14.2994 5.54408H15.8458ZM15.1555 11.1836L14.6795 9.05297L15.9123 9.39697L15.1555 11.1836ZM15.16 12.854L15.8852 14.6451L14.6536 14.9891L15.16 12.854ZM13.4433 2.50438C13.5573 2.62619 13.6791 2.75589 13.802 2.88672C13.9238 3.01305 14.0468 3.13939 14.1641 3.2691L14.2036 3.30855L13.9723 4.41277L13.0418 2.05997L13.4433 2.50438ZM14.0197 8.17885L12.8275 7.27427L13.8325 5.96139L14.0197 8.17885ZM12.4779 1.99116L13.7535 5.26547L12.4734 6.90432L11.1977 5.24403L12.4779 1.99116ZM12.1237 7.27427L10.9315 8.17885L11.1199 5.96139L12.1237 7.27427ZM10.7612 3.3176C11.0014 3.02999 11.2722 2.76494 11.5079 2.52582L11.8711 2.16939L10.9879 4.47369L10.7262 3.36046L10.7612 3.3176ZM10.8435 8.80934L12.4779 7.59232L14.1077 8.80934L14.842 11.9968L14.1077 15.1842L12.4779 16.4024L10.8435 15.1842L10.1104 11.9968L10.8435 8.80934ZM14.0197 15.8632L13.8325 18.0807L12.8275 16.7723L14.0197 15.8632ZM12.0978 16.7678L11.1233 18.0852L10.901 15.8632L12.0978 16.7678ZM10.2717 14.9891L9.04002 14.6451L9.76978 12.854L10.2717 14.9891ZM9.06597 9.39697L10.2976 9.05297L9.79122 11.1881L9.06597 9.39697ZM9.59495 4.70039C9.7867 4.45225 9.96602 4.22216 10.1623 3.98643L10.2976 3.82176L10.5999 5.0478H9.32764L9.59495 4.70039ZM9.08401 5.54408H10.6518L10.3947 8.50482L8.97913 8.90069L9.08401 5.54408ZM7.60195 8.04461C7.8343 7.50096 8.12191 6.96521 8.34975 6.55691L8.57193 6.15653L8.47607 8.76986L7.56698 8.12243L7.60195 8.04461ZM6.82484 10.888C6.89026 10.244 7.05606 9.54471 7.33127 8.7439L7.37977 8.60969L8.36217 9.27966L6.78536 11.258L6.82484 10.888ZM7.35832 15.3974C7.08312 14.6451 6.89476 13.8883 6.79888 13.154L6.75038 12.7716L8.35876 14.7804L7.4102 15.5418L7.35832 15.3974ZM8.34975 17.4637C8.03506 16.9246 7.82077 16.4937 7.64594 16.0674L7.61548 15.9941L8.47156 15.3061L8.57193 17.8416L8.34975 17.4637ZM8.64188 14.3101L6.79437 12.0227L8.64188 9.7094L9.5679 12.0227L8.64188 14.3101ZM10.3281 20.2508L10.1849 20.0816C9.948 19.7985 9.70436 19.5029 9.45961 19.168L9.33666 18.9943H10.5954L10.3281 20.2508ZM9.10545 18.498L8.97913 15.1459L10.3947 15.5373L10.6518 18.498H9.10545ZM11.5079 21.5377C11.3985 21.4159 11.2721 21.2907 11.1503 21.1553C11.0274 21.0335 10.9056 20.9027 10.7872 20.7775L10.7477 20.7335L10.98 19.6338L11.9105 21.9855L11.5079 21.5377ZM12.4734 22.0509L11.1977 18.7766L12.4779 17.1378L13.7535 18.798L12.4734 22.0509ZM14.19 20.7245C13.9498 21.0121 13.6836 21.2771 13.4478 21.5117L13.0847 21.8727L13.9633 19.5684L14.225 20.6816L14.19 20.7245ZM15.3529 19.3462C15.1645 19.5898 14.9852 19.8244 14.7935 20.0556L14.6536 20.2203L14.3524 18.9943H15.6236L15.3529 19.3462ZM15.8683 18.498H14.3265L14.5577 15.5373L15.9732 15.1459L15.8683 18.498ZM16.3093 14.3327L15.3833 12.0227L16.3093 9.73536L18.1568 12.0193L16.3093 14.3327ZM17.3493 15.9974C17.118 16.5411 16.8293 17.0802 16.6026 17.4851L16.3793 17.8889L16.4752 15.2711L17.3842 15.9196L17.3493 15.9974ZM18.1264 13.154C18.061 13.7969 17.8952 14.4973 17.62 15.3026L17.5715 15.4369L16.5891 14.7624L18.1659 12.784L18.1264 13.154ZM16.5936 9.26162L17.541 8.50482L17.594 8.64467C17.8692 9.39698 18.0565 10.1538 18.1535 10.888L18.2008 11.2704L16.5936 9.26162Z" fill="black" fill-opacity="0.2"/>
<path d="M18.2189 8.95259C17.9211 8.04802 17.5015 7.1175 16.9692 6.1915C16.5056 5.38279 16.095 4.77371 15.68 4.26954C15.3957 3.88719 15.0686 3.50029 14.6536 3.0559C14.4742 2.86077 14.287 2.66905 14.1246 2.50889C13.9148 2.29571 13.6971 2.08255 13.4828 1.87389C13.2911 1.69117 13.0982 1.50843 12.9065 1.32571L12.7486 1.18248C12.7316 1.16443 12.7136 1.14298 12.6922 1.12607C12.6392 1.06854 12.5873 1.02117 12.5309 1.00425C12.4609 0.986204 12.4124 1.02568 12.3166 1.12156L12.2861 1.14751C12.1767 1.25128 12.0628 1.35618 11.9534 1.45995L11.8925 1.51296C11.6082 1.76899 11.3252 2.04308 11.0409 2.32618C10.918 2.44799 10.8007 2.57318 10.6822 2.69951C10.5559 2.83937 10.4296 2.97811 10.2976 3.10894L10.2582 3.15631C9.95702 3.50032 9.64231 3.86125 9.35019 4.26053L9.18893 4.48271C9.04004 4.68235 8.88212 4.89551 8.72535 5.12221L8.71182 5.14366C8.70392 5.15719 8.69036 5.18315 8.66442 5.20458C8.62043 5.24857 8.58098 5.31736 8.54601 5.38278C8.52458 5.41323 8.50652 5.44819 8.48509 5.47413C8.41967 5.57903 8.35427 5.67827 8.28886 5.78316C8.15351 5.99634 8.02605 6.21741 7.89973 6.43509C7.63693 6.9043 7.4012 7.38368 7.20044 7.84838C6.76845 8.87025 6.49322 9.82672 6.36126 10.7663C6.30486 11.1881 6.27441 11.6099 6.27441 12.0227C6.27441 13.3063 6.55412 14.6327 7.10454 15.9636L7.11356 16.002C7.11356 16.0065 7.11357 16.011 7.13049 16.0369L7.15304 16.0719C7.53653 17.0069 8.04861 17.9465 8.67234 18.8679L8.71182 18.9074L8.82572 19.0642C9.00054 19.3157 9.16634 19.5548 9.34568 19.7725C9.93106 20.5294 10.5728 21.2557 11.2631 21.9381C11.6173 22.2855 11.9805 22.6159 12.338 22.9205C12.4079 22.9814 12.4688 23.004 12.5342 22.9994C12.6222 22.9904 12.6967 22.9205 12.7711 22.8517L12.8275 22.7987C12.9234 22.7164 13.0193 22.634 13.1118 22.5472C13.3915 22.29 13.6746 22.0159 13.9543 21.734C14.1776 21.5073 14.4438 21.2331 14.6976 20.9421C15.0032 20.5902 16.0996 19.2165 16.3139 18.9119C16.6725 18.3897 17.021 17.7987 17.3538 17.1547C17.506 16.8591 17.6459 16.5546 17.7767 16.2501C18.2234 15.1933 18.5065 14.2232 18.6385 13.2848C18.6949 12.8585 18.7253 12.4321 18.7253 12.0227C18.7253 11.0234 18.555 9.99252 18.2189 8.95259ZM16.6026 6.57835C16.9162 7.11749 17.1305 7.54835 17.3053 7.9747L17.3357 8.04802L16.4797 8.73602L16.3793 6.20052L16.6026 6.57835ZM14.6231 3.7913L14.7675 3.96048C15.0032 4.24809 15.248 4.53909 15.4927 4.87408L15.6146 5.0478H14.3569L14.6231 3.7913ZM15.8458 5.54408L15.9732 8.90069L14.5577 8.50482L14.2994 5.54408H15.8458ZM15.1555 11.1836L14.6795 9.05297L15.9123 9.39697L15.1555 11.1836ZM15.16 12.854L15.8852 14.6451L14.6536 14.9891L15.16 12.854ZM13.4433 2.50438C13.5573 2.62619 13.6791 2.75589 13.802 2.88672C13.9238 3.01305 14.0468 3.13939 14.1641 3.2691L14.2036 3.30855L13.9723 4.41277L13.0418 2.05997L13.4433 2.50438ZM14.0197 8.17885L12.8275 7.27427L13.8325 5.96139L14.0197 8.17885ZM12.4779 1.99116L13.7535 5.26547L12.4734 6.90432L11.1977 5.24403L12.4779 1.99116ZM12.1237 7.27427L10.9315 8.17885L11.1199 5.96139L12.1237 7.27427ZM10.7612 3.3176C11.0014 3.02999 11.2722 2.76494 11.5079 2.52582L11.8711 2.16939L10.9879 4.47369L10.7262 3.36046L10.7612 3.3176ZM10.8435 8.80934L12.4779 7.59232L14.1077 8.80934L14.842 11.9968L14.1077 15.1842L12.4779 16.4024L10.8435 15.1842L10.1104 11.9968L10.8435 8.80934ZM14.0197 15.8632L13.8325 18.0807L12.8275 16.7723L14.0197 15.8632ZM12.0978 16.7678L11.1233 18.0852L10.901 15.8632L12.0978 16.7678ZM10.2717 14.9891L9.04002 14.6451L9.76978 12.854L10.2717 14.9891ZM9.06597 9.39697L10.2976 9.05297L9.79122 11.1881L9.06597 9.39697ZM9.59495 4.70039C9.7867 4.45225 9.96602 4.22216 10.1623 3.98643L10.2976 3.82176L10.5999 5.0478H9.32764L9.59495 4.70039ZM9.08401 5.54408H10.6518L10.3947 8.50482L8.97913 8.90069L9.08401 5.54408ZM7.60195 8.04461C7.8343 7.50096 8.12191 6.96521 8.34975 6.55691L8.57193 6.15653L8.47607 8.76986L7.56698 8.12243L7.60195 8.04461ZM6.82484 10.888C6.89026 10.244 7.05606 9.54471 7.33127 8.7439L7.37977 8.60969L8.36217 9.27966L6.78536 11.258L6.82484 10.888ZM7.35832 15.3974C7.08312 14.6451 6.89476 13.8883 6.79888 13.154L6.75038 12.7716L8.35876 14.7804L7.4102 15.5418L7.35832 15.3974ZM8.34975 17.4637C8.03506 16.9246 7.82077 16.4937 7.64594 16.0674L7.61548 15.9941L8.47156 15.3061L8.57193 17.8416L8.34975 17.4637ZM8.64188 14.3101L6.79437 12.0227L8.64188 9.7094L9.5679 12.0227L8.64188 14.3101ZM10.3281 20.2508L10.1849 20.0816C9.948 19.7985 9.70436 19.5029 9.45961 19.168L9.33666 18.9943H10.5954L10.3281 20.2508ZM9.10545 18.498L8.97913 15.1459L10.3947 15.5373L10.6518 18.498H9.10545ZM11.5079 21.5377C11.3985 21.4159 11.2721 21.2907 11.1503 21.1553C11.0274 21.0335 10.9056 20.9027 10.7872 20.7775L10.7477 20.7335L10.98 19.6338L11.9105 21.9855L11.5079 21.5377ZM12.4734 22.0509L11.1977 18.7766L12.4779 17.1378L13.7535 18.798L12.4734 22.0509ZM14.19 20.7245C13.9498 21.0121 13.6836 21.2771 13.4478 21.5117L13.0847 21.8727L13.9633 19.5684L14.225 20.6816L14.19 20.7245ZM15.3529 19.3462C15.1645 19.5898 14.9852 19.8244 14.7935 20.0556L14.6536 20.2203L14.3524 18.9943H15.6236L15.3529 19.3462ZM15.8683 18.498H14.3265L14.5577 15.5373L15.9732 15.1459L15.8683 18.498ZM16.3093 14.3327L15.3833 12.0227L16.3093 9.73536L18.1568 12.0193L16.3093 14.3327ZM17.3493 15.9974C17.118 16.5411 16.8293 17.0802 16.6026 17.4851L16.3793 17.8889L16.4752 15.2711L17.3842 15.9196L17.3493 15.9974ZM18.1264 13.154C18.061 13.7969 17.8952 14.4973 17.62 15.3026L17.5715 15.4369L16.5891 14.7624L18.1659 12.784L18.1264 13.154ZM16.5936 9.26162L17.541 8.50482L17.594 8.64467C17.8692 9.39698 18.0565 10.1538 18.1535 10.888L18.2008 11.2704L16.5936 9.26162Z" fill="black" fill-opacity="0.2"/>
<path d="M18.2189 8.95259C17.9211 8.04802 17.5015 7.1175 16.9692 6.1915C16.5056 5.38279 16.095 4.77371 15.68 4.26954C15.3957 3.88719 15.0686 3.50029 14.6536 3.0559C14.4742 2.86077 14.287 2.66905 14.1246 2.50889C13.9148 2.29571 13.6971 2.08255 13.4828 1.87389C13.2911 1.69117 13.0982 1.50843 12.9065 1.32571L12.7486 1.18248C12.7316 1.16443 12.7136 1.14298 12.6922 1.12607C12.6392 1.06854 12.5873 1.02117 12.5309 1.00425C12.4609 0.986204 12.4124 1.02568 12.3166 1.12156L12.2861 1.14751C12.1767 1.25128 12.0628 1.35618 11.9534 1.45995L11.8925 1.51296C11.6082 1.76899 11.3252 2.04308 11.0409 2.32618C10.918 2.44799 10.8007 2.57318 10.6822 2.69951C10.5559 2.83937 10.4296 2.97811 10.2976 3.10894L10.2582 3.15631C9.95702 3.50032 9.64231 3.86125 9.35019 4.26053L9.18893 4.48271C9.04004 4.68235 8.88212 4.89551 8.72535 5.12221L8.71182 5.14366C8.70392 5.15719 8.69036 5.18315 8.66442 5.20458C8.62043 5.24857 8.58098 5.31736 8.54601 5.38278C8.52458 5.41323 8.50652 5.44819 8.48509 5.47413C8.41967 5.57903 8.35427 5.67827 8.28886 5.78316C8.15351 5.99634 8.02605 6.21741 7.89973 6.43509C7.63693 6.9043 7.4012 7.38368 7.20044 7.84838C6.76845 8.87025 6.49322 9.82672 6.36126 10.7663C6.30486 11.1881 6.27441 11.6099 6.27441 12.0227C6.27441 13.3063 6.55412 14.6327 7.10454 15.9636L7.11356 16.002C7.11356 16.0065 7.11357 16.011 7.13049 16.0369L7.15304 16.0719C7.53653 17.0069 8.04861 17.9465 8.67234 18.8679L8.71182 18.9074L8.82572 19.0642C9.00054 19.3157 9.16634 19.5548 9.34568 19.7725C9.93106 20.5294 10.5728 21.2557 11.2631 21.9381C11.6173 22.2855 11.9805 22.6159 12.338 22.9205C12.4079 22.9814 12.4688 23.004 12.5342 22.9994C12.6222 22.9904 12.6967 22.9205 12.7711 22.8517L12.8275 22.7987C12.9234 22.7164 13.0193 22.634 13.1118 22.5472C13.3915 22.29 13.6746 22.0159 13.9543 21.734C14.1776 21.5073 14.4438 21.2331 14.6976 20.9421C15.0032 20.5902 16.0996 19.2165 16.3139 18.9119C16.6725 18.3897 17.021 17.7987 17.3538 17.1547C17.506 16.8591 17.6459 16.5546 17.7767 16.2501C18.2234 15.1933 18.5065 14.2232 18.6385 13.2848C18.6949 12.8585 18.7253 12.4321 18.7253 12.0227C18.7253 11.0234 18.555 9.99252 18.2189 8.95259ZM16.6026 6.57835C16.9162 7.11749 17.1305 7.54835 17.3053 7.9747L17.3357 8.04802L16.4797 8.73602L16.3793 6.20052L16.6026 6.57835ZM14.6231 3.7913L14.7675 3.96048C15.0032 4.24809 15.248 4.53909 15.4927 4.87408L15.6146 5.0478H14.3569L14.6231 3.7913ZM15.8458 5.54408L15.9732 8.90069L14.5577 8.50482L14.2994 5.54408H15.8458ZM15.1555 11.1836L14.6795 9.05297L15.9123 9.39697L15.1555 11.1836ZM15.16 12.854L15.8852 14.6451L14.6536 14.9891L15.16 12.854ZM13.4433 2.50438C13.5573 2.62619 13.6791 2.75589 13.802 2.88672C13.9238 3.01305 14.0468 3.13939 14.1641 3.2691L14.2036 3.30855L13.9723 4.41277L13.0418 2.05997L13.4433 2.50438ZM14.0197 8.17885L12.8275 7.27427L13.8325 5.96139L14.0197 8.17885ZM12.4779 1.99116L13.7535 5.26547L12.4734 6.90432L11.1977 5.24403L12.4779 1.99116ZM12.1237 7.27427L10.9315 8.17885L11.1199 5.96139L12.1237 7.27427ZM10.7612 3.3176C11.0014 3.02999 11.2722 2.76494 11.5079 2.52582L11.8711 2.16939L10.9879 4.47369L10.7262 3.36046L10.7612 3.3176ZM10.8435 8.80934L12.4779 7.59232L14.1077 8.80934L14.842 11.9968L14.1077 15.1842L12.4779 16.4024L10.8435 15.1842L10.1104 11.9968L10.8435 8.80934ZM14.0197 15.8632L13.8325 18.0807L12.8275 16.7723L14.0197 15.8632ZM12.0978 16.7678L11.1233 18.0852L10.901 15.8632L12.0978 16.7678ZM10.2717 14.9891L9.04002 14.6451L9.76978 12.854L10.2717 14.9891ZM9.06597 9.39697L10.2976 9.05297L9.79122 11.1881L9.06597 9.39697ZM9.59495 4.70039C9.7867 4.45225 9.96602 4.22216 10.1623 3.98643L10.2976 3.82176L10.5999 5.0478H9.32764L9.59495 4.70039ZM9.08401 5.54408H10.6518L10.3947 8.50482L8.97913 8.90069L9.08401 5.54408ZM7.60195 8.04461C7.8343 7.50096 8.12191 6.96521 8.34975 6.55691L8.57193 6.15653L8.47607 8.76986L7.56698 8.12243L7.60195 8.04461ZM6.82484 10.888C6.89026 10.244 7.05606 9.54471 7.33127 8.7439L7.37977 8.60969L8.36217 9.27966L6.78536 11.258L6.82484 10.888ZM7.35832 15.3974C7.08312 14.6451 6.89476 13.8883 6.79888 13.154L6.75038 12.7716L8.35876 14.7804L7.4102 15.5418L7.35832 15.3974ZM8.34975 17.4637C8.03506 16.9246 7.82077 16.4937 7.64594 16.0674L7.61548 15.9941L8.47156 15.3061L8.57193 17.8416L8.34975 17.4637ZM8.64188 14.3101L6.79437 12.0227L8.64188 9.7094L9.5679 12.0227L8.64188 14.3101ZM10.3281 20.2508L10.1849 20.0816C9.948 19.7985 9.70436 19.5029 9.45961 19.168L9.33666 18.9943H10.5954L10.3281 20.2508ZM9.10545 18.498L8.97913 15.1459L10.3947 15.5373L10.6518 18.498H9.10545ZM11.5079 21.5377C11.3985 21.4159 11.2721 21.2907 11.1503 21.1553C11.0274 21.0335 10.9056 20.9027 10.7872 20.7775L10.7477 20.7335L10.98 19.6338L11.9105 21.9855L11.5079 21.5377ZM12.4734 22.0509L11.1977 18.7766L12.4779 17.1378L13.7535 18.798L12.4734 22.0509ZM14.19 20.7245C13.9498 21.0121 13.6836 21.2771 13.4478 21.5117L13.0847 21.8727L13.9633 19.5684L14.225 20.6816L14.19 20.7245ZM15.3529 19.3462C15.1645 19.5898 14.9852 19.8244 14.7935 20.0556L14.6536 20.2203L14.3524 18.9943H15.6236L15.3529 19.3462ZM15.8683 18.498H14.3265L14.5577 15.5373L15.9732 15.1459L15.8683 18.498ZM16.3093 14.3327L15.3833 12.0227L16.3093 9.73536L18.1568 12.0193L16.3093 14.3327ZM17.3493 15.9974C17.118 16.5411 16.8293 17.0802 16.6026 17.4851L16.3793 17.8889L16.4752 15.2711L17.3842 15.9196L17.3493 15.9974ZM18.1264 13.154C18.061 13.7969 17.8952 14.4973 17.62 15.3026L17.5715 15.4369L16.5891 14.7624L18.1659 12.784L18.1264 13.154ZM16.5936 9.26162L17.541 8.50482L17.594 8.64467C17.8692 9.39698 18.0565 10.1538 18.1535 10.888L18.2008 11.2704L16.5936 9.26162Z" fill="black" fill-opacity="0.2"/>
<path d="M18.2189 8.95259C17.9211 8.04802 17.5015 7.1175 16.9692 6.1915C16.5056 5.38279 16.095 4.77371 15.68 4.26954C15.3957 3.88719 15.0686 3.50029 14.6536 3.0559C14.4742 2.86077 14.287 2.66905 14.1246 2.50889C13.9148 2.29571 13.6971 2.08255 13.4828 1.87389C13.2911 1.69117 13.0982 1.50843 12.9065 1.32571L12.7486 1.18248C12.7316 1.16443 12.7136 1.14298 12.6922 1.12607C12.6392 1.06854 12.5873 1.02117 12.5309 1.00425C12.4609 0.986204 12.4124 1.02568 12.3166 1.12156L12.2861 1.14751C12.1767 1.25128 12.0628 1.35618 11.9534 1.45995L11.8925 1.51296C11.6082 1.76899 11.3252 2.04308 11.0409 2.32618C10.918 2.44799 10.8007 2.57318 10.6822 2.69951C10.5559 2.83937 10.4296 2.97811 10.2976 3.10894L10.2582 3.15631C9.95702 3.50032 9.64231 3.86125 9.35019 4.26053L9.18893 4.48271C9.04004 4.68235 8.88212 4.89551 8.72535 5.12221L8.71182 5.14366C8.70392 5.15719 8.69036 5.18315 8.66442 5.20458C8.62043 5.24857 8.58098 5.31736 8.54601 5.38278C8.52458 5.41323 8.50652 5.44819 8.48509 5.47413C8.41967 5.57903 8.35427 5.67827 8.28886 5.78316C8.15351 5.99634 8.02605 6.21741 7.89973 6.43509C7.63693 6.9043 7.4012 7.38368 7.20044 7.84838C6.76845 8.87025 6.49322 9.82672 6.36126 10.7663C6.30486 11.1881 6.27441 11.6099 6.27441 12.0227C6.27441 13.3063 6.55412 14.6327 7.10454 15.9636L7.11356 16.002C7.11356 16.0065 7.11357 16.011 7.13049 16.0369L7.15304 16.0719C7.53653 17.0069 8.04861 17.9465 8.67234 18.8679L8.71182 18.9074L8.82572 19.0642C9.00054 19.3157 9.16634 19.5548 9.34568 19.7725C9.93106 20.5294 10.5728 21.2557 11.2631 21.9381C11.6173 22.2855 11.9805 22.6159 12.338 22.9205C12.4079 22.9814 12.4688 23.004 12.5342 22.9994C12.6222 22.9904 12.6967 22.9205 12.7711 22.8517L12.8275 22.7987C12.9234 22.7164 13.0193 22.634 13.1118 22.5472C13.3915 22.29 13.6746 22.0159 13.9543 21.734C14.1776 21.5073 14.4438 21.2331 14.6976 20.9421C15.0032 20.5902 16.0996 19.2165 16.3139 18.9119C16.6725 18.3897 17.021 17.7987 17.3538 17.1547C17.506 16.8591 17.6459 16.5546 17.7767 16.2501C18.2234 15.1933 18.5065 14.2232 18.6385 13.2848C18.6949 12.8585 18.7253 12.4321 18.7253 12.0227C18.7253 11.0234 18.555 9.99252 18.2189 8.95259ZM16.6026 6.57835C16.9162 7.11749 17.1305 7.54835 17.3053 7.9747L17.3357 8.04802L16.4797 8.73602L16.3793 6.20052L16.6026 6.57835ZM14.6231 3.7913L14.7675 3.96048C15.0032 4.24809 15.248 4.53909 15.4927 4.87408L15.6146 5.0478H14.3569L14.6231 3.7913ZM15.8458 5.54408L15.9732 8.90069L14.5577 8.50482L14.2994 5.54408H15.8458ZM15.1555 11.1836L14.6795 9.05297L15.9123 9.39697L15.1555 11.1836ZM15.16 12.854L15.8852 14.6451L14.6536 14.9891L15.16 12.854ZM13.4433 2.50438C13.5573 2.62619 13.6791 2.75589 13.802 2.88672C13.9238 3.01305 14.0468 3.13939 14.1641 3.2691L14.2036 3.30855L13.9723 4.41277L13.0418 2.05997L13.4433 2.50438ZM14.0197 8.17885L12.8275 7.27427L13.8325 5.96139L14.0197 8.17885ZM12.4779 1.99116L13.7535 5.26547L12.4734 6.90432L11.1977 5.24403L12.4779 1.99116ZM12.1237 7.27427L10.9315 8.17885L11.1199 5.96139L12.1237 7.27427ZM10.7612 3.3176C11.0014 3.02999 11.2722 2.76494 11.5079 2.52582L11.8711 2.16939L10.9879 4.47369L10.7262 3.36046L10.7612 3.3176ZM10.8435 8.80934L12.4779 7.59232L14.1077 8.80934L14.842 11.9968L14.1077 15.1842L12.4779 16.4024L10.8435 15.1842L10.1104 11.9968L10.8435 8.80934ZM14.0197 15.8632L13.8325 18.0807L12.8275 16.7723L14.0197 15.8632ZM12.0978 16.7678L11.1233 18.0852L10.901 15.8632L12.0978 16.7678ZM10.2717 14.9891L9.04002 14.6451L9.76978 12.854L10.2717 14.9891ZM9.06597 9.39697L10.2976 9.05297L9.79122 11.1881L9.06597 9.39697ZM9.59495 4.70039C9.7867 4.45225 9.96602 4.22216 10.1623 3.98643L10.2976 3.82176L10.5999 5.0478H9.32764L9.59495 4.70039ZM9.08401 5.54408H10.6518L10.3947 8.50482L8.97913 8.90069L9.08401 5.54408ZM7.60195 8.04461C7.8343 7.50096 8.12191 6.96521 8.34975 6.55691L8.57193 6.15653L8.47607 8.76986L7.56698 8.12243L7.60195 8.04461ZM6.82484 10.888C6.89026 10.244 7.05606 9.54471 7.33127 8.7439L7.37977 8.60969L8.36217 9.27966L6.78536 11.258L6.82484 10.888ZM7.35832 15.3974C7.08312 14.6451 6.89476 13.8883 6.79888 13.154L6.75038 12.7716L8.35876 14.7804L7.4102 15.5418L7.35832 15.3974ZM8.34975 17.4637C8.03506 16.9246 7.82077 16.4937 7.64594 16.0674L7.61548 15.9941L8.47156 15.3061L8.57193 17.8416L8.34975 17.4637ZM8.64188 14.3101L6.79437 12.0227L8.64188 9.7094L9.5679 12.0227L8.64188 14.3101ZM10.3281 20.2508L10.1849 20.0816C9.948 19.7985 9.70436 19.5029 9.45961 19.168L9.33666 18.9943H10.5954L10.3281 20.2508ZM9.10545 18.498L8.97913 15.1459L10.3947 15.5373L10.6518 18.498H9.10545ZM11.5079 21.5377C11.3985 21.4159 11.2721 21.2907 11.1503 21.1553C11.0274 21.0335 10.9056 20.9027 10.7872 20.7775L10.7477 20.7335L10.98 19.6338L11.9105 21.9855L11.5079 21.5377ZM12.4734 22.0509L11.1977 18.7766L12.4779 17.1378L13.7535 18.798L12.4734 22.0509ZM14.19 20.7245C13.9498 21.0121 13.6836 21.2771 13.4478 21.5117L13.0847 21.8727L13.9633 19.5684L14.225 20.6816L14.19 20.7245ZM15.3529 19.3462C15.1645 19.5898 14.9852 19.8244 14.7935 20.0556L14.6536 20.2203L14.3524 18.9943H15.6236L15.3529 19.3462ZM15.8683 18.498H14.3265L14.5577 15.5373L15.9732 15.1459L15.8683 18.498ZM16.3093 14.3327L15.3833 12.0227L16.3093 9.73536L18.1568 12.0193L16.3093 14.3327ZM17.3493 15.9974C17.118 16.5411 16.8293 17.0802 16.6026 17.4851L16.3793 17.8889L16.4752 15.2711L17.3842 15.9196L17.3493 15.9974ZM18.1264 13.154C18.061 13.7969 17.8952 14.4973 17.62 15.3026L17.5715 15.4369L16.5891 14.7624L18.1659 12.784L18.1264 13.154ZM16.5936 9.26162L17.541 8.50482L17.594 8.64467C17.8692 9.39698 18.0565 10.1538 18.1535 10.888L18.2008 11.2704L16.5936 9.26162Z" fill="black" fill-opacity="0.2"/>
<path d="M18.2189 8.95259C17.9211 8.04802 17.5015 7.1175 16.9692 6.1915C16.5056 5.38279 16.095 4.77371 15.68 4.26954C15.3957 3.88719 15.0686 3.50029 14.6536 3.0559C14.4742 2.86077 14.287 2.66905 14.1246 2.50889C13.9148 2.29571 13.6971 2.08255 13.4828 1.87389C13.2911 1.69117 13.0982 1.50843 12.9065 1.32571L12.7486 1.18248C12.7316 1.16443 12.7136 1.14298 12.6922 1.12607C12.6392 1.06854 12.5873 1.02117 12.5309 1.00425C12.4609 0.986204 12.4124 1.02568 12.3166 1.12156L12.2861 1.14751C12.1767 1.25128 12.0628 1.35618 11.9534 1.45995L11.8925 1.51296C11.6082 1.76899 11.3252 2.04308 11.0409 2.32618C10.918 2.44799 10.8007 2.57318 10.6822 2.69951C10.5559 2.83937 10.4296 2.97811 10.2976 3.10894L10.2582 3.15631C9.95702 3.50032 9.64231 3.86125 9.35019 4.26053L9.18893 4.48271C9.04004 4.68235 8.88212 4.89551 8.72535 5.12221L8.71182 5.14366C8.70392 5.15719 8.69036 5.18315 8.66442 5.20458C8.62043 5.24857 8.58098 5.31736 8.54601 5.38278C8.52458 5.41323 8.50652 5.44819 8.48509 5.47413C8.41967 5.57903 8.35427 5.67827 8.28886 5.78316C8.15351 5.99634 8.02605 6.21741 7.89973 6.43509C7.63693 6.9043 7.4012 7.38368 7.20044 7.84838C6.76845 8.87025 6.49322 9.82672 6.36126 10.7663C6.30486 11.1881 6.27441 11.6099 6.27441 12.0227C6.27441 13.3063 6.55412 14.6327 7.10454 15.9636L7.11356 16.002C7.11356 16.0065 7.11357 16.011 7.13049 16.0369L7.15304 16.0719C7.53653 17.0069 8.04861 17.9465 8.67234 18.8679L8.71182 18.9074L8.82572 19.0642C9.00054 19.3157 9.16634 19.5548 9.34568 19.7725C9.93106 20.5294 10.5728 21.2557 11.2631 21.9381C11.6173 22.2855 11.9805 22.6159 12.338 22.9205C12.4079 22.9814 12.4688 23.004 12.5342 22.9994C12.6222 22.9904 12.6967 22.9205 12.7711 22.8517L12.8275 22.7987C12.9234 22.7164 13.0193 22.634 13.1118 22.5472C13.3915 22.29 13.6746 22.0159 13.9543 21.734C14.1776 21.5073 14.4438 21.2331 14.6976 20.9421C15.0032 20.5902 16.0996 19.2165 16.3139 18.9119C16.6725 18.3897 17.021 17.7987 17.3538 17.1547C17.506 16.8591 17.6459 16.5546 17.7767 16.2501C18.2234 15.1933 18.5065 14.2232 18.6385 13.2848C18.6949 12.8585 18.7253 12.4321 18.7253 12.0227C18.7253 11.0234 18.555 9.99252 18.2189 8.95259ZM16.6026 6.57835C16.9162 7.11749 17.1305 7.54835 17.3053 7.9747L17.3357 8.04802L16.4797 8.73602L16.3793 6.20052L16.6026 6.57835ZM14.6231 3.7913L14.7675 3.96048C15.0032 4.24809 15.248 4.53909 15.4927 4.87408L15.6146 5.0478H14.3569L14.6231 3.7913ZM15.8458 5.54408L15.9732 8.90069L14.5577 8.50482L14.2994 5.54408H15.8458ZM15.1555 11.1836L14.6795 9.05297L15.9123 9.39697L15.1555 11.1836ZM15.16 12.854L15.8852 14.6451L14.6536 14.9891L15.16 12.854ZM13.4433 2.50438C13.5573 2.62619 13.6791 2.75589 13.802 2.88672C13.9238 3.01305 14.0468 3.13939 14.1641 3.2691L14.2036 3.30855L13.9723 4.41277L13.0418 2.05997L13.4433 2.50438ZM14.0197 8.17885L12.8275 7.27427L13.8325 5.96139L14.0197 8.17885ZM12.4779 1.99116L13.7535 5.26547L12.4734 6.90432L11.1977 5.24403L12.4779 1.99116ZM12.1237 7.27427L10.9315 8.17885L11.1199 5.96139L12.1237 7.27427ZM10.7612 3.3176C11.0014 3.02999 11.2722 2.76494 11.5079 2.52582L11.8711 2.16939L10.9879 4.47369L10.7262 3.36046L10.7612 3.3176ZM10.8435 8.80934L12.4779 7.59232L14.1077 8.80934L14.842 11.9968L14.1077 15.1842L12.4779 16.4024L10.8435 15.1842L10.1104 11.9968L10.8435 8.80934ZM14.0197 15.8632L13.8325 18.0807L12.8275 16.7723L14.0197 15.8632ZM12.0978 16.7678L11.1233 18.0852L10.901 15.8632L12.0978 16.7678ZM10.2717 14.9891L9.04002 14.6451L9.76978 12.854L10.2717 14.9891ZM9.06597 9.39697L10.2976 9.05297L9.79122 11.1881L9.06597 9.39697ZM9.59495 4.70039C9.7867 4.45225 9.96602 4.22216 10.1623 3.98643L10.2976 3.82176L10.5999 5.0478H9.32764L9.59495 4.70039ZM9.08401 5.54408H10.6518L10.3947 8.50482L8.97913 8.90069L9.08401 5.54408ZM7.60195 8.04461C7.8343 7.50096 8.12191 6.96521 8.34975 6.55691L8.57193 6.15653L8.47607 8.76986L7.56698 8.12243L7.60195 8.04461ZM6.82484 10.888C6.89026 10.244 7.05606 9.54471 7.33127 8.7439L7.37977 8.60969L8.36217 9.27966L6.78536 11.258L6.82484 10.888ZM7.35832 15.3974C7.08312 14.6451 6.89476 13.8883 6.79888 13.154L6.75038 12.7716L8.35876 14.7804L7.4102 15.5418L7.35832 15.3974ZM8.34975 17.4637C8.03506 16.9246 7.82077 16.4937 7.64594 16.0674L7.61548 15.9941L8.47156 15.3061L8.57193 17.8416L8.34975 17.4637ZM8.64188 14.3101L6.79437 12.0227L8.64188 9.7094L9.5679 12.0227L8.64188 14.3101ZM10.3281 20.2508L10.1849 20.0816C9.948 19.7985 9.70436 19.5029 9.45961 19.168L9.33666 18.9943H10.5954L10.3281 20.2508ZM9.10545 18.498L8.97913 15.1459L10.3947 15.5373L10.6518 18.498H9.10545ZM11.5079 21.5377C11.3985 21.4159 11.2721 21.2907 11.1503 21.1553C11.0274 21.0335 10.9056 20.9027 10.7872 20.7775L10.7477 20.7335L10.98 19.6338L11.9105 21.9855L11.5079 21.5377ZM12.4734 22.0509L11.1977 18.7766L12.4779 17.1378L13.7535 18.798L12.4734 22.0509ZM14.19 20.7245C13.9498 21.0121 13.6836 21.2771 13.4478 21.5117L13.0847 21.8727L13.9633 19.5684L14.225 20.6816L14.19 20.7245ZM15.3529 19.3462C15.1645 19.5898 14.9852 19.8244 14.7935 20.0556L14.6536 20.2203L14.3524 18.9943H15.6236L15.3529 19.3462ZM15.8683 18.498H14.3265L14.5577 15.5373L15.9732 15.1459L15.8683 18.498ZM16.3093 14.3327L15.3833 12.0227L16.3093 9.73536L18.1568 12.0193L16.3093 14.3327ZM17.3493 15.9974C17.118 16.5411 16.8293 17.0802 16.6026 17.4851L16.3793 17.8889L16.4752 15.2711L17.3842 15.9196L17.3493 15.9974ZM18.1264 13.154C18.061 13.7969 17.8952 14.4973 17.62 15.3026L17.5715 15.4369L16.5891 14.7624L18.1659 12.784L18.1264 13.154ZM16.5936 9.26162L17.541 8.50482L17.594 8.64467C17.8692 9.39698 18.0565 10.1538 18.1535 10.888L18.2008 11.2704L16.5936 9.26162Z" fill="black" fill-opacity="0.2"/>
<path d="M18.2189 8.95259C17.9211 8.04802 17.5015 7.1175 16.9692 6.1915C16.5056 5.38279 16.095 4.77371 15.68 4.26954C15.3957 3.88719 15.0686 3.50029 14.6536 3.0559C14.4742 2.86077 14.287 2.66905 14.1246 2.50889C13.9148 2.29571 13.6971 2.08255 13.4828 1.87389C13.2911 1.69117 13.0982 1.50843 12.9065 1.32571L12.7486 1.18248C12.7316 1.16443 12.7136 1.14298 12.6922 1.12607C12.6392 1.06854 12.5873 1.02117 12.5309 1.00425C12.4609 0.986204 12.4124 1.02568 12.3166 1.12156L12.2861 1.14751C12.1767 1.25128 12.0628 1.35618 11.9534 1.45995L11.8925 1.51296C11.6082 1.76899 11.3252 2.04308 11.0409 2.32618C10.918 2.44799 10.8007 2.57318 10.6822 2.69951C10.5559 2.83937 10.4296 2.97811 10.2976 3.10894L10.2582 3.15631C9.95702 3.50032 9.64231 3.86125 9.35019 4.26053L9.18893 4.48271C9.04004 4.68235 8.88212 4.89551 8.72535 5.12221L8.71182 5.14366C8.70392 5.15719 8.69036 5.18315 8.66442 5.20458C8.62043 5.24857 8.58098 5.31736 8.54601 5.38278C8.52458 5.41323 8.50652 5.44819 8.48509 5.47413C8.41967 5.57903 8.35427 5.67827 8.28886 5.78316C8.15351 5.99634 8.02605 6.21741 7.89973 6.43509C7.63693 6.9043 7.4012 7.38368 7.20044 7.84838C6.76845 8.87025 6.49322 9.82672 6.36126 10.7663C6.30486 11.1881 6.27441 11.6099 6.27441 12.0227C6.27441 13.3063 6.55412 14.6327 7.10454 15.9636L7.11356 16.002C7.11356 16.0065 7.11357 16.011 7.13049 16.0369L7.15304 16.0719C7.53653 17.0069 8.04861 17.9465 8.67234 18.8679L8.71182 18.9074L8.82572 19.0642C9.00054 19.3157 9.16634 19.5548 9.34568 19.7725C9.93106 20.5294 10.5728 21.2557 11.2631 21.9381C11.6173 22.2855 11.9805 22.6159 12.338 22.9205C12.4079 22.9814 12.4688 23.004 12.5342 22.9994C12.6222 22.9904 12.6967 22.9205 12.7711 22.8517L12.8275 22.7987C12.9234 22.7164 13.0193 22.634 13.1118 22.5472C13.3915 22.29 13.6746 22.0159 13.9543 21.734C14.1776 21.5073 14.4438 21.2331 14.6976 20.9421C15.0032 20.5902 16.0996 19.2165 16.3139 18.9119C16.6725 18.3897 17.021 17.7987 17.3538 17.1547C17.506 16.8591 17.6459 16.5546 17.7767 16.2501C18.2234 15.1933 18.5065 14.2232 18.6385 13.2848C18.6949 12.8585 18.7253 12.4321 18.7253 12.0227C18.7253 11.0234 18.555 9.99252 18.2189 8.95259ZM16.6026 6.57835C16.9162 7.11749 17.1305 7.54835 17.3053 7.9747L17.3357 8.04802L16.4797 8.73602L16.3793 6.20052L16.6026 6.57835ZM14.6231 3.7913L14.7675 3.96048C15.0032 4.24809 15.248 4.53909 15.4927 4.87408L15.6146 5.0478H14.3569L14.6231 3.7913ZM15.8458 5.54408L15.9732 8.90069L14.5577 8.50482L14.2994 5.54408H15.8458ZM15.1555 11.1836L14.6795 9.05297L15.9123 9.39697L15.1555 11.1836ZM15.16 12.854L15.8852 14.6451L14.6536 14.9891L15.16 12.854ZM13.4433 2.50438C13.5573 2.62619 13.6791 2.75589 13.802 2.88672C13.9238 3.01305 14.0468 3.13939 14.1641 3.2691L14.2036 3.30855L13.9723 4.41277L13.0418 2.05997L13.4433 2.50438ZM14.0197 8.17885L12.8275 7.27427L13.8325 5.96139L14.0197 8.17885ZM12.4779 1.99116L13.7535 5.26547L12.4734 6.90432L11.1977 5.24403L12.4779 1.99116ZM12.1237 7.27427L10.9315 8.17885L11.1199 5.96139L12.1237 7.27427ZM10.7612 3.3176C11.0014 3.02999 11.2722 2.76494 11.5079 2.52582L11.8711 2.16939L10.9879 4.47369L10.7262 3.36046L10.7612 3.3176ZM10.8435 8.80934L12.4779 7.59232L14.1077 8.80934L14.842 11.9968L14.1077 15.1842L12.4779 16.4024L10.8435 15.1842L10.1104 11.9968L10.8435 8.80934ZM14.0197 15.8632L13.8325 18.0807L12.8275 16.7723L14.0197 15.8632ZM12.0978 16.7678L11.1233 18.0852L10.901 15.8632L12.0978 16.7678ZM10.2717 14.9891L9.04002 14.6451L9.76978 12.854L10.2717 14.9891ZM9.06597 9.39697L10.2976 9.05297L9.79122 11.1881L9.06597 9.39697ZM9.59495 4.70039C9.7867 4.45225 9.96602 4.22216 10.1623 3.98643L10.2976 3.82176L10.5999 5.0478H9.32764L9.59495 4.70039ZM9.08401 5.54408H10.6518L10.3947 8.50482L8.97913 8.90069L9.08401 5.54408ZM7.60195 8.04461C7.8343 7.50096 8.12191 6.96521 8.34975 6.55691L8.57193 6.15653L8.47607 8.76986L7.56698 8.12243L7.60195 8.04461ZM6.82484 10.888C6.89026 10.244 7.05606 9.54471 7.33127 8.7439L7.37977 8.60969L8.36217 9.27966L6.78536 11.258L6.82484 10.888ZM7.35832 15.3974C7.08312 14.6451 6.89476 13.8883 6.79888 13.154L6.75038 12.7716L8.35876 14.7804L7.4102 15.5418L7.35832 15.3974ZM8.34975 17.4637C8.03506 16.9246 7.82077 16.4937 7.64594 16.0674L7.61548 15.9941L8.47156 15.3061L8.57193 17.8416L8.34975 17.4637ZM8.64188 14.3101L6.79437 12.0227L8.64188 9.7094L9.5679 12.0227L8.64188 14.3101ZM10.3281 20.2508L10.1849 20.0816C9.948 19.7985 9.70436 19.5029 9.45961 19.168L9.33666 18.9943H10.5954L10.3281 20.2508ZM9.10545 18.498L8.97913 15.1459L10.3947 15.5373L10.6518 18.498H9.10545ZM11.5079 21.5377C11.3985 21.4159 11.2721 21.2907 11.1503 21.1553C11.0274 21.0335 10.9056 20.9027 10.7872 20.7775L10.7477 20.7335L10.98 19.6338L11.9105 21.9855L11.5079 21.5377ZM12.4734 22.0509L11.1977 18.7766L12.4779 17.1378L13.7535 18.798L12.4734 22.0509ZM14.19 20.7245C13.9498 21.0121 13.6836 21.2771 13.4478 21.5117L13.0847 21.8727L13.9633 19.5684L14.225 20.6816L14.19 20.7245ZM15.3529 19.3462C15.1645 19.5898 14.9852 19.8244 14.7935 20.0556L14.6536 20.2203L14.3524 18.9943H15.6236L15.3529 19.3462ZM15.8683 18.498H14.3265L14.5577 15.5373L15.9732 15.1459L15.8683 18.498ZM16.3093 14.3327L15.3833 12.0227L16.3093 9.73536L18.1568 12.0193L16.3093 14.3327ZM17.3493 15.9974C17.118 16.5411 16.8293 17.0802 16.6026 17.4851L16.3793 17.8889L16.4752 15.2711L17.3842 15.9196L17.3493 15.9974ZM18.1264 13.154C18.061 13.7969 17.8952 14.4973 17.62 15.3026L17.5715 15.4369L16.5891 14.7624L18.1659 12.784L18.1264 13.154ZM16.5936 9.26162L17.541 8.50482L17.594 8.64467C17.8692 9.39698 18.0565 10.1538 18.1535 10.888L18.2008 11.2704L16.5936 9.26162Z" stroke="#333335" stroke-width="0.22"/>
<path d="M18.2189 8.95259C17.9211 8.04802 17.5015 7.1175 16.9692 6.1915C16.5056 5.38279 16.095 4.77371 15.68 4.26954C15.3957 3.88719 15.0686 3.50029 14.6536 3.0559C14.4742 2.86077 14.287 2.66905 14.1246 2.50889C13.9148 2.29571 13.6971 2.08255 13.4828 1.87389C13.2911 1.69117 13.0982 1.50843 12.9065 1.32571L12.7486 1.18248C12.7316 1.16443 12.7136 1.14298 12.6922 1.12607C12.6392 1.06854 12.5873 1.02117 12.5309 1.00425C12.4609 0.986204 12.4124 1.02568 12.3166 1.12156L12.2861 1.14751C12.1767 1.25128 12.0628 1.35618 11.9534 1.45995L11.8925 1.51296C11.6082 1.76899 11.3252 2.04308 11.0409 2.32618C10.918 2.44799 10.8007 2.57318 10.6822 2.69951C10.5559 2.83937 10.4296 2.97811 10.2976 3.10894L10.2582 3.15631C9.95702 3.50032 9.64231 3.86125 9.35019 4.26053L9.18893 4.48271C9.04004 4.68235 8.88212 4.89551 8.72535 5.12221L8.71182 5.14366C8.70392 5.15719 8.69036 5.18315 8.66442 5.20458C8.62043 5.24857 8.58098 5.31736 8.54601 5.38278C8.52458 5.41323 8.50652 5.44819 8.48509 5.47413C8.41967 5.57903 8.35427 5.67827 8.28886 5.78316C8.15351 5.99634 8.02605 6.21741 7.89973 6.43509C7.63693 6.9043 7.4012 7.38368 7.20044 7.84838C6.76845 8.87025 6.49322 9.82672 6.36126 10.7663C6.30486 11.1881 6.27441 11.6099 6.27441 12.0227C6.27441 13.3063 6.55412 14.6327 7.10454 15.9636L7.11356 16.002C7.11356 16.0065 7.11357 16.011 7.13049 16.0369L7.15304 16.0719C7.53653 17.0069 8.04861 17.9465 8.67234 18.8679L8.71182 18.9074L8.82572 19.0642C9.00054 19.3157 9.16634 19.5548 9.34568 19.7725C9.93106 20.5294 10.5728 21.2557 11.2631 21.9381C11.6173 22.2855 11.9805 22.6159 12.338 22.9205C12.4079 22.9814 12.4688 23.004 12.5342 22.9994C12.6222 22.9904 12.6967 22.9205 12.7711 22.8517L12.8275 22.7987C12.9234 22.7164 13.0193 22.634 13.1118 22.5472C13.3915 22.29 13.6746 22.0159 13.9543 21.734C14.1776 21.5073 14.4438 21.2331 14.6976 20.9421C15.0032 20.5902 16.0996 19.2165 16.3139 18.9119C16.6725 18.3897 17.021 17.7987 17.3538 17.1547C17.506 16.8591 17.6459 16.5546 17.7767 16.2501C18.2234 15.1933 18.5065 14.2232 18.6385 13.2848C18.6949 12.8585 18.7253 12.4321 18.7253 12.0227C18.7253 11.0234 18.555 9.99252 18.2189 8.95259ZM16.6026 6.57835C16.9162 7.11749 17.1305 7.54835 17.3053 7.9747L17.3357 8.04802L16.4797 8.73602L16.3793 6.20052L16.6026 6.57835ZM14.6231 3.7913L14.7675 3.96048C15.0032 4.24809 15.248 4.53909 15.4927 4.87408L15.6146 5.0478H14.3569L14.6231 3.7913ZM15.8458 5.54408L15.9732 8.90069L14.5577 8.50482L14.2994 5.54408H15.8458ZM15.1555 11.1836L14.6795 9.05297L15.9123 9.39697L15.1555 11.1836ZM15.16 12.854L15.8852 14.6451L14.6536 14.9891L15.16 12.854ZM13.4433 2.50438C13.5573 2.62619 13.6791 2.75589 13.802 2.88672C13.9238 3.01305 14.0468 3.13939 14.1641 3.2691L14.2036 3.30855L13.9723 4.41277L13.0418 2.05997L13.4433 2.50438ZM14.0197 8.17885L12.8275 7.27427L13.8325 5.96139L14.0197 8.17885ZM12.4779 1.99116L13.7535 5.26547L12.4734 6.90432L11.1977 5.24403L12.4779 1.99116ZM12.1237 7.27427L10.9315 8.17885L11.1199 5.96139L12.1237 7.27427ZM10.7612 3.3176C11.0014 3.02999 11.2722 2.76494 11.5079 2.52582L11.8711 2.16939L10.9879 4.47369L10.7262 3.36046L10.7612 3.3176ZM10.8435 8.80934L12.4779 7.59232L14.1077 8.80934L14.842 11.9968L14.1077 15.1842L12.4779 16.4024L10.8435 15.1842L10.1104 11.9968L10.8435 8.80934ZM14.0197 15.8632L13.8325 18.0807L12.8275 16.7723L14.0197 15.8632ZM12.0978 16.7678L11.1233 18.0852L10.901 15.8632L12.0978 16.7678ZM10.2717 14.9891L9.04002 14.6451L9.76978 12.854L10.2717 14.9891ZM9.06597 9.39697L10.2976 9.05297L9.79122 11.1881L9.06597 9.39697ZM9.59495 4.70039C9.7867 4.45225 9.96602 4.22216 10.1623 3.98643L10.2976 3.82176L10.5999 5.0478H9.32764L9.59495 4.70039ZM9.08401 5.54408H10.6518L10.3947 8.50482L8.97913 8.90069L9.08401 5.54408ZM7.60195 8.04461C7.8343 7.50096 8.12191 6.96521 8.34975 6.55691L8.57193 6.15653L8.47607 8.76986L7.56698 8.12243L7.60195 8.04461ZM6.82484 10.888C6.89026 10.244 7.05606 9.54471 7.33127 8.7439L7.37977 8.60969L8.36217 9.27966L6.78536 11.258L6.82484 10.888ZM7.35832 15.3974C7.08312 14.6451 6.89476 13.8883 6.79888 13.154L6.75038 12.7716L8.35876 14.7804L7.4102 15.5418L7.35832 15.3974ZM8.34975 17.4637C8.03506 16.9246 7.82077 16.4937 7.64594 16.0674L7.61548 15.9941L8.47156 15.3061L8.57193 17.8416L8.34975 17.4637ZM8.64188 14.3101L6.79437 12.0227L8.64188 9.7094L9.5679 12.0227L8.64188 14.3101ZM10.3281 20.2508L10.1849 20.0816C9.948 19.7985 9.70436 19.5029 9.45961 19.168L9.33666 18.9943H10.5954L10.3281 20.2508ZM9.10545 18.498L8.97913 15.1459L10.3947 15.5373L10.6518 18.498H9.10545ZM11.5079 21.5377C11.3985 21.4159 11.2721 21.2907 11.1503 21.1553C11.0274 21.0335 10.9056 20.9027 10.7872 20.7775L10.7477 20.7335L10.98 19.6338L11.9105 21.9855L11.5079 21.5377ZM12.4734 22.0509L11.1977 18.7766L12.4779 17.1378L13.7535 18.798L12.4734 22.0509ZM14.19 20.7245C13.9498 21.0121 13.6836 21.2771 13.4478 21.5117L13.0847 21.8727L13.9633 19.5684L14.225 20.6816L14.19 20.7245ZM15.3529 19.3462C15.1645 19.5898 14.9852 19.8244 14.7935 20.0556L14.6536 20.2203L14.3524 18.9943H15.6236L15.3529 19.3462ZM15.8683 18.498H14.3265L14.5577 15.5373L15.9732 15.1459L15.8683 18.498ZM16.3093 14.3327L15.3833 12.0227L16.3093 9.73536L18.1568 12.0193L16.3093 14.3327ZM17.3493 15.9974C17.118 16.5411 16.8293 17.0802 16.6026 17.4851L16.3793 17.8889L16.4752 15.2711L17.3842 15.9196L17.3493 15.9974ZM18.1264 13.154C18.061 13.7969 17.8952 14.4973 17.62 15.3026L17.5715 15.4369L16.5891 14.7624L18.1659 12.784L18.1264 13.154ZM16.5936 9.26162L17.541 8.50482L17.594 8.64467C17.8692 9.39698 18.0565 10.1538 18.1535 10.888L18.2008 11.2704L16.5936 9.26162Z" stroke="black" stroke-opacity="0.2" stroke-width="0.22"/>
<path d="M18.2189 8.95259C17.9211 8.04802 17.5015 7.1175 16.9692 6.1915C16.5056 5.38279 16.095 4.77371 15.68 4.26954C15.3957 3.88719 15.0686 3.50029 14.6536 3.0559C14.4742 2.86077 14.287 2.66905 14.1246 2.50889C13.9148 2.29571 13.6971 2.08255 13.4828 1.87389C13.2911 1.69117 13.0982 1.50843 12.9065 1.32571L12.7486 1.18248C12.7316 1.16443 12.7136 1.14298 12.6922 1.12607C12.6392 1.06854 12.5873 1.02117 12.5309 1.00425C12.4609 0.986204 12.4124 1.02568 12.3166 1.12156L12.2861 1.14751C12.1767 1.25128 12.0628 1.35618 11.9534 1.45995L11.8925 1.51296C11.6082 1.76899 11.3252 2.04308 11.0409 2.32618C10.918 2.44799 10.8007 2.57318 10.6822 2.69951C10.5559 2.83937 10.4296 2.97811 10.2976 3.10894L10.2582 3.15631C9.95702 3.50032 9.64231 3.86125 9.35019 4.26053L9.18893 4.48271C9.04004 4.68235 8.88212 4.89551 8.72535 5.12221L8.71182 5.14366C8.70392 5.15719 8.69036 5.18315 8.66442 5.20458C8.62043 5.24857 8.58098 5.31736 8.54601 5.38278C8.52458 5.41323 8.50652 5.44819 8.48509 5.47413C8.41967 5.57903 8.35427 5.67827 8.28886 5.78316C8.15351 5.99634 8.02605 6.21741 7.89973 6.43509C7.63693 6.9043 7.4012 7.38368 7.20044 7.84838C6.76845 8.87025 6.49322 9.82672 6.36126 10.7663C6.30486 11.1881 6.27441 11.6099 6.27441 12.0227C6.27441 13.3063 6.55412 14.6327 7.10454 15.9636L7.11356 16.002C7.11356 16.0065 7.11357 16.011 7.13049 16.0369L7.15304 16.0719C7.53653 17.0069 8.04861 17.9465 8.67234 18.8679L8.71182 18.9074L8.82572 19.0642C9.00054 19.3157 9.16634 19.5548 9.34568 19.7725C9.93106 20.5294 10.5728 21.2557 11.2631 21.9381C11.6173 22.2855 11.9805 22.6159 12.338 22.9205C12.4079 22.9814 12.4688 23.004 12.5342 22.9994C12.6222 22.9904 12.6967 22.9205 12.7711 22.8517L12.8275 22.7987C12.9234 22.7164 13.0193 22.634 13.1118 22.5472C13.3915 22.29 13.6746 22.0159 13.9543 21.734C14.1776 21.5073 14.4438 21.2331 14.6976 20.9421C15.0032 20.5902 16.0996 19.2165 16.3139 18.9119C16.6725 18.3897 17.021 17.7987 17.3538 17.1547C17.506 16.8591 17.6459 16.5546 17.7767 16.2501C18.2234 15.1933 18.5065 14.2232 18.6385 13.2848C18.6949 12.8585 18.7253 12.4321 18.7253 12.0227C18.7253 11.0234 18.555 9.99252 18.2189 8.95259ZM16.6026 6.57835C16.9162 7.11749 17.1305 7.54835 17.3053 7.9747L17.3357 8.04802L16.4797 8.73602L16.3793 6.20052L16.6026 6.57835ZM14.6231 3.7913L14.7675 3.96048C15.0032 4.24809 15.248 4.53909 15.4927 4.87408L15.6146 5.0478H14.3569L14.6231 3.7913ZM15.8458 5.54408L15.9732 8.90069L14.5577 8.50482L14.2994 5.54408H15.8458ZM15.1555 11.1836L14.6795 9.05297L15.9123 9.39697L15.1555 11.1836ZM15.16 12.854L15.8852 14.6451L14.6536 14.9891L15.16 12.854ZM13.4433 2.50438C13.5573 2.62619 13.6791 2.75589 13.802 2.88672C13.9238 3.01305 14.0468 3.13939 14.1641 3.2691L14.2036 3.30855L13.9723 4.41277L13.0418 2.05997L13.4433 2.50438ZM14.0197 8.17885L12.8275 7.27427L13.8325 5.96139L14.0197 8.17885ZM12.4779 1.99116L13.7535 5.26547L12.4734 6.90432L11.1977 5.24403L12.4779 1.99116ZM12.1237 7.27427L10.9315 8.17885L11.1199 5.96139L12.1237 7.27427ZM10.7612 3.3176C11.0014 3.02999 11.2722 2.76494 11.5079 2.52582L11.8711 2.16939L10.9879 4.47369L10.7262 3.36046L10.7612 3.3176ZM10.8435 8.80934L12.4779 7.59232L14.1077 8.80934L14.842 11.9968L14.1077 15.1842L12.4779 16.4024L10.8435 15.1842L10.1104 11.9968L10.8435 8.80934ZM14.0197 15.8632L13.8325 18.0807L12.8275 16.7723L14.0197 15.8632ZM12.0978 16.7678L11.1233 18.0852L10.901 15.8632L12.0978 16.7678ZM10.2717 14.9891L9.04002 14.6451L9.76978 12.854L10.2717 14.9891ZM9.06597 9.39697L10.2976 9.05297L9.79122 11.1881L9.06597 9.39697ZM9.59495 4.70039C9.7867 4.45225 9.96602 4.22216 10.1623 3.98643L10.2976 3.82176L10.5999 5.0478H9.32764L9.59495 4.70039ZM9.08401 5.54408H10.6518L10.3947 8.50482L8.97913 8.90069L9.08401 5.54408ZM7.60195 8.04461C7.8343 7.50096 8.12191 6.96521 8.34975 6.55691L8.57193 6.15653L8.47607 8.76986L7.56698 8.12243L7.60195 8.04461ZM6.82484 10.888C6.89026 10.244 7.05606 9.54471 7.33127 8.7439L7.37977 8.60969L8.36217 9.27966L6.78536 11.258L6.82484 10.888ZM7.35832 15.3974C7.08312 14.6451 6.89476 13.8883 6.79888 13.154L6.75038 12.7716L8.35876 14.7804L7.4102 15.5418L7.35832 15.3974ZM8.34975 17.4637C8.03506 16.9246 7.82077 16.4937 7.64594 16.0674L7.61548 15.9941L8.47156 15.3061L8.57193 17.8416L8.34975 17.4637ZM8.64188 14.3101L6.79437 12.0227L8.64188 9.7094L9.5679 12.0227L8.64188 14.3101ZM10.3281 20.2508L10.1849 20.0816C9.948 19.7985 9.70436 19.5029 9.45961 19.168L9.33666 18.9943H10.5954L10.3281 20.2508ZM9.10545 18.498L8.97913 15.1459L10.3947 15.5373L10.6518 18.498H9.10545ZM11.5079 21.5377C11.3985 21.4159 11.2721 21.2907 11.1503 21.1553C11.0274 21.0335 10.9056 20.9027 10.7872 20.7775L10.7477 20.7335L10.98 19.6338L11.9105 21.9855L11.5079 21.5377ZM12.4734 22.0509L11.1977 18.7766L12.4779 17.1378L13.7535 18.798L12.4734 22.0509ZM14.19 20.7245C13.9498 21.0121 13.6836 21.2771 13.4478 21.5117L13.0847 21.8727L13.9633 19.5684L14.225 20.6816L14.19 20.7245ZM15.3529 19.3462C15.1645 19.5898 14.9852 19.8244 14.7935 20.0556L14.6536 20.2203L14.3524 18.9943H15.6236L15.3529 19.3462ZM15.8683 18.498H14.3265L14.5577 15.5373L15.9732 15.1459L15.8683 18.498ZM16.3093 14.3327L15.3833 12.0227L16.3093 9.73536L18.1568 12.0193L16.3093 14.3327ZM17.3493 15.9974C17.118 16.5411 16.8293 17.0802 16.6026 17.4851L16.3793 17.8889L16.4752 15.2711L17.3842 15.9196L17.3493 15.9974ZM18.1264 13.154C18.061 13.7969 17.8952 14.4973 17.62 15.3026L17.5715 15.4369L16.5891 14.7624L18.1659 12.784L18.1264 13.154ZM16.5936 9.26162L17.541 8.50482L17.594 8.64467C17.8692 9.39698 18.0565 10.1538 18.1535 10.888L18.2008 11.2704L16.5936 9.26162Z" stroke="black" stroke-opacity="0.2" stroke-width="0.22"/>
<path d="M18.2189 8.95259C17.9211 8.04802 17.5015 7.1175 16.9692 6.1915C16.5056 5.38279 16.095 4.77371 15.68 4.26954C15.3957 3.88719 15.0686 3.50029 14.6536 3.0559C14.4742 2.86077 14.287 2.66905 14.1246 2.50889C13.9148 2.29571 13.6971 2.08255 13.4828 1.87389C13.2911 1.69117 13.0982 1.50843 12.9065 1.32571L12.7486 1.18248C12.7316 1.16443 12.7136 1.14298 12.6922 1.12607C12.6392 1.06854 12.5873 1.02117 12.5309 1.00425C12.4609 0.986204 12.4124 1.02568 12.3166 1.12156L12.2861 1.14751C12.1767 1.25128 12.0628 1.35618 11.9534 1.45995L11.8925 1.51296C11.6082 1.76899 11.3252 2.04308 11.0409 2.32618C10.918 2.44799 10.8007 2.57318 10.6822 2.69951C10.5559 2.83937 10.4296 2.97811 10.2976 3.10894L10.2582 3.15631C9.95702 3.50032 9.64231 3.86125 9.35019 4.26053L9.18893 4.48271C9.04004 4.68235 8.88212 4.89551 8.72535 5.12221L8.71182 5.14366C8.70392 5.15719 8.69036 5.18315 8.66442 5.20458C8.62043 5.24857 8.58098 5.31736 8.54601 5.38278C8.52458 5.41323 8.50652 5.44819 8.48509 5.47413C8.41967 5.57903 8.35427 5.67827 8.28886 5.78316C8.15351 5.99634 8.02605 6.21741 7.89973 6.43509C7.63693 6.9043 7.4012 7.38368 7.20044 7.84838C6.76845 8.87025 6.49322 9.82672 6.36126 10.7663C6.30486 11.1881 6.27441 11.6099 6.27441 12.0227C6.27441 13.3063 6.55412 14.6327 7.10454 15.9636L7.11356 16.002C7.11356 16.0065 7.11357 16.011 7.13049 16.0369L7.15304 16.0719C7.53653 17.0069 8.04861 17.9465 8.67234 18.8679L8.71182 18.9074L8.82572 19.0642C9.00054 19.3157 9.16634 19.5548 9.34568 19.7725C9.93106 20.5294 10.5728 21.2557 11.2631 21.9381C11.6173 22.2855 11.9805 22.6159 12.338 22.9205C12.4079 22.9814 12.4688 23.004 12.5342 22.9994C12.6222 22.9904 12.6967 22.9205 12.7711 22.8517L12.8275 22.7987C12.9234 22.7164 13.0193 22.634 13.1118 22.5472C13.3915 22.29 13.6746 22.0159 13.9543 21.734C14.1776 21.5073 14.4438 21.2331 14.6976 20.9421C15.0032 20.5902 16.0996 19.2165 16.3139 18.9119C16.6725 18.3897 17.021 17.7987 17.3538 17.1547C17.506 16.8591 17.6459 16.5546 17.7767 16.2501C18.2234 15.1933 18.5065 14.2232 18.6385 13.2848C18.6949 12.8585 18.7253 12.4321 18.7253 12.0227C18.7253 11.0234 18.555 9.99252 18.2189 8.95259ZM16.6026 6.57835C16.9162 7.11749 17.1305 7.54835 17.3053 7.9747L17.3357 8.04802L16.4797 8.73602L16.3793 6.20052L16.6026 6.57835ZM14.6231 3.7913L14.7675 3.96048C15.0032 4.24809 15.248 4.53909 15.4927 4.87408L15.6146 5.0478H14.3569L14.6231 3.7913ZM15.8458 5.54408L15.9732 8.90069L14.5577 8.50482L14.2994 5.54408H15.8458ZM15.1555 11.1836L14.6795 9.05297L15.9123 9.39697L15.1555 11.1836ZM15.16 12.854L15.8852 14.6451L14.6536 14.9891L15.16 12.854ZM13.4433 2.50438C13.5573 2.62619 13.6791 2.75589 13.802 2.88672C13.9238 3.01305 14.0468 3.13939 14.1641 3.2691L14.2036 3.30855L13.9723 4.41277L13.0418 2.05997L13.4433 2.50438ZM14.0197 8.17885L12.8275 7.27427L13.8325 5.96139L14.0197 8.17885ZM12.4779 1.99116L13.7535 5.26547L12.4734 6.90432L11.1977 5.24403L12.4779 1.99116ZM12.1237 7.27427L10.9315 8.17885L11.1199 5.96139L12.1237 7.27427ZM10.7612 3.3176C11.0014 3.02999 11.2722 2.76494 11.5079 2.52582L11.8711 2.16939L10.9879 4.47369L10.7262 3.36046L10.7612 3.3176ZM10.8435 8.80934L12.4779 7.59232L14.1077 8.80934L14.842 11.9968L14.1077 15.1842L12.4779 16.4024L10.8435 15.1842L10.1104 11.9968L10.8435 8.80934ZM14.0197 15.8632L13.8325 18.0807L12.8275 16.7723L14.0197 15.8632ZM12.0978 16.7678L11.1233 18.0852L10.901 15.8632L12.0978 16.7678ZM10.2717 14.9891L9.04002 14.6451L9.76978 12.854L10.2717 14.9891ZM9.06597 9.39697L10.2976 9.05297L9.79122 11.1881L9.06597 9.39697ZM9.59495 4.70039C9.7867 4.45225 9.96602 4.22216 10.1623 3.98643L10.2976 3.82176L10.5999 5.0478H9.32764L9.59495 4.70039ZM9.08401 5.54408H10.6518L10.3947 8.50482L8.97913 8.90069L9.08401 5.54408ZM7.60195 8.04461C7.8343 7.50096 8.12191 6.96521 8.34975 6.55691L8.57193 6.15653L8.47607 8.76986L7.56698 8.12243L7.60195 8.04461ZM6.82484 10.888C6.89026 10.244 7.05606 9.54471 7.33127 8.7439L7.37977 8.60969L8.36217 9.27966L6.78536 11.258L6.82484 10.888ZM7.35832 15.3974C7.08312 14.6451 6.89476 13.8883 6.79888 13.154L6.75038 12.7716L8.35876 14.7804L7.4102 15.5418L7.35832 15.3974ZM8.34975 17.4637C8.03506 16.9246 7.82077 16.4937 7.64594 16.0674L7.61548 15.9941L8.47156 15.3061L8.57193 17.8416L8.34975 17.4637ZM8.64188 14.3101L6.79437 12.0227L8.64188 9.7094L9.5679 12.0227L8.64188 14.3101ZM10.3281 20.2508L10.1849 20.0816C9.948 19.7985 9.70436 19.5029 9.45961 19.168L9.33666 18.9943H10.5954L10.3281 20.2508ZM9.10545 18.498L8.97913 15.1459L10.3947 15.5373L10.6518 18.498H9.10545ZM11.5079 21.5377C11.3985 21.4159 11.2721 21.2907 11.1503 21.1553C11.0274 21.0335 10.9056 20.9027 10.7872 20.7775L10.7477 20.7335L10.98 19.6338L11.9105 21.9855L11.5079 21.5377ZM12.4734 22.0509L11.1977 18.7766L12.4779 17.1378L13.7535 18.798L12.4734 22.0509ZM14.19 20.7245C13.9498 21.0121 13.6836 21.2771 13.4478 21.5117L13.0847 21.8727L13.9633 19.5684L14.225 20.6816L14.19 20.7245ZM15.3529 19.3462C15.1645 19.5898 14.9852 19.8244 14.7935 20.0556L14.6536 20.2203L14.3524 18.9943H15.6236L15.3529 19.3462ZM15.8683 18.498H14.3265L14.5577 15.5373L15.9732 15.1459L15.8683 18.498ZM16.3093 14.3327L15.3833 12.0227L16.3093 9.73536L18.1568 12.0193L16.3093 14.3327ZM17.3493 15.9974C17.118 16.5411 16.8293 17.0802 16.6026 17.4851L16.3793 17.8889L16.4752 15.2711L17.3842 15.9196L17.3493 15.9974ZM18.1264 13.154C18.061 13.7969 17.8952 14.4973 17.62 15.3026L17.5715 15.4369L16.5891 14.7624L18.1659 12.784L18.1264 13.154ZM16.5936 9.26162L17.541 8.50482L17.594 8.64467C17.8692 9.39698 18.0565 10.1538 18.1535 10.888L18.2008 11.2704L16.5936 9.26162Z" stroke="black" stroke-opacity="0.2" stroke-width="0.22"/>
<path d="M18.2189 8.95259C17.9211 8.04802 17.5015 7.1175 16.9692 6.1915C16.5056 5.38279 16.095 4.77371 15.68 4.26954C15.3957 3.88719 15.0686 3.50029 14.6536 3.0559C14.4742 2.86077 14.287 2.66905 14.1246 2.50889C13.9148 2.29571 13.6971 2.08255 13.4828 1.87389C13.2911 1.69117 13.0982 1.50843 12.9065 1.32571L12.7486 1.18248C12.7316 1.16443 12.7136 1.14298 12.6922 1.12607C12.6392 1.06854 12.5873 1.02117 12.5309 1.00425C12.4609 0.986204 12.4124 1.02568 12.3166 1.12156L12.2861 1.14751C12.1767 1.25128 12.0628 1.35618 11.9534 1.45995L11.8925 1.51296C11.6082 1.76899 11.3252 2.04308 11.0409 2.32618C10.918 2.44799 10.8007 2.57318 10.6822 2.69951C10.5559 2.83937 10.4296 2.97811 10.2976 3.10894L10.2582 3.15631C9.95702 3.50032 9.64231 3.86125 9.35019 4.26053L9.18893 4.48271C9.04004 4.68235 8.88212 4.89551 8.72535 5.12221L8.71182 5.14366C8.70392 5.15719 8.69036 5.18315 8.66442 5.20458C8.62043 5.24857 8.58098 5.31736 8.54601 5.38278C8.52458 5.41323 8.50652 5.44819 8.48509 5.47413C8.41967 5.57903 8.35427 5.67827 8.28886 5.78316C8.15351 5.99634 8.02605 6.21741 7.89973 6.43509C7.63693 6.9043 7.4012 7.38368 7.20044 7.84838C6.76845 8.87025 6.49322 9.82672 6.36126 10.7663C6.30486 11.1881 6.27441 11.6099 6.27441 12.0227C6.27441 13.3063 6.55412 14.6327 7.10454 15.9636L7.11356 16.002C7.11356 16.0065 7.11357 16.011 7.13049 16.0369L7.15304 16.0719C7.53653 17.0069 8.04861 17.9465 8.67234 18.8679L8.71182 18.9074L8.82572 19.0642C9.00054 19.3157 9.16634 19.5548 9.34568 19.7725C9.93106 20.5294 10.5728 21.2557 11.2631 21.9381C11.6173 22.2855 11.9805 22.6159 12.338 22.9205C12.4079 22.9814 12.4688 23.004 12.5342 22.9994C12.6222 22.9904 12.6967 22.9205 12.7711 22.8517L12.8275 22.7987C12.9234 22.7164 13.0193 22.634 13.1118 22.5472C13.3915 22.29 13.6746 22.0159 13.9543 21.734C14.1776 21.5073 14.4438 21.2331 14.6976 20.9421C15.0032 20.5902 16.0996 19.2165 16.3139 18.9119C16.6725 18.3897 17.021 17.7987 17.3538 17.1547C17.506 16.8591 17.6459 16.5546 17.7767 16.2501C18.2234 15.1933 18.5065 14.2232 18.6385 13.2848C18.6949 12.8585 18.7253 12.4321 18.7253 12.0227C18.7253 11.0234 18.555 9.99252 18.2189 8.95259ZM16.6026 6.57835C16.9162 7.11749 17.1305 7.54835 17.3053 7.9747L17.3357 8.04802L16.4797 8.73602L16.3793 6.20052L16.6026 6.57835ZM14.6231 3.7913L14.7675 3.96048C15.0032 4.24809 15.248 4.53909 15.4927 4.87408L15.6146 5.0478H14.3569L14.6231 3.7913ZM15.8458 5.54408L15.9732 8.90069L14.5577 8.50482L14.2994 5.54408H15.8458ZM15.1555 11.1836L14.6795 9.05297L15.9123 9.39697L15.1555 11.1836ZM15.16 12.854L15.8852 14.6451L14.6536 14.9891L15.16 12.854ZM13.4433 2.50438C13.5573 2.62619 13.6791 2.75589 13.802 2.88672C13.9238 3.01305 14.0468 3.13939 14.1641 3.2691L14.2036 3.30855L13.9723 4.41277L13.0418 2.05997L13.4433 2.50438ZM14.0197 8.17885L12.8275 7.27427L13.8325 5.96139L14.0197 8.17885ZM12.4779 1.99116L13.7535 5.26547L12.4734 6.90432L11.1977 5.24403L12.4779 1.99116ZM12.1237 7.27427L10.9315 8.17885L11.1199 5.96139L12.1237 7.27427ZM10.7612 3.3176C11.0014 3.02999 11.2722 2.76494 11.5079 2.52582L11.8711 2.16939L10.9879 4.47369L10.7262 3.36046L10.7612 3.3176ZM10.8435 8.80934L12.4779 7.59232L14.1077 8.80934L14.842 11.9968L14.1077 15.1842L12.4779 16.4024L10.8435 15.1842L10.1104 11.9968L10.8435 8.80934ZM14.0197 15.8632L13.8325 18.0807L12.8275 16.7723L14.0197 15.8632ZM12.0978 16.7678L11.1233 18.0852L10.901 15.8632L12.0978 16.7678ZM10.2717 14.9891L9.04002 14.6451L9.76978 12.854L10.2717 14.9891ZM9.06597 9.39697L10.2976 9.05297L9.79122 11.1881L9.06597 9.39697ZM9.59495 4.70039C9.7867 4.45225 9.96602 4.22216 10.1623 3.98643L10.2976 3.82176L10.5999 5.0478H9.32764L9.59495 4.70039ZM9.08401 5.54408H10.6518L10.3947 8.50482L8.97913 8.90069L9.08401 5.54408ZM7.60195 8.04461C7.8343 7.50096 8.12191 6.96521 8.34975 6.55691L8.57193 6.15653L8.47607 8.76986L7.56698 8.12243L7.60195 8.04461ZM6.82484 10.888C6.89026 10.244 7.05606 9.54471 7.33127 8.7439L7.37977 8.60969L8.36217 9.27966L6.78536 11.258L6.82484 10.888ZM7.35832 15.3974C7.08312 14.6451 6.89476 13.8883 6.79888 13.154L6.75038 12.7716L8.35876 14.7804L7.4102 15.5418L7.35832 15.3974ZM8.34975 17.4637C8.03506 16.9246 7.82077 16.4937 7.64594 16.0674L7.61548 15.9941L8.47156 15.3061L8.57193 17.8416L8.34975 17.4637ZM8.64188 14.3101L6.79437 12.0227L8.64188 9.7094L9.5679 12.0227L8.64188 14.3101ZM10.3281 20.2508L10.1849 20.0816C9.948 19.7985 9.70436 19.5029 9.45961 19.168L9.33666 18.9943H10.5954L10.3281 20.2508ZM9.10545 18.498L8.97913 15.1459L10.3947 15.5373L10.6518 18.498H9.10545ZM11.5079 21.5377C11.3985 21.4159 11.2721 21.2907 11.1503 21.1553C11.0274 21.0335 10.9056 20.9027 10.7872 20.7775L10.7477 20.7335L10.98 19.6338L11.9105 21.9855L11.5079 21.5377ZM12.4734 22.0509L11.1977 18.7766L12.4779 17.1378L13.7535 18.798L12.4734 22.0509ZM14.19 20.7245C13.9498 21.0121 13.6836 21.2771 13.4478 21.5117L13.0847 21.8727L13.9633 19.5684L14.225 20.6816L14.19 20.7245ZM15.3529 19.3462C15.1645 19.5898 14.9852 19.8244 14.7935 20.0556L14.6536 20.2203L14.3524 18.9943H15.6236L15.3529 19.3462ZM15.8683 18.498H14.3265L14.5577 15.5373L15.9732 15.1459L15.8683 18.498ZM16.3093 14.3327L15.3833 12.0227L16.3093 9.73536L18.1568 12.0193L16.3093 14.3327ZM17.3493 15.9974C17.118 16.5411 16.8293 17.0802 16.6026 17.4851L16.3793 17.8889L16.4752 15.2711L17.3842 15.9196L17.3493 15.9974ZM18.1264 13.154C18.061 13.7969 17.8952 14.4973 17.62 15.3026L17.5715 15.4369L16.5891 14.7624L18.1659 12.784L18.1264 13.154ZM16.5936 9.26162L17.541 8.50482L17.594 8.64467C17.8692 9.39698 18.0565 10.1538 18.1535 10.888L18.2008 11.2704L16.5936 9.26162Z" stroke="black" stroke-opacity="0.2" stroke-width="0.22"/>
<path d="M18.2189 8.95259C17.9211 8.04802 17.5015 7.1175 16.9692 6.1915C16.5056 5.38279 16.095 4.77371 15.68 4.26954C15.3957 3.88719 15.0686 3.50029 14.6536 3.0559C14.4742 2.86077 14.287 2.66905 14.1246 2.50889C13.9148 2.29571 13.6971 2.08255 13.4828 1.87389C13.2911 1.69117 13.0982 1.50843 12.9065 1.32571L12.7486 1.18248C12.7316 1.16443 12.7136 1.14298 12.6922 1.12607C12.6392 1.06854 12.5873 1.02117 12.5309 1.00425C12.4609 0.986204 12.4124 1.02568 12.3166 1.12156L12.2861 1.14751C12.1767 1.25128 12.0628 1.35618 11.9534 1.45995L11.8925 1.51296C11.6082 1.76899 11.3252 2.04308 11.0409 2.32618C10.918 2.44799 10.8007 2.57318 10.6822 2.69951C10.5559 2.83937 10.4296 2.97811 10.2976 3.10894L10.2582 3.15631C9.95702 3.50032 9.64231 3.86125 9.35019 4.26053L9.18893 4.48271C9.04004 4.68235 8.88212 4.89551 8.72535 5.12221L8.71182 5.14366C8.70392 5.15719 8.69036 5.18315 8.66442 5.20458C8.62043 5.24857 8.58098 5.31736 8.54601 5.38278C8.52458 5.41323 8.50652 5.44819 8.48509 5.47413C8.41967 5.57903 8.35427 5.67827 8.28886 5.78316C8.15351 5.99634 8.02605 6.21741 7.89973 6.43509C7.63693 6.9043 7.4012 7.38368 7.20044 7.84838C6.76845 8.87025 6.49322 9.82672 6.36126 10.7663C6.30486 11.1881 6.27441 11.6099 6.27441 12.0227C6.27441 13.3063 6.55412 14.6327 7.10454 15.9636L7.11356 16.002C7.11356 16.0065 7.11357 16.011 7.13049 16.0369L7.15304 16.0719C7.53653 17.0069 8.04861 17.9465 8.67234 18.8679L8.71182 18.9074L8.82572 19.0642C9.00054 19.3157 9.16634 19.5548 9.34568 19.7725C9.93106 20.5294 10.5728 21.2557 11.2631 21.9381C11.6173 22.2855 11.9805 22.6159 12.338 22.9205C12.4079 22.9814 12.4688 23.004 12.5342 22.9994C12.6222 22.9904 12.6967 22.9205 12.7711 22.8517L12.8275 22.7987C12.9234 22.7164 13.0193 22.634 13.1118 22.5472C13.3915 22.29 13.6746 22.0159 13.9543 21.734C14.1776 21.5073 14.4438 21.2331 14.6976 20.9421C15.0032 20.5902 16.0996 19.2165 16.3139 18.9119C16.6725 18.3897 17.021 17.7987 17.3538 17.1547C17.506 16.8591 17.6459 16.5546 17.7767 16.2501C18.2234 15.1933 18.5065 14.2232 18.6385 13.2848C18.6949 12.8585 18.7253 12.4321 18.7253 12.0227C18.7253 11.0234 18.555 9.99252 18.2189 8.95259ZM16.6026 6.57835C16.9162 7.11749 17.1305 7.54835 17.3053 7.9747L17.3357 8.04802L16.4797 8.73602L16.3793 6.20052L16.6026 6.57835ZM14.6231 3.7913L14.7675 3.96048C15.0032 4.24809 15.248 4.53909 15.4927 4.87408L15.6146 5.0478H14.3569L14.6231 3.7913ZM15.8458 5.54408L15.9732 8.90069L14.5577 8.50482L14.2994 5.54408H15.8458ZM15.1555 11.1836L14.6795 9.05297L15.9123 9.39697L15.1555 11.1836ZM15.16 12.854L15.8852 14.6451L14.6536 14.9891L15.16 12.854ZM13.4433 2.50438C13.5573 2.62619 13.6791 2.75589 13.802 2.88672C13.9238 3.01305 14.0468 3.13939 14.1641 3.2691L14.2036 3.30855L13.9723 4.41277L13.0418 2.05997L13.4433 2.50438ZM14.0197 8.17885L12.8275 7.27427L13.8325 5.96139L14.0197 8.17885ZM12.4779 1.99116L13.7535 5.26547L12.4734 6.90432L11.1977 5.24403L12.4779 1.99116ZM12.1237 7.27427L10.9315 8.17885L11.1199 5.96139L12.1237 7.27427ZM10.7612 3.3176C11.0014 3.02999 11.2722 2.76494 11.5079 2.52582L11.8711 2.16939L10.9879 4.47369L10.7262 3.36046L10.7612 3.3176ZM10.8435 8.80934L12.4779 7.59232L14.1077 8.80934L14.842 11.9968L14.1077 15.1842L12.4779 16.4024L10.8435 15.1842L10.1104 11.9968L10.8435 8.80934ZM14.0197 15.8632L13.8325 18.0807L12.8275 16.7723L14.0197 15.8632ZM12.0978 16.7678L11.1233 18.0852L10.901 15.8632L12.0978 16.7678ZM10.2717 14.9891L9.04002 14.6451L9.76978 12.854L10.2717 14.9891ZM9.06597 9.39697L10.2976 9.05297L9.79122 11.1881L9.06597 9.39697ZM9.59495 4.70039C9.7867 4.45225 9.96602 4.22216 10.1623 3.98643L10.2976 3.82176L10.5999 5.0478H9.32764L9.59495 4.70039ZM9.08401 5.54408H10.6518L10.3947 8.50482L8.97913 8.90069L9.08401 5.54408ZM7.60195 8.04461C7.8343 7.50096 8.12191 6.96521 8.34975 6.55691L8.57193 6.15653L8.47607 8.76986L7.56698 8.12243L7.60195 8.04461ZM6.82484 10.888C6.89026 10.244 7.05606 9.54471 7.33127 8.7439L7.37977 8.60969L8.36217 9.27966L6.78536 11.258L6.82484 10.888ZM7.35832 15.3974C7.08312 14.6451 6.89476 13.8883 6.79888 13.154L6.75038 12.7716L8.35876 14.7804L7.4102 15.5418L7.35832 15.3974ZM8.34975 17.4637C8.03506 16.9246 7.82077 16.4937 7.64594 16.0674L7.61548 15.9941L8.47156 15.3061L8.57193 17.8416L8.34975 17.4637ZM8.64188 14.3101L6.79437 12.0227L8.64188 9.7094L9.5679 12.0227L8.64188 14.3101ZM10.3281 20.2508L10.1849 20.0816C9.948 19.7985 9.70436 19.5029 9.45961 19.168L9.33666 18.9943H10.5954L10.3281 20.2508ZM9.10545 18.498L8.97913 15.1459L10.3947 15.5373L10.6518 18.498H9.10545ZM11.5079 21.5377C11.3985 21.4159 11.2721 21.2907 11.1503 21.1553C11.0274 21.0335 10.9056 20.9027 10.7872 20.7775L10.7477 20.7335L10.98 19.6338L11.9105 21.9855L11.5079 21.5377ZM12.4734 22.0509L11.1977 18.7766L12.4779 17.1378L13.7535 18.798L12.4734 22.0509ZM14.19 20.7245C13.9498 21.0121 13.6836 21.2771 13.4478 21.5117L13.0847 21.8727L13.9633 19.5684L14.225 20.6816L14.19 20.7245ZM15.3529 19.3462C15.1645 19.5898 14.9852 19.8244 14.7935 20.0556L14.6536 20.2203L14.3524 18.9943H15.6236L15.3529 19.3462ZM15.8683 18.498H14.3265L14.5577 15.5373L15.9732 15.1459L15.8683 18.498ZM16.3093 14.3327L15.3833 12.0227L16.3093 9.73536L18.1568 12.0193L16.3093 14.3327ZM17.3493 15.9974C17.118 16.5411 16.8293 17.0802 16.6026 17.4851L16.3793 17.8889L16.4752 15.2711L17.3842 15.9196L17.3493 15.9974ZM18.1264 13.154C18.061 13.7969 17.8952 14.4973 17.62 15.3026L17.5715 15.4369L16.5891 14.7624L18.1659 12.784L18.1264 13.154ZM16.5936 9.26162L17.541 8.50482L17.594 8.64467C17.8692 9.39698 18.0565 10.1538 18.1535 10.888L18.2008 11.2704L16.5936 9.26162Z" stroke="black" stroke-opacity="0.2" stroke-width="0.22"/>
<path d="M18.2189 8.95259C17.9211 8.04802 17.5015 7.1175 16.9692 6.1915C16.5056 5.38279 16.095 4.77371 15.68 4.26954C15.3957 3.88719 15.0686 3.50029 14.6536 3.0559C14.4742 2.86077 14.287 2.66905 14.1246 2.50889C13.9148 2.29571 13.6971 2.08255 13.4828 1.87389C13.2911 1.69117 13.0982 1.50843 12.9065 1.32571L12.7486 1.18248C12.7316 1.16443 12.7136 1.14298 12.6922 1.12607C12.6392 1.06854 12.5873 1.02117 12.5309 1.00425C12.4609 0.986204 12.4124 1.02568 12.3166 1.12156L12.2861 1.14751C12.1767 1.25128 12.0628 1.35618 11.9534 1.45995L11.8925 1.51296C11.6082 1.76899 11.3252 2.04308 11.0409 2.32618C10.918 2.44799 10.8007 2.57318 10.6822 2.69951C10.5559 2.83937 10.4296 2.97811 10.2976 3.10894L10.2582 3.15631C9.95702 3.50032 9.64231 3.86125 9.35019 4.26053L9.18893 4.48271C9.04004 4.68235 8.88212 4.89551 8.72535 5.12221L8.71182 5.14366C8.70392 5.15719 8.69036 5.18315 8.66442 5.20458C8.62043 5.24857 8.58098 5.31736 8.54601 5.38278C8.52458 5.41323 8.50652 5.44819 8.48509 5.47413C8.41967 5.57903 8.35427 5.67827 8.28886 5.78316C8.15351 5.99634 8.02605 6.21741 7.89973 6.43509C7.63693 6.9043 7.4012 7.38368 7.20044 7.84838C6.76845 8.87025 6.49322 9.82672 6.36126 10.7663C6.30486 11.1881 6.27441 11.6099 6.27441 12.0227C6.27441 13.3063 6.55412 14.6327 7.10454 15.9636L7.11356 16.002C7.11356 16.0065 7.11357 16.011 7.13049 16.0369L7.15304 16.0719C7.53653 17.0069 8.04861 17.9465 8.67234 18.8679L8.71182 18.9074L8.82572 19.0642C9.00054 19.3157 9.16634 19.5548 9.34568 19.7725C9.93106 20.5294 10.5728 21.2557 11.2631 21.9381C11.6173 22.2855 11.9805 22.6159 12.338 22.9205C12.4079 22.9814 12.4688 23.004 12.5342 22.9994C12.6222 22.9904 12.6967 22.9205 12.7711 22.8517L12.8275 22.7987C12.9234 22.7164 13.0193 22.634 13.1118 22.5472C13.3915 22.29 13.6746 22.0159 13.9543 21.734C14.1776 21.5073 14.4438 21.2331 14.6976 20.9421C15.0032 20.5902 16.0996 19.2165 16.3139 18.9119C16.6725 18.3897 17.021 17.7987 17.3538 17.1547C17.506 16.8591 17.6459 16.5546 17.7767 16.2501C18.2234 15.1933 18.5065 14.2232 18.6385 13.2848C18.6949 12.8585 18.7253 12.4321 18.7253 12.0227C18.7253 11.0234 18.555 9.99252 18.2189 8.95259ZM16.6026 6.57835C16.9162 7.11749 17.1305 7.54835 17.3053 7.9747L17.3357 8.04802L16.4797 8.73602L16.3793 6.20052L16.6026 6.57835ZM14.6231 3.7913L14.7675 3.96048C15.0032 4.24809 15.248 4.53909 15.4927 4.87408L15.6146 5.0478H14.3569L14.6231 3.7913ZM15.8458 5.54408L15.9732 8.90069L14.5577 8.50482L14.2994 5.54408H15.8458ZM15.1555 11.1836L14.6795 9.05297L15.9123 9.39697L15.1555 11.1836ZM15.16 12.854L15.8852 14.6451L14.6536 14.9891L15.16 12.854ZM13.4433 2.50438C13.5573 2.62619 13.6791 2.75589 13.802 2.88672C13.9238 3.01305 14.0468 3.13939 14.1641 3.2691L14.2036 3.30855L13.9723 4.41277L13.0418 2.05997L13.4433 2.50438ZM14.0197 8.17885L12.8275 7.27427L13.8325 5.96139L14.0197 8.17885ZM12.4779 1.99116L13.7535 5.26547L12.4734 6.90432L11.1977 5.24403L12.4779 1.99116ZM12.1237 7.27427L10.9315 8.17885L11.1199 5.96139L12.1237 7.27427ZM10.7612 3.3176C11.0014 3.02999 11.2722 2.76494 11.5079 2.52582L11.8711 2.16939L10.9879 4.47369L10.7262 3.36046L10.7612 3.3176ZM10.8435 8.80934L12.4779 7.59232L14.1077 8.80934L14.842 11.9968L14.1077 15.1842L12.4779 16.4024L10.8435 15.1842L10.1104 11.9968L10.8435 8.80934ZM14.0197 15.8632L13.8325 18.0807L12.8275 16.7723L14.0197 15.8632ZM12.0978 16.7678L11.1233 18.0852L10.901 15.8632L12.0978 16.7678ZM10.2717 14.9891L9.04002 14.6451L9.76978 12.854L10.2717 14.9891ZM9.06597 9.39697L10.2976 9.05297L9.79122 11.1881L9.06597 9.39697ZM9.59495 4.70039C9.7867 4.45225 9.96602 4.22216 10.1623 3.98643L10.2976 3.82176L10.5999 5.0478H9.32764L9.59495 4.70039ZM9.08401 5.54408H10.6518L10.3947 8.50482L8.97913 8.90069L9.08401 5.54408ZM7.60195 8.04461C7.8343 7.50096 8.12191 6.96521 8.34975 6.55691L8.57193 6.15653L8.47607 8.76986L7.56698 8.12243L7.60195 8.04461ZM6.82484 10.888C6.89026 10.244 7.05606 9.54471 7.33127 8.7439L7.37977 8.60969L8.36217 9.27966L6.78536 11.258L6.82484 10.888ZM7.35832 15.3974C7.08312 14.6451 6.89476 13.8883 6.79888 13.154L6.75038 12.7716L8.35876 14.7804L7.4102 15.5418L7.35832 15.3974ZM8.34975 17.4637C8.03506 16.9246 7.82077 16.4937 7.64594 16.0674L7.61548 15.9941L8.47156 15.3061L8.57193 17.8416L8.34975 17.4637ZM8.64188 14.3101L6.79437 12.0227L8.64188 9.7094L9.5679 12.0227L8.64188 14.3101ZM10.3281 20.2508L10.1849 20.0816C9.948 19.7985 9.70436 19.5029 9.45961 19.168L9.33666 18.9943H10.5954L10.3281 20.2508ZM9.10545 18.498L8.97913 15.1459L10.3947 15.5373L10.6518 18.498H9.10545ZM11.5079 21.5377C11.3985 21.4159 11.2721 21.2907 11.1503 21.1553C11.0274 21.0335 10.9056 20.9027 10.7872 20.7775L10.7477 20.7335L10.98 19.6338L11.9105 21.9855L11.5079 21.5377ZM12.4734 22.0509L11.1977 18.7766L12.4779 17.1378L13.7535 18.798L12.4734 22.0509ZM14.19 20.7245C13.9498 21.0121 13.6836 21.2771 13.4478 21.5117L13.0847 21.8727L13.9633 19.5684L14.225 20.6816L14.19 20.7245ZM15.3529 19.3462C15.1645 19.5898 14.9852 19.8244 14.7935 20.0556L14.6536 20.2203L14.3524 18.9943H15.6236L15.3529 19.3462ZM15.8683 18.498H14.3265L14.5577 15.5373L15.9732 15.1459L15.8683 18.498ZM16.3093 14.3327L15.3833 12.0227L16.3093 9.73536L18.1568 12.0193L16.3093 14.3327ZM17.3493 15.9974C17.118 16.5411 16.8293 17.0802 16.6026 17.4851L16.3793 17.8889L16.4752 15.2711L17.3842 15.9196L17.3493 15.9974ZM18.1264 13.154C18.061 13.7969 17.8952 14.4973 17.62 15.3026L17.5715 15.4369L16.5891 14.7624L18.1659 12.784L18.1264 13.154ZM16.5936 9.26162L17.541 8.50482L17.594 8.64467C17.8692 9.39698 18.0565 10.1538 18.1535 10.888L18.2008 11.2704L16.5936 9.26162Z" stroke="black" stroke-opacity="0.2" stroke-width="0.22"/>
<path d="M18.2189 8.95259C17.9211 8.04802 17.5015 7.1175 16.9692 6.1915C16.5056 5.38279 16.095 4.77371 15.68 4.26954C15.3957 3.88719 15.0686 3.50029 14.6536 3.0559C14.4742 2.86077 14.287 2.66905 14.1246 2.50889C13.9148 2.29571 13.6971 2.08255 13.4828 1.87389C13.2911 1.69117 13.0982 1.50843 12.9065 1.32571L12.7486 1.18248C12.7316 1.16443 12.7136 1.14298 12.6922 1.12607C12.6392 1.06854 12.5873 1.02117 12.5309 1.00425C12.4609 0.986204 12.4124 1.02568 12.3166 1.12156L12.2861 1.14751C12.1767 1.25128 12.0628 1.35618 11.9534 1.45995L11.8925 1.51296C11.6082 1.76899 11.3252 2.04308 11.0409 2.32618C10.918 2.44799 10.8007 2.57318 10.6822 2.69951C10.5559 2.83937 10.4296 2.97811 10.2976 3.10894L10.2582 3.15631C9.95702 3.50032 9.64231 3.86125 9.35019 4.26053L9.18893 4.48271C9.04004 4.68235 8.88212 4.89551 8.72535 5.12221L8.71182 5.14366C8.70392 5.15719 8.69036 5.18315 8.66442 5.20458C8.62043 5.24857 8.58098 5.31736 8.54601 5.38278C8.52458 5.41323 8.50652 5.44819 8.48509 5.47413C8.41967 5.57903 8.35427 5.67827 8.28886 5.78316C8.15351 5.99634 8.02605 6.21741 7.89973 6.43509C7.63693 6.9043 7.4012 7.38368 7.20044 7.84838C6.76845 8.87025 6.49322 9.82672 6.36126 10.7663C6.30486 11.1881 6.27441 11.6099 6.27441 12.0227C6.27441 13.3063 6.55412 14.6327 7.10454 15.9636L7.11356 16.002C7.11356 16.0065 7.11357 16.011 7.13049 16.0369L7.15304 16.0719C7.53653 17.0069 8.04861 17.9465 8.67234 18.8679L8.71182 18.9074L8.82572 19.0642C9.00054 19.3157 9.16634 19.5548 9.34568 19.7725C9.93106 20.5294 10.5728 21.2557 11.2631 21.9381C11.6173 22.2855 11.9805 22.6159 12.338 22.9205C12.4079 22.9814 12.4688 23.004 12.5342 22.9994C12.6222 22.9904 12.6967 22.9205 12.7711 22.8517L12.8275 22.7987C12.9234 22.7164 13.0193 22.634 13.1118 22.5472C13.3915 22.29 13.6746 22.0159 13.9543 21.734C14.1776 21.5073 14.4438 21.2331 14.6976 20.9421C15.0032 20.5902 16.0996 19.2165 16.3139 18.9119C16.6725 18.3897 17.021 17.7987 17.3538 17.1547C17.506 16.8591 17.6459 16.5546 17.7767 16.2501C18.2234 15.1933 18.5065 14.2232 18.6385 13.2848C18.6949 12.8585 18.7253 12.4321 18.7253 12.0227C18.7253 11.0234 18.555 9.99252 18.2189 8.95259ZM16.6026 6.57835C16.9162 7.11749 17.1305 7.54835 17.3053 7.9747L17.3357 8.04802L16.4797 8.73602L16.3793 6.20052L16.6026 6.57835ZM14.6231 3.7913L14.7675 3.96048C15.0032 4.24809 15.248 4.53909 15.4927 4.87408L15.6146 5.0478H14.3569L14.6231 3.7913ZM15.8458 5.54408L15.9732 8.90069L14.5577 8.50482L14.2994 5.54408H15.8458ZM15.1555 11.1836L14.6795 9.05297L15.9123 9.39697L15.1555 11.1836ZM15.16 12.854L15.8852 14.6451L14.6536 14.9891L15.16 12.854ZM13.4433 2.50438C13.5573 2.62619 13.6791 2.75589 13.802 2.88672C13.9238 3.01305 14.0468 3.13939 14.1641 3.2691L14.2036 3.30855L13.9723 4.41277L13.0418 2.05997L13.4433 2.50438ZM14.0197 8.17885L12.8275 7.27427L13.8325 5.96139L14.0197 8.17885ZM12.4779 1.99116L13.7535 5.26547L12.4734 6.90432L11.1977 5.24403L12.4779 1.99116ZM12.1237 7.27427L10.9315 8.17885L11.1199 5.96139L12.1237 7.27427ZM10.7612 3.3176C11.0014 3.02999 11.2722 2.76494 11.5079 2.52582L11.8711 2.16939L10.9879 4.47369L10.7262 3.36046L10.7612 3.3176ZM10.8435 8.80934L12.4779 7.59232L14.1077 8.80934L14.842 11.9968L14.1077 15.1842L12.4779 16.4024L10.8435 15.1842L10.1104 11.9968L10.8435 8.80934ZM14.0197 15.8632L13.8325 18.0807L12.8275 16.7723L14.0197 15.8632ZM12.0978 16.7678L11.1233 18.0852L10.901 15.8632L12.0978 16.7678ZM10.2717 14.9891L9.04002 14.6451L9.76978 12.854L10.2717 14.9891ZM9.06597 9.39697L10.2976 9.05297L9.79122 11.1881L9.06597 9.39697ZM9.59495 4.70039C9.7867 4.45225 9.96602 4.22216 10.1623 3.98643L10.2976 3.82176L10.5999 5.0478H9.32764L9.59495 4.70039ZM9.08401 5.54408H10.6518L10.3947 8.50482L8.97913 8.90069L9.08401 5.54408ZM7.60195 8.04461C7.8343 7.50096 8.12191 6.96521 8.34975 6.55691L8.57193 6.15653L8.47607 8.76986L7.56698 8.12243L7.60195 8.04461ZM6.82484 10.888C6.89026 10.244 7.05606 9.54471 7.33127 8.7439L7.37977 8.60969L8.36217 9.27966L6.78536 11.258L6.82484 10.888ZM7.35832 15.3974C7.08312 14.6451 6.89476 13.8883 6.79888 13.154L6.75038 12.7716L8.35876 14.7804L7.4102 15.5418L7.35832 15.3974ZM8.34975 17.4637C8.03506 16.9246 7.82077 16.4937 7.64594 16.0674L7.61548 15.9941L8.47156 15.3061L8.57193 17.8416L8.34975 17.4637ZM8.64188 14.3101L6.79437 12.0227L8.64188 9.7094L9.5679 12.0227L8.64188 14.3101ZM10.3281 20.2508L10.1849 20.0816C9.948 19.7985 9.70436 19.5029 9.45961 19.168L9.33666 18.9943H10.5954L10.3281 20.2508ZM9.10545 18.498L8.97913 15.1459L10.3947 15.5373L10.6518 18.498H9.10545ZM11.5079 21.5377C11.3985 21.4159 11.2721 21.2907 11.1503 21.1553C11.0274 21.0335 10.9056 20.9027 10.7872 20.7775L10.7477 20.7335L10.98 19.6338L11.9105 21.9855L11.5079 21.5377ZM12.4734 22.0509L11.1977 18.7766L12.4779 17.1378L13.7535 18.798L12.4734 22.0509ZM14.19 20.7245C13.9498 21.0121 13.6836 21.2771 13.4478 21.5117L13.0847 21.8727L13.9633 19.5684L14.225 20.6816L14.19 20.7245ZM15.3529 19.3462C15.1645 19.5898 14.9852 19.8244 14.7935 20.0556L14.6536 20.2203L14.3524 18.9943H15.6236L15.3529 19.3462ZM15.8683 18.498H14.3265L14.5577 15.5373L15.9732 15.1459L15.8683 18.498ZM16.3093 14.3327L15.3833 12.0227L16.3093 9.73536L18.1568 12.0193L16.3093 14.3327ZM17.3493 15.9974C17.118 16.5411 16.8293 17.0802 16.6026 17.4851L16.3793 17.8889L16.4752 15.2711L17.3842 15.9196L17.3493 15.9974ZM18.1264 13.154C18.061 13.7969 17.8952 14.4973 17.62 15.3026L17.5715 15.4369L16.5891 14.7624L18.1659 12.784L18.1264 13.154ZM16.5936 9.26162L17.541 8.50482L17.594 8.64467C17.8692 9.39698 18.0565 10.1538 18.1535 10.888L18.2008 11.2704L16.5936 9.26162Z" stroke="black" stroke-opacity="0.2" stroke-width="0.22"/>
<path d="M18.2189 8.95259C17.9211 8.04802 17.5015 7.1175 16.9692 6.1915C16.5056 5.38279 16.095 4.77371 15.68 4.26954C15.3957 3.88719 15.0686 3.50029 14.6536 3.0559C14.4742 2.86077 14.287 2.66905 14.1246 2.50889C13.9148 2.29571 13.6971 2.08255 13.4828 1.87389C13.2911 1.69117 13.0982 1.50843 12.9065 1.32571L12.7486 1.18248C12.7316 1.16443 12.7136 1.14298 12.6922 1.12607C12.6392 1.06854 12.5873 1.02117 12.5309 1.00425C12.4609 0.986204 12.4124 1.02568 12.3166 1.12156L12.2861 1.14751C12.1767 1.25128 12.0628 1.35618 11.9534 1.45995L11.8925 1.51296C11.6082 1.76899 11.3252 2.04308 11.0409 2.32618C10.918 2.44799 10.8007 2.57318 10.6822 2.69951C10.5559 2.83937 10.4296 2.97811 10.2976 3.10894L10.2582 3.15631C9.95702 3.50032 9.64231 3.86125 9.35019 4.26053L9.18893 4.48271C9.04004 4.68235 8.88212 4.89551 8.72535 5.12221L8.71182 5.14366C8.70392 5.15719 8.69036 5.18315 8.66442 5.20458C8.62043 5.24857 8.58098 5.31736 8.54601 5.38278C8.52458 5.41323 8.50652 5.44819 8.48509 5.47413C8.41967 5.57903 8.35427 5.67827 8.28886 5.78316C8.15351 5.99634 8.02605 6.21741 7.89973 6.43509C7.63693 6.9043 7.4012 7.38368 7.20044 7.84838C6.76845 8.87025 6.49322 9.82672 6.36126 10.7663C6.30486 11.1881 6.27441 11.6099 6.27441 12.0227C6.27441 13.3063 6.55412 14.6327 7.10454 15.9636L7.11356 16.002C7.11356 16.0065 7.11357 16.011 7.13049 16.0369L7.15304 16.0719C7.53653 17.0069 8.04861 17.9465 8.67234 18.8679L8.71182 18.9074L8.82572 19.0642C9.00054 19.3157 9.16634 19.5548 9.34568 19.7725C9.93106 20.5294 10.5728 21.2557 11.2631 21.9381C11.6173 22.2855 11.9805 22.6159 12.338 22.9205C12.4079 22.9814 12.4688 23.004 12.5342 22.9994C12.6222 22.9904 12.6967 22.9205 12.7711 22.8517L12.8275 22.7987C12.9234 22.7164 13.0193 22.634 13.1118 22.5472C13.3915 22.29 13.6746 22.0159 13.9543 21.734C14.1776 21.5073 14.4438 21.2331 14.6976 20.9421C15.0032 20.5902 16.0996 19.2165 16.3139 18.9119C16.6725 18.3897 17.021 17.7987 17.3538 17.1547C17.506 16.8591 17.6459 16.5546 17.7767 16.2501C18.2234 15.1933 18.5065 14.2232 18.6385 13.2848C18.6949 12.8585 18.7253 12.4321 18.7253 12.0227C18.7253 11.0234 18.555 9.99252 18.2189 8.95259ZM16.6026 6.57835C16.9162 7.11749 17.1305 7.54835 17.3053 7.9747L17.3357 8.04802L16.4797 8.73602L16.3793 6.20052L16.6026 6.57835ZM14.6231 3.7913L14.7675 3.96048C15.0032 4.24809 15.248 4.53909 15.4927 4.87408L15.6146 5.0478H14.3569L14.6231 3.7913ZM15.8458 5.54408L15.9732 8.90069L14.5577 8.50482L14.2994 5.54408H15.8458ZM15.1555 11.1836L14.6795 9.05297L15.9123 9.39697L15.1555 11.1836ZM15.16 12.854L15.8852 14.6451L14.6536 14.9891L15.16 12.854ZM13.4433 2.50438C13.5573 2.62619 13.6791 2.75589 13.802 2.88672C13.9238 3.01305 14.0468 3.13939 14.1641 3.2691L14.2036 3.30855L13.9723 4.41277L13.0418 2.05997L13.4433 2.50438ZM14.0197 8.17885L12.8275 7.27427L13.8325 5.96139L14.0197 8.17885ZM12.4779 1.99116L13.7535 5.26547L12.4734 6.90432L11.1977 5.24403L12.4779 1.99116ZM12.1237 7.27427L10.9315 8.17885L11.1199 5.96139L12.1237 7.27427ZM10.7612 3.3176C11.0014 3.02999 11.2722 2.76494 11.5079 2.52582L11.8711 2.16939L10.9879 4.47369L10.7262 3.36046L10.7612 3.3176ZM10.8435 8.80934L12.4779 7.59232L14.1077 8.80934L14.842 11.9968L14.1077 15.1842L12.4779 16.4024L10.8435 15.1842L10.1104 11.9968L10.8435 8.80934ZM14.0197 15.8632L13.8325 18.0807L12.8275 16.7723L14.0197 15.8632ZM12.0978 16.7678L11.1233 18.0852L10.901 15.8632L12.0978 16.7678ZM10.2717 14.9891L9.04002 14.6451L9.76978 12.854L10.2717 14.9891ZM9.06597 9.39697L10.2976 9.05297L9.79122 11.1881L9.06597 9.39697ZM9.59495 4.70039C9.7867 4.45225 9.96602 4.22216 10.1623 3.98643L10.2976 3.82176L10.5999 5.0478H9.32764L9.59495 4.70039ZM9.08401 5.54408H10.6518L10.3947 8.50482L8.97913 8.90069L9.08401 5.54408ZM7.60195 8.04461C7.8343 7.50096 8.12191 6.96521 8.34975 6.55691L8.57193 6.15653L8.47607 8.76986L7.56698 8.12243L7.60195 8.04461ZM6.82484 10.888C6.89026 10.244 7.05606 9.54471 7.33127 8.7439L7.37977 8.60969L8.36217 9.27966L6.78536 11.258L6.82484 10.888ZM7.35832 15.3974C7.08312 14.6451 6.89476 13.8883 6.79888 13.154L6.75038 12.7716L8.35876 14.7804L7.4102 15.5418L7.35832 15.3974ZM8.34975 17.4637C8.03506 16.9246 7.82077 16.4937 7.64594 16.0674L7.61548 15.9941L8.47156 15.3061L8.57193 17.8416L8.34975 17.4637ZM8.64188 14.3101L6.79437 12.0227L8.64188 9.7094L9.5679 12.0227L8.64188 14.3101ZM10.3281 20.2508L10.1849 20.0816C9.948 19.7985 9.70436 19.5029 9.45961 19.168L9.33666 18.9943H10.5954L10.3281 20.2508ZM9.10545 18.498L8.97913 15.1459L10.3947 15.5373L10.6518 18.498H9.10545ZM11.5079 21.5377C11.3985 21.4159 11.2721 21.2907 11.1503 21.1553C11.0274 21.0335 10.9056 20.9027 10.7872 20.7775L10.7477 20.7335L10.98 19.6338L11.9105 21.9855L11.5079 21.5377ZM12.4734 22.0509L11.1977 18.7766L12.4779 17.1378L13.7535 18.798L12.4734 22.0509ZM14.19 20.7245C13.9498 21.0121 13.6836 21.2771 13.4478 21.5117L13.0847 21.8727L13.9633 19.5684L14.225 20.6816L14.19 20.7245ZM15.3529 19.3462C15.1645 19.5898 14.9852 19.8244 14.7935 20.0556L14.6536 20.2203L14.3524 18.9943H15.6236L15.3529 19.3462ZM15.8683 18.498H14.3265L14.5577 15.5373L15.9732 15.1459L15.8683 18.498ZM16.3093 14.3327L15.3833 12.0227L16.3093 9.73536L18.1568 12.0193L16.3093 14.3327ZM17.3493 15.9974C17.118 16.5411 16.8293 17.0802 16.6026 17.4851L16.3793 17.8889L16.4752 15.2711L17.3842 15.9196L17.3493 15.9974ZM18.1264 13.154C18.061 13.7969 17.8952 14.4973 17.62 15.3026L17.5715 15.4369L16.5891 14.7624L18.1659 12.784L18.1264 13.154ZM16.5936 9.26162L17.541 8.50482L17.594 8.64467C17.8692 9.39698 18.0565 10.1538 18.1535 10.888L18.2008 11.2704L16.5936 9.26162Z" stroke="black" stroke-opacity="0.2" stroke-width="0.22"/>
</svg>
