<svg width="24" height="24" viewBox="0 0 24 24" fill="none" xmlns="http://www.w3.org/2000/svg">
<path d="M18.6201 7.6828C18.3781 6.84424 18.0647 6.05697 17.6889 5.34554C16.3642 2.84103 14.2768 1.2197 12.1001 1.02232C11.9417 1.00448 11.7778 1 11.615 1C9.8409 1 7.96418 2.00584 6.60041 3.68964C5.07719 5.56969 4.16393 8.21023 4.01785 11.1284C4.00447 11.3693 4 11.6247 4 11.8756C4 14.718 4.76831 17.412 6.16329 19.4504C6.22462 19.5385 6.28707 19.6222 6.3484 19.7091C7.42559 21.1777 9.3904 22.75 11.663 22.75C14.8154 22.75 16.74 20.1005 17.4202 18.9631C17.6399 18.594 17.8395 18.2026 18.0157 17.8068C18.2677 17.2269 18.4885 16.6114 18.6647 15.9791C19.424 13.2683 19.4107 10.4036 18.6201 7.6828ZM18.2677 8.25484C18.4963 9.14692 18.6379 10.0513 18.687 10.9478L18.7048 11.2333L16.6073 9.13799L18.2275 8.10988L18.2677 8.25484ZM11.5883 16.2512L9.52644 15.0168L8.62209 11.8756L9.52644 8.72875L11.5883 7.49434L13.6545 8.72875L14.5589 11.8756L13.6545 15.0168L11.5883 16.2512ZM13.5441 15.6323L13.2966 17.9562L11.9808 16.5768L13.5441 15.6323ZM11.1734 16.5768L9.85762 17.9562L9.61117 15.6323L11.1734 16.5768ZM8.07458 11.8756L6.89591 14.2083L4.56982 11.8756L6.89591 9.5372L8.07458 11.8756ZM7.34642 9.29188L8.94435 8.93953L8.29536 11.1809L7.34642 9.29188ZM8.29536 12.5602L8.94435 14.8328L7.34642 14.476L8.29536 12.5602ZM9.63683 8.11433L9.87993 5.78936L11.2002 7.1732L9.63683 8.11433ZM11.9808 7.1732L13.3233 5.79382L13.5664 8.10988L11.9808 7.1732ZM14.2366 8.91387L15.8345 9.26959L14.8811 11.1853L14.2366 8.91387ZM14.8811 12.5647L15.8345 14.4548L14.2366 14.8105L14.8811 12.5647ZM15.1064 11.8756L16.285 9.5372L18.6111 11.8756L16.285 14.2083L15.1064 11.8756ZM16.9831 5.07793L17.1504 5.37232C17.5128 6.02243 17.8127 6.72938 18.0681 7.54229L18.0904 7.62148L16.546 8.61948L16.9831 5.07793ZM15.9895 8.81685L14.0961 8.39535L13.7828 5.41136L16.4925 4.70884L15.9895 8.81685ZM14.6514 2.49872C15.2079 2.87674 15.7643 3.40752 16.3029 4.07993L16.4088 4.21149L13.8709 4.86718L14.5243 2.41062L14.6514 2.49872ZM12.1926 1.53638C12.8115 1.60663 13.4114 1.79063 13.9768 2.08947L14.056 2.1296L13.4427 4.46239L11.9941 1.51406L12.1926 1.53638ZM13.1996 5.18274L11.5883 6.85764L9.98139 5.16158L11.5927 1.83969L13.1996 5.18274ZM9.07705 2.16417C9.68144 1.82183 10.3438 1.60663 10.9883 1.53638L11.1868 1.51406L9.72157 4.5148L8.99676 2.20878L9.07705 2.16417ZM6.90037 4.08439C7.37763 3.44767 7.89839 2.93806 8.45371 2.56896L8.57747 2.48531L9.31902 4.87164L6.80337 4.21149L6.90037 4.08439ZM9.39932 5.39016L9.0592 8.39535L7.19141 8.81685L6.66175 4.68651L9.39932 5.39016ZM5.0861 7.6828C5.32028 6.89665 5.62916 6.14063 6.03059 5.37232L6.19452 5.05564L6.63609 8.64959L5.06382 7.76644L5.0861 7.6828ZM4.4951 10.9701C4.53859 10.1438 4.66683 9.30416 4.89208 8.39981L4.9233 8.2593L6.55581 9.17702L4.47727 11.2556L4.4951 10.9701ZM4.91439 15.4918C4.68468 14.5997 4.53859 13.6943 4.4951 12.8022L4.47727 12.5123L6.57365 14.6087L4.9534 15.6368L4.91439 15.4918ZM6.19897 18.6732L6.03059 18.3744C5.6693 17.7232 5.36823 17.0162 5.11287 16.2033L5.0861 16.1241L6.63498 15.1272L6.19897 18.6732ZM7.19141 14.9287L9.08597 15.3513L9.39932 18.3342L6.6885 19.0379L7.19141 14.9287ZM8.52507 21.248C7.97309 20.87 7.41667 20.3381 6.87808 19.6656L6.77214 19.5341L9.31011 18.8795L8.65777 21.335L8.52507 21.248ZM10.9883 22.2103C10.3706 22.1401 9.76952 21.9549 9.20082 21.6561L9.125 21.6171L9.73829 19.2832L11.1868 22.2359L10.9883 22.2103ZM11.5883 21.907L9.98139 18.5628L11.5927 16.8891L13.1996 18.5851L11.5883 21.907ZM14.1006 21.5858C13.4817 21.907 12.8505 22.1178 12.2194 22.2103L12.0165 22.2404L13.456 19.2263L14.1842 21.5423L14.1006 21.5858ZM16.3029 19.6924C15.7643 20.3425 15.248 20.8298 14.7273 21.1777L14.6035 21.2602L13.8887 18.8973L16.4088 19.5608L16.3029 19.6924ZM13.7828 18.3565L14.1217 15.3513L15.9895 14.9287L16.5192 19.059L13.7828 18.3565ZM18.1172 16.0672C17.8484 16.8846 17.5339 17.6406 17.1504 18.3744L16.9876 18.6899L16.546 15.1004L18.1439 15.9791L18.1172 16.0672ZM18.687 12.7754C18.6424 13.6017 18.5097 14.4459 18.2889 15.3469L18.2543 15.4918L16.6252 14.5685L18.7048 12.49L18.687 12.7754Z" fill="#333335"/>
<path d="M18.6201 7.6828C18.3781 6.84424 18.0647 6.05697 17.6889 5.34554C16.3642 2.84103 14.2768 1.2197 12.1001 1.02232C11.9417 1.00448 11.7778 1 11.615 1C9.8409 1 7.96418 2.00584 6.60041 3.68964C5.07719 5.56969 4.16393 8.21023 4.01785 11.1284C4.00447 11.3693 4 11.6247 4 11.8756C4 14.718 4.76831 17.412 6.16329 19.4504C6.22462 19.5385 6.28707 19.6222 6.3484 19.7091C7.42559 21.1777 9.3904 22.75 11.663 22.75C14.8154 22.75 16.74 20.1005 17.4202 18.9631C17.6399 18.594 17.8395 18.2026 18.0157 17.8068C18.2677 17.2269 18.4885 16.6114 18.6647 15.9791C19.424 13.2683 19.4107 10.4036 18.6201 7.6828ZM18.2677 8.25484C18.4963 9.14692 18.6379 10.0513 18.687 10.9478L18.7048 11.2333L16.6073 9.13799L18.2275 8.10988L18.2677 8.25484ZM11.5883 16.2512L9.52644 15.0168L8.62209 11.8756L9.52644 8.72875L11.5883 7.49434L13.6545 8.72875L14.5589 11.8756L13.6545 15.0168L11.5883 16.2512ZM13.5441 15.6323L13.2966 17.9562L11.9808 16.5768L13.5441 15.6323ZM11.1734 16.5768L9.85762 17.9562L9.61117 15.6323L11.1734 16.5768ZM8.07458 11.8756L6.89591 14.2083L4.56982 11.8756L6.89591 9.5372L8.07458 11.8756ZM7.34642 9.29188L8.94435 8.93953L8.29536 11.1809L7.34642 9.29188ZM8.29536 12.5602L8.94435 14.8328L7.34642 14.476L8.29536 12.5602ZM9.63683 8.11433L9.87993 5.78936L11.2002 7.1732L9.63683 8.11433ZM11.9808 7.1732L13.3233 5.79382L13.5664 8.10988L11.9808 7.1732ZM14.2366 8.91387L15.8345 9.26959L14.8811 11.1853L14.2366 8.91387ZM14.8811 12.5647L15.8345 14.4548L14.2366 14.8105L14.8811 12.5647ZM15.1064 11.8756L16.285 9.5372L18.6111 11.8756L16.285 14.2083L15.1064 11.8756ZM16.9831 5.07793L17.1504 5.37232C17.5128 6.02243 17.8127 6.72938 18.0681 7.54229L18.0904 7.62148L16.546 8.61948L16.9831 5.07793ZM15.9895 8.81685L14.0961 8.39535L13.7828 5.41136L16.4925 4.70884L15.9895 8.81685ZM14.6514 2.49872C15.2079 2.87674 15.7643 3.40752 16.3029 4.07993L16.4088 4.21149L13.8709 4.86718L14.5243 2.41062L14.6514 2.49872ZM12.1926 1.53638C12.8115 1.60663 13.4114 1.79063 13.9768 2.08947L14.056 2.1296L13.4427 4.46239L11.9941 1.51406L12.1926 1.53638ZM13.1996 5.18274L11.5883 6.85764L9.98139 5.16158L11.5927 1.83969L13.1996 5.18274ZM9.07705 2.16417C9.68144 1.82183 10.3438 1.60663 10.9883 1.53638L11.1868 1.51406L9.72157 4.5148L8.99676 2.20878L9.07705 2.16417ZM6.90037 4.08439C7.37763 3.44767 7.89839 2.93806 8.45371 2.56896L8.57747 2.48531L9.31902 4.87164L6.80337 4.21149L6.90037 4.08439ZM9.39932 5.39016L9.0592 8.39535L7.19141 8.81685L6.66175 4.68651L9.39932 5.39016ZM5.0861 7.6828C5.32028 6.89665 5.62916 6.14063 6.03059 5.37232L6.19452 5.05564L6.63609 8.64959L5.06382 7.76644L5.0861 7.6828ZM4.4951 10.9701C4.53859 10.1438 4.66683 9.30416 4.89208 8.39981L4.9233 8.2593L6.55581 9.17702L4.47727 11.2556L4.4951 10.9701ZM4.91439 15.4918C4.68468 14.5997 4.53859 13.6943 4.4951 12.8022L4.47727 12.5123L6.57365 14.6087L4.9534 15.6368L4.91439 15.4918ZM6.19897 18.6732L6.03059 18.3744C5.6693 17.7232 5.36823 17.0162 5.11287 16.2033L5.0861 16.1241L6.63498 15.1272L6.19897 18.6732ZM7.19141 14.9287L9.08597 15.3513L9.39932 18.3342L6.6885 19.0379L7.19141 14.9287ZM8.52507 21.248C7.97309 20.87 7.41667 20.3381 6.87808 19.6656L6.77214 19.5341L9.31011 18.8795L8.65777 21.335L8.52507 21.248ZM10.9883 22.2103C10.3706 22.1401 9.76952 21.9549 9.20082 21.6561L9.125 21.6171L9.73829 19.2832L11.1868 22.2359L10.9883 22.2103ZM11.5883 21.907L9.98139 18.5628L11.5927 16.8891L13.1996 18.5851L11.5883 21.907ZM14.1006 21.5858C13.4817 21.907 12.8505 22.1178 12.2194 22.2103L12.0165 22.2404L13.456 19.2263L14.1842 21.5423L14.1006 21.5858ZM16.3029 19.6924C15.7643 20.3425 15.248 20.8298 14.7273 21.1777L14.6035 21.2602L13.8887 18.8973L16.4088 19.5608L16.3029 19.6924ZM13.7828 18.3565L14.1217 15.3513L15.9895 14.9287L16.5192 19.059L13.7828 18.3565ZM18.1172 16.0672C17.8484 16.8846 17.5339 17.6406 17.1504 18.3744L16.9876 18.6899L16.546 15.1004L18.1439 15.9791L18.1172 16.0672ZM18.687 12.7754C18.6424 13.6017 18.5097 14.4459 18.2889 15.3469L18.2543 15.4918L16.6252 14.5685L18.7048 12.49L18.687 12.7754Z" fill="black" fill-opacity="0.2"/>
<path d="M18.6201 7.6828C18.3781 6.84424 18.0647 6.05697 17.6889 5.34554C16.3642 2.84103 14.2768 1.2197 12.1001 1.02232C11.9417 1.00448 11.7778 1 11.615 1C9.8409 1 7.96418 2.00584 6.60041 3.68964C5.07719 5.56969 4.16393 8.21023 4.01785 11.1284C4.00447 11.3693 4 11.6247 4 11.8756C4 14.718 4.76831 17.412 6.16329 19.4504C6.22462 19.5385 6.28707 19.6222 6.3484 19.7091C7.42559 21.1777 9.3904 22.75 11.663 22.75C14.8154 22.75 16.74 20.1005 17.4202 18.9631C17.6399 18.594 17.8395 18.2026 18.0157 17.8068C18.2677 17.2269 18.4885 16.6114 18.6647 15.9791C19.424 13.2683 19.4107 10.4036 18.6201 7.6828ZM18.2677 8.25484C18.4963 9.14692 18.6379 10.0513 18.687 10.9478L18.7048 11.2333L16.6073 9.13799L18.2275 8.10988L18.2677 8.25484ZM11.5883 16.2512L9.52644 15.0168L8.62209 11.8756L9.52644 8.72875L11.5883 7.49434L13.6545 8.72875L14.5589 11.8756L13.6545 15.0168L11.5883 16.2512ZM13.5441 15.6323L13.2966 17.9562L11.9808 16.5768L13.5441 15.6323ZM11.1734 16.5768L9.85762 17.9562L9.61117 15.6323L11.1734 16.5768ZM8.07458 11.8756L6.89591 14.2083L4.56982 11.8756L6.89591 9.5372L8.07458 11.8756ZM7.34642 9.29188L8.94435 8.93953L8.29536 11.1809L7.34642 9.29188ZM8.29536 12.5602L8.94435 14.8328L7.34642 14.476L8.29536 12.5602ZM9.63683 8.11433L9.87993 5.78936L11.2002 7.1732L9.63683 8.11433ZM11.9808 7.1732L13.3233 5.79382L13.5664 8.10988L11.9808 7.1732ZM14.2366 8.91387L15.8345 9.26959L14.8811 11.1853L14.2366 8.91387ZM14.8811 12.5647L15.8345 14.4548L14.2366 14.8105L14.8811 12.5647ZM15.1064 11.8756L16.285 9.5372L18.6111 11.8756L16.285 14.2083L15.1064 11.8756ZM16.9831 5.07793L17.1504 5.37232C17.5128 6.02243 17.8127 6.72938 18.0681 7.54229L18.0904 7.62148L16.546 8.61948L16.9831 5.07793ZM15.9895 8.81685L14.0961 8.39535L13.7828 5.41136L16.4925 4.70884L15.9895 8.81685ZM14.6514 2.49872C15.2079 2.87674 15.7643 3.40752 16.3029 4.07993L16.4088 4.21149L13.8709 4.86718L14.5243 2.41062L14.6514 2.49872ZM12.1926 1.53638C12.8115 1.60663 13.4114 1.79063 13.9768 2.08947L14.056 2.1296L13.4427 4.46239L11.9941 1.51406L12.1926 1.53638ZM13.1996 5.18274L11.5883 6.85764L9.98139 5.16158L11.5927 1.83969L13.1996 5.18274ZM9.07705 2.16417C9.68144 1.82183 10.3438 1.60663 10.9883 1.53638L11.1868 1.51406L9.72157 4.5148L8.99676 2.20878L9.07705 2.16417ZM6.90037 4.08439C7.37763 3.44767 7.89839 2.93806 8.45371 2.56896L8.57747 2.48531L9.31902 4.87164L6.80337 4.21149L6.90037 4.08439ZM9.39932 5.39016L9.0592 8.39535L7.19141 8.81685L6.66175 4.68651L9.39932 5.39016ZM5.0861 7.6828C5.32028 6.89665 5.62916 6.14063 6.03059 5.37232L6.19452 5.05564L6.63609 8.64959L5.06382 7.76644L5.0861 7.6828ZM4.4951 10.9701C4.53859 10.1438 4.66683 9.30416 4.89208 8.39981L4.9233 8.2593L6.55581 9.17702L4.47727 11.2556L4.4951 10.9701ZM4.91439 15.4918C4.68468 14.5997 4.53859 13.6943 4.4951 12.8022L4.47727 12.5123L6.57365 14.6087L4.9534 15.6368L4.91439 15.4918ZM6.19897 18.6732L6.03059 18.3744C5.6693 17.7232 5.36823 17.0162 5.11287 16.2033L5.0861 16.1241L6.63498 15.1272L6.19897 18.6732ZM7.19141 14.9287L9.08597 15.3513L9.39932 18.3342L6.6885 19.0379L7.19141 14.9287ZM8.52507 21.248C7.97309 20.87 7.41667 20.3381 6.87808 19.6656L6.77214 19.5341L9.31011 18.8795L8.65777 21.335L8.52507 21.248ZM10.9883 22.2103C10.3706 22.1401 9.76952 21.9549 9.20082 21.6561L9.125 21.6171L9.73829 19.2832L11.1868 22.2359L10.9883 22.2103ZM11.5883 21.907L9.98139 18.5628L11.5927 16.8891L13.1996 18.5851L11.5883 21.907ZM14.1006 21.5858C13.4817 21.907 12.8505 22.1178 12.2194 22.2103L12.0165 22.2404L13.456 19.2263L14.1842 21.5423L14.1006 21.5858ZM16.3029 19.6924C15.7643 20.3425 15.248 20.8298 14.7273 21.1777L14.6035 21.2602L13.8887 18.8973L16.4088 19.5608L16.3029 19.6924ZM13.7828 18.3565L14.1217 15.3513L15.9895 14.9287L16.5192 19.059L13.7828 18.3565ZM18.1172 16.0672C17.8484 16.8846 17.5339 17.6406 17.1504 18.3744L16.9876 18.6899L16.546 15.1004L18.1439 15.9791L18.1172 16.0672ZM18.687 12.7754C18.6424 13.6017 18.5097 14.4459 18.2889 15.3469L18.2543 15.4918L16.6252 14.5685L18.7048 12.49L18.687 12.7754Z" fill="black" fill-opacity="0.2"/>
<path d="M18.6201 7.6828C18.3781 6.84424 18.0647 6.05697 17.6889 5.34554C16.3642 2.84103 14.2768 1.2197 12.1001 1.02232C11.9417 1.00448 11.7778 1 11.615 1C9.8409 1 7.96418 2.00584 6.60041 3.68964C5.07719 5.56969 4.16393 8.21023 4.01785 11.1284C4.00447 11.3693 4 11.6247 4 11.8756C4 14.718 4.76831 17.412 6.16329 19.4504C6.22462 19.5385 6.28707 19.6222 6.3484 19.7091C7.42559 21.1777 9.3904 22.75 11.663 22.75C14.8154 22.75 16.74 20.1005 17.4202 18.9631C17.6399 18.594 17.8395 18.2026 18.0157 17.8068C18.2677 17.2269 18.4885 16.6114 18.6647 15.9791C19.424 13.2683 19.4107 10.4036 18.6201 7.6828ZM18.2677 8.25484C18.4963 9.14692 18.6379 10.0513 18.687 10.9478L18.7048 11.2333L16.6073 9.13799L18.2275 8.10988L18.2677 8.25484ZM11.5883 16.2512L9.52644 15.0168L8.62209 11.8756L9.52644 8.72875L11.5883 7.49434L13.6545 8.72875L14.5589 11.8756L13.6545 15.0168L11.5883 16.2512ZM13.5441 15.6323L13.2966 17.9562L11.9808 16.5768L13.5441 15.6323ZM11.1734 16.5768L9.85762 17.9562L9.61117 15.6323L11.1734 16.5768ZM8.07458 11.8756L6.89591 14.2083L4.56982 11.8756L6.89591 9.5372L8.07458 11.8756ZM7.34642 9.29188L8.94435 8.93953L8.29536 11.1809L7.34642 9.29188ZM8.29536 12.5602L8.94435 14.8328L7.34642 14.476L8.29536 12.5602ZM9.63683 8.11433L9.87993 5.78936L11.2002 7.1732L9.63683 8.11433ZM11.9808 7.1732L13.3233 5.79382L13.5664 8.10988L11.9808 7.1732ZM14.2366 8.91387L15.8345 9.26959L14.8811 11.1853L14.2366 8.91387ZM14.8811 12.5647L15.8345 14.4548L14.2366 14.8105L14.8811 12.5647ZM15.1064 11.8756L16.285 9.5372L18.6111 11.8756L16.285 14.2083L15.1064 11.8756ZM16.9831 5.07793L17.1504 5.37232C17.5128 6.02243 17.8127 6.72938 18.0681 7.54229L18.0904 7.62148L16.546 8.61948L16.9831 5.07793ZM15.9895 8.81685L14.0961 8.39535L13.7828 5.41136L16.4925 4.70884L15.9895 8.81685ZM14.6514 2.49872C15.2079 2.87674 15.7643 3.40752 16.3029 4.07993L16.4088 4.21149L13.8709 4.86718L14.5243 2.41062L14.6514 2.49872ZM12.1926 1.53638C12.8115 1.60663 13.4114 1.79063 13.9768 2.08947L14.056 2.1296L13.4427 4.46239L11.9941 1.51406L12.1926 1.53638ZM13.1996 5.18274L11.5883 6.85764L9.98139 5.16158L11.5927 1.83969L13.1996 5.18274ZM9.07705 2.16417C9.68144 1.82183 10.3438 1.60663 10.9883 1.53638L11.1868 1.51406L9.72157 4.5148L8.99676 2.20878L9.07705 2.16417ZM6.90037 4.08439C7.37763 3.44767 7.89839 2.93806 8.45371 2.56896L8.57747 2.48531L9.31902 4.87164L6.80337 4.21149L6.90037 4.08439ZM9.39932 5.39016L9.0592 8.39535L7.19141 8.81685L6.66175 4.68651L9.39932 5.39016ZM5.0861 7.6828C5.32028 6.89665 5.62916 6.14063 6.03059 5.37232L6.19452 5.05564L6.63609 8.64959L5.06382 7.76644L5.0861 7.6828ZM4.4951 10.9701C4.53859 10.1438 4.66683 9.30416 4.89208 8.39981L4.9233 8.2593L6.55581 9.17702L4.47727 11.2556L4.4951 10.9701ZM4.91439 15.4918C4.68468 14.5997 4.53859 13.6943 4.4951 12.8022L4.47727 12.5123L6.57365 14.6087L4.9534 15.6368L4.91439 15.4918ZM6.19897 18.6732L6.03059 18.3744C5.6693 17.7232 5.36823 17.0162 5.11287 16.2033L5.0861 16.1241L6.63498 15.1272L6.19897 18.6732ZM7.19141 14.9287L9.08597 15.3513L9.39932 18.3342L6.6885 19.0379L7.19141 14.9287ZM8.52507 21.248C7.97309 20.87 7.41667 20.3381 6.87808 19.6656L6.77214 19.5341L9.31011 18.8795L8.65777 21.335L8.52507 21.248ZM10.9883 22.2103C10.3706 22.1401 9.76952 21.9549 9.20082 21.6561L9.125 21.6171L9.73829 19.2832L11.1868 22.2359L10.9883 22.2103ZM11.5883 21.907L9.98139 18.5628L11.5927 16.8891L13.1996 18.5851L11.5883 21.907ZM14.1006 21.5858C13.4817 21.907 12.8505 22.1178 12.2194 22.2103L12.0165 22.2404L13.456 19.2263L14.1842 21.5423L14.1006 21.5858ZM16.3029 19.6924C15.7643 20.3425 15.248 20.8298 14.7273 21.1777L14.6035 21.2602L13.8887 18.8973L16.4088 19.5608L16.3029 19.6924ZM13.7828 18.3565L14.1217 15.3513L15.9895 14.9287L16.5192 19.059L13.7828 18.3565ZM18.1172 16.0672C17.8484 16.8846 17.5339 17.6406 17.1504 18.3744L16.9876 18.6899L16.546 15.1004L18.1439 15.9791L18.1172 16.0672ZM18.687 12.7754C18.6424 13.6017 18.5097 14.4459 18.2889 15.3469L18.2543 15.4918L16.6252 14.5685L18.7048 12.49L18.687 12.7754Z" fill="black" fill-opacity="0.2"/>
<path d="M18.6201 7.6828C18.3781 6.84424 18.0647 6.05697 17.6889 5.34554C16.3642 2.84103 14.2768 1.2197 12.1001 1.02232C11.9417 1.00448 11.7778 1 11.615 1C9.8409 1 7.96418 2.00584 6.60041 3.68964C5.07719 5.56969 4.16393 8.21023 4.01785 11.1284C4.00447 11.3693 4 11.6247 4 11.8756C4 14.718 4.76831 17.412 6.16329 19.4504C6.22462 19.5385 6.28707 19.6222 6.3484 19.7091C7.42559 21.1777 9.3904 22.75 11.663 22.75C14.8154 22.75 16.74 20.1005 17.4202 18.9631C17.6399 18.594 17.8395 18.2026 18.0157 17.8068C18.2677 17.2269 18.4885 16.6114 18.6647 15.9791C19.424 13.2683 19.4107 10.4036 18.6201 7.6828ZM18.2677 8.25484C18.4963 9.14692 18.6379 10.0513 18.687 10.9478L18.7048 11.2333L16.6073 9.13799L18.2275 8.10988L18.2677 8.25484ZM11.5883 16.2512L9.52644 15.0168L8.62209 11.8756L9.52644 8.72875L11.5883 7.49434L13.6545 8.72875L14.5589 11.8756L13.6545 15.0168L11.5883 16.2512ZM13.5441 15.6323L13.2966 17.9562L11.9808 16.5768L13.5441 15.6323ZM11.1734 16.5768L9.85762 17.9562L9.61117 15.6323L11.1734 16.5768ZM8.07458 11.8756L6.89591 14.2083L4.56982 11.8756L6.89591 9.5372L8.07458 11.8756ZM7.34642 9.29188L8.94435 8.93953L8.29536 11.1809L7.34642 9.29188ZM8.29536 12.5602L8.94435 14.8328L7.34642 14.476L8.29536 12.5602ZM9.63683 8.11433L9.87993 5.78936L11.2002 7.1732L9.63683 8.11433ZM11.9808 7.1732L13.3233 5.79382L13.5664 8.10988L11.9808 7.1732ZM14.2366 8.91387L15.8345 9.26959L14.8811 11.1853L14.2366 8.91387ZM14.8811 12.5647L15.8345 14.4548L14.2366 14.8105L14.8811 12.5647ZM15.1064 11.8756L16.285 9.5372L18.6111 11.8756L16.285 14.2083L15.1064 11.8756ZM16.9831 5.07793L17.1504 5.37232C17.5128 6.02243 17.8127 6.72938 18.0681 7.54229L18.0904 7.62148L16.546 8.61948L16.9831 5.07793ZM15.9895 8.81685L14.0961 8.39535L13.7828 5.41136L16.4925 4.70884L15.9895 8.81685ZM14.6514 2.49872C15.2079 2.87674 15.7643 3.40752 16.3029 4.07993L16.4088 4.21149L13.8709 4.86718L14.5243 2.41062L14.6514 2.49872ZM12.1926 1.53638C12.8115 1.60663 13.4114 1.79063 13.9768 2.08947L14.056 2.1296L13.4427 4.46239L11.9941 1.51406L12.1926 1.53638ZM13.1996 5.18274L11.5883 6.85764L9.98139 5.16158L11.5927 1.83969L13.1996 5.18274ZM9.07705 2.16417C9.68144 1.82183 10.3438 1.60663 10.9883 1.53638L11.1868 1.51406L9.72157 4.5148L8.99676 2.20878L9.07705 2.16417ZM6.90037 4.08439C7.37763 3.44767 7.89839 2.93806 8.45371 2.56896L8.57747 2.48531L9.31902 4.87164L6.80337 4.21149L6.90037 4.08439ZM9.39932 5.39016L9.0592 8.39535L7.19141 8.81685L6.66175 4.68651L9.39932 5.39016ZM5.0861 7.6828C5.32028 6.89665 5.62916 6.14063 6.03059 5.37232L6.19452 5.05564L6.63609 8.64959L5.06382 7.76644L5.0861 7.6828ZM4.4951 10.9701C4.53859 10.1438 4.66683 9.30416 4.89208 8.39981L4.9233 8.2593L6.55581 9.17702L4.47727 11.2556L4.4951 10.9701ZM4.91439 15.4918C4.68468 14.5997 4.53859 13.6943 4.4951 12.8022L4.47727 12.5123L6.57365 14.6087L4.9534 15.6368L4.91439 15.4918ZM6.19897 18.6732L6.03059 18.3744C5.6693 17.7232 5.36823 17.0162 5.11287 16.2033L5.0861 16.1241L6.63498 15.1272L6.19897 18.6732ZM7.19141 14.9287L9.08597 15.3513L9.39932 18.3342L6.6885 19.0379L7.19141 14.9287ZM8.52507 21.248C7.97309 20.87 7.41667 20.3381 6.87808 19.6656L6.77214 19.5341L9.31011 18.8795L8.65777 21.335L8.52507 21.248ZM10.9883 22.2103C10.3706 22.1401 9.76952 21.9549 9.20082 21.6561L9.125 21.6171L9.73829 19.2832L11.1868 22.2359L10.9883 22.2103ZM11.5883 21.907L9.98139 18.5628L11.5927 16.8891L13.1996 18.5851L11.5883 21.907ZM14.1006 21.5858C13.4817 21.907 12.8505 22.1178 12.2194 22.2103L12.0165 22.2404L13.456 19.2263L14.1842 21.5423L14.1006 21.5858ZM16.3029 19.6924C15.7643 20.3425 15.248 20.8298 14.7273 21.1777L14.6035 21.2602L13.8887 18.8973L16.4088 19.5608L16.3029 19.6924ZM13.7828 18.3565L14.1217 15.3513L15.9895 14.9287L16.5192 19.059L13.7828 18.3565ZM18.1172 16.0672C17.8484 16.8846 17.5339 17.6406 17.1504 18.3744L16.9876 18.6899L16.546 15.1004L18.1439 15.9791L18.1172 16.0672ZM18.687 12.7754C18.6424 13.6017 18.5097 14.4459 18.2889 15.3469L18.2543 15.4918L16.6252 14.5685L18.7048 12.49L18.687 12.7754Z" fill="black" fill-opacity="0.2"/>
<path d="M18.6201 7.6828C18.3781 6.84424 18.0647 6.05697 17.6889 5.34554C16.3642 2.84103 14.2768 1.2197 12.1001 1.02232C11.9417 1.00448 11.7778 1 11.615 1C9.8409 1 7.96418 2.00584 6.60041 3.68964C5.07719 5.56969 4.16393 8.21023 4.01785 11.1284C4.00447 11.3693 4 11.6247 4 11.8756C4 14.718 4.76831 17.412 6.16329 19.4504C6.22462 19.5385 6.28707 19.6222 6.3484 19.7091C7.42559 21.1777 9.3904 22.75 11.663 22.75C14.8154 22.75 16.74 20.1005 17.4202 18.9631C17.6399 18.594 17.8395 18.2026 18.0157 17.8068C18.2677 17.2269 18.4885 16.6114 18.6647 15.9791C19.424 13.2683 19.4107 10.4036 18.6201 7.6828ZM18.2677 8.25484C18.4963 9.14692 18.6379 10.0513 18.687 10.9478L18.7048 11.2333L16.6073 9.13799L18.2275 8.10988L18.2677 8.25484ZM11.5883 16.2512L9.52644 15.0168L8.62209 11.8756L9.52644 8.72875L11.5883 7.49434L13.6545 8.72875L14.5589 11.8756L13.6545 15.0168L11.5883 16.2512ZM13.5441 15.6323L13.2966 17.9562L11.9808 16.5768L13.5441 15.6323ZM11.1734 16.5768L9.85762 17.9562L9.61117 15.6323L11.1734 16.5768ZM8.07458 11.8756L6.89591 14.2083L4.56982 11.8756L6.89591 9.5372L8.07458 11.8756ZM7.34642 9.29188L8.94435 8.93953L8.29536 11.1809L7.34642 9.29188ZM8.29536 12.5602L8.94435 14.8328L7.34642 14.476L8.29536 12.5602ZM9.63683 8.11433L9.87993 5.78936L11.2002 7.1732L9.63683 8.11433ZM11.9808 7.1732L13.3233 5.79382L13.5664 8.10988L11.9808 7.1732ZM14.2366 8.91387L15.8345 9.26959L14.8811 11.1853L14.2366 8.91387ZM14.8811 12.5647L15.8345 14.4548L14.2366 14.8105L14.8811 12.5647ZM15.1064 11.8756L16.285 9.5372L18.6111 11.8756L16.285 14.2083L15.1064 11.8756ZM16.9831 5.07793L17.1504 5.37232C17.5128 6.02243 17.8127 6.72938 18.0681 7.54229L18.0904 7.62148L16.546 8.61948L16.9831 5.07793ZM15.9895 8.81685L14.0961 8.39535L13.7828 5.41136L16.4925 4.70884L15.9895 8.81685ZM14.6514 2.49872C15.2079 2.87674 15.7643 3.40752 16.3029 4.07993L16.4088 4.21149L13.8709 4.86718L14.5243 2.41062L14.6514 2.49872ZM12.1926 1.53638C12.8115 1.60663 13.4114 1.79063 13.9768 2.08947L14.056 2.1296L13.4427 4.46239L11.9941 1.51406L12.1926 1.53638ZM13.1996 5.18274L11.5883 6.85764L9.98139 5.16158L11.5927 1.83969L13.1996 5.18274ZM9.07705 2.16417C9.68144 1.82183 10.3438 1.60663 10.9883 1.53638L11.1868 1.51406L9.72157 4.5148L8.99676 2.20878L9.07705 2.16417ZM6.90037 4.08439C7.37763 3.44767 7.89839 2.93806 8.45371 2.56896L8.57747 2.48531L9.31902 4.87164L6.80337 4.21149L6.90037 4.08439ZM9.39932 5.39016L9.0592 8.39535L7.19141 8.81685L6.66175 4.68651L9.39932 5.39016ZM5.0861 7.6828C5.32028 6.89665 5.62916 6.14063 6.03059 5.37232L6.19452 5.05564L6.63609 8.64959L5.06382 7.76644L5.0861 7.6828ZM4.4951 10.9701C4.53859 10.1438 4.66683 9.30416 4.89208 8.39981L4.9233 8.2593L6.55581 9.17702L4.47727 11.2556L4.4951 10.9701ZM4.91439 15.4918C4.68468 14.5997 4.53859 13.6943 4.4951 12.8022L4.47727 12.5123L6.57365 14.6087L4.9534 15.6368L4.91439 15.4918ZM6.19897 18.6732L6.03059 18.3744C5.6693 17.7232 5.36823 17.0162 5.11287 16.2033L5.0861 16.1241L6.63498 15.1272L6.19897 18.6732ZM7.19141 14.9287L9.08597 15.3513L9.39932 18.3342L6.6885 19.0379L7.19141 14.9287ZM8.52507 21.248C7.97309 20.87 7.41667 20.3381 6.87808 19.6656L6.77214 19.5341L9.31011 18.8795L8.65777 21.335L8.52507 21.248ZM10.9883 22.2103C10.3706 22.1401 9.76952 21.9549 9.20082 21.6561L9.125 21.6171L9.73829 19.2832L11.1868 22.2359L10.9883 22.2103ZM11.5883 21.907L9.98139 18.5628L11.5927 16.8891L13.1996 18.5851L11.5883 21.907ZM14.1006 21.5858C13.4817 21.907 12.8505 22.1178 12.2194 22.2103L12.0165 22.2404L13.456 19.2263L14.1842 21.5423L14.1006 21.5858ZM16.3029 19.6924C15.7643 20.3425 15.248 20.8298 14.7273 21.1777L14.6035 21.2602L13.8887 18.8973L16.4088 19.5608L16.3029 19.6924ZM13.7828 18.3565L14.1217 15.3513L15.9895 14.9287L16.5192 19.059L13.7828 18.3565ZM18.1172 16.0672C17.8484 16.8846 17.5339 17.6406 17.1504 18.3744L16.9876 18.6899L16.546 15.1004L18.1439 15.9791L18.1172 16.0672ZM18.687 12.7754C18.6424 13.6017 18.5097 14.4459 18.2889 15.3469L18.2543 15.4918L16.6252 14.5685L18.7048 12.49L18.687 12.7754Z" fill="black" fill-opacity="0.2"/>
<path d="M18.6201 7.6828C18.3781 6.84424 18.0647 6.05697 17.6889 5.34554C16.3642 2.84103 14.2768 1.2197 12.1001 1.02232C11.9417 1.00448 11.7778 1 11.615 1C9.8409 1 7.96418 2.00584 6.60041 3.68964C5.07719 5.56969 4.16393 8.21023 4.01785 11.1284C4.00447 11.3693 4 11.6247 4 11.8756C4 14.718 4.76831 17.412 6.16329 19.4504C6.22462 19.5385 6.28707 19.6222 6.3484 19.7091C7.42559 21.1777 9.3904 22.75 11.663 22.75C14.8154 22.75 16.74 20.1005 17.4202 18.9631C17.6399 18.594 17.8395 18.2026 18.0157 17.8068C18.2677 17.2269 18.4885 16.6114 18.6647 15.9791C19.424 13.2683 19.4107 10.4036 18.6201 7.6828ZM18.2677 8.25484C18.4963 9.14692 18.6379 10.0513 18.687 10.9478L18.7048 11.2333L16.6073 9.13799L18.2275 8.10988L18.2677 8.25484ZM11.5883 16.2512L9.52644 15.0168L8.62209 11.8756L9.52644 8.72875L11.5883 7.49434L13.6545 8.72875L14.5589 11.8756L13.6545 15.0168L11.5883 16.2512ZM13.5441 15.6323L13.2966 17.9562L11.9808 16.5768L13.5441 15.6323ZM11.1734 16.5768L9.85762 17.9562L9.61117 15.6323L11.1734 16.5768ZM8.07458 11.8756L6.89591 14.2083L4.56982 11.8756L6.89591 9.5372L8.07458 11.8756ZM7.34642 9.29188L8.94435 8.93953L8.29536 11.1809L7.34642 9.29188ZM8.29536 12.5602L8.94435 14.8328L7.34642 14.476L8.29536 12.5602ZM9.63683 8.11433L9.87993 5.78936L11.2002 7.1732L9.63683 8.11433ZM11.9808 7.1732L13.3233 5.79382L13.5664 8.10988L11.9808 7.1732ZM14.2366 8.91387L15.8345 9.26959L14.8811 11.1853L14.2366 8.91387ZM14.8811 12.5647L15.8345 14.4548L14.2366 14.8105L14.8811 12.5647ZM15.1064 11.8756L16.285 9.5372L18.6111 11.8756L16.285 14.2083L15.1064 11.8756ZM16.9831 5.07793L17.1504 5.37232C17.5128 6.02243 17.8127 6.72938 18.0681 7.54229L18.0904 7.62148L16.546 8.61948L16.9831 5.07793ZM15.9895 8.81685L14.0961 8.39535L13.7828 5.41136L16.4925 4.70884L15.9895 8.81685ZM14.6514 2.49872C15.2079 2.87674 15.7643 3.40752 16.3029 4.07993L16.4088 4.21149L13.8709 4.86718L14.5243 2.41062L14.6514 2.49872ZM12.1926 1.53638C12.8115 1.60663 13.4114 1.79063 13.9768 2.08947L14.056 2.1296L13.4427 4.46239L11.9941 1.51406L12.1926 1.53638ZM13.1996 5.18274L11.5883 6.85764L9.98139 5.16158L11.5927 1.83969L13.1996 5.18274ZM9.07705 2.16417C9.68144 1.82183 10.3438 1.60663 10.9883 1.53638L11.1868 1.51406L9.72157 4.5148L8.99676 2.20878L9.07705 2.16417ZM6.90037 4.08439C7.37763 3.44767 7.89839 2.93806 8.45371 2.56896L8.57747 2.48531L9.31902 4.87164L6.80337 4.21149L6.90037 4.08439ZM9.39932 5.39016L9.0592 8.39535L7.19141 8.81685L6.66175 4.68651L9.39932 5.39016ZM5.0861 7.6828C5.32028 6.89665 5.62916 6.14063 6.03059 5.37232L6.19452 5.05564L6.63609 8.64959L5.06382 7.76644L5.0861 7.6828ZM4.4951 10.9701C4.53859 10.1438 4.66683 9.30416 4.89208 8.39981L4.9233 8.2593L6.55581 9.17702L4.47727 11.2556L4.4951 10.9701ZM4.91439 15.4918C4.68468 14.5997 4.53859 13.6943 4.4951 12.8022L4.47727 12.5123L6.57365 14.6087L4.9534 15.6368L4.91439 15.4918ZM6.19897 18.6732L6.03059 18.3744C5.6693 17.7232 5.36823 17.0162 5.11287 16.2033L5.0861 16.1241L6.63498 15.1272L6.19897 18.6732ZM7.19141 14.9287L9.08597 15.3513L9.39932 18.3342L6.6885 19.0379L7.19141 14.9287ZM8.52507 21.248C7.97309 20.87 7.41667 20.3381 6.87808 19.6656L6.77214 19.5341L9.31011 18.8795L8.65777 21.335L8.52507 21.248ZM10.9883 22.2103C10.3706 22.1401 9.76952 21.9549 9.20082 21.6561L9.125 21.6171L9.73829 19.2832L11.1868 22.2359L10.9883 22.2103ZM11.5883 21.907L9.98139 18.5628L11.5927 16.8891L13.1996 18.5851L11.5883 21.907ZM14.1006 21.5858C13.4817 21.907 12.8505 22.1178 12.2194 22.2103L12.0165 22.2404L13.456 19.2263L14.1842 21.5423L14.1006 21.5858ZM16.3029 19.6924C15.7643 20.3425 15.248 20.8298 14.7273 21.1777L14.6035 21.2602L13.8887 18.8973L16.4088 19.5608L16.3029 19.6924ZM13.7828 18.3565L14.1217 15.3513L15.9895 14.9287L16.5192 19.059L13.7828 18.3565ZM18.1172 16.0672C17.8484 16.8846 17.5339 17.6406 17.1504 18.3744L16.9876 18.6899L16.546 15.1004L18.1439 15.9791L18.1172 16.0672ZM18.687 12.7754C18.6424 13.6017 18.5097 14.4459 18.2889 15.3469L18.2543 15.4918L16.6252 14.5685L18.7048 12.49L18.687 12.7754Z" fill="black" fill-opacity="0.2"/>
<path d="M18.6201 7.6828C18.3781 6.84424 18.0647 6.05697 17.6889 5.34554C16.3642 2.84103 14.2768 1.2197 12.1001 1.02232C11.9417 1.00448 11.7778 1 11.615 1C9.8409 1 7.96418 2.00584 6.60041 3.68964C5.07719 5.56969 4.16393 8.21023 4.01785 11.1284C4.00447 11.3693 4 11.6247 4 11.8756C4 14.718 4.76831 17.412 6.16329 19.4504C6.22462 19.5385 6.28707 19.6222 6.3484 19.7091C7.42559 21.1777 9.3904 22.75 11.663 22.75C14.8154 22.75 16.74 20.1005 17.4202 18.9631C17.6399 18.594 17.8395 18.2026 18.0157 17.8068C18.2677 17.2269 18.4885 16.6114 18.6647 15.9791C19.424 13.2683 19.4107 10.4036 18.6201 7.6828ZM18.2677 8.25484C18.4963 9.14692 18.6379 10.0513 18.687 10.9478L18.7048 11.2333L16.6073 9.13799L18.2275 8.10988L18.2677 8.25484ZM11.5883 16.2512L9.52644 15.0168L8.62209 11.8756L9.52644 8.72875L11.5883 7.49434L13.6545 8.72875L14.5589 11.8756L13.6545 15.0168L11.5883 16.2512ZM13.5441 15.6323L13.2966 17.9562L11.9808 16.5768L13.5441 15.6323ZM11.1734 16.5768L9.85762 17.9562L9.61117 15.6323L11.1734 16.5768ZM8.07458 11.8756L6.89591 14.2083L4.56982 11.8756L6.89591 9.5372L8.07458 11.8756ZM7.34642 9.29188L8.94435 8.93953L8.29536 11.1809L7.34642 9.29188ZM8.29536 12.5602L8.94435 14.8328L7.34642 14.476L8.29536 12.5602ZM9.63683 8.11433L9.87993 5.78936L11.2002 7.1732L9.63683 8.11433ZM11.9808 7.1732L13.3233 5.79382L13.5664 8.10988L11.9808 7.1732ZM14.2366 8.91387L15.8345 9.26959L14.8811 11.1853L14.2366 8.91387ZM14.8811 12.5647L15.8345 14.4548L14.2366 14.8105L14.8811 12.5647ZM15.1064 11.8756L16.285 9.5372L18.6111 11.8756L16.285 14.2083L15.1064 11.8756ZM16.9831 5.07793L17.1504 5.37232C17.5128 6.02243 17.8127 6.72938 18.0681 7.54229L18.0904 7.62148L16.546 8.61948L16.9831 5.07793ZM15.9895 8.81685L14.0961 8.39535L13.7828 5.41136L16.4925 4.70884L15.9895 8.81685ZM14.6514 2.49872C15.2079 2.87674 15.7643 3.40752 16.3029 4.07993L16.4088 4.21149L13.8709 4.86718L14.5243 2.41062L14.6514 2.49872ZM12.1926 1.53638C12.8115 1.60663 13.4114 1.79063 13.9768 2.08947L14.056 2.1296L13.4427 4.46239L11.9941 1.51406L12.1926 1.53638ZM13.1996 5.18274L11.5883 6.85764L9.98139 5.16158L11.5927 1.83969L13.1996 5.18274ZM9.07705 2.16417C9.68144 1.82183 10.3438 1.60663 10.9883 1.53638L11.1868 1.51406L9.72157 4.5148L8.99676 2.20878L9.07705 2.16417ZM6.90037 4.08439C7.37763 3.44767 7.89839 2.93806 8.45371 2.56896L8.57747 2.48531L9.31902 4.87164L6.80337 4.21149L6.90037 4.08439ZM9.39932 5.39016L9.0592 8.39535L7.19141 8.81685L6.66175 4.68651L9.39932 5.39016ZM5.0861 7.6828C5.32028 6.89665 5.62916 6.14063 6.03059 5.37232L6.19452 5.05564L6.63609 8.64959L5.06382 7.76644L5.0861 7.6828ZM4.4951 10.9701C4.53859 10.1438 4.66683 9.30416 4.89208 8.39981L4.9233 8.2593L6.55581 9.17702L4.47727 11.2556L4.4951 10.9701ZM4.91439 15.4918C4.68468 14.5997 4.53859 13.6943 4.4951 12.8022L4.47727 12.5123L6.57365 14.6087L4.9534 15.6368L4.91439 15.4918ZM6.19897 18.6732L6.03059 18.3744C5.6693 17.7232 5.36823 17.0162 5.11287 16.2033L5.0861 16.1241L6.63498 15.1272L6.19897 18.6732ZM7.19141 14.9287L9.08597 15.3513L9.39932 18.3342L6.6885 19.0379L7.19141 14.9287ZM8.52507 21.248C7.97309 20.87 7.41667 20.3381 6.87808 19.6656L6.77214 19.5341L9.31011 18.8795L8.65777 21.335L8.52507 21.248ZM10.9883 22.2103C10.3706 22.1401 9.76952 21.9549 9.20082 21.6561L9.125 21.6171L9.73829 19.2832L11.1868 22.2359L10.9883 22.2103ZM11.5883 21.907L9.98139 18.5628L11.5927 16.8891L13.1996 18.5851L11.5883 21.907ZM14.1006 21.5858C13.4817 21.907 12.8505 22.1178 12.2194 22.2103L12.0165 22.2404L13.456 19.2263L14.1842 21.5423L14.1006 21.5858ZM16.3029 19.6924C15.7643 20.3425 15.248 20.8298 14.7273 21.1777L14.6035 21.2602L13.8887 18.8973L16.4088 19.5608L16.3029 19.6924ZM13.7828 18.3565L14.1217 15.3513L15.9895 14.9287L16.5192 19.059L13.7828 18.3565ZM18.1172 16.0672C17.8484 16.8846 17.5339 17.6406 17.1504 18.3744L16.9876 18.6899L16.546 15.1004L18.1439 15.9791L18.1172 16.0672ZM18.687 12.7754C18.6424 13.6017 18.5097 14.4459 18.2889 15.3469L18.2543 15.4918L16.6252 14.5685L18.7048 12.49L18.687 12.7754Z" fill="black" fill-opacity="0.2"/>
<path d="M18.6201 7.6828C18.3781 6.84424 18.0647 6.05697 17.6889 5.34554C16.3642 2.84103 14.2768 1.2197 12.1001 1.02232C11.9417 1.00448 11.7778 1 11.615 1C9.8409 1 7.96418 2.00584 6.60041 3.68964C5.07719 5.56969 4.16393 8.21023 4.01785 11.1284C4.00447 11.3693 4 11.6247 4 11.8756C4 14.718 4.76831 17.412 6.16329 19.4504C6.22462 19.5385 6.28707 19.6222 6.3484 19.7091C7.42559 21.1777 9.3904 22.75 11.663 22.75C14.8154 22.75 16.74 20.1005 17.4202 18.9631C17.6399 18.594 17.8395 18.2026 18.0157 17.8068C18.2677 17.2269 18.4885 16.6114 18.6647 15.9791C19.424 13.2683 19.4107 10.4036 18.6201 7.6828ZM18.2677 8.25484C18.4963 9.14692 18.6379 10.0513 18.687 10.9478L18.7048 11.2333L16.6073 9.13799L18.2275 8.10988L18.2677 8.25484ZM11.5883 16.2512L9.52644 15.0168L8.62209 11.8756L9.52644 8.72875L11.5883 7.49434L13.6545 8.72875L14.5589 11.8756L13.6545 15.0168L11.5883 16.2512ZM13.5441 15.6323L13.2966 17.9562L11.9808 16.5768L13.5441 15.6323ZM11.1734 16.5768L9.85762 17.9562L9.61117 15.6323L11.1734 16.5768ZM8.07458 11.8756L6.89591 14.2083L4.56982 11.8756L6.89591 9.5372L8.07458 11.8756ZM7.34642 9.29188L8.94435 8.93953L8.29536 11.1809L7.34642 9.29188ZM8.29536 12.5602L8.94435 14.8328L7.34642 14.476L8.29536 12.5602ZM9.63683 8.11433L9.87993 5.78936L11.2002 7.1732L9.63683 8.11433ZM11.9808 7.1732L13.3233 5.79382L13.5664 8.10988L11.9808 7.1732ZM14.2366 8.91387L15.8345 9.26959L14.8811 11.1853L14.2366 8.91387ZM14.8811 12.5647L15.8345 14.4548L14.2366 14.8105L14.8811 12.5647ZM15.1064 11.8756L16.285 9.5372L18.6111 11.8756L16.285 14.2083L15.1064 11.8756ZM16.9831 5.07793L17.1504 5.37232C17.5128 6.02243 17.8127 6.72938 18.0681 7.54229L18.0904 7.62148L16.546 8.61948L16.9831 5.07793ZM15.9895 8.81685L14.0961 8.39535L13.7828 5.41136L16.4925 4.70884L15.9895 8.81685ZM14.6514 2.49872C15.2079 2.87674 15.7643 3.40752 16.3029 4.07993L16.4088 4.21149L13.8709 4.86718L14.5243 2.41062L14.6514 2.49872ZM12.1926 1.53638C12.8115 1.60663 13.4114 1.79063 13.9768 2.08947L14.056 2.1296L13.4427 4.46239L11.9941 1.51406L12.1926 1.53638ZM13.1996 5.18274L11.5883 6.85764L9.98139 5.16158L11.5927 1.83969L13.1996 5.18274ZM9.07705 2.16417C9.68144 1.82183 10.3438 1.60663 10.9883 1.53638L11.1868 1.51406L9.72157 4.5148L8.99676 2.20878L9.07705 2.16417ZM6.90037 4.08439C7.37763 3.44767 7.89839 2.93806 8.45371 2.56896L8.57747 2.48531L9.31902 4.87164L6.80337 4.21149L6.90037 4.08439ZM9.39932 5.39016L9.0592 8.39535L7.19141 8.81685L6.66175 4.68651L9.39932 5.39016ZM5.0861 7.6828C5.32028 6.89665 5.62916 6.14063 6.03059 5.37232L6.19452 5.05564L6.63609 8.64959L5.06382 7.76644L5.0861 7.6828ZM4.4951 10.9701C4.53859 10.1438 4.66683 9.30416 4.89208 8.39981L4.9233 8.2593L6.55581 9.17702L4.47727 11.2556L4.4951 10.9701ZM4.91439 15.4918C4.68468 14.5997 4.53859 13.6943 4.4951 12.8022L4.47727 12.5123L6.57365 14.6087L4.9534 15.6368L4.91439 15.4918ZM6.19897 18.6732L6.03059 18.3744C5.6693 17.7232 5.36823 17.0162 5.11287 16.2033L5.0861 16.1241L6.63498 15.1272L6.19897 18.6732ZM7.19141 14.9287L9.08597 15.3513L9.39932 18.3342L6.6885 19.0379L7.19141 14.9287ZM8.52507 21.248C7.97309 20.87 7.41667 20.3381 6.87808 19.6656L6.77214 19.5341L9.31011 18.8795L8.65777 21.335L8.52507 21.248ZM10.9883 22.2103C10.3706 22.1401 9.76952 21.9549 9.20082 21.6561L9.125 21.6171L9.73829 19.2832L11.1868 22.2359L10.9883 22.2103ZM11.5883 21.907L9.98139 18.5628L11.5927 16.8891L13.1996 18.5851L11.5883 21.907ZM14.1006 21.5858C13.4817 21.907 12.8505 22.1178 12.2194 22.2103L12.0165 22.2404L13.456 19.2263L14.1842 21.5423L14.1006 21.5858ZM16.3029 19.6924C15.7643 20.3425 15.248 20.8298 14.7273 21.1777L14.6035 21.2602L13.8887 18.8973L16.4088 19.5608L16.3029 19.6924ZM13.7828 18.3565L14.1217 15.3513L15.9895 14.9287L16.5192 19.059L13.7828 18.3565ZM18.1172 16.0672C17.8484 16.8846 17.5339 17.6406 17.1504 18.3744L16.9876 18.6899L16.546 15.1004L18.1439 15.9791L18.1172 16.0672ZM18.687 12.7754C18.6424 13.6017 18.5097 14.4459 18.2889 15.3469L18.2543 15.4918L16.6252 14.5685L18.7048 12.49L18.687 12.7754Z" fill="black" fill-opacity="0.2"/>
<path d="M18.6201 7.6828C18.3781 6.84424 18.0647 6.05697 17.6889 5.34554C16.3642 2.84103 14.2768 1.2197 12.1001 1.02232C11.9417 1.00448 11.7778 1 11.615 1C9.8409 1 7.96418 2.00584 6.60041 3.68964C5.07719 5.56969 4.16393 8.21023 4.01785 11.1284C4.00447 11.3693 4 11.6247 4 11.8756C4 14.718 4.76831 17.412 6.16329 19.4504C6.22462 19.5385 6.28707 19.6222 6.3484 19.7091C7.42559 21.1777 9.3904 22.75 11.663 22.75C14.8154 22.75 16.74 20.1005 17.4202 18.9631C17.6399 18.594 17.8395 18.2026 18.0157 17.8068C18.2677 17.2269 18.4885 16.6114 18.6647 15.9791C19.424 13.2683 19.4107 10.4036 18.6201 7.6828ZM18.2677 8.25484C18.4963 9.14692 18.6379 10.0513 18.687 10.9478L18.7048 11.2333L16.6073 9.13799L18.2275 8.10988L18.2677 8.25484ZM11.5883 16.2512L9.52644 15.0168L8.62209 11.8756L9.52644 8.72875L11.5883 7.49434L13.6545 8.72875L14.5589 11.8756L13.6545 15.0168L11.5883 16.2512ZM13.5441 15.6323L13.2966 17.9562L11.9808 16.5768L13.5441 15.6323ZM11.1734 16.5768L9.85762 17.9562L9.61117 15.6323L11.1734 16.5768ZM8.07458 11.8756L6.89591 14.2083L4.56982 11.8756L6.89591 9.5372L8.07458 11.8756ZM7.34642 9.29188L8.94435 8.93953L8.29536 11.1809L7.34642 9.29188ZM8.29536 12.5602L8.94435 14.8328L7.34642 14.476L8.29536 12.5602ZM9.63683 8.11433L9.87993 5.78936L11.2002 7.1732L9.63683 8.11433ZM11.9808 7.1732L13.3233 5.79382L13.5664 8.10988L11.9808 7.1732ZM14.2366 8.91387L15.8345 9.26959L14.8811 11.1853L14.2366 8.91387ZM14.8811 12.5647L15.8345 14.4548L14.2366 14.8105L14.8811 12.5647ZM15.1064 11.8756L16.285 9.5372L18.6111 11.8756L16.285 14.2083L15.1064 11.8756ZM16.9831 5.07793L17.1504 5.37232C17.5128 6.02243 17.8127 6.72938 18.0681 7.54229L18.0904 7.62148L16.546 8.61948L16.9831 5.07793ZM15.9895 8.81685L14.0961 8.39535L13.7828 5.41136L16.4925 4.70884L15.9895 8.81685ZM14.6514 2.49872C15.2079 2.87674 15.7643 3.40752 16.3029 4.07993L16.4088 4.21149L13.8709 4.86718L14.5243 2.41062L14.6514 2.49872ZM12.1926 1.53638C12.8115 1.60663 13.4114 1.79063 13.9768 2.08947L14.056 2.1296L13.4427 4.46239L11.9941 1.51406L12.1926 1.53638ZM13.1996 5.18274L11.5883 6.85764L9.98139 5.16158L11.5927 1.83969L13.1996 5.18274ZM9.07705 2.16417C9.68144 1.82183 10.3438 1.60663 10.9883 1.53638L11.1868 1.51406L9.72157 4.5148L8.99676 2.20878L9.07705 2.16417ZM6.90037 4.08439C7.37763 3.44767 7.89839 2.93806 8.45371 2.56896L8.57747 2.48531L9.31902 4.87164L6.80337 4.21149L6.90037 4.08439ZM9.39932 5.39016L9.0592 8.39535L7.19141 8.81685L6.66175 4.68651L9.39932 5.39016ZM5.0861 7.6828C5.32028 6.89665 5.62916 6.14063 6.03059 5.37232L6.19452 5.05564L6.63609 8.64959L5.06382 7.76644L5.0861 7.6828ZM4.4951 10.9701C4.53859 10.1438 4.66683 9.30416 4.89208 8.39981L4.9233 8.2593L6.55581 9.17702L4.47727 11.2556L4.4951 10.9701ZM4.91439 15.4918C4.68468 14.5997 4.53859 13.6943 4.4951 12.8022L4.47727 12.5123L6.57365 14.6087L4.9534 15.6368L4.91439 15.4918ZM6.19897 18.6732L6.03059 18.3744C5.6693 17.7232 5.36823 17.0162 5.11287 16.2033L5.0861 16.1241L6.63498 15.1272L6.19897 18.6732ZM7.19141 14.9287L9.08597 15.3513L9.39932 18.3342L6.6885 19.0379L7.19141 14.9287ZM8.52507 21.248C7.97309 20.87 7.41667 20.3381 6.87808 19.6656L6.77214 19.5341L9.31011 18.8795L8.65777 21.335L8.52507 21.248ZM10.9883 22.2103C10.3706 22.1401 9.76952 21.9549 9.20082 21.6561L9.125 21.6171L9.73829 19.2832L11.1868 22.2359L10.9883 22.2103ZM11.5883 21.907L9.98139 18.5628L11.5927 16.8891L13.1996 18.5851L11.5883 21.907ZM14.1006 21.5858C13.4817 21.907 12.8505 22.1178 12.2194 22.2103L12.0165 22.2404L13.456 19.2263L14.1842 21.5423L14.1006 21.5858ZM16.3029 19.6924C15.7643 20.3425 15.248 20.8298 14.7273 21.1777L14.6035 21.2602L13.8887 18.8973L16.4088 19.5608L16.3029 19.6924ZM13.7828 18.3565L14.1217 15.3513L15.9895 14.9287L16.5192 19.059L13.7828 18.3565ZM18.1172 16.0672C17.8484 16.8846 17.5339 17.6406 17.1504 18.3744L16.9876 18.6899L16.546 15.1004L18.1439 15.9791L18.1172 16.0672ZM18.687 12.7754C18.6424 13.6017 18.5097 14.4459 18.2889 15.3469L18.2543 15.4918L16.6252 14.5685L18.7048 12.49L18.687 12.7754Z" stroke="#333335" stroke-width="0.22302"/>
<path d="M18.6201 7.6828C18.3781 6.84424 18.0647 6.05697 17.6889 5.34554C16.3642 2.84103 14.2768 1.2197 12.1001 1.02232C11.9417 1.00448 11.7778 1 11.615 1C9.8409 1 7.96418 2.00584 6.60041 3.68964C5.07719 5.56969 4.16393 8.21023 4.01785 11.1284C4.00447 11.3693 4 11.6247 4 11.8756C4 14.718 4.76831 17.412 6.16329 19.4504C6.22462 19.5385 6.28707 19.6222 6.3484 19.7091C7.42559 21.1777 9.3904 22.75 11.663 22.75C14.8154 22.75 16.74 20.1005 17.4202 18.9631C17.6399 18.594 17.8395 18.2026 18.0157 17.8068C18.2677 17.2269 18.4885 16.6114 18.6647 15.9791C19.424 13.2683 19.4107 10.4036 18.6201 7.6828ZM18.2677 8.25484C18.4963 9.14692 18.6379 10.0513 18.687 10.9478L18.7048 11.2333L16.6073 9.13799L18.2275 8.10988L18.2677 8.25484ZM11.5883 16.2512L9.52644 15.0168L8.62209 11.8756L9.52644 8.72875L11.5883 7.49434L13.6545 8.72875L14.5589 11.8756L13.6545 15.0168L11.5883 16.2512ZM13.5441 15.6323L13.2966 17.9562L11.9808 16.5768L13.5441 15.6323ZM11.1734 16.5768L9.85762 17.9562L9.61117 15.6323L11.1734 16.5768ZM8.07458 11.8756L6.89591 14.2083L4.56982 11.8756L6.89591 9.5372L8.07458 11.8756ZM7.34642 9.29188L8.94435 8.93953L8.29536 11.1809L7.34642 9.29188ZM8.29536 12.5602L8.94435 14.8328L7.34642 14.476L8.29536 12.5602ZM9.63683 8.11433L9.87993 5.78936L11.2002 7.1732L9.63683 8.11433ZM11.9808 7.1732L13.3233 5.79382L13.5664 8.10988L11.9808 7.1732ZM14.2366 8.91387L15.8345 9.26959L14.8811 11.1853L14.2366 8.91387ZM14.8811 12.5647L15.8345 14.4548L14.2366 14.8105L14.8811 12.5647ZM15.1064 11.8756L16.285 9.5372L18.6111 11.8756L16.285 14.2083L15.1064 11.8756ZM16.9831 5.07793L17.1504 5.37232C17.5128 6.02243 17.8127 6.72938 18.0681 7.54229L18.0904 7.62148L16.546 8.61948L16.9831 5.07793ZM15.9895 8.81685L14.0961 8.39535L13.7828 5.41136L16.4925 4.70884L15.9895 8.81685ZM14.6514 2.49872C15.2079 2.87674 15.7643 3.40752 16.3029 4.07993L16.4088 4.21149L13.8709 4.86718L14.5243 2.41062L14.6514 2.49872ZM12.1926 1.53638C12.8115 1.60663 13.4114 1.79063 13.9768 2.08947L14.056 2.1296L13.4427 4.46239L11.9941 1.51406L12.1926 1.53638ZM13.1996 5.18274L11.5883 6.85764L9.98139 5.16158L11.5927 1.83969L13.1996 5.18274ZM9.07705 2.16417C9.68144 1.82183 10.3438 1.60663 10.9883 1.53638L11.1868 1.51406L9.72157 4.5148L8.99676 2.20878L9.07705 2.16417ZM6.90037 4.08439C7.37763 3.44767 7.89839 2.93806 8.45371 2.56896L8.57747 2.48531L9.31902 4.87164L6.80337 4.21149L6.90037 4.08439ZM9.39932 5.39016L9.0592 8.39535L7.19141 8.81685L6.66175 4.68651L9.39932 5.39016ZM5.0861 7.6828C5.32028 6.89665 5.62916 6.14063 6.03059 5.37232L6.19452 5.05564L6.63609 8.64959L5.06382 7.76644L5.0861 7.6828ZM4.4951 10.9701C4.53859 10.1438 4.66683 9.30416 4.89208 8.39981L4.9233 8.2593L6.55581 9.17702L4.47727 11.2556L4.4951 10.9701ZM4.91439 15.4918C4.68468 14.5997 4.53859 13.6943 4.4951 12.8022L4.47727 12.5123L6.57365 14.6087L4.9534 15.6368L4.91439 15.4918ZM6.19897 18.6732L6.03059 18.3744C5.6693 17.7232 5.36823 17.0162 5.11287 16.2033L5.0861 16.1241L6.63498 15.1272L6.19897 18.6732ZM7.19141 14.9287L9.08597 15.3513L9.39932 18.3342L6.6885 19.0379L7.19141 14.9287ZM8.52507 21.248C7.97309 20.87 7.41667 20.3381 6.87808 19.6656L6.77214 19.5341L9.31011 18.8795L8.65777 21.335L8.52507 21.248ZM10.9883 22.2103C10.3706 22.1401 9.76952 21.9549 9.20082 21.6561L9.125 21.6171L9.73829 19.2832L11.1868 22.2359L10.9883 22.2103ZM11.5883 21.907L9.98139 18.5628L11.5927 16.8891L13.1996 18.5851L11.5883 21.907ZM14.1006 21.5858C13.4817 21.907 12.8505 22.1178 12.2194 22.2103L12.0165 22.2404L13.456 19.2263L14.1842 21.5423L14.1006 21.5858ZM16.3029 19.6924C15.7643 20.3425 15.248 20.8298 14.7273 21.1777L14.6035 21.2602L13.8887 18.8973L16.4088 19.5608L16.3029 19.6924ZM13.7828 18.3565L14.1217 15.3513L15.9895 14.9287L16.5192 19.059L13.7828 18.3565ZM18.1172 16.0672C17.8484 16.8846 17.5339 17.6406 17.1504 18.3744L16.9876 18.6899L16.546 15.1004L18.1439 15.9791L18.1172 16.0672ZM18.687 12.7754C18.6424 13.6017 18.5097 14.4459 18.2889 15.3469L18.2543 15.4918L16.6252 14.5685L18.7048 12.49L18.687 12.7754Z" stroke="black" stroke-opacity="0.2" stroke-width="0.22302"/>
<path d="M18.6201 7.6828C18.3781 6.84424 18.0647 6.05697 17.6889 5.34554C16.3642 2.84103 14.2768 1.2197 12.1001 1.02232C11.9417 1.00448 11.7778 1 11.615 1C9.8409 1 7.96418 2.00584 6.60041 3.68964C5.07719 5.56969 4.16393 8.21023 4.01785 11.1284C4.00447 11.3693 4 11.6247 4 11.8756C4 14.718 4.76831 17.412 6.16329 19.4504C6.22462 19.5385 6.28707 19.6222 6.3484 19.7091C7.42559 21.1777 9.3904 22.75 11.663 22.75C14.8154 22.75 16.74 20.1005 17.4202 18.9631C17.6399 18.594 17.8395 18.2026 18.0157 17.8068C18.2677 17.2269 18.4885 16.6114 18.6647 15.9791C19.424 13.2683 19.4107 10.4036 18.6201 7.6828ZM18.2677 8.25484C18.4963 9.14692 18.6379 10.0513 18.687 10.9478L18.7048 11.2333L16.6073 9.13799L18.2275 8.10988L18.2677 8.25484ZM11.5883 16.2512L9.52644 15.0168L8.62209 11.8756L9.52644 8.72875L11.5883 7.49434L13.6545 8.72875L14.5589 11.8756L13.6545 15.0168L11.5883 16.2512ZM13.5441 15.6323L13.2966 17.9562L11.9808 16.5768L13.5441 15.6323ZM11.1734 16.5768L9.85762 17.9562L9.61117 15.6323L11.1734 16.5768ZM8.07458 11.8756L6.89591 14.2083L4.56982 11.8756L6.89591 9.5372L8.07458 11.8756ZM7.34642 9.29188L8.94435 8.93953L8.29536 11.1809L7.34642 9.29188ZM8.29536 12.5602L8.94435 14.8328L7.34642 14.476L8.29536 12.5602ZM9.63683 8.11433L9.87993 5.78936L11.2002 7.1732L9.63683 8.11433ZM11.9808 7.1732L13.3233 5.79382L13.5664 8.10988L11.9808 7.1732ZM14.2366 8.91387L15.8345 9.26959L14.8811 11.1853L14.2366 8.91387ZM14.8811 12.5647L15.8345 14.4548L14.2366 14.8105L14.8811 12.5647ZM15.1064 11.8756L16.285 9.5372L18.6111 11.8756L16.285 14.2083L15.1064 11.8756ZM16.9831 5.07793L17.1504 5.37232C17.5128 6.02243 17.8127 6.72938 18.0681 7.54229L18.0904 7.62148L16.546 8.61948L16.9831 5.07793ZM15.9895 8.81685L14.0961 8.39535L13.7828 5.41136L16.4925 4.70884L15.9895 8.81685ZM14.6514 2.49872C15.2079 2.87674 15.7643 3.40752 16.3029 4.07993L16.4088 4.21149L13.8709 4.86718L14.5243 2.41062L14.6514 2.49872ZM12.1926 1.53638C12.8115 1.60663 13.4114 1.79063 13.9768 2.08947L14.056 2.1296L13.4427 4.46239L11.9941 1.51406L12.1926 1.53638ZM13.1996 5.18274L11.5883 6.85764L9.98139 5.16158L11.5927 1.83969L13.1996 5.18274ZM9.07705 2.16417C9.68144 1.82183 10.3438 1.60663 10.9883 1.53638L11.1868 1.51406L9.72157 4.5148L8.99676 2.20878L9.07705 2.16417ZM6.90037 4.08439C7.37763 3.44767 7.89839 2.93806 8.45371 2.56896L8.57747 2.48531L9.31902 4.87164L6.80337 4.21149L6.90037 4.08439ZM9.39932 5.39016L9.0592 8.39535L7.19141 8.81685L6.66175 4.68651L9.39932 5.39016ZM5.0861 7.6828C5.32028 6.89665 5.62916 6.14063 6.03059 5.37232L6.19452 5.05564L6.63609 8.64959L5.06382 7.76644L5.0861 7.6828ZM4.4951 10.9701C4.53859 10.1438 4.66683 9.30416 4.89208 8.39981L4.9233 8.2593L6.55581 9.17702L4.47727 11.2556L4.4951 10.9701ZM4.91439 15.4918C4.68468 14.5997 4.53859 13.6943 4.4951 12.8022L4.47727 12.5123L6.57365 14.6087L4.9534 15.6368L4.91439 15.4918ZM6.19897 18.6732L6.03059 18.3744C5.6693 17.7232 5.36823 17.0162 5.11287 16.2033L5.0861 16.1241L6.63498 15.1272L6.19897 18.6732ZM7.19141 14.9287L9.08597 15.3513L9.39932 18.3342L6.6885 19.0379L7.19141 14.9287ZM8.52507 21.248C7.97309 20.87 7.41667 20.3381 6.87808 19.6656L6.77214 19.5341L9.31011 18.8795L8.65777 21.335L8.52507 21.248ZM10.9883 22.2103C10.3706 22.1401 9.76952 21.9549 9.20082 21.6561L9.125 21.6171L9.73829 19.2832L11.1868 22.2359L10.9883 22.2103ZM11.5883 21.907L9.98139 18.5628L11.5927 16.8891L13.1996 18.5851L11.5883 21.907ZM14.1006 21.5858C13.4817 21.907 12.8505 22.1178 12.2194 22.2103L12.0165 22.2404L13.456 19.2263L14.1842 21.5423L14.1006 21.5858ZM16.3029 19.6924C15.7643 20.3425 15.248 20.8298 14.7273 21.1777L14.6035 21.2602L13.8887 18.8973L16.4088 19.5608L16.3029 19.6924ZM13.7828 18.3565L14.1217 15.3513L15.9895 14.9287L16.5192 19.059L13.7828 18.3565ZM18.1172 16.0672C17.8484 16.8846 17.5339 17.6406 17.1504 18.3744L16.9876 18.6899L16.546 15.1004L18.1439 15.9791L18.1172 16.0672ZM18.687 12.7754C18.6424 13.6017 18.5097 14.4459 18.2889 15.3469L18.2543 15.4918L16.6252 14.5685L18.7048 12.49L18.687 12.7754Z" stroke="black" stroke-opacity="0.2" stroke-width="0.22302"/>
<path d="M18.6201 7.6828C18.3781 6.84424 18.0647 6.05697 17.6889 5.34554C16.3642 2.84103 14.2768 1.2197 12.1001 1.02232C11.9417 1.00448 11.7778 1 11.615 1C9.8409 1 7.96418 2.00584 6.60041 3.68964C5.07719 5.56969 4.16393 8.21023 4.01785 11.1284C4.00447 11.3693 4 11.6247 4 11.8756C4 14.718 4.76831 17.412 6.16329 19.4504C6.22462 19.5385 6.28707 19.6222 6.3484 19.7091C7.42559 21.1777 9.3904 22.75 11.663 22.75C14.8154 22.75 16.74 20.1005 17.4202 18.9631C17.6399 18.594 17.8395 18.2026 18.0157 17.8068C18.2677 17.2269 18.4885 16.6114 18.6647 15.9791C19.424 13.2683 19.4107 10.4036 18.6201 7.6828ZM18.2677 8.25484C18.4963 9.14692 18.6379 10.0513 18.687 10.9478L18.7048 11.2333L16.6073 9.13799L18.2275 8.10988L18.2677 8.25484ZM11.5883 16.2512L9.52644 15.0168L8.62209 11.8756L9.52644 8.72875L11.5883 7.49434L13.6545 8.72875L14.5589 11.8756L13.6545 15.0168L11.5883 16.2512ZM13.5441 15.6323L13.2966 17.9562L11.9808 16.5768L13.5441 15.6323ZM11.1734 16.5768L9.85762 17.9562L9.61117 15.6323L11.1734 16.5768ZM8.07458 11.8756L6.89591 14.2083L4.56982 11.8756L6.89591 9.5372L8.07458 11.8756ZM7.34642 9.29188L8.94435 8.93953L8.29536 11.1809L7.34642 9.29188ZM8.29536 12.5602L8.94435 14.8328L7.34642 14.476L8.29536 12.5602ZM9.63683 8.11433L9.87993 5.78936L11.2002 7.1732L9.63683 8.11433ZM11.9808 7.1732L13.3233 5.79382L13.5664 8.10988L11.9808 7.1732ZM14.2366 8.91387L15.8345 9.26959L14.8811 11.1853L14.2366 8.91387ZM14.8811 12.5647L15.8345 14.4548L14.2366 14.8105L14.8811 12.5647ZM15.1064 11.8756L16.285 9.5372L18.6111 11.8756L16.285 14.2083L15.1064 11.8756ZM16.9831 5.07793L17.1504 5.37232C17.5128 6.02243 17.8127 6.72938 18.0681 7.54229L18.0904 7.62148L16.546 8.61948L16.9831 5.07793ZM15.9895 8.81685L14.0961 8.39535L13.7828 5.41136L16.4925 4.70884L15.9895 8.81685ZM14.6514 2.49872C15.2079 2.87674 15.7643 3.40752 16.3029 4.07993L16.4088 4.21149L13.8709 4.86718L14.5243 2.41062L14.6514 2.49872ZM12.1926 1.53638C12.8115 1.60663 13.4114 1.79063 13.9768 2.08947L14.056 2.1296L13.4427 4.46239L11.9941 1.51406L12.1926 1.53638ZM13.1996 5.18274L11.5883 6.85764L9.98139 5.16158L11.5927 1.83969L13.1996 5.18274ZM9.07705 2.16417C9.68144 1.82183 10.3438 1.60663 10.9883 1.53638L11.1868 1.51406L9.72157 4.5148L8.99676 2.20878L9.07705 2.16417ZM6.90037 4.08439C7.37763 3.44767 7.89839 2.93806 8.45371 2.56896L8.57747 2.48531L9.31902 4.87164L6.80337 4.21149L6.90037 4.08439ZM9.39932 5.39016L9.0592 8.39535L7.19141 8.81685L6.66175 4.68651L9.39932 5.39016ZM5.0861 7.6828C5.32028 6.89665 5.62916 6.14063 6.03059 5.37232L6.19452 5.05564L6.63609 8.64959L5.06382 7.76644L5.0861 7.6828ZM4.4951 10.9701C4.53859 10.1438 4.66683 9.30416 4.89208 8.39981L4.9233 8.2593L6.55581 9.17702L4.47727 11.2556L4.4951 10.9701ZM4.91439 15.4918C4.68468 14.5997 4.53859 13.6943 4.4951 12.8022L4.47727 12.5123L6.57365 14.6087L4.9534 15.6368L4.91439 15.4918ZM6.19897 18.6732L6.03059 18.3744C5.6693 17.7232 5.36823 17.0162 5.11287 16.2033L5.0861 16.1241L6.63498 15.1272L6.19897 18.6732ZM7.19141 14.9287L9.08597 15.3513L9.39932 18.3342L6.6885 19.0379L7.19141 14.9287ZM8.52507 21.248C7.97309 20.87 7.41667 20.3381 6.87808 19.6656L6.77214 19.5341L9.31011 18.8795L8.65777 21.335L8.52507 21.248ZM10.9883 22.2103C10.3706 22.1401 9.76952 21.9549 9.20082 21.6561L9.125 21.6171L9.73829 19.2832L11.1868 22.2359L10.9883 22.2103ZM11.5883 21.907L9.98139 18.5628L11.5927 16.8891L13.1996 18.5851L11.5883 21.907ZM14.1006 21.5858C13.4817 21.907 12.8505 22.1178 12.2194 22.2103L12.0165 22.2404L13.456 19.2263L14.1842 21.5423L14.1006 21.5858ZM16.3029 19.6924C15.7643 20.3425 15.248 20.8298 14.7273 21.1777L14.6035 21.2602L13.8887 18.8973L16.4088 19.5608L16.3029 19.6924ZM13.7828 18.3565L14.1217 15.3513L15.9895 14.9287L16.5192 19.059L13.7828 18.3565ZM18.1172 16.0672C17.8484 16.8846 17.5339 17.6406 17.1504 18.3744L16.9876 18.6899L16.546 15.1004L18.1439 15.9791L18.1172 16.0672ZM18.687 12.7754C18.6424 13.6017 18.5097 14.4459 18.2889 15.3469L18.2543 15.4918L16.6252 14.5685L18.7048 12.49L18.687 12.7754Z" stroke="black" stroke-opacity="0.2" stroke-width="0.22302"/>
<path d="M18.6201 7.6828C18.3781 6.84424 18.0647 6.05697 17.6889 5.34554C16.3642 2.84103 14.2768 1.2197 12.1001 1.02232C11.9417 1.00448 11.7778 1 11.615 1C9.8409 1 7.96418 2.00584 6.60041 3.68964C5.07719 5.56969 4.16393 8.21023 4.01785 11.1284C4.00447 11.3693 4 11.6247 4 11.8756C4 14.718 4.76831 17.412 6.16329 19.4504C6.22462 19.5385 6.28707 19.6222 6.3484 19.7091C7.42559 21.1777 9.3904 22.75 11.663 22.75C14.8154 22.75 16.74 20.1005 17.4202 18.9631C17.6399 18.594 17.8395 18.2026 18.0157 17.8068C18.2677 17.2269 18.4885 16.6114 18.6647 15.9791C19.424 13.2683 19.4107 10.4036 18.6201 7.6828ZM18.2677 8.25484C18.4963 9.14692 18.6379 10.0513 18.687 10.9478L18.7048 11.2333L16.6073 9.13799L18.2275 8.10988L18.2677 8.25484ZM11.5883 16.2512L9.52644 15.0168L8.62209 11.8756L9.52644 8.72875L11.5883 7.49434L13.6545 8.72875L14.5589 11.8756L13.6545 15.0168L11.5883 16.2512ZM13.5441 15.6323L13.2966 17.9562L11.9808 16.5768L13.5441 15.6323ZM11.1734 16.5768L9.85762 17.9562L9.61117 15.6323L11.1734 16.5768ZM8.07458 11.8756L6.89591 14.2083L4.56982 11.8756L6.89591 9.5372L8.07458 11.8756ZM7.34642 9.29188L8.94435 8.93953L8.29536 11.1809L7.34642 9.29188ZM8.29536 12.5602L8.94435 14.8328L7.34642 14.476L8.29536 12.5602ZM9.63683 8.11433L9.87993 5.78936L11.2002 7.1732L9.63683 8.11433ZM11.9808 7.1732L13.3233 5.79382L13.5664 8.10988L11.9808 7.1732ZM14.2366 8.91387L15.8345 9.26959L14.8811 11.1853L14.2366 8.91387ZM14.8811 12.5647L15.8345 14.4548L14.2366 14.8105L14.8811 12.5647ZM15.1064 11.8756L16.285 9.5372L18.6111 11.8756L16.285 14.2083L15.1064 11.8756ZM16.9831 5.07793L17.1504 5.37232C17.5128 6.02243 17.8127 6.72938 18.0681 7.54229L18.0904 7.62148L16.546 8.61948L16.9831 5.07793ZM15.9895 8.81685L14.0961 8.39535L13.7828 5.41136L16.4925 4.70884L15.9895 8.81685ZM14.6514 2.49872C15.2079 2.87674 15.7643 3.40752 16.3029 4.07993L16.4088 4.21149L13.8709 4.86718L14.5243 2.41062L14.6514 2.49872ZM12.1926 1.53638C12.8115 1.60663 13.4114 1.79063 13.9768 2.08947L14.056 2.1296L13.4427 4.46239L11.9941 1.51406L12.1926 1.53638ZM13.1996 5.18274L11.5883 6.85764L9.98139 5.16158L11.5927 1.83969L13.1996 5.18274ZM9.07705 2.16417C9.68144 1.82183 10.3438 1.60663 10.9883 1.53638L11.1868 1.51406L9.72157 4.5148L8.99676 2.20878L9.07705 2.16417ZM6.90037 4.08439C7.37763 3.44767 7.89839 2.93806 8.45371 2.56896L8.57747 2.48531L9.31902 4.87164L6.80337 4.21149L6.90037 4.08439ZM9.39932 5.39016L9.0592 8.39535L7.19141 8.81685L6.66175 4.68651L9.39932 5.39016ZM5.0861 7.6828C5.32028 6.89665 5.62916 6.14063 6.03059 5.37232L6.19452 5.05564L6.63609 8.64959L5.06382 7.76644L5.0861 7.6828ZM4.4951 10.9701C4.53859 10.1438 4.66683 9.30416 4.89208 8.39981L4.9233 8.2593L6.55581 9.17702L4.47727 11.2556L4.4951 10.9701ZM4.91439 15.4918C4.68468 14.5997 4.53859 13.6943 4.4951 12.8022L4.47727 12.5123L6.57365 14.6087L4.9534 15.6368L4.91439 15.4918ZM6.19897 18.6732L6.03059 18.3744C5.6693 17.7232 5.36823 17.0162 5.11287 16.2033L5.0861 16.1241L6.63498 15.1272L6.19897 18.6732ZM7.19141 14.9287L9.08597 15.3513L9.39932 18.3342L6.6885 19.0379L7.19141 14.9287ZM8.52507 21.248C7.97309 20.87 7.41667 20.3381 6.87808 19.6656L6.77214 19.5341L9.31011 18.8795L8.65777 21.335L8.52507 21.248ZM10.9883 22.2103C10.3706 22.1401 9.76952 21.9549 9.20082 21.6561L9.125 21.6171L9.73829 19.2832L11.1868 22.2359L10.9883 22.2103ZM11.5883 21.907L9.98139 18.5628L11.5927 16.8891L13.1996 18.5851L11.5883 21.907ZM14.1006 21.5858C13.4817 21.907 12.8505 22.1178 12.2194 22.2103L12.0165 22.2404L13.456 19.2263L14.1842 21.5423L14.1006 21.5858ZM16.3029 19.6924C15.7643 20.3425 15.248 20.8298 14.7273 21.1777L14.6035 21.2602L13.8887 18.8973L16.4088 19.5608L16.3029 19.6924ZM13.7828 18.3565L14.1217 15.3513L15.9895 14.9287L16.5192 19.059L13.7828 18.3565ZM18.1172 16.0672C17.8484 16.8846 17.5339 17.6406 17.1504 18.3744L16.9876 18.6899L16.546 15.1004L18.1439 15.9791L18.1172 16.0672ZM18.687 12.7754C18.6424 13.6017 18.5097 14.4459 18.2889 15.3469L18.2543 15.4918L16.6252 14.5685L18.7048 12.49L18.687 12.7754Z" stroke="black" stroke-opacity="0.2" stroke-width="0.22302"/>
<path d="M18.6201 7.6828C18.3781 6.84424 18.0647 6.05697 17.6889 5.34554C16.3642 2.84103 14.2768 1.2197 12.1001 1.02232C11.9417 1.00448 11.7778 1 11.615 1C9.8409 1 7.96418 2.00584 6.60041 3.68964C5.07719 5.56969 4.16393 8.21023 4.01785 11.1284C4.00447 11.3693 4 11.6247 4 11.8756C4 14.718 4.76831 17.412 6.16329 19.4504C6.22462 19.5385 6.28707 19.6222 6.3484 19.7091C7.42559 21.1777 9.3904 22.75 11.663 22.75C14.8154 22.75 16.74 20.1005 17.4202 18.9631C17.6399 18.594 17.8395 18.2026 18.0157 17.8068C18.2677 17.2269 18.4885 16.6114 18.6647 15.9791C19.424 13.2683 19.4107 10.4036 18.6201 7.6828ZM18.2677 8.25484C18.4963 9.14692 18.6379 10.0513 18.687 10.9478L18.7048 11.2333L16.6073 9.13799L18.2275 8.10988L18.2677 8.25484ZM11.5883 16.2512L9.52644 15.0168L8.62209 11.8756L9.52644 8.72875L11.5883 7.49434L13.6545 8.72875L14.5589 11.8756L13.6545 15.0168L11.5883 16.2512ZM13.5441 15.6323L13.2966 17.9562L11.9808 16.5768L13.5441 15.6323ZM11.1734 16.5768L9.85762 17.9562L9.61117 15.6323L11.1734 16.5768ZM8.07458 11.8756L6.89591 14.2083L4.56982 11.8756L6.89591 9.5372L8.07458 11.8756ZM7.34642 9.29188L8.94435 8.93953L8.29536 11.1809L7.34642 9.29188ZM8.29536 12.5602L8.94435 14.8328L7.34642 14.476L8.29536 12.5602ZM9.63683 8.11433L9.87993 5.78936L11.2002 7.1732L9.63683 8.11433ZM11.9808 7.1732L13.3233 5.79382L13.5664 8.10988L11.9808 7.1732ZM14.2366 8.91387L15.8345 9.26959L14.8811 11.1853L14.2366 8.91387ZM14.8811 12.5647L15.8345 14.4548L14.2366 14.8105L14.8811 12.5647ZM15.1064 11.8756L16.285 9.5372L18.6111 11.8756L16.285 14.2083L15.1064 11.8756ZM16.9831 5.07793L17.1504 5.37232C17.5128 6.02243 17.8127 6.72938 18.0681 7.54229L18.0904 7.62148L16.546 8.61948L16.9831 5.07793ZM15.9895 8.81685L14.0961 8.39535L13.7828 5.41136L16.4925 4.70884L15.9895 8.81685ZM14.6514 2.49872C15.2079 2.87674 15.7643 3.40752 16.3029 4.07993L16.4088 4.21149L13.8709 4.86718L14.5243 2.41062L14.6514 2.49872ZM12.1926 1.53638C12.8115 1.60663 13.4114 1.79063 13.9768 2.08947L14.056 2.1296L13.4427 4.46239L11.9941 1.51406L12.1926 1.53638ZM13.1996 5.18274L11.5883 6.85764L9.98139 5.16158L11.5927 1.83969L13.1996 5.18274ZM9.07705 2.16417C9.68144 1.82183 10.3438 1.60663 10.9883 1.53638L11.1868 1.51406L9.72157 4.5148L8.99676 2.20878L9.07705 2.16417ZM6.90037 4.08439C7.37763 3.44767 7.89839 2.93806 8.45371 2.56896L8.57747 2.48531L9.31902 4.87164L6.80337 4.21149L6.90037 4.08439ZM9.39932 5.39016L9.0592 8.39535L7.19141 8.81685L6.66175 4.68651L9.39932 5.39016ZM5.0861 7.6828C5.32028 6.89665 5.62916 6.14063 6.03059 5.37232L6.19452 5.05564L6.63609 8.64959L5.06382 7.76644L5.0861 7.6828ZM4.4951 10.9701C4.53859 10.1438 4.66683 9.30416 4.89208 8.39981L4.9233 8.2593L6.55581 9.17702L4.47727 11.2556L4.4951 10.9701ZM4.91439 15.4918C4.68468 14.5997 4.53859 13.6943 4.4951 12.8022L4.47727 12.5123L6.57365 14.6087L4.9534 15.6368L4.91439 15.4918ZM6.19897 18.6732L6.03059 18.3744C5.6693 17.7232 5.36823 17.0162 5.11287 16.2033L5.0861 16.1241L6.63498 15.1272L6.19897 18.6732ZM7.19141 14.9287L9.08597 15.3513L9.39932 18.3342L6.6885 19.0379L7.19141 14.9287ZM8.52507 21.248C7.97309 20.87 7.41667 20.3381 6.87808 19.6656L6.77214 19.5341L9.31011 18.8795L8.65777 21.335L8.52507 21.248ZM10.9883 22.2103C10.3706 22.1401 9.76952 21.9549 9.20082 21.6561L9.125 21.6171L9.73829 19.2832L11.1868 22.2359L10.9883 22.2103ZM11.5883 21.907L9.98139 18.5628L11.5927 16.8891L13.1996 18.5851L11.5883 21.907ZM14.1006 21.5858C13.4817 21.907 12.8505 22.1178 12.2194 22.2103L12.0165 22.2404L13.456 19.2263L14.1842 21.5423L14.1006 21.5858ZM16.3029 19.6924C15.7643 20.3425 15.248 20.8298 14.7273 21.1777L14.6035 21.2602L13.8887 18.8973L16.4088 19.5608L16.3029 19.6924ZM13.7828 18.3565L14.1217 15.3513L15.9895 14.9287L16.5192 19.059L13.7828 18.3565ZM18.1172 16.0672C17.8484 16.8846 17.5339 17.6406 17.1504 18.3744L16.9876 18.6899L16.546 15.1004L18.1439 15.9791L18.1172 16.0672ZM18.687 12.7754C18.6424 13.6017 18.5097 14.4459 18.2889 15.3469L18.2543 15.4918L16.6252 14.5685L18.7048 12.49L18.687 12.7754Z" stroke="black" stroke-opacity="0.2" stroke-width="0.22302"/>
<path d="M18.6201 7.6828C18.3781 6.84424 18.0647 6.05697 17.6889 5.34554C16.3642 2.84103 14.2768 1.2197 12.1001 1.02232C11.9417 1.00448 11.7778 1 11.615 1C9.8409 1 7.96418 2.00584 6.60041 3.68964C5.07719 5.56969 4.16393 8.21023 4.01785 11.1284C4.00447 11.3693 4 11.6247 4 11.8756C4 14.718 4.76831 17.412 6.16329 19.4504C6.22462 19.5385 6.28707 19.6222 6.3484 19.7091C7.42559 21.1777 9.3904 22.75 11.663 22.75C14.8154 22.75 16.74 20.1005 17.4202 18.9631C17.6399 18.594 17.8395 18.2026 18.0157 17.8068C18.2677 17.2269 18.4885 16.6114 18.6647 15.9791C19.424 13.2683 19.4107 10.4036 18.6201 7.6828ZM18.2677 8.25484C18.4963 9.14692 18.6379 10.0513 18.687 10.9478L18.7048 11.2333L16.6073 9.13799L18.2275 8.10988L18.2677 8.25484ZM11.5883 16.2512L9.52644 15.0168L8.62209 11.8756L9.52644 8.72875L11.5883 7.49434L13.6545 8.72875L14.5589 11.8756L13.6545 15.0168L11.5883 16.2512ZM13.5441 15.6323L13.2966 17.9562L11.9808 16.5768L13.5441 15.6323ZM11.1734 16.5768L9.85762 17.9562L9.61117 15.6323L11.1734 16.5768ZM8.07458 11.8756L6.89591 14.2083L4.56982 11.8756L6.89591 9.5372L8.07458 11.8756ZM7.34642 9.29188L8.94435 8.93953L8.29536 11.1809L7.34642 9.29188ZM8.29536 12.5602L8.94435 14.8328L7.34642 14.476L8.29536 12.5602ZM9.63683 8.11433L9.87993 5.78936L11.2002 7.1732L9.63683 8.11433ZM11.9808 7.1732L13.3233 5.79382L13.5664 8.10988L11.9808 7.1732ZM14.2366 8.91387L15.8345 9.26959L14.8811 11.1853L14.2366 8.91387ZM14.8811 12.5647L15.8345 14.4548L14.2366 14.8105L14.8811 12.5647ZM15.1064 11.8756L16.285 9.5372L18.6111 11.8756L16.285 14.2083L15.1064 11.8756ZM16.9831 5.07793L17.1504 5.37232C17.5128 6.02243 17.8127 6.72938 18.0681 7.54229L18.0904 7.62148L16.546 8.61948L16.9831 5.07793ZM15.9895 8.81685L14.0961 8.39535L13.7828 5.41136L16.4925 4.70884L15.9895 8.81685ZM14.6514 2.49872C15.2079 2.87674 15.7643 3.40752 16.3029 4.07993L16.4088 4.21149L13.8709 4.86718L14.5243 2.41062L14.6514 2.49872ZM12.1926 1.53638C12.8115 1.60663 13.4114 1.79063 13.9768 2.08947L14.056 2.1296L13.4427 4.46239L11.9941 1.51406L12.1926 1.53638ZM13.1996 5.18274L11.5883 6.85764L9.98139 5.16158L11.5927 1.83969L13.1996 5.18274ZM9.07705 2.16417C9.68144 1.82183 10.3438 1.60663 10.9883 1.53638L11.1868 1.51406L9.72157 4.5148L8.99676 2.20878L9.07705 2.16417ZM6.90037 4.08439C7.37763 3.44767 7.89839 2.93806 8.45371 2.56896L8.57747 2.48531L9.31902 4.87164L6.80337 4.21149L6.90037 4.08439ZM9.39932 5.39016L9.0592 8.39535L7.19141 8.81685L6.66175 4.68651L9.39932 5.39016ZM5.0861 7.6828C5.32028 6.89665 5.62916 6.14063 6.03059 5.37232L6.19452 5.05564L6.63609 8.64959L5.06382 7.76644L5.0861 7.6828ZM4.4951 10.9701C4.53859 10.1438 4.66683 9.30416 4.89208 8.39981L4.9233 8.2593L6.55581 9.17702L4.47727 11.2556L4.4951 10.9701ZM4.91439 15.4918C4.68468 14.5997 4.53859 13.6943 4.4951 12.8022L4.47727 12.5123L6.57365 14.6087L4.9534 15.6368L4.91439 15.4918ZM6.19897 18.6732L6.03059 18.3744C5.6693 17.7232 5.36823 17.0162 5.11287 16.2033L5.0861 16.1241L6.63498 15.1272L6.19897 18.6732ZM7.19141 14.9287L9.08597 15.3513L9.39932 18.3342L6.6885 19.0379L7.19141 14.9287ZM8.52507 21.248C7.97309 20.87 7.41667 20.3381 6.87808 19.6656L6.77214 19.5341L9.31011 18.8795L8.65777 21.335L8.52507 21.248ZM10.9883 22.2103C10.3706 22.1401 9.76952 21.9549 9.20082 21.6561L9.125 21.6171L9.73829 19.2832L11.1868 22.2359L10.9883 22.2103ZM11.5883 21.907L9.98139 18.5628L11.5927 16.8891L13.1996 18.5851L11.5883 21.907ZM14.1006 21.5858C13.4817 21.907 12.8505 22.1178 12.2194 22.2103L12.0165 22.2404L13.456 19.2263L14.1842 21.5423L14.1006 21.5858ZM16.3029 19.6924C15.7643 20.3425 15.248 20.8298 14.7273 21.1777L14.6035 21.2602L13.8887 18.8973L16.4088 19.5608L16.3029 19.6924ZM13.7828 18.3565L14.1217 15.3513L15.9895 14.9287L16.5192 19.059L13.7828 18.3565ZM18.1172 16.0672C17.8484 16.8846 17.5339 17.6406 17.1504 18.3744L16.9876 18.6899L16.546 15.1004L18.1439 15.9791L18.1172 16.0672ZM18.687 12.7754C18.6424 13.6017 18.5097 14.4459 18.2889 15.3469L18.2543 15.4918L16.6252 14.5685L18.7048 12.49L18.687 12.7754Z" stroke="black" stroke-opacity="0.2" stroke-width="0.22302"/>
<path d="M18.6201 7.6828C18.3781 6.84424 18.0647 6.05697 17.6889 5.34554C16.3642 2.84103 14.2768 1.2197 12.1001 1.02232C11.9417 1.00448 11.7778 1 11.615 1C9.8409 1 7.96418 2.00584 6.60041 3.68964C5.07719 5.56969 4.16393 8.21023 4.01785 11.1284C4.00447 11.3693 4 11.6247 4 11.8756C4 14.718 4.76831 17.412 6.16329 19.4504C6.22462 19.5385 6.28707 19.6222 6.3484 19.7091C7.42559 21.1777 9.3904 22.75 11.663 22.75C14.8154 22.75 16.74 20.1005 17.4202 18.9631C17.6399 18.594 17.8395 18.2026 18.0157 17.8068C18.2677 17.2269 18.4885 16.6114 18.6647 15.9791C19.424 13.2683 19.4107 10.4036 18.6201 7.6828ZM18.2677 8.25484C18.4963 9.14692 18.6379 10.0513 18.687 10.9478L18.7048 11.2333L16.6073 9.13799L18.2275 8.10988L18.2677 8.25484ZM11.5883 16.2512L9.52644 15.0168L8.62209 11.8756L9.52644 8.72875L11.5883 7.49434L13.6545 8.72875L14.5589 11.8756L13.6545 15.0168L11.5883 16.2512ZM13.5441 15.6323L13.2966 17.9562L11.9808 16.5768L13.5441 15.6323ZM11.1734 16.5768L9.85762 17.9562L9.61117 15.6323L11.1734 16.5768ZM8.07458 11.8756L6.89591 14.2083L4.56982 11.8756L6.89591 9.5372L8.07458 11.8756ZM7.34642 9.29188L8.94435 8.93953L8.29536 11.1809L7.34642 9.29188ZM8.29536 12.5602L8.94435 14.8328L7.34642 14.476L8.29536 12.5602ZM9.63683 8.11433L9.87993 5.78936L11.2002 7.1732L9.63683 8.11433ZM11.9808 7.1732L13.3233 5.79382L13.5664 8.10988L11.9808 7.1732ZM14.2366 8.91387L15.8345 9.26959L14.8811 11.1853L14.2366 8.91387ZM14.8811 12.5647L15.8345 14.4548L14.2366 14.8105L14.8811 12.5647ZM15.1064 11.8756L16.285 9.5372L18.6111 11.8756L16.285 14.2083L15.1064 11.8756ZM16.9831 5.07793L17.1504 5.37232C17.5128 6.02243 17.8127 6.72938 18.0681 7.54229L18.0904 7.62148L16.546 8.61948L16.9831 5.07793ZM15.9895 8.81685L14.0961 8.39535L13.7828 5.41136L16.4925 4.70884L15.9895 8.81685ZM14.6514 2.49872C15.2079 2.87674 15.7643 3.40752 16.3029 4.07993L16.4088 4.21149L13.8709 4.86718L14.5243 2.41062L14.6514 2.49872ZM12.1926 1.53638C12.8115 1.60663 13.4114 1.79063 13.9768 2.08947L14.056 2.1296L13.4427 4.46239L11.9941 1.51406L12.1926 1.53638ZM13.1996 5.18274L11.5883 6.85764L9.98139 5.16158L11.5927 1.83969L13.1996 5.18274ZM9.07705 2.16417C9.68144 1.82183 10.3438 1.60663 10.9883 1.53638L11.1868 1.51406L9.72157 4.5148L8.99676 2.20878L9.07705 2.16417ZM6.90037 4.08439C7.37763 3.44767 7.89839 2.93806 8.45371 2.56896L8.57747 2.48531L9.31902 4.87164L6.80337 4.21149L6.90037 4.08439ZM9.39932 5.39016L9.0592 8.39535L7.19141 8.81685L6.66175 4.68651L9.39932 5.39016ZM5.0861 7.6828C5.32028 6.89665 5.62916 6.14063 6.03059 5.37232L6.19452 5.05564L6.63609 8.64959L5.06382 7.76644L5.0861 7.6828ZM4.4951 10.9701C4.53859 10.1438 4.66683 9.30416 4.89208 8.39981L4.9233 8.2593L6.55581 9.17702L4.47727 11.2556L4.4951 10.9701ZM4.91439 15.4918C4.68468 14.5997 4.53859 13.6943 4.4951 12.8022L4.47727 12.5123L6.57365 14.6087L4.9534 15.6368L4.91439 15.4918ZM6.19897 18.6732L6.03059 18.3744C5.6693 17.7232 5.36823 17.0162 5.11287 16.2033L5.0861 16.1241L6.63498 15.1272L6.19897 18.6732ZM7.19141 14.9287L9.08597 15.3513L9.39932 18.3342L6.6885 19.0379L7.19141 14.9287ZM8.52507 21.248C7.97309 20.87 7.41667 20.3381 6.87808 19.6656L6.77214 19.5341L9.31011 18.8795L8.65777 21.335L8.52507 21.248ZM10.9883 22.2103C10.3706 22.1401 9.76952 21.9549 9.20082 21.6561L9.125 21.6171L9.73829 19.2832L11.1868 22.2359L10.9883 22.2103ZM11.5883 21.907L9.98139 18.5628L11.5927 16.8891L13.1996 18.5851L11.5883 21.907ZM14.1006 21.5858C13.4817 21.907 12.8505 22.1178 12.2194 22.2103L12.0165 22.2404L13.456 19.2263L14.1842 21.5423L14.1006 21.5858ZM16.3029 19.6924C15.7643 20.3425 15.248 20.8298 14.7273 21.1777L14.6035 21.2602L13.8887 18.8973L16.4088 19.5608L16.3029 19.6924ZM13.7828 18.3565L14.1217 15.3513L15.9895 14.9287L16.5192 19.059L13.7828 18.3565ZM18.1172 16.0672C17.8484 16.8846 17.5339 17.6406 17.1504 18.3744L16.9876 18.6899L16.546 15.1004L18.1439 15.9791L18.1172 16.0672ZM18.687 12.7754C18.6424 13.6017 18.5097 14.4459 18.2889 15.3469L18.2543 15.4918L16.6252 14.5685L18.7048 12.49L18.687 12.7754Z" stroke="black" stroke-opacity="0.2" stroke-width="0.22302"/>
<path d="M18.6201 7.6828C18.3781 6.84424 18.0647 6.05697 17.6889 5.34554C16.3642 2.84103 14.2768 1.2197 12.1001 1.02232C11.9417 1.00448 11.7778 1 11.615 1C9.8409 1 7.96418 2.00584 6.60041 3.68964C5.07719 5.56969 4.16393 8.21023 4.01785 11.1284C4.00447 11.3693 4 11.6247 4 11.8756C4 14.718 4.76831 17.412 6.16329 19.4504C6.22462 19.5385 6.28707 19.6222 6.3484 19.7091C7.42559 21.1777 9.3904 22.75 11.663 22.75C14.8154 22.75 16.74 20.1005 17.4202 18.9631C17.6399 18.594 17.8395 18.2026 18.0157 17.8068C18.2677 17.2269 18.4885 16.6114 18.6647 15.9791C19.424 13.2683 19.4107 10.4036 18.6201 7.6828ZM18.2677 8.25484C18.4963 9.14692 18.6379 10.0513 18.687 10.9478L18.7048 11.2333L16.6073 9.13799L18.2275 8.10988L18.2677 8.25484ZM11.5883 16.2512L9.52644 15.0168L8.62209 11.8756L9.52644 8.72875L11.5883 7.49434L13.6545 8.72875L14.5589 11.8756L13.6545 15.0168L11.5883 16.2512ZM13.5441 15.6323L13.2966 17.9562L11.9808 16.5768L13.5441 15.6323ZM11.1734 16.5768L9.85762 17.9562L9.61117 15.6323L11.1734 16.5768ZM8.07458 11.8756L6.89591 14.2083L4.56982 11.8756L6.89591 9.5372L8.07458 11.8756ZM7.34642 9.29188L8.94435 8.93953L8.29536 11.1809L7.34642 9.29188ZM8.29536 12.5602L8.94435 14.8328L7.34642 14.476L8.29536 12.5602ZM9.63683 8.11433L9.87993 5.78936L11.2002 7.1732L9.63683 8.11433ZM11.9808 7.1732L13.3233 5.79382L13.5664 8.10988L11.9808 7.1732ZM14.2366 8.91387L15.8345 9.26959L14.8811 11.1853L14.2366 8.91387ZM14.8811 12.5647L15.8345 14.4548L14.2366 14.8105L14.8811 12.5647ZM15.1064 11.8756L16.285 9.5372L18.6111 11.8756L16.285 14.2083L15.1064 11.8756ZM16.9831 5.07793L17.1504 5.37232C17.5128 6.02243 17.8127 6.72938 18.0681 7.54229L18.0904 7.62148L16.546 8.61948L16.9831 5.07793ZM15.9895 8.81685L14.0961 8.39535L13.7828 5.41136L16.4925 4.70884L15.9895 8.81685ZM14.6514 2.49872C15.2079 2.87674 15.7643 3.40752 16.3029 4.07993L16.4088 4.21149L13.8709 4.86718L14.5243 2.41062L14.6514 2.49872ZM12.1926 1.53638C12.8115 1.60663 13.4114 1.79063 13.9768 2.08947L14.056 2.1296L13.4427 4.46239L11.9941 1.51406L12.1926 1.53638ZM13.1996 5.18274L11.5883 6.85764L9.98139 5.16158L11.5927 1.83969L13.1996 5.18274ZM9.07705 2.16417C9.68144 1.82183 10.3438 1.60663 10.9883 1.53638L11.1868 1.51406L9.72157 4.5148L8.99676 2.20878L9.07705 2.16417ZM6.90037 4.08439C7.37763 3.44767 7.89839 2.93806 8.45371 2.56896L8.57747 2.48531L9.31902 4.87164L6.80337 4.21149L6.90037 4.08439ZM9.39932 5.39016L9.0592 8.39535L7.19141 8.81685L6.66175 4.68651L9.39932 5.39016ZM5.0861 7.6828C5.32028 6.89665 5.62916 6.14063 6.03059 5.37232L6.19452 5.05564L6.63609 8.64959L5.06382 7.76644L5.0861 7.6828ZM4.4951 10.9701C4.53859 10.1438 4.66683 9.30416 4.89208 8.39981L4.9233 8.2593L6.55581 9.17702L4.47727 11.2556L4.4951 10.9701ZM4.91439 15.4918C4.68468 14.5997 4.53859 13.6943 4.4951 12.8022L4.47727 12.5123L6.57365 14.6087L4.9534 15.6368L4.91439 15.4918ZM6.19897 18.6732L6.03059 18.3744C5.6693 17.7232 5.36823 17.0162 5.11287 16.2033L5.0861 16.1241L6.63498 15.1272L6.19897 18.6732ZM7.19141 14.9287L9.08597 15.3513L9.39932 18.3342L6.6885 19.0379L7.19141 14.9287ZM8.52507 21.248C7.97309 20.87 7.41667 20.3381 6.87808 19.6656L6.77214 19.5341L9.31011 18.8795L8.65777 21.335L8.52507 21.248ZM10.9883 22.2103C10.3706 22.1401 9.76952 21.9549 9.20082 21.6561L9.125 21.6171L9.73829 19.2832L11.1868 22.2359L10.9883 22.2103ZM11.5883 21.907L9.98139 18.5628L11.5927 16.8891L13.1996 18.5851L11.5883 21.907ZM14.1006 21.5858C13.4817 21.907 12.8505 22.1178 12.2194 22.2103L12.0165 22.2404L13.456 19.2263L14.1842 21.5423L14.1006 21.5858ZM16.3029 19.6924C15.7643 20.3425 15.248 20.8298 14.7273 21.1777L14.6035 21.2602L13.8887 18.8973L16.4088 19.5608L16.3029 19.6924ZM13.7828 18.3565L14.1217 15.3513L15.9895 14.9287L16.5192 19.059L13.7828 18.3565ZM18.1172 16.0672C17.8484 16.8846 17.5339 17.6406 17.1504 18.3744L16.9876 18.6899L16.546 15.1004L18.1439 15.9791L18.1172 16.0672ZM18.687 12.7754C18.6424 13.6017 18.5097 14.4459 18.2889 15.3469L18.2543 15.4918L16.6252 14.5685L18.7048 12.49L18.687 12.7754Z" stroke="black" stroke-opacity="0.2" stroke-width="0.22302"/>
</svg>
