<svg width="24" height="24" viewBox="0 0 24 24" fill="none" xmlns="http://www.w3.org/2000/svg">
<path d="M18.7947 10.9958C18.5347 10.1888 18.1567 9.41376 17.7327 8.68176C17.3297 7.98076 16.8627 7.28277 16.2977 6.55277C15.8377 5.94777 15.3157 5.33578 14.7587 4.73078C14.3237 4.25778 13.8597 3.78877 13.3887 3.33777C13.0897 3.05177 12.8907 2.86777 12.5067 2.52777C12.4597 2.48877 12.2807 2.33277 12.2237 2.28977C12.0657 2.17877 11.9177 2.28976 11.7237 2.45776L11.6917 2.48575C11.5587 2.60075 11.4287 2.71877 11.2997 2.83377C10.9187 3.18077 10.5337 3.55276 10.1527 3.93576C9.64871 4.44776 9.16672 4.97077 8.71772 5.49677C8.17072 6.13677 7.67472 6.77778 7.24372 7.40378C6.73272 8.14878 6.31973 8.84978 5.97773 9.55878C5.23873 11.0918 4.89372 12.6968 5.02872 14.3948C5.12272 15.5778 5.39172 16.7548 5.90972 17.8278C6.55172 19.1578 7.56573 20.2618 8.87873 20.9558C9.86873 21.4788 10.9807 21.7498 12.1017 21.7498C13.6647 21.7498 15.2067 21.2198 16.4157 20.2288C17.5727 19.2818 18.3547 17.9468 18.7727 16.5268C19.2547 14.8878 19.3557 13.0757 18.9177 11.4167C18.8807 11.2757 18.8387 11.1358 18.7947 10.9958ZM17.9837 10.0568C18.3727 10.8868 18.6317 11.7428 18.7497 12.6018L18.7967 12.9518L17.1387 10.6898L17.9297 9.94177L17.9837 10.0568ZM12.1017 18.1568L9.60971 16.9498L8.57772 13.5358L9.97573 9.31876L12.1017 7.82276L14.2267 9.31876L15.6717 13.7148L14.6397 16.9288L12.1017 18.1568ZM14.4857 17.4368L13.9497 19.0618L12.5397 18.3708L14.4857 17.4368ZM11.6627 18.3708L10.2527 19.0618L9.77172 17.4618L11.6627 18.3708ZM8.14572 13.5138L7.41973 15.7478L5.54271 13.3998L7.39772 11.0728L8.14572 13.5138ZM7.71472 10.7758L9.43672 9.65576L8.37271 12.8838L7.71472 10.7758ZM8.35472 14.1838L9.11672 16.7178L7.73572 16.0588L8.35472 14.1838ZM10.1057 8.76776L10.5227 6.72376L11.7737 7.59778L10.1057 8.76776ZM12.4497 7.57276L13.7047 6.70276L14.1217 8.74277L12.4497 7.57276ZM14.7727 9.62375L16.6497 10.7508L15.8987 13.0598L14.7727 9.62375ZM15.9237 14.3478L16.4707 16.0588L15.1507 16.7028L15.9237 14.3478ZM16.1037 13.6927L16.9487 11.0908L18.6347 13.4028L16.7617 15.7478L16.1037 13.6927ZM16.6647 7.74777C17.1137 8.39577 17.4627 8.97178 17.7287 9.51578L17.7577 9.57376L16.9917 10.2928L16.4167 7.39377L16.6647 7.74777ZM16.6037 10.2748L14.5757 9.07178L14.0787 6.64575L15.9527 7.09677L16.6037 10.2748ZM14.6077 5.15277C15.0497 5.63577 15.4207 6.07277 15.7407 6.48477L15.8987 6.68875L14.0787 6.24075L14.5067 5.04175L14.6077 5.15277ZM12.9467 3.48175C13.3387 3.83875 13.7557 4.25476 14.1477 4.67676L14.1837 4.71976L13.7917 5.83975L12.6337 3.19476L12.9467 3.48175ZM12.1017 2.94077L13.5937 6.32276L12.1017 7.36878L10.6087 6.32276L12.1017 2.94077ZM10.0557 4.67676C10.4507 4.25476 10.8647 3.83875 11.2597 3.48175L11.5727 3.19476L10.4117 5.83975L10.0197 4.71976L10.0557 4.67676ZM8.58872 6.33377C8.93672 5.91177 9.26471 5.51477 9.59471 5.15277L9.69973 5.03876L10.1017 6.24075L8.29372 6.69177L8.58872 6.33377ZM10.1237 6.64575L9.62772 9.06876L7.77172 10.2538L8.24672 7.09677L10.1237 6.64575ZM6.47773 9.51276C6.80473 8.87176 7.20372 8.25278 7.58472 7.68378L7.81172 7.34677L7.35872 10.3068L6.44171 9.57675L6.47773 9.51276ZM5.45272 12.6728C5.54272 11.8318 5.80171 10.9518 6.22171 10.0568L6.26873 9.95276L7.23572 10.7078L5.42072 12.9768L5.45272 12.6728ZM5.87372 16.6678C5.63272 15.9268 5.48172 15.0958 5.40572 14.1258L5.38472 13.8358L7.20072 16.1088L5.90572 16.7678L5.87372 16.6678ZM6.75472 18.5248L6.63971 18.3278C6.40571 17.9198 6.22971 17.5588 6.08171 17.1898L6.04972 17.1148L7.21472 16.5168L6.75472 18.5248ZM7.08872 18.8828L7.64272 16.4458L9.27472 17.2298L9.85771 19.1018L7.08872 18.8828ZM9.29271 20.7698L9.20671 20.7268C8.57371 20.4038 7.98372 19.9608 7.50272 19.4448L7.34372 19.2768L9.83972 19.4878L9.29271 20.7698ZM11.4287 21.3418C10.8607 21.2988 10.2707 21.1628 9.72072 20.9558L9.63472 20.9198L10.1627 19.6708L11.6487 21.3598L11.4287 21.3418ZM10.4367 19.3768L12.1017 18.5898L13.7657 19.3768L12.1017 21.2778L10.4367 19.3768ZM14.4817 20.9558C13.9247 21.1668 13.3417 21.2988 12.7517 21.3418L12.5327 21.3598L14.0147 19.6708L14.5717 20.9198L14.4817 20.9558ZM16.7467 19.4488C16.2297 19.9788 15.6467 20.4078 15.0207 20.7268L14.9347 20.7698L14.3887 19.4878L16.9127 19.2768L16.7467 19.4488ZM14.3707 19.1048L14.9747 17.2078L16.5597 16.4418L17.0887 18.8828L14.3707 19.1048ZM18.1247 17.1688C17.9557 17.6158 17.7647 18.0028 17.5387 18.3538L17.4197 18.5398L16.9917 16.4987L18.1527 17.0938L18.1247 17.1688ZM18.3327 16.6458L18.3007 16.7458L17.0027 16.0838L18.8107 13.8258L18.7967 14.1048C18.7497 14.9958 18.5957 15.8518 18.3327 16.6458Z" fill="#333335"/>
<path d="M18.7947 10.9958C18.5347 10.1888 18.1567 9.41376 17.7327 8.68176C17.3297 7.98076 16.8627 7.28277 16.2977 6.55277C15.8377 5.94777 15.3157 5.33578 14.7587 4.73078C14.3237 4.25778 13.8597 3.78877 13.3887 3.33777C13.0897 3.05177 12.8907 2.86777 12.5067 2.52777C12.4597 2.48877 12.2807 2.33277 12.2237 2.28977C12.0657 2.17877 11.9177 2.28976 11.7237 2.45776L11.6917 2.48575C11.5587 2.60075 11.4287 2.71877 11.2997 2.83377C10.9187 3.18077 10.5337 3.55276 10.1527 3.93576C9.64871 4.44776 9.16672 4.97077 8.71772 5.49677C8.17072 6.13677 7.67472 6.77778 7.24372 7.40378C6.73272 8.14878 6.31973 8.84978 5.97773 9.55878C5.23873 11.0918 4.89372 12.6968 5.02872 14.3948C5.12272 15.5778 5.39172 16.7548 5.90972 17.8278C6.55172 19.1578 7.56573 20.2618 8.87873 20.9558C9.86873 21.4788 10.9807 21.7498 12.1017 21.7498C13.6647 21.7498 15.2067 21.2198 16.4157 20.2288C17.5727 19.2818 18.3547 17.9468 18.7727 16.5268C19.2547 14.8878 19.3557 13.0757 18.9177 11.4167C18.8807 11.2757 18.8387 11.1358 18.7947 10.9958ZM17.9837 10.0568C18.3727 10.8868 18.6317 11.7428 18.7497 12.6018L18.7967 12.9518L17.1387 10.6898L17.9297 9.94177L17.9837 10.0568ZM12.1017 18.1568L9.60971 16.9498L8.57772 13.5358L9.97573 9.31876L12.1017 7.82276L14.2267 9.31876L15.6717 13.7148L14.6397 16.9288L12.1017 18.1568ZM14.4857 17.4368L13.9497 19.0618L12.5397 18.3708L14.4857 17.4368ZM11.6627 18.3708L10.2527 19.0618L9.77172 17.4618L11.6627 18.3708ZM8.14572 13.5138L7.41973 15.7478L5.54271 13.3998L7.39772 11.0728L8.14572 13.5138ZM7.71472 10.7758L9.43672 9.65576L8.37271 12.8838L7.71472 10.7758ZM8.35472 14.1838L9.11672 16.7178L7.73572 16.0588L8.35472 14.1838ZM10.1057 8.76776L10.5227 6.72376L11.7737 7.59778L10.1057 8.76776ZM12.4497 7.57276L13.7047 6.70276L14.1217 8.74277L12.4497 7.57276ZM14.7727 9.62375L16.6497 10.7508L15.8987 13.0598L14.7727 9.62375ZM15.9237 14.3478L16.4707 16.0588L15.1507 16.7028L15.9237 14.3478ZM16.1037 13.6927L16.9487 11.0908L18.6347 13.4028L16.7617 15.7478L16.1037 13.6927ZM16.6647 7.74777C17.1137 8.39577 17.4627 8.97178 17.7287 9.51578L17.7577 9.57376L16.9917 10.2928L16.4167 7.39377L16.6647 7.74777ZM16.6037 10.2748L14.5757 9.07178L14.0787 6.64575L15.9527 7.09677L16.6037 10.2748ZM14.6077 5.15277C15.0497 5.63577 15.4207 6.07277 15.7407 6.48477L15.8987 6.68875L14.0787 6.24075L14.5067 5.04175L14.6077 5.15277ZM12.9467 3.48175C13.3387 3.83875 13.7557 4.25476 14.1477 4.67676L14.1837 4.71976L13.7917 5.83975L12.6337 3.19476L12.9467 3.48175ZM12.1017 2.94077L13.5937 6.32276L12.1017 7.36878L10.6087 6.32276L12.1017 2.94077ZM10.0557 4.67676C10.4507 4.25476 10.8647 3.83875 11.2597 3.48175L11.5727 3.19476L10.4117 5.83975L10.0197 4.71976L10.0557 4.67676ZM8.58872 6.33377C8.93672 5.91177 9.26471 5.51477 9.59471 5.15277L9.69973 5.03876L10.1017 6.24075L8.29372 6.69177L8.58872 6.33377ZM10.1237 6.64575L9.62772 9.06876L7.77172 10.2538L8.24672 7.09677L10.1237 6.64575ZM6.47773 9.51276C6.80473 8.87176 7.20372 8.25278 7.58472 7.68378L7.81172 7.34677L7.35872 10.3068L6.44171 9.57675L6.47773 9.51276ZM5.45272 12.6728C5.54272 11.8318 5.80171 10.9518 6.22171 10.0568L6.26873 9.95276L7.23572 10.7078L5.42072 12.9768L5.45272 12.6728ZM5.87372 16.6678C5.63272 15.9268 5.48172 15.0958 5.40572 14.1258L5.38472 13.8358L7.20072 16.1088L5.90572 16.7678L5.87372 16.6678ZM6.75472 18.5248L6.63971 18.3278C6.40571 17.9198 6.22971 17.5588 6.08171 17.1898L6.04972 17.1148L7.21472 16.5168L6.75472 18.5248ZM7.08872 18.8828L7.64272 16.4458L9.27472 17.2298L9.85771 19.1018L7.08872 18.8828ZM9.29271 20.7698L9.20671 20.7268C8.57371 20.4038 7.98372 19.9608 7.50272 19.4448L7.34372 19.2768L9.83972 19.4878L9.29271 20.7698ZM11.4287 21.3418C10.8607 21.2988 10.2707 21.1628 9.72072 20.9558L9.63472 20.9198L10.1627 19.6708L11.6487 21.3598L11.4287 21.3418ZM10.4367 19.3768L12.1017 18.5898L13.7657 19.3768L12.1017 21.2778L10.4367 19.3768ZM14.4817 20.9558C13.9247 21.1668 13.3417 21.2988 12.7517 21.3418L12.5327 21.3598L14.0147 19.6708L14.5717 20.9198L14.4817 20.9558ZM16.7467 19.4488C16.2297 19.9788 15.6467 20.4078 15.0207 20.7268L14.9347 20.7698L14.3887 19.4878L16.9127 19.2768L16.7467 19.4488ZM14.3707 19.1048L14.9747 17.2078L16.5597 16.4418L17.0887 18.8828L14.3707 19.1048ZM18.1247 17.1688C17.9557 17.6158 17.7647 18.0028 17.5387 18.3538L17.4197 18.5398L16.9917 16.4987L18.1527 17.0938L18.1247 17.1688ZM18.3327 16.6458L18.3007 16.7458L17.0027 16.0838L18.8107 13.8258L18.7967 14.1048C18.7497 14.9958 18.5957 15.8518 18.3327 16.6458Z" fill="black" fill-opacity="0.2"/>
<path d="M18.7947 10.9958C18.5347 10.1888 18.1567 9.41376 17.7327 8.68176C17.3297 7.98076 16.8627 7.28277 16.2977 6.55277C15.8377 5.94777 15.3157 5.33578 14.7587 4.73078C14.3237 4.25778 13.8597 3.78877 13.3887 3.33777C13.0897 3.05177 12.8907 2.86777 12.5067 2.52777C12.4597 2.48877 12.2807 2.33277 12.2237 2.28977C12.0657 2.17877 11.9177 2.28976 11.7237 2.45776L11.6917 2.48575C11.5587 2.60075 11.4287 2.71877 11.2997 2.83377C10.9187 3.18077 10.5337 3.55276 10.1527 3.93576C9.64871 4.44776 9.16672 4.97077 8.71772 5.49677C8.17072 6.13677 7.67472 6.77778 7.24372 7.40378C6.73272 8.14878 6.31973 8.84978 5.97773 9.55878C5.23873 11.0918 4.89372 12.6968 5.02872 14.3948C5.12272 15.5778 5.39172 16.7548 5.90972 17.8278C6.55172 19.1578 7.56573 20.2618 8.87873 20.9558C9.86873 21.4788 10.9807 21.7498 12.1017 21.7498C13.6647 21.7498 15.2067 21.2198 16.4157 20.2288C17.5727 19.2818 18.3547 17.9468 18.7727 16.5268C19.2547 14.8878 19.3557 13.0757 18.9177 11.4167C18.8807 11.2757 18.8387 11.1358 18.7947 10.9958ZM17.9837 10.0568C18.3727 10.8868 18.6317 11.7428 18.7497 12.6018L18.7967 12.9518L17.1387 10.6898L17.9297 9.94177L17.9837 10.0568ZM12.1017 18.1568L9.60971 16.9498L8.57772 13.5358L9.97573 9.31876L12.1017 7.82276L14.2267 9.31876L15.6717 13.7148L14.6397 16.9288L12.1017 18.1568ZM14.4857 17.4368L13.9497 19.0618L12.5397 18.3708L14.4857 17.4368ZM11.6627 18.3708L10.2527 19.0618L9.77172 17.4618L11.6627 18.3708ZM8.14572 13.5138L7.41973 15.7478L5.54271 13.3998L7.39772 11.0728L8.14572 13.5138ZM7.71472 10.7758L9.43672 9.65576L8.37271 12.8838L7.71472 10.7758ZM8.35472 14.1838L9.11672 16.7178L7.73572 16.0588L8.35472 14.1838ZM10.1057 8.76776L10.5227 6.72376L11.7737 7.59778L10.1057 8.76776ZM12.4497 7.57276L13.7047 6.70276L14.1217 8.74277L12.4497 7.57276ZM14.7727 9.62375L16.6497 10.7508L15.8987 13.0598L14.7727 9.62375ZM15.9237 14.3478L16.4707 16.0588L15.1507 16.7028L15.9237 14.3478ZM16.1037 13.6927L16.9487 11.0908L18.6347 13.4028L16.7617 15.7478L16.1037 13.6927ZM16.6647 7.74777C17.1137 8.39577 17.4627 8.97178 17.7287 9.51578L17.7577 9.57376L16.9917 10.2928L16.4167 7.39377L16.6647 7.74777ZM16.6037 10.2748L14.5757 9.07178L14.0787 6.64575L15.9527 7.09677L16.6037 10.2748ZM14.6077 5.15277C15.0497 5.63577 15.4207 6.07277 15.7407 6.48477L15.8987 6.68875L14.0787 6.24075L14.5067 5.04175L14.6077 5.15277ZM12.9467 3.48175C13.3387 3.83875 13.7557 4.25476 14.1477 4.67676L14.1837 4.71976L13.7917 5.83975L12.6337 3.19476L12.9467 3.48175ZM12.1017 2.94077L13.5937 6.32276L12.1017 7.36878L10.6087 6.32276L12.1017 2.94077ZM10.0557 4.67676C10.4507 4.25476 10.8647 3.83875 11.2597 3.48175L11.5727 3.19476L10.4117 5.83975L10.0197 4.71976L10.0557 4.67676ZM8.58872 6.33377C8.93672 5.91177 9.26471 5.51477 9.59471 5.15277L9.69973 5.03876L10.1017 6.24075L8.29372 6.69177L8.58872 6.33377ZM10.1237 6.64575L9.62772 9.06876L7.77172 10.2538L8.24672 7.09677L10.1237 6.64575ZM6.47773 9.51276C6.80473 8.87176 7.20372 8.25278 7.58472 7.68378L7.81172 7.34677L7.35872 10.3068L6.44171 9.57675L6.47773 9.51276ZM5.45272 12.6728C5.54272 11.8318 5.80171 10.9518 6.22171 10.0568L6.26873 9.95276L7.23572 10.7078L5.42072 12.9768L5.45272 12.6728ZM5.87372 16.6678C5.63272 15.9268 5.48172 15.0958 5.40572 14.1258L5.38472 13.8358L7.20072 16.1088L5.90572 16.7678L5.87372 16.6678ZM6.75472 18.5248L6.63971 18.3278C6.40571 17.9198 6.22971 17.5588 6.08171 17.1898L6.04972 17.1148L7.21472 16.5168L6.75472 18.5248ZM7.08872 18.8828L7.64272 16.4458L9.27472 17.2298L9.85771 19.1018L7.08872 18.8828ZM9.29271 20.7698L9.20671 20.7268C8.57371 20.4038 7.98372 19.9608 7.50272 19.4448L7.34372 19.2768L9.83972 19.4878L9.29271 20.7698ZM11.4287 21.3418C10.8607 21.2988 10.2707 21.1628 9.72072 20.9558L9.63472 20.9198L10.1627 19.6708L11.6487 21.3598L11.4287 21.3418ZM10.4367 19.3768L12.1017 18.5898L13.7657 19.3768L12.1017 21.2778L10.4367 19.3768ZM14.4817 20.9558C13.9247 21.1668 13.3417 21.2988 12.7517 21.3418L12.5327 21.3598L14.0147 19.6708L14.5717 20.9198L14.4817 20.9558ZM16.7467 19.4488C16.2297 19.9788 15.6467 20.4078 15.0207 20.7268L14.9347 20.7698L14.3887 19.4878L16.9127 19.2768L16.7467 19.4488ZM14.3707 19.1048L14.9747 17.2078L16.5597 16.4418L17.0887 18.8828L14.3707 19.1048ZM18.1247 17.1688C17.9557 17.6158 17.7647 18.0028 17.5387 18.3538L17.4197 18.5398L16.9917 16.4987L18.1527 17.0938L18.1247 17.1688ZM18.3327 16.6458L18.3007 16.7458L17.0027 16.0838L18.8107 13.8258L18.7967 14.1048C18.7497 14.9958 18.5957 15.8518 18.3327 16.6458Z" fill="black" fill-opacity="0.2"/>
<path d="M18.7947 10.9958C18.5347 10.1888 18.1567 9.41376 17.7327 8.68176C17.3297 7.98076 16.8627 7.28277 16.2977 6.55277C15.8377 5.94777 15.3157 5.33578 14.7587 4.73078C14.3237 4.25778 13.8597 3.78877 13.3887 3.33777C13.0897 3.05177 12.8907 2.86777 12.5067 2.52777C12.4597 2.48877 12.2807 2.33277 12.2237 2.28977C12.0657 2.17877 11.9177 2.28976 11.7237 2.45776L11.6917 2.48575C11.5587 2.60075 11.4287 2.71877 11.2997 2.83377C10.9187 3.18077 10.5337 3.55276 10.1527 3.93576C9.64871 4.44776 9.16672 4.97077 8.71772 5.49677C8.17072 6.13677 7.67472 6.77778 7.24372 7.40378C6.73272 8.14878 6.31973 8.84978 5.97773 9.55878C5.23873 11.0918 4.89372 12.6968 5.02872 14.3948C5.12272 15.5778 5.39172 16.7548 5.90972 17.8278C6.55172 19.1578 7.56573 20.2618 8.87873 20.9558C9.86873 21.4788 10.9807 21.7498 12.1017 21.7498C13.6647 21.7498 15.2067 21.2198 16.4157 20.2288C17.5727 19.2818 18.3547 17.9468 18.7727 16.5268C19.2547 14.8878 19.3557 13.0757 18.9177 11.4167C18.8807 11.2757 18.8387 11.1358 18.7947 10.9958ZM17.9837 10.0568C18.3727 10.8868 18.6317 11.7428 18.7497 12.6018L18.7967 12.9518L17.1387 10.6898L17.9297 9.94177L17.9837 10.0568ZM12.1017 18.1568L9.60971 16.9498L8.57772 13.5358L9.97573 9.31876L12.1017 7.82276L14.2267 9.31876L15.6717 13.7148L14.6397 16.9288L12.1017 18.1568ZM14.4857 17.4368L13.9497 19.0618L12.5397 18.3708L14.4857 17.4368ZM11.6627 18.3708L10.2527 19.0618L9.77172 17.4618L11.6627 18.3708ZM8.14572 13.5138L7.41973 15.7478L5.54271 13.3998L7.39772 11.0728L8.14572 13.5138ZM7.71472 10.7758L9.43672 9.65576L8.37271 12.8838L7.71472 10.7758ZM8.35472 14.1838L9.11672 16.7178L7.73572 16.0588L8.35472 14.1838ZM10.1057 8.76776L10.5227 6.72376L11.7737 7.59778L10.1057 8.76776ZM12.4497 7.57276L13.7047 6.70276L14.1217 8.74277L12.4497 7.57276ZM14.7727 9.62375L16.6497 10.7508L15.8987 13.0598L14.7727 9.62375ZM15.9237 14.3478L16.4707 16.0588L15.1507 16.7028L15.9237 14.3478ZM16.1037 13.6927L16.9487 11.0908L18.6347 13.4028L16.7617 15.7478L16.1037 13.6927ZM16.6647 7.74777C17.1137 8.39577 17.4627 8.97178 17.7287 9.51578L17.7577 9.57376L16.9917 10.2928L16.4167 7.39377L16.6647 7.74777ZM16.6037 10.2748L14.5757 9.07178L14.0787 6.64575L15.9527 7.09677L16.6037 10.2748ZM14.6077 5.15277C15.0497 5.63577 15.4207 6.07277 15.7407 6.48477L15.8987 6.68875L14.0787 6.24075L14.5067 5.04175L14.6077 5.15277ZM12.9467 3.48175C13.3387 3.83875 13.7557 4.25476 14.1477 4.67676L14.1837 4.71976L13.7917 5.83975L12.6337 3.19476L12.9467 3.48175ZM12.1017 2.94077L13.5937 6.32276L12.1017 7.36878L10.6087 6.32276L12.1017 2.94077ZM10.0557 4.67676C10.4507 4.25476 10.8647 3.83875 11.2597 3.48175L11.5727 3.19476L10.4117 5.83975L10.0197 4.71976L10.0557 4.67676ZM8.58872 6.33377C8.93672 5.91177 9.26471 5.51477 9.59471 5.15277L9.69973 5.03876L10.1017 6.24075L8.29372 6.69177L8.58872 6.33377ZM10.1237 6.64575L9.62772 9.06876L7.77172 10.2538L8.24672 7.09677L10.1237 6.64575ZM6.47773 9.51276C6.80473 8.87176 7.20372 8.25278 7.58472 7.68378L7.81172 7.34677L7.35872 10.3068L6.44171 9.57675L6.47773 9.51276ZM5.45272 12.6728C5.54272 11.8318 5.80171 10.9518 6.22171 10.0568L6.26873 9.95276L7.23572 10.7078L5.42072 12.9768L5.45272 12.6728ZM5.87372 16.6678C5.63272 15.9268 5.48172 15.0958 5.40572 14.1258L5.38472 13.8358L7.20072 16.1088L5.90572 16.7678L5.87372 16.6678ZM6.75472 18.5248L6.63971 18.3278C6.40571 17.9198 6.22971 17.5588 6.08171 17.1898L6.04972 17.1148L7.21472 16.5168L6.75472 18.5248ZM7.08872 18.8828L7.64272 16.4458L9.27472 17.2298L9.85771 19.1018L7.08872 18.8828ZM9.29271 20.7698L9.20671 20.7268C8.57371 20.4038 7.98372 19.9608 7.50272 19.4448L7.34372 19.2768L9.83972 19.4878L9.29271 20.7698ZM11.4287 21.3418C10.8607 21.2988 10.2707 21.1628 9.72072 20.9558L9.63472 20.9198L10.1627 19.6708L11.6487 21.3598L11.4287 21.3418ZM10.4367 19.3768L12.1017 18.5898L13.7657 19.3768L12.1017 21.2778L10.4367 19.3768ZM14.4817 20.9558C13.9247 21.1668 13.3417 21.2988 12.7517 21.3418L12.5327 21.3598L14.0147 19.6708L14.5717 20.9198L14.4817 20.9558ZM16.7467 19.4488C16.2297 19.9788 15.6467 20.4078 15.0207 20.7268L14.9347 20.7698L14.3887 19.4878L16.9127 19.2768L16.7467 19.4488ZM14.3707 19.1048L14.9747 17.2078L16.5597 16.4418L17.0887 18.8828L14.3707 19.1048ZM18.1247 17.1688C17.9557 17.6158 17.7647 18.0028 17.5387 18.3538L17.4197 18.5398L16.9917 16.4987L18.1527 17.0938L18.1247 17.1688ZM18.3327 16.6458L18.3007 16.7458L17.0027 16.0838L18.8107 13.8258L18.7967 14.1048C18.7497 14.9958 18.5957 15.8518 18.3327 16.6458Z" fill="black" fill-opacity="0.2"/>
<path d="M18.7947 10.9958C18.5347 10.1888 18.1567 9.41376 17.7327 8.68176C17.3297 7.98076 16.8627 7.28277 16.2977 6.55277C15.8377 5.94777 15.3157 5.33578 14.7587 4.73078C14.3237 4.25778 13.8597 3.78877 13.3887 3.33777C13.0897 3.05177 12.8907 2.86777 12.5067 2.52777C12.4597 2.48877 12.2807 2.33277 12.2237 2.28977C12.0657 2.17877 11.9177 2.28976 11.7237 2.45776L11.6917 2.48575C11.5587 2.60075 11.4287 2.71877 11.2997 2.83377C10.9187 3.18077 10.5337 3.55276 10.1527 3.93576C9.64871 4.44776 9.16672 4.97077 8.71772 5.49677C8.17072 6.13677 7.67472 6.77778 7.24372 7.40378C6.73272 8.14878 6.31973 8.84978 5.97773 9.55878C5.23873 11.0918 4.89372 12.6968 5.02872 14.3948C5.12272 15.5778 5.39172 16.7548 5.90972 17.8278C6.55172 19.1578 7.56573 20.2618 8.87873 20.9558C9.86873 21.4788 10.9807 21.7498 12.1017 21.7498C13.6647 21.7498 15.2067 21.2198 16.4157 20.2288C17.5727 19.2818 18.3547 17.9468 18.7727 16.5268C19.2547 14.8878 19.3557 13.0757 18.9177 11.4167C18.8807 11.2757 18.8387 11.1358 18.7947 10.9958ZM17.9837 10.0568C18.3727 10.8868 18.6317 11.7428 18.7497 12.6018L18.7967 12.9518L17.1387 10.6898L17.9297 9.94177L17.9837 10.0568ZM12.1017 18.1568L9.60971 16.9498L8.57772 13.5358L9.97573 9.31876L12.1017 7.82276L14.2267 9.31876L15.6717 13.7148L14.6397 16.9288L12.1017 18.1568ZM14.4857 17.4368L13.9497 19.0618L12.5397 18.3708L14.4857 17.4368ZM11.6627 18.3708L10.2527 19.0618L9.77172 17.4618L11.6627 18.3708ZM8.14572 13.5138L7.41973 15.7478L5.54271 13.3998L7.39772 11.0728L8.14572 13.5138ZM7.71472 10.7758L9.43672 9.65576L8.37271 12.8838L7.71472 10.7758ZM8.35472 14.1838L9.11672 16.7178L7.73572 16.0588L8.35472 14.1838ZM10.1057 8.76776L10.5227 6.72376L11.7737 7.59778L10.1057 8.76776ZM12.4497 7.57276L13.7047 6.70276L14.1217 8.74277L12.4497 7.57276ZM14.7727 9.62375L16.6497 10.7508L15.8987 13.0598L14.7727 9.62375ZM15.9237 14.3478L16.4707 16.0588L15.1507 16.7028L15.9237 14.3478ZM16.1037 13.6927L16.9487 11.0908L18.6347 13.4028L16.7617 15.7478L16.1037 13.6927ZM16.6647 7.74777C17.1137 8.39577 17.4627 8.97178 17.7287 9.51578L17.7577 9.57376L16.9917 10.2928L16.4167 7.39377L16.6647 7.74777ZM16.6037 10.2748L14.5757 9.07178L14.0787 6.64575L15.9527 7.09677L16.6037 10.2748ZM14.6077 5.15277C15.0497 5.63577 15.4207 6.07277 15.7407 6.48477L15.8987 6.68875L14.0787 6.24075L14.5067 5.04175L14.6077 5.15277ZM12.9467 3.48175C13.3387 3.83875 13.7557 4.25476 14.1477 4.67676L14.1837 4.71976L13.7917 5.83975L12.6337 3.19476L12.9467 3.48175ZM12.1017 2.94077L13.5937 6.32276L12.1017 7.36878L10.6087 6.32276L12.1017 2.94077ZM10.0557 4.67676C10.4507 4.25476 10.8647 3.83875 11.2597 3.48175L11.5727 3.19476L10.4117 5.83975L10.0197 4.71976L10.0557 4.67676ZM8.58872 6.33377C8.93672 5.91177 9.26471 5.51477 9.59471 5.15277L9.69973 5.03876L10.1017 6.24075L8.29372 6.69177L8.58872 6.33377ZM10.1237 6.64575L9.62772 9.06876L7.77172 10.2538L8.24672 7.09677L10.1237 6.64575ZM6.47773 9.51276C6.80473 8.87176 7.20372 8.25278 7.58472 7.68378L7.81172 7.34677L7.35872 10.3068L6.44171 9.57675L6.47773 9.51276ZM5.45272 12.6728C5.54272 11.8318 5.80171 10.9518 6.22171 10.0568L6.26873 9.95276L7.23572 10.7078L5.42072 12.9768L5.45272 12.6728ZM5.87372 16.6678C5.63272 15.9268 5.48172 15.0958 5.40572 14.1258L5.38472 13.8358L7.20072 16.1088L5.90572 16.7678L5.87372 16.6678ZM6.75472 18.5248L6.63971 18.3278C6.40571 17.9198 6.22971 17.5588 6.08171 17.1898L6.04972 17.1148L7.21472 16.5168L6.75472 18.5248ZM7.08872 18.8828L7.64272 16.4458L9.27472 17.2298L9.85771 19.1018L7.08872 18.8828ZM9.29271 20.7698L9.20671 20.7268C8.57371 20.4038 7.98372 19.9608 7.50272 19.4448L7.34372 19.2768L9.83972 19.4878L9.29271 20.7698ZM11.4287 21.3418C10.8607 21.2988 10.2707 21.1628 9.72072 20.9558L9.63472 20.9198L10.1627 19.6708L11.6487 21.3598L11.4287 21.3418ZM10.4367 19.3768L12.1017 18.5898L13.7657 19.3768L12.1017 21.2778L10.4367 19.3768ZM14.4817 20.9558C13.9247 21.1668 13.3417 21.2988 12.7517 21.3418L12.5327 21.3598L14.0147 19.6708L14.5717 20.9198L14.4817 20.9558ZM16.7467 19.4488C16.2297 19.9788 15.6467 20.4078 15.0207 20.7268L14.9347 20.7698L14.3887 19.4878L16.9127 19.2768L16.7467 19.4488ZM14.3707 19.1048L14.9747 17.2078L16.5597 16.4418L17.0887 18.8828L14.3707 19.1048ZM18.1247 17.1688C17.9557 17.6158 17.7647 18.0028 17.5387 18.3538L17.4197 18.5398L16.9917 16.4987L18.1527 17.0938L18.1247 17.1688ZM18.3327 16.6458L18.3007 16.7458L17.0027 16.0838L18.8107 13.8258L18.7967 14.1048C18.7497 14.9958 18.5957 15.8518 18.3327 16.6458Z" fill="black" fill-opacity="0.2"/>
<path d="M18.7947 10.9958C18.5347 10.1888 18.1567 9.41376 17.7327 8.68176C17.3297 7.98076 16.8627 7.28277 16.2977 6.55277C15.8377 5.94777 15.3157 5.33578 14.7587 4.73078C14.3237 4.25778 13.8597 3.78877 13.3887 3.33777C13.0897 3.05177 12.8907 2.86777 12.5067 2.52777C12.4597 2.48877 12.2807 2.33277 12.2237 2.28977C12.0657 2.17877 11.9177 2.28976 11.7237 2.45776L11.6917 2.48575C11.5587 2.60075 11.4287 2.71877 11.2997 2.83377C10.9187 3.18077 10.5337 3.55276 10.1527 3.93576C9.64871 4.44776 9.16672 4.97077 8.71772 5.49677C8.17072 6.13677 7.67472 6.77778 7.24372 7.40378C6.73272 8.14878 6.31973 8.84978 5.97773 9.55878C5.23873 11.0918 4.89372 12.6968 5.02872 14.3948C5.12272 15.5778 5.39172 16.7548 5.90972 17.8278C6.55172 19.1578 7.56573 20.2618 8.87873 20.9558C9.86873 21.4788 10.9807 21.7498 12.1017 21.7498C13.6647 21.7498 15.2067 21.2198 16.4157 20.2288C17.5727 19.2818 18.3547 17.9468 18.7727 16.5268C19.2547 14.8878 19.3557 13.0757 18.9177 11.4167C18.8807 11.2757 18.8387 11.1358 18.7947 10.9958ZM17.9837 10.0568C18.3727 10.8868 18.6317 11.7428 18.7497 12.6018L18.7967 12.9518L17.1387 10.6898L17.9297 9.94177L17.9837 10.0568ZM12.1017 18.1568L9.60971 16.9498L8.57772 13.5358L9.97573 9.31876L12.1017 7.82276L14.2267 9.31876L15.6717 13.7148L14.6397 16.9288L12.1017 18.1568ZM14.4857 17.4368L13.9497 19.0618L12.5397 18.3708L14.4857 17.4368ZM11.6627 18.3708L10.2527 19.0618L9.77172 17.4618L11.6627 18.3708ZM8.14572 13.5138L7.41973 15.7478L5.54271 13.3998L7.39772 11.0728L8.14572 13.5138ZM7.71472 10.7758L9.43672 9.65576L8.37271 12.8838L7.71472 10.7758ZM8.35472 14.1838L9.11672 16.7178L7.73572 16.0588L8.35472 14.1838ZM10.1057 8.76776L10.5227 6.72376L11.7737 7.59778L10.1057 8.76776ZM12.4497 7.57276L13.7047 6.70276L14.1217 8.74277L12.4497 7.57276ZM14.7727 9.62375L16.6497 10.7508L15.8987 13.0598L14.7727 9.62375ZM15.9237 14.3478L16.4707 16.0588L15.1507 16.7028L15.9237 14.3478ZM16.1037 13.6927L16.9487 11.0908L18.6347 13.4028L16.7617 15.7478L16.1037 13.6927ZM16.6647 7.74777C17.1137 8.39577 17.4627 8.97178 17.7287 9.51578L17.7577 9.57376L16.9917 10.2928L16.4167 7.39377L16.6647 7.74777ZM16.6037 10.2748L14.5757 9.07178L14.0787 6.64575L15.9527 7.09677L16.6037 10.2748ZM14.6077 5.15277C15.0497 5.63577 15.4207 6.07277 15.7407 6.48477L15.8987 6.68875L14.0787 6.24075L14.5067 5.04175L14.6077 5.15277ZM12.9467 3.48175C13.3387 3.83875 13.7557 4.25476 14.1477 4.67676L14.1837 4.71976L13.7917 5.83975L12.6337 3.19476L12.9467 3.48175ZM12.1017 2.94077L13.5937 6.32276L12.1017 7.36878L10.6087 6.32276L12.1017 2.94077ZM10.0557 4.67676C10.4507 4.25476 10.8647 3.83875 11.2597 3.48175L11.5727 3.19476L10.4117 5.83975L10.0197 4.71976L10.0557 4.67676ZM8.58872 6.33377C8.93672 5.91177 9.26471 5.51477 9.59471 5.15277L9.69973 5.03876L10.1017 6.24075L8.29372 6.69177L8.58872 6.33377ZM10.1237 6.64575L9.62772 9.06876L7.77172 10.2538L8.24672 7.09677L10.1237 6.64575ZM6.47773 9.51276C6.80473 8.87176 7.20372 8.25278 7.58472 7.68378L7.81172 7.34677L7.35872 10.3068L6.44171 9.57675L6.47773 9.51276ZM5.45272 12.6728C5.54272 11.8318 5.80171 10.9518 6.22171 10.0568L6.26873 9.95276L7.23572 10.7078L5.42072 12.9768L5.45272 12.6728ZM5.87372 16.6678C5.63272 15.9268 5.48172 15.0958 5.40572 14.1258L5.38472 13.8358L7.20072 16.1088L5.90572 16.7678L5.87372 16.6678ZM6.75472 18.5248L6.63971 18.3278C6.40571 17.9198 6.22971 17.5588 6.08171 17.1898L6.04972 17.1148L7.21472 16.5168L6.75472 18.5248ZM7.08872 18.8828L7.64272 16.4458L9.27472 17.2298L9.85771 19.1018L7.08872 18.8828ZM9.29271 20.7698L9.20671 20.7268C8.57371 20.4038 7.98372 19.9608 7.50272 19.4448L7.34372 19.2768L9.83972 19.4878L9.29271 20.7698ZM11.4287 21.3418C10.8607 21.2988 10.2707 21.1628 9.72072 20.9558L9.63472 20.9198L10.1627 19.6708L11.6487 21.3598L11.4287 21.3418ZM10.4367 19.3768L12.1017 18.5898L13.7657 19.3768L12.1017 21.2778L10.4367 19.3768ZM14.4817 20.9558C13.9247 21.1668 13.3417 21.2988 12.7517 21.3418L12.5327 21.3598L14.0147 19.6708L14.5717 20.9198L14.4817 20.9558ZM16.7467 19.4488C16.2297 19.9788 15.6467 20.4078 15.0207 20.7268L14.9347 20.7698L14.3887 19.4878L16.9127 19.2768L16.7467 19.4488ZM14.3707 19.1048L14.9747 17.2078L16.5597 16.4418L17.0887 18.8828L14.3707 19.1048ZM18.1247 17.1688C17.9557 17.6158 17.7647 18.0028 17.5387 18.3538L17.4197 18.5398L16.9917 16.4987L18.1527 17.0938L18.1247 17.1688ZM18.3327 16.6458L18.3007 16.7458L17.0027 16.0838L18.8107 13.8258L18.7967 14.1048C18.7497 14.9958 18.5957 15.8518 18.3327 16.6458Z" fill="black" fill-opacity="0.2"/>
<path d="M18.7947 10.9958C18.5347 10.1888 18.1567 9.41376 17.7327 8.68176C17.3297 7.98076 16.8627 7.28277 16.2977 6.55277C15.8377 5.94777 15.3157 5.33578 14.7587 4.73078C14.3237 4.25778 13.8597 3.78877 13.3887 3.33777C13.0897 3.05177 12.8907 2.86777 12.5067 2.52777C12.4597 2.48877 12.2807 2.33277 12.2237 2.28977C12.0657 2.17877 11.9177 2.28976 11.7237 2.45776L11.6917 2.48575C11.5587 2.60075 11.4287 2.71877 11.2997 2.83377C10.9187 3.18077 10.5337 3.55276 10.1527 3.93576C9.64871 4.44776 9.16672 4.97077 8.71772 5.49677C8.17072 6.13677 7.67472 6.77778 7.24372 7.40378C6.73272 8.14878 6.31973 8.84978 5.97773 9.55878C5.23873 11.0918 4.89372 12.6968 5.02872 14.3948C5.12272 15.5778 5.39172 16.7548 5.90972 17.8278C6.55172 19.1578 7.56573 20.2618 8.87873 20.9558C9.86873 21.4788 10.9807 21.7498 12.1017 21.7498C13.6647 21.7498 15.2067 21.2198 16.4157 20.2288C17.5727 19.2818 18.3547 17.9468 18.7727 16.5268C19.2547 14.8878 19.3557 13.0757 18.9177 11.4167C18.8807 11.2757 18.8387 11.1358 18.7947 10.9958ZM17.9837 10.0568C18.3727 10.8868 18.6317 11.7428 18.7497 12.6018L18.7967 12.9518L17.1387 10.6898L17.9297 9.94177L17.9837 10.0568ZM12.1017 18.1568L9.60971 16.9498L8.57772 13.5358L9.97573 9.31876L12.1017 7.82276L14.2267 9.31876L15.6717 13.7148L14.6397 16.9288L12.1017 18.1568ZM14.4857 17.4368L13.9497 19.0618L12.5397 18.3708L14.4857 17.4368ZM11.6627 18.3708L10.2527 19.0618L9.77172 17.4618L11.6627 18.3708ZM8.14572 13.5138L7.41973 15.7478L5.54271 13.3998L7.39772 11.0728L8.14572 13.5138ZM7.71472 10.7758L9.43672 9.65576L8.37271 12.8838L7.71472 10.7758ZM8.35472 14.1838L9.11672 16.7178L7.73572 16.0588L8.35472 14.1838ZM10.1057 8.76776L10.5227 6.72376L11.7737 7.59778L10.1057 8.76776ZM12.4497 7.57276L13.7047 6.70276L14.1217 8.74277L12.4497 7.57276ZM14.7727 9.62375L16.6497 10.7508L15.8987 13.0598L14.7727 9.62375ZM15.9237 14.3478L16.4707 16.0588L15.1507 16.7028L15.9237 14.3478ZM16.1037 13.6927L16.9487 11.0908L18.6347 13.4028L16.7617 15.7478L16.1037 13.6927ZM16.6647 7.74777C17.1137 8.39577 17.4627 8.97178 17.7287 9.51578L17.7577 9.57376L16.9917 10.2928L16.4167 7.39377L16.6647 7.74777ZM16.6037 10.2748L14.5757 9.07178L14.0787 6.64575L15.9527 7.09677L16.6037 10.2748ZM14.6077 5.15277C15.0497 5.63577 15.4207 6.07277 15.7407 6.48477L15.8987 6.68875L14.0787 6.24075L14.5067 5.04175L14.6077 5.15277ZM12.9467 3.48175C13.3387 3.83875 13.7557 4.25476 14.1477 4.67676L14.1837 4.71976L13.7917 5.83975L12.6337 3.19476L12.9467 3.48175ZM12.1017 2.94077L13.5937 6.32276L12.1017 7.36878L10.6087 6.32276L12.1017 2.94077ZM10.0557 4.67676C10.4507 4.25476 10.8647 3.83875 11.2597 3.48175L11.5727 3.19476L10.4117 5.83975L10.0197 4.71976L10.0557 4.67676ZM8.58872 6.33377C8.93672 5.91177 9.26471 5.51477 9.59471 5.15277L9.69973 5.03876L10.1017 6.24075L8.29372 6.69177L8.58872 6.33377ZM10.1237 6.64575L9.62772 9.06876L7.77172 10.2538L8.24672 7.09677L10.1237 6.64575ZM6.47773 9.51276C6.80473 8.87176 7.20372 8.25278 7.58472 7.68378L7.81172 7.34677L7.35872 10.3068L6.44171 9.57675L6.47773 9.51276ZM5.45272 12.6728C5.54272 11.8318 5.80171 10.9518 6.22171 10.0568L6.26873 9.95276L7.23572 10.7078L5.42072 12.9768L5.45272 12.6728ZM5.87372 16.6678C5.63272 15.9268 5.48172 15.0958 5.40572 14.1258L5.38472 13.8358L7.20072 16.1088L5.90572 16.7678L5.87372 16.6678ZM6.75472 18.5248L6.63971 18.3278C6.40571 17.9198 6.22971 17.5588 6.08171 17.1898L6.04972 17.1148L7.21472 16.5168L6.75472 18.5248ZM7.08872 18.8828L7.64272 16.4458L9.27472 17.2298L9.85771 19.1018L7.08872 18.8828ZM9.29271 20.7698L9.20671 20.7268C8.57371 20.4038 7.98372 19.9608 7.50272 19.4448L7.34372 19.2768L9.83972 19.4878L9.29271 20.7698ZM11.4287 21.3418C10.8607 21.2988 10.2707 21.1628 9.72072 20.9558L9.63472 20.9198L10.1627 19.6708L11.6487 21.3598L11.4287 21.3418ZM10.4367 19.3768L12.1017 18.5898L13.7657 19.3768L12.1017 21.2778L10.4367 19.3768ZM14.4817 20.9558C13.9247 21.1668 13.3417 21.2988 12.7517 21.3418L12.5327 21.3598L14.0147 19.6708L14.5717 20.9198L14.4817 20.9558ZM16.7467 19.4488C16.2297 19.9788 15.6467 20.4078 15.0207 20.7268L14.9347 20.7698L14.3887 19.4878L16.9127 19.2768L16.7467 19.4488ZM14.3707 19.1048L14.9747 17.2078L16.5597 16.4418L17.0887 18.8828L14.3707 19.1048ZM18.1247 17.1688C17.9557 17.6158 17.7647 18.0028 17.5387 18.3538L17.4197 18.5398L16.9917 16.4987L18.1527 17.0938L18.1247 17.1688ZM18.3327 16.6458L18.3007 16.7458L17.0027 16.0838L18.8107 13.8258L18.7967 14.1048C18.7497 14.9958 18.5957 15.8518 18.3327 16.6458Z" fill="black" fill-opacity="0.2"/>
<path d="M18.7947 10.9958C18.5347 10.1888 18.1567 9.41376 17.7327 8.68176C17.3297 7.98076 16.8627 7.28277 16.2977 6.55277C15.8377 5.94777 15.3157 5.33578 14.7587 4.73078C14.3237 4.25778 13.8597 3.78877 13.3887 3.33777C13.0897 3.05177 12.8907 2.86777 12.5067 2.52777C12.4597 2.48877 12.2807 2.33277 12.2237 2.28977C12.0657 2.17877 11.9177 2.28976 11.7237 2.45776L11.6917 2.48575C11.5587 2.60075 11.4287 2.71877 11.2997 2.83377C10.9187 3.18077 10.5337 3.55276 10.1527 3.93576C9.64871 4.44776 9.16672 4.97077 8.71772 5.49677C8.17072 6.13677 7.67472 6.77778 7.24372 7.40378C6.73272 8.14878 6.31973 8.84978 5.97773 9.55878C5.23873 11.0918 4.89372 12.6968 5.02872 14.3948C5.12272 15.5778 5.39172 16.7548 5.90972 17.8278C6.55172 19.1578 7.56573 20.2618 8.87873 20.9558C9.86873 21.4788 10.9807 21.7498 12.1017 21.7498C13.6647 21.7498 15.2067 21.2198 16.4157 20.2288C17.5727 19.2818 18.3547 17.9468 18.7727 16.5268C19.2547 14.8878 19.3557 13.0757 18.9177 11.4167C18.8807 11.2757 18.8387 11.1358 18.7947 10.9958ZM17.9837 10.0568C18.3727 10.8868 18.6317 11.7428 18.7497 12.6018L18.7967 12.9518L17.1387 10.6898L17.9297 9.94177L17.9837 10.0568ZM12.1017 18.1568L9.60971 16.9498L8.57772 13.5358L9.97573 9.31876L12.1017 7.82276L14.2267 9.31876L15.6717 13.7148L14.6397 16.9288L12.1017 18.1568ZM14.4857 17.4368L13.9497 19.0618L12.5397 18.3708L14.4857 17.4368ZM11.6627 18.3708L10.2527 19.0618L9.77172 17.4618L11.6627 18.3708ZM8.14572 13.5138L7.41973 15.7478L5.54271 13.3998L7.39772 11.0728L8.14572 13.5138ZM7.71472 10.7758L9.43672 9.65576L8.37271 12.8838L7.71472 10.7758ZM8.35472 14.1838L9.11672 16.7178L7.73572 16.0588L8.35472 14.1838ZM10.1057 8.76776L10.5227 6.72376L11.7737 7.59778L10.1057 8.76776ZM12.4497 7.57276L13.7047 6.70276L14.1217 8.74277L12.4497 7.57276ZM14.7727 9.62375L16.6497 10.7508L15.8987 13.0598L14.7727 9.62375ZM15.9237 14.3478L16.4707 16.0588L15.1507 16.7028L15.9237 14.3478ZM16.1037 13.6927L16.9487 11.0908L18.6347 13.4028L16.7617 15.7478L16.1037 13.6927ZM16.6647 7.74777C17.1137 8.39577 17.4627 8.97178 17.7287 9.51578L17.7577 9.57376L16.9917 10.2928L16.4167 7.39377L16.6647 7.74777ZM16.6037 10.2748L14.5757 9.07178L14.0787 6.64575L15.9527 7.09677L16.6037 10.2748ZM14.6077 5.15277C15.0497 5.63577 15.4207 6.07277 15.7407 6.48477L15.8987 6.68875L14.0787 6.24075L14.5067 5.04175L14.6077 5.15277ZM12.9467 3.48175C13.3387 3.83875 13.7557 4.25476 14.1477 4.67676L14.1837 4.71976L13.7917 5.83975L12.6337 3.19476L12.9467 3.48175ZM12.1017 2.94077L13.5937 6.32276L12.1017 7.36878L10.6087 6.32276L12.1017 2.94077ZM10.0557 4.67676C10.4507 4.25476 10.8647 3.83875 11.2597 3.48175L11.5727 3.19476L10.4117 5.83975L10.0197 4.71976L10.0557 4.67676ZM8.58872 6.33377C8.93672 5.91177 9.26471 5.51477 9.59471 5.15277L9.69973 5.03876L10.1017 6.24075L8.29372 6.69177L8.58872 6.33377ZM10.1237 6.64575L9.62772 9.06876L7.77172 10.2538L8.24672 7.09677L10.1237 6.64575ZM6.47773 9.51276C6.80473 8.87176 7.20372 8.25278 7.58472 7.68378L7.81172 7.34677L7.35872 10.3068L6.44171 9.57675L6.47773 9.51276ZM5.45272 12.6728C5.54272 11.8318 5.80171 10.9518 6.22171 10.0568L6.26873 9.95276L7.23572 10.7078L5.42072 12.9768L5.45272 12.6728ZM5.87372 16.6678C5.63272 15.9268 5.48172 15.0958 5.40572 14.1258L5.38472 13.8358L7.20072 16.1088L5.90572 16.7678L5.87372 16.6678ZM6.75472 18.5248L6.63971 18.3278C6.40571 17.9198 6.22971 17.5588 6.08171 17.1898L6.04972 17.1148L7.21472 16.5168L6.75472 18.5248ZM7.08872 18.8828L7.64272 16.4458L9.27472 17.2298L9.85771 19.1018L7.08872 18.8828ZM9.29271 20.7698L9.20671 20.7268C8.57371 20.4038 7.98372 19.9608 7.50272 19.4448L7.34372 19.2768L9.83972 19.4878L9.29271 20.7698ZM11.4287 21.3418C10.8607 21.2988 10.2707 21.1628 9.72072 20.9558L9.63472 20.9198L10.1627 19.6708L11.6487 21.3598L11.4287 21.3418ZM10.4367 19.3768L12.1017 18.5898L13.7657 19.3768L12.1017 21.2778L10.4367 19.3768ZM14.4817 20.9558C13.9247 21.1668 13.3417 21.2988 12.7517 21.3418L12.5327 21.3598L14.0147 19.6708L14.5717 20.9198L14.4817 20.9558ZM16.7467 19.4488C16.2297 19.9788 15.6467 20.4078 15.0207 20.7268L14.9347 20.7698L14.3887 19.4878L16.9127 19.2768L16.7467 19.4488ZM14.3707 19.1048L14.9747 17.2078L16.5597 16.4418L17.0887 18.8828L14.3707 19.1048ZM18.1247 17.1688C17.9557 17.6158 17.7647 18.0028 17.5387 18.3538L17.4197 18.5398L16.9917 16.4987L18.1527 17.0938L18.1247 17.1688ZM18.3327 16.6458L18.3007 16.7458L17.0027 16.0838L18.8107 13.8258L18.7967 14.1048C18.7497 14.9958 18.5957 15.8518 18.3327 16.6458Z" fill="black" fill-opacity="0.2"/>
<path d="M18.7947 10.9958C18.5347 10.1888 18.1567 9.41376 17.7327 8.68176C17.3297 7.98076 16.8627 7.28277 16.2977 6.55277C15.8377 5.94777 15.3157 5.33578 14.7587 4.73078C14.3237 4.25778 13.8597 3.78877 13.3887 3.33777C13.0897 3.05177 12.8907 2.86777 12.5067 2.52777C12.4597 2.48877 12.2807 2.33277 12.2237 2.28977C12.0657 2.17877 11.9177 2.28976 11.7237 2.45776L11.6917 2.48575C11.5587 2.60075 11.4287 2.71877 11.2997 2.83377C10.9187 3.18077 10.5337 3.55276 10.1527 3.93576C9.64871 4.44776 9.16672 4.97077 8.71772 5.49677C8.17072 6.13677 7.67472 6.77778 7.24372 7.40378C6.73272 8.14878 6.31973 8.84978 5.97773 9.55878C5.23873 11.0918 4.89372 12.6968 5.02872 14.3948C5.12272 15.5778 5.39172 16.7548 5.90972 17.8278C6.55172 19.1578 7.56573 20.2618 8.87873 20.9558C9.86873 21.4788 10.9807 21.7498 12.1017 21.7498C13.6647 21.7498 15.2067 21.2198 16.4157 20.2288C17.5727 19.2818 18.3547 17.9468 18.7727 16.5268C19.2547 14.8878 19.3557 13.0757 18.9177 11.4167C18.8807 11.2757 18.8387 11.1358 18.7947 10.9958ZM17.9837 10.0568C18.3727 10.8868 18.6317 11.7428 18.7497 12.6018L18.7967 12.9518L17.1387 10.6898L17.9297 9.94177L17.9837 10.0568ZM12.1017 18.1568L9.60971 16.9498L8.57772 13.5358L9.97573 9.31876L12.1017 7.82276L14.2267 9.31876L15.6717 13.7148L14.6397 16.9288L12.1017 18.1568ZM14.4857 17.4368L13.9497 19.0618L12.5397 18.3708L14.4857 17.4368ZM11.6627 18.3708L10.2527 19.0618L9.77172 17.4618L11.6627 18.3708ZM8.14572 13.5138L7.41973 15.7478L5.54271 13.3998L7.39772 11.0728L8.14572 13.5138ZM7.71472 10.7758L9.43672 9.65576L8.37271 12.8838L7.71472 10.7758ZM8.35472 14.1838L9.11672 16.7178L7.73572 16.0588L8.35472 14.1838ZM10.1057 8.76776L10.5227 6.72376L11.7737 7.59778L10.1057 8.76776ZM12.4497 7.57276L13.7047 6.70276L14.1217 8.74277L12.4497 7.57276ZM14.7727 9.62375L16.6497 10.7508L15.8987 13.0598L14.7727 9.62375ZM15.9237 14.3478L16.4707 16.0588L15.1507 16.7028L15.9237 14.3478ZM16.1037 13.6927L16.9487 11.0908L18.6347 13.4028L16.7617 15.7478L16.1037 13.6927ZM16.6647 7.74777C17.1137 8.39577 17.4627 8.97178 17.7287 9.51578L17.7577 9.57376L16.9917 10.2928L16.4167 7.39377L16.6647 7.74777ZM16.6037 10.2748L14.5757 9.07178L14.0787 6.64575L15.9527 7.09677L16.6037 10.2748ZM14.6077 5.15277C15.0497 5.63577 15.4207 6.07277 15.7407 6.48477L15.8987 6.68875L14.0787 6.24075L14.5067 5.04175L14.6077 5.15277ZM12.9467 3.48175C13.3387 3.83875 13.7557 4.25476 14.1477 4.67676L14.1837 4.71976L13.7917 5.83975L12.6337 3.19476L12.9467 3.48175ZM12.1017 2.94077L13.5937 6.32276L12.1017 7.36878L10.6087 6.32276L12.1017 2.94077ZM10.0557 4.67676C10.4507 4.25476 10.8647 3.83875 11.2597 3.48175L11.5727 3.19476L10.4117 5.83975L10.0197 4.71976L10.0557 4.67676ZM8.58872 6.33377C8.93672 5.91177 9.26471 5.51477 9.59471 5.15277L9.69973 5.03876L10.1017 6.24075L8.29372 6.69177L8.58872 6.33377ZM10.1237 6.64575L9.62772 9.06876L7.77172 10.2538L8.24672 7.09677L10.1237 6.64575ZM6.47773 9.51276C6.80473 8.87176 7.20372 8.25278 7.58472 7.68378L7.81172 7.34677L7.35872 10.3068L6.44171 9.57675L6.47773 9.51276ZM5.45272 12.6728C5.54272 11.8318 5.80171 10.9518 6.22171 10.0568L6.26873 9.95276L7.23572 10.7078L5.42072 12.9768L5.45272 12.6728ZM5.87372 16.6678C5.63272 15.9268 5.48172 15.0958 5.40572 14.1258L5.38472 13.8358L7.20072 16.1088L5.90572 16.7678L5.87372 16.6678ZM6.75472 18.5248L6.63971 18.3278C6.40571 17.9198 6.22971 17.5588 6.08171 17.1898L6.04972 17.1148L7.21472 16.5168L6.75472 18.5248ZM7.08872 18.8828L7.64272 16.4458L9.27472 17.2298L9.85771 19.1018L7.08872 18.8828ZM9.29271 20.7698L9.20671 20.7268C8.57371 20.4038 7.98372 19.9608 7.50272 19.4448L7.34372 19.2768L9.83972 19.4878L9.29271 20.7698ZM11.4287 21.3418C10.8607 21.2988 10.2707 21.1628 9.72072 20.9558L9.63472 20.9198L10.1627 19.6708L11.6487 21.3598L11.4287 21.3418ZM10.4367 19.3768L12.1017 18.5898L13.7657 19.3768L12.1017 21.2778L10.4367 19.3768ZM14.4817 20.9558C13.9247 21.1668 13.3417 21.2988 12.7517 21.3418L12.5327 21.3598L14.0147 19.6708L14.5717 20.9198L14.4817 20.9558ZM16.7467 19.4488C16.2297 19.9788 15.6467 20.4078 15.0207 20.7268L14.9347 20.7698L14.3887 19.4878L16.9127 19.2768L16.7467 19.4488ZM14.3707 19.1048L14.9747 17.2078L16.5597 16.4418L17.0887 18.8828L14.3707 19.1048ZM18.1247 17.1688C17.9557 17.6158 17.7647 18.0028 17.5387 18.3538L17.4197 18.5398L16.9917 16.4987L18.1527 17.0938L18.1247 17.1688ZM18.3327 16.6458L18.3007 16.7458L17.0027 16.0838L18.8107 13.8258L18.7967 14.1048C18.7497 14.9958 18.5957 15.8518 18.3327 16.6458Z" fill="black" fill-opacity="0.2"/>
<path d="M18.7947 10.9958C18.5347 10.1888 18.1567 9.41376 17.7327 8.68176C17.3297 7.98076 16.8627 7.28277 16.2977 6.55277C15.8377 5.94777 15.3157 5.33578 14.7587 4.73078C14.3237 4.25778 13.8597 3.78877 13.3887 3.33777C13.0897 3.05177 12.8907 2.86777 12.5067 2.52777C12.4597 2.48877 12.2807 2.33277 12.2237 2.28977C12.0657 2.17877 11.9177 2.28976 11.7237 2.45776L11.6917 2.48575C11.5587 2.60075 11.4287 2.71877 11.2997 2.83377C10.9187 3.18077 10.5337 3.55276 10.1527 3.93576C9.64871 4.44776 9.16672 4.97077 8.71772 5.49677C8.17072 6.13677 7.67472 6.77778 7.24372 7.40378C6.73272 8.14878 6.31973 8.84978 5.97773 9.55878C5.23873 11.0918 4.89372 12.6968 5.02872 14.3948C5.12272 15.5778 5.39172 16.7548 5.90972 17.8278C6.55172 19.1578 7.56573 20.2618 8.87873 20.9558C9.86873 21.4788 10.9807 21.7498 12.1017 21.7498C13.6647 21.7498 15.2067 21.2198 16.4157 20.2288C17.5727 19.2818 18.3547 17.9468 18.7727 16.5268C19.2547 14.8878 19.3557 13.0757 18.9177 11.4167C18.8807 11.2757 18.8387 11.1358 18.7947 10.9958ZM17.9837 10.0568C18.3727 10.8868 18.6317 11.7428 18.7497 12.6018L18.7967 12.9518L17.1387 10.6898L17.9297 9.94177L17.9837 10.0568ZM12.1017 18.1568L9.60971 16.9498L8.57772 13.5358L9.97573 9.31876L12.1017 7.82276L14.2267 9.31876L15.6717 13.7148L14.6397 16.9288L12.1017 18.1568ZM14.4857 17.4368L13.9497 19.0618L12.5397 18.3708L14.4857 17.4368ZM11.6627 18.3708L10.2527 19.0618L9.77172 17.4618L11.6627 18.3708ZM8.14572 13.5138L7.41973 15.7478L5.54271 13.3998L7.39772 11.0728L8.14572 13.5138ZM7.71472 10.7758L9.43672 9.65576L8.37271 12.8838L7.71472 10.7758ZM8.35472 14.1838L9.11672 16.7178L7.73572 16.0588L8.35472 14.1838ZM10.1057 8.76776L10.5227 6.72376L11.7737 7.59778L10.1057 8.76776ZM12.4497 7.57276L13.7047 6.70276L14.1217 8.74277L12.4497 7.57276ZM14.7727 9.62375L16.6497 10.7508L15.8987 13.0598L14.7727 9.62375ZM15.9237 14.3478L16.4707 16.0588L15.1507 16.7028L15.9237 14.3478ZM16.1037 13.6927L16.9487 11.0908L18.6347 13.4028L16.7617 15.7478L16.1037 13.6927ZM16.6647 7.74777C17.1137 8.39577 17.4627 8.97178 17.7287 9.51578L17.7577 9.57376L16.9917 10.2928L16.4167 7.39377L16.6647 7.74777ZM16.6037 10.2748L14.5757 9.07178L14.0787 6.64575L15.9527 7.09677L16.6037 10.2748ZM14.6077 5.15277C15.0497 5.63577 15.4207 6.07277 15.7407 6.48477L15.8987 6.68875L14.0787 6.24075L14.5067 5.04175L14.6077 5.15277ZM12.9467 3.48175C13.3387 3.83875 13.7557 4.25476 14.1477 4.67676L14.1837 4.71976L13.7917 5.83975L12.6337 3.19476L12.9467 3.48175ZM12.1017 2.94077L13.5937 6.32276L12.1017 7.36878L10.6087 6.32276L12.1017 2.94077ZM10.0557 4.67676C10.4507 4.25476 10.8647 3.83875 11.2597 3.48175L11.5727 3.19476L10.4117 5.83975L10.0197 4.71976L10.0557 4.67676ZM8.58872 6.33377C8.93672 5.91177 9.26471 5.51477 9.59471 5.15277L9.69973 5.03876L10.1017 6.24075L8.29372 6.69177L8.58872 6.33377ZM10.1237 6.64575L9.62772 9.06876L7.77172 10.2538L8.24672 7.09677L10.1237 6.64575ZM6.47773 9.51276C6.80473 8.87176 7.20372 8.25278 7.58472 7.68378L7.81172 7.34677L7.35872 10.3068L6.44171 9.57675L6.47773 9.51276ZM5.45272 12.6728C5.54272 11.8318 5.80171 10.9518 6.22171 10.0568L6.26873 9.95276L7.23572 10.7078L5.42072 12.9768L5.45272 12.6728ZM5.87372 16.6678C5.63272 15.9268 5.48172 15.0958 5.40572 14.1258L5.38472 13.8358L7.20072 16.1088L5.90572 16.7678L5.87372 16.6678ZM6.75472 18.5248L6.63971 18.3278C6.40571 17.9198 6.22971 17.5588 6.08171 17.1898L6.04972 17.1148L7.21472 16.5168L6.75472 18.5248ZM7.08872 18.8828L7.64272 16.4458L9.27472 17.2298L9.85771 19.1018L7.08872 18.8828ZM9.29271 20.7698L9.20671 20.7268C8.57371 20.4038 7.98372 19.9608 7.50272 19.4448L7.34372 19.2768L9.83972 19.4878L9.29271 20.7698ZM11.4287 21.3418C10.8607 21.2988 10.2707 21.1628 9.72072 20.9558L9.63472 20.9198L10.1627 19.6708L11.6487 21.3598L11.4287 21.3418ZM10.4367 19.3768L12.1017 18.5898L13.7657 19.3768L12.1017 21.2778L10.4367 19.3768ZM14.4817 20.9558C13.9247 21.1668 13.3417 21.2988 12.7517 21.3418L12.5327 21.3598L14.0147 19.6708L14.5717 20.9198L14.4817 20.9558ZM16.7467 19.4488C16.2297 19.9788 15.6467 20.4078 15.0207 20.7268L14.9347 20.7698L14.3887 19.4878L16.9127 19.2768L16.7467 19.4488ZM14.3707 19.1048L14.9747 17.2078L16.5597 16.4418L17.0887 18.8828L14.3707 19.1048ZM18.1247 17.1688C17.9557 17.6158 17.7647 18.0028 17.5387 18.3538L17.4197 18.5398L16.9917 16.4987L18.1527 17.0938L18.1247 17.1688ZM18.3327 16.6458L18.3007 16.7458L17.0027 16.0838L18.8107 13.8258L18.7967 14.1048C18.7497 14.9958 18.5957 15.8518 18.3327 16.6458Z" stroke="#333335" stroke-width="0.22"/>
<path d="M18.7947 10.9958C18.5347 10.1888 18.1567 9.41376 17.7327 8.68176C17.3297 7.98076 16.8627 7.28277 16.2977 6.55277C15.8377 5.94777 15.3157 5.33578 14.7587 4.73078C14.3237 4.25778 13.8597 3.78877 13.3887 3.33777C13.0897 3.05177 12.8907 2.86777 12.5067 2.52777C12.4597 2.48877 12.2807 2.33277 12.2237 2.28977C12.0657 2.17877 11.9177 2.28976 11.7237 2.45776L11.6917 2.48575C11.5587 2.60075 11.4287 2.71877 11.2997 2.83377C10.9187 3.18077 10.5337 3.55276 10.1527 3.93576C9.64871 4.44776 9.16672 4.97077 8.71772 5.49677C8.17072 6.13677 7.67472 6.77778 7.24372 7.40378C6.73272 8.14878 6.31973 8.84978 5.97773 9.55878C5.23873 11.0918 4.89372 12.6968 5.02872 14.3948C5.12272 15.5778 5.39172 16.7548 5.90972 17.8278C6.55172 19.1578 7.56573 20.2618 8.87873 20.9558C9.86873 21.4788 10.9807 21.7498 12.1017 21.7498C13.6647 21.7498 15.2067 21.2198 16.4157 20.2288C17.5727 19.2818 18.3547 17.9468 18.7727 16.5268C19.2547 14.8878 19.3557 13.0757 18.9177 11.4167C18.8807 11.2757 18.8387 11.1358 18.7947 10.9958ZM17.9837 10.0568C18.3727 10.8868 18.6317 11.7428 18.7497 12.6018L18.7967 12.9518L17.1387 10.6898L17.9297 9.94177L17.9837 10.0568ZM12.1017 18.1568L9.60971 16.9498L8.57772 13.5358L9.97573 9.31876L12.1017 7.82276L14.2267 9.31876L15.6717 13.7148L14.6397 16.9288L12.1017 18.1568ZM14.4857 17.4368L13.9497 19.0618L12.5397 18.3708L14.4857 17.4368ZM11.6627 18.3708L10.2527 19.0618L9.77172 17.4618L11.6627 18.3708ZM8.14572 13.5138L7.41973 15.7478L5.54271 13.3998L7.39772 11.0728L8.14572 13.5138ZM7.71472 10.7758L9.43672 9.65576L8.37271 12.8838L7.71472 10.7758ZM8.35472 14.1838L9.11672 16.7178L7.73572 16.0588L8.35472 14.1838ZM10.1057 8.76776L10.5227 6.72376L11.7737 7.59778L10.1057 8.76776ZM12.4497 7.57276L13.7047 6.70276L14.1217 8.74277L12.4497 7.57276ZM14.7727 9.62375L16.6497 10.7508L15.8987 13.0598L14.7727 9.62375ZM15.9237 14.3478L16.4707 16.0588L15.1507 16.7028L15.9237 14.3478ZM16.1037 13.6927L16.9487 11.0908L18.6347 13.4028L16.7617 15.7478L16.1037 13.6927ZM16.6647 7.74777C17.1137 8.39577 17.4627 8.97178 17.7287 9.51578L17.7577 9.57376L16.9917 10.2928L16.4167 7.39377L16.6647 7.74777ZM16.6037 10.2748L14.5757 9.07178L14.0787 6.64575L15.9527 7.09677L16.6037 10.2748ZM14.6077 5.15277C15.0497 5.63577 15.4207 6.07277 15.7407 6.48477L15.8987 6.68875L14.0787 6.24075L14.5067 5.04175L14.6077 5.15277ZM12.9467 3.48175C13.3387 3.83875 13.7557 4.25476 14.1477 4.67676L14.1837 4.71976L13.7917 5.83975L12.6337 3.19476L12.9467 3.48175ZM12.1017 2.94077L13.5937 6.32276L12.1017 7.36878L10.6087 6.32276L12.1017 2.94077ZM10.0557 4.67676C10.4507 4.25476 10.8647 3.83875 11.2597 3.48175L11.5727 3.19476L10.4117 5.83975L10.0197 4.71976L10.0557 4.67676ZM8.58872 6.33377C8.93672 5.91177 9.26471 5.51477 9.59471 5.15277L9.69973 5.03876L10.1017 6.24075L8.29372 6.69177L8.58872 6.33377ZM10.1237 6.64575L9.62772 9.06876L7.77172 10.2538L8.24672 7.09677L10.1237 6.64575ZM6.47773 9.51276C6.80473 8.87176 7.20372 8.25278 7.58472 7.68378L7.81172 7.34677L7.35872 10.3068L6.44171 9.57675L6.47773 9.51276ZM5.45272 12.6728C5.54272 11.8318 5.80171 10.9518 6.22171 10.0568L6.26873 9.95276L7.23572 10.7078L5.42072 12.9768L5.45272 12.6728ZM5.87372 16.6678C5.63272 15.9268 5.48172 15.0958 5.40572 14.1258L5.38472 13.8358L7.20072 16.1088L5.90572 16.7678L5.87372 16.6678ZM6.75472 18.5248L6.63971 18.3278C6.40571 17.9198 6.22971 17.5588 6.08171 17.1898L6.04972 17.1148L7.21472 16.5168L6.75472 18.5248ZM7.08872 18.8828L7.64272 16.4458L9.27472 17.2298L9.85771 19.1018L7.08872 18.8828ZM9.29271 20.7698L9.20671 20.7268C8.57371 20.4038 7.98372 19.9608 7.50272 19.4448L7.34372 19.2768L9.83972 19.4878L9.29271 20.7698ZM11.4287 21.3418C10.8607 21.2988 10.2707 21.1628 9.72072 20.9558L9.63472 20.9198L10.1627 19.6708L11.6487 21.3598L11.4287 21.3418ZM10.4367 19.3768L12.1017 18.5898L13.7657 19.3768L12.1017 21.2778L10.4367 19.3768ZM14.4817 20.9558C13.9247 21.1668 13.3417 21.2988 12.7517 21.3418L12.5327 21.3598L14.0147 19.6708L14.5717 20.9198L14.4817 20.9558ZM16.7467 19.4488C16.2297 19.9788 15.6467 20.4078 15.0207 20.7268L14.9347 20.7698L14.3887 19.4878L16.9127 19.2768L16.7467 19.4488ZM14.3707 19.1048L14.9747 17.2078L16.5597 16.4418L17.0887 18.8828L14.3707 19.1048ZM18.1247 17.1688C17.9557 17.6158 17.7647 18.0028 17.5387 18.3538L17.4197 18.5398L16.9917 16.4987L18.1527 17.0938L18.1247 17.1688ZM18.3327 16.6458L18.3007 16.7458L17.0027 16.0838L18.8107 13.8258L18.7967 14.1048C18.7497 14.9958 18.5957 15.8518 18.3327 16.6458Z" stroke="black" stroke-opacity="0.2" stroke-width="0.22"/>
<path d="M18.7947 10.9958C18.5347 10.1888 18.1567 9.41376 17.7327 8.68176C17.3297 7.98076 16.8627 7.28277 16.2977 6.55277C15.8377 5.94777 15.3157 5.33578 14.7587 4.73078C14.3237 4.25778 13.8597 3.78877 13.3887 3.33777C13.0897 3.05177 12.8907 2.86777 12.5067 2.52777C12.4597 2.48877 12.2807 2.33277 12.2237 2.28977C12.0657 2.17877 11.9177 2.28976 11.7237 2.45776L11.6917 2.48575C11.5587 2.60075 11.4287 2.71877 11.2997 2.83377C10.9187 3.18077 10.5337 3.55276 10.1527 3.93576C9.64871 4.44776 9.16672 4.97077 8.71772 5.49677C8.17072 6.13677 7.67472 6.77778 7.24372 7.40378C6.73272 8.14878 6.31973 8.84978 5.97773 9.55878C5.23873 11.0918 4.89372 12.6968 5.02872 14.3948C5.12272 15.5778 5.39172 16.7548 5.90972 17.8278C6.55172 19.1578 7.56573 20.2618 8.87873 20.9558C9.86873 21.4788 10.9807 21.7498 12.1017 21.7498C13.6647 21.7498 15.2067 21.2198 16.4157 20.2288C17.5727 19.2818 18.3547 17.9468 18.7727 16.5268C19.2547 14.8878 19.3557 13.0757 18.9177 11.4167C18.8807 11.2757 18.8387 11.1358 18.7947 10.9958ZM17.9837 10.0568C18.3727 10.8868 18.6317 11.7428 18.7497 12.6018L18.7967 12.9518L17.1387 10.6898L17.9297 9.94177L17.9837 10.0568ZM12.1017 18.1568L9.60971 16.9498L8.57772 13.5358L9.97573 9.31876L12.1017 7.82276L14.2267 9.31876L15.6717 13.7148L14.6397 16.9288L12.1017 18.1568ZM14.4857 17.4368L13.9497 19.0618L12.5397 18.3708L14.4857 17.4368ZM11.6627 18.3708L10.2527 19.0618L9.77172 17.4618L11.6627 18.3708ZM8.14572 13.5138L7.41973 15.7478L5.54271 13.3998L7.39772 11.0728L8.14572 13.5138ZM7.71472 10.7758L9.43672 9.65576L8.37271 12.8838L7.71472 10.7758ZM8.35472 14.1838L9.11672 16.7178L7.73572 16.0588L8.35472 14.1838ZM10.1057 8.76776L10.5227 6.72376L11.7737 7.59778L10.1057 8.76776ZM12.4497 7.57276L13.7047 6.70276L14.1217 8.74277L12.4497 7.57276ZM14.7727 9.62375L16.6497 10.7508L15.8987 13.0598L14.7727 9.62375ZM15.9237 14.3478L16.4707 16.0588L15.1507 16.7028L15.9237 14.3478ZM16.1037 13.6927L16.9487 11.0908L18.6347 13.4028L16.7617 15.7478L16.1037 13.6927ZM16.6647 7.74777C17.1137 8.39577 17.4627 8.97178 17.7287 9.51578L17.7577 9.57376L16.9917 10.2928L16.4167 7.39377L16.6647 7.74777ZM16.6037 10.2748L14.5757 9.07178L14.0787 6.64575L15.9527 7.09677L16.6037 10.2748ZM14.6077 5.15277C15.0497 5.63577 15.4207 6.07277 15.7407 6.48477L15.8987 6.68875L14.0787 6.24075L14.5067 5.04175L14.6077 5.15277ZM12.9467 3.48175C13.3387 3.83875 13.7557 4.25476 14.1477 4.67676L14.1837 4.71976L13.7917 5.83975L12.6337 3.19476L12.9467 3.48175ZM12.1017 2.94077L13.5937 6.32276L12.1017 7.36878L10.6087 6.32276L12.1017 2.94077ZM10.0557 4.67676C10.4507 4.25476 10.8647 3.83875 11.2597 3.48175L11.5727 3.19476L10.4117 5.83975L10.0197 4.71976L10.0557 4.67676ZM8.58872 6.33377C8.93672 5.91177 9.26471 5.51477 9.59471 5.15277L9.69973 5.03876L10.1017 6.24075L8.29372 6.69177L8.58872 6.33377ZM10.1237 6.64575L9.62772 9.06876L7.77172 10.2538L8.24672 7.09677L10.1237 6.64575ZM6.47773 9.51276C6.80473 8.87176 7.20372 8.25278 7.58472 7.68378L7.81172 7.34677L7.35872 10.3068L6.44171 9.57675L6.47773 9.51276ZM5.45272 12.6728C5.54272 11.8318 5.80171 10.9518 6.22171 10.0568L6.26873 9.95276L7.23572 10.7078L5.42072 12.9768L5.45272 12.6728ZM5.87372 16.6678C5.63272 15.9268 5.48172 15.0958 5.40572 14.1258L5.38472 13.8358L7.20072 16.1088L5.90572 16.7678L5.87372 16.6678ZM6.75472 18.5248L6.63971 18.3278C6.40571 17.9198 6.22971 17.5588 6.08171 17.1898L6.04972 17.1148L7.21472 16.5168L6.75472 18.5248ZM7.08872 18.8828L7.64272 16.4458L9.27472 17.2298L9.85771 19.1018L7.08872 18.8828ZM9.29271 20.7698L9.20671 20.7268C8.57371 20.4038 7.98372 19.9608 7.50272 19.4448L7.34372 19.2768L9.83972 19.4878L9.29271 20.7698ZM11.4287 21.3418C10.8607 21.2988 10.2707 21.1628 9.72072 20.9558L9.63472 20.9198L10.1627 19.6708L11.6487 21.3598L11.4287 21.3418ZM10.4367 19.3768L12.1017 18.5898L13.7657 19.3768L12.1017 21.2778L10.4367 19.3768ZM14.4817 20.9558C13.9247 21.1668 13.3417 21.2988 12.7517 21.3418L12.5327 21.3598L14.0147 19.6708L14.5717 20.9198L14.4817 20.9558ZM16.7467 19.4488C16.2297 19.9788 15.6467 20.4078 15.0207 20.7268L14.9347 20.7698L14.3887 19.4878L16.9127 19.2768L16.7467 19.4488ZM14.3707 19.1048L14.9747 17.2078L16.5597 16.4418L17.0887 18.8828L14.3707 19.1048ZM18.1247 17.1688C17.9557 17.6158 17.7647 18.0028 17.5387 18.3538L17.4197 18.5398L16.9917 16.4987L18.1527 17.0938L18.1247 17.1688ZM18.3327 16.6458L18.3007 16.7458L17.0027 16.0838L18.8107 13.8258L18.7967 14.1048C18.7497 14.9958 18.5957 15.8518 18.3327 16.6458Z" stroke="black" stroke-opacity="0.2" stroke-width="0.22"/>
<path d="M18.7947 10.9958C18.5347 10.1888 18.1567 9.41376 17.7327 8.68176C17.3297 7.98076 16.8627 7.28277 16.2977 6.55277C15.8377 5.94777 15.3157 5.33578 14.7587 4.73078C14.3237 4.25778 13.8597 3.78877 13.3887 3.33777C13.0897 3.05177 12.8907 2.86777 12.5067 2.52777C12.4597 2.48877 12.2807 2.33277 12.2237 2.28977C12.0657 2.17877 11.9177 2.28976 11.7237 2.45776L11.6917 2.48575C11.5587 2.60075 11.4287 2.71877 11.2997 2.83377C10.9187 3.18077 10.5337 3.55276 10.1527 3.93576C9.64871 4.44776 9.16672 4.97077 8.71772 5.49677C8.17072 6.13677 7.67472 6.77778 7.24372 7.40378C6.73272 8.14878 6.31973 8.84978 5.97773 9.55878C5.23873 11.0918 4.89372 12.6968 5.02872 14.3948C5.12272 15.5778 5.39172 16.7548 5.90972 17.8278C6.55172 19.1578 7.56573 20.2618 8.87873 20.9558C9.86873 21.4788 10.9807 21.7498 12.1017 21.7498C13.6647 21.7498 15.2067 21.2198 16.4157 20.2288C17.5727 19.2818 18.3547 17.9468 18.7727 16.5268C19.2547 14.8878 19.3557 13.0757 18.9177 11.4167C18.8807 11.2757 18.8387 11.1358 18.7947 10.9958ZM17.9837 10.0568C18.3727 10.8868 18.6317 11.7428 18.7497 12.6018L18.7967 12.9518L17.1387 10.6898L17.9297 9.94177L17.9837 10.0568ZM12.1017 18.1568L9.60971 16.9498L8.57772 13.5358L9.97573 9.31876L12.1017 7.82276L14.2267 9.31876L15.6717 13.7148L14.6397 16.9288L12.1017 18.1568ZM14.4857 17.4368L13.9497 19.0618L12.5397 18.3708L14.4857 17.4368ZM11.6627 18.3708L10.2527 19.0618L9.77172 17.4618L11.6627 18.3708ZM8.14572 13.5138L7.41973 15.7478L5.54271 13.3998L7.39772 11.0728L8.14572 13.5138ZM7.71472 10.7758L9.43672 9.65576L8.37271 12.8838L7.71472 10.7758ZM8.35472 14.1838L9.11672 16.7178L7.73572 16.0588L8.35472 14.1838ZM10.1057 8.76776L10.5227 6.72376L11.7737 7.59778L10.1057 8.76776ZM12.4497 7.57276L13.7047 6.70276L14.1217 8.74277L12.4497 7.57276ZM14.7727 9.62375L16.6497 10.7508L15.8987 13.0598L14.7727 9.62375ZM15.9237 14.3478L16.4707 16.0588L15.1507 16.7028L15.9237 14.3478ZM16.1037 13.6927L16.9487 11.0908L18.6347 13.4028L16.7617 15.7478L16.1037 13.6927ZM16.6647 7.74777C17.1137 8.39577 17.4627 8.97178 17.7287 9.51578L17.7577 9.57376L16.9917 10.2928L16.4167 7.39377L16.6647 7.74777ZM16.6037 10.2748L14.5757 9.07178L14.0787 6.64575L15.9527 7.09677L16.6037 10.2748ZM14.6077 5.15277C15.0497 5.63577 15.4207 6.07277 15.7407 6.48477L15.8987 6.68875L14.0787 6.24075L14.5067 5.04175L14.6077 5.15277ZM12.9467 3.48175C13.3387 3.83875 13.7557 4.25476 14.1477 4.67676L14.1837 4.71976L13.7917 5.83975L12.6337 3.19476L12.9467 3.48175ZM12.1017 2.94077L13.5937 6.32276L12.1017 7.36878L10.6087 6.32276L12.1017 2.94077ZM10.0557 4.67676C10.4507 4.25476 10.8647 3.83875 11.2597 3.48175L11.5727 3.19476L10.4117 5.83975L10.0197 4.71976L10.0557 4.67676ZM8.58872 6.33377C8.93672 5.91177 9.26471 5.51477 9.59471 5.15277L9.69973 5.03876L10.1017 6.24075L8.29372 6.69177L8.58872 6.33377ZM10.1237 6.64575L9.62772 9.06876L7.77172 10.2538L8.24672 7.09677L10.1237 6.64575ZM6.47773 9.51276C6.80473 8.87176 7.20372 8.25278 7.58472 7.68378L7.81172 7.34677L7.35872 10.3068L6.44171 9.57675L6.47773 9.51276ZM5.45272 12.6728C5.54272 11.8318 5.80171 10.9518 6.22171 10.0568L6.26873 9.95276L7.23572 10.7078L5.42072 12.9768L5.45272 12.6728ZM5.87372 16.6678C5.63272 15.9268 5.48172 15.0958 5.40572 14.1258L5.38472 13.8358L7.20072 16.1088L5.90572 16.7678L5.87372 16.6678ZM6.75472 18.5248L6.63971 18.3278C6.40571 17.9198 6.22971 17.5588 6.08171 17.1898L6.04972 17.1148L7.21472 16.5168L6.75472 18.5248ZM7.08872 18.8828L7.64272 16.4458L9.27472 17.2298L9.85771 19.1018L7.08872 18.8828ZM9.29271 20.7698L9.20671 20.7268C8.57371 20.4038 7.98372 19.9608 7.50272 19.4448L7.34372 19.2768L9.83972 19.4878L9.29271 20.7698ZM11.4287 21.3418C10.8607 21.2988 10.2707 21.1628 9.72072 20.9558L9.63472 20.9198L10.1627 19.6708L11.6487 21.3598L11.4287 21.3418ZM10.4367 19.3768L12.1017 18.5898L13.7657 19.3768L12.1017 21.2778L10.4367 19.3768ZM14.4817 20.9558C13.9247 21.1668 13.3417 21.2988 12.7517 21.3418L12.5327 21.3598L14.0147 19.6708L14.5717 20.9198L14.4817 20.9558ZM16.7467 19.4488C16.2297 19.9788 15.6467 20.4078 15.0207 20.7268L14.9347 20.7698L14.3887 19.4878L16.9127 19.2768L16.7467 19.4488ZM14.3707 19.1048L14.9747 17.2078L16.5597 16.4418L17.0887 18.8828L14.3707 19.1048ZM18.1247 17.1688C17.9557 17.6158 17.7647 18.0028 17.5387 18.3538L17.4197 18.5398L16.9917 16.4987L18.1527 17.0938L18.1247 17.1688ZM18.3327 16.6458L18.3007 16.7458L17.0027 16.0838L18.8107 13.8258L18.7967 14.1048C18.7497 14.9958 18.5957 15.8518 18.3327 16.6458Z" stroke="black" stroke-opacity="0.2" stroke-width="0.22"/>
<path d="M18.7947 10.9958C18.5347 10.1888 18.1567 9.41376 17.7327 8.68176C17.3297 7.98076 16.8627 7.28277 16.2977 6.55277C15.8377 5.94777 15.3157 5.33578 14.7587 4.73078C14.3237 4.25778 13.8597 3.78877 13.3887 3.33777C13.0897 3.05177 12.8907 2.86777 12.5067 2.52777C12.4597 2.48877 12.2807 2.33277 12.2237 2.28977C12.0657 2.17877 11.9177 2.28976 11.7237 2.45776L11.6917 2.48575C11.5587 2.60075 11.4287 2.71877 11.2997 2.83377C10.9187 3.18077 10.5337 3.55276 10.1527 3.93576C9.64871 4.44776 9.16672 4.97077 8.71772 5.49677C8.17072 6.13677 7.67472 6.77778 7.24372 7.40378C6.73272 8.14878 6.31973 8.84978 5.97773 9.55878C5.23873 11.0918 4.89372 12.6968 5.02872 14.3948C5.12272 15.5778 5.39172 16.7548 5.90972 17.8278C6.55172 19.1578 7.56573 20.2618 8.87873 20.9558C9.86873 21.4788 10.9807 21.7498 12.1017 21.7498C13.6647 21.7498 15.2067 21.2198 16.4157 20.2288C17.5727 19.2818 18.3547 17.9468 18.7727 16.5268C19.2547 14.8878 19.3557 13.0757 18.9177 11.4167C18.8807 11.2757 18.8387 11.1358 18.7947 10.9958ZM17.9837 10.0568C18.3727 10.8868 18.6317 11.7428 18.7497 12.6018L18.7967 12.9518L17.1387 10.6898L17.9297 9.94177L17.9837 10.0568ZM12.1017 18.1568L9.60971 16.9498L8.57772 13.5358L9.97573 9.31876L12.1017 7.82276L14.2267 9.31876L15.6717 13.7148L14.6397 16.9288L12.1017 18.1568ZM14.4857 17.4368L13.9497 19.0618L12.5397 18.3708L14.4857 17.4368ZM11.6627 18.3708L10.2527 19.0618L9.77172 17.4618L11.6627 18.3708ZM8.14572 13.5138L7.41973 15.7478L5.54271 13.3998L7.39772 11.0728L8.14572 13.5138ZM7.71472 10.7758L9.43672 9.65576L8.37271 12.8838L7.71472 10.7758ZM8.35472 14.1838L9.11672 16.7178L7.73572 16.0588L8.35472 14.1838ZM10.1057 8.76776L10.5227 6.72376L11.7737 7.59778L10.1057 8.76776ZM12.4497 7.57276L13.7047 6.70276L14.1217 8.74277L12.4497 7.57276ZM14.7727 9.62375L16.6497 10.7508L15.8987 13.0598L14.7727 9.62375ZM15.9237 14.3478L16.4707 16.0588L15.1507 16.7028L15.9237 14.3478ZM16.1037 13.6927L16.9487 11.0908L18.6347 13.4028L16.7617 15.7478L16.1037 13.6927ZM16.6647 7.74777C17.1137 8.39577 17.4627 8.97178 17.7287 9.51578L17.7577 9.57376L16.9917 10.2928L16.4167 7.39377L16.6647 7.74777ZM16.6037 10.2748L14.5757 9.07178L14.0787 6.64575L15.9527 7.09677L16.6037 10.2748ZM14.6077 5.15277C15.0497 5.63577 15.4207 6.07277 15.7407 6.48477L15.8987 6.68875L14.0787 6.24075L14.5067 5.04175L14.6077 5.15277ZM12.9467 3.48175C13.3387 3.83875 13.7557 4.25476 14.1477 4.67676L14.1837 4.71976L13.7917 5.83975L12.6337 3.19476L12.9467 3.48175ZM12.1017 2.94077L13.5937 6.32276L12.1017 7.36878L10.6087 6.32276L12.1017 2.94077ZM10.0557 4.67676C10.4507 4.25476 10.8647 3.83875 11.2597 3.48175L11.5727 3.19476L10.4117 5.83975L10.0197 4.71976L10.0557 4.67676ZM8.58872 6.33377C8.93672 5.91177 9.26471 5.51477 9.59471 5.15277L9.69973 5.03876L10.1017 6.24075L8.29372 6.69177L8.58872 6.33377ZM10.1237 6.64575L9.62772 9.06876L7.77172 10.2538L8.24672 7.09677L10.1237 6.64575ZM6.47773 9.51276C6.80473 8.87176 7.20372 8.25278 7.58472 7.68378L7.81172 7.34677L7.35872 10.3068L6.44171 9.57675L6.47773 9.51276ZM5.45272 12.6728C5.54272 11.8318 5.80171 10.9518 6.22171 10.0568L6.26873 9.95276L7.23572 10.7078L5.42072 12.9768L5.45272 12.6728ZM5.87372 16.6678C5.63272 15.9268 5.48172 15.0958 5.40572 14.1258L5.38472 13.8358L7.20072 16.1088L5.90572 16.7678L5.87372 16.6678ZM6.75472 18.5248L6.63971 18.3278C6.40571 17.9198 6.22971 17.5588 6.08171 17.1898L6.04972 17.1148L7.21472 16.5168L6.75472 18.5248ZM7.08872 18.8828L7.64272 16.4458L9.27472 17.2298L9.85771 19.1018L7.08872 18.8828ZM9.29271 20.7698L9.20671 20.7268C8.57371 20.4038 7.98372 19.9608 7.50272 19.4448L7.34372 19.2768L9.83972 19.4878L9.29271 20.7698ZM11.4287 21.3418C10.8607 21.2988 10.2707 21.1628 9.72072 20.9558L9.63472 20.9198L10.1627 19.6708L11.6487 21.3598L11.4287 21.3418ZM10.4367 19.3768L12.1017 18.5898L13.7657 19.3768L12.1017 21.2778L10.4367 19.3768ZM14.4817 20.9558C13.9247 21.1668 13.3417 21.2988 12.7517 21.3418L12.5327 21.3598L14.0147 19.6708L14.5717 20.9198L14.4817 20.9558ZM16.7467 19.4488C16.2297 19.9788 15.6467 20.4078 15.0207 20.7268L14.9347 20.7698L14.3887 19.4878L16.9127 19.2768L16.7467 19.4488ZM14.3707 19.1048L14.9747 17.2078L16.5597 16.4418L17.0887 18.8828L14.3707 19.1048ZM18.1247 17.1688C17.9557 17.6158 17.7647 18.0028 17.5387 18.3538L17.4197 18.5398L16.9917 16.4987L18.1527 17.0938L18.1247 17.1688ZM18.3327 16.6458L18.3007 16.7458L17.0027 16.0838L18.8107 13.8258L18.7967 14.1048C18.7497 14.9958 18.5957 15.8518 18.3327 16.6458Z" stroke="black" stroke-opacity="0.2" stroke-width="0.22"/>
<path d="M18.7947 10.9958C18.5347 10.1888 18.1567 9.41376 17.7327 8.68176C17.3297 7.98076 16.8627 7.28277 16.2977 6.55277C15.8377 5.94777 15.3157 5.33578 14.7587 4.73078C14.3237 4.25778 13.8597 3.78877 13.3887 3.33777C13.0897 3.05177 12.8907 2.86777 12.5067 2.52777C12.4597 2.48877 12.2807 2.33277 12.2237 2.28977C12.0657 2.17877 11.9177 2.28976 11.7237 2.45776L11.6917 2.48575C11.5587 2.60075 11.4287 2.71877 11.2997 2.83377C10.9187 3.18077 10.5337 3.55276 10.1527 3.93576C9.64871 4.44776 9.16672 4.97077 8.71772 5.49677C8.17072 6.13677 7.67472 6.77778 7.24372 7.40378C6.73272 8.14878 6.31973 8.84978 5.97773 9.55878C5.23873 11.0918 4.89372 12.6968 5.02872 14.3948C5.12272 15.5778 5.39172 16.7548 5.90972 17.8278C6.55172 19.1578 7.56573 20.2618 8.87873 20.9558C9.86873 21.4788 10.9807 21.7498 12.1017 21.7498C13.6647 21.7498 15.2067 21.2198 16.4157 20.2288C17.5727 19.2818 18.3547 17.9468 18.7727 16.5268C19.2547 14.8878 19.3557 13.0757 18.9177 11.4167C18.8807 11.2757 18.8387 11.1358 18.7947 10.9958ZM17.9837 10.0568C18.3727 10.8868 18.6317 11.7428 18.7497 12.6018L18.7967 12.9518L17.1387 10.6898L17.9297 9.94177L17.9837 10.0568ZM12.1017 18.1568L9.60971 16.9498L8.57772 13.5358L9.97573 9.31876L12.1017 7.82276L14.2267 9.31876L15.6717 13.7148L14.6397 16.9288L12.1017 18.1568ZM14.4857 17.4368L13.9497 19.0618L12.5397 18.3708L14.4857 17.4368ZM11.6627 18.3708L10.2527 19.0618L9.77172 17.4618L11.6627 18.3708ZM8.14572 13.5138L7.41973 15.7478L5.54271 13.3998L7.39772 11.0728L8.14572 13.5138ZM7.71472 10.7758L9.43672 9.65576L8.37271 12.8838L7.71472 10.7758ZM8.35472 14.1838L9.11672 16.7178L7.73572 16.0588L8.35472 14.1838ZM10.1057 8.76776L10.5227 6.72376L11.7737 7.59778L10.1057 8.76776ZM12.4497 7.57276L13.7047 6.70276L14.1217 8.74277L12.4497 7.57276ZM14.7727 9.62375L16.6497 10.7508L15.8987 13.0598L14.7727 9.62375ZM15.9237 14.3478L16.4707 16.0588L15.1507 16.7028L15.9237 14.3478ZM16.1037 13.6927L16.9487 11.0908L18.6347 13.4028L16.7617 15.7478L16.1037 13.6927ZM16.6647 7.74777C17.1137 8.39577 17.4627 8.97178 17.7287 9.51578L17.7577 9.57376L16.9917 10.2928L16.4167 7.39377L16.6647 7.74777ZM16.6037 10.2748L14.5757 9.07178L14.0787 6.64575L15.9527 7.09677L16.6037 10.2748ZM14.6077 5.15277C15.0497 5.63577 15.4207 6.07277 15.7407 6.48477L15.8987 6.68875L14.0787 6.24075L14.5067 5.04175L14.6077 5.15277ZM12.9467 3.48175C13.3387 3.83875 13.7557 4.25476 14.1477 4.67676L14.1837 4.71976L13.7917 5.83975L12.6337 3.19476L12.9467 3.48175ZM12.1017 2.94077L13.5937 6.32276L12.1017 7.36878L10.6087 6.32276L12.1017 2.94077ZM10.0557 4.67676C10.4507 4.25476 10.8647 3.83875 11.2597 3.48175L11.5727 3.19476L10.4117 5.83975L10.0197 4.71976L10.0557 4.67676ZM8.58872 6.33377C8.93672 5.91177 9.26471 5.51477 9.59471 5.15277L9.69973 5.03876L10.1017 6.24075L8.29372 6.69177L8.58872 6.33377ZM10.1237 6.64575L9.62772 9.06876L7.77172 10.2538L8.24672 7.09677L10.1237 6.64575ZM6.47773 9.51276C6.80473 8.87176 7.20372 8.25278 7.58472 7.68378L7.81172 7.34677L7.35872 10.3068L6.44171 9.57675L6.47773 9.51276ZM5.45272 12.6728C5.54272 11.8318 5.80171 10.9518 6.22171 10.0568L6.26873 9.95276L7.23572 10.7078L5.42072 12.9768L5.45272 12.6728ZM5.87372 16.6678C5.63272 15.9268 5.48172 15.0958 5.40572 14.1258L5.38472 13.8358L7.20072 16.1088L5.90572 16.7678L5.87372 16.6678ZM6.75472 18.5248L6.63971 18.3278C6.40571 17.9198 6.22971 17.5588 6.08171 17.1898L6.04972 17.1148L7.21472 16.5168L6.75472 18.5248ZM7.08872 18.8828L7.64272 16.4458L9.27472 17.2298L9.85771 19.1018L7.08872 18.8828ZM9.29271 20.7698L9.20671 20.7268C8.57371 20.4038 7.98372 19.9608 7.50272 19.4448L7.34372 19.2768L9.83972 19.4878L9.29271 20.7698ZM11.4287 21.3418C10.8607 21.2988 10.2707 21.1628 9.72072 20.9558L9.63472 20.9198L10.1627 19.6708L11.6487 21.3598L11.4287 21.3418ZM10.4367 19.3768L12.1017 18.5898L13.7657 19.3768L12.1017 21.2778L10.4367 19.3768ZM14.4817 20.9558C13.9247 21.1668 13.3417 21.2988 12.7517 21.3418L12.5327 21.3598L14.0147 19.6708L14.5717 20.9198L14.4817 20.9558ZM16.7467 19.4488C16.2297 19.9788 15.6467 20.4078 15.0207 20.7268L14.9347 20.7698L14.3887 19.4878L16.9127 19.2768L16.7467 19.4488ZM14.3707 19.1048L14.9747 17.2078L16.5597 16.4418L17.0887 18.8828L14.3707 19.1048ZM18.1247 17.1688C17.9557 17.6158 17.7647 18.0028 17.5387 18.3538L17.4197 18.5398L16.9917 16.4987L18.1527 17.0938L18.1247 17.1688ZM18.3327 16.6458L18.3007 16.7458L17.0027 16.0838L18.8107 13.8258L18.7967 14.1048C18.7497 14.9958 18.5957 15.8518 18.3327 16.6458Z" stroke="black" stroke-opacity="0.2" stroke-width="0.22"/>
<path d="M18.7947 10.9958C18.5347 10.1888 18.1567 9.41376 17.7327 8.68176C17.3297 7.98076 16.8627 7.28277 16.2977 6.55277C15.8377 5.94777 15.3157 5.33578 14.7587 4.73078C14.3237 4.25778 13.8597 3.78877 13.3887 3.33777C13.0897 3.05177 12.8907 2.86777 12.5067 2.52777C12.4597 2.48877 12.2807 2.33277 12.2237 2.28977C12.0657 2.17877 11.9177 2.28976 11.7237 2.45776L11.6917 2.48575C11.5587 2.60075 11.4287 2.71877 11.2997 2.83377C10.9187 3.18077 10.5337 3.55276 10.1527 3.93576C9.64871 4.44776 9.16672 4.97077 8.71772 5.49677C8.17072 6.13677 7.67472 6.77778 7.24372 7.40378C6.73272 8.14878 6.31973 8.84978 5.97773 9.55878C5.23873 11.0918 4.89372 12.6968 5.02872 14.3948C5.12272 15.5778 5.39172 16.7548 5.90972 17.8278C6.55172 19.1578 7.56573 20.2618 8.87873 20.9558C9.86873 21.4788 10.9807 21.7498 12.1017 21.7498C13.6647 21.7498 15.2067 21.2198 16.4157 20.2288C17.5727 19.2818 18.3547 17.9468 18.7727 16.5268C19.2547 14.8878 19.3557 13.0757 18.9177 11.4167C18.8807 11.2757 18.8387 11.1358 18.7947 10.9958ZM17.9837 10.0568C18.3727 10.8868 18.6317 11.7428 18.7497 12.6018L18.7967 12.9518L17.1387 10.6898L17.9297 9.94177L17.9837 10.0568ZM12.1017 18.1568L9.60971 16.9498L8.57772 13.5358L9.97573 9.31876L12.1017 7.82276L14.2267 9.31876L15.6717 13.7148L14.6397 16.9288L12.1017 18.1568ZM14.4857 17.4368L13.9497 19.0618L12.5397 18.3708L14.4857 17.4368ZM11.6627 18.3708L10.2527 19.0618L9.77172 17.4618L11.6627 18.3708ZM8.14572 13.5138L7.41973 15.7478L5.54271 13.3998L7.39772 11.0728L8.14572 13.5138ZM7.71472 10.7758L9.43672 9.65576L8.37271 12.8838L7.71472 10.7758ZM8.35472 14.1838L9.11672 16.7178L7.73572 16.0588L8.35472 14.1838ZM10.1057 8.76776L10.5227 6.72376L11.7737 7.59778L10.1057 8.76776ZM12.4497 7.57276L13.7047 6.70276L14.1217 8.74277L12.4497 7.57276ZM14.7727 9.62375L16.6497 10.7508L15.8987 13.0598L14.7727 9.62375ZM15.9237 14.3478L16.4707 16.0588L15.1507 16.7028L15.9237 14.3478ZM16.1037 13.6927L16.9487 11.0908L18.6347 13.4028L16.7617 15.7478L16.1037 13.6927ZM16.6647 7.74777C17.1137 8.39577 17.4627 8.97178 17.7287 9.51578L17.7577 9.57376L16.9917 10.2928L16.4167 7.39377L16.6647 7.74777ZM16.6037 10.2748L14.5757 9.07178L14.0787 6.64575L15.9527 7.09677L16.6037 10.2748ZM14.6077 5.15277C15.0497 5.63577 15.4207 6.07277 15.7407 6.48477L15.8987 6.68875L14.0787 6.24075L14.5067 5.04175L14.6077 5.15277ZM12.9467 3.48175C13.3387 3.83875 13.7557 4.25476 14.1477 4.67676L14.1837 4.71976L13.7917 5.83975L12.6337 3.19476L12.9467 3.48175ZM12.1017 2.94077L13.5937 6.32276L12.1017 7.36878L10.6087 6.32276L12.1017 2.94077ZM10.0557 4.67676C10.4507 4.25476 10.8647 3.83875 11.2597 3.48175L11.5727 3.19476L10.4117 5.83975L10.0197 4.71976L10.0557 4.67676ZM8.58872 6.33377C8.93672 5.91177 9.26471 5.51477 9.59471 5.15277L9.69973 5.03876L10.1017 6.24075L8.29372 6.69177L8.58872 6.33377ZM10.1237 6.64575L9.62772 9.06876L7.77172 10.2538L8.24672 7.09677L10.1237 6.64575ZM6.47773 9.51276C6.80473 8.87176 7.20372 8.25278 7.58472 7.68378L7.81172 7.34677L7.35872 10.3068L6.44171 9.57675L6.47773 9.51276ZM5.45272 12.6728C5.54272 11.8318 5.80171 10.9518 6.22171 10.0568L6.26873 9.95276L7.23572 10.7078L5.42072 12.9768L5.45272 12.6728ZM5.87372 16.6678C5.63272 15.9268 5.48172 15.0958 5.40572 14.1258L5.38472 13.8358L7.20072 16.1088L5.90572 16.7678L5.87372 16.6678ZM6.75472 18.5248L6.63971 18.3278C6.40571 17.9198 6.22971 17.5588 6.08171 17.1898L6.04972 17.1148L7.21472 16.5168L6.75472 18.5248ZM7.08872 18.8828L7.64272 16.4458L9.27472 17.2298L9.85771 19.1018L7.08872 18.8828ZM9.29271 20.7698L9.20671 20.7268C8.57371 20.4038 7.98372 19.9608 7.50272 19.4448L7.34372 19.2768L9.83972 19.4878L9.29271 20.7698ZM11.4287 21.3418C10.8607 21.2988 10.2707 21.1628 9.72072 20.9558L9.63472 20.9198L10.1627 19.6708L11.6487 21.3598L11.4287 21.3418ZM10.4367 19.3768L12.1017 18.5898L13.7657 19.3768L12.1017 21.2778L10.4367 19.3768ZM14.4817 20.9558C13.9247 21.1668 13.3417 21.2988 12.7517 21.3418L12.5327 21.3598L14.0147 19.6708L14.5717 20.9198L14.4817 20.9558ZM16.7467 19.4488C16.2297 19.9788 15.6467 20.4078 15.0207 20.7268L14.9347 20.7698L14.3887 19.4878L16.9127 19.2768L16.7467 19.4488ZM14.3707 19.1048L14.9747 17.2078L16.5597 16.4418L17.0887 18.8828L14.3707 19.1048ZM18.1247 17.1688C17.9557 17.6158 17.7647 18.0028 17.5387 18.3538L17.4197 18.5398L16.9917 16.4987L18.1527 17.0938L18.1247 17.1688ZM18.3327 16.6458L18.3007 16.7458L17.0027 16.0838L18.8107 13.8258L18.7967 14.1048C18.7497 14.9958 18.5957 15.8518 18.3327 16.6458Z" stroke="black" stroke-opacity="0.2" stroke-width="0.22"/>
<path d="M18.7947 10.9958C18.5347 10.1888 18.1567 9.41376 17.7327 8.68176C17.3297 7.98076 16.8627 7.28277 16.2977 6.55277C15.8377 5.94777 15.3157 5.33578 14.7587 4.73078C14.3237 4.25778 13.8597 3.78877 13.3887 3.33777C13.0897 3.05177 12.8907 2.86777 12.5067 2.52777C12.4597 2.48877 12.2807 2.33277 12.2237 2.28977C12.0657 2.17877 11.9177 2.28976 11.7237 2.45776L11.6917 2.48575C11.5587 2.60075 11.4287 2.71877 11.2997 2.83377C10.9187 3.18077 10.5337 3.55276 10.1527 3.93576C9.64871 4.44776 9.16672 4.97077 8.71772 5.49677C8.17072 6.13677 7.67472 6.77778 7.24372 7.40378C6.73272 8.14878 6.31973 8.84978 5.97773 9.55878C5.23873 11.0918 4.89372 12.6968 5.02872 14.3948C5.12272 15.5778 5.39172 16.7548 5.90972 17.8278C6.55172 19.1578 7.56573 20.2618 8.87873 20.9558C9.86873 21.4788 10.9807 21.7498 12.1017 21.7498C13.6647 21.7498 15.2067 21.2198 16.4157 20.2288C17.5727 19.2818 18.3547 17.9468 18.7727 16.5268C19.2547 14.8878 19.3557 13.0757 18.9177 11.4167C18.8807 11.2757 18.8387 11.1358 18.7947 10.9958ZM17.9837 10.0568C18.3727 10.8868 18.6317 11.7428 18.7497 12.6018L18.7967 12.9518L17.1387 10.6898L17.9297 9.94177L17.9837 10.0568ZM12.1017 18.1568L9.60971 16.9498L8.57772 13.5358L9.97573 9.31876L12.1017 7.82276L14.2267 9.31876L15.6717 13.7148L14.6397 16.9288L12.1017 18.1568ZM14.4857 17.4368L13.9497 19.0618L12.5397 18.3708L14.4857 17.4368ZM11.6627 18.3708L10.2527 19.0618L9.77172 17.4618L11.6627 18.3708ZM8.14572 13.5138L7.41973 15.7478L5.54271 13.3998L7.39772 11.0728L8.14572 13.5138ZM7.71472 10.7758L9.43672 9.65576L8.37271 12.8838L7.71472 10.7758ZM8.35472 14.1838L9.11672 16.7178L7.73572 16.0588L8.35472 14.1838ZM10.1057 8.76776L10.5227 6.72376L11.7737 7.59778L10.1057 8.76776ZM12.4497 7.57276L13.7047 6.70276L14.1217 8.74277L12.4497 7.57276ZM14.7727 9.62375L16.6497 10.7508L15.8987 13.0598L14.7727 9.62375ZM15.9237 14.3478L16.4707 16.0588L15.1507 16.7028L15.9237 14.3478ZM16.1037 13.6927L16.9487 11.0908L18.6347 13.4028L16.7617 15.7478L16.1037 13.6927ZM16.6647 7.74777C17.1137 8.39577 17.4627 8.97178 17.7287 9.51578L17.7577 9.57376L16.9917 10.2928L16.4167 7.39377L16.6647 7.74777ZM16.6037 10.2748L14.5757 9.07178L14.0787 6.64575L15.9527 7.09677L16.6037 10.2748ZM14.6077 5.15277C15.0497 5.63577 15.4207 6.07277 15.7407 6.48477L15.8987 6.68875L14.0787 6.24075L14.5067 5.04175L14.6077 5.15277ZM12.9467 3.48175C13.3387 3.83875 13.7557 4.25476 14.1477 4.67676L14.1837 4.71976L13.7917 5.83975L12.6337 3.19476L12.9467 3.48175ZM12.1017 2.94077L13.5937 6.32276L12.1017 7.36878L10.6087 6.32276L12.1017 2.94077ZM10.0557 4.67676C10.4507 4.25476 10.8647 3.83875 11.2597 3.48175L11.5727 3.19476L10.4117 5.83975L10.0197 4.71976L10.0557 4.67676ZM8.58872 6.33377C8.93672 5.91177 9.26471 5.51477 9.59471 5.15277L9.69973 5.03876L10.1017 6.24075L8.29372 6.69177L8.58872 6.33377ZM10.1237 6.64575L9.62772 9.06876L7.77172 10.2538L8.24672 7.09677L10.1237 6.64575ZM6.47773 9.51276C6.80473 8.87176 7.20372 8.25278 7.58472 7.68378L7.81172 7.34677L7.35872 10.3068L6.44171 9.57675L6.47773 9.51276ZM5.45272 12.6728C5.54272 11.8318 5.80171 10.9518 6.22171 10.0568L6.26873 9.95276L7.23572 10.7078L5.42072 12.9768L5.45272 12.6728ZM5.87372 16.6678C5.63272 15.9268 5.48172 15.0958 5.40572 14.1258L5.38472 13.8358L7.20072 16.1088L5.90572 16.7678L5.87372 16.6678ZM6.75472 18.5248L6.63971 18.3278C6.40571 17.9198 6.22971 17.5588 6.08171 17.1898L6.04972 17.1148L7.21472 16.5168L6.75472 18.5248ZM7.08872 18.8828L7.64272 16.4458L9.27472 17.2298L9.85771 19.1018L7.08872 18.8828ZM9.29271 20.7698L9.20671 20.7268C8.57371 20.4038 7.98372 19.9608 7.50272 19.4448L7.34372 19.2768L9.83972 19.4878L9.29271 20.7698ZM11.4287 21.3418C10.8607 21.2988 10.2707 21.1628 9.72072 20.9558L9.63472 20.9198L10.1627 19.6708L11.6487 21.3598L11.4287 21.3418ZM10.4367 19.3768L12.1017 18.5898L13.7657 19.3768L12.1017 21.2778L10.4367 19.3768ZM14.4817 20.9558C13.9247 21.1668 13.3417 21.2988 12.7517 21.3418L12.5327 21.3598L14.0147 19.6708L14.5717 20.9198L14.4817 20.9558ZM16.7467 19.4488C16.2297 19.9788 15.6467 20.4078 15.0207 20.7268L14.9347 20.7698L14.3887 19.4878L16.9127 19.2768L16.7467 19.4488ZM14.3707 19.1048L14.9747 17.2078L16.5597 16.4418L17.0887 18.8828L14.3707 19.1048ZM18.1247 17.1688C17.9557 17.6158 17.7647 18.0028 17.5387 18.3538L17.4197 18.5398L16.9917 16.4987L18.1527 17.0938L18.1247 17.1688ZM18.3327 16.6458L18.3007 16.7458L17.0027 16.0838L18.8107 13.8258L18.7967 14.1048C18.7497 14.9958 18.5957 15.8518 18.3327 16.6458Z" stroke="black" stroke-opacity="0.2" stroke-width="0.22"/>
<path d="M18.7947 10.9958C18.5347 10.1888 18.1567 9.41376 17.7327 8.68176C17.3297 7.98076 16.8627 7.28277 16.2977 6.55277C15.8377 5.94777 15.3157 5.33578 14.7587 4.73078C14.3237 4.25778 13.8597 3.78877 13.3887 3.33777C13.0897 3.05177 12.8907 2.86777 12.5067 2.52777C12.4597 2.48877 12.2807 2.33277 12.2237 2.28977C12.0657 2.17877 11.9177 2.28976 11.7237 2.45776L11.6917 2.48575C11.5587 2.60075 11.4287 2.71877 11.2997 2.83377C10.9187 3.18077 10.5337 3.55276 10.1527 3.93576C9.64871 4.44776 9.16672 4.97077 8.71772 5.49677C8.17072 6.13677 7.67472 6.77778 7.24372 7.40378C6.73272 8.14878 6.31973 8.84978 5.97773 9.55878C5.23873 11.0918 4.89372 12.6968 5.02872 14.3948C5.12272 15.5778 5.39172 16.7548 5.90972 17.8278C6.55172 19.1578 7.56573 20.2618 8.87873 20.9558C9.86873 21.4788 10.9807 21.7498 12.1017 21.7498C13.6647 21.7498 15.2067 21.2198 16.4157 20.2288C17.5727 19.2818 18.3547 17.9468 18.7727 16.5268C19.2547 14.8878 19.3557 13.0757 18.9177 11.4167C18.8807 11.2757 18.8387 11.1358 18.7947 10.9958ZM17.9837 10.0568C18.3727 10.8868 18.6317 11.7428 18.7497 12.6018L18.7967 12.9518L17.1387 10.6898L17.9297 9.94177L17.9837 10.0568ZM12.1017 18.1568L9.60971 16.9498L8.57772 13.5358L9.97573 9.31876L12.1017 7.82276L14.2267 9.31876L15.6717 13.7148L14.6397 16.9288L12.1017 18.1568ZM14.4857 17.4368L13.9497 19.0618L12.5397 18.3708L14.4857 17.4368ZM11.6627 18.3708L10.2527 19.0618L9.77172 17.4618L11.6627 18.3708ZM8.14572 13.5138L7.41973 15.7478L5.54271 13.3998L7.39772 11.0728L8.14572 13.5138ZM7.71472 10.7758L9.43672 9.65576L8.37271 12.8838L7.71472 10.7758ZM8.35472 14.1838L9.11672 16.7178L7.73572 16.0588L8.35472 14.1838ZM10.1057 8.76776L10.5227 6.72376L11.7737 7.59778L10.1057 8.76776ZM12.4497 7.57276L13.7047 6.70276L14.1217 8.74277L12.4497 7.57276ZM14.7727 9.62375L16.6497 10.7508L15.8987 13.0598L14.7727 9.62375ZM15.9237 14.3478L16.4707 16.0588L15.1507 16.7028L15.9237 14.3478ZM16.1037 13.6927L16.9487 11.0908L18.6347 13.4028L16.7617 15.7478L16.1037 13.6927ZM16.6647 7.74777C17.1137 8.39577 17.4627 8.97178 17.7287 9.51578L17.7577 9.57376L16.9917 10.2928L16.4167 7.39377L16.6647 7.74777ZM16.6037 10.2748L14.5757 9.07178L14.0787 6.64575L15.9527 7.09677L16.6037 10.2748ZM14.6077 5.15277C15.0497 5.63577 15.4207 6.07277 15.7407 6.48477L15.8987 6.68875L14.0787 6.24075L14.5067 5.04175L14.6077 5.15277ZM12.9467 3.48175C13.3387 3.83875 13.7557 4.25476 14.1477 4.67676L14.1837 4.71976L13.7917 5.83975L12.6337 3.19476L12.9467 3.48175ZM12.1017 2.94077L13.5937 6.32276L12.1017 7.36878L10.6087 6.32276L12.1017 2.94077ZM10.0557 4.67676C10.4507 4.25476 10.8647 3.83875 11.2597 3.48175L11.5727 3.19476L10.4117 5.83975L10.0197 4.71976L10.0557 4.67676ZM8.58872 6.33377C8.93672 5.91177 9.26471 5.51477 9.59471 5.15277L9.69973 5.03876L10.1017 6.24075L8.29372 6.69177L8.58872 6.33377ZM10.1237 6.64575L9.62772 9.06876L7.77172 10.2538L8.24672 7.09677L10.1237 6.64575ZM6.47773 9.51276C6.80473 8.87176 7.20372 8.25278 7.58472 7.68378L7.81172 7.34677L7.35872 10.3068L6.44171 9.57675L6.47773 9.51276ZM5.45272 12.6728C5.54272 11.8318 5.80171 10.9518 6.22171 10.0568L6.26873 9.95276L7.23572 10.7078L5.42072 12.9768L5.45272 12.6728ZM5.87372 16.6678C5.63272 15.9268 5.48172 15.0958 5.40572 14.1258L5.38472 13.8358L7.20072 16.1088L5.90572 16.7678L5.87372 16.6678ZM6.75472 18.5248L6.63971 18.3278C6.40571 17.9198 6.22971 17.5588 6.08171 17.1898L6.04972 17.1148L7.21472 16.5168L6.75472 18.5248ZM7.08872 18.8828L7.64272 16.4458L9.27472 17.2298L9.85771 19.1018L7.08872 18.8828ZM9.29271 20.7698L9.20671 20.7268C8.57371 20.4038 7.98372 19.9608 7.50272 19.4448L7.34372 19.2768L9.83972 19.4878L9.29271 20.7698ZM11.4287 21.3418C10.8607 21.2988 10.2707 21.1628 9.72072 20.9558L9.63472 20.9198L10.1627 19.6708L11.6487 21.3598L11.4287 21.3418ZM10.4367 19.3768L12.1017 18.5898L13.7657 19.3768L12.1017 21.2778L10.4367 19.3768ZM14.4817 20.9558C13.9247 21.1668 13.3417 21.2988 12.7517 21.3418L12.5327 21.3598L14.0147 19.6708L14.5717 20.9198L14.4817 20.9558ZM16.7467 19.4488C16.2297 19.9788 15.6467 20.4078 15.0207 20.7268L14.9347 20.7698L14.3887 19.4878L16.9127 19.2768L16.7467 19.4488ZM14.3707 19.1048L14.9747 17.2078L16.5597 16.4418L17.0887 18.8828L14.3707 19.1048ZM18.1247 17.1688C17.9557 17.6158 17.7647 18.0028 17.5387 18.3538L17.4197 18.5398L16.9917 16.4987L18.1527 17.0938L18.1247 17.1688ZM18.3327 16.6458L18.3007 16.7458L17.0027 16.0838L18.8107 13.8258L18.7967 14.1048C18.7497 14.9958 18.5957 15.8518 18.3327 16.6458Z" stroke="black" stroke-opacity="0.2" stroke-width="0.22"/>
</svg>
