<svg width="24" height="24" viewBox="0 0 24 24" fill="none" xmlns="http://www.w3.org/2000/svg">
<path d="M2.25 2.25V21.755H21.755V2.25H2.25ZM12.003 17.275L14.938 18.666H9.0672L12.003 17.275ZM8.2639 18.583L7.9239 16.629L11.2731 17.165L8.2639 18.583ZM12.733 17.165L16.058 16.629L15.741 18.583L12.733 17.165ZM11.991 16.83L11.983 16.822L11.976 16.826L11.945 16.822L7.87379 16.156L7.1978 12.003L7.87379 7.845L11.976 7.17603L12.003 7.18701L12.03 7.17603L12.061 7.18002L16.155 7.845L16.823 11.93L16.132 16.156L11.991 16.83ZM6.7304 12.003L5.3399 14.93V9.095L6.7304 12.003ZM5.4404 8.23901L7.3948 7.92001L6.85799 11.27L5.4404 8.23901ZM6.85799 12.736L7.3948 16.061L5.4404 15.742L6.85799 12.736ZM12.003 6.73001L9.0672 5.33502H14.961L12.003 6.73001ZM15.741 5.43802L16.058 7.39603L12.733 6.85602L15.741 5.43802ZM11.2731 6.85602L7.9471 7.39603L8.2639 5.43802L11.2731 6.85602ZM16.61 7.94L18.565 8.259L17.147 11.266L16.61 7.94ZM17.147 12.755L18.565 15.785L16.61 16.101L17.147 12.755ZM17.275 12.003L18.665 9.07101V14.954L17.275 12.003ZM16.514 7.46701L16.151 5.229L21.083 2.92001L18.75 7.83002L16.514 7.46701ZM20.554 2.68701L15.88 4.89801L8.1054 4.88602L3.45129 2.68701H20.554ZM7.8312 5.229L7.4682 7.491L5.2318 7.849L2.92599 2.92001L7.8312 5.229ZM2.6942 3.45602L4.8958 8.14502L4.888 15.9L2.6942 20.546V3.45602ZM5.255 16.191L7.49139 16.554L7.8544 18.796L2.9221 21.101L5.255 16.191ZM3.45129 21.338L8.14799 19.127L15.9 19.135L20.554 21.338H3.45129ZM16.174 18.776L16.537 16.554L18.773 16.191L21.079 21.105L16.174 18.776ZM21.311 20.546L19.109 15.876L19.117 8.10202L21.311 3.45602V20.546Z" fill="#333335"/>
<path d="M2.25 2.25V21.755H21.755V2.25H2.25ZM12.003 17.275L14.938 18.666H9.0672L12.003 17.275ZM8.2639 18.583L7.9239 16.629L11.2731 17.165L8.2639 18.583ZM12.733 17.165L16.058 16.629L15.741 18.583L12.733 17.165ZM11.991 16.83L11.983 16.822L11.976 16.826L11.945 16.822L7.87379 16.156L7.1978 12.003L7.87379 7.845L11.976 7.17603L12.003 7.18701L12.03 7.17603L12.061 7.18002L16.155 7.845L16.823 11.93L16.132 16.156L11.991 16.83ZM6.7304 12.003L5.3399 14.93V9.095L6.7304 12.003ZM5.4404 8.23901L7.3948 7.92001L6.85799 11.27L5.4404 8.23901ZM6.85799 12.736L7.3948 16.061L5.4404 15.742L6.85799 12.736ZM12.003 6.73001L9.0672 5.33502H14.961L12.003 6.73001ZM15.741 5.43802L16.058 7.39603L12.733 6.85602L15.741 5.43802ZM11.2731 6.85602L7.9471 7.39603L8.2639 5.43802L11.2731 6.85602ZM16.61 7.94L18.565 8.259L17.147 11.266L16.61 7.94ZM17.147 12.755L18.565 15.785L16.61 16.101L17.147 12.755ZM17.275 12.003L18.665 9.07101V14.954L17.275 12.003ZM16.514 7.46701L16.151 5.229L21.083 2.92001L18.75 7.83002L16.514 7.46701ZM20.554 2.68701L15.88 4.89801L8.1054 4.88602L3.45129 2.68701H20.554ZM7.8312 5.229L7.4682 7.491L5.2318 7.849L2.92599 2.92001L7.8312 5.229ZM2.6942 3.45602L4.8958 8.14502L4.888 15.9L2.6942 20.546V3.45602ZM5.255 16.191L7.49139 16.554L7.8544 18.796L2.9221 21.101L5.255 16.191ZM3.45129 21.338L8.14799 19.127L15.9 19.135L20.554 21.338H3.45129ZM16.174 18.776L16.537 16.554L18.773 16.191L21.079 21.105L16.174 18.776ZM21.311 20.546L19.109 15.876L19.117 8.10202L21.311 3.45602V20.546Z" fill="black" fill-opacity="0.2"/>
<path d="M2.25 2.25V21.755H21.755V2.25H2.25ZM12.003 17.275L14.938 18.666H9.0672L12.003 17.275ZM8.2639 18.583L7.9239 16.629L11.2731 17.165L8.2639 18.583ZM12.733 17.165L16.058 16.629L15.741 18.583L12.733 17.165ZM11.991 16.83L11.983 16.822L11.976 16.826L11.945 16.822L7.87379 16.156L7.1978 12.003L7.87379 7.845L11.976 7.17603L12.003 7.18701L12.03 7.17603L12.061 7.18002L16.155 7.845L16.823 11.93L16.132 16.156L11.991 16.83ZM6.7304 12.003L5.3399 14.93V9.095L6.7304 12.003ZM5.4404 8.23901L7.3948 7.92001L6.85799 11.27L5.4404 8.23901ZM6.85799 12.736L7.3948 16.061L5.4404 15.742L6.85799 12.736ZM12.003 6.73001L9.0672 5.33502H14.961L12.003 6.73001ZM15.741 5.43802L16.058 7.39603L12.733 6.85602L15.741 5.43802ZM11.2731 6.85602L7.9471 7.39603L8.2639 5.43802L11.2731 6.85602ZM16.61 7.94L18.565 8.259L17.147 11.266L16.61 7.94ZM17.147 12.755L18.565 15.785L16.61 16.101L17.147 12.755ZM17.275 12.003L18.665 9.07101V14.954L17.275 12.003ZM16.514 7.46701L16.151 5.229L21.083 2.92001L18.75 7.83002L16.514 7.46701ZM20.554 2.68701L15.88 4.89801L8.1054 4.88602L3.45129 2.68701H20.554ZM7.8312 5.229L7.4682 7.491L5.2318 7.849L2.92599 2.92001L7.8312 5.229ZM2.6942 3.45602L4.8958 8.14502L4.888 15.9L2.6942 20.546V3.45602ZM5.255 16.191L7.49139 16.554L7.8544 18.796L2.9221 21.101L5.255 16.191ZM3.45129 21.338L8.14799 19.127L15.9 19.135L20.554 21.338H3.45129ZM16.174 18.776L16.537 16.554L18.773 16.191L21.079 21.105L16.174 18.776ZM21.311 20.546L19.109 15.876L19.117 8.10202L21.311 3.45602V20.546Z" fill="black" fill-opacity="0.2"/>
<path d="M2.25 2.25V21.755H21.755V2.25H2.25ZM12.003 17.275L14.938 18.666H9.0672L12.003 17.275ZM8.2639 18.583L7.9239 16.629L11.2731 17.165L8.2639 18.583ZM12.733 17.165L16.058 16.629L15.741 18.583L12.733 17.165ZM11.991 16.83L11.983 16.822L11.976 16.826L11.945 16.822L7.87379 16.156L7.1978 12.003L7.87379 7.845L11.976 7.17603L12.003 7.18701L12.03 7.17603L12.061 7.18002L16.155 7.845L16.823 11.93L16.132 16.156L11.991 16.83ZM6.7304 12.003L5.3399 14.93V9.095L6.7304 12.003ZM5.4404 8.23901L7.3948 7.92001L6.85799 11.27L5.4404 8.23901ZM6.85799 12.736L7.3948 16.061L5.4404 15.742L6.85799 12.736ZM12.003 6.73001L9.0672 5.33502H14.961L12.003 6.73001ZM15.741 5.43802L16.058 7.39603L12.733 6.85602L15.741 5.43802ZM11.2731 6.85602L7.9471 7.39603L8.2639 5.43802L11.2731 6.85602ZM16.61 7.94L18.565 8.259L17.147 11.266L16.61 7.94ZM17.147 12.755L18.565 15.785L16.61 16.101L17.147 12.755ZM17.275 12.003L18.665 9.07101V14.954L17.275 12.003ZM16.514 7.46701L16.151 5.229L21.083 2.92001L18.75 7.83002L16.514 7.46701ZM20.554 2.68701L15.88 4.89801L8.1054 4.88602L3.45129 2.68701H20.554ZM7.8312 5.229L7.4682 7.491L5.2318 7.849L2.92599 2.92001L7.8312 5.229ZM2.6942 3.45602L4.8958 8.14502L4.888 15.9L2.6942 20.546V3.45602ZM5.255 16.191L7.49139 16.554L7.8544 18.796L2.9221 21.101L5.255 16.191ZM3.45129 21.338L8.14799 19.127L15.9 19.135L20.554 21.338H3.45129ZM16.174 18.776L16.537 16.554L18.773 16.191L21.079 21.105L16.174 18.776ZM21.311 20.546L19.109 15.876L19.117 8.10202L21.311 3.45602V20.546Z" fill="black" fill-opacity="0.2"/>
<path d="M2.25 2.25V21.755H21.755V2.25H2.25ZM12.003 17.275L14.938 18.666H9.0672L12.003 17.275ZM8.2639 18.583L7.9239 16.629L11.2731 17.165L8.2639 18.583ZM12.733 17.165L16.058 16.629L15.741 18.583L12.733 17.165ZM11.991 16.83L11.983 16.822L11.976 16.826L11.945 16.822L7.87379 16.156L7.1978 12.003L7.87379 7.845L11.976 7.17603L12.003 7.18701L12.03 7.17603L12.061 7.18002L16.155 7.845L16.823 11.93L16.132 16.156L11.991 16.83ZM6.7304 12.003L5.3399 14.93V9.095L6.7304 12.003ZM5.4404 8.23901L7.3948 7.92001L6.85799 11.27L5.4404 8.23901ZM6.85799 12.736L7.3948 16.061L5.4404 15.742L6.85799 12.736ZM12.003 6.73001L9.0672 5.33502H14.961L12.003 6.73001ZM15.741 5.43802L16.058 7.39603L12.733 6.85602L15.741 5.43802ZM11.2731 6.85602L7.9471 7.39603L8.2639 5.43802L11.2731 6.85602ZM16.61 7.94L18.565 8.259L17.147 11.266L16.61 7.94ZM17.147 12.755L18.565 15.785L16.61 16.101L17.147 12.755ZM17.275 12.003L18.665 9.07101V14.954L17.275 12.003ZM16.514 7.46701L16.151 5.229L21.083 2.92001L18.75 7.83002L16.514 7.46701ZM20.554 2.68701L15.88 4.89801L8.1054 4.88602L3.45129 2.68701H20.554ZM7.8312 5.229L7.4682 7.491L5.2318 7.849L2.92599 2.92001L7.8312 5.229ZM2.6942 3.45602L4.8958 8.14502L4.888 15.9L2.6942 20.546V3.45602ZM5.255 16.191L7.49139 16.554L7.8544 18.796L2.9221 21.101L5.255 16.191ZM3.45129 21.338L8.14799 19.127L15.9 19.135L20.554 21.338H3.45129ZM16.174 18.776L16.537 16.554L18.773 16.191L21.079 21.105L16.174 18.776ZM21.311 20.546L19.109 15.876L19.117 8.10202L21.311 3.45602V20.546Z" fill="black" fill-opacity="0.2"/>
<path d="M2.25 2.25V21.755H21.755V2.25H2.25ZM12.003 17.275L14.938 18.666H9.0672L12.003 17.275ZM8.2639 18.583L7.9239 16.629L11.2731 17.165L8.2639 18.583ZM12.733 17.165L16.058 16.629L15.741 18.583L12.733 17.165ZM11.991 16.83L11.983 16.822L11.976 16.826L11.945 16.822L7.87379 16.156L7.1978 12.003L7.87379 7.845L11.976 7.17603L12.003 7.18701L12.03 7.17603L12.061 7.18002L16.155 7.845L16.823 11.93L16.132 16.156L11.991 16.83ZM6.7304 12.003L5.3399 14.93V9.095L6.7304 12.003ZM5.4404 8.23901L7.3948 7.92001L6.85799 11.27L5.4404 8.23901ZM6.85799 12.736L7.3948 16.061L5.4404 15.742L6.85799 12.736ZM12.003 6.73001L9.0672 5.33502H14.961L12.003 6.73001ZM15.741 5.43802L16.058 7.39603L12.733 6.85602L15.741 5.43802ZM11.2731 6.85602L7.9471 7.39603L8.2639 5.43802L11.2731 6.85602ZM16.61 7.94L18.565 8.259L17.147 11.266L16.61 7.94ZM17.147 12.755L18.565 15.785L16.61 16.101L17.147 12.755ZM17.275 12.003L18.665 9.07101V14.954L17.275 12.003ZM16.514 7.46701L16.151 5.229L21.083 2.92001L18.75 7.83002L16.514 7.46701ZM20.554 2.68701L15.88 4.89801L8.1054 4.88602L3.45129 2.68701H20.554ZM7.8312 5.229L7.4682 7.491L5.2318 7.849L2.92599 2.92001L7.8312 5.229ZM2.6942 3.45602L4.8958 8.14502L4.888 15.9L2.6942 20.546V3.45602ZM5.255 16.191L7.49139 16.554L7.8544 18.796L2.9221 21.101L5.255 16.191ZM3.45129 21.338L8.14799 19.127L15.9 19.135L20.554 21.338H3.45129ZM16.174 18.776L16.537 16.554L18.773 16.191L21.079 21.105L16.174 18.776ZM21.311 20.546L19.109 15.876L19.117 8.10202L21.311 3.45602V20.546Z" fill="black" fill-opacity="0.2"/>
<path d="M2.25 2.25V21.755H21.755V2.25H2.25ZM12.003 17.275L14.938 18.666H9.0672L12.003 17.275ZM8.2639 18.583L7.9239 16.629L11.2731 17.165L8.2639 18.583ZM12.733 17.165L16.058 16.629L15.741 18.583L12.733 17.165ZM11.991 16.83L11.983 16.822L11.976 16.826L11.945 16.822L7.87379 16.156L7.1978 12.003L7.87379 7.845L11.976 7.17603L12.003 7.18701L12.03 7.17603L12.061 7.18002L16.155 7.845L16.823 11.93L16.132 16.156L11.991 16.83ZM6.7304 12.003L5.3399 14.93V9.095L6.7304 12.003ZM5.4404 8.23901L7.3948 7.92001L6.85799 11.27L5.4404 8.23901ZM6.85799 12.736L7.3948 16.061L5.4404 15.742L6.85799 12.736ZM12.003 6.73001L9.0672 5.33502H14.961L12.003 6.73001ZM15.741 5.43802L16.058 7.39603L12.733 6.85602L15.741 5.43802ZM11.2731 6.85602L7.9471 7.39603L8.2639 5.43802L11.2731 6.85602ZM16.61 7.94L18.565 8.259L17.147 11.266L16.61 7.94ZM17.147 12.755L18.565 15.785L16.61 16.101L17.147 12.755ZM17.275 12.003L18.665 9.07101V14.954L17.275 12.003ZM16.514 7.46701L16.151 5.229L21.083 2.92001L18.75 7.83002L16.514 7.46701ZM20.554 2.68701L15.88 4.89801L8.1054 4.88602L3.45129 2.68701H20.554ZM7.8312 5.229L7.4682 7.491L5.2318 7.849L2.92599 2.92001L7.8312 5.229ZM2.6942 3.45602L4.8958 8.14502L4.888 15.9L2.6942 20.546V3.45602ZM5.255 16.191L7.49139 16.554L7.8544 18.796L2.9221 21.101L5.255 16.191ZM3.45129 21.338L8.14799 19.127L15.9 19.135L20.554 21.338H3.45129ZM16.174 18.776L16.537 16.554L18.773 16.191L21.079 21.105L16.174 18.776ZM21.311 20.546L19.109 15.876L19.117 8.10202L21.311 3.45602V20.546Z" fill="black" fill-opacity="0.2"/>
<path d="M2.25 2.25V21.755H21.755V2.25H2.25ZM12.003 17.275L14.938 18.666H9.0672L12.003 17.275ZM8.2639 18.583L7.9239 16.629L11.2731 17.165L8.2639 18.583ZM12.733 17.165L16.058 16.629L15.741 18.583L12.733 17.165ZM11.991 16.83L11.983 16.822L11.976 16.826L11.945 16.822L7.87379 16.156L7.1978 12.003L7.87379 7.845L11.976 7.17603L12.003 7.18701L12.03 7.17603L12.061 7.18002L16.155 7.845L16.823 11.93L16.132 16.156L11.991 16.83ZM6.7304 12.003L5.3399 14.93V9.095L6.7304 12.003ZM5.4404 8.23901L7.3948 7.92001L6.85799 11.27L5.4404 8.23901ZM6.85799 12.736L7.3948 16.061L5.4404 15.742L6.85799 12.736ZM12.003 6.73001L9.0672 5.33502H14.961L12.003 6.73001ZM15.741 5.43802L16.058 7.39603L12.733 6.85602L15.741 5.43802ZM11.2731 6.85602L7.9471 7.39603L8.2639 5.43802L11.2731 6.85602ZM16.61 7.94L18.565 8.259L17.147 11.266L16.61 7.94ZM17.147 12.755L18.565 15.785L16.61 16.101L17.147 12.755ZM17.275 12.003L18.665 9.07101V14.954L17.275 12.003ZM16.514 7.46701L16.151 5.229L21.083 2.92001L18.75 7.83002L16.514 7.46701ZM20.554 2.68701L15.88 4.89801L8.1054 4.88602L3.45129 2.68701H20.554ZM7.8312 5.229L7.4682 7.491L5.2318 7.849L2.92599 2.92001L7.8312 5.229ZM2.6942 3.45602L4.8958 8.14502L4.888 15.9L2.6942 20.546V3.45602ZM5.255 16.191L7.49139 16.554L7.8544 18.796L2.9221 21.101L5.255 16.191ZM3.45129 21.338L8.14799 19.127L15.9 19.135L20.554 21.338H3.45129ZM16.174 18.776L16.537 16.554L18.773 16.191L21.079 21.105L16.174 18.776ZM21.311 20.546L19.109 15.876L19.117 8.10202L21.311 3.45602V20.546Z" fill="black" fill-opacity="0.2"/>
<path d="M2.25 2.25V21.755H21.755V2.25H2.25ZM12.003 17.275L14.938 18.666H9.0672L12.003 17.275ZM8.2639 18.583L7.9239 16.629L11.2731 17.165L8.2639 18.583ZM12.733 17.165L16.058 16.629L15.741 18.583L12.733 17.165ZM11.991 16.83L11.983 16.822L11.976 16.826L11.945 16.822L7.87379 16.156L7.1978 12.003L7.87379 7.845L11.976 7.17603L12.003 7.18701L12.03 7.17603L12.061 7.18002L16.155 7.845L16.823 11.93L16.132 16.156L11.991 16.83ZM6.7304 12.003L5.3399 14.93V9.095L6.7304 12.003ZM5.4404 8.23901L7.3948 7.92001L6.85799 11.27L5.4404 8.23901ZM6.85799 12.736L7.3948 16.061L5.4404 15.742L6.85799 12.736ZM12.003 6.73001L9.0672 5.33502H14.961L12.003 6.73001ZM15.741 5.43802L16.058 7.39603L12.733 6.85602L15.741 5.43802ZM11.2731 6.85602L7.9471 7.39603L8.2639 5.43802L11.2731 6.85602ZM16.61 7.94L18.565 8.259L17.147 11.266L16.61 7.94ZM17.147 12.755L18.565 15.785L16.61 16.101L17.147 12.755ZM17.275 12.003L18.665 9.07101V14.954L17.275 12.003ZM16.514 7.46701L16.151 5.229L21.083 2.92001L18.75 7.83002L16.514 7.46701ZM20.554 2.68701L15.88 4.89801L8.1054 4.88602L3.45129 2.68701H20.554ZM7.8312 5.229L7.4682 7.491L5.2318 7.849L2.92599 2.92001L7.8312 5.229ZM2.6942 3.45602L4.8958 8.14502L4.888 15.9L2.6942 20.546V3.45602ZM5.255 16.191L7.49139 16.554L7.8544 18.796L2.9221 21.101L5.255 16.191ZM3.45129 21.338L8.14799 19.127L15.9 19.135L20.554 21.338H3.45129ZM16.174 18.776L16.537 16.554L18.773 16.191L21.079 21.105L16.174 18.776ZM21.311 20.546L19.109 15.876L19.117 8.10202L21.311 3.45602V20.546Z" fill="black" fill-opacity="0.2"/>
<path d="M2.25 2.25V21.755H21.755V2.25H2.25ZM12.003 17.275L14.938 18.666H9.0672L12.003 17.275ZM8.2639 18.583L7.9239 16.629L11.2731 17.165L8.2639 18.583ZM12.733 17.165L16.058 16.629L15.741 18.583L12.733 17.165ZM11.991 16.83L11.983 16.822L11.976 16.826L11.945 16.822L7.87379 16.156L7.1978 12.003L7.87379 7.845L11.976 7.17603L12.003 7.18701L12.03 7.17603L12.061 7.18002L16.155 7.845L16.823 11.93L16.132 16.156L11.991 16.83ZM6.7304 12.003L5.3399 14.93V9.095L6.7304 12.003ZM5.4404 8.23901L7.3948 7.92001L6.85799 11.27L5.4404 8.23901ZM6.85799 12.736L7.3948 16.061L5.4404 15.742L6.85799 12.736ZM12.003 6.73001L9.0672 5.33502H14.961L12.003 6.73001ZM15.741 5.43802L16.058 7.39603L12.733 6.85602L15.741 5.43802ZM11.2731 6.85602L7.9471 7.39603L8.2639 5.43802L11.2731 6.85602ZM16.61 7.94L18.565 8.259L17.147 11.266L16.61 7.94ZM17.147 12.755L18.565 15.785L16.61 16.101L17.147 12.755ZM17.275 12.003L18.665 9.07101V14.954L17.275 12.003ZM16.514 7.46701L16.151 5.229L21.083 2.92001L18.75 7.83002L16.514 7.46701ZM20.554 2.68701L15.88 4.89801L8.1054 4.88602L3.45129 2.68701H20.554ZM7.8312 5.229L7.4682 7.491L5.2318 7.849L2.92599 2.92001L7.8312 5.229ZM2.6942 3.45602L4.8958 8.14502L4.888 15.9L2.6942 20.546V3.45602ZM5.255 16.191L7.49139 16.554L7.8544 18.796L2.9221 21.101L5.255 16.191ZM3.45129 21.338L8.14799 19.127L15.9 19.135L20.554 21.338H3.45129ZM16.174 18.776L16.537 16.554L18.773 16.191L21.079 21.105L16.174 18.776ZM21.311 20.546L19.109 15.876L19.117 8.10202L21.311 3.45602V20.546Z" stroke="#333335" stroke-width="0.25"/>
<path d="M2.25 2.25V21.755H21.755V2.25H2.25ZM12.003 17.275L14.938 18.666H9.0672L12.003 17.275ZM8.2639 18.583L7.9239 16.629L11.2731 17.165L8.2639 18.583ZM12.733 17.165L16.058 16.629L15.741 18.583L12.733 17.165ZM11.991 16.83L11.983 16.822L11.976 16.826L11.945 16.822L7.87379 16.156L7.1978 12.003L7.87379 7.845L11.976 7.17603L12.003 7.18701L12.03 7.17603L12.061 7.18002L16.155 7.845L16.823 11.93L16.132 16.156L11.991 16.83ZM6.7304 12.003L5.3399 14.93V9.095L6.7304 12.003ZM5.4404 8.23901L7.3948 7.92001L6.85799 11.27L5.4404 8.23901ZM6.85799 12.736L7.3948 16.061L5.4404 15.742L6.85799 12.736ZM12.003 6.73001L9.0672 5.33502H14.961L12.003 6.73001ZM15.741 5.43802L16.058 7.39603L12.733 6.85602L15.741 5.43802ZM11.2731 6.85602L7.9471 7.39603L8.2639 5.43802L11.2731 6.85602ZM16.61 7.94L18.565 8.259L17.147 11.266L16.61 7.94ZM17.147 12.755L18.565 15.785L16.61 16.101L17.147 12.755ZM17.275 12.003L18.665 9.07101V14.954L17.275 12.003ZM16.514 7.46701L16.151 5.229L21.083 2.92001L18.75 7.83002L16.514 7.46701ZM20.554 2.68701L15.88 4.89801L8.1054 4.88602L3.45129 2.68701H20.554ZM7.8312 5.229L7.4682 7.491L5.2318 7.849L2.92599 2.92001L7.8312 5.229ZM2.6942 3.45602L4.8958 8.14502L4.888 15.9L2.6942 20.546V3.45602ZM5.255 16.191L7.49139 16.554L7.8544 18.796L2.9221 21.101L5.255 16.191ZM3.45129 21.338L8.14799 19.127L15.9 19.135L20.554 21.338H3.45129ZM16.174 18.776L16.537 16.554L18.773 16.191L21.079 21.105L16.174 18.776ZM21.311 20.546L19.109 15.876L19.117 8.10202L21.311 3.45602V20.546Z" stroke="black" stroke-opacity="0.2" stroke-width="0.25"/>
<path d="M2.25 2.25V21.755H21.755V2.25H2.25ZM12.003 17.275L14.938 18.666H9.0672L12.003 17.275ZM8.2639 18.583L7.9239 16.629L11.2731 17.165L8.2639 18.583ZM12.733 17.165L16.058 16.629L15.741 18.583L12.733 17.165ZM11.991 16.83L11.983 16.822L11.976 16.826L11.945 16.822L7.87379 16.156L7.1978 12.003L7.87379 7.845L11.976 7.17603L12.003 7.18701L12.03 7.17603L12.061 7.18002L16.155 7.845L16.823 11.93L16.132 16.156L11.991 16.83ZM6.7304 12.003L5.3399 14.93V9.095L6.7304 12.003ZM5.4404 8.23901L7.3948 7.92001L6.85799 11.27L5.4404 8.23901ZM6.85799 12.736L7.3948 16.061L5.4404 15.742L6.85799 12.736ZM12.003 6.73001L9.0672 5.33502H14.961L12.003 6.73001ZM15.741 5.43802L16.058 7.39603L12.733 6.85602L15.741 5.43802ZM11.2731 6.85602L7.9471 7.39603L8.2639 5.43802L11.2731 6.85602ZM16.61 7.94L18.565 8.259L17.147 11.266L16.61 7.94ZM17.147 12.755L18.565 15.785L16.61 16.101L17.147 12.755ZM17.275 12.003L18.665 9.07101V14.954L17.275 12.003ZM16.514 7.46701L16.151 5.229L21.083 2.92001L18.75 7.83002L16.514 7.46701ZM20.554 2.68701L15.88 4.89801L8.1054 4.88602L3.45129 2.68701H20.554ZM7.8312 5.229L7.4682 7.491L5.2318 7.849L2.92599 2.92001L7.8312 5.229ZM2.6942 3.45602L4.8958 8.14502L4.888 15.9L2.6942 20.546V3.45602ZM5.255 16.191L7.49139 16.554L7.8544 18.796L2.9221 21.101L5.255 16.191ZM3.45129 21.338L8.14799 19.127L15.9 19.135L20.554 21.338H3.45129ZM16.174 18.776L16.537 16.554L18.773 16.191L21.079 21.105L16.174 18.776ZM21.311 20.546L19.109 15.876L19.117 8.10202L21.311 3.45602V20.546Z" stroke="black" stroke-opacity="0.2" stroke-width="0.25"/>
<path d="M2.25 2.25V21.755H21.755V2.25H2.25ZM12.003 17.275L14.938 18.666H9.0672L12.003 17.275ZM8.2639 18.583L7.9239 16.629L11.2731 17.165L8.2639 18.583ZM12.733 17.165L16.058 16.629L15.741 18.583L12.733 17.165ZM11.991 16.83L11.983 16.822L11.976 16.826L11.945 16.822L7.87379 16.156L7.1978 12.003L7.87379 7.845L11.976 7.17603L12.003 7.18701L12.03 7.17603L12.061 7.18002L16.155 7.845L16.823 11.93L16.132 16.156L11.991 16.83ZM6.7304 12.003L5.3399 14.93V9.095L6.7304 12.003ZM5.4404 8.23901L7.3948 7.92001L6.85799 11.27L5.4404 8.23901ZM6.85799 12.736L7.3948 16.061L5.4404 15.742L6.85799 12.736ZM12.003 6.73001L9.0672 5.33502H14.961L12.003 6.73001ZM15.741 5.43802L16.058 7.39603L12.733 6.85602L15.741 5.43802ZM11.2731 6.85602L7.9471 7.39603L8.2639 5.43802L11.2731 6.85602ZM16.61 7.94L18.565 8.259L17.147 11.266L16.61 7.94ZM17.147 12.755L18.565 15.785L16.61 16.101L17.147 12.755ZM17.275 12.003L18.665 9.07101V14.954L17.275 12.003ZM16.514 7.46701L16.151 5.229L21.083 2.92001L18.75 7.83002L16.514 7.46701ZM20.554 2.68701L15.88 4.89801L8.1054 4.88602L3.45129 2.68701H20.554ZM7.8312 5.229L7.4682 7.491L5.2318 7.849L2.92599 2.92001L7.8312 5.229ZM2.6942 3.45602L4.8958 8.14502L4.888 15.9L2.6942 20.546V3.45602ZM5.255 16.191L7.49139 16.554L7.8544 18.796L2.9221 21.101L5.255 16.191ZM3.45129 21.338L8.14799 19.127L15.9 19.135L20.554 21.338H3.45129ZM16.174 18.776L16.537 16.554L18.773 16.191L21.079 21.105L16.174 18.776ZM21.311 20.546L19.109 15.876L19.117 8.10202L21.311 3.45602V20.546Z" stroke="black" stroke-opacity="0.2" stroke-width="0.25"/>
<path d="M2.25 2.25V21.755H21.755V2.25H2.25ZM12.003 17.275L14.938 18.666H9.0672L12.003 17.275ZM8.2639 18.583L7.9239 16.629L11.2731 17.165L8.2639 18.583ZM12.733 17.165L16.058 16.629L15.741 18.583L12.733 17.165ZM11.991 16.83L11.983 16.822L11.976 16.826L11.945 16.822L7.87379 16.156L7.1978 12.003L7.87379 7.845L11.976 7.17603L12.003 7.18701L12.03 7.17603L12.061 7.18002L16.155 7.845L16.823 11.93L16.132 16.156L11.991 16.83ZM6.7304 12.003L5.3399 14.93V9.095L6.7304 12.003ZM5.4404 8.23901L7.3948 7.92001L6.85799 11.27L5.4404 8.23901ZM6.85799 12.736L7.3948 16.061L5.4404 15.742L6.85799 12.736ZM12.003 6.73001L9.0672 5.33502H14.961L12.003 6.73001ZM15.741 5.43802L16.058 7.39603L12.733 6.85602L15.741 5.43802ZM11.2731 6.85602L7.9471 7.39603L8.2639 5.43802L11.2731 6.85602ZM16.61 7.94L18.565 8.259L17.147 11.266L16.61 7.94ZM17.147 12.755L18.565 15.785L16.61 16.101L17.147 12.755ZM17.275 12.003L18.665 9.07101V14.954L17.275 12.003ZM16.514 7.46701L16.151 5.229L21.083 2.92001L18.75 7.83002L16.514 7.46701ZM20.554 2.68701L15.88 4.89801L8.1054 4.88602L3.45129 2.68701H20.554ZM7.8312 5.229L7.4682 7.491L5.2318 7.849L2.92599 2.92001L7.8312 5.229ZM2.6942 3.45602L4.8958 8.14502L4.888 15.9L2.6942 20.546V3.45602ZM5.255 16.191L7.49139 16.554L7.8544 18.796L2.9221 21.101L5.255 16.191ZM3.45129 21.338L8.14799 19.127L15.9 19.135L20.554 21.338H3.45129ZM16.174 18.776L16.537 16.554L18.773 16.191L21.079 21.105L16.174 18.776ZM21.311 20.546L19.109 15.876L19.117 8.10202L21.311 3.45602V20.546Z" stroke="black" stroke-opacity="0.2" stroke-width="0.25"/>
<path d="M2.25 2.25V21.755H21.755V2.25H2.25ZM12.003 17.275L14.938 18.666H9.0672L12.003 17.275ZM8.2639 18.583L7.9239 16.629L11.2731 17.165L8.2639 18.583ZM12.733 17.165L16.058 16.629L15.741 18.583L12.733 17.165ZM11.991 16.83L11.983 16.822L11.976 16.826L11.945 16.822L7.87379 16.156L7.1978 12.003L7.87379 7.845L11.976 7.17603L12.003 7.18701L12.03 7.17603L12.061 7.18002L16.155 7.845L16.823 11.93L16.132 16.156L11.991 16.83ZM6.7304 12.003L5.3399 14.93V9.095L6.7304 12.003ZM5.4404 8.23901L7.3948 7.92001L6.85799 11.27L5.4404 8.23901ZM6.85799 12.736L7.3948 16.061L5.4404 15.742L6.85799 12.736ZM12.003 6.73001L9.0672 5.33502H14.961L12.003 6.73001ZM15.741 5.43802L16.058 7.39603L12.733 6.85602L15.741 5.43802ZM11.2731 6.85602L7.9471 7.39603L8.2639 5.43802L11.2731 6.85602ZM16.61 7.94L18.565 8.259L17.147 11.266L16.61 7.94ZM17.147 12.755L18.565 15.785L16.61 16.101L17.147 12.755ZM17.275 12.003L18.665 9.07101V14.954L17.275 12.003ZM16.514 7.46701L16.151 5.229L21.083 2.92001L18.75 7.83002L16.514 7.46701ZM20.554 2.68701L15.88 4.89801L8.1054 4.88602L3.45129 2.68701H20.554ZM7.8312 5.229L7.4682 7.491L5.2318 7.849L2.92599 2.92001L7.8312 5.229ZM2.6942 3.45602L4.8958 8.14502L4.888 15.9L2.6942 20.546V3.45602ZM5.255 16.191L7.49139 16.554L7.8544 18.796L2.9221 21.101L5.255 16.191ZM3.45129 21.338L8.14799 19.127L15.9 19.135L20.554 21.338H3.45129ZM16.174 18.776L16.537 16.554L18.773 16.191L21.079 21.105L16.174 18.776ZM21.311 20.546L19.109 15.876L19.117 8.10202L21.311 3.45602V20.546Z" stroke="black" stroke-opacity="0.2" stroke-width="0.25"/>
<path d="M2.25 2.25V21.755H21.755V2.25H2.25ZM12.003 17.275L14.938 18.666H9.0672L12.003 17.275ZM8.2639 18.583L7.9239 16.629L11.2731 17.165L8.2639 18.583ZM12.733 17.165L16.058 16.629L15.741 18.583L12.733 17.165ZM11.991 16.83L11.983 16.822L11.976 16.826L11.945 16.822L7.87379 16.156L7.1978 12.003L7.87379 7.845L11.976 7.17603L12.003 7.18701L12.03 7.17603L12.061 7.18002L16.155 7.845L16.823 11.93L16.132 16.156L11.991 16.83ZM6.7304 12.003L5.3399 14.93V9.095L6.7304 12.003ZM5.4404 8.23901L7.3948 7.92001L6.85799 11.27L5.4404 8.23901ZM6.85799 12.736L7.3948 16.061L5.4404 15.742L6.85799 12.736ZM12.003 6.73001L9.0672 5.33502H14.961L12.003 6.73001ZM15.741 5.43802L16.058 7.39603L12.733 6.85602L15.741 5.43802ZM11.2731 6.85602L7.9471 7.39603L8.2639 5.43802L11.2731 6.85602ZM16.61 7.94L18.565 8.259L17.147 11.266L16.61 7.94ZM17.147 12.755L18.565 15.785L16.61 16.101L17.147 12.755ZM17.275 12.003L18.665 9.07101V14.954L17.275 12.003ZM16.514 7.46701L16.151 5.229L21.083 2.92001L18.75 7.83002L16.514 7.46701ZM20.554 2.68701L15.88 4.89801L8.1054 4.88602L3.45129 2.68701H20.554ZM7.8312 5.229L7.4682 7.491L5.2318 7.849L2.92599 2.92001L7.8312 5.229ZM2.6942 3.45602L4.8958 8.14502L4.888 15.9L2.6942 20.546V3.45602ZM5.255 16.191L7.49139 16.554L7.8544 18.796L2.9221 21.101L5.255 16.191ZM3.45129 21.338L8.14799 19.127L15.9 19.135L20.554 21.338H3.45129ZM16.174 18.776L16.537 16.554L18.773 16.191L21.079 21.105L16.174 18.776ZM21.311 20.546L19.109 15.876L19.117 8.10202L21.311 3.45602V20.546Z" stroke="black" stroke-opacity="0.2" stroke-width="0.25"/>
<path d="M2.25 2.25V21.755H21.755V2.25H2.25ZM12.003 17.275L14.938 18.666H9.0672L12.003 17.275ZM8.2639 18.583L7.9239 16.629L11.2731 17.165L8.2639 18.583ZM12.733 17.165L16.058 16.629L15.741 18.583L12.733 17.165ZM11.991 16.83L11.983 16.822L11.976 16.826L11.945 16.822L7.87379 16.156L7.1978 12.003L7.87379 7.845L11.976 7.17603L12.003 7.18701L12.03 7.17603L12.061 7.18002L16.155 7.845L16.823 11.93L16.132 16.156L11.991 16.83ZM6.7304 12.003L5.3399 14.93V9.095L6.7304 12.003ZM5.4404 8.23901L7.3948 7.92001L6.85799 11.27L5.4404 8.23901ZM6.85799 12.736L7.3948 16.061L5.4404 15.742L6.85799 12.736ZM12.003 6.73001L9.0672 5.33502H14.961L12.003 6.73001ZM15.741 5.43802L16.058 7.39603L12.733 6.85602L15.741 5.43802ZM11.2731 6.85602L7.9471 7.39603L8.2639 5.43802L11.2731 6.85602ZM16.61 7.94L18.565 8.259L17.147 11.266L16.61 7.94ZM17.147 12.755L18.565 15.785L16.61 16.101L17.147 12.755ZM17.275 12.003L18.665 9.07101V14.954L17.275 12.003ZM16.514 7.46701L16.151 5.229L21.083 2.92001L18.75 7.83002L16.514 7.46701ZM20.554 2.68701L15.88 4.89801L8.1054 4.88602L3.45129 2.68701H20.554ZM7.8312 5.229L7.4682 7.491L5.2318 7.849L2.92599 2.92001L7.8312 5.229ZM2.6942 3.45602L4.8958 8.14502L4.888 15.9L2.6942 20.546V3.45602ZM5.255 16.191L7.49139 16.554L7.8544 18.796L2.9221 21.101L5.255 16.191ZM3.45129 21.338L8.14799 19.127L15.9 19.135L20.554 21.338H3.45129ZM16.174 18.776L16.537 16.554L18.773 16.191L21.079 21.105L16.174 18.776ZM21.311 20.546L19.109 15.876L19.117 8.10202L21.311 3.45602V20.546Z" stroke="black" stroke-opacity="0.2" stroke-width="0.25"/>
<path d="M2.25 2.25V21.755H21.755V2.25H2.25ZM12.003 17.275L14.938 18.666H9.0672L12.003 17.275ZM8.2639 18.583L7.9239 16.629L11.2731 17.165L8.2639 18.583ZM12.733 17.165L16.058 16.629L15.741 18.583L12.733 17.165ZM11.991 16.83L11.983 16.822L11.976 16.826L11.945 16.822L7.87379 16.156L7.1978 12.003L7.87379 7.845L11.976 7.17603L12.003 7.18701L12.03 7.17603L12.061 7.18002L16.155 7.845L16.823 11.93L16.132 16.156L11.991 16.83ZM6.7304 12.003L5.3399 14.93V9.095L6.7304 12.003ZM5.4404 8.23901L7.3948 7.92001L6.85799 11.27L5.4404 8.23901ZM6.85799 12.736L7.3948 16.061L5.4404 15.742L6.85799 12.736ZM12.003 6.73001L9.0672 5.33502H14.961L12.003 6.73001ZM15.741 5.43802L16.058 7.39603L12.733 6.85602L15.741 5.43802ZM11.2731 6.85602L7.9471 7.39603L8.2639 5.43802L11.2731 6.85602ZM16.61 7.94L18.565 8.259L17.147 11.266L16.61 7.94ZM17.147 12.755L18.565 15.785L16.61 16.101L17.147 12.755ZM17.275 12.003L18.665 9.07101V14.954L17.275 12.003ZM16.514 7.46701L16.151 5.229L21.083 2.92001L18.75 7.83002L16.514 7.46701ZM20.554 2.68701L15.88 4.89801L8.1054 4.88602L3.45129 2.68701H20.554ZM7.8312 5.229L7.4682 7.491L5.2318 7.849L2.92599 2.92001L7.8312 5.229ZM2.6942 3.45602L4.8958 8.14502L4.888 15.9L2.6942 20.546V3.45602ZM5.255 16.191L7.49139 16.554L7.8544 18.796L2.9221 21.101L5.255 16.191ZM3.45129 21.338L8.14799 19.127L15.9 19.135L20.554 21.338H3.45129ZM16.174 18.776L16.537 16.554L18.773 16.191L21.079 21.105L16.174 18.776ZM21.311 20.546L19.109 15.876L19.117 8.10202L21.311 3.45602V20.546Z" stroke="black" stroke-opacity="0.2" stroke-width="0.25"/>
</svg>
