<svg width="24" height="24" viewBox="0 0 24 24" fill="none" xmlns="http://www.w3.org/2000/svg">
<path d="M21.674 4.76801L18.814 2.35101C18.73 2.26801 18.641 2.25 18.607 2.25H5.355C5.315 2.25 5.252 2.25001 5.17 2.33301L2.347 4.76801C2.286 4.82101 2.25 4.898 2.25 4.979V18.971C2.25 19.096 2.30499 19.215 2.39999 19.297L5.166 21.672C5.224 21.724 5.28 21.755 5.41 21.755H18.558C18.593 21.755 18.706 21.755 18.814 21.656L21.678 19.229C21.722 19.186 21.75 19.127 21.75 19.072V4.953C21.749 4.882 21.726 4.81901 21.674 4.76801ZM18.657 2.77402L21.194 4.953L21.103 5.02802C20.556 5.48102 20.142 5.871 19.8 6.25L19.737 6.32001L17.314 4.23602L17.389 4.16101C17.751 3.79901 18.145 3.373 18.595 2.849L18.657 2.77402ZM7.123 7.32101C6.276 7.21101 5.50399 6.98602 4.75999 6.63202L4.625 6.569L6.785 4.62201L6.828 4.78C7.052 5.639 7.18599 6.45802 7.23399 7.21902L7.241 7.33701L7.123 7.32101ZM7.257 7.77103L7.25299 7.86102C7.23399 9.05902 6.97399 10.135 6.47699 11.049L6.327 11.333L6.29599 11.014C6.16999 9.74901 5.748 8.51502 5.078 7.44702L4.929 7.207L5.19699 7.302C5.90999 7.554 6.55199 7.704 7.16699 7.763L7.257 7.77103ZM4.629 7.55402C5.429 8.81902 5.854 10.186 5.89799 11.616C5.96099 13.216 5.524 14.82 4.629 16.258L4.448 16.55V7.26602L4.629 7.55402ZM4.76399 17.366C5.59499 16.995 6.41799 16.763 7.20999 16.68L7.31999 16.668L7.31599 16.782C7.29599 17.535 7.159 18.359 6.91 19.225L6.867 19.375L4.621 17.429L4.76399 17.366ZM7.23 16.239C6.461 16.325 5.72899 16.503 5.05099 16.763L4.76799 16.873L4.933 16.617C5.646 15.514 6.099 14.276 6.272 12.944L6.312 12.645L6.457 12.909C6.989 13.874 7.27999 14.962 7.31599 16.136L7.31999 16.227L7.23 16.239ZM6.461 12.058L6.418 11.999L6.461 11.943C7.245 10.852 7.678 9.457 7.714 7.901L7.718 7.806H8.088C9.364 7.806 10.673 7.52201 11.972 6.96301L12.012 6.94702L12.051 6.96301C13.351 7.52201 14.655 7.806 15.932 7.806H16.037L16.053 7.90802C15.947 9.57102 16.254 10.891 16.986 11.943L17.026 12.003L16.99 12.058C16.286 13.074 15.99 14.43 16.117 16.093L16.125 16.199L16.018 16.195C14.718 16.179 13.37 16.459 12.028 17.038L11.988 17.054L11.952 17.038C10.566 16.459 9.195 16.176 7.879 16.195L7.78099 16.199L7.77699 16.101C7.72599 14.588 7.28 13.224 6.461 12.058ZM17.105 11.333L16.968 11.045C16.554 10.17 16.384 9.10201 16.471 7.87701L16.475 7.79001L16.562 7.78201C17.259 7.71901 17.948 7.574 18.613 7.345L18.917 7.23901L18.724 7.49503C17.869 8.64503 17.342 9.831 17.153 11.017L17.105 11.333ZM18.704 16.487L18.886 16.735L18.595 16.637C17.94 16.42 17.282 16.278 16.644 16.219L16.562 16.211L16.554 16.128C16.451 14.926 16.589 13.866 16.968 12.98L17.101 12.668L17.153 13.003C17.342 14.166 17.849 15.305 18.704 16.487ZM16.64 7.345L16.522 7.35703L16.534 7.23502C16.62 6.46602 16.794 5.639 17.046 4.776L17.089 4.63L19.359 6.569L19.217 6.63602C18.386 7.01802 17.519 7.258 16.64 7.345ZM16.495 5.19C16.294 5.907 16.16 6.60802 16.093 7.27802L16.085 7.36502H15.998C15.057 7.36502 14.158 7.223 13.253 6.935L12.929 6.83301L13.257 6.746C14.289 6.47 15.325 5.91501 16.337 5.08701L16.578 4.89001L16.495 5.19ZM16.207 4.62601C14.714 5.86701 13.261 6.49802 11.886 6.49802C11.842 6.49802 11.799 6.49402 11.755 6.49402C10.405 6.47402 9.014 5.84401 7.62 4.62201L7.423 4.44901H16.415L16.207 4.62601ZM7.537 5.13C8.537 5.989 9.57299 6.53702 10.609 6.76602L10.964 6.845L10.621 6.95502C9.766 7.23502 8.943 7.37302 8.116 7.37302C7.998 7.37302 7.883 7.36902 7.765 7.36502L7.674 7.36102L7.67 7.27002C7.65 6.67902 7.556 6.009 7.379 5.229L7.312 4.93701L7.537 5.13ZM7.481 18.816C7.643 18.098 7.734 17.397 7.757 16.731L7.761 16.641L7.851 16.637C8.77 16.593 9.74699 16.739 10.747 17.066L11.063 17.169L10.743 17.255C9.703 17.531 8.691 18.075 7.64 18.914L7.423 19.088L7.481 18.816ZM7.769 19.375C9.289 18.114 10.775 17.488 12.224 17.507C12.898 17.515 13.583 17.681 14.277 17.992C14.966 18.303 15.663 18.768 16.357 19.379L16.554 19.552H7.56L7.769 19.375ZM16.419 18.871C15.383 18.008 14.351 17.456 13.347 17.236L12.988 17.157L13.339 17.046C14.257 16.751 15.178 16.613 16.085 16.637L16.168 16.64L16.179 16.723C16.27 17.405 16.4 18.071 16.581 18.768L16.656 19.068L16.419 18.871ZM16.62 16.79L16.601 16.668L16.727 16.68C17.551 16.763 18.386 16.995 19.217 17.366L19.355 17.429L17.215 19.379L17.173 19.225C16.9 18.268 16.719 17.472 16.62 16.79ZM17.531 12.042C17.531 10.509 18.145 8.95302 19.355 7.41602L19.528 7.19501V16.826L19.355 16.605C18.145 15.092 17.531 13.555 17.531 12.042ZM18.137 2.668L18 2.82901C17.641 3.25501 17.274 3.64101 16.912 3.98401L16.885 4.01102H6.989L6.95799 3.98001C6.61899 3.64101 6.27199 3.25101 5.93399 2.82501L5.808 2.668H18.137ZM5.327 2.77002L5.39 2.85703C5.768 3.36503 6.16599 3.80301 6.50499 4.16101L6.576 4.23602L4.263 6.32401L4.196 6.25C3.849 5.84 3.424 5.44202 2.896 5.02802L2.80099 4.957L5.327 2.77002ZM2.668 5.38303L2.82899 5.513C3.25499 5.855 3.645 6.24602 3.987 6.67502L4.011 6.703V17.153L3.987 17.18C3.605 17.657 3.21899 18.075 2.83299 18.422L2.668 18.571V5.38303ZM5.343 21.247L2.786 19.048L2.873 18.973C3.334 18.575 3.755 18.154 4.133 17.712L4.196 17.637L6.68599 19.789L6.61099 19.864C6.24799 20.222 5.85799 20.652 5.40599 21.172L5.343 21.247ZM5.838 21.334L5.97699 21.172C6.33899 20.746 6.70499 20.36 7.06799 20.017L7.095 19.99H16.99L17.018 20.021C17.362 20.36 17.704 20.75 18.046 21.176L18.173 21.334H5.838ZM18.653 21.231L18.591 21.148C18.279 20.743 17.917 20.313 17.491 19.836L17.428 19.765L19.733 17.681L19.796 17.748C20.264 18.213 20.69 18.615 21.107 18.973L21.194 19.048L18.653 21.231ZM21.312 18.583L21.147 18.445C20.69 18.055 20.312 17.693 19.993 17.33L19.969 17.302V6.71802L19.993 6.69101C20.363 6.27701 20.785 5.887 21.147 5.56L21.312 5.41V18.583Z" fill="#333335"/>
<path d="M21.674 4.76801L18.814 2.35101C18.73 2.26801 18.641 2.25 18.607 2.25H5.355C5.315 2.25 5.252 2.25001 5.17 2.33301L2.347 4.76801C2.286 4.82101 2.25 4.898 2.25 4.979V18.971C2.25 19.096 2.30499 19.215 2.39999 19.297L5.166 21.672C5.224 21.724 5.28 21.755 5.41 21.755H18.558C18.593 21.755 18.706 21.755 18.814 21.656L21.678 19.229C21.722 19.186 21.75 19.127 21.75 19.072V4.953C21.749 4.882 21.726 4.81901 21.674 4.76801ZM18.657 2.77402L21.194 4.953L21.103 5.02802C20.556 5.48102 20.142 5.871 19.8 6.25L19.737 6.32001L17.314 4.23602L17.389 4.16101C17.751 3.79901 18.145 3.373 18.595 2.849L18.657 2.77402ZM7.123 7.32101C6.276 7.21101 5.50399 6.98602 4.75999 6.63202L4.625 6.569L6.785 4.62201L6.828 4.78C7.052 5.639 7.18599 6.45802 7.23399 7.21902L7.241 7.33701L7.123 7.32101ZM7.257 7.77103L7.25299 7.86102C7.23399 9.05902 6.97399 10.135 6.47699 11.049L6.327 11.333L6.29599 11.014C6.16999 9.74901 5.748 8.51502 5.078 7.44702L4.929 7.207L5.19699 7.302C5.90999 7.554 6.55199 7.704 7.16699 7.763L7.257 7.77103ZM4.629 7.55402C5.429 8.81902 5.854 10.186 5.89799 11.616C5.96099 13.216 5.524 14.82 4.629 16.258L4.448 16.55V7.26602L4.629 7.55402ZM4.76399 17.366C5.59499 16.995 6.41799 16.763 7.20999 16.68L7.31999 16.668L7.31599 16.782C7.29599 17.535 7.159 18.359 6.91 19.225L6.867 19.375L4.621 17.429L4.76399 17.366ZM7.23 16.239C6.461 16.325 5.72899 16.503 5.05099 16.763L4.76799 16.873L4.933 16.617C5.646 15.514 6.099 14.276 6.272 12.944L6.312 12.645L6.457 12.909C6.989 13.874 7.27999 14.962 7.31599 16.136L7.31999 16.227L7.23 16.239ZM6.461 12.058L6.418 11.999L6.461 11.943C7.245 10.852 7.678 9.457 7.714 7.901L7.718 7.806H8.088C9.364 7.806 10.673 7.52201 11.972 6.96301L12.012 6.94702L12.051 6.96301C13.351 7.52201 14.655 7.806 15.932 7.806H16.037L16.053 7.90802C15.947 9.57102 16.254 10.891 16.986 11.943L17.026 12.003L16.99 12.058C16.286 13.074 15.99 14.43 16.117 16.093L16.125 16.199L16.018 16.195C14.718 16.179 13.37 16.459 12.028 17.038L11.988 17.054L11.952 17.038C10.566 16.459 9.195 16.176 7.879 16.195L7.78099 16.199L7.77699 16.101C7.72599 14.588 7.28 13.224 6.461 12.058ZM17.105 11.333L16.968 11.045C16.554 10.17 16.384 9.10201 16.471 7.87701L16.475 7.79001L16.562 7.78201C17.259 7.71901 17.948 7.574 18.613 7.345L18.917 7.23901L18.724 7.49503C17.869 8.64503 17.342 9.831 17.153 11.017L17.105 11.333ZM18.704 16.487L18.886 16.735L18.595 16.637C17.94 16.42 17.282 16.278 16.644 16.219L16.562 16.211L16.554 16.128C16.451 14.926 16.589 13.866 16.968 12.98L17.101 12.668L17.153 13.003C17.342 14.166 17.849 15.305 18.704 16.487ZM16.64 7.345L16.522 7.35703L16.534 7.23502C16.62 6.46602 16.794 5.639 17.046 4.776L17.089 4.63L19.359 6.569L19.217 6.63602C18.386 7.01802 17.519 7.258 16.64 7.345ZM16.495 5.19C16.294 5.907 16.16 6.60802 16.093 7.27802L16.085 7.36502H15.998C15.057 7.36502 14.158 7.223 13.253 6.935L12.929 6.83301L13.257 6.746C14.289 6.47 15.325 5.91501 16.337 5.08701L16.578 4.89001L16.495 5.19ZM16.207 4.62601C14.714 5.86701 13.261 6.49802 11.886 6.49802C11.842 6.49802 11.799 6.49402 11.755 6.49402C10.405 6.47402 9.014 5.84401 7.62 4.62201L7.423 4.44901H16.415L16.207 4.62601ZM7.537 5.13C8.537 5.989 9.57299 6.53702 10.609 6.76602L10.964 6.845L10.621 6.95502C9.766 7.23502 8.943 7.37302 8.116 7.37302C7.998 7.37302 7.883 7.36902 7.765 7.36502L7.674 7.36102L7.67 7.27002C7.65 6.67902 7.556 6.009 7.379 5.229L7.312 4.93701L7.537 5.13ZM7.481 18.816C7.643 18.098 7.734 17.397 7.757 16.731L7.761 16.641L7.851 16.637C8.77 16.593 9.74699 16.739 10.747 17.066L11.063 17.169L10.743 17.255C9.703 17.531 8.691 18.075 7.64 18.914L7.423 19.088L7.481 18.816ZM7.769 19.375C9.289 18.114 10.775 17.488 12.224 17.507C12.898 17.515 13.583 17.681 14.277 17.992C14.966 18.303 15.663 18.768 16.357 19.379L16.554 19.552H7.56L7.769 19.375ZM16.419 18.871C15.383 18.008 14.351 17.456 13.347 17.236L12.988 17.157L13.339 17.046C14.257 16.751 15.178 16.613 16.085 16.637L16.168 16.64L16.179 16.723C16.27 17.405 16.4 18.071 16.581 18.768L16.656 19.068L16.419 18.871ZM16.62 16.79L16.601 16.668L16.727 16.68C17.551 16.763 18.386 16.995 19.217 17.366L19.355 17.429L17.215 19.379L17.173 19.225C16.9 18.268 16.719 17.472 16.62 16.79ZM17.531 12.042C17.531 10.509 18.145 8.95302 19.355 7.41602L19.528 7.19501V16.826L19.355 16.605C18.145 15.092 17.531 13.555 17.531 12.042ZM18.137 2.668L18 2.82901C17.641 3.25501 17.274 3.64101 16.912 3.98401L16.885 4.01102H6.989L6.95799 3.98001C6.61899 3.64101 6.27199 3.25101 5.93399 2.82501L5.808 2.668H18.137ZM5.327 2.77002L5.39 2.85703C5.768 3.36503 6.16599 3.80301 6.50499 4.16101L6.576 4.23602L4.263 6.32401L4.196 6.25C3.849 5.84 3.424 5.44202 2.896 5.02802L2.80099 4.957L5.327 2.77002ZM2.668 5.38303L2.82899 5.513C3.25499 5.855 3.645 6.24602 3.987 6.67502L4.011 6.703V17.153L3.987 17.18C3.605 17.657 3.21899 18.075 2.83299 18.422L2.668 18.571V5.38303ZM5.343 21.247L2.786 19.048L2.873 18.973C3.334 18.575 3.755 18.154 4.133 17.712L4.196 17.637L6.68599 19.789L6.61099 19.864C6.24799 20.222 5.85799 20.652 5.40599 21.172L5.343 21.247ZM5.838 21.334L5.97699 21.172C6.33899 20.746 6.70499 20.36 7.06799 20.017L7.095 19.99H16.99L17.018 20.021C17.362 20.36 17.704 20.75 18.046 21.176L18.173 21.334H5.838ZM18.653 21.231L18.591 21.148C18.279 20.743 17.917 20.313 17.491 19.836L17.428 19.765L19.733 17.681L19.796 17.748C20.264 18.213 20.69 18.615 21.107 18.973L21.194 19.048L18.653 21.231ZM21.312 18.583L21.147 18.445C20.69 18.055 20.312 17.693 19.993 17.33L19.969 17.302V6.71802L19.993 6.69101C20.363 6.27701 20.785 5.887 21.147 5.56L21.312 5.41V18.583Z" fill="black" fill-opacity="0.2"/>
<path d="M21.674 4.76801L18.814 2.35101C18.73 2.26801 18.641 2.25 18.607 2.25H5.355C5.315 2.25 5.252 2.25001 5.17 2.33301L2.347 4.76801C2.286 4.82101 2.25 4.898 2.25 4.979V18.971C2.25 19.096 2.30499 19.215 2.39999 19.297L5.166 21.672C5.224 21.724 5.28 21.755 5.41 21.755H18.558C18.593 21.755 18.706 21.755 18.814 21.656L21.678 19.229C21.722 19.186 21.75 19.127 21.75 19.072V4.953C21.749 4.882 21.726 4.81901 21.674 4.76801ZM18.657 2.77402L21.194 4.953L21.103 5.02802C20.556 5.48102 20.142 5.871 19.8 6.25L19.737 6.32001L17.314 4.23602L17.389 4.16101C17.751 3.79901 18.145 3.373 18.595 2.849L18.657 2.77402ZM7.123 7.32101C6.276 7.21101 5.50399 6.98602 4.75999 6.63202L4.625 6.569L6.785 4.62201L6.828 4.78C7.052 5.639 7.18599 6.45802 7.23399 7.21902L7.241 7.33701L7.123 7.32101ZM7.257 7.77103L7.25299 7.86102C7.23399 9.05902 6.97399 10.135 6.47699 11.049L6.327 11.333L6.29599 11.014C6.16999 9.74901 5.748 8.51502 5.078 7.44702L4.929 7.207L5.19699 7.302C5.90999 7.554 6.55199 7.704 7.16699 7.763L7.257 7.77103ZM4.629 7.55402C5.429 8.81902 5.854 10.186 5.89799 11.616C5.96099 13.216 5.524 14.82 4.629 16.258L4.448 16.55V7.26602L4.629 7.55402ZM4.76399 17.366C5.59499 16.995 6.41799 16.763 7.20999 16.68L7.31999 16.668L7.31599 16.782C7.29599 17.535 7.159 18.359 6.91 19.225L6.867 19.375L4.621 17.429L4.76399 17.366ZM7.23 16.239C6.461 16.325 5.72899 16.503 5.05099 16.763L4.76799 16.873L4.933 16.617C5.646 15.514 6.099 14.276 6.272 12.944L6.312 12.645L6.457 12.909C6.989 13.874 7.27999 14.962 7.31599 16.136L7.31999 16.227L7.23 16.239ZM6.461 12.058L6.418 11.999L6.461 11.943C7.245 10.852 7.678 9.457 7.714 7.901L7.718 7.806H8.088C9.364 7.806 10.673 7.52201 11.972 6.96301L12.012 6.94702L12.051 6.96301C13.351 7.52201 14.655 7.806 15.932 7.806H16.037L16.053 7.90802C15.947 9.57102 16.254 10.891 16.986 11.943L17.026 12.003L16.99 12.058C16.286 13.074 15.99 14.43 16.117 16.093L16.125 16.199L16.018 16.195C14.718 16.179 13.37 16.459 12.028 17.038L11.988 17.054L11.952 17.038C10.566 16.459 9.195 16.176 7.879 16.195L7.78099 16.199L7.77699 16.101C7.72599 14.588 7.28 13.224 6.461 12.058ZM17.105 11.333L16.968 11.045C16.554 10.17 16.384 9.10201 16.471 7.87701L16.475 7.79001L16.562 7.78201C17.259 7.71901 17.948 7.574 18.613 7.345L18.917 7.23901L18.724 7.49503C17.869 8.64503 17.342 9.831 17.153 11.017L17.105 11.333ZM18.704 16.487L18.886 16.735L18.595 16.637C17.94 16.42 17.282 16.278 16.644 16.219L16.562 16.211L16.554 16.128C16.451 14.926 16.589 13.866 16.968 12.98L17.101 12.668L17.153 13.003C17.342 14.166 17.849 15.305 18.704 16.487ZM16.64 7.345L16.522 7.35703L16.534 7.23502C16.62 6.46602 16.794 5.639 17.046 4.776L17.089 4.63L19.359 6.569L19.217 6.63602C18.386 7.01802 17.519 7.258 16.64 7.345ZM16.495 5.19C16.294 5.907 16.16 6.60802 16.093 7.27802L16.085 7.36502H15.998C15.057 7.36502 14.158 7.223 13.253 6.935L12.929 6.83301L13.257 6.746C14.289 6.47 15.325 5.91501 16.337 5.08701L16.578 4.89001L16.495 5.19ZM16.207 4.62601C14.714 5.86701 13.261 6.49802 11.886 6.49802C11.842 6.49802 11.799 6.49402 11.755 6.49402C10.405 6.47402 9.014 5.84401 7.62 4.62201L7.423 4.44901H16.415L16.207 4.62601ZM7.537 5.13C8.537 5.989 9.57299 6.53702 10.609 6.76602L10.964 6.845L10.621 6.95502C9.766 7.23502 8.943 7.37302 8.116 7.37302C7.998 7.37302 7.883 7.36902 7.765 7.36502L7.674 7.36102L7.67 7.27002C7.65 6.67902 7.556 6.009 7.379 5.229L7.312 4.93701L7.537 5.13ZM7.481 18.816C7.643 18.098 7.734 17.397 7.757 16.731L7.761 16.641L7.851 16.637C8.77 16.593 9.74699 16.739 10.747 17.066L11.063 17.169L10.743 17.255C9.703 17.531 8.691 18.075 7.64 18.914L7.423 19.088L7.481 18.816ZM7.769 19.375C9.289 18.114 10.775 17.488 12.224 17.507C12.898 17.515 13.583 17.681 14.277 17.992C14.966 18.303 15.663 18.768 16.357 19.379L16.554 19.552H7.56L7.769 19.375ZM16.419 18.871C15.383 18.008 14.351 17.456 13.347 17.236L12.988 17.157L13.339 17.046C14.257 16.751 15.178 16.613 16.085 16.637L16.168 16.64L16.179 16.723C16.27 17.405 16.4 18.071 16.581 18.768L16.656 19.068L16.419 18.871ZM16.62 16.79L16.601 16.668L16.727 16.68C17.551 16.763 18.386 16.995 19.217 17.366L19.355 17.429L17.215 19.379L17.173 19.225C16.9 18.268 16.719 17.472 16.62 16.79ZM17.531 12.042C17.531 10.509 18.145 8.95302 19.355 7.41602L19.528 7.19501V16.826L19.355 16.605C18.145 15.092 17.531 13.555 17.531 12.042ZM18.137 2.668L18 2.82901C17.641 3.25501 17.274 3.64101 16.912 3.98401L16.885 4.01102H6.989L6.95799 3.98001C6.61899 3.64101 6.27199 3.25101 5.93399 2.82501L5.808 2.668H18.137ZM5.327 2.77002L5.39 2.85703C5.768 3.36503 6.16599 3.80301 6.50499 4.16101L6.576 4.23602L4.263 6.32401L4.196 6.25C3.849 5.84 3.424 5.44202 2.896 5.02802L2.80099 4.957L5.327 2.77002ZM2.668 5.38303L2.82899 5.513C3.25499 5.855 3.645 6.24602 3.987 6.67502L4.011 6.703V17.153L3.987 17.18C3.605 17.657 3.21899 18.075 2.83299 18.422L2.668 18.571V5.38303ZM5.343 21.247L2.786 19.048L2.873 18.973C3.334 18.575 3.755 18.154 4.133 17.712L4.196 17.637L6.68599 19.789L6.61099 19.864C6.24799 20.222 5.85799 20.652 5.40599 21.172L5.343 21.247ZM5.838 21.334L5.97699 21.172C6.33899 20.746 6.70499 20.36 7.06799 20.017L7.095 19.99H16.99L17.018 20.021C17.362 20.36 17.704 20.75 18.046 21.176L18.173 21.334H5.838ZM18.653 21.231L18.591 21.148C18.279 20.743 17.917 20.313 17.491 19.836L17.428 19.765L19.733 17.681L19.796 17.748C20.264 18.213 20.69 18.615 21.107 18.973L21.194 19.048L18.653 21.231ZM21.312 18.583L21.147 18.445C20.69 18.055 20.312 17.693 19.993 17.33L19.969 17.302V6.71802L19.993 6.69101C20.363 6.27701 20.785 5.887 21.147 5.56L21.312 5.41V18.583Z" fill="black" fill-opacity="0.2"/>
<path d="M21.674 4.76801L18.814 2.35101C18.73 2.26801 18.641 2.25 18.607 2.25H5.355C5.315 2.25 5.252 2.25001 5.17 2.33301L2.347 4.76801C2.286 4.82101 2.25 4.898 2.25 4.979V18.971C2.25 19.096 2.30499 19.215 2.39999 19.297L5.166 21.672C5.224 21.724 5.28 21.755 5.41 21.755H18.558C18.593 21.755 18.706 21.755 18.814 21.656L21.678 19.229C21.722 19.186 21.75 19.127 21.75 19.072V4.953C21.749 4.882 21.726 4.81901 21.674 4.76801ZM18.657 2.77402L21.194 4.953L21.103 5.02802C20.556 5.48102 20.142 5.871 19.8 6.25L19.737 6.32001L17.314 4.23602L17.389 4.16101C17.751 3.79901 18.145 3.373 18.595 2.849L18.657 2.77402ZM7.123 7.32101C6.276 7.21101 5.50399 6.98602 4.75999 6.63202L4.625 6.569L6.785 4.62201L6.828 4.78C7.052 5.639 7.18599 6.45802 7.23399 7.21902L7.241 7.33701L7.123 7.32101ZM7.257 7.77103L7.25299 7.86102C7.23399 9.05902 6.97399 10.135 6.47699 11.049L6.327 11.333L6.29599 11.014C6.16999 9.74901 5.748 8.51502 5.078 7.44702L4.929 7.207L5.19699 7.302C5.90999 7.554 6.55199 7.704 7.16699 7.763L7.257 7.77103ZM4.629 7.55402C5.429 8.81902 5.854 10.186 5.89799 11.616C5.96099 13.216 5.524 14.82 4.629 16.258L4.448 16.55V7.26602L4.629 7.55402ZM4.76399 17.366C5.59499 16.995 6.41799 16.763 7.20999 16.68L7.31999 16.668L7.31599 16.782C7.29599 17.535 7.159 18.359 6.91 19.225L6.867 19.375L4.621 17.429L4.76399 17.366ZM7.23 16.239C6.461 16.325 5.72899 16.503 5.05099 16.763L4.76799 16.873L4.933 16.617C5.646 15.514 6.099 14.276 6.272 12.944L6.312 12.645L6.457 12.909C6.989 13.874 7.27999 14.962 7.31599 16.136L7.31999 16.227L7.23 16.239ZM6.461 12.058L6.418 11.999L6.461 11.943C7.245 10.852 7.678 9.457 7.714 7.901L7.718 7.806H8.088C9.364 7.806 10.673 7.52201 11.972 6.96301L12.012 6.94702L12.051 6.96301C13.351 7.52201 14.655 7.806 15.932 7.806H16.037L16.053 7.90802C15.947 9.57102 16.254 10.891 16.986 11.943L17.026 12.003L16.99 12.058C16.286 13.074 15.99 14.43 16.117 16.093L16.125 16.199L16.018 16.195C14.718 16.179 13.37 16.459 12.028 17.038L11.988 17.054L11.952 17.038C10.566 16.459 9.195 16.176 7.879 16.195L7.78099 16.199L7.77699 16.101C7.72599 14.588 7.28 13.224 6.461 12.058ZM17.105 11.333L16.968 11.045C16.554 10.17 16.384 9.10201 16.471 7.87701L16.475 7.79001L16.562 7.78201C17.259 7.71901 17.948 7.574 18.613 7.345L18.917 7.23901L18.724 7.49503C17.869 8.64503 17.342 9.831 17.153 11.017L17.105 11.333ZM18.704 16.487L18.886 16.735L18.595 16.637C17.94 16.42 17.282 16.278 16.644 16.219L16.562 16.211L16.554 16.128C16.451 14.926 16.589 13.866 16.968 12.98L17.101 12.668L17.153 13.003C17.342 14.166 17.849 15.305 18.704 16.487ZM16.64 7.345L16.522 7.35703L16.534 7.23502C16.62 6.46602 16.794 5.639 17.046 4.776L17.089 4.63L19.359 6.569L19.217 6.63602C18.386 7.01802 17.519 7.258 16.64 7.345ZM16.495 5.19C16.294 5.907 16.16 6.60802 16.093 7.27802L16.085 7.36502H15.998C15.057 7.36502 14.158 7.223 13.253 6.935L12.929 6.83301L13.257 6.746C14.289 6.47 15.325 5.91501 16.337 5.08701L16.578 4.89001L16.495 5.19ZM16.207 4.62601C14.714 5.86701 13.261 6.49802 11.886 6.49802C11.842 6.49802 11.799 6.49402 11.755 6.49402C10.405 6.47402 9.014 5.84401 7.62 4.62201L7.423 4.44901H16.415L16.207 4.62601ZM7.537 5.13C8.537 5.989 9.57299 6.53702 10.609 6.76602L10.964 6.845L10.621 6.95502C9.766 7.23502 8.943 7.37302 8.116 7.37302C7.998 7.37302 7.883 7.36902 7.765 7.36502L7.674 7.36102L7.67 7.27002C7.65 6.67902 7.556 6.009 7.379 5.229L7.312 4.93701L7.537 5.13ZM7.481 18.816C7.643 18.098 7.734 17.397 7.757 16.731L7.761 16.641L7.851 16.637C8.77 16.593 9.74699 16.739 10.747 17.066L11.063 17.169L10.743 17.255C9.703 17.531 8.691 18.075 7.64 18.914L7.423 19.088L7.481 18.816ZM7.769 19.375C9.289 18.114 10.775 17.488 12.224 17.507C12.898 17.515 13.583 17.681 14.277 17.992C14.966 18.303 15.663 18.768 16.357 19.379L16.554 19.552H7.56L7.769 19.375ZM16.419 18.871C15.383 18.008 14.351 17.456 13.347 17.236L12.988 17.157L13.339 17.046C14.257 16.751 15.178 16.613 16.085 16.637L16.168 16.64L16.179 16.723C16.27 17.405 16.4 18.071 16.581 18.768L16.656 19.068L16.419 18.871ZM16.62 16.79L16.601 16.668L16.727 16.68C17.551 16.763 18.386 16.995 19.217 17.366L19.355 17.429L17.215 19.379L17.173 19.225C16.9 18.268 16.719 17.472 16.62 16.79ZM17.531 12.042C17.531 10.509 18.145 8.95302 19.355 7.41602L19.528 7.19501V16.826L19.355 16.605C18.145 15.092 17.531 13.555 17.531 12.042ZM18.137 2.668L18 2.82901C17.641 3.25501 17.274 3.64101 16.912 3.98401L16.885 4.01102H6.989L6.95799 3.98001C6.61899 3.64101 6.27199 3.25101 5.93399 2.82501L5.808 2.668H18.137ZM5.327 2.77002L5.39 2.85703C5.768 3.36503 6.16599 3.80301 6.50499 4.16101L6.576 4.23602L4.263 6.32401L4.196 6.25C3.849 5.84 3.424 5.44202 2.896 5.02802L2.80099 4.957L5.327 2.77002ZM2.668 5.38303L2.82899 5.513C3.25499 5.855 3.645 6.24602 3.987 6.67502L4.011 6.703V17.153L3.987 17.18C3.605 17.657 3.21899 18.075 2.83299 18.422L2.668 18.571V5.38303ZM5.343 21.247L2.786 19.048L2.873 18.973C3.334 18.575 3.755 18.154 4.133 17.712L4.196 17.637L6.68599 19.789L6.61099 19.864C6.24799 20.222 5.85799 20.652 5.40599 21.172L5.343 21.247ZM5.838 21.334L5.97699 21.172C6.33899 20.746 6.70499 20.36 7.06799 20.017L7.095 19.99H16.99L17.018 20.021C17.362 20.36 17.704 20.75 18.046 21.176L18.173 21.334H5.838ZM18.653 21.231L18.591 21.148C18.279 20.743 17.917 20.313 17.491 19.836L17.428 19.765L19.733 17.681L19.796 17.748C20.264 18.213 20.69 18.615 21.107 18.973L21.194 19.048L18.653 21.231ZM21.312 18.583L21.147 18.445C20.69 18.055 20.312 17.693 19.993 17.33L19.969 17.302V6.71802L19.993 6.69101C20.363 6.27701 20.785 5.887 21.147 5.56L21.312 5.41V18.583Z" fill="black" fill-opacity="0.2"/>
<path d="M21.674 4.76801L18.814 2.35101C18.73 2.26801 18.641 2.25 18.607 2.25H5.355C5.315 2.25 5.252 2.25001 5.17 2.33301L2.347 4.76801C2.286 4.82101 2.25 4.898 2.25 4.979V18.971C2.25 19.096 2.30499 19.215 2.39999 19.297L5.166 21.672C5.224 21.724 5.28 21.755 5.41 21.755H18.558C18.593 21.755 18.706 21.755 18.814 21.656L21.678 19.229C21.722 19.186 21.75 19.127 21.75 19.072V4.953C21.749 4.882 21.726 4.81901 21.674 4.76801ZM18.657 2.77402L21.194 4.953L21.103 5.02802C20.556 5.48102 20.142 5.871 19.8 6.25L19.737 6.32001L17.314 4.23602L17.389 4.16101C17.751 3.79901 18.145 3.373 18.595 2.849L18.657 2.77402ZM7.123 7.32101C6.276 7.21101 5.50399 6.98602 4.75999 6.63202L4.625 6.569L6.785 4.62201L6.828 4.78C7.052 5.639 7.18599 6.45802 7.23399 7.21902L7.241 7.33701L7.123 7.32101ZM7.257 7.77103L7.25299 7.86102C7.23399 9.05902 6.97399 10.135 6.47699 11.049L6.327 11.333L6.29599 11.014C6.16999 9.74901 5.748 8.51502 5.078 7.44702L4.929 7.207L5.19699 7.302C5.90999 7.554 6.55199 7.704 7.16699 7.763L7.257 7.77103ZM4.629 7.55402C5.429 8.81902 5.854 10.186 5.89799 11.616C5.96099 13.216 5.524 14.82 4.629 16.258L4.448 16.55V7.26602L4.629 7.55402ZM4.76399 17.366C5.59499 16.995 6.41799 16.763 7.20999 16.68L7.31999 16.668L7.31599 16.782C7.29599 17.535 7.159 18.359 6.91 19.225L6.867 19.375L4.621 17.429L4.76399 17.366ZM7.23 16.239C6.461 16.325 5.72899 16.503 5.05099 16.763L4.76799 16.873L4.933 16.617C5.646 15.514 6.099 14.276 6.272 12.944L6.312 12.645L6.457 12.909C6.989 13.874 7.27999 14.962 7.31599 16.136L7.31999 16.227L7.23 16.239ZM6.461 12.058L6.418 11.999L6.461 11.943C7.245 10.852 7.678 9.457 7.714 7.901L7.718 7.806H8.088C9.364 7.806 10.673 7.52201 11.972 6.96301L12.012 6.94702L12.051 6.96301C13.351 7.52201 14.655 7.806 15.932 7.806H16.037L16.053 7.90802C15.947 9.57102 16.254 10.891 16.986 11.943L17.026 12.003L16.99 12.058C16.286 13.074 15.99 14.43 16.117 16.093L16.125 16.199L16.018 16.195C14.718 16.179 13.37 16.459 12.028 17.038L11.988 17.054L11.952 17.038C10.566 16.459 9.195 16.176 7.879 16.195L7.78099 16.199L7.77699 16.101C7.72599 14.588 7.28 13.224 6.461 12.058ZM17.105 11.333L16.968 11.045C16.554 10.17 16.384 9.10201 16.471 7.87701L16.475 7.79001L16.562 7.78201C17.259 7.71901 17.948 7.574 18.613 7.345L18.917 7.23901L18.724 7.49503C17.869 8.64503 17.342 9.831 17.153 11.017L17.105 11.333ZM18.704 16.487L18.886 16.735L18.595 16.637C17.94 16.42 17.282 16.278 16.644 16.219L16.562 16.211L16.554 16.128C16.451 14.926 16.589 13.866 16.968 12.98L17.101 12.668L17.153 13.003C17.342 14.166 17.849 15.305 18.704 16.487ZM16.64 7.345L16.522 7.35703L16.534 7.23502C16.62 6.46602 16.794 5.639 17.046 4.776L17.089 4.63L19.359 6.569L19.217 6.63602C18.386 7.01802 17.519 7.258 16.64 7.345ZM16.495 5.19C16.294 5.907 16.16 6.60802 16.093 7.27802L16.085 7.36502H15.998C15.057 7.36502 14.158 7.223 13.253 6.935L12.929 6.83301L13.257 6.746C14.289 6.47 15.325 5.91501 16.337 5.08701L16.578 4.89001L16.495 5.19ZM16.207 4.62601C14.714 5.86701 13.261 6.49802 11.886 6.49802C11.842 6.49802 11.799 6.49402 11.755 6.49402C10.405 6.47402 9.014 5.84401 7.62 4.62201L7.423 4.44901H16.415L16.207 4.62601ZM7.537 5.13C8.537 5.989 9.57299 6.53702 10.609 6.76602L10.964 6.845L10.621 6.95502C9.766 7.23502 8.943 7.37302 8.116 7.37302C7.998 7.37302 7.883 7.36902 7.765 7.36502L7.674 7.36102L7.67 7.27002C7.65 6.67902 7.556 6.009 7.379 5.229L7.312 4.93701L7.537 5.13ZM7.481 18.816C7.643 18.098 7.734 17.397 7.757 16.731L7.761 16.641L7.851 16.637C8.77 16.593 9.74699 16.739 10.747 17.066L11.063 17.169L10.743 17.255C9.703 17.531 8.691 18.075 7.64 18.914L7.423 19.088L7.481 18.816ZM7.769 19.375C9.289 18.114 10.775 17.488 12.224 17.507C12.898 17.515 13.583 17.681 14.277 17.992C14.966 18.303 15.663 18.768 16.357 19.379L16.554 19.552H7.56L7.769 19.375ZM16.419 18.871C15.383 18.008 14.351 17.456 13.347 17.236L12.988 17.157L13.339 17.046C14.257 16.751 15.178 16.613 16.085 16.637L16.168 16.64L16.179 16.723C16.27 17.405 16.4 18.071 16.581 18.768L16.656 19.068L16.419 18.871ZM16.62 16.79L16.601 16.668L16.727 16.68C17.551 16.763 18.386 16.995 19.217 17.366L19.355 17.429L17.215 19.379L17.173 19.225C16.9 18.268 16.719 17.472 16.62 16.79ZM17.531 12.042C17.531 10.509 18.145 8.95302 19.355 7.41602L19.528 7.19501V16.826L19.355 16.605C18.145 15.092 17.531 13.555 17.531 12.042ZM18.137 2.668L18 2.82901C17.641 3.25501 17.274 3.64101 16.912 3.98401L16.885 4.01102H6.989L6.95799 3.98001C6.61899 3.64101 6.27199 3.25101 5.93399 2.82501L5.808 2.668H18.137ZM5.327 2.77002L5.39 2.85703C5.768 3.36503 6.16599 3.80301 6.50499 4.16101L6.576 4.23602L4.263 6.32401L4.196 6.25C3.849 5.84 3.424 5.44202 2.896 5.02802L2.80099 4.957L5.327 2.77002ZM2.668 5.38303L2.82899 5.513C3.25499 5.855 3.645 6.24602 3.987 6.67502L4.011 6.703V17.153L3.987 17.18C3.605 17.657 3.21899 18.075 2.83299 18.422L2.668 18.571V5.38303ZM5.343 21.247L2.786 19.048L2.873 18.973C3.334 18.575 3.755 18.154 4.133 17.712L4.196 17.637L6.68599 19.789L6.61099 19.864C6.24799 20.222 5.85799 20.652 5.40599 21.172L5.343 21.247ZM5.838 21.334L5.97699 21.172C6.33899 20.746 6.70499 20.36 7.06799 20.017L7.095 19.99H16.99L17.018 20.021C17.362 20.36 17.704 20.75 18.046 21.176L18.173 21.334H5.838ZM18.653 21.231L18.591 21.148C18.279 20.743 17.917 20.313 17.491 19.836L17.428 19.765L19.733 17.681L19.796 17.748C20.264 18.213 20.69 18.615 21.107 18.973L21.194 19.048L18.653 21.231ZM21.312 18.583L21.147 18.445C20.69 18.055 20.312 17.693 19.993 17.33L19.969 17.302V6.71802L19.993 6.69101C20.363 6.27701 20.785 5.887 21.147 5.56L21.312 5.41V18.583Z" fill="black" fill-opacity="0.2"/>
<path d="M21.674 4.76801L18.814 2.35101C18.73 2.26801 18.641 2.25 18.607 2.25H5.355C5.315 2.25 5.252 2.25001 5.17 2.33301L2.347 4.76801C2.286 4.82101 2.25 4.898 2.25 4.979V18.971C2.25 19.096 2.30499 19.215 2.39999 19.297L5.166 21.672C5.224 21.724 5.28 21.755 5.41 21.755H18.558C18.593 21.755 18.706 21.755 18.814 21.656L21.678 19.229C21.722 19.186 21.75 19.127 21.75 19.072V4.953C21.749 4.882 21.726 4.81901 21.674 4.76801ZM18.657 2.77402L21.194 4.953L21.103 5.02802C20.556 5.48102 20.142 5.871 19.8 6.25L19.737 6.32001L17.314 4.23602L17.389 4.16101C17.751 3.79901 18.145 3.373 18.595 2.849L18.657 2.77402ZM7.123 7.32101C6.276 7.21101 5.50399 6.98602 4.75999 6.63202L4.625 6.569L6.785 4.62201L6.828 4.78C7.052 5.639 7.18599 6.45802 7.23399 7.21902L7.241 7.33701L7.123 7.32101ZM7.257 7.77103L7.25299 7.86102C7.23399 9.05902 6.97399 10.135 6.47699 11.049L6.327 11.333L6.29599 11.014C6.16999 9.74901 5.748 8.51502 5.078 7.44702L4.929 7.207L5.19699 7.302C5.90999 7.554 6.55199 7.704 7.16699 7.763L7.257 7.77103ZM4.629 7.55402C5.429 8.81902 5.854 10.186 5.89799 11.616C5.96099 13.216 5.524 14.82 4.629 16.258L4.448 16.55V7.26602L4.629 7.55402ZM4.76399 17.366C5.59499 16.995 6.41799 16.763 7.20999 16.68L7.31999 16.668L7.31599 16.782C7.29599 17.535 7.159 18.359 6.91 19.225L6.867 19.375L4.621 17.429L4.76399 17.366ZM7.23 16.239C6.461 16.325 5.72899 16.503 5.05099 16.763L4.76799 16.873L4.933 16.617C5.646 15.514 6.099 14.276 6.272 12.944L6.312 12.645L6.457 12.909C6.989 13.874 7.27999 14.962 7.31599 16.136L7.31999 16.227L7.23 16.239ZM6.461 12.058L6.418 11.999L6.461 11.943C7.245 10.852 7.678 9.457 7.714 7.901L7.718 7.806H8.088C9.364 7.806 10.673 7.52201 11.972 6.96301L12.012 6.94702L12.051 6.96301C13.351 7.52201 14.655 7.806 15.932 7.806H16.037L16.053 7.90802C15.947 9.57102 16.254 10.891 16.986 11.943L17.026 12.003L16.99 12.058C16.286 13.074 15.99 14.43 16.117 16.093L16.125 16.199L16.018 16.195C14.718 16.179 13.37 16.459 12.028 17.038L11.988 17.054L11.952 17.038C10.566 16.459 9.195 16.176 7.879 16.195L7.78099 16.199L7.77699 16.101C7.72599 14.588 7.28 13.224 6.461 12.058ZM17.105 11.333L16.968 11.045C16.554 10.17 16.384 9.10201 16.471 7.87701L16.475 7.79001L16.562 7.78201C17.259 7.71901 17.948 7.574 18.613 7.345L18.917 7.23901L18.724 7.49503C17.869 8.64503 17.342 9.831 17.153 11.017L17.105 11.333ZM18.704 16.487L18.886 16.735L18.595 16.637C17.94 16.42 17.282 16.278 16.644 16.219L16.562 16.211L16.554 16.128C16.451 14.926 16.589 13.866 16.968 12.98L17.101 12.668L17.153 13.003C17.342 14.166 17.849 15.305 18.704 16.487ZM16.64 7.345L16.522 7.35703L16.534 7.23502C16.62 6.46602 16.794 5.639 17.046 4.776L17.089 4.63L19.359 6.569L19.217 6.63602C18.386 7.01802 17.519 7.258 16.64 7.345ZM16.495 5.19C16.294 5.907 16.16 6.60802 16.093 7.27802L16.085 7.36502H15.998C15.057 7.36502 14.158 7.223 13.253 6.935L12.929 6.83301L13.257 6.746C14.289 6.47 15.325 5.91501 16.337 5.08701L16.578 4.89001L16.495 5.19ZM16.207 4.62601C14.714 5.86701 13.261 6.49802 11.886 6.49802C11.842 6.49802 11.799 6.49402 11.755 6.49402C10.405 6.47402 9.014 5.84401 7.62 4.62201L7.423 4.44901H16.415L16.207 4.62601ZM7.537 5.13C8.537 5.989 9.57299 6.53702 10.609 6.76602L10.964 6.845L10.621 6.95502C9.766 7.23502 8.943 7.37302 8.116 7.37302C7.998 7.37302 7.883 7.36902 7.765 7.36502L7.674 7.36102L7.67 7.27002C7.65 6.67902 7.556 6.009 7.379 5.229L7.312 4.93701L7.537 5.13ZM7.481 18.816C7.643 18.098 7.734 17.397 7.757 16.731L7.761 16.641L7.851 16.637C8.77 16.593 9.74699 16.739 10.747 17.066L11.063 17.169L10.743 17.255C9.703 17.531 8.691 18.075 7.64 18.914L7.423 19.088L7.481 18.816ZM7.769 19.375C9.289 18.114 10.775 17.488 12.224 17.507C12.898 17.515 13.583 17.681 14.277 17.992C14.966 18.303 15.663 18.768 16.357 19.379L16.554 19.552H7.56L7.769 19.375ZM16.419 18.871C15.383 18.008 14.351 17.456 13.347 17.236L12.988 17.157L13.339 17.046C14.257 16.751 15.178 16.613 16.085 16.637L16.168 16.64L16.179 16.723C16.27 17.405 16.4 18.071 16.581 18.768L16.656 19.068L16.419 18.871ZM16.62 16.79L16.601 16.668L16.727 16.68C17.551 16.763 18.386 16.995 19.217 17.366L19.355 17.429L17.215 19.379L17.173 19.225C16.9 18.268 16.719 17.472 16.62 16.79ZM17.531 12.042C17.531 10.509 18.145 8.95302 19.355 7.41602L19.528 7.19501V16.826L19.355 16.605C18.145 15.092 17.531 13.555 17.531 12.042ZM18.137 2.668L18 2.82901C17.641 3.25501 17.274 3.64101 16.912 3.98401L16.885 4.01102H6.989L6.95799 3.98001C6.61899 3.64101 6.27199 3.25101 5.93399 2.82501L5.808 2.668H18.137ZM5.327 2.77002L5.39 2.85703C5.768 3.36503 6.16599 3.80301 6.50499 4.16101L6.576 4.23602L4.263 6.32401L4.196 6.25C3.849 5.84 3.424 5.44202 2.896 5.02802L2.80099 4.957L5.327 2.77002ZM2.668 5.38303L2.82899 5.513C3.25499 5.855 3.645 6.24602 3.987 6.67502L4.011 6.703V17.153L3.987 17.18C3.605 17.657 3.21899 18.075 2.83299 18.422L2.668 18.571V5.38303ZM5.343 21.247L2.786 19.048L2.873 18.973C3.334 18.575 3.755 18.154 4.133 17.712L4.196 17.637L6.68599 19.789L6.61099 19.864C6.24799 20.222 5.85799 20.652 5.40599 21.172L5.343 21.247ZM5.838 21.334L5.97699 21.172C6.33899 20.746 6.70499 20.36 7.06799 20.017L7.095 19.99H16.99L17.018 20.021C17.362 20.36 17.704 20.75 18.046 21.176L18.173 21.334H5.838ZM18.653 21.231L18.591 21.148C18.279 20.743 17.917 20.313 17.491 19.836L17.428 19.765L19.733 17.681L19.796 17.748C20.264 18.213 20.69 18.615 21.107 18.973L21.194 19.048L18.653 21.231ZM21.312 18.583L21.147 18.445C20.69 18.055 20.312 17.693 19.993 17.33L19.969 17.302V6.71802L19.993 6.69101C20.363 6.27701 20.785 5.887 21.147 5.56L21.312 5.41V18.583Z" fill="black" fill-opacity="0.2"/>
<path d="M21.674 4.76801L18.814 2.35101C18.73 2.26801 18.641 2.25 18.607 2.25H5.355C5.315 2.25 5.252 2.25001 5.17 2.33301L2.347 4.76801C2.286 4.82101 2.25 4.898 2.25 4.979V18.971C2.25 19.096 2.30499 19.215 2.39999 19.297L5.166 21.672C5.224 21.724 5.28 21.755 5.41 21.755H18.558C18.593 21.755 18.706 21.755 18.814 21.656L21.678 19.229C21.722 19.186 21.75 19.127 21.75 19.072V4.953C21.749 4.882 21.726 4.81901 21.674 4.76801ZM18.657 2.77402L21.194 4.953L21.103 5.02802C20.556 5.48102 20.142 5.871 19.8 6.25L19.737 6.32001L17.314 4.23602L17.389 4.16101C17.751 3.79901 18.145 3.373 18.595 2.849L18.657 2.77402ZM7.123 7.32101C6.276 7.21101 5.50399 6.98602 4.75999 6.63202L4.625 6.569L6.785 4.62201L6.828 4.78C7.052 5.639 7.18599 6.45802 7.23399 7.21902L7.241 7.33701L7.123 7.32101ZM7.257 7.77103L7.25299 7.86102C7.23399 9.05902 6.97399 10.135 6.47699 11.049L6.327 11.333L6.29599 11.014C6.16999 9.74901 5.748 8.51502 5.078 7.44702L4.929 7.207L5.19699 7.302C5.90999 7.554 6.55199 7.704 7.16699 7.763L7.257 7.77103ZM4.629 7.55402C5.429 8.81902 5.854 10.186 5.89799 11.616C5.96099 13.216 5.524 14.82 4.629 16.258L4.448 16.55V7.26602L4.629 7.55402ZM4.76399 17.366C5.59499 16.995 6.41799 16.763 7.20999 16.68L7.31999 16.668L7.31599 16.782C7.29599 17.535 7.159 18.359 6.91 19.225L6.867 19.375L4.621 17.429L4.76399 17.366ZM7.23 16.239C6.461 16.325 5.72899 16.503 5.05099 16.763L4.76799 16.873L4.933 16.617C5.646 15.514 6.099 14.276 6.272 12.944L6.312 12.645L6.457 12.909C6.989 13.874 7.27999 14.962 7.31599 16.136L7.31999 16.227L7.23 16.239ZM6.461 12.058L6.418 11.999L6.461 11.943C7.245 10.852 7.678 9.457 7.714 7.901L7.718 7.806H8.088C9.364 7.806 10.673 7.52201 11.972 6.96301L12.012 6.94702L12.051 6.96301C13.351 7.52201 14.655 7.806 15.932 7.806H16.037L16.053 7.90802C15.947 9.57102 16.254 10.891 16.986 11.943L17.026 12.003L16.99 12.058C16.286 13.074 15.99 14.43 16.117 16.093L16.125 16.199L16.018 16.195C14.718 16.179 13.37 16.459 12.028 17.038L11.988 17.054L11.952 17.038C10.566 16.459 9.195 16.176 7.879 16.195L7.78099 16.199L7.77699 16.101C7.72599 14.588 7.28 13.224 6.461 12.058ZM17.105 11.333L16.968 11.045C16.554 10.17 16.384 9.10201 16.471 7.87701L16.475 7.79001L16.562 7.78201C17.259 7.71901 17.948 7.574 18.613 7.345L18.917 7.23901L18.724 7.49503C17.869 8.64503 17.342 9.831 17.153 11.017L17.105 11.333ZM18.704 16.487L18.886 16.735L18.595 16.637C17.94 16.42 17.282 16.278 16.644 16.219L16.562 16.211L16.554 16.128C16.451 14.926 16.589 13.866 16.968 12.98L17.101 12.668L17.153 13.003C17.342 14.166 17.849 15.305 18.704 16.487ZM16.64 7.345L16.522 7.35703L16.534 7.23502C16.62 6.46602 16.794 5.639 17.046 4.776L17.089 4.63L19.359 6.569L19.217 6.63602C18.386 7.01802 17.519 7.258 16.64 7.345ZM16.495 5.19C16.294 5.907 16.16 6.60802 16.093 7.27802L16.085 7.36502H15.998C15.057 7.36502 14.158 7.223 13.253 6.935L12.929 6.83301L13.257 6.746C14.289 6.47 15.325 5.91501 16.337 5.08701L16.578 4.89001L16.495 5.19ZM16.207 4.62601C14.714 5.86701 13.261 6.49802 11.886 6.49802C11.842 6.49802 11.799 6.49402 11.755 6.49402C10.405 6.47402 9.014 5.84401 7.62 4.62201L7.423 4.44901H16.415L16.207 4.62601ZM7.537 5.13C8.537 5.989 9.57299 6.53702 10.609 6.76602L10.964 6.845L10.621 6.95502C9.766 7.23502 8.943 7.37302 8.116 7.37302C7.998 7.37302 7.883 7.36902 7.765 7.36502L7.674 7.36102L7.67 7.27002C7.65 6.67902 7.556 6.009 7.379 5.229L7.312 4.93701L7.537 5.13ZM7.481 18.816C7.643 18.098 7.734 17.397 7.757 16.731L7.761 16.641L7.851 16.637C8.77 16.593 9.74699 16.739 10.747 17.066L11.063 17.169L10.743 17.255C9.703 17.531 8.691 18.075 7.64 18.914L7.423 19.088L7.481 18.816ZM7.769 19.375C9.289 18.114 10.775 17.488 12.224 17.507C12.898 17.515 13.583 17.681 14.277 17.992C14.966 18.303 15.663 18.768 16.357 19.379L16.554 19.552H7.56L7.769 19.375ZM16.419 18.871C15.383 18.008 14.351 17.456 13.347 17.236L12.988 17.157L13.339 17.046C14.257 16.751 15.178 16.613 16.085 16.637L16.168 16.64L16.179 16.723C16.27 17.405 16.4 18.071 16.581 18.768L16.656 19.068L16.419 18.871ZM16.62 16.79L16.601 16.668L16.727 16.68C17.551 16.763 18.386 16.995 19.217 17.366L19.355 17.429L17.215 19.379L17.173 19.225C16.9 18.268 16.719 17.472 16.62 16.79ZM17.531 12.042C17.531 10.509 18.145 8.95302 19.355 7.41602L19.528 7.19501V16.826L19.355 16.605C18.145 15.092 17.531 13.555 17.531 12.042ZM18.137 2.668L18 2.82901C17.641 3.25501 17.274 3.64101 16.912 3.98401L16.885 4.01102H6.989L6.95799 3.98001C6.61899 3.64101 6.27199 3.25101 5.93399 2.82501L5.808 2.668H18.137ZM5.327 2.77002L5.39 2.85703C5.768 3.36503 6.16599 3.80301 6.50499 4.16101L6.576 4.23602L4.263 6.32401L4.196 6.25C3.849 5.84 3.424 5.44202 2.896 5.02802L2.80099 4.957L5.327 2.77002ZM2.668 5.38303L2.82899 5.513C3.25499 5.855 3.645 6.24602 3.987 6.67502L4.011 6.703V17.153L3.987 17.18C3.605 17.657 3.21899 18.075 2.83299 18.422L2.668 18.571V5.38303ZM5.343 21.247L2.786 19.048L2.873 18.973C3.334 18.575 3.755 18.154 4.133 17.712L4.196 17.637L6.68599 19.789L6.61099 19.864C6.24799 20.222 5.85799 20.652 5.40599 21.172L5.343 21.247ZM5.838 21.334L5.97699 21.172C6.33899 20.746 6.70499 20.36 7.06799 20.017L7.095 19.99H16.99L17.018 20.021C17.362 20.36 17.704 20.75 18.046 21.176L18.173 21.334H5.838ZM18.653 21.231L18.591 21.148C18.279 20.743 17.917 20.313 17.491 19.836L17.428 19.765L19.733 17.681L19.796 17.748C20.264 18.213 20.69 18.615 21.107 18.973L21.194 19.048L18.653 21.231ZM21.312 18.583L21.147 18.445C20.69 18.055 20.312 17.693 19.993 17.33L19.969 17.302V6.71802L19.993 6.69101C20.363 6.27701 20.785 5.887 21.147 5.56L21.312 5.41V18.583Z" fill="black" fill-opacity="0.2"/>
<path d="M21.674 4.76801L18.814 2.35101C18.73 2.26801 18.641 2.25 18.607 2.25H5.355C5.315 2.25 5.252 2.25001 5.17 2.33301L2.347 4.76801C2.286 4.82101 2.25 4.898 2.25 4.979V18.971C2.25 19.096 2.30499 19.215 2.39999 19.297L5.166 21.672C5.224 21.724 5.28 21.755 5.41 21.755H18.558C18.593 21.755 18.706 21.755 18.814 21.656L21.678 19.229C21.722 19.186 21.75 19.127 21.75 19.072V4.953C21.749 4.882 21.726 4.81901 21.674 4.76801ZM18.657 2.77402L21.194 4.953L21.103 5.02802C20.556 5.48102 20.142 5.871 19.8 6.25L19.737 6.32001L17.314 4.23602L17.389 4.16101C17.751 3.79901 18.145 3.373 18.595 2.849L18.657 2.77402ZM7.123 7.32101C6.276 7.21101 5.50399 6.98602 4.75999 6.63202L4.625 6.569L6.785 4.62201L6.828 4.78C7.052 5.639 7.18599 6.45802 7.23399 7.21902L7.241 7.33701L7.123 7.32101ZM7.257 7.77103L7.25299 7.86102C7.23399 9.05902 6.97399 10.135 6.47699 11.049L6.327 11.333L6.29599 11.014C6.16999 9.74901 5.748 8.51502 5.078 7.44702L4.929 7.207L5.19699 7.302C5.90999 7.554 6.55199 7.704 7.16699 7.763L7.257 7.77103ZM4.629 7.55402C5.429 8.81902 5.854 10.186 5.89799 11.616C5.96099 13.216 5.524 14.82 4.629 16.258L4.448 16.55V7.26602L4.629 7.55402ZM4.76399 17.366C5.59499 16.995 6.41799 16.763 7.20999 16.68L7.31999 16.668L7.31599 16.782C7.29599 17.535 7.159 18.359 6.91 19.225L6.867 19.375L4.621 17.429L4.76399 17.366ZM7.23 16.239C6.461 16.325 5.72899 16.503 5.05099 16.763L4.76799 16.873L4.933 16.617C5.646 15.514 6.099 14.276 6.272 12.944L6.312 12.645L6.457 12.909C6.989 13.874 7.27999 14.962 7.31599 16.136L7.31999 16.227L7.23 16.239ZM6.461 12.058L6.418 11.999L6.461 11.943C7.245 10.852 7.678 9.457 7.714 7.901L7.718 7.806H8.088C9.364 7.806 10.673 7.52201 11.972 6.96301L12.012 6.94702L12.051 6.96301C13.351 7.52201 14.655 7.806 15.932 7.806H16.037L16.053 7.90802C15.947 9.57102 16.254 10.891 16.986 11.943L17.026 12.003L16.99 12.058C16.286 13.074 15.99 14.43 16.117 16.093L16.125 16.199L16.018 16.195C14.718 16.179 13.37 16.459 12.028 17.038L11.988 17.054L11.952 17.038C10.566 16.459 9.195 16.176 7.879 16.195L7.78099 16.199L7.77699 16.101C7.72599 14.588 7.28 13.224 6.461 12.058ZM17.105 11.333L16.968 11.045C16.554 10.17 16.384 9.10201 16.471 7.87701L16.475 7.79001L16.562 7.78201C17.259 7.71901 17.948 7.574 18.613 7.345L18.917 7.23901L18.724 7.49503C17.869 8.64503 17.342 9.831 17.153 11.017L17.105 11.333ZM18.704 16.487L18.886 16.735L18.595 16.637C17.94 16.42 17.282 16.278 16.644 16.219L16.562 16.211L16.554 16.128C16.451 14.926 16.589 13.866 16.968 12.98L17.101 12.668L17.153 13.003C17.342 14.166 17.849 15.305 18.704 16.487ZM16.64 7.345L16.522 7.35703L16.534 7.23502C16.62 6.46602 16.794 5.639 17.046 4.776L17.089 4.63L19.359 6.569L19.217 6.63602C18.386 7.01802 17.519 7.258 16.64 7.345ZM16.495 5.19C16.294 5.907 16.16 6.60802 16.093 7.27802L16.085 7.36502H15.998C15.057 7.36502 14.158 7.223 13.253 6.935L12.929 6.83301L13.257 6.746C14.289 6.47 15.325 5.91501 16.337 5.08701L16.578 4.89001L16.495 5.19ZM16.207 4.62601C14.714 5.86701 13.261 6.49802 11.886 6.49802C11.842 6.49802 11.799 6.49402 11.755 6.49402C10.405 6.47402 9.014 5.84401 7.62 4.62201L7.423 4.44901H16.415L16.207 4.62601ZM7.537 5.13C8.537 5.989 9.57299 6.53702 10.609 6.76602L10.964 6.845L10.621 6.95502C9.766 7.23502 8.943 7.37302 8.116 7.37302C7.998 7.37302 7.883 7.36902 7.765 7.36502L7.674 7.36102L7.67 7.27002C7.65 6.67902 7.556 6.009 7.379 5.229L7.312 4.93701L7.537 5.13ZM7.481 18.816C7.643 18.098 7.734 17.397 7.757 16.731L7.761 16.641L7.851 16.637C8.77 16.593 9.74699 16.739 10.747 17.066L11.063 17.169L10.743 17.255C9.703 17.531 8.691 18.075 7.64 18.914L7.423 19.088L7.481 18.816ZM7.769 19.375C9.289 18.114 10.775 17.488 12.224 17.507C12.898 17.515 13.583 17.681 14.277 17.992C14.966 18.303 15.663 18.768 16.357 19.379L16.554 19.552H7.56L7.769 19.375ZM16.419 18.871C15.383 18.008 14.351 17.456 13.347 17.236L12.988 17.157L13.339 17.046C14.257 16.751 15.178 16.613 16.085 16.637L16.168 16.64L16.179 16.723C16.27 17.405 16.4 18.071 16.581 18.768L16.656 19.068L16.419 18.871ZM16.62 16.79L16.601 16.668L16.727 16.68C17.551 16.763 18.386 16.995 19.217 17.366L19.355 17.429L17.215 19.379L17.173 19.225C16.9 18.268 16.719 17.472 16.62 16.79ZM17.531 12.042C17.531 10.509 18.145 8.95302 19.355 7.41602L19.528 7.19501V16.826L19.355 16.605C18.145 15.092 17.531 13.555 17.531 12.042ZM18.137 2.668L18 2.82901C17.641 3.25501 17.274 3.64101 16.912 3.98401L16.885 4.01102H6.989L6.95799 3.98001C6.61899 3.64101 6.27199 3.25101 5.93399 2.82501L5.808 2.668H18.137ZM5.327 2.77002L5.39 2.85703C5.768 3.36503 6.16599 3.80301 6.50499 4.16101L6.576 4.23602L4.263 6.32401L4.196 6.25C3.849 5.84 3.424 5.44202 2.896 5.02802L2.80099 4.957L5.327 2.77002ZM2.668 5.38303L2.82899 5.513C3.25499 5.855 3.645 6.24602 3.987 6.67502L4.011 6.703V17.153L3.987 17.18C3.605 17.657 3.21899 18.075 2.83299 18.422L2.668 18.571V5.38303ZM5.343 21.247L2.786 19.048L2.873 18.973C3.334 18.575 3.755 18.154 4.133 17.712L4.196 17.637L6.68599 19.789L6.61099 19.864C6.24799 20.222 5.85799 20.652 5.40599 21.172L5.343 21.247ZM5.838 21.334L5.97699 21.172C6.33899 20.746 6.70499 20.36 7.06799 20.017L7.095 19.99H16.99L17.018 20.021C17.362 20.36 17.704 20.75 18.046 21.176L18.173 21.334H5.838ZM18.653 21.231L18.591 21.148C18.279 20.743 17.917 20.313 17.491 19.836L17.428 19.765L19.733 17.681L19.796 17.748C20.264 18.213 20.69 18.615 21.107 18.973L21.194 19.048L18.653 21.231ZM21.312 18.583L21.147 18.445C20.69 18.055 20.312 17.693 19.993 17.33L19.969 17.302V6.71802L19.993 6.69101C20.363 6.27701 20.785 5.887 21.147 5.56L21.312 5.41V18.583Z" fill="black" fill-opacity="0.2"/>
<path d="M21.674 4.76801L18.814 2.35101C18.73 2.26801 18.641 2.25 18.607 2.25H5.355C5.315 2.25 5.252 2.25001 5.17 2.33301L2.347 4.76801C2.286 4.82101 2.25 4.898 2.25 4.979V18.971C2.25 19.096 2.30499 19.215 2.39999 19.297L5.166 21.672C5.224 21.724 5.28 21.755 5.41 21.755H18.558C18.593 21.755 18.706 21.755 18.814 21.656L21.678 19.229C21.722 19.186 21.75 19.127 21.75 19.072V4.953C21.749 4.882 21.726 4.81901 21.674 4.76801ZM18.657 2.77402L21.194 4.953L21.103 5.02802C20.556 5.48102 20.142 5.871 19.8 6.25L19.737 6.32001L17.314 4.23602L17.389 4.16101C17.751 3.79901 18.145 3.373 18.595 2.849L18.657 2.77402ZM7.123 7.32101C6.276 7.21101 5.50399 6.98602 4.75999 6.63202L4.625 6.569L6.785 4.62201L6.828 4.78C7.052 5.639 7.18599 6.45802 7.23399 7.21902L7.241 7.33701L7.123 7.32101ZM7.257 7.77103L7.25299 7.86102C7.23399 9.05902 6.97399 10.135 6.47699 11.049L6.327 11.333L6.29599 11.014C6.16999 9.74901 5.748 8.51502 5.078 7.44702L4.929 7.207L5.19699 7.302C5.90999 7.554 6.55199 7.704 7.16699 7.763L7.257 7.77103ZM4.629 7.55402C5.429 8.81902 5.854 10.186 5.89799 11.616C5.96099 13.216 5.524 14.82 4.629 16.258L4.448 16.55V7.26602L4.629 7.55402ZM4.76399 17.366C5.59499 16.995 6.41799 16.763 7.20999 16.68L7.31999 16.668L7.31599 16.782C7.29599 17.535 7.159 18.359 6.91 19.225L6.867 19.375L4.621 17.429L4.76399 17.366ZM7.23 16.239C6.461 16.325 5.72899 16.503 5.05099 16.763L4.76799 16.873L4.933 16.617C5.646 15.514 6.099 14.276 6.272 12.944L6.312 12.645L6.457 12.909C6.989 13.874 7.27999 14.962 7.31599 16.136L7.31999 16.227L7.23 16.239ZM6.461 12.058L6.418 11.999L6.461 11.943C7.245 10.852 7.678 9.457 7.714 7.901L7.718 7.806H8.088C9.364 7.806 10.673 7.52201 11.972 6.96301L12.012 6.94702L12.051 6.96301C13.351 7.52201 14.655 7.806 15.932 7.806H16.037L16.053 7.90802C15.947 9.57102 16.254 10.891 16.986 11.943L17.026 12.003L16.99 12.058C16.286 13.074 15.99 14.43 16.117 16.093L16.125 16.199L16.018 16.195C14.718 16.179 13.37 16.459 12.028 17.038L11.988 17.054L11.952 17.038C10.566 16.459 9.195 16.176 7.879 16.195L7.78099 16.199L7.77699 16.101C7.72599 14.588 7.28 13.224 6.461 12.058ZM17.105 11.333L16.968 11.045C16.554 10.17 16.384 9.10201 16.471 7.87701L16.475 7.79001L16.562 7.78201C17.259 7.71901 17.948 7.574 18.613 7.345L18.917 7.23901L18.724 7.49503C17.869 8.64503 17.342 9.831 17.153 11.017L17.105 11.333ZM18.704 16.487L18.886 16.735L18.595 16.637C17.94 16.42 17.282 16.278 16.644 16.219L16.562 16.211L16.554 16.128C16.451 14.926 16.589 13.866 16.968 12.98L17.101 12.668L17.153 13.003C17.342 14.166 17.849 15.305 18.704 16.487ZM16.64 7.345L16.522 7.35703L16.534 7.23502C16.62 6.46602 16.794 5.639 17.046 4.776L17.089 4.63L19.359 6.569L19.217 6.63602C18.386 7.01802 17.519 7.258 16.64 7.345ZM16.495 5.19C16.294 5.907 16.16 6.60802 16.093 7.27802L16.085 7.36502H15.998C15.057 7.36502 14.158 7.223 13.253 6.935L12.929 6.83301L13.257 6.746C14.289 6.47 15.325 5.91501 16.337 5.08701L16.578 4.89001L16.495 5.19ZM16.207 4.62601C14.714 5.86701 13.261 6.49802 11.886 6.49802C11.842 6.49802 11.799 6.49402 11.755 6.49402C10.405 6.47402 9.014 5.84401 7.62 4.62201L7.423 4.44901H16.415L16.207 4.62601ZM7.537 5.13C8.537 5.989 9.57299 6.53702 10.609 6.76602L10.964 6.845L10.621 6.95502C9.766 7.23502 8.943 7.37302 8.116 7.37302C7.998 7.37302 7.883 7.36902 7.765 7.36502L7.674 7.36102L7.67 7.27002C7.65 6.67902 7.556 6.009 7.379 5.229L7.312 4.93701L7.537 5.13ZM7.481 18.816C7.643 18.098 7.734 17.397 7.757 16.731L7.761 16.641L7.851 16.637C8.77 16.593 9.74699 16.739 10.747 17.066L11.063 17.169L10.743 17.255C9.703 17.531 8.691 18.075 7.64 18.914L7.423 19.088L7.481 18.816ZM7.769 19.375C9.289 18.114 10.775 17.488 12.224 17.507C12.898 17.515 13.583 17.681 14.277 17.992C14.966 18.303 15.663 18.768 16.357 19.379L16.554 19.552H7.56L7.769 19.375ZM16.419 18.871C15.383 18.008 14.351 17.456 13.347 17.236L12.988 17.157L13.339 17.046C14.257 16.751 15.178 16.613 16.085 16.637L16.168 16.64L16.179 16.723C16.27 17.405 16.4 18.071 16.581 18.768L16.656 19.068L16.419 18.871ZM16.62 16.79L16.601 16.668L16.727 16.68C17.551 16.763 18.386 16.995 19.217 17.366L19.355 17.429L17.215 19.379L17.173 19.225C16.9 18.268 16.719 17.472 16.62 16.79ZM17.531 12.042C17.531 10.509 18.145 8.95302 19.355 7.41602L19.528 7.19501V16.826L19.355 16.605C18.145 15.092 17.531 13.555 17.531 12.042ZM18.137 2.668L18 2.82901C17.641 3.25501 17.274 3.64101 16.912 3.98401L16.885 4.01102H6.989L6.95799 3.98001C6.61899 3.64101 6.27199 3.25101 5.93399 2.82501L5.808 2.668H18.137ZM5.327 2.77002L5.39 2.85703C5.768 3.36503 6.16599 3.80301 6.50499 4.16101L6.576 4.23602L4.263 6.32401L4.196 6.25C3.849 5.84 3.424 5.44202 2.896 5.02802L2.80099 4.957L5.327 2.77002ZM2.668 5.38303L2.82899 5.513C3.25499 5.855 3.645 6.24602 3.987 6.67502L4.011 6.703V17.153L3.987 17.18C3.605 17.657 3.21899 18.075 2.83299 18.422L2.668 18.571V5.38303ZM5.343 21.247L2.786 19.048L2.873 18.973C3.334 18.575 3.755 18.154 4.133 17.712L4.196 17.637L6.68599 19.789L6.61099 19.864C6.24799 20.222 5.85799 20.652 5.40599 21.172L5.343 21.247ZM5.838 21.334L5.97699 21.172C6.33899 20.746 6.70499 20.36 7.06799 20.017L7.095 19.99H16.99L17.018 20.021C17.362 20.36 17.704 20.75 18.046 21.176L18.173 21.334H5.838ZM18.653 21.231L18.591 21.148C18.279 20.743 17.917 20.313 17.491 19.836L17.428 19.765L19.733 17.681L19.796 17.748C20.264 18.213 20.69 18.615 21.107 18.973L21.194 19.048L18.653 21.231ZM21.312 18.583L21.147 18.445C20.69 18.055 20.312 17.693 19.993 17.33L19.969 17.302V6.71802L19.993 6.69101C20.363 6.27701 20.785 5.887 21.147 5.56L21.312 5.41V18.583Z" fill="black" fill-opacity="0.2"/>
<path d="M21.674 4.76801L18.814 2.35101C18.73 2.26801 18.641 2.25 18.607 2.25H5.355C5.315 2.25 5.252 2.25001 5.17 2.33301L2.347 4.76801C2.286 4.82101 2.25 4.898 2.25 4.979V18.971C2.25 19.096 2.30499 19.215 2.39999 19.297L5.166 21.672C5.224 21.724 5.28 21.755 5.41 21.755H18.558C18.593 21.755 18.706 21.755 18.814 21.656L21.678 19.229C21.722 19.186 21.75 19.127 21.75 19.072V4.953C21.749 4.882 21.726 4.81901 21.674 4.76801ZM18.657 2.77402L21.194 4.953L21.103 5.02802C20.556 5.48102 20.142 5.871 19.8 6.25L19.737 6.32001L17.314 4.23602L17.389 4.16101C17.751 3.79901 18.145 3.373 18.595 2.849L18.657 2.77402ZM7.123 7.32101C6.276 7.21101 5.50399 6.98602 4.75999 6.63202L4.625 6.569L6.785 4.62201L6.828 4.78C7.052 5.639 7.18599 6.45802 7.23399 7.21902L7.241 7.33701L7.123 7.32101ZM7.257 7.77103L7.25299 7.86102C7.23399 9.05902 6.97399 10.135 6.47699 11.049L6.327 11.333L6.29599 11.014C6.16999 9.74901 5.748 8.51502 5.078 7.44702L4.929 7.207L5.19699 7.302C5.90999 7.554 6.55199 7.704 7.16699 7.763L7.257 7.77103ZM4.629 7.55402C5.429 8.81902 5.854 10.186 5.89799 11.616C5.96099 13.216 5.524 14.82 4.629 16.258L4.448 16.55V7.26602L4.629 7.55402ZM4.76399 17.366C5.59499 16.995 6.41799 16.763 7.20999 16.68L7.31999 16.668L7.31599 16.782C7.29599 17.535 7.159 18.359 6.91 19.225L6.867 19.375L4.621 17.429L4.76399 17.366ZM7.23 16.239C6.461 16.325 5.72899 16.503 5.05099 16.763L4.76799 16.873L4.933 16.617C5.646 15.514 6.099 14.276 6.272 12.944L6.312 12.645L6.457 12.909C6.989 13.874 7.27999 14.962 7.31599 16.136L7.31999 16.227L7.23 16.239ZM6.461 12.058L6.418 11.999L6.461 11.943C7.245 10.852 7.678 9.457 7.714 7.901L7.718 7.806H8.088C9.364 7.806 10.673 7.52201 11.972 6.96301L12.012 6.94702L12.051 6.96301C13.351 7.52201 14.655 7.806 15.932 7.806H16.037L16.053 7.90802C15.947 9.57102 16.254 10.891 16.986 11.943L17.026 12.003L16.99 12.058C16.286 13.074 15.99 14.43 16.117 16.093L16.125 16.199L16.018 16.195C14.718 16.179 13.37 16.459 12.028 17.038L11.988 17.054L11.952 17.038C10.566 16.459 9.195 16.176 7.879 16.195L7.78099 16.199L7.77699 16.101C7.72599 14.588 7.28 13.224 6.461 12.058ZM17.105 11.333L16.968 11.045C16.554 10.17 16.384 9.10201 16.471 7.87701L16.475 7.79001L16.562 7.78201C17.259 7.71901 17.948 7.574 18.613 7.345L18.917 7.23901L18.724 7.49503C17.869 8.64503 17.342 9.831 17.153 11.017L17.105 11.333ZM18.704 16.487L18.886 16.735L18.595 16.637C17.94 16.42 17.282 16.278 16.644 16.219L16.562 16.211L16.554 16.128C16.451 14.926 16.589 13.866 16.968 12.98L17.101 12.668L17.153 13.003C17.342 14.166 17.849 15.305 18.704 16.487ZM16.64 7.345L16.522 7.35703L16.534 7.23502C16.62 6.46602 16.794 5.639 17.046 4.776L17.089 4.63L19.359 6.569L19.217 6.63602C18.386 7.01802 17.519 7.258 16.64 7.345ZM16.495 5.19C16.294 5.907 16.16 6.60802 16.093 7.27802L16.085 7.36502H15.998C15.057 7.36502 14.158 7.223 13.253 6.935L12.929 6.83301L13.257 6.746C14.289 6.47 15.325 5.91501 16.337 5.08701L16.578 4.89001L16.495 5.19ZM16.207 4.62601C14.714 5.86701 13.261 6.49802 11.886 6.49802C11.842 6.49802 11.799 6.49402 11.755 6.49402C10.405 6.47402 9.014 5.84401 7.62 4.62201L7.423 4.44901H16.415L16.207 4.62601ZM7.537 5.13C8.537 5.989 9.57299 6.53702 10.609 6.76602L10.964 6.845L10.621 6.95502C9.766 7.23502 8.943 7.37302 8.116 7.37302C7.998 7.37302 7.883 7.36902 7.765 7.36502L7.674 7.36102L7.67 7.27002C7.65 6.67902 7.556 6.009 7.379 5.229L7.312 4.93701L7.537 5.13ZM7.481 18.816C7.643 18.098 7.734 17.397 7.757 16.731L7.761 16.641L7.851 16.637C8.77 16.593 9.74699 16.739 10.747 17.066L11.063 17.169L10.743 17.255C9.703 17.531 8.691 18.075 7.64 18.914L7.423 19.088L7.481 18.816ZM7.769 19.375C9.289 18.114 10.775 17.488 12.224 17.507C12.898 17.515 13.583 17.681 14.277 17.992C14.966 18.303 15.663 18.768 16.357 19.379L16.554 19.552H7.56L7.769 19.375ZM16.419 18.871C15.383 18.008 14.351 17.456 13.347 17.236L12.988 17.157L13.339 17.046C14.257 16.751 15.178 16.613 16.085 16.637L16.168 16.64L16.179 16.723C16.27 17.405 16.4 18.071 16.581 18.768L16.656 19.068L16.419 18.871ZM16.62 16.79L16.601 16.668L16.727 16.68C17.551 16.763 18.386 16.995 19.217 17.366L19.355 17.429L17.215 19.379L17.173 19.225C16.9 18.268 16.719 17.472 16.62 16.79ZM17.531 12.042C17.531 10.509 18.145 8.95302 19.355 7.41602L19.528 7.19501V16.826L19.355 16.605C18.145 15.092 17.531 13.555 17.531 12.042ZM18.137 2.668L18 2.82901C17.641 3.25501 17.274 3.64101 16.912 3.98401L16.885 4.01102H6.989L6.95799 3.98001C6.61899 3.64101 6.27199 3.25101 5.93399 2.82501L5.808 2.668H18.137ZM5.327 2.77002L5.39 2.85703C5.768 3.36503 6.16599 3.80301 6.50499 4.16101L6.576 4.23602L4.263 6.32401L4.196 6.25C3.849 5.84 3.424 5.44202 2.896 5.02802L2.80099 4.957L5.327 2.77002ZM2.668 5.38303L2.82899 5.513C3.25499 5.855 3.645 6.24602 3.987 6.67502L4.011 6.703V17.153L3.987 17.18C3.605 17.657 3.21899 18.075 2.83299 18.422L2.668 18.571V5.38303ZM5.343 21.247L2.786 19.048L2.873 18.973C3.334 18.575 3.755 18.154 4.133 17.712L4.196 17.637L6.68599 19.789L6.61099 19.864C6.24799 20.222 5.85799 20.652 5.40599 21.172L5.343 21.247ZM5.838 21.334L5.97699 21.172C6.33899 20.746 6.70499 20.36 7.06799 20.017L7.095 19.99H16.99L17.018 20.021C17.362 20.36 17.704 20.75 18.046 21.176L18.173 21.334H5.838ZM18.653 21.231L18.591 21.148C18.279 20.743 17.917 20.313 17.491 19.836L17.428 19.765L19.733 17.681L19.796 17.748C20.264 18.213 20.69 18.615 21.107 18.973L21.194 19.048L18.653 21.231ZM21.312 18.583L21.147 18.445C20.69 18.055 20.312 17.693 19.993 17.33L19.969 17.302V6.71802L19.993 6.69101C20.363 6.27701 20.785 5.887 21.147 5.56L21.312 5.41V18.583Z" stroke="#333335" stroke-width="0.2"/>
<path d="M21.674 4.76801L18.814 2.35101C18.73 2.26801 18.641 2.25 18.607 2.25H5.355C5.315 2.25 5.252 2.25001 5.17 2.33301L2.347 4.76801C2.286 4.82101 2.25 4.898 2.25 4.979V18.971C2.25 19.096 2.30499 19.215 2.39999 19.297L5.166 21.672C5.224 21.724 5.28 21.755 5.41 21.755H18.558C18.593 21.755 18.706 21.755 18.814 21.656L21.678 19.229C21.722 19.186 21.75 19.127 21.75 19.072V4.953C21.749 4.882 21.726 4.81901 21.674 4.76801ZM18.657 2.77402L21.194 4.953L21.103 5.02802C20.556 5.48102 20.142 5.871 19.8 6.25L19.737 6.32001L17.314 4.23602L17.389 4.16101C17.751 3.79901 18.145 3.373 18.595 2.849L18.657 2.77402ZM7.123 7.32101C6.276 7.21101 5.50399 6.98602 4.75999 6.63202L4.625 6.569L6.785 4.62201L6.828 4.78C7.052 5.639 7.18599 6.45802 7.23399 7.21902L7.241 7.33701L7.123 7.32101ZM7.257 7.77103L7.25299 7.86102C7.23399 9.05902 6.97399 10.135 6.47699 11.049L6.327 11.333L6.29599 11.014C6.16999 9.74901 5.748 8.51502 5.078 7.44702L4.929 7.207L5.19699 7.302C5.90999 7.554 6.55199 7.704 7.16699 7.763L7.257 7.77103ZM4.629 7.55402C5.429 8.81902 5.854 10.186 5.89799 11.616C5.96099 13.216 5.524 14.82 4.629 16.258L4.448 16.55V7.26602L4.629 7.55402ZM4.76399 17.366C5.59499 16.995 6.41799 16.763 7.20999 16.68L7.31999 16.668L7.31599 16.782C7.29599 17.535 7.159 18.359 6.91 19.225L6.867 19.375L4.621 17.429L4.76399 17.366ZM7.23 16.239C6.461 16.325 5.72899 16.503 5.05099 16.763L4.76799 16.873L4.933 16.617C5.646 15.514 6.099 14.276 6.272 12.944L6.312 12.645L6.457 12.909C6.989 13.874 7.27999 14.962 7.31599 16.136L7.31999 16.227L7.23 16.239ZM6.461 12.058L6.418 11.999L6.461 11.943C7.245 10.852 7.678 9.457 7.714 7.901L7.718 7.806H8.088C9.364 7.806 10.673 7.52201 11.972 6.96301L12.012 6.94702L12.051 6.96301C13.351 7.52201 14.655 7.806 15.932 7.806H16.037L16.053 7.90802C15.947 9.57102 16.254 10.891 16.986 11.943L17.026 12.003L16.99 12.058C16.286 13.074 15.99 14.43 16.117 16.093L16.125 16.199L16.018 16.195C14.718 16.179 13.37 16.459 12.028 17.038L11.988 17.054L11.952 17.038C10.566 16.459 9.195 16.176 7.879 16.195L7.78099 16.199L7.77699 16.101C7.72599 14.588 7.28 13.224 6.461 12.058ZM17.105 11.333L16.968 11.045C16.554 10.17 16.384 9.10201 16.471 7.87701L16.475 7.79001L16.562 7.78201C17.259 7.71901 17.948 7.574 18.613 7.345L18.917 7.23901L18.724 7.49503C17.869 8.64503 17.342 9.831 17.153 11.017L17.105 11.333ZM18.704 16.487L18.886 16.735L18.595 16.637C17.94 16.42 17.282 16.278 16.644 16.219L16.562 16.211L16.554 16.128C16.451 14.926 16.589 13.866 16.968 12.98L17.101 12.668L17.153 13.003C17.342 14.166 17.849 15.305 18.704 16.487ZM16.64 7.345L16.522 7.35703L16.534 7.23502C16.62 6.46602 16.794 5.639 17.046 4.776L17.089 4.63L19.359 6.569L19.217 6.63602C18.386 7.01802 17.519 7.258 16.64 7.345ZM16.495 5.19C16.294 5.907 16.16 6.60802 16.093 7.27802L16.085 7.36502H15.998C15.057 7.36502 14.158 7.223 13.253 6.935L12.929 6.83301L13.257 6.746C14.289 6.47 15.325 5.91501 16.337 5.08701L16.578 4.89001L16.495 5.19ZM16.207 4.62601C14.714 5.86701 13.261 6.49802 11.886 6.49802C11.842 6.49802 11.799 6.49402 11.755 6.49402C10.405 6.47402 9.014 5.84401 7.62 4.62201L7.423 4.44901H16.415L16.207 4.62601ZM7.537 5.13C8.537 5.989 9.57299 6.53702 10.609 6.76602L10.964 6.845L10.621 6.95502C9.766 7.23502 8.943 7.37302 8.116 7.37302C7.998 7.37302 7.883 7.36902 7.765 7.36502L7.674 7.36102L7.67 7.27002C7.65 6.67902 7.556 6.009 7.379 5.229L7.312 4.93701L7.537 5.13ZM7.481 18.816C7.643 18.098 7.734 17.397 7.757 16.731L7.761 16.641L7.851 16.637C8.77 16.593 9.74699 16.739 10.747 17.066L11.063 17.169L10.743 17.255C9.703 17.531 8.691 18.075 7.64 18.914L7.423 19.088L7.481 18.816ZM7.769 19.375C9.289 18.114 10.775 17.488 12.224 17.507C12.898 17.515 13.583 17.681 14.277 17.992C14.966 18.303 15.663 18.768 16.357 19.379L16.554 19.552H7.56L7.769 19.375ZM16.419 18.871C15.383 18.008 14.351 17.456 13.347 17.236L12.988 17.157L13.339 17.046C14.257 16.751 15.178 16.613 16.085 16.637L16.168 16.64L16.179 16.723C16.27 17.405 16.4 18.071 16.581 18.768L16.656 19.068L16.419 18.871ZM16.62 16.79L16.601 16.668L16.727 16.68C17.551 16.763 18.386 16.995 19.217 17.366L19.355 17.429L17.215 19.379L17.173 19.225C16.9 18.268 16.719 17.472 16.62 16.79ZM17.531 12.042C17.531 10.509 18.145 8.95302 19.355 7.41602L19.528 7.19501V16.826L19.355 16.605C18.145 15.092 17.531 13.555 17.531 12.042ZM18.137 2.668L18 2.82901C17.641 3.25501 17.274 3.64101 16.912 3.98401L16.885 4.01102H6.989L6.95799 3.98001C6.61899 3.64101 6.27199 3.25101 5.93399 2.82501L5.808 2.668H18.137ZM5.327 2.77002L5.39 2.85703C5.768 3.36503 6.16599 3.80301 6.50499 4.16101L6.576 4.23602L4.263 6.32401L4.196 6.25C3.849 5.84 3.424 5.44202 2.896 5.02802L2.80099 4.957L5.327 2.77002ZM2.668 5.38303L2.82899 5.513C3.25499 5.855 3.645 6.24602 3.987 6.67502L4.011 6.703V17.153L3.987 17.18C3.605 17.657 3.21899 18.075 2.83299 18.422L2.668 18.571V5.38303ZM5.343 21.247L2.786 19.048L2.873 18.973C3.334 18.575 3.755 18.154 4.133 17.712L4.196 17.637L6.68599 19.789L6.61099 19.864C6.24799 20.222 5.85799 20.652 5.40599 21.172L5.343 21.247ZM5.838 21.334L5.97699 21.172C6.33899 20.746 6.70499 20.36 7.06799 20.017L7.095 19.99H16.99L17.018 20.021C17.362 20.36 17.704 20.75 18.046 21.176L18.173 21.334H5.838ZM18.653 21.231L18.591 21.148C18.279 20.743 17.917 20.313 17.491 19.836L17.428 19.765L19.733 17.681L19.796 17.748C20.264 18.213 20.69 18.615 21.107 18.973L21.194 19.048L18.653 21.231ZM21.312 18.583L21.147 18.445C20.69 18.055 20.312 17.693 19.993 17.33L19.969 17.302V6.71802L19.993 6.69101C20.363 6.27701 20.785 5.887 21.147 5.56L21.312 5.41V18.583Z" stroke="black" stroke-opacity="0.2" stroke-width="0.2"/>
<path d="M21.674 4.76801L18.814 2.35101C18.73 2.26801 18.641 2.25 18.607 2.25H5.355C5.315 2.25 5.252 2.25001 5.17 2.33301L2.347 4.76801C2.286 4.82101 2.25 4.898 2.25 4.979V18.971C2.25 19.096 2.30499 19.215 2.39999 19.297L5.166 21.672C5.224 21.724 5.28 21.755 5.41 21.755H18.558C18.593 21.755 18.706 21.755 18.814 21.656L21.678 19.229C21.722 19.186 21.75 19.127 21.75 19.072V4.953C21.749 4.882 21.726 4.81901 21.674 4.76801ZM18.657 2.77402L21.194 4.953L21.103 5.02802C20.556 5.48102 20.142 5.871 19.8 6.25L19.737 6.32001L17.314 4.23602L17.389 4.16101C17.751 3.79901 18.145 3.373 18.595 2.849L18.657 2.77402ZM7.123 7.32101C6.276 7.21101 5.50399 6.98602 4.75999 6.63202L4.625 6.569L6.785 4.62201L6.828 4.78C7.052 5.639 7.18599 6.45802 7.23399 7.21902L7.241 7.33701L7.123 7.32101ZM7.257 7.77103L7.25299 7.86102C7.23399 9.05902 6.97399 10.135 6.47699 11.049L6.327 11.333L6.29599 11.014C6.16999 9.74901 5.748 8.51502 5.078 7.44702L4.929 7.207L5.19699 7.302C5.90999 7.554 6.55199 7.704 7.16699 7.763L7.257 7.77103ZM4.629 7.55402C5.429 8.81902 5.854 10.186 5.89799 11.616C5.96099 13.216 5.524 14.82 4.629 16.258L4.448 16.55V7.26602L4.629 7.55402ZM4.76399 17.366C5.59499 16.995 6.41799 16.763 7.20999 16.68L7.31999 16.668L7.31599 16.782C7.29599 17.535 7.159 18.359 6.91 19.225L6.867 19.375L4.621 17.429L4.76399 17.366ZM7.23 16.239C6.461 16.325 5.72899 16.503 5.05099 16.763L4.76799 16.873L4.933 16.617C5.646 15.514 6.099 14.276 6.272 12.944L6.312 12.645L6.457 12.909C6.989 13.874 7.27999 14.962 7.31599 16.136L7.31999 16.227L7.23 16.239ZM6.461 12.058L6.418 11.999L6.461 11.943C7.245 10.852 7.678 9.457 7.714 7.901L7.718 7.806H8.088C9.364 7.806 10.673 7.52201 11.972 6.96301L12.012 6.94702L12.051 6.96301C13.351 7.52201 14.655 7.806 15.932 7.806H16.037L16.053 7.90802C15.947 9.57102 16.254 10.891 16.986 11.943L17.026 12.003L16.99 12.058C16.286 13.074 15.99 14.43 16.117 16.093L16.125 16.199L16.018 16.195C14.718 16.179 13.37 16.459 12.028 17.038L11.988 17.054L11.952 17.038C10.566 16.459 9.195 16.176 7.879 16.195L7.78099 16.199L7.77699 16.101C7.72599 14.588 7.28 13.224 6.461 12.058ZM17.105 11.333L16.968 11.045C16.554 10.17 16.384 9.10201 16.471 7.87701L16.475 7.79001L16.562 7.78201C17.259 7.71901 17.948 7.574 18.613 7.345L18.917 7.23901L18.724 7.49503C17.869 8.64503 17.342 9.831 17.153 11.017L17.105 11.333ZM18.704 16.487L18.886 16.735L18.595 16.637C17.94 16.42 17.282 16.278 16.644 16.219L16.562 16.211L16.554 16.128C16.451 14.926 16.589 13.866 16.968 12.98L17.101 12.668L17.153 13.003C17.342 14.166 17.849 15.305 18.704 16.487ZM16.64 7.345L16.522 7.35703L16.534 7.23502C16.62 6.46602 16.794 5.639 17.046 4.776L17.089 4.63L19.359 6.569L19.217 6.63602C18.386 7.01802 17.519 7.258 16.64 7.345ZM16.495 5.19C16.294 5.907 16.16 6.60802 16.093 7.27802L16.085 7.36502H15.998C15.057 7.36502 14.158 7.223 13.253 6.935L12.929 6.83301L13.257 6.746C14.289 6.47 15.325 5.91501 16.337 5.08701L16.578 4.89001L16.495 5.19ZM16.207 4.62601C14.714 5.86701 13.261 6.49802 11.886 6.49802C11.842 6.49802 11.799 6.49402 11.755 6.49402C10.405 6.47402 9.014 5.84401 7.62 4.62201L7.423 4.44901H16.415L16.207 4.62601ZM7.537 5.13C8.537 5.989 9.57299 6.53702 10.609 6.76602L10.964 6.845L10.621 6.95502C9.766 7.23502 8.943 7.37302 8.116 7.37302C7.998 7.37302 7.883 7.36902 7.765 7.36502L7.674 7.36102L7.67 7.27002C7.65 6.67902 7.556 6.009 7.379 5.229L7.312 4.93701L7.537 5.13ZM7.481 18.816C7.643 18.098 7.734 17.397 7.757 16.731L7.761 16.641L7.851 16.637C8.77 16.593 9.74699 16.739 10.747 17.066L11.063 17.169L10.743 17.255C9.703 17.531 8.691 18.075 7.64 18.914L7.423 19.088L7.481 18.816ZM7.769 19.375C9.289 18.114 10.775 17.488 12.224 17.507C12.898 17.515 13.583 17.681 14.277 17.992C14.966 18.303 15.663 18.768 16.357 19.379L16.554 19.552H7.56L7.769 19.375ZM16.419 18.871C15.383 18.008 14.351 17.456 13.347 17.236L12.988 17.157L13.339 17.046C14.257 16.751 15.178 16.613 16.085 16.637L16.168 16.64L16.179 16.723C16.27 17.405 16.4 18.071 16.581 18.768L16.656 19.068L16.419 18.871ZM16.62 16.79L16.601 16.668L16.727 16.68C17.551 16.763 18.386 16.995 19.217 17.366L19.355 17.429L17.215 19.379L17.173 19.225C16.9 18.268 16.719 17.472 16.62 16.79ZM17.531 12.042C17.531 10.509 18.145 8.95302 19.355 7.41602L19.528 7.19501V16.826L19.355 16.605C18.145 15.092 17.531 13.555 17.531 12.042ZM18.137 2.668L18 2.82901C17.641 3.25501 17.274 3.64101 16.912 3.98401L16.885 4.01102H6.989L6.95799 3.98001C6.61899 3.64101 6.27199 3.25101 5.93399 2.82501L5.808 2.668H18.137ZM5.327 2.77002L5.39 2.85703C5.768 3.36503 6.16599 3.80301 6.50499 4.16101L6.576 4.23602L4.263 6.32401L4.196 6.25C3.849 5.84 3.424 5.44202 2.896 5.02802L2.80099 4.957L5.327 2.77002ZM2.668 5.38303L2.82899 5.513C3.25499 5.855 3.645 6.24602 3.987 6.67502L4.011 6.703V17.153L3.987 17.18C3.605 17.657 3.21899 18.075 2.83299 18.422L2.668 18.571V5.38303ZM5.343 21.247L2.786 19.048L2.873 18.973C3.334 18.575 3.755 18.154 4.133 17.712L4.196 17.637L6.68599 19.789L6.61099 19.864C6.24799 20.222 5.85799 20.652 5.40599 21.172L5.343 21.247ZM5.838 21.334L5.97699 21.172C6.33899 20.746 6.70499 20.36 7.06799 20.017L7.095 19.99H16.99L17.018 20.021C17.362 20.36 17.704 20.75 18.046 21.176L18.173 21.334H5.838ZM18.653 21.231L18.591 21.148C18.279 20.743 17.917 20.313 17.491 19.836L17.428 19.765L19.733 17.681L19.796 17.748C20.264 18.213 20.69 18.615 21.107 18.973L21.194 19.048L18.653 21.231ZM21.312 18.583L21.147 18.445C20.69 18.055 20.312 17.693 19.993 17.33L19.969 17.302V6.71802L19.993 6.69101C20.363 6.27701 20.785 5.887 21.147 5.56L21.312 5.41V18.583Z" stroke="black" stroke-opacity="0.2" stroke-width="0.2"/>
<path d="M21.674 4.76801L18.814 2.35101C18.73 2.26801 18.641 2.25 18.607 2.25H5.355C5.315 2.25 5.252 2.25001 5.17 2.33301L2.347 4.76801C2.286 4.82101 2.25 4.898 2.25 4.979V18.971C2.25 19.096 2.30499 19.215 2.39999 19.297L5.166 21.672C5.224 21.724 5.28 21.755 5.41 21.755H18.558C18.593 21.755 18.706 21.755 18.814 21.656L21.678 19.229C21.722 19.186 21.75 19.127 21.75 19.072V4.953C21.749 4.882 21.726 4.81901 21.674 4.76801ZM18.657 2.77402L21.194 4.953L21.103 5.02802C20.556 5.48102 20.142 5.871 19.8 6.25L19.737 6.32001L17.314 4.23602L17.389 4.16101C17.751 3.79901 18.145 3.373 18.595 2.849L18.657 2.77402ZM7.123 7.32101C6.276 7.21101 5.50399 6.98602 4.75999 6.63202L4.625 6.569L6.785 4.62201L6.828 4.78C7.052 5.639 7.18599 6.45802 7.23399 7.21902L7.241 7.33701L7.123 7.32101ZM7.257 7.77103L7.25299 7.86102C7.23399 9.05902 6.97399 10.135 6.47699 11.049L6.327 11.333L6.29599 11.014C6.16999 9.74901 5.748 8.51502 5.078 7.44702L4.929 7.207L5.19699 7.302C5.90999 7.554 6.55199 7.704 7.16699 7.763L7.257 7.77103ZM4.629 7.55402C5.429 8.81902 5.854 10.186 5.89799 11.616C5.96099 13.216 5.524 14.82 4.629 16.258L4.448 16.55V7.26602L4.629 7.55402ZM4.76399 17.366C5.59499 16.995 6.41799 16.763 7.20999 16.68L7.31999 16.668L7.31599 16.782C7.29599 17.535 7.159 18.359 6.91 19.225L6.867 19.375L4.621 17.429L4.76399 17.366ZM7.23 16.239C6.461 16.325 5.72899 16.503 5.05099 16.763L4.76799 16.873L4.933 16.617C5.646 15.514 6.099 14.276 6.272 12.944L6.312 12.645L6.457 12.909C6.989 13.874 7.27999 14.962 7.31599 16.136L7.31999 16.227L7.23 16.239ZM6.461 12.058L6.418 11.999L6.461 11.943C7.245 10.852 7.678 9.457 7.714 7.901L7.718 7.806H8.088C9.364 7.806 10.673 7.52201 11.972 6.96301L12.012 6.94702L12.051 6.96301C13.351 7.52201 14.655 7.806 15.932 7.806H16.037L16.053 7.90802C15.947 9.57102 16.254 10.891 16.986 11.943L17.026 12.003L16.99 12.058C16.286 13.074 15.99 14.43 16.117 16.093L16.125 16.199L16.018 16.195C14.718 16.179 13.37 16.459 12.028 17.038L11.988 17.054L11.952 17.038C10.566 16.459 9.195 16.176 7.879 16.195L7.78099 16.199L7.77699 16.101C7.72599 14.588 7.28 13.224 6.461 12.058ZM17.105 11.333L16.968 11.045C16.554 10.17 16.384 9.10201 16.471 7.87701L16.475 7.79001L16.562 7.78201C17.259 7.71901 17.948 7.574 18.613 7.345L18.917 7.23901L18.724 7.49503C17.869 8.64503 17.342 9.831 17.153 11.017L17.105 11.333ZM18.704 16.487L18.886 16.735L18.595 16.637C17.94 16.42 17.282 16.278 16.644 16.219L16.562 16.211L16.554 16.128C16.451 14.926 16.589 13.866 16.968 12.98L17.101 12.668L17.153 13.003C17.342 14.166 17.849 15.305 18.704 16.487ZM16.64 7.345L16.522 7.35703L16.534 7.23502C16.62 6.46602 16.794 5.639 17.046 4.776L17.089 4.63L19.359 6.569L19.217 6.63602C18.386 7.01802 17.519 7.258 16.64 7.345ZM16.495 5.19C16.294 5.907 16.16 6.60802 16.093 7.27802L16.085 7.36502H15.998C15.057 7.36502 14.158 7.223 13.253 6.935L12.929 6.83301L13.257 6.746C14.289 6.47 15.325 5.91501 16.337 5.08701L16.578 4.89001L16.495 5.19ZM16.207 4.62601C14.714 5.86701 13.261 6.49802 11.886 6.49802C11.842 6.49802 11.799 6.49402 11.755 6.49402C10.405 6.47402 9.014 5.84401 7.62 4.62201L7.423 4.44901H16.415L16.207 4.62601ZM7.537 5.13C8.537 5.989 9.57299 6.53702 10.609 6.76602L10.964 6.845L10.621 6.95502C9.766 7.23502 8.943 7.37302 8.116 7.37302C7.998 7.37302 7.883 7.36902 7.765 7.36502L7.674 7.36102L7.67 7.27002C7.65 6.67902 7.556 6.009 7.379 5.229L7.312 4.93701L7.537 5.13ZM7.481 18.816C7.643 18.098 7.734 17.397 7.757 16.731L7.761 16.641L7.851 16.637C8.77 16.593 9.74699 16.739 10.747 17.066L11.063 17.169L10.743 17.255C9.703 17.531 8.691 18.075 7.64 18.914L7.423 19.088L7.481 18.816ZM7.769 19.375C9.289 18.114 10.775 17.488 12.224 17.507C12.898 17.515 13.583 17.681 14.277 17.992C14.966 18.303 15.663 18.768 16.357 19.379L16.554 19.552H7.56L7.769 19.375ZM16.419 18.871C15.383 18.008 14.351 17.456 13.347 17.236L12.988 17.157L13.339 17.046C14.257 16.751 15.178 16.613 16.085 16.637L16.168 16.64L16.179 16.723C16.27 17.405 16.4 18.071 16.581 18.768L16.656 19.068L16.419 18.871ZM16.62 16.79L16.601 16.668L16.727 16.68C17.551 16.763 18.386 16.995 19.217 17.366L19.355 17.429L17.215 19.379L17.173 19.225C16.9 18.268 16.719 17.472 16.62 16.79ZM17.531 12.042C17.531 10.509 18.145 8.95302 19.355 7.41602L19.528 7.19501V16.826L19.355 16.605C18.145 15.092 17.531 13.555 17.531 12.042ZM18.137 2.668L18 2.82901C17.641 3.25501 17.274 3.64101 16.912 3.98401L16.885 4.01102H6.989L6.95799 3.98001C6.61899 3.64101 6.27199 3.25101 5.93399 2.82501L5.808 2.668H18.137ZM5.327 2.77002L5.39 2.85703C5.768 3.36503 6.16599 3.80301 6.50499 4.16101L6.576 4.23602L4.263 6.32401L4.196 6.25C3.849 5.84 3.424 5.44202 2.896 5.02802L2.80099 4.957L5.327 2.77002ZM2.668 5.38303L2.82899 5.513C3.25499 5.855 3.645 6.24602 3.987 6.67502L4.011 6.703V17.153L3.987 17.18C3.605 17.657 3.21899 18.075 2.83299 18.422L2.668 18.571V5.38303ZM5.343 21.247L2.786 19.048L2.873 18.973C3.334 18.575 3.755 18.154 4.133 17.712L4.196 17.637L6.68599 19.789L6.61099 19.864C6.24799 20.222 5.85799 20.652 5.40599 21.172L5.343 21.247ZM5.838 21.334L5.97699 21.172C6.33899 20.746 6.70499 20.36 7.06799 20.017L7.095 19.99H16.99L17.018 20.021C17.362 20.36 17.704 20.75 18.046 21.176L18.173 21.334H5.838ZM18.653 21.231L18.591 21.148C18.279 20.743 17.917 20.313 17.491 19.836L17.428 19.765L19.733 17.681L19.796 17.748C20.264 18.213 20.69 18.615 21.107 18.973L21.194 19.048L18.653 21.231ZM21.312 18.583L21.147 18.445C20.69 18.055 20.312 17.693 19.993 17.33L19.969 17.302V6.71802L19.993 6.69101C20.363 6.27701 20.785 5.887 21.147 5.56L21.312 5.41V18.583Z" stroke="black" stroke-opacity="0.2" stroke-width="0.2"/>
<path d="M21.674 4.76801L18.814 2.35101C18.73 2.26801 18.641 2.25 18.607 2.25H5.355C5.315 2.25 5.252 2.25001 5.17 2.33301L2.347 4.76801C2.286 4.82101 2.25 4.898 2.25 4.979V18.971C2.25 19.096 2.30499 19.215 2.39999 19.297L5.166 21.672C5.224 21.724 5.28 21.755 5.41 21.755H18.558C18.593 21.755 18.706 21.755 18.814 21.656L21.678 19.229C21.722 19.186 21.75 19.127 21.75 19.072V4.953C21.749 4.882 21.726 4.81901 21.674 4.76801ZM18.657 2.77402L21.194 4.953L21.103 5.02802C20.556 5.48102 20.142 5.871 19.8 6.25L19.737 6.32001L17.314 4.23602L17.389 4.16101C17.751 3.79901 18.145 3.373 18.595 2.849L18.657 2.77402ZM7.123 7.32101C6.276 7.21101 5.50399 6.98602 4.75999 6.63202L4.625 6.569L6.785 4.62201L6.828 4.78C7.052 5.639 7.18599 6.45802 7.23399 7.21902L7.241 7.33701L7.123 7.32101ZM7.257 7.77103L7.25299 7.86102C7.23399 9.05902 6.97399 10.135 6.47699 11.049L6.327 11.333L6.29599 11.014C6.16999 9.74901 5.748 8.51502 5.078 7.44702L4.929 7.207L5.19699 7.302C5.90999 7.554 6.55199 7.704 7.16699 7.763L7.257 7.77103ZM4.629 7.55402C5.429 8.81902 5.854 10.186 5.89799 11.616C5.96099 13.216 5.524 14.82 4.629 16.258L4.448 16.55V7.26602L4.629 7.55402ZM4.76399 17.366C5.59499 16.995 6.41799 16.763 7.20999 16.68L7.31999 16.668L7.31599 16.782C7.29599 17.535 7.159 18.359 6.91 19.225L6.867 19.375L4.621 17.429L4.76399 17.366ZM7.23 16.239C6.461 16.325 5.72899 16.503 5.05099 16.763L4.76799 16.873L4.933 16.617C5.646 15.514 6.099 14.276 6.272 12.944L6.312 12.645L6.457 12.909C6.989 13.874 7.27999 14.962 7.31599 16.136L7.31999 16.227L7.23 16.239ZM6.461 12.058L6.418 11.999L6.461 11.943C7.245 10.852 7.678 9.457 7.714 7.901L7.718 7.806H8.088C9.364 7.806 10.673 7.52201 11.972 6.96301L12.012 6.94702L12.051 6.96301C13.351 7.52201 14.655 7.806 15.932 7.806H16.037L16.053 7.90802C15.947 9.57102 16.254 10.891 16.986 11.943L17.026 12.003L16.99 12.058C16.286 13.074 15.99 14.43 16.117 16.093L16.125 16.199L16.018 16.195C14.718 16.179 13.37 16.459 12.028 17.038L11.988 17.054L11.952 17.038C10.566 16.459 9.195 16.176 7.879 16.195L7.78099 16.199L7.77699 16.101C7.72599 14.588 7.28 13.224 6.461 12.058ZM17.105 11.333L16.968 11.045C16.554 10.17 16.384 9.10201 16.471 7.87701L16.475 7.79001L16.562 7.78201C17.259 7.71901 17.948 7.574 18.613 7.345L18.917 7.23901L18.724 7.49503C17.869 8.64503 17.342 9.831 17.153 11.017L17.105 11.333ZM18.704 16.487L18.886 16.735L18.595 16.637C17.94 16.42 17.282 16.278 16.644 16.219L16.562 16.211L16.554 16.128C16.451 14.926 16.589 13.866 16.968 12.98L17.101 12.668L17.153 13.003C17.342 14.166 17.849 15.305 18.704 16.487ZM16.64 7.345L16.522 7.35703L16.534 7.23502C16.62 6.46602 16.794 5.639 17.046 4.776L17.089 4.63L19.359 6.569L19.217 6.63602C18.386 7.01802 17.519 7.258 16.64 7.345ZM16.495 5.19C16.294 5.907 16.16 6.60802 16.093 7.27802L16.085 7.36502H15.998C15.057 7.36502 14.158 7.223 13.253 6.935L12.929 6.83301L13.257 6.746C14.289 6.47 15.325 5.91501 16.337 5.08701L16.578 4.89001L16.495 5.19ZM16.207 4.62601C14.714 5.86701 13.261 6.49802 11.886 6.49802C11.842 6.49802 11.799 6.49402 11.755 6.49402C10.405 6.47402 9.014 5.84401 7.62 4.62201L7.423 4.44901H16.415L16.207 4.62601ZM7.537 5.13C8.537 5.989 9.57299 6.53702 10.609 6.76602L10.964 6.845L10.621 6.95502C9.766 7.23502 8.943 7.37302 8.116 7.37302C7.998 7.37302 7.883 7.36902 7.765 7.36502L7.674 7.36102L7.67 7.27002C7.65 6.67902 7.556 6.009 7.379 5.229L7.312 4.93701L7.537 5.13ZM7.481 18.816C7.643 18.098 7.734 17.397 7.757 16.731L7.761 16.641L7.851 16.637C8.77 16.593 9.74699 16.739 10.747 17.066L11.063 17.169L10.743 17.255C9.703 17.531 8.691 18.075 7.64 18.914L7.423 19.088L7.481 18.816ZM7.769 19.375C9.289 18.114 10.775 17.488 12.224 17.507C12.898 17.515 13.583 17.681 14.277 17.992C14.966 18.303 15.663 18.768 16.357 19.379L16.554 19.552H7.56L7.769 19.375ZM16.419 18.871C15.383 18.008 14.351 17.456 13.347 17.236L12.988 17.157L13.339 17.046C14.257 16.751 15.178 16.613 16.085 16.637L16.168 16.64L16.179 16.723C16.27 17.405 16.4 18.071 16.581 18.768L16.656 19.068L16.419 18.871ZM16.62 16.79L16.601 16.668L16.727 16.68C17.551 16.763 18.386 16.995 19.217 17.366L19.355 17.429L17.215 19.379L17.173 19.225C16.9 18.268 16.719 17.472 16.62 16.79ZM17.531 12.042C17.531 10.509 18.145 8.95302 19.355 7.41602L19.528 7.19501V16.826L19.355 16.605C18.145 15.092 17.531 13.555 17.531 12.042ZM18.137 2.668L18 2.82901C17.641 3.25501 17.274 3.64101 16.912 3.98401L16.885 4.01102H6.989L6.95799 3.98001C6.61899 3.64101 6.27199 3.25101 5.93399 2.82501L5.808 2.668H18.137ZM5.327 2.77002L5.39 2.85703C5.768 3.36503 6.16599 3.80301 6.50499 4.16101L6.576 4.23602L4.263 6.32401L4.196 6.25C3.849 5.84 3.424 5.44202 2.896 5.02802L2.80099 4.957L5.327 2.77002ZM2.668 5.38303L2.82899 5.513C3.25499 5.855 3.645 6.24602 3.987 6.67502L4.011 6.703V17.153L3.987 17.18C3.605 17.657 3.21899 18.075 2.83299 18.422L2.668 18.571V5.38303ZM5.343 21.247L2.786 19.048L2.873 18.973C3.334 18.575 3.755 18.154 4.133 17.712L4.196 17.637L6.68599 19.789L6.61099 19.864C6.24799 20.222 5.85799 20.652 5.40599 21.172L5.343 21.247ZM5.838 21.334L5.97699 21.172C6.33899 20.746 6.70499 20.36 7.06799 20.017L7.095 19.99H16.99L17.018 20.021C17.362 20.36 17.704 20.75 18.046 21.176L18.173 21.334H5.838ZM18.653 21.231L18.591 21.148C18.279 20.743 17.917 20.313 17.491 19.836L17.428 19.765L19.733 17.681L19.796 17.748C20.264 18.213 20.69 18.615 21.107 18.973L21.194 19.048L18.653 21.231ZM21.312 18.583L21.147 18.445C20.69 18.055 20.312 17.693 19.993 17.33L19.969 17.302V6.71802L19.993 6.69101C20.363 6.27701 20.785 5.887 21.147 5.56L21.312 5.41V18.583Z" stroke="black" stroke-opacity="0.2" stroke-width="0.2"/>
<path d="M21.674 4.76801L18.814 2.35101C18.73 2.26801 18.641 2.25 18.607 2.25H5.355C5.315 2.25 5.252 2.25001 5.17 2.33301L2.347 4.76801C2.286 4.82101 2.25 4.898 2.25 4.979V18.971C2.25 19.096 2.30499 19.215 2.39999 19.297L5.166 21.672C5.224 21.724 5.28 21.755 5.41 21.755H18.558C18.593 21.755 18.706 21.755 18.814 21.656L21.678 19.229C21.722 19.186 21.75 19.127 21.75 19.072V4.953C21.749 4.882 21.726 4.81901 21.674 4.76801ZM18.657 2.77402L21.194 4.953L21.103 5.02802C20.556 5.48102 20.142 5.871 19.8 6.25L19.737 6.32001L17.314 4.23602L17.389 4.16101C17.751 3.79901 18.145 3.373 18.595 2.849L18.657 2.77402ZM7.123 7.32101C6.276 7.21101 5.50399 6.98602 4.75999 6.63202L4.625 6.569L6.785 4.62201L6.828 4.78C7.052 5.639 7.18599 6.45802 7.23399 7.21902L7.241 7.33701L7.123 7.32101ZM7.257 7.77103L7.25299 7.86102C7.23399 9.05902 6.97399 10.135 6.47699 11.049L6.327 11.333L6.29599 11.014C6.16999 9.74901 5.748 8.51502 5.078 7.44702L4.929 7.207L5.19699 7.302C5.90999 7.554 6.55199 7.704 7.16699 7.763L7.257 7.77103ZM4.629 7.55402C5.429 8.81902 5.854 10.186 5.89799 11.616C5.96099 13.216 5.524 14.82 4.629 16.258L4.448 16.55V7.26602L4.629 7.55402ZM4.76399 17.366C5.59499 16.995 6.41799 16.763 7.20999 16.68L7.31999 16.668L7.31599 16.782C7.29599 17.535 7.159 18.359 6.91 19.225L6.867 19.375L4.621 17.429L4.76399 17.366ZM7.23 16.239C6.461 16.325 5.72899 16.503 5.05099 16.763L4.76799 16.873L4.933 16.617C5.646 15.514 6.099 14.276 6.272 12.944L6.312 12.645L6.457 12.909C6.989 13.874 7.27999 14.962 7.31599 16.136L7.31999 16.227L7.23 16.239ZM6.461 12.058L6.418 11.999L6.461 11.943C7.245 10.852 7.678 9.457 7.714 7.901L7.718 7.806H8.088C9.364 7.806 10.673 7.52201 11.972 6.96301L12.012 6.94702L12.051 6.96301C13.351 7.52201 14.655 7.806 15.932 7.806H16.037L16.053 7.90802C15.947 9.57102 16.254 10.891 16.986 11.943L17.026 12.003L16.99 12.058C16.286 13.074 15.99 14.43 16.117 16.093L16.125 16.199L16.018 16.195C14.718 16.179 13.37 16.459 12.028 17.038L11.988 17.054L11.952 17.038C10.566 16.459 9.195 16.176 7.879 16.195L7.78099 16.199L7.77699 16.101C7.72599 14.588 7.28 13.224 6.461 12.058ZM17.105 11.333L16.968 11.045C16.554 10.17 16.384 9.10201 16.471 7.87701L16.475 7.79001L16.562 7.78201C17.259 7.71901 17.948 7.574 18.613 7.345L18.917 7.23901L18.724 7.49503C17.869 8.64503 17.342 9.831 17.153 11.017L17.105 11.333ZM18.704 16.487L18.886 16.735L18.595 16.637C17.94 16.42 17.282 16.278 16.644 16.219L16.562 16.211L16.554 16.128C16.451 14.926 16.589 13.866 16.968 12.98L17.101 12.668L17.153 13.003C17.342 14.166 17.849 15.305 18.704 16.487ZM16.64 7.345L16.522 7.35703L16.534 7.23502C16.62 6.46602 16.794 5.639 17.046 4.776L17.089 4.63L19.359 6.569L19.217 6.63602C18.386 7.01802 17.519 7.258 16.64 7.345ZM16.495 5.19C16.294 5.907 16.16 6.60802 16.093 7.27802L16.085 7.36502H15.998C15.057 7.36502 14.158 7.223 13.253 6.935L12.929 6.83301L13.257 6.746C14.289 6.47 15.325 5.91501 16.337 5.08701L16.578 4.89001L16.495 5.19ZM16.207 4.62601C14.714 5.86701 13.261 6.49802 11.886 6.49802C11.842 6.49802 11.799 6.49402 11.755 6.49402C10.405 6.47402 9.014 5.84401 7.62 4.62201L7.423 4.44901H16.415L16.207 4.62601ZM7.537 5.13C8.537 5.989 9.57299 6.53702 10.609 6.76602L10.964 6.845L10.621 6.95502C9.766 7.23502 8.943 7.37302 8.116 7.37302C7.998 7.37302 7.883 7.36902 7.765 7.36502L7.674 7.36102L7.67 7.27002C7.65 6.67902 7.556 6.009 7.379 5.229L7.312 4.93701L7.537 5.13ZM7.481 18.816C7.643 18.098 7.734 17.397 7.757 16.731L7.761 16.641L7.851 16.637C8.77 16.593 9.74699 16.739 10.747 17.066L11.063 17.169L10.743 17.255C9.703 17.531 8.691 18.075 7.64 18.914L7.423 19.088L7.481 18.816ZM7.769 19.375C9.289 18.114 10.775 17.488 12.224 17.507C12.898 17.515 13.583 17.681 14.277 17.992C14.966 18.303 15.663 18.768 16.357 19.379L16.554 19.552H7.56L7.769 19.375ZM16.419 18.871C15.383 18.008 14.351 17.456 13.347 17.236L12.988 17.157L13.339 17.046C14.257 16.751 15.178 16.613 16.085 16.637L16.168 16.64L16.179 16.723C16.27 17.405 16.4 18.071 16.581 18.768L16.656 19.068L16.419 18.871ZM16.62 16.79L16.601 16.668L16.727 16.68C17.551 16.763 18.386 16.995 19.217 17.366L19.355 17.429L17.215 19.379L17.173 19.225C16.9 18.268 16.719 17.472 16.62 16.79ZM17.531 12.042C17.531 10.509 18.145 8.95302 19.355 7.41602L19.528 7.19501V16.826L19.355 16.605C18.145 15.092 17.531 13.555 17.531 12.042ZM18.137 2.668L18 2.82901C17.641 3.25501 17.274 3.64101 16.912 3.98401L16.885 4.01102H6.989L6.95799 3.98001C6.61899 3.64101 6.27199 3.25101 5.93399 2.82501L5.808 2.668H18.137ZM5.327 2.77002L5.39 2.85703C5.768 3.36503 6.16599 3.80301 6.50499 4.16101L6.576 4.23602L4.263 6.32401L4.196 6.25C3.849 5.84 3.424 5.44202 2.896 5.02802L2.80099 4.957L5.327 2.77002ZM2.668 5.38303L2.82899 5.513C3.25499 5.855 3.645 6.24602 3.987 6.67502L4.011 6.703V17.153L3.987 17.18C3.605 17.657 3.21899 18.075 2.83299 18.422L2.668 18.571V5.38303ZM5.343 21.247L2.786 19.048L2.873 18.973C3.334 18.575 3.755 18.154 4.133 17.712L4.196 17.637L6.68599 19.789L6.61099 19.864C6.24799 20.222 5.85799 20.652 5.40599 21.172L5.343 21.247ZM5.838 21.334L5.97699 21.172C6.33899 20.746 6.70499 20.36 7.06799 20.017L7.095 19.99H16.99L17.018 20.021C17.362 20.36 17.704 20.75 18.046 21.176L18.173 21.334H5.838ZM18.653 21.231L18.591 21.148C18.279 20.743 17.917 20.313 17.491 19.836L17.428 19.765L19.733 17.681L19.796 17.748C20.264 18.213 20.69 18.615 21.107 18.973L21.194 19.048L18.653 21.231ZM21.312 18.583L21.147 18.445C20.69 18.055 20.312 17.693 19.993 17.33L19.969 17.302V6.71802L19.993 6.69101C20.363 6.27701 20.785 5.887 21.147 5.56L21.312 5.41V18.583Z" stroke="black" stroke-opacity="0.2" stroke-width="0.2"/>
<path d="M21.674 4.76801L18.814 2.35101C18.73 2.26801 18.641 2.25 18.607 2.25H5.355C5.315 2.25 5.252 2.25001 5.17 2.33301L2.347 4.76801C2.286 4.82101 2.25 4.898 2.25 4.979V18.971C2.25 19.096 2.30499 19.215 2.39999 19.297L5.166 21.672C5.224 21.724 5.28 21.755 5.41 21.755H18.558C18.593 21.755 18.706 21.755 18.814 21.656L21.678 19.229C21.722 19.186 21.75 19.127 21.75 19.072V4.953C21.749 4.882 21.726 4.81901 21.674 4.76801ZM18.657 2.77402L21.194 4.953L21.103 5.02802C20.556 5.48102 20.142 5.871 19.8 6.25L19.737 6.32001L17.314 4.23602L17.389 4.16101C17.751 3.79901 18.145 3.373 18.595 2.849L18.657 2.77402ZM7.123 7.32101C6.276 7.21101 5.50399 6.98602 4.75999 6.63202L4.625 6.569L6.785 4.62201L6.828 4.78C7.052 5.639 7.18599 6.45802 7.23399 7.21902L7.241 7.33701L7.123 7.32101ZM7.257 7.77103L7.25299 7.86102C7.23399 9.05902 6.97399 10.135 6.47699 11.049L6.327 11.333L6.29599 11.014C6.16999 9.74901 5.748 8.51502 5.078 7.44702L4.929 7.207L5.19699 7.302C5.90999 7.554 6.55199 7.704 7.16699 7.763L7.257 7.77103ZM4.629 7.55402C5.429 8.81902 5.854 10.186 5.89799 11.616C5.96099 13.216 5.524 14.82 4.629 16.258L4.448 16.55V7.26602L4.629 7.55402ZM4.76399 17.366C5.59499 16.995 6.41799 16.763 7.20999 16.68L7.31999 16.668L7.31599 16.782C7.29599 17.535 7.159 18.359 6.91 19.225L6.867 19.375L4.621 17.429L4.76399 17.366ZM7.23 16.239C6.461 16.325 5.72899 16.503 5.05099 16.763L4.76799 16.873L4.933 16.617C5.646 15.514 6.099 14.276 6.272 12.944L6.312 12.645L6.457 12.909C6.989 13.874 7.27999 14.962 7.31599 16.136L7.31999 16.227L7.23 16.239ZM6.461 12.058L6.418 11.999L6.461 11.943C7.245 10.852 7.678 9.457 7.714 7.901L7.718 7.806H8.088C9.364 7.806 10.673 7.52201 11.972 6.96301L12.012 6.94702L12.051 6.96301C13.351 7.52201 14.655 7.806 15.932 7.806H16.037L16.053 7.90802C15.947 9.57102 16.254 10.891 16.986 11.943L17.026 12.003L16.99 12.058C16.286 13.074 15.99 14.43 16.117 16.093L16.125 16.199L16.018 16.195C14.718 16.179 13.37 16.459 12.028 17.038L11.988 17.054L11.952 17.038C10.566 16.459 9.195 16.176 7.879 16.195L7.78099 16.199L7.77699 16.101C7.72599 14.588 7.28 13.224 6.461 12.058ZM17.105 11.333L16.968 11.045C16.554 10.17 16.384 9.10201 16.471 7.87701L16.475 7.79001L16.562 7.78201C17.259 7.71901 17.948 7.574 18.613 7.345L18.917 7.23901L18.724 7.49503C17.869 8.64503 17.342 9.831 17.153 11.017L17.105 11.333ZM18.704 16.487L18.886 16.735L18.595 16.637C17.94 16.42 17.282 16.278 16.644 16.219L16.562 16.211L16.554 16.128C16.451 14.926 16.589 13.866 16.968 12.98L17.101 12.668L17.153 13.003C17.342 14.166 17.849 15.305 18.704 16.487ZM16.64 7.345L16.522 7.35703L16.534 7.23502C16.62 6.46602 16.794 5.639 17.046 4.776L17.089 4.63L19.359 6.569L19.217 6.63602C18.386 7.01802 17.519 7.258 16.64 7.345ZM16.495 5.19C16.294 5.907 16.16 6.60802 16.093 7.27802L16.085 7.36502H15.998C15.057 7.36502 14.158 7.223 13.253 6.935L12.929 6.83301L13.257 6.746C14.289 6.47 15.325 5.91501 16.337 5.08701L16.578 4.89001L16.495 5.19ZM16.207 4.62601C14.714 5.86701 13.261 6.49802 11.886 6.49802C11.842 6.49802 11.799 6.49402 11.755 6.49402C10.405 6.47402 9.014 5.84401 7.62 4.62201L7.423 4.44901H16.415L16.207 4.62601ZM7.537 5.13C8.537 5.989 9.57299 6.53702 10.609 6.76602L10.964 6.845L10.621 6.95502C9.766 7.23502 8.943 7.37302 8.116 7.37302C7.998 7.37302 7.883 7.36902 7.765 7.36502L7.674 7.36102L7.67 7.27002C7.65 6.67902 7.556 6.009 7.379 5.229L7.312 4.93701L7.537 5.13ZM7.481 18.816C7.643 18.098 7.734 17.397 7.757 16.731L7.761 16.641L7.851 16.637C8.77 16.593 9.74699 16.739 10.747 17.066L11.063 17.169L10.743 17.255C9.703 17.531 8.691 18.075 7.64 18.914L7.423 19.088L7.481 18.816ZM7.769 19.375C9.289 18.114 10.775 17.488 12.224 17.507C12.898 17.515 13.583 17.681 14.277 17.992C14.966 18.303 15.663 18.768 16.357 19.379L16.554 19.552H7.56L7.769 19.375ZM16.419 18.871C15.383 18.008 14.351 17.456 13.347 17.236L12.988 17.157L13.339 17.046C14.257 16.751 15.178 16.613 16.085 16.637L16.168 16.64L16.179 16.723C16.27 17.405 16.4 18.071 16.581 18.768L16.656 19.068L16.419 18.871ZM16.62 16.79L16.601 16.668L16.727 16.68C17.551 16.763 18.386 16.995 19.217 17.366L19.355 17.429L17.215 19.379L17.173 19.225C16.9 18.268 16.719 17.472 16.62 16.79ZM17.531 12.042C17.531 10.509 18.145 8.95302 19.355 7.41602L19.528 7.19501V16.826L19.355 16.605C18.145 15.092 17.531 13.555 17.531 12.042ZM18.137 2.668L18 2.82901C17.641 3.25501 17.274 3.64101 16.912 3.98401L16.885 4.01102H6.989L6.95799 3.98001C6.61899 3.64101 6.27199 3.25101 5.93399 2.82501L5.808 2.668H18.137ZM5.327 2.77002L5.39 2.85703C5.768 3.36503 6.16599 3.80301 6.50499 4.16101L6.576 4.23602L4.263 6.32401L4.196 6.25C3.849 5.84 3.424 5.44202 2.896 5.02802L2.80099 4.957L5.327 2.77002ZM2.668 5.38303L2.82899 5.513C3.25499 5.855 3.645 6.24602 3.987 6.67502L4.011 6.703V17.153L3.987 17.18C3.605 17.657 3.21899 18.075 2.83299 18.422L2.668 18.571V5.38303ZM5.343 21.247L2.786 19.048L2.873 18.973C3.334 18.575 3.755 18.154 4.133 17.712L4.196 17.637L6.68599 19.789L6.61099 19.864C6.24799 20.222 5.85799 20.652 5.40599 21.172L5.343 21.247ZM5.838 21.334L5.97699 21.172C6.33899 20.746 6.70499 20.36 7.06799 20.017L7.095 19.99H16.99L17.018 20.021C17.362 20.36 17.704 20.75 18.046 21.176L18.173 21.334H5.838ZM18.653 21.231L18.591 21.148C18.279 20.743 17.917 20.313 17.491 19.836L17.428 19.765L19.733 17.681L19.796 17.748C20.264 18.213 20.69 18.615 21.107 18.973L21.194 19.048L18.653 21.231ZM21.312 18.583L21.147 18.445C20.69 18.055 20.312 17.693 19.993 17.33L19.969 17.302V6.71802L19.993 6.69101C20.363 6.27701 20.785 5.887 21.147 5.56L21.312 5.41V18.583Z" stroke="black" stroke-opacity="0.2" stroke-width="0.2"/>
<path d="M21.674 4.76801L18.814 2.35101C18.73 2.26801 18.641 2.25 18.607 2.25H5.355C5.315 2.25 5.252 2.25001 5.17 2.33301L2.347 4.76801C2.286 4.82101 2.25 4.898 2.25 4.979V18.971C2.25 19.096 2.30499 19.215 2.39999 19.297L5.166 21.672C5.224 21.724 5.28 21.755 5.41 21.755H18.558C18.593 21.755 18.706 21.755 18.814 21.656L21.678 19.229C21.722 19.186 21.75 19.127 21.75 19.072V4.953C21.749 4.882 21.726 4.81901 21.674 4.76801ZM18.657 2.77402L21.194 4.953L21.103 5.02802C20.556 5.48102 20.142 5.871 19.8 6.25L19.737 6.32001L17.314 4.23602L17.389 4.16101C17.751 3.79901 18.145 3.373 18.595 2.849L18.657 2.77402ZM7.123 7.32101C6.276 7.21101 5.50399 6.98602 4.75999 6.63202L4.625 6.569L6.785 4.62201L6.828 4.78C7.052 5.639 7.18599 6.45802 7.23399 7.21902L7.241 7.33701L7.123 7.32101ZM7.257 7.77103L7.25299 7.86102C7.23399 9.05902 6.97399 10.135 6.47699 11.049L6.327 11.333L6.29599 11.014C6.16999 9.74901 5.748 8.51502 5.078 7.44702L4.929 7.207L5.19699 7.302C5.90999 7.554 6.55199 7.704 7.16699 7.763L7.257 7.77103ZM4.629 7.55402C5.429 8.81902 5.854 10.186 5.89799 11.616C5.96099 13.216 5.524 14.82 4.629 16.258L4.448 16.55V7.26602L4.629 7.55402ZM4.76399 17.366C5.59499 16.995 6.41799 16.763 7.20999 16.68L7.31999 16.668L7.31599 16.782C7.29599 17.535 7.159 18.359 6.91 19.225L6.867 19.375L4.621 17.429L4.76399 17.366ZM7.23 16.239C6.461 16.325 5.72899 16.503 5.05099 16.763L4.76799 16.873L4.933 16.617C5.646 15.514 6.099 14.276 6.272 12.944L6.312 12.645L6.457 12.909C6.989 13.874 7.27999 14.962 7.31599 16.136L7.31999 16.227L7.23 16.239ZM6.461 12.058L6.418 11.999L6.461 11.943C7.245 10.852 7.678 9.457 7.714 7.901L7.718 7.806H8.088C9.364 7.806 10.673 7.52201 11.972 6.96301L12.012 6.94702L12.051 6.96301C13.351 7.52201 14.655 7.806 15.932 7.806H16.037L16.053 7.90802C15.947 9.57102 16.254 10.891 16.986 11.943L17.026 12.003L16.99 12.058C16.286 13.074 15.99 14.43 16.117 16.093L16.125 16.199L16.018 16.195C14.718 16.179 13.37 16.459 12.028 17.038L11.988 17.054L11.952 17.038C10.566 16.459 9.195 16.176 7.879 16.195L7.78099 16.199L7.77699 16.101C7.72599 14.588 7.28 13.224 6.461 12.058ZM17.105 11.333L16.968 11.045C16.554 10.17 16.384 9.10201 16.471 7.87701L16.475 7.79001L16.562 7.78201C17.259 7.71901 17.948 7.574 18.613 7.345L18.917 7.23901L18.724 7.49503C17.869 8.64503 17.342 9.831 17.153 11.017L17.105 11.333ZM18.704 16.487L18.886 16.735L18.595 16.637C17.94 16.42 17.282 16.278 16.644 16.219L16.562 16.211L16.554 16.128C16.451 14.926 16.589 13.866 16.968 12.98L17.101 12.668L17.153 13.003C17.342 14.166 17.849 15.305 18.704 16.487ZM16.64 7.345L16.522 7.35703L16.534 7.23502C16.62 6.46602 16.794 5.639 17.046 4.776L17.089 4.63L19.359 6.569L19.217 6.63602C18.386 7.01802 17.519 7.258 16.64 7.345ZM16.495 5.19C16.294 5.907 16.16 6.60802 16.093 7.27802L16.085 7.36502H15.998C15.057 7.36502 14.158 7.223 13.253 6.935L12.929 6.83301L13.257 6.746C14.289 6.47 15.325 5.91501 16.337 5.08701L16.578 4.89001L16.495 5.19ZM16.207 4.62601C14.714 5.86701 13.261 6.49802 11.886 6.49802C11.842 6.49802 11.799 6.49402 11.755 6.49402C10.405 6.47402 9.014 5.84401 7.62 4.62201L7.423 4.44901H16.415L16.207 4.62601ZM7.537 5.13C8.537 5.989 9.57299 6.53702 10.609 6.76602L10.964 6.845L10.621 6.95502C9.766 7.23502 8.943 7.37302 8.116 7.37302C7.998 7.37302 7.883 7.36902 7.765 7.36502L7.674 7.36102L7.67 7.27002C7.65 6.67902 7.556 6.009 7.379 5.229L7.312 4.93701L7.537 5.13ZM7.481 18.816C7.643 18.098 7.734 17.397 7.757 16.731L7.761 16.641L7.851 16.637C8.77 16.593 9.74699 16.739 10.747 17.066L11.063 17.169L10.743 17.255C9.703 17.531 8.691 18.075 7.64 18.914L7.423 19.088L7.481 18.816ZM7.769 19.375C9.289 18.114 10.775 17.488 12.224 17.507C12.898 17.515 13.583 17.681 14.277 17.992C14.966 18.303 15.663 18.768 16.357 19.379L16.554 19.552H7.56L7.769 19.375ZM16.419 18.871C15.383 18.008 14.351 17.456 13.347 17.236L12.988 17.157L13.339 17.046C14.257 16.751 15.178 16.613 16.085 16.637L16.168 16.64L16.179 16.723C16.27 17.405 16.4 18.071 16.581 18.768L16.656 19.068L16.419 18.871ZM16.62 16.79L16.601 16.668L16.727 16.68C17.551 16.763 18.386 16.995 19.217 17.366L19.355 17.429L17.215 19.379L17.173 19.225C16.9 18.268 16.719 17.472 16.62 16.79ZM17.531 12.042C17.531 10.509 18.145 8.95302 19.355 7.41602L19.528 7.19501V16.826L19.355 16.605C18.145 15.092 17.531 13.555 17.531 12.042ZM18.137 2.668L18 2.82901C17.641 3.25501 17.274 3.64101 16.912 3.98401L16.885 4.01102H6.989L6.95799 3.98001C6.61899 3.64101 6.27199 3.25101 5.93399 2.82501L5.808 2.668H18.137ZM5.327 2.77002L5.39 2.85703C5.768 3.36503 6.16599 3.80301 6.50499 4.16101L6.576 4.23602L4.263 6.32401L4.196 6.25C3.849 5.84 3.424 5.44202 2.896 5.02802L2.80099 4.957L5.327 2.77002ZM2.668 5.38303L2.82899 5.513C3.25499 5.855 3.645 6.24602 3.987 6.67502L4.011 6.703V17.153L3.987 17.18C3.605 17.657 3.21899 18.075 2.83299 18.422L2.668 18.571V5.38303ZM5.343 21.247L2.786 19.048L2.873 18.973C3.334 18.575 3.755 18.154 4.133 17.712L4.196 17.637L6.68599 19.789L6.61099 19.864C6.24799 20.222 5.85799 20.652 5.40599 21.172L5.343 21.247ZM5.838 21.334L5.97699 21.172C6.33899 20.746 6.70499 20.36 7.06799 20.017L7.095 19.99H16.99L17.018 20.021C17.362 20.36 17.704 20.75 18.046 21.176L18.173 21.334H5.838ZM18.653 21.231L18.591 21.148C18.279 20.743 17.917 20.313 17.491 19.836L17.428 19.765L19.733 17.681L19.796 17.748C20.264 18.213 20.69 18.615 21.107 18.973L21.194 19.048L18.653 21.231ZM21.312 18.583L21.147 18.445C20.69 18.055 20.312 17.693 19.993 17.33L19.969 17.302V6.71802L19.993 6.69101C20.363 6.27701 20.785 5.887 21.147 5.56L21.312 5.41V18.583Z" stroke="black" stroke-opacity="0.2" stroke-width="0.2"/>
<path d="M21.674 4.76801L18.814 2.35101C18.73 2.26801 18.641 2.25 18.607 2.25H5.355C5.315 2.25 5.252 2.25001 5.17 2.33301L2.347 4.76801C2.286 4.82101 2.25 4.898 2.25 4.979V18.971C2.25 19.096 2.30499 19.215 2.39999 19.297L5.166 21.672C5.224 21.724 5.28 21.755 5.41 21.755H18.558C18.593 21.755 18.706 21.755 18.814 21.656L21.678 19.229C21.722 19.186 21.75 19.127 21.75 19.072V4.953C21.749 4.882 21.726 4.81901 21.674 4.76801ZM18.657 2.77402L21.194 4.953L21.103 5.02802C20.556 5.48102 20.142 5.871 19.8 6.25L19.737 6.32001L17.314 4.23602L17.389 4.16101C17.751 3.79901 18.145 3.373 18.595 2.849L18.657 2.77402ZM7.123 7.32101C6.276 7.21101 5.50399 6.98602 4.75999 6.63202L4.625 6.569L6.785 4.62201L6.828 4.78C7.052 5.639 7.18599 6.45802 7.23399 7.21902L7.241 7.33701L7.123 7.32101ZM7.257 7.77103L7.25299 7.86102C7.23399 9.05902 6.97399 10.135 6.47699 11.049L6.327 11.333L6.29599 11.014C6.16999 9.74901 5.748 8.51502 5.078 7.44702L4.929 7.207L5.19699 7.302C5.90999 7.554 6.55199 7.704 7.16699 7.763L7.257 7.77103ZM4.629 7.55402C5.429 8.81902 5.854 10.186 5.89799 11.616C5.96099 13.216 5.524 14.82 4.629 16.258L4.448 16.55V7.26602L4.629 7.55402ZM4.76399 17.366C5.59499 16.995 6.41799 16.763 7.20999 16.68L7.31999 16.668L7.31599 16.782C7.29599 17.535 7.159 18.359 6.91 19.225L6.867 19.375L4.621 17.429L4.76399 17.366ZM7.23 16.239C6.461 16.325 5.72899 16.503 5.05099 16.763L4.76799 16.873L4.933 16.617C5.646 15.514 6.099 14.276 6.272 12.944L6.312 12.645L6.457 12.909C6.989 13.874 7.27999 14.962 7.31599 16.136L7.31999 16.227L7.23 16.239ZM6.461 12.058L6.418 11.999L6.461 11.943C7.245 10.852 7.678 9.457 7.714 7.901L7.718 7.806H8.088C9.364 7.806 10.673 7.52201 11.972 6.96301L12.012 6.94702L12.051 6.96301C13.351 7.52201 14.655 7.806 15.932 7.806H16.037L16.053 7.90802C15.947 9.57102 16.254 10.891 16.986 11.943L17.026 12.003L16.99 12.058C16.286 13.074 15.99 14.43 16.117 16.093L16.125 16.199L16.018 16.195C14.718 16.179 13.37 16.459 12.028 17.038L11.988 17.054L11.952 17.038C10.566 16.459 9.195 16.176 7.879 16.195L7.78099 16.199L7.77699 16.101C7.72599 14.588 7.28 13.224 6.461 12.058ZM17.105 11.333L16.968 11.045C16.554 10.17 16.384 9.10201 16.471 7.87701L16.475 7.79001L16.562 7.78201C17.259 7.71901 17.948 7.574 18.613 7.345L18.917 7.23901L18.724 7.49503C17.869 8.64503 17.342 9.831 17.153 11.017L17.105 11.333ZM18.704 16.487L18.886 16.735L18.595 16.637C17.94 16.42 17.282 16.278 16.644 16.219L16.562 16.211L16.554 16.128C16.451 14.926 16.589 13.866 16.968 12.98L17.101 12.668L17.153 13.003C17.342 14.166 17.849 15.305 18.704 16.487ZM16.64 7.345L16.522 7.35703L16.534 7.23502C16.62 6.46602 16.794 5.639 17.046 4.776L17.089 4.63L19.359 6.569L19.217 6.63602C18.386 7.01802 17.519 7.258 16.64 7.345ZM16.495 5.19C16.294 5.907 16.16 6.60802 16.093 7.27802L16.085 7.36502H15.998C15.057 7.36502 14.158 7.223 13.253 6.935L12.929 6.83301L13.257 6.746C14.289 6.47 15.325 5.91501 16.337 5.08701L16.578 4.89001L16.495 5.19ZM16.207 4.62601C14.714 5.86701 13.261 6.49802 11.886 6.49802C11.842 6.49802 11.799 6.49402 11.755 6.49402C10.405 6.47402 9.014 5.84401 7.62 4.62201L7.423 4.44901H16.415L16.207 4.62601ZM7.537 5.13C8.537 5.989 9.57299 6.53702 10.609 6.76602L10.964 6.845L10.621 6.95502C9.766 7.23502 8.943 7.37302 8.116 7.37302C7.998 7.37302 7.883 7.36902 7.765 7.36502L7.674 7.36102L7.67 7.27002C7.65 6.67902 7.556 6.009 7.379 5.229L7.312 4.93701L7.537 5.13ZM7.481 18.816C7.643 18.098 7.734 17.397 7.757 16.731L7.761 16.641L7.851 16.637C8.77 16.593 9.74699 16.739 10.747 17.066L11.063 17.169L10.743 17.255C9.703 17.531 8.691 18.075 7.64 18.914L7.423 19.088L7.481 18.816ZM7.769 19.375C9.289 18.114 10.775 17.488 12.224 17.507C12.898 17.515 13.583 17.681 14.277 17.992C14.966 18.303 15.663 18.768 16.357 19.379L16.554 19.552H7.56L7.769 19.375ZM16.419 18.871C15.383 18.008 14.351 17.456 13.347 17.236L12.988 17.157L13.339 17.046C14.257 16.751 15.178 16.613 16.085 16.637L16.168 16.64L16.179 16.723C16.27 17.405 16.4 18.071 16.581 18.768L16.656 19.068L16.419 18.871ZM16.62 16.79L16.601 16.668L16.727 16.68C17.551 16.763 18.386 16.995 19.217 17.366L19.355 17.429L17.215 19.379L17.173 19.225C16.9 18.268 16.719 17.472 16.62 16.79ZM17.531 12.042C17.531 10.509 18.145 8.95302 19.355 7.41602L19.528 7.19501V16.826L19.355 16.605C18.145 15.092 17.531 13.555 17.531 12.042ZM18.137 2.668L18 2.82901C17.641 3.25501 17.274 3.64101 16.912 3.98401L16.885 4.01102H6.989L6.95799 3.98001C6.61899 3.64101 6.27199 3.25101 5.93399 2.82501L5.808 2.668H18.137ZM5.327 2.77002L5.39 2.85703C5.768 3.36503 6.16599 3.80301 6.50499 4.16101L6.576 4.23602L4.263 6.32401L4.196 6.25C3.849 5.84 3.424 5.44202 2.896 5.02802L2.80099 4.957L5.327 2.77002ZM2.668 5.38303L2.82899 5.513C3.25499 5.855 3.645 6.24602 3.987 6.67502L4.011 6.703V17.153L3.987 17.18C3.605 17.657 3.21899 18.075 2.83299 18.422L2.668 18.571V5.38303ZM5.343 21.247L2.786 19.048L2.873 18.973C3.334 18.575 3.755 18.154 4.133 17.712L4.196 17.637L6.68599 19.789L6.61099 19.864C6.24799 20.222 5.85799 20.652 5.40599 21.172L5.343 21.247ZM5.838 21.334L5.97699 21.172C6.33899 20.746 6.70499 20.36 7.06799 20.017L7.095 19.99H16.99L17.018 20.021C17.362 20.36 17.704 20.75 18.046 21.176L18.173 21.334H5.838ZM18.653 21.231L18.591 21.148C18.279 20.743 17.917 20.313 17.491 19.836L17.428 19.765L19.733 17.681L19.796 17.748C20.264 18.213 20.69 18.615 21.107 18.973L21.194 19.048L18.653 21.231ZM21.312 18.583L21.147 18.445C20.69 18.055 20.312 17.693 19.993 17.33L19.969 17.302V6.71802L19.993 6.69101C20.363 6.27701 20.785 5.887 21.147 5.56L21.312 5.41V18.583Z" stroke="black" stroke-opacity="0.2" stroke-width="0.2"/>
</svg>
