<svg width="24" height="24" viewBox="0 0 24 24" fill="none" xmlns="http://www.w3.org/2000/svg">
<path d="M21.361 9.23203C20.9352 7.79303 20.1863 6.469 19.1968 5.392C17.3835 3.425 14.695 2.25 12.0066 2.25C9.44431 2.25 6.94511 3.27101 5.14361 5.05701C2.79811 7.37501 1.76921 10.813 2.46301 14.023C2.88481 15.958 3.89001 17.756 5.29731 19.089C7.65071 21.32 11.0724 22.243 14.2181 21.506C16.1536 21.048 17.9472 19.988 19.2678 18.517C20.8603 16.739 21.7433 14.425 21.7552 11.996C21.7591 11.05 21.6251 10.123 21.361 9.23203ZM18.8972 5.72L19.0313 5.87302C19.6068 6.53602 20.0759 7.25703 20.4661 8.07703L20.5095 8.172L18.2783 9.15402L18.8972 5.72ZM12.0066 15.935L9.2196 14.78L8.06461 11.996L9.2196 9.20901L12.0066 8.05701L14.7936 9.20901L15.9486 11.996L14.7936 14.78L12.0066 15.935ZM14.6753 15.312L14.3048 17.591L12.4442 16.227L14.6753 15.312ZM11.573 16.207L9.68871 17.571L9.33791 15.288L11.573 16.207ZM7.57191 11.996L5.99111 14.165L2.84541 11.996L5.99111 9.828L7.57191 11.996ZM6.405 9.698L8.68741 9.35101L7.76901 11.559L6.405 9.698ZM7.7926 12.43L8.71111 14.661L6.42871 14.291L7.7926 12.43ZM9.33791 8.68002L9.70841 6.40201L11.569 7.76602L9.33791 8.68002ZM12.4402 7.785L14.3245 6.42102L14.6753 8.70001L12.4402 7.785ZM15.3021 9.32703L17.5845 9.70203L16.2443 11.558L15.3021 9.32703ZM16.2443 12.434L17.6082 14.291L15.3021 14.661L16.2443 12.434ZM16.4414 11.996L18.0221 9.828L21.1678 11.996L18.0221 14.165L16.4414 11.996ZM17.8092 9.272L15.1405 8.84201L14.7345 6.20102L18.4873 5.522L17.8092 9.272ZM15.8225 3.48001C16.6818 3.89801 17.4387 4.387 18.1325 4.974L18.2902 5.112L14.8409 5.72702L15.7239 3.43301L15.8225 3.48001ZM12.6294 2.707C13.4691 2.766 14.3363 2.94802 15.1957 3.24402L15.2942 3.27502L14.427 5.55801L12.4205 2.69202L12.6294 2.707ZM14.1786 5.96402L12.0066 7.565L9.83461 5.98401L12.0066 2.845L14.1786 5.96402ZM8.66381 3.28702C9.56651 2.94802 10.4732 2.74702 11.3641 2.68802L11.569 2.672L9.57051 5.57001L8.56921 3.32202L8.66381 3.28702ZM5.88071 4.974C6.56271 4.403 7.30381 3.922 8.08431 3.543L8.17891 3.5L9.16051 5.73102L5.71921 5.108L5.88071 4.974ZM9.27871 6.20001L8.87271 8.862L6.20401 9.272L5.52601 5.522L9.27871 6.20001ZM3.48401 8.18402C3.90191 7.32402 4.39071 6.56701 4.98201 5.87701L5.11601 5.716L5.73491 9.16501L3.43671 8.27802L3.48401 8.18402ZM2.73111 11.377C2.77441 10.51 2.95191 9.63802 3.26721 8.78702L3.30271 8.69202L5.58111 9.57901L2.72321 11.578L2.73111 11.377ZM3.28691 15.312C2.96371 14.409 2.77051 13.502 2.71141 12.615L2.69561 12.41L5.57331 14.405L3.32241 15.41L3.28691 15.312ZM5.11601 18.273L4.98201 18.115C4.40641 17.457 3.93731 16.735 3.54711 15.911L3.50371 15.82L5.73491 14.839L5.11601 18.273ZM6.20401 14.72L8.87271 15.15L9.27871 17.792L5.52601 18.47L6.20401 14.72ZM8.19081 20.512C7.33141 20.09 6.57451 19.601 5.88071 19.014L5.7231 18.88L9.17231 18.261L8.28931 20.559L8.19081 20.512ZM11.3838 21.285C10.5402 21.222 9.67691 21.044 8.81751 20.749L8.71901 20.717L9.58621 18.434L11.5927 21.297L11.3838 21.285ZM9.83461 18.028L12.0066 16.428L14.1786 18.009L12.0066 21.147L9.83461 18.028ZM15.3494 20.705C14.4467 21.044 13.54 21.245 12.6492 21.305L12.4442 21.32L14.4428 18.423L15.444 20.67L15.3494 20.705ZM18.1325 19.014C17.5096 19.558 16.7646 20.039 15.9289 20.449L15.8343 20.492L14.8527 18.261L18.2862 18.88L18.1325 19.014ZM14.7345 17.792L15.1405 15.127L17.8092 14.72L18.4873 18.47L14.7345 17.792ZM20.5292 15.809C20.1114 16.668 19.6225 17.421 19.0313 18.115L18.8972 18.273L18.2783 14.827L20.5765 15.71L20.5292 15.809ZM21.2821 12.615C21.2388 13.482 21.0613 14.354 20.746 15.205L20.7105 15.3L18.4321 14.413L21.29 12.414L21.2821 12.615ZM18.4399 9.58301L20.6908 8.582L20.7263 8.68002C21.0495 9.58302 21.2427 10.49 21.3018 11.373L21.3176 11.578L18.4399 9.58301Z" fill="#333335"/>
<path d="M21.361 9.23203C20.9352 7.79303 20.1863 6.469 19.1968 5.392C17.3835 3.425 14.695 2.25 12.0066 2.25C9.44431 2.25 6.94511 3.27101 5.14361 5.05701C2.79811 7.37501 1.76921 10.813 2.46301 14.023C2.88481 15.958 3.89001 17.756 5.29731 19.089C7.65071 21.32 11.0724 22.243 14.2181 21.506C16.1536 21.048 17.9472 19.988 19.2678 18.517C20.8603 16.739 21.7433 14.425 21.7552 11.996C21.7591 11.05 21.6251 10.123 21.361 9.23203ZM18.8972 5.72L19.0313 5.87302C19.6068 6.53602 20.0759 7.25703 20.4661 8.07703L20.5095 8.172L18.2783 9.15402L18.8972 5.72ZM12.0066 15.935L9.2196 14.78L8.06461 11.996L9.2196 9.20901L12.0066 8.05701L14.7936 9.20901L15.9486 11.996L14.7936 14.78L12.0066 15.935ZM14.6753 15.312L14.3048 17.591L12.4442 16.227L14.6753 15.312ZM11.573 16.207L9.68871 17.571L9.33791 15.288L11.573 16.207ZM7.57191 11.996L5.99111 14.165L2.84541 11.996L5.99111 9.828L7.57191 11.996ZM6.405 9.698L8.68741 9.35101L7.76901 11.559L6.405 9.698ZM7.7926 12.43L8.71111 14.661L6.42871 14.291L7.7926 12.43ZM9.33791 8.68002L9.70841 6.40201L11.569 7.76602L9.33791 8.68002ZM12.4402 7.785L14.3245 6.42102L14.6753 8.70001L12.4402 7.785ZM15.3021 9.32703L17.5845 9.70203L16.2443 11.558L15.3021 9.32703ZM16.2443 12.434L17.6082 14.291L15.3021 14.661L16.2443 12.434ZM16.4414 11.996L18.0221 9.828L21.1678 11.996L18.0221 14.165L16.4414 11.996ZM17.8092 9.272L15.1405 8.84201L14.7345 6.20102L18.4873 5.522L17.8092 9.272ZM15.8225 3.48001C16.6818 3.89801 17.4387 4.387 18.1325 4.974L18.2902 5.112L14.8409 5.72702L15.7239 3.43301L15.8225 3.48001ZM12.6294 2.707C13.4691 2.766 14.3363 2.94802 15.1957 3.24402L15.2942 3.27502L14.427 5.55801L12.4205 2.69202L12.6294 2.707ZM14.1786 5.96402L12.0066 7.565L9.83461 5.98401L12.0066 2.845L14.1786 5.96402ZM8.66381 3.28702C9.56651 2.94802 10.4732 2.74702 11.3641 2.68802L11.569 2.672L9.57051 5.57001L8.56921 3.32202L8.66381 3.28702ZM5.88071 4.974C6.56271 4.403 7.30381 3.922 8.08431 3.543L8.17891 3.5L9.16051 5.73102L5.71921 5.108L5.88071 4.974ZM9.27871 6.20001L8.87271 8.862L6.20401 9.272L5.52601 5.522L9.27871 6.20001ZM3.48401 8.18402C3.90191 7.32402 4.39071 6.56701 4.98201 5.87701L5.11601 5.716L5.73491 9.16501L3.43671 8.27802L3.48401 8.18402ZM2.73111 11.377C2.77441 10.51 2.95191 9.63802 3.26721 8.78702L3.30271 8.69202L5.58111 9.57901L2.72321 11.578L2.73111 11.377ZM3.28691 15.312C2.96371 14.409 2.77051 13.502 2.71141 12.615L2.69561 12.41L5.57331 14.405L3.32241 15.41L3.28691 15.312ZM5.11601 18.273L4.98201 18.115C4.40641 17.457 3.93731 16.735 3.54711 15.911L3.50371 15.82L5.73491 14.839L5.11601 18.273ZM6.20401 14.72L8.87271 15.15L9.27871 17.792L5.52601 18.47L6.20401 14.72ZM8.19081 20.512C7.33141 20.09 6.57451 19.601 5.88071 19.014L5.7231 18.88L9.17231 18.261L8.28931 20.559L8.19081 20.512ZM11.3838 21.285C10.5402 21.222 9.67691 21.044 8.81751 20.749L8.71901 20.717L9.58621 18.434L11.5927 21.297L11.3838 21.285ZM9.83461 18.028L12.0066 16.428L14.1786 18.009L12.0066 21.147L9.83461 18.028ZM15.3494 20.705C14.4467 21.044 13.54 21.245 12.6492 21.305L12.4442 21.32L14.4428 18.423L15.444 20.67L15.3494 20.705ZM18.1325 19.014C17.5096 19.558 16.7646 20.039 15.9289 20.449L15.8343 20.492L14.8527 18.261L18.2862 18.88L18.1325 19.014ZM14.7345 17.792L15.1405 15.127L17.8092 14.72L18.4873 18.47L14.7345 17.792ZM20.5292 15.809C20.1114 16.668 19.6225 17.421 19.0313 18.115L18.8972 18.273L18.2783 14.827L20.5765 15.71L20.5292 15.809ZM21.2821 12.615C21.2388 13.482 21.0613 14.354 20.746 15.205L20.7105 15.3L18.4321 14.413L21.29 12.414L21.2821 12.615ZM18.4399 9.58301L20.6908 8.582L20.7263 8.68002C21.0495 9.58302 21.2427 10.49 21.3018 11.373L21.3176 11.578L18.4399 9.58301Z" fill="black" fill-opacity="0.2"/>
<path d="M21.361 9.23203C20.9352 7.79303 20.1863 6.469 19.1968 5.392C17.3835 3.425 14.695 2.25 12.0066 2.25C9.44431 2.25 6.94511 3.27101 5.14361 5.05701C2.79811 7.37501 1.76921 10.813 2.46301 14.023C2.88481 15.958 3.89001 17.756 5.29731 19.089C7.65071 21.32 11.0724 22.243 14.2181 21.506C16.1536 21.048 17.9472 19.988 19.2678 18.517C20.8603 16.739 21.7433 14.425 21.7552 11.996C21.7591 11.05 21.6251 10.123 21.361 9.23203ZM18.8972 5.72L19.0313 5.87302C19.6068 6.53602 20.0759 7.25703 20.4661 8.07703L20.5095 8.172L18.2783 9.15402L18.8972 5.72ZM12.0066 15.935L9.2196 14.78L8.06461 11.996L9.2196 9.20901L12.0066 8.05701L14.7936 9.20901L15.9486 11.996L14.7936 14.78L12.0066 15.935ZM14.6753 15.312L14.3048 17.591L12.4442 16.227L14.6753 15.312ZM11.573 16.207L9.68871 17.571L9.33791 15.288L11.573 16.207ZM7.57191 11.996L5.99111 14.165L2.84541 11.996L5.99111 9.828L7.57191 11.996ZM6.405 9.698L8.68741 9.35101L7.76901 11.559L6.405 9.698ZM7.7926 12.43L8.71111 14.661L6.42871 14.291L7.7926 12.43ZM9.33791 8.68002L9.70841 6.40201L11.569 7.76602L9.33791 8.68002ZM12.4402 7.785L14.3245 6.42102L14.6753 8.70001L12.4402 7.785ZM15.3021 9.32703L17.5845 9.70203L16.2443 11.558L15.3021 9.32703ZM16.2443 12.434L17.6082 14.291L15.3021 14.661L16.2443 12.434ZM16.4414 11.996L18.0221 9.828L21.1678 11.996L18.0221 14.165L16.4414 11.996ZM17.8092 9.272L15.1405 8.84201L14.7345 6.20102L18.4873 5.522L17.8092 9.272ZM15.8225 3.48001C16.6818 3.89801 17.4387 4.387 18.1325 4.974L18.2902 5.112L14.8409 5.72702L15.7239 3.43301L15.8225 3.48001ZM12.6294 2.707C13.4691 2.766 14.3363 2.94802 15.1957 3.24402L15.2942 3.27502L14.427 5.55801L12.4205 2.69202L12.6294 2.707ZM14.1786 5.96402L12.0066 7.565L9.83461 5.98401L12.0066 2.845L14.1786 5.96402ZM8.66381 3.28702C9.56651 2.94802 10.4732 2.74702 11.3641 2.68802L11.569 2.672L9.57051 5.57001L8.56921 3.32202L8.66381 3.28702ZM5.88071 4.974C6.56271 4.403 7.30381 3.922 8.08431 3.543L8.17891 3.5L9.16051 5.73102L5.71921 5.108L5.88071 4.974ZM9.27871 6.20001L8.87271 8.862L6.20401 9.272L5.52601 5.522L9.27871 6.20001ZM3.48401 8.18402C3.90191 7.32402 4.39071 6.56701 4.98201 5.87701L5.11601 5.716L5.73491 9.16501L3.43671 8.27802L3.48401 8.18402ZM2.73111 11.377C2.77441 10.51 2.95191 9.63802 3.26721 8.78702L3.30271 8.69202L5.58111 9.57901L2.72321 11.578L2.73111 11.377ZM3.28691 15.312C2.96371 14.409 2.77051 13.502 2.71141 12.615L2.69561 12.41L5.57331 14.405L3.32241 15.41L3.28691 15.312ZM5.11601 18.273L4.98201 18.115C4.40641 17.457 3.93731 16.735 3.54711 15.911L3.50371 15.82L5.73491 14.839L5.11601 18.273ZM6.20401 14.72L8.87271 15.15L9.27871 17.792L5.52601 18.47L6.20401 14.72ZM8.19081 20.512C7.33141 20.09 6.57451 19.601 5.88071 19.014L5.7231 18.88L9.17231 18.261L8.28931 20.559L8.19081 20.512ZM11.3838 21.285C10.5402 21.222 9.67691 21.044 8.81751 20.749L8.71901 20.717L9.58621 18.434L11.5927 21.297L11.3838 21.285ZM9.83461 18.028L12.0066 16.428L14.1786 18.009L12.0066 21.147L9.83461 18.028ZM15.3494 20.705C14.4467 21.044 13.54 21.245 12.6492 21.305L12.4442 21.32L14.4428 18.423L15.444 20.67L15.3494 20.705ZM18.1325 19.014C17.5096 19.558 16.7646 20.039 15.9289 20.449L15.8343 20.492L14.8527 18.261L18.2862 18.88L18.1325 19.014ZM14.7345 17.792L15.1405 15.127L17.8092 14.72L18.4873 18.47L14.7345 17.792ZM20.5292 15.809C20.1114 16.668 19.6225 17.421 19.0313 18.115L18.8972 18.273L18.2783 14.827L20.5765 15.71L20.5292 15.809ZM21.2821 12.615C21.2388 13.482 21.0613 14.354 20.746 15.205L20.7105 15.3L18.4321 14.413L21.29 12.414L21.2821 12.615ZM18.4399 9.58301L20.6908 8.582L20.7263 8.68002C21.0495 9.58302 21.2427 10.49 21.3018 11.373L21.3176 11.578L18.4399 9.58301Z" fill="black" fill-opacity="0.2"/>
<path d="M21.361 9.23203C20.9352 7.79303 20.1863 6.469 19.1968 5.392C17.3835 3.425 14.695 2.25 12.0066 2.25C9.44431 2.25 6.94511 3.27101 5.14361 5.05701C2.79811 7.37501 1.76921 10.813 2.46301 14.023C2.88481 15.958 3.89001 17.756 5.29731 19.089C7.65071 21.32 11.0724 22.243 14.2181 21.506C16.1536 21.048 17.9472 19.988 19.2678 18.517C20.8603 16.739 21.7433 14.425 21.7552 11.996C21.7591 11.05 21.6251 10.123 21.361 9.23203ZM18.8972 5.72L19.0313 5.87302C19.6068 6.53602 20.0759 7.25703 20.4661 8.07703L20.5095 8.172L18.2783 9.15402L18.8972 5.72ZM12.0066 15.935L9.2196 14.78L8.06461 11.996L9.2196 9.20901L12.0066 8.05701L14.7936 9.20901L15.9486 11.996L14.7936 14.78L12.0066 15.935ZM14.6753 15.312L14.3048 17.591L12.4442 16.227L14.6753 15.312ZM11.573 16.207L9.68871 17.571L9.33791 15.288L11.573 16.207ZM7.57191 11.996L5.99111 14.165L2.84541 11.996L5.99111 9.828L7.57191 11.996ZM6.405 9.698L8.68741 9.35101L7.76901 11.559L6.405 9.698ZM7.7926 12.43L8.71111 14.661L6.42871 14.291L7.7926 12.43ZM9.33791 8.68002L9.70841 6.40201L11.569 7.76602L9.33791 8.68002ZM12.4402 7.785L14.3245 6.42102L14.6753 8.70001L12.4402 7.785ZM15.3021 9.32703L17.5845 9.70203L16.2443 11.558L15.3021 9.32703ZM16.2443 12.434L17.6082 14.291L15.3021 14.661L16.2443 12.434ZM16.4414 11.996L18.0221 9.828L21.1678 11.996L18.0221 14.165L16.4414 11.996ZM17.8092 9.272L15.1405 8.84201L14.7345 6.20102L18.4873 5.522L17.8092 9.272ZM15.8225 3.48001C16.6818 3.89801 17.4387 4.387 18.1325 4.974L18.2902 5.112L14.8409 5.72702L15.7239 3.43301L15.8225 3.48001ZM12.6294 2.707C13.4691 2.766 14.3363 2.94802 15.1957 3.24402L15.2942 3.27502L14.427 5.55801L12.4205 2.69202L12.6294 2.707ZM14.1786 5.96402L12.0066 7.565L9.83461 5.98401L12.0066 2.845L14.1786 5.96402ZM8.66381 3.28702C9.56651 2.94802 10.4732 2.74702 11.3641 2.68802L11.569 2.672L9.57051 5.57001L8.56921 3.32202L8.66381 3.28702ZM5.88071 4.974C6.56271 4.403 7.30381 3.922 8.08431 3.543L8.17891 3.5L9.16051 5.73102L5.71921 5.108L5.88071 4.974ZM9.27871 6.20001L8.87271 8.862L6.20401 9.272L5.52601 5.522L9.27871 6.20001ZM3.48401 8.18402C3.90191 7.32402 4.39071 6.56701 4.98201 5.87701L5.11601 5.716L5.73491 9.16501L3.43671 8.27802L3.48401 8.18402ZM2.73111 11.377C2.77441 10.51 2.95191 9.63802 3.26721 8.78702L3.30271 8.69202L5.58111 9.57901L2.72321 11.578L2.73111 11.377ZM3.28691 15.312C2.96371 14.409 2.77051 13.502 2.71141 12.615L2.69561 12.41L5.57331 14.405L3.32241 15.41L3.28691 15.312ZM5.11601 18.273L4.98201 18.115C4.40641 17.457 3.93731 16.735 3.54711 15.911L3.50371 15.82L5.73491 14.839L5.11601 18.273ZM6.20401 14.72L8.87271 15.15L9.27871 17.792L5.52601 18.47L6.20401 14.72ZM8.19081 20.512C7.33141 20.09 6.57451 19.601 5.88071 19.014L5.7231 18.88L9.17231 18.261L8.28931 20.559L8.19081 20.512ZM11.3838 21.285C10.5402 21.222 9.67691 21.044 8.81751 20.749L8.71901 20.717L9.58621 18.434L11.5927 21.297L11.3838 21.285ZM9.83461 18.028L12.0066 16.428L14.1786 18.009L12.0066 21.147L9.83461 18.028ZM15.3494 20.705C14.4467 21.044 13.54 21.245 12.6492 21.305L12.4442 21.32L14.4428 18.423L15.444 20.67L15.3494 20.705ZM18.1325 19.014C17.5096 19.558 16.7646 20.039 15.9289 20.449L15.8343 20.492L14.8527 18.261L18.2862 18.88L18.1325 19.014ZM14.7345 17.792L15.1405 15.127L17.8092 14.72L18.4873 18.47L14.7345 17.792ZM20.5292 15.809C20.1114 16.668 19.6225 17.421 19.0313 18.115L18.8972 18.273L18.2783 14.827L20.5765 15.71L20.5292 15.809ZM21.2821 12.615C21.2388 13.482 21.0613 14.354 20.746 15.205L20.7105 15.3L18.4321 14.413L21.29 12.414L21.2821 12.615ZM18.4399 9.58301L20.6908 8.582L20.7263 8.68002C21.0495 9.58302 21.2427 10.49 21.3018 11.373L21.3176 11.578L18.4399 9.58301Z" fill="black" fill-opacity="0.2"/>
<path d="M21.361 9.23203C20.9352 7.79303 20.1863 6.469 19.1968 5.392C17.3835 3.425 14.695 2.25 12.0066 2.25C9.44431 2.25 6.94511 3.27101 5.14361 5.05701C2.79811 7.37501 1.76921 10.813 2.46301 14.023C2.88481 15.958 3.89001 17.756 5.29731 19.089C7.65071 21.32 11.0724 22.243 14.2181 21.506C16.1536 21.048 17.9472 19.988 19.2678 18.517C20.8603 16.739 21.7433 14.425 21.7552 11.996C21.7591 11.05 21.6251 10.123 21.361 9.23203ZM18.8972 5.72L19.0313 5.87302C19.6068 6.53602 20.0759 7.25703 20.4661 8.07703L20.5095 8.172L18.2783 9.15402L18.8972 5.72ZM12.0066 15.935L9.2196 14.78L8.06461 11.996L9.2196 9.20901L12.0066 8.05701L14.7936 9.20901L15.9486 11.996L14.7936 14.78L12.0066 15.935ZM14.6753 15.312L14.3048 17.591L12.4442 16.227L14.6753 15.312ZM11.573 16.207L9.68871 17.571L9.33791 15.288L11.573 16.207ZM7.57191 11.996L5.99111 14.165L2.84541 11.996L5.99111 9.828L7.57191 11.996ZM6.405 9.698L8.68741 9.35101L7.76901 11.559L6.405 9.698ZM7.7926 12.43L8.71111 14.661L6.42871 14.291L7.7926 12.43ZM9.33791 8.68002L9.70841 6.40201L11.569 7.76602L9.33791 8.68002ZM12.4402 7.785L14.3245 6.42102L14.6753 8.70001L12.4402 7.785ZM15.3021 9.32703L17.5845 9.70203L16.2443 11.558L15.3021 9.32703ZM16.2443 12.434L17.6082 14.291L15.3021 14.661L16.2443 12.434ZM16.4414 11.996L18.0221 9.828L21.1678 11.996L18.0221 14.165L16.4414 11.996ZM17.8092 9.272L15.1405 8.84201L14.7345 6.20102L18.4873 5.522L17.8092 9.272ZM15.8225 3.48001C16.6818 3.89801 17.4387 4.387 18.1325 4.974L18.2902 5.112L14.8409 5.72702L15.7239 3.43301L15.8225 3.48001ZM12.6294 2.707C13.4691 2.766 14.3363 2.94802 15.1957 3.24402L15.2942 3.27502L14.427 5.55801L12.4205 2.69202L12.6294 2.707ZM14.1786 5.96402L12.0066 7.565L9.83461 5.98401L12.0066 2.845L14.1786 5.96402ZM8.66381 3.28702C9.56651 2.94802 10.4732 2.74702 11.3641 2.68802L11.569 2.672L9.57051 5.57001L8.56921 3.32202L8.66381 3.28702ZM5.88071 4.974C6.56271 4.403 7.30381 3.922 8.08431 3.543L8.17891 3.5L9.16051 5.73102L5.71921 5.108L5.88071 4.974ZM9.27871 6.20001L8.87271 8.862L6.20401 9.272L5.52601 5.522L9.27871 6.20001ZM3.48401 8.18402C3.90191 7.32402 4.39071 6.56701 4.98201 5.87701L5.11601 5.716L5.73491 9.16501L3.43671 8.27802L3.48401 8.18402ZM2.73111 11.377C2.77441 10.51 2.95191 9.63802 3.26721 8.78702L3.30271 8.69202L5.58111 9.57901L2.72321 11.578L2.73111 11.377ZM3.28691 15.312C2.96371 14.409 2.77051 13.502 2.71141 12.615L2.69561 12.41L5.57331 14.405L3.32241 15.41L3.28691 15.312ZM5.11601 18.273L4.98201 18.115C4.40641 17.457 3.93731 16.735 3.54711 15.911L3.50371 15.82L5.73491 14.839L5.11601 18.273ZM6.20401 14.72L8.87271 15.15L9.27871 17.792L5.52601 18.47L6.20401 14.72ZM8.19081 20.512C7.33141 20.09 6.57451 19.601 5.88071 19.014L5.7231 18.88L9.17231 18.261L8.28931 20.559L8.19081 20.512ZM11.3838 21.285C10.5402 21.222 9.67691 21.044 8.81751 20.749L8.71901 20.717L9.58621 18.434L11.5927 21.297L11.3838 21.285ZM9.83461 18.028L12.0066 16.428L14.1786 18.009L12.0066 21.147L9.83461 18.028ZM15.3494 20.705C14.4467 21.044 13.54 21.245 12.6492 21.305L12.4442 21.32L14.4428 18.423L15.444 20.67L15.3494 20.705ZM18.1325 19.014C17.5096 19.558 16.7646 20.039 15.9289 20.449L15.8343 20.492L14.8527 18.261L18.2862 18.88L18.1325 19.014ZM14.7345 17.792L15.1405 15.127L17.8092 14.72L18.4873 18.47L14.7345 17.792ZM20.5292 15.809C20.1114 16.668 19.6225 17.421 19.0313 18.115L18.8972 18.273L18.2783 14.827L20.5765 15.71L20.5292 15.809ZM21.2821 12.615C21.2388 13.482 21.0613 14.354 20.746 15.205L20.7105 15.3L18.4321 14.413L21.29 12.414L21.2821 12.615ZM18.4399 9.58301L20.6908 8.582L20.7263 8.68002C21.0495 9.58302 21.2427 10.49 21.3018 11.373L21.3176 11.578L18.4399 9.58301Z" fill="black" fill-opacity="0.2"/>
<path d="M21.361 9.23203C20.9352 7.79303 20.1863 6.469 19.1968 5.392C17.3835 3.425 14.695 2.25 12.0066 2.25C9.44431 2.25 6.94511 3.27101 5.14361 5.05701C2.79811 7.37501 1.76921 10.813 2.46301 14.023C2.88481 15.958 3.89001 17.756 5.29731 19.089C7.65071 21.32 11.0724 22.243 14.2181 21.506C16.1536 21.048 17.9472 19.988 19.2678 18.517C20.8603 16.739 21.7433 14.425 21.7552 11.996C21.7591 11.05 21.6251 10.123 21.361 9.23203ZM18.8972 5.72L19.0313 5.87302C19.6068 6.53602 20.0759 7.25703 20.4661 8.07703L20.5095 8.172L18.2783 9.15402L18.8972 5.72ZM12.0066 15.935L9.2196 14.78L8.06461 11.996L9.2196 9.20901L12.0066 8.05701L14.7936 9.20901L15.9486 11.996L14.7936 14.78L12.0066 15.935ZM14.6753 15.312L14.3048 17.591L12.4442 16.227L14.6753 15.312ZM11.573 16.207L9.68871 17.571L9.33791 15.288L11.573 16.207ZM7.57191 11.996L5.99111 14.165L2.84541 11.996L5.99111 9.828L7.57191 11.996ZM6.405 9.698L8.68741 9.35101L7.76901 11.559L6.405 9.698ZM7.7926 12.43L8.71111 14.661L6.42871 14.291L7.7926 12.43ZM9.33791 8.68002L9.70841 6.40201L11.569 7.76602L9.33791 8.68002ZM12.4402 7.785L14.3245 6.42102L14.6753 8.70001L12.4402 7.785ZM15.3021 9.32703L17.5845 9.70203L16.2443 11.558L15.3021 9.32703ZM16.2443 12.434L17.6082 14.291L15.3021 14.661L16.2443 12.434ZM16.4414 11.996L18.0221 9.828L21.1678 11.996L18.0221 14.165L16.4414 11.996ZM17.8092 9.272L15.1405 8.84201L14.7345 6.20102L18.4873 5.522L17.8092 9.272ZM15.8225 3.48001C16.6818 3.89801 17.4387 4.387 18.1325 4.974L18.2902 5.112L14.8409 5.72702L15.7239 3.43301L15.8225 3.48001ZM12.6294 2.707C13.4691 2.766 14.3363 2.94802 15.1957 3.24402L15.2942 3.27502L14.427 5.55801L12.4205 2.69202L12.6294 2.707ZM14.1786 5.96402L12.0066 7.565L9.83461 5.98401L12.0066 2.845L14.1786 5.96402ZM8.66381 3.28702C9.56651 2.94802 10.4732 2.74702 11.3641 2.68802L11.569 2.672L9.57051 5.57001L8.56921 3.32202L8.66381 3.28702ZM5.88071 4.974C6.56271 4.403 7.30381 3.922 8.08431 3.543L8.17891 3.5L9.16051 5.73102L5.71921 5.108L5.88071 4.974ZM9.27871 6.20001L8.87271 8.862L6.20401 9.272L5.52601 5.522L9.27871 6.20001ZM3.48401 8.18402C3.90191 7.32402 4.39071 6.56701 4.98201 5.87701L5.11601 5.716L5.73491 9.16501L3.43671 8.27802L3.48401 8.18402ZM2.73111 11.377C2.77441 10.51 2.95191 9.63802 3.26721 8.78702L3.30271 8.69202L5.58111 9.57901L2.72321 11.578L2.73111 11.377ZM3.28691 15.312C2.96371 14.409 2.77051 13.502 2.71141 12.615L2.69561 12.41L5.57331 14.405L3.32241 15.41L3.28691 15.312ZM5.11601 18.273L4.98201 18.115C4.40641 17.457 3.93731 16.735 3.54711 15.911L3.50371 15.82L5.73491 14.839L5.11601 18.273ZM6.20401 14.72L8.87271 15.15L9.27871 17.792L5.52601 18.47L6.20401 14.72ZM8.19081 20.512C7.33141 20.09 6.57451 19.601 5.88071 19.014L5.7231 18.88L9.17231 18.261L8.28931 20.559L8.19081 20.512ZM11.3838 21.285C10.5402 21.222 9.67691 21.044 8.81751 20.749L8.71901 20.717L9.58621 18.434L11.5927 21.297L11.3838 21.285ZM9.83461 18.028L12.0066 16.428L14.1786 18.009L12.0066 21.147L9.83461 18.028ZM15.3494 20.705C14.4467 21.044 13.54 21.245 12.6492 21.305L12.4442 21.32L14.4428 18.423L15.444 20.67L15.3494 20.705ZM18.1325 19.014C17.5096 19.558 16.7646 20.039 15.9289 20.449L15.8343 20.492L14.8527 18.261L18.2862 18.88L18.1325 19.014ZM14.7345 17.792L15.1405 15.127L17.8092 14.72L18.4873 18.47L14.7345 17.792ZM20.5292 15.809C20.1114 16.668 19.6225 17.421 19.0313 18.115L18.8972 18.273L18.2783 14.827L20.5765 15.71L20.5292 15.809ZM21.2821 12.615C21.2388 13.482 21.0613 14.354 20.746 15.205L20.7105 15.3L18.4321 14.413L21.29 12.414L21.2821 12.615ZM18.4399 9.58301L20.6908 8.582L20.7263 8.68002C21.0495 9.58302 21.2427 10.49 21.3018 11.373L21.3176 11.578L18.4399 9.58301Z" fill="black" fill-opacity="0.2"/>
<path d="M21.361 9.23203C20.9352 7.79303 20.1863 6.469 19.1968 5.392C17.3835 3.425 14.695 2.25 12.0066 2.25C9.44431 2.25 6.94511 3.27101 5.14361 5.05701C2.79811 7.37501 1.76921 10.813 2.46301 14.023C2.88481 15.958 3.89001 17.756 5.29731 19.089C7.65071 21.32 11.0724 22.243 14.2181 21.506C16.1536 21.048 17.9472 19.988 19.2678 18.517C20.8603 16.739 21.7433 14.425 21.7552 11.996C21.7591 11.05 21.6251 10.123 21.361 9.23203ZM18.8972 5.72L19.0313 5.87302C19.6068 6.53602 20.0759 7.25703 20.4661 8.07703L20.5095 8.172L18.2783 9.15402L18.8972 5.72ZM12.0066 15.935L9.2196 14.78L8.06461 11.996L9.2196 9.20901L12.0066 8.05701L14.7936 9.20901L15.9486 11.996L14.7936 14.78L12.0066 15.935ZM14.6753 15.312L14.3048 17.591L12.4442 16.227L14.6753 15.312ZM11.573 16.207L9.68871 17.571L9.33791 15.288L11.573 16.207ZM7.57191 11.996L5.99111 14.165L2.84541 11.996L5.99111 9.828L7.57191 11.996ZM6.405 9.698L8.68741 9.35101L7.76901 11.559L6.405 9.698ZM7.7926 12.43L8.71111 14.661L6.42871 14.291L7.7926 12.43ZM9.33791 8.68002L9.70841 6.40201L11.569 7.76602L9.33791 8.68002ZM12.4402 7.785L14.3245 6.42102L14.6753 8.70001L12.4402 7.785ZM15.3021 9.32703L17.5845 9.70203L16.2443 11.558L15.3021 9.32703ZM16.2443 12.434L17.6082 14.291L15.3021 14.661L16.2443 12.434ZM16.4414 11.996L18.0221 9.828L21.1678 11.996L18.0221 14.165L16.4414 11.996ZM17.8092 9.272L15.1405 8.84201L14.7345 6.20102L18.4873 5.522L17.8092 9.272ZM15.8225 3.48001C16.6818 3.89801 17.4387 4.387 18.1325 4.974L18.2902 5.112L14.8409 5.72702L15.7239 3.43301L15.8225 3.48001ZM12.6294 2.707C13.4691 2.766 14.3363 2.94802 15.1957 3.24402L15.2942 3.27502L14.427 5.55801L12.4205 2.69202L12.6294 2.707ZM14.1786 5.96402L12.0066 7.565L9.83461 5.98401L12.0066 2.845L14.1786 5.96402ZM8.66381 3.28702C9.56651 2.94802 10.4732 2.74702 11.3641 2.68802L11.569 2.672L9.57051 5.57001L8.56921 3.32202L8.66381 3.28702ZM5.88071 4.974C6.56271 4.403 7.30381 3.922 8.08431 3.543L8.17891 3.5L9.16051 5.73102L5.71921 5.108L5.88071 4.974ZM9.27871 6.20001L8.87271 8.862L6.20401 9.272L5.52601 5.522L9.27871 6.20001ZM3.48401 8.18402C3.90191 7.32402 4.39071 6.56701 4.98201 5.87701L5.11601 5.716L5.73491 9.16501L3.43671 8.27802L3.48401 8.18402ZM2.73111 11.377C2.77441 10.51 2.95191 9.63802 3.26721 8.78702L3.30271 8.69202L5.58111 9.57901L2.72321 11.578L2.73111 11.377ZM3.28691 15.312C2.96371 14.409 2.77051 13.502 2.71141 12.615L2.69561 12.41L5.57331 14.405L3.32241 15.41L3.28691 15.312ZM5.11601 18.273L4.98201 18.115C4.40641 17.457 3.93731 16.735 3.54711 15.911L3.50371 15.82L5.73491 14.839L5.11601 18.273ZM6.20401 14.72L8.87271 15.15L9.27871 17.792L5.52601 18.47L6.20401 14.72ZM8.19081 20.512C7.33141 20.09 6.57451 19.601 5.88071 19.014L5.7231 18.88L9.17231 18.261L8.28931 20.559L8.19081 20.512ZM11.3838 21.285C10.5402 21.222 9.67691 21.044 8.81751 20.749L8.71901 20.717L9.58621 18.434L11.5927 21.297L11.3838 21.285ZM9.83461 18.028L12.0066 16.428L14.1786 18.009L12.0066 21.147L9.83461 18.028ZM15.3494 20.705C14.4467 21.044 13.54 21.245 12.6492 21.305L12.4442 21.32L14.4428 18.423L15.444 20.67L15.3494 20.705ZM18.1325 19.014C17.5096 19.558 16.7646 20.039 15.9289 20.449L15.8343 20.492L14.8527 18.261L18.2862 18.88L18.1325 19.014ZM14.7345 17.792L15.1405 15.127L17.8092 14.72L18.4873 18.47L14.7345 17.792ZM20.5292 15.809C20.1114 16.668 19.6225 17.421 19.0313 18.115L18.8972 18.273L18.2783 14.827L20.5765 15.71L20.5292 15.809ZM21.2821 12.615C21.2388 13.482 21.0613 14.354 20.746 15.205L20.7105 15.3L18.4321 14.413L21.29 12.414L21.2821 12.615ZM18.4399 9.58301L20.6908 8.582L20.7263 8.68002C21.0495 9.58302 21.2427 10.49 21.3018 11.373L21.3176 11.578L18.4399 9.58301Z" fill="black" fill-opacity="0.2"/>
<path d="M21.361 9.23203C20.9352 7.79303 20.1863 6.469 19.1968 5.392C17.3835 3.425 14.695 2.25 12.0066 2.25C9.44431 2.25 6.94511 3.27101 5.14361 5.05701C2.79811 7.37501 1.76921 10.813 2.46301 14.023C2.88481 15.958 3.89001 17.756 5.29731 19.089C7.65071 21.32 11.0724 22.243 14.2181 21.506C16.1536 21.048 17.9472 19.988 19.2678 18.517C20.8603 16.739 21.7433 14.425 21.7552 11.996C21.7591 11.05 21.6251 10.123 21.361 9.23203ZM18.8972 5.72L19.0313 5.87302C19.6068 6.53602 20.0759 7.25703 20.4661 8.07703L20.5095 8.172L18.2783 9.15402L18.8972 5.72ZM12.0066 15.935L9.2196 14.78L8.06461 11.996L9.2196 9.20901L12.0066 8.05701L14.7936 9.20901L15.9486 11.996L14.7936 14.78L12.0066 15.935ZM14.6753 15.312L14.3048 17.591L12.4442 16.227L14.6753 15.312ZM11.573 16.207L9.68871 17.571L9.33791 15.288L11.573 16.207ZM7.57191 11.996L5.99111 14.165L2.84541 11.996L5.99111 9.828L7.57191 11.996ZM6.405 9.698L8.68741 9.35101L7.76901 11.559L6.405 9.698ZM7.7926 12.43L8.71111 14.661L6.42871 14.291L7.7926 12.43ZM9.33791 8.68002L9.70841 6.40201L11.569 7.76602L9.33791 8.68002ZM12.4402 7.785L14.3245 6.42102L14.6753 8.70001L12.4402 7.785ZM15.3021 9.32703L17.5845 9.70203L16.2443 11.558L15.3021 9.32703ZM16.2443 12.434L17.6082 14.291L15.3021 14.661L16.2443 12.434ZM16.4414 11.996L18.0221 9.828L21.1678 11.996L18.0221 14.165L16.4414 11.996ZM17.8092 9.272L15.1405 8.84201L14.7345 6.20102L18.4873 5.522L17.8092 9.272ZM15.8225 3.48001C16.6818 3.89801 17.4387 4.387 18.1325 4.974L18.2902 5.112L14.8409 5.72702L15.7239 3.43301L15.8225 3.48001ZM12.6294 2.707C13.4691 2.766 14.3363 2.94802 15.1957 3.24402L15.2942 3.27502L14.427 5.55801L12.4205 2.69202L12.6294 2.707ZM14.1786 5.96402L12.0066 7.565L9.83461 5.98401L12.0066 2.845L14.1786 5.96402ZM8.66381 3.28702C9.56651 2.94802 10.4732 2.74702 11.3641 2.68802L11.569 2.672L9.57051 5.57001L8.56921 3.32202L8.66381 3.28702ZM5.88071 4.974C6.56271 4.403 7.30381 3.922 8.08431 3.543L8.17891 3.5L9.16051 5.73102L5.71921 5.108L5.88071 4.974ZM9.27871 6.20001L8.87271 8.862L6.20401 9.272L5.52601 5.522L9.27871 6.20001ZM3.48401 8.18402C3.90191 7.32402 4.39071 6.56701 4.98201 5.87701L5.11601 5.716L5.73491 9.16501L3.43671 8.27802L3.48401 8.18402ZM2.73111 11.377C2.77441 10.51 2.95191 9.63802 3.26721 8.78702L3.30271 8.69202L5.58111 9.57901L2.72321 11.578L2.73111 11.377ZM3.28691 15.312C2.96371 14.409 2.77051 13.502 2.71141 12.615L2.69561 12.41L5.57331 14.405L3.32241 15.41L3.28691 15.312ZM5.11601 18.273L4.98201 18.115C4.40641 17.457 3.93731 16.735 3.54711 15.911L3.50371 15.82L5.73491 14.839L5.11601 18.273ZM6.20401 14.72L8.87271 15.15L9.27871 17.792L5.52601 18.47L6.20401 14.72ZM8.19081 20.512C7.33141 20.09 6.57451 19.601 5.88071 19.014L5.7231 18.88L9.17231 18.261L8.28931 20.559L8.19081 20.512ZM11.3838 21.285C10.5402 21.222 9.67691 21.044 8.81751 20.749L8.71901 20.717L9.58621 18.434L11.5927 21.297L11.3838 21.285ZM9.83461 18.028L12.0066 16.428L14.1786 18.009L12.0066 21.147L9.83461 18.028ZM15.3494 20.705C14.4467 21.044 13.54 21.245 12.6492 21.305L12.4442 21.32L14.4428 18.423L15.444 20.67L15.3494 20.705ZM18.1325 19.014C17.5096 19.558 16.7646 20.039 15.9289 20.449L15.8343 20.492L14.8527 18.261L18.2862 18.88L18.1325 19.014ZM14.7345 17.792L15.1405 15.127L17.8092 14.72L18.4873 18.47L14.7345 17.792ZM20.5292 15.809C20.1114 16.668 19.6225 17.421 19.0313 18.115L18.8972 18.273L18.2783 14.827L20.5765 15.71L20.5292 15.809ZM21.2821 12.615C21.2388 13.482 21.0613 14.354 20.746 15.205L20.7105 15.3L18.4321 14.413L21.29 12.414L21.2821 12.615ZM18.4399 9.58301L20.6908 8.582L20.7263 8.68002C21.0495 9.58302 21.2427 10.49 21.3018 11.373L21.3176 11.578L18.4399 9.58301Z" fill="black" fill-opacity="0.2"/>
<path d="M21.361 9.23203C20.9352 7.79303 20.1863 6.469 19.1968 5.392C17.3835 3.425 14.695 2.25 12.0066 2.25C9.44431 2.25 6.94511 3.27101 5.14361 5.05701C2.79811 7.37501 1.76921 10.813 2.46301 14.023C2.88481 15.958 3.89001 17.756 5.29731 19.089C7.65071 21.32 11.0724 22.243 14.2181 21.506C16.1536 21.048 17.9472 19.988 19.2678 18.517C20.8603 16.739 21.7433 14.425 21.7552 11.996C21.7591 11.05 21.6251 10.123 21.361 9.23203ZM18.8972 5.72L19.0313 5.87302C19.6068 6.53602 20.0759 7.25703 20.4661 8.07703L20.5095 8.172L18.2783 9.15402L18.8972 5.72ZM12.0066 15.935L9.2196 14.78L8.06461 11.996L9.2196 9.20901L12.0066 8.05701L14.7936 9.20901L15.9486 11.996L14.7936 14.78L12.0066 15.935ZM14.6753 15.312L14.3048 17.591L12.4442 16.227L14.6753 15.312ZM11.573 16.207L9.68871 17.571L9.33791 15.288L11.573 16.207ZM7.57191 11.996L5.99111 14.165L2.84541 11.996L5.99111 9.828L7.57191 11.996ZM6.405 9.698L8.68741 9.35101L7.76901 11.559L6.405 9.698ZM7.7926 12.43L8.71111 14.661L6.42871 14.291L7.7926 12.43ZM9.33791 8.68002L9.70841 6.40201L11.569 7.76602L9.33791 8.68002ZM12.4402 7.785L14.3245 6.42102L14.6753 8.70001L12.4402 7.785ZM15.3021 9.32703L17.5845 9.70203L16.2443 11.558L15.3021 9.32703ZM16.2443 12.434L17.6082 14.291L15.3021 14.661L16.2443 12.434ZM16.4414 11.996L18.0221 9.828L21.1678 11.996L18.0221 14.165L16.4414 11.996ZM17.8092 9.272L15.1405 8.84201L14.7345 6.20102L18.4873 5.522L17.8092 9.272ZM15.8225 3.48001C16.6818 3.89801 17.4387 4.387 18.1325 4.974L18.2902 5.112L14.8409 5.72702L15.7239 3.43301L15.8225 3.48001ZM12.6294 2.707C13.4691 2.766 14.3363 2.94802 15.1957 3.24402L15.2942 3.27502L14.427 5.55801L12.4205 2.69202L12.6294 2.707ZM14.1786 5.96402L12.0066 7.565L9.83461 5.98401L12.0066 2.845L14.1786 5.96402ZM8.66381 3.28702C9.56651 2.94802 10.4732 2.74702 11.3641 2.68802L11.569 2.672L9.57051 5.57001L8.56921 3.32202L8.66381 3.28702ZM5.88071 4.974C6.56271 4.403 7.30381 3.922 8.08431 3.543L8.17891 3.5L9.16051 5.73102L5.71921 5.108L5.88071 4.974ZM9.27871 6.20001L8.87271 8.862L6.20401 9.272L5.52601 5.522L9.27871 6.20001ZM3.48401 8.18402C3.90191 7.32402 4.39071 6.56701 4.98201 5.87701L5.11601 5.716L5.73491 9.16501L3.43671 8.27802L3.48401 8.18402ZM2.73111 11.377C2.77441 10.51 2.95191 9.63802 3.26721 8.78702L3.30271 8.69202L5.58111 9.57901L2.72321 11.578L2.73111 11.377ZM3.28691 15.312C2.96371 14.409 2.77051 13.502 2.71141 12.615L2.69561 12.41L5.57331 14.405L3.32241 15.41L3.28691 15.312ZM5.11601 18.273L4.98201 18.115C4.40641 17.457 3.93731 16.735 3.54711 15.911L3.50371 15.82L5.73491 14.839L5.11601 18.273ZM6.20401 14.72L8.87271 15.15L9.27871 17.792L5.52601 18.47L6.20401 14.72ZM8.19081 20.512C7.33141 20.09 6.57451 19.601 5.88071 19.014L5.7231 18.88L9.17231 18.261L8.28931 20.559L8.19081 20.512ZM11.3838 21.285C10.5402 21.222 9.67691 21.044 8.81751 20.749L8.71901 20.717L9.58621 18.434L11.5927 21.297L11.3838 21.285ZM9.83461 18.028L12.0066 16.428L14.1786 18.009L12.0066 21.147L9.83461 18.028ZM15.3494 20.705C14.4467 21.044 13.54 21.245 12.6492 21.305L12.4442 21.32L14.4428 18.423L15.444 20.67L15.3494 20.705ZM18.1325 19.014C17.5096 19.558 16.7646 20.039 15.9289 20.449L15.8343 20.492L14.8527 18.261L18.2862 18.88L18.1325 19.014ZM14.7345 17.792L15.1405 15.127L17.8092 14.72L18.4873 18.47L14.7345 17.792ZM20.5292 15.809C20.1114 16.668 19.6225 17.421 19.0313 18.115L18.8972 18.273L18.2783 14.827L20.5765 15.71L20.5292 15.809ZM21.2821 12.615C21.2388 13.482 21.0613 14.354 20.746 15.205L20.7105 15.3L18.4321 14.413L21.29 12.414L21.2821 12.615ZM18.4399 9.58301L20.6908 8.582L20.7263 8.68002C21.0495 9.58302 21.2427 10.49 21.3018 11.373L21.3176 11.578L18.4399 9.58301Z" fill="black" fill-opacity="0.2"/>
<path d="M21.361 9.23203C20.9352 7.79303 20.1863 6.469 19.1968 5.392C17.3835 3.425 14.695 2.25 12.0066 2.25C9.44431 2.25 6.94511 3.27101 5.14361 5.05701C2.79811 7.37501 1.76921 10.813 2.46301 14.023C2.88481 15.958 3.89001 17.756 5.29731 19.089C7.65071 21.32 11.0724 22.243 14.2181 21.506C16.1536 21.048 17.9472 19.988 19.2678 18.517C20.8603 16.739 21.7433 14.425 21.7552 11.996C21.7591 11.05 21.6251 10.123 21.361 9.23203ZM18.8972 5.72L19.0313 5.87302C19.6068 6.53602 20.0759 7.25703 20.4661 8.07703L20.5095 8.172L18.2783 9.15402L18.8972 5.72ZM12.0066 15.935L9.2196 14.78L8.06461 11.996L9.2196 9.20901L12.0066 8.05701L14.7936 9.20901L15.9486 11.996L14.7936 14.78L12.0066 15.935ZM14.6753 15.312L14.3048 17.591L12.4442 16.227L14.6753 15.312ZM11.573 16.207L9.68871 17.571L9.33791 15.288L11.573 16.207ZM7.57191 11.996L5.99111 14.165L2.84541 11.996L5.99111 9.828L7.57191 11.996ZM6.405 9.698L8.68741 9.35101L7.76901 11.559L6.405 9.698ZM7.7926 12.43L8.71111 14.661L6.42871 14.291L7.7926 12.43ZM9.33791 8.68002L9.70841 6.40201L11.569 7.76602L9.33791 8.68002ZM12.4402 7.785L14.3245 6.42102L14.6753 8.70001L12.4402 7.785ZM15.3021 9.32703L17.5845 9.70203L16.2443 11.558L15.3021 9.32703ZM16.2443 12.434L17.6082 14.291L15.3021 14.661L16.2443 12.434ZM16.4414 11.996L18.0221 9.828L21.1678 11.996L18.0221 14.165L16.4414 11.996ZM17.8092 9.272L15.1405 8.84201L14.7345 6.20102L18.4873 5.522L17.8092 9.272ZM15.8225 3.48001C16.6818 3.89801 17.4387 4.387 18.1325 4.974L18.2902 5.112L14.8409 5.72702L15.7239 3.43301L15.8225 3.48001ZM12.6294 2.707C13.4691 2.766 14.3363 2.94802 15.1957 3.24402L15.2942 3.27502L14.427 5.55801L12.4205 2.69202L12.6294 2.707ZM14.1786 5.96402L12.0066 7.565L9.83461 5.98401L12.0066 2.845L14.1786 5.96402ZM8.66381 3.28702C9.56651 2.94802 10.4732 2.74702 11.3641 2.68802L11.569 2.672L9.57051 5.57001L8.56921 3.32202L8.66381 3.28702ZM5.88071 4.974C6.56271 4.403 7.30381 3.922 8.08431 3.543L8.17891 3.5L9.16051 5.73102L5.71921 5.108L5.88071 4.974ZM9.27871 6.20001L8.87271 8.862L6.20401 9.272L5.52601 5.522L9.27871 6.20001ZM3.48401 8.18402C3.90191 7.32402 4.39071 6.56701 4.98201 5.87701L5.11601 5.716L5.73491 9.16501L3.43671 8.27802L3.48401 8.18402ZM2.73111 11.377C2.77441 10.51 2.95191 9.63802 3.26721 8.78702L3.30271 8.69202L5.58111 9.57901L2.72321 11.578L2.73111 11.377ZM3.28691 15.312C2.96371 14.409 2.77051 13.502 2.71141 12.615L2.69561 12.41L5.57331 14.405L3.32241 15.41L3.28691 15.312ZM5.11601 18.273L4.98201 18.115C4.40641 17.457 3.93731 16.735 3.54711 15.911L3.50371 15.82L5.73491 14.839L5.11601 18.273ZM6.20401 14.72L8.87271 15.15L9.27871 17.792L5.52601 18.47L6.20401 14.72ZM8.19081 20.512C7.33141 20.09 6.57451 19.601 5.88071 19.014L5.7231 18.88L9.17231 18.261L8.28931 20.559L8.19081 20.512ZM11.3838 21.285C10.5402 21.222 9.67691 21.044 8.81751 20.749L8.71901 20.717L9.58621 18.434L11.5927 21.297L11.3838 21.285ZM9.83461 18.028L12.0066 16.428L14.1786 18.009L12.0066 21.147L9.83461 18.028ZM15.3494 20.705C14.4467 21.044 13.54 21.245 12.6492 21.305L12.4442 21.32L14.4428 18.423L15.444 20.67L15.3494 20.705ZM18.1325 19.014C17.5096 19.558 16.7646 20.039 15.9289 20.449L15.8343 20.492L14.8527 18.261L18.2862 18.88L18.1325 19.014ZM14.7345 17.792L15.1405 15.127L17.8092 14.72L18.4873 18.47L14.7345 17.792ZM20.5292 15.809C20.1114 16.668 19.6225 17.421 19.0313 18.115L18.8972 18.273L18.2783 14.827L20.5765 15.71L20.5292 15.809ZM21.2821 12.615C21.2388 13.482 21.0613 14.354 20.746 15.205L20.7105 15.3L18.4321 14.413L21.29 12.414L21.2821 12.615ZM18.4399 9.58301L20.6908 8.582L20.7263 8.68002C21.0495 9.58302 21.2427 10.49 21.3018 11.373L21.3176 11.578L18.4399 9.58301Z" stroke="#333335" stroke-width="0.2"/>
<path d="M21.361 9.23203C20.9352 7.79303 20.1863 6.469 19.1968 5.392C17.3835 3.425 14.695 2.25 12.0066 2.25C9.44431 2.25 6.94511 3.27101 5.14361 5.05701C2.79811 7.37501 1.76921 10.813 2.46301 14.023C2.88481 15.958 3.89001 17.756 5.29731 19.089C7.65071 21.32 11.0724 22.243 14.2181 21.506C16.1536 21.048 17.9472 19.988 19.2678 18.517C20.8603 16.739 21.7433 14.425 21.7552 11.996C21.7591 11.05 21.6251 10.123 21.361 9.23203ZM18.8972 5.72L19.0313 5.87302C19.6068 6.53602 20.0759 7.25703 20.4661 8.07703L20.5095 8.172L18.2783 9.15402L18.8972 5.72ZM12.0066 15.935L9.2196 14.78L8.06461 11.996L9.2196 9.20901L12.0066 8.05701L14.7936 9.20901L15.9486 11.996L14.7936 14.78L12.0066 15.935ZM14.6753 15.312L14.3048 17.591L12.4442 16.227L14.6753 15.312ZM11.573 16.207L9.68871 17.571L9.33791 15.288L11.573 16.207ZM7.57191 11.996L5.99111 14.165L2.84541 11.996L5.99111 9.828L7.57191 11.996ZM6.405 9.698L8.68741 9.35101L7.76901 11.559L6.405 9.698ZM7.7926 12.43L8.71111 14.661L6.42871 14.291L7.7926 12.43ZM9.33791 8.68002L9.70841 6.40201L11.569 7.76602L9.33791 8.68002ZM12.4402 7.785L14.3245 6.42102L14.6753 8.70001L12.4402 7.785ZM15.3021 9.32703L17.5845 9.70203L16.2443 11.558L15.3021 9.32703ZM16.2443 12.434L17.6082 14.291L15.3021 14.661L16.2443 12.434ZM16.4414 11.996L18.0221 9.828L21.1678 11.996L18.0221 14.165L16.4414 11.996ZM17.8092 9.272L15.1405 8.84201L14.7345 6.20102L18.4873 5.522L17.8092 9.272ZM15.8225 3.48001C16.6818 3.89801 17.4387 4.387 18.1325 4.974L18.2902 5.112L14.8409 5.72702L15.7239 3.43301L15.8225 3.48001ZM12.6294 2.707C13.4691 2.766 14.3363 2.94802 15.1957 3.24402L15.2942 3.27502L14.427 5.55801L12.4205 2.69202L12.6294 2.707ZM14.1786 5.96402L12.0066 7.565L9.83461 5.98401L12.0066 2.845L14.1786 5.96402ZM8.66381 3.28702C9.56651 2.94802 10.4732 2.74702 11.3641 2.68802L11.569 2.672L9.57051 5.57001L8.56921 3.32202L8.66381 3.28702ZM5.88071 4.974C6.56271 4.403 7.30381 3.922 8.08431 3.543L8.17891 3.5L9.16051 5.73102L5.71921 5.108L5.88071 4.974ZM9.27871 6.20001L8.87271 8.862L6.20401 9.272L5.52601 5.522L9.27871 6.20001ZM3.48401 8.18402C3.90191 7.32402 4.39071 6.56701 4.98201 5.87701L5.11601 5.716L5.73491 9.16501L3.43671 8.27802L3.48401 8.18402ZM2.73111 11.377C2.77441 10.51 2.95191 9.63802 3.26721 8.78702L3.30271 8.69202L5.58111 9.57901L2.72321 11.578L2.73111 11.377ZM3.28691 15.312C2.96371 14.409 2.77051 13.502 2.71141 12.615L2.69561 12.41L5.57331 14.405L3.32241 15.41L3.28691 15.312ZM5.11601 18.273L4.98201 18.115C4.40641 17.457 3.93731 16.735 3.54711 15.911L3.50371 15.82L5.73491 14.839L5.11601 18.273ZM6.20401 14.72L8.87271 15.15L9.27871 17.792L5.52601 18.47L6.20401 14.72ZM8.19081 20.512C7.33141 20.09 6.57451 19.601 5.88071 19.014L5.7231 18.88L9.17231 18.261L8.28931 20.559L8.19081 20.512ZM11.3838 21.285C10.5402 21.222 9.67691 21.044 8.81751 20.749L8.71901 20.717L9.58621 18.434L11.5927 21.297L11.3838 21.285ZM9.83461 18.028L12.0066 16.428L14.1786 18.009L12.0066 21.147L9.83461 18.028ZM15.3494 20.705C14.4467 21.044 13.54 21.245 12.6492 21.305L12.4442 21.32L14.4428 18.423L15.444 20.67L15.3494 20.705ZM18.1325 19.014C17.5096 19.558 16.7646 20.039 15.9289 20.449L15.8343 20.492L14.8527 18.261L18.2862 18.88L18.1325 19.014ZM14.7345 17.792L15.1405 15.127L17.8092 14.72L18.4873 18.47L14.7345 17.792ZM20.5292 15.809C20.1114 16.668 19.6225 17.421 19.0313 18.115L18.8972 18.273L18.2783 14.827L20.5765 15.71L20.5292 15.809ZM21.2821 12.615C21.2388 13.482 21.0613 14.354 20.746 15.205L20.7105 15.3L18.4321 14.413L21.29 12.414L21.2821 12.615ZM18.4399 9.58301L20.6908 8.582L20.7263 8.68002C21.0495 9.58302 21.2427 10.49 21.3018 11.373L21.3176 11.578L18.4399 9.58301Z" stroke="black" stroke-opacity="0.2" stroke-width="0.2"/>
<path d="M21.361 9.23203C20.9352 7.79303 20.1863 6.469 19.1968 5.392C17.3835 3.425 14.695 2.25 12.0066 2.25C9.44431 2.25 6.94511 3.27101 5.14361 5.05701C2.79811 7.37501 1.76921 10.813 2.46301 14.023C2.88481 15.958 3.89001 17.756 5.29731 19.089C7.65071 21.32 11.0724 22.243 14.2181 21.506C16.1536 21.048 17.9472 19.988 19.2678 18.517C20.8603 16.739 21.7433 14.425 21.7552 11.996C21.7591 11.05 21.6251 10.123 21.361 9.23203ZM18.8972 5.72L19.0313 5.87302C19.6068 6.53602 20.0759 7.25703 20.4661 8.07703L20.5095 8.172L18.2783 9.15402L18.8972 5.72ZM12.0066 15.935L9.2196 14.78L8.06461 11.996L9.2196 9.20901L12.0066 8.05701L14.7936 9.20901L15.9486 11.996L14.7936 14.78L12.0066 15.935ZM14.6753 15.312L14.3048 17.591L12.4442 16.227L14.6753 15.312ZM11.573 16.207L9.68871 17.571L9.33791 15.288L11.573 16.207ZM7.57191 11.996L5.99111 14.165L2.84541 11.996L5.99111 9.828L7.57191 11.996ZM6.405 9.698L8.68741 9.35101L7.76901 11.559L6.405 9.698ZM7.7926 12.43L8.71111 14.661L6.42871 14.291L7.7926 12.43ZM9.33791 8.68002L9.70841 6.40201L11.569 7.76602L9.33791 8.68002ZM12.4402 7.785L14.3245 6.42102L14.6753 8.70001L12.4402 7.785ZM15.3021 9.32703L17.5845 9.70203L16.2443 11.558L15.3021 9.32703ZM16.2443 12.434L17.6082 14.291L15.3021 14.661L16.2443 12.434ZM16.4414 11.996L18.0221 9.828L21.1678 11.996L18.0221 14.165L16.4414 11.996ZM17.8092 9.272L15.1405 8.84201L14.7345 6.20102L18.4873 5.522L17.8092 9.272ZM15.8225 3.48001C16.6818 3.89801 17.4387 4.387 18.1325 4.974L18.2902 5.112L14.8409 5.72702L15.7239 3.43301L15.8225 3.48001ZM12.6294 2.707C13.4691 2.766 14.3363 2.94802 15.1957 3.24402L15.2942 3.27502L14.427 5.55801L12.4205 2.69202L12.6294 2.707ZM14.1786 5.96402L12.0066 7.565L9.83461 5.98401L12.0066 2.845L14.1786 5.96402ZM8.66381 3.28702C9.56651 2.94802 10.4732 2.74702 11.3641 2.68802L11.569 2.672L9.57051 5.57001L8.56921 3.32202L8.66381 3.28702ZM5.88071 4.974C6.56271 4.403 7.30381 3.922 8.08431 3.543L8.17891 3.5L9.16051 5.73102L5.71921 5.108L5.88071 4.974ZM9.27871 6.20001L8.87271 8.862L6.20401 9.272L5.52601 5.522L9.27871 6.20001ZM3.48401 8.18402C3.90191 7.32402 4.39071 6.56701 4.98201 5.87701L5.11601 5.716L5.73491 9.16501L3.43671 8.27802L3.48401 8.18402ZM2.73111 11.377C2.77441 10.51 2.95191 9.63802 3.26721 8.78702L3.30271 8.69202L5.58111 9.57901L2.72321 11.578L2.73111 11.377ZM3.28691 15.312C2.96371 14.409 2.77051 13.502 2.71141 12.615L2.69561 12.41L5.57331 14.405L3.32241 15.41L3.28691 15.312ZM5.11601 18.273L4.98201 18.115C4.40641 17.457 3.93731 16.735 3.54711 15.911L3.50371 15.82L5.73491 14.839L5.11601 18.273ZM6.20401 14.72L8.87271 15.15L9.27871 17.792L5.52601 18.47L6.20401 14.72ZM8.19081 20.512C7.33141 20.09 6.57451 19.601 5.88071 19.014L5.7231 18.88L9.17231 18.261L8.28931 20.559L8.19081 20.512ZM11.3838 21.285C10.5402 21.222 9.67691 21.044 8.81751 20.749L8.71901 20.717L9.58621 18.434L11.5927 21.297L11.3838 21.285ZM9.83461 18.028L12.0066 16.428L14.1786 18.009L12.0066 21.147L9.83461 18.028ZM15.3494 20.705C14.4467 21.044 13.54 21.245 12.6492 21.305L12.4442 21.32L14.4428 18.423L15.444 20.67L15.3494 20.705ZM18.1325 19.014C17.5096 19.558 16.7646 20.039 15.9289 20.449L15.8343 20.492L14.8527 18.261L18.2862 18.88L18.1325 19.014ZM14.7345 17.792L15.1405 15.127L17.8092 14.72L18.4873 18.47L14.7345 17.792ZM20.5292 15.809C20.1114 16.668 19.6225 17.421 19.0313 18.115L18.8972 18.273L18.2783 14.827L20.5765 15.71L20.5292 15.809ZM21.2821 12.615C21.2388 13.482 21.0613 14.354 20.746 15.205L20.7105 15.3L18.4321 14.413L21.29 12.414L21.2821 12.615ZM18.4399 9.58301L20.6908 8.582L20.7263 8.68002C21.0495 9.58302 21.2427 10.49 21.3018 11.373L21.3176 11.578L18.4399 9.58301Z" stroke="black" stroke-opacity="0.2" stroke-width="0.2"/>
<path d="M21.361 9.23203C20.9352 7.79303 20.1863 6.469 19.1968 5.392C17.3835 3.425 14.695 2.25 12.0066 2.25C9.44431 2.25 6.94511 3.27101 5.14361 5.05701C2.79811 7.37501 1.76921 10.813 2.46301 14.023C2.88481 15.958 3.89001 17.756 5.29731 19.089C7.65071 21.32 11.0724 22.243 14.2181 21.506C16.1536 21.048 17.9472 19.988 19.2678 18.517C20.8603 16.739 21.7433 14.425 21.7552 11.996C21.7591 11.05 21.6251 10.123 21.361 9.23203ZM18.8972 5.72L19.0313 5.87302C19.6068 6.53602 20.0759 7.25703 20.4661 8.07703L20.5095 8.172L18.2783 9.15402L18.8972 5.72ZM12.0066 15.935L9.2196 14.78L8.06461 11.996L9.2196 9.20901L12.0066 8.05701L14.7936 9.20901L15.9486 11.996L14.7936 14.78L12.0066 15.935ZM14.6753 15.312L14.3048 17.591L12.4442 16.227L14.6753 15.312ZM11.573 16.207L9.68871 17.571L9.33791 15.288L11.573 16.207ZM7.57191 11.996L5.99111 14.165L2.84541 11.996L5.99111 9.828L7.57191 11.996ZM6.405 9.698L8.68741 9.35101L7.76901 11.559L6.405 9.698ZM7.7926 12.43L8.71111 14.661L6.42871 14.291L7.7926 12.43ZM9.33791 8.68002L9.70841 6.40201L11.569 7.76602L9.33791 8.68002ZM12.4402 7.785L14.3245 6.42102L14.6753 8.70001L12.4402 7.785ZM15.3021 9.32703L17.5845 9.70203L16.2443 11.558L15.3021 9.32703ZM16.2443 12.434L17.6082 14.291L15.3021 14.661L16.2443 12.434ZM16.4414 11.996L18.0221 9.828L21.1678 11.996L18.0221 14.165L16.4414 11.996ZM17.8092 9.272L15.1405 8.84201L14.7345 6.20102L18.4873 5.522L17.8092 9.272ZM15.8225 3.48001C16.6818 3.89801 17.4387 4.387 18.1325 4.974L18.2902 5.112L14.8409 5.72702L15.7239 3.43301L15.8225 3.48001ZM12.6294 2.707C13.4691 2.766 14.3363 2.94802 15.1957 3.24402L15.2942 3.27502L14.427 5.55801L12.4205 2.69202L12.6294 2.707ZM14.1786 5.96402L12.0066 7.565L9.83461 5.98401L12.0066 2.845L14.1786 5.96402ZM8.66381 3.28702C9.56651 2.94802 10.4732 2.74702 11.3641 2.68802L11.569 2.672L9.57051 5.57001L8.56921 3.32202L8.66381 3.28702ZM5.88071 4.974C6.56271 4.403 7.30381 3.922 8.08431 3.543L8.17891 3.5L9.16051 5.73102L5.71921 5.108L5.88071 4.974ZM9.27871 6.20001L8.87271 8.862L6.20401 9.272L5.52601 5.522L9.27871 6.20001ZM3.48401 8.18402C3.90191 7.32402 4.39071 6.56701 4.98201 5.87701L5.11601 5.716L5.73491 9.16501L3.43671 8.27802L3.48401 8.18402ZM2.73111 11.377C2.77441 10.51 2.95191 9.63802 3.26721 8.78702L3.30271 8.69202L5.58111 9.57901L2.72321 11.578L2.73111 11.377ZM3.28691 15.312C2.96371 14.409 2.77051 13.502 2.71141 12.615L2.69561 12.41L5.57331 14.405L3.32241 15.41L3.28691 15.312ZM5.11601 18.273L4.98201 18.115C4.40641 17.457 3.93731 16.735 3.54711 15.911L3.50371 15.82L5.73491 14.839L5.11601 18.273ZM6.20401 14.72L8.87271 15.15L9.27871 17.792L5.52601 18.47L6.20401 14.72ZM8.19081 20.512C7.33141 20.09 6.57451 19.601 5.88071 19.014L5.7231 18.88L9.17231 18.261L8.28931 20.559L8.19081 20.512ZM11.3838 21.285C10.5402 21.222 9.67691 21.044 8.81751 20.749L8.71901 20.717L9.58621 18.434L11.5927 21.297L11.3838 21.285ZM9.83461 18.028L12.0066 16.428L14.1786 18.009L12.0066 21.147L9.83461 18.028ZM15.3494 20.705C14.4467 21.044 13.54 21.245 12.6492 21.305L12.4442 21.32L14.4428 18.423L15.444 20.67L15.3494 20.705ZM18.1325 19.014C17.5096 19.558 16.7646 20.039 15.9289 20.449L15.8343 20.492L14.8527 18.261L18.2862 18.88L18.1325 19.014ZM14.7345 17.792L15.1405 15.127L17.8092 14.72L18.4873 18.47L14.7345 17.792ZM20.5292 15.809C20.1114 16.668 19.6225 17.421 19.0313 18.115L18.8972 18.273L18.2783 14.827L20.5765 15.71L20.5292 15.809ZM21.2821 12.615C21.2388 13.482 21.0613 14.354 20.746 15.205L20.7105 15.3L18.4321 14.413L21.29 12.414L21.2821 12.615ZM18.4399 9.58301L20.6908 8.582L20.7263 8.68002C21.0495 9.58302 21.2427 10.49 21.3018 11.373L21.3176 11.578L18.4399 9.58301Z" stroke="black" stroke-opacity="0.2" stroke-width="0.2"/>
<path d="M21.361 9.23203C20.9352 7.79303 20.1863 6.469 19.1968 5.392C17.3835 3.425 14.695 2.25 12.0066 2.25C9.44431 2.25 6.94511 3.27101 5.14361 5.05701C2.79811 7.37501 1.76921 10.813 2.46301 14.023C2.88481 15.958 3.89001 17.756 5.29731 19.089C7.65071 21.32 11.0724 22.243 14.2181 21.506C16.1536 21.048 17.9472 19.988 19.2678 18.517C20.8603 16.739 21.7433 14.425 21.7552 11.996C21.7591 11.05 21.6251 10.123 21.361 9.23203ZM18.8972 5.72L19.0313 5.87302C19.6068 6.53602 20.0759 7.25703 20.4661 8.07703L20.5095 8.172L18.2783 9.15402L18.8972 5.72ZM12.0066 15.935L9.2196 14.78L8.06461 11.996L9.2196 9.20901L12.0066 8.05701L14.7936 9.20901L15.9486 11.996L14.7936 14.78L12.0066 15.935ZM14.6753 15.312L14.3048 17.591L12.4442 16.227L14.6753 15.312ZM11.573 16.207L9.68871 17.571L9.33791 15.288L11.573 16.207ZM7.57191 11.996L5.99111 14.165L2.84541 11.996L5.99111 9.828L7.57191 11.996ZM6.405 9.698L8.68741 9.35101L7.76901 11.559L6.405 9.698ZM7.7926 12.43L8.71111 14.661L6.42871 14.291L7.7926 12.43ZM9.33791 8.68002L9.70841 6.40201L11.569 7.76602L9.33791 8.68002ZM12.4402 7.785L14.3245 6.42102L14.6753 8.70001L12.4402 7.785ZM15.3021 9.32703L17.5845 9.70203L16.2443 11.558L15.3021 9.32703ZM16.2443 12.434L17.6082 14.291L15.3021 14.661L16.2443 12.434ZM16.4414 11.996L18.0221 9.828L21.1678 11.996L18.0221 14.165L16.4414 11.996ZM17.8092 9.272L15.1405 8.84201L14.7345 6.20102L18.4873 5.522L17.8092 9.272ZM15.8225 3.48001C16.6818 3.89801 17.4387 4.387 18.1325 4.974L18.2902 5.112L14.8409 5.72702L15.7239 3.43301L15.8225 3.48001ZM12.6294 2.707C13.4691 2.766 14.3363 2.94802 15.1957 3.24402L15.2942 3.27502L14.427 5.55801L12.4205 2.69202L12.6294 2.707ZM14.1786 5.96402L12.0066 7.565L9.83461 5.98401L12.0066 2.845L14.1786 5.96402ZM8.66381 3.28702C9.56651 2.94802 10.4732 2.74702 11.3641 2.68802L11.569 2.672L9.57051 5.57001L8.56921 3.32202L8.66381 3.28702ZM5.88071 4.974C6.56271 4.403 7.30381 3.922 8.08431 3.543L8.17891 3.5L9.16051 5.73102L5.71921 5.108L5.88071 4.974ZM9.27871 6.20001L8.87271 8.862L6.20401 9.272L5.52601 5.522L9.27871 6.20001ZM3.48401 8.18402C3.90191 7.32402 4.39071 6.56701 4.98201 5.87701L5.11601 5.716L5.73491 9.16501L3.43671 8.27802L3.48401 8.18402ZM2.73111 11.377C2.77441 10.51 2.95191 9.63802 3.26721 8.78702L3.30271 8.69202L5.58111 9.57901L2.72321 11.578L2.73111 11.377ZM3.28691 15.312C2.96371 14.409 2.77051 13.502 2.71141 12.615L2.69561 12.41L5.57331 14.405L3.32241 15.41L3.28691 15.312ZM5.11601 18.273L4.98201 18.115C4.40641 17.457 3.93731 16.735 3.54711 15.911L3.50371 15.82L5.73491 14.839L5.11601 18.273ZM6.20401 14.72L8.87271 15.15L9.27871 17.792L5.52601 18.47L6.20401 14.72ZM8.19081 20.512C7.33141 20.09 6.57451 19.601 5.88071 19.014L5.7231 18.88L9.17231 18.261L8.28931 20.559L8.19081 20.512ZM11.3838 21.285C10.5402 21.222 9.67691 21.044 8.81751 20.749L8.71901 20.717L9.58621 18.434L11.5927 21.297L11.3838 21.285ZM9.83461 18.028L12.0066 16.428L14.1786 18.009L12.0066 21.147L9.83461 18.028ZM15.3494 20.705C14.4467 21.044 13.54 21.245 12.6492 21.305L12.4442 21.32L14.4428 18.423L15.444 20.67L15.3494 20.705ZM18.1325 19.014C17.5096 19.558 16.7646 20.039 15.9289 20.449L15.8343 20.492L14.8527 18.261L18.2862 18.88L18.1325 19.014ZM14.7345 17.792L15.1405 15.127L17.8092 14.72L18.4873 18.47L14.7345 17.792ZM20.5292 15.809C20.1114 16.668 19.6225 17.421 19.0313 18.115L18.8972 18.273L18.2783 14.827L20.5765 15.71L20.5292 15.809ZM21.2821 12.615C21.2388 13.482 21.0613 14.354 20.746 15.205L20.7105 15.3L18.4321 14.413L21.29 12.414L21.2821 12.615ZM18.4399 9.58301L20.6908 8.582L20.7263 8.68002C21.0495 9.58302 21.2427 10.49 21.3018 11.373L21.3176 11.578L18.4399 9.58301Z" stroke="black" stroke-opacity="0.2" stroke-width="0.2"/>
<path d="M21.361 9.23203C20.9352 7.79303 20.1863 6.469 19.1968 5.392C17.3835 3.425 14.695 2.25 12.0066 2.25C9.44431 2.25 6.94511 3.27101 5.14361 5.05701C2.79811 7.37501 1.76921 10.813 2.46301 14.023C2.88481 15.958 3.89001 17.756 5.29731 19.089C7.65071 21.32 11.0724 22.243 14.2181 21.506C16.1536 21.048 17.9472 19.988 19.2678 18.517C20.8603 16.739 21.7433 14.425 21.7552 11.996C21.7591 11.05 21.6251 10.123 21.361 9.23203ZM18.8972 5.72L19.0313 5.87302C19.6068 6.53602 20.0759 7.25703 20.4661 8.07703L20.5095 8.172L18.2783 9.15402L18.8972 5.72ZM12.0066 15.935L9.2196 14.78L8.06461 11.996L9.2196 9.20901L12.0066 8.05701L14.7936 9.20901L15.9486 11.996L14.7936 14.78L12.0066 15.935ZM14.6753 15.312L14.3048 17.591L12.4442 16.227L14.6753 15.312ZM11.573 16.207L9.68871 17.571L9.33791 15.288L11.573 16.207ZM7.57191 11.996L5.99111 14.165L2.84541 11.996L5.99111 9.828L7.57191 11.996ZM6.405 9.698L8.68741 9.35101L7.76901 11.559L6.405 9.698ZM7.7926 12.43L8.71111 14.661L6.42871 14.291L7.7926 12.43ZM9.33791 8.68002L9.70841 6.40201L11.569 7.76602L9.33791 8.68002ZM12.4402 7.785L14.3245 6.42102L14.6753 8.70001L12.4402 7.785ZM15.3021 9.32703L17.5845 9.70203L16.2443 11.558L15.3021 9.32703ZM16.2443 12.434L17.6082 14.291L15.3021 14.661L16.2443 12.434ZM16.4414 11.996L18.0221 9.828L21.1678 11.996L18.0221 14.165L16.4414 11.996ZM17.8092 9.272L15.1405 8.84201L14.7345 6.20102L18.4873 5.522L17.8092 9.272ZM15.8225 3.48001C16.6818 3.89801 17.4387 4.387 18.1325 4.974L18.2902 5.112L14.8409 5.72702L15.7239 3.43301L15.8225 3.48001ZM12.6294 2.707C13.4691 2.766 14.3363 2.94802 15.1957 3.24402L15.2942 3.27502L14.427 5.55801L12.4205 2.69202L12.6294 2.707ZM14.1786 5.96402L12.0066 7.565L9.83461 5.98401L12.0066 2.845L14.1786 5.96402ZM8.66381 3.28702C9.56651 2.94802 10.4732 2.74702 11.3641 2.68802L11.569 2.672L9.57051 5.57001L8.56921 3.32202L8.66381 3.28702ZM5.88071 4.974C6.56271 4.403 7.30381 3.922 8.08431 3.543L8.17891 3.5L9.16051 5.73102L5.71921 5.108L5.88071 4.974ZM9.27871 6.20001L8.87271 8.862L6.20401 9.272L5.52601 5.522L9.27871 6.20001ZM3.48401 8.18402C3.90191 7.32402 4.39071 6.56701 4.98201 5.87701L5.11601 5.716L5.73491 9.16501L3.43671 8.27802L3.48401 8.18402ZM2.73111 11.377C2.77441 10.51 2.95191 9.63802 3.26721 8.78702L3.30271 8.69202L5.58111 9.57901L2.72321 11.578L2.73111 11.377ZM3.28691 15.312C2.96371 14.409 2.77051 13.502 2.71141 12.615L2.69561 12.41L5.57331 14.405L3.32241 15.41L3.28691 15.312ZM5.11601 18.273L4.98201 18.115C4.40641 17.457 3.93731 16.735 3.54711 15.911L3.50371 15.82L5.73491 14.839L5.11601 18.273ZM6.20401 14.72L8.87271 15.15L9.27871 17.792L5.52601 18.47L6.20401 14.72ZM8.19081 20.512C7.33141 20.09 6.57451 19.601 5.88071 19.014L5.7231 18.88L9.17231 18.261L8.28931 20.559L8.19081 20.512ZM11.3838 21.285C10.5402 21.222 9.67691 21.044 8.81751 20.749L8.71901 20.717L9.58621 18.434L11.5927 21.297L11.3838 21.285ZM9.83461 18.028L12.0066 16.428L14.1786 18.009L12.0066 21.147L9.83461 18.028ZM15.3494 20.705C14.4467 21.044 13.54 21.245 12.6492 21.305L12.4442 21.32L14.4428 18.423L15.444 20.67L15.3494 20.705ZM18.1325 19.014C17.5096 19.558 16.7646 20.039 15.9289 20.449L15.8343 20.492L14.8527 18.261L18.2862 18.88L18.1325 19.014ZM14.7345 17.792L15.1405 15.127L17.8092 14.72L18.4873 18.47L14.7345 17.792ZM20.5292 15.809C20.1114 16.668 19.6225 17.421 19.0313 18.115L18.8972 18.273L18.2783 14.827L20.5765 15.71L20.5292 15.809ZM21.2821 12.615C21.2388 13.482 21.0613 14.354 20.746 15.205L20.7105 15.3L18.4321 14.413L21.29 12.414L21.2821 12.615ZM18.4399 9.58301L20.6908 8.582L20.7263 8.68002C21.0495 9.58302 21.2427 10.49 21.3018 11.373L21.3176 11.578L18.4399 9.58301Z" stroke="black" stroke-opacity="0.2" stroke-width="0.2"/>
<path d="M21.361 9.23203C20.9352 7.79303 20.1863 6.469 19.1968 5.392C17.3835 3.425 14.695 2.25 12.0066 2.25C9.44431 2.25 6.94511 3.27101 5.14361 5.05701C2.79811 7.37501 1.76921 10.813 2.46301 14.023C2.88481 15.958 3.89001 17.756 5.29731 19.089C7.65071 21.32 11.0724 22.243 14.2181 21.506C16.1536 21.048 17.9472 19.988 19.2678 18.517C20.8603 16.739 21.7433 14.425 21.7552 11.996C21.7591 11.05 21.6251 10.123 21.361 9.23203ZM18.8972 5.72L19.0313 5.87302C19.6068 6.53602 20.0759 7.25703 20.4661 8.07703L20.5095 8.172L18.2783 9.15402L18.8972 5.72ZM12.0066 15.935L9.2196 14.78L8.06461 11.996L9.2196 9.20901L12.0066 8.05701L14.7936 9.20901L15.9486 11.996L14.7936 14.78L12.0066 15.935ZM14.6753 15.312L14.3048 17.591L12.4442 16.227L14.6753 15.312ZM11.573 16.207L9.68871 17.571L9.33791 15.288L11.573 16.207ZM7.57191 11.996L5.99111 14.165L2.84541 11.996L5.99111 9.828L7.57191 11.996ZM6.405 9.698L8.68741 9.35101L7.76901 11.559L6.405 9.698ZM7.7926 12.43L8.71111 14.661L6.42871 14.291L7.7926 12.43ZM9.33791 8.68002L9.70841 6.40201L11.569 7.76602L9.33791 8.68002ZM12.4402 7.785L14.3245 6.42102L14.6753 8.70001L12.4402 7.785ZM15.3021 9.32703L17.5845 9.70203L16.2443 11.558L15.3021 9.32703ZM16.2443 12.434L17.6082 14.291L15.3021 14.661L16.2443 12.434ZM16.4414 11.996L18.0221 9.828L21.1678 11.996L18.0221 14.165L16.4414 11.996ZM17.8092 9.272L15.1405 8.84201L14.7345 6.20102L18.4873 5.522L17.8092 9.272ZM15.8225 3.48001C16.6818 3.89801 17.4387 4.387 18.1325 4.974L18.2902 5.112L14.8409 5.72702L15.7239 3.43301L15.8225 3.48001ZM12.6294 2.707C13.4691 2.766 14.3363 2.94802 15.1957 3.24402L15.2942 3.27502L14.427 5.55801L12.4205 2.69202L12.6294 2.707ZM14.1786 5.96402L12.0066 7.565L9.83461 5.98401L12.0066 2.845L14.1786 5.96402ZM8.66381 3.28702C9.56651 2.94802 10.4732 2.74702 11.3641 2.68802L11.569 2.672L9.57051 5.57001L8.56921 3.32202L8.66381 3.28702ZM5.88071 4.974C6.56271 4.403 7.30381 3.922 8.08431 3.543L8.17891 3.5L9.16051 5.73102L5.71921 5.108L5.88071 4.974ZM9.27871 6.20001L8.87271 8.862L6.20401 9.272L5.52601 5.522L9.27871 6.20001ZM3.48401 8.18402C3.90191 7.32402 4.39071 6.56701 4.98201 5.87701L5.11601 5.716L5.73491 9.16501L3.43671 8.27802L3.48401 8.18402ZM2.73111 11.377C2.77441 10.51 2.95191 9.63802 3.26721 8.78702L3.30271 8.69202L5.58111 9.57901L2.72321 11.578L2.73111 11.377ZM3.28691 15.312C2.96371 14.409 2.77051 13.502 2.71141 12.615L2.69561 12.41L5.57331 14.405L3.32241 15.41L3.28691 15.312ZM5.11601 18.273L4.98201 18.115C4.40641 17.457 3.93731 16.735 3.54711 15.911L3.50371 15.82L5.73491 14.839L5.11601 18.273ZM6.20401 14.72L8.87271 15.15L9.27871 17.792L5.52601 18.47L6.20401 14.72ZM8.19081 20.512C7.33141 20.09 6.57451 19.601 5.88071 19.014L5.7231 18.88L9.17231 18.261L8.28931 20.559L8.19081 20.512ZM11.3838 21.285C10.5402 21.222 9.67691 21.044 8.81751 20.749L8.71901 20.717L9.58621 18.434L11.5927 21.297L11.3838 21.285ZM9.83461 18.028L12.0066 16.428L14.1786 18.009L12.0066 21.147L9.83461 18.028ZM15.3494 20.705C14.4467 21.044 13.54 21.245 12.6492 21.305L12.4442 21.32L14.4428 18.423L15.444 20.67L15.3494 20.705ZM18.1325 19.014C17.5096 19.558 16.7646 20.039 15.9289 20.449L15.8343 20.492L14.8527 18.261L18.2862 18.88L18.1325 19.014ZM14.7345 17.792L15.1405 15.127L17.8092 14.72L18.4873 18.47L14.7345 17.792ZM20.5292 15.809C20.1114 16.668 19.6225 17.421 19.0313 18.115L18.8972 18.273L18.2783 14.827L20.5765 15.71L20.5292 15.809ZM21.2821 12.615C21.2388 13.482 21.0613 14.354 20.746 15.205L20.7105 15.3L18.4321 14.413L21.29 12.414L21.2821 12.615ZM18.4399 9.58301L20.6908 8.582L20.7263 8.68002C21.0495 9.58302 21.2427 10.49 21.3018 11.373L21.3176 11.578L18.4399 9.58301Z" stroke="black" stroke-opacity="0.2" stroke-width="0.2"/>
<path d="M21.361 9.23203C20.9352 7.79303 20.1863 6.469 19.1968 5.392C17.3835 3.425 14.695 2.25 12.0066 2.25C9.44431 2.25 6.94511 3.27101 5.14361 5.05701C2.79811 7.37501 1.76921 10.813 2.46301 14.023C2.88481 15.958 3.89001 17.756 5.29731 19.089C7.65071 21.32 11.0724 22.243 14.2181 21.506C16.1536 21.048 17.9472 19.988 19.2678 18.517C20.8603 16.739 21.7433 14.425 21.7552 11.996C21.7591 11.05 21.6251 10.123 21.361 9.23203ZM18.8972 5.72L19.0313 5.87302C19.6068 6.53602 20.0759 7.25703 20.4661 8.07703L20.5095 8.172L18.2783 9.15402L18.8972 5.72ZM12.0066 15.935L9.2196 14.78L8.06461 11.996L9.2196 9.20901L12.0066 8.05701L14.7936 9.20901L15.9486 11.996L14.7936 14.78L12.0066 15.935ZM14.6753 15.312L14.3048 17.591L12.4442 16.227L14.6753 15.312ZM11.573 16.207L9.68871 17.571L9.33791 15.288L11.573 16.207ZM7.57191 11.996L5.99111 14.165L2.84541 11.996L5.99111 9.828L7.57191 11.996ZM6.405 9.698L8.68741 9.35101L7.76901 11.559L6.405 9.698ZM7.7926 12.43L8.71111 14.661L6.42871 14.291L7.7926 12.43ZM9.33791 8.68002L9.70841 6.40201L11.569 7.76602L9.33791 8.68002ZM12.4402 7.785L14.3245 6.42102L14.6753 8.70001L12.4402 7.785ZM15.3021 9.32703L17.5845 9.70203L16.2443 11.558L15.3021 9.32703ZM16.2443 12.434L17.6082 14.291L15.3021 14.661L16.2443 12.434ZM16.4414 11.996L18.0221 9.828L21.1678 11.996L18.0221 14.165L16.4414 11.996ZM17.8092 9.272L15.1405 8.84201L14.7345 6.20102L18.4873 5.522L17.8092 9.272ZM15.8225 3.48001C16.6818 3.89801 17.4387 4.387 18.1325 4.974L18.2902 5.112L14.8409 5.72702L15.7239 3.43301L15.8225 3.48001ZM12.6294 2.707C13.4691 2.766 14.3363 2.94802 15.1957 3.24402L15.2942 3.27502L14.427 5.55801L12.4205 2.69202L12.6294 2.707ZM14.1786 5.96402L12.0066 7.565L9.83461 5.98401L12.0066 2.845L14.1786 5.96402ZM8.66381 3.28702C9.56651 2.94802 10.4732 2.74702 11.3641 2.68802L11.569 2.672L9.57051 5.57001L8.56921 3.32202L8.66381 3.28702ZM5.88071 4.974C6.56271 4.403 7.30381 3.922 8.08431 3.543L8.17891 3.5L9.16051 5.73102L5.71921 5.108L5.88071 4.974ZM9.27871 6.20001L8.87271 8.862L6.20401 9.272L5.52601 5.522L9.27871 6.20001ZM3.48401 8.18402C3.90191 7.32402 4.39071 6.56701 4.98201 5.87701L5.11601 5.716L5.73491 9.16501L3.43671 8.27802L3.48401 8.18402ZM2.73111 11.377C2.77441 10.51 2.95191 9.63802 3.26721 8.78702L3.30271 8.69202L5.58111 9.57901L2.72321 11.578L2.73111 11.377ZM3.28691 15.312C2.96371 14.409 2.77051 13.502 2.71141 12.615L2.69561 12.41L5.57331 14.405L3.32241 15.41L3.28691 15.312ZM5.11601 18.273L4.98201 18.115C4.40641 17.457 3.93731 16.735 3.54711 15.911L3.50371 15.82L5.73491 14.839L5.11601 18.273ZM6.20401 14.72L8.87271 15.15L9.27871 17.792L5.52601 18.47L6.20401 14.72ZM8.19081 20.512C7.33141 20.09 6.57451 19.601 5.88071 19.014L5.7231 18.88L9.17231 18.261L8.28931 20.559L8.19081 20.512ZM11.3838 21.285C10.5402 21.222 9.67691 21.044 8.81751 20.749L8.71901 20.717L9.58621 18.434L11.5927 21.297L11.3838 21.285ZM9.83461 18.028L12.0066 16.428L14.1786 18.009L12.0066 21.147L9.83461 18.028ZM15.3494 20.705C14.4467 21.044 13.54 21.245 12.6492 21.305L12.4442 21.32L14.4428 18.423L15.444 20.67L15.3494 20.705ZM18.1325 19.014C17.5096 19.558 16.7646 20.039 15.9289 20.449L15.8343 20.492L14.8527 18.261L18.2862 18.88L18.1325 19.014ZM14.7345 17.792L15.1405 15.127L17.8092 14.72L18.4873 18.47L14.7345 17.792ZM20.5292 15.809C20.1114 16.668 19.6225 17.421 19.0313 18.115L18.8972 18.273L18.2783 14.827L20.5765 15.71L20.5292 15.809ZM21.2821 12.615C21.2388 13.482 21.0613 14.354 20.746 15.205L20.7105 15.3L18.4321 14.413L21.29 12.414L21.2821 12.615ZM18.4399 9.58301L20.6908 8.582L20.7263 8.68002C21.0495 9.58302 21.2427 10.49 21.3018 11.373L21.3176 11.578L18.4399 9.58301Z" stroke="black" stroke-opacity="0.2" stroke-width="0.2"/>
<path d="M21.361 9.23203C20.9352 7.79303 20.1863 6.469 19.1968 5.392C17.3835 3.425 14.695 2.25 12.0066 2.25C9.44431 2.25 6.94511 3.27101 5.14361 5.05701C2.79811 7.37501 1.76921 10.813 2.46301 14.023C2.88481 15.958 3.89001 17.756 5.29731 19.089C7.65071 21.32 11.0724 22.243 14.2181 21.506C16.1536 21.048 17.9472 19.988 19.2678 18.517C20.8603 16.739 21.7433 14.425 21.7552 11.996C21.7591 11.05 21.6251 10.123 21.361 9.23203ZM18.8972 5.72L19.0313 5.87302C19.6068 6.53602 20.0759 7.25703 20.4661 8.07703L20.5095 8.172L18.2783 9.15402L18.8972 5.72ZM12.0066 15.935L9.2196 14.78L8.06461 11.996L9.2196 9.20901L12.0066 8.05701L14.7936 9.20901L15.9486 11.996L14.7936 14.78L12.0066 15.935ZM14.6753 15.312L14.3048 17.591L12.4442 16.227L14.6753 15.312ZM11.573 16.207L9.68871 17.571L9.33791 15.288L11.573 16.207ZM7.57191 11.996L5.99111 14.165L2.84541 11.996L5.99111 9.828L7.57191 11.996ZM6.405 9.698L8.68741 9.35101L7.76901 11.559L6.405 9.698ZM7.7926 12.43L8.71111 14.661L6.42871 14.291L7.7926 12.43ZM9.33791 8.68002L9.70841 6.40201L11.569 7.76602L9.33791 8.68002ZM12.4402 7.785L14.3245 6.42102L14.6753 8.70001L12.4402 7.785ZM15.3021 9.32703L17.5845 9.70203L16.2443 11.558L15.3021 9.32703ZM16.2443 12.434L17.6082 14.291L15.3021 14.661L16.2443 12.434ZM16.4414 11.996L18.0221 9.828L21.1678 11.996L18.0221 14.165L16.4414 11.996ZM17.8092 9.272L15.1405 8.84201L14.7345 6.20102L18.4873 5.522L17.8092 9.272ZM15.8225 3.48001C16.6818 3.89801 17.4387 4.387 18.1325 4.974L18.2902 5.112L14.8409 5.72702L15.7239 3.43301L15.8225 3.48001ZM12.6294 2.707C13.4691 2.766 14.3363 2.94802 15.1957 3.24402L15.2942 3.27502L14.427 5.55801L12.4205 2.69202L12.6294 2.707ZM14.1786 5.96402L12.0066 7.565L9.83461 5.98401L12.0066 2.845L14.1786 5.96402ZM8.66381 3.28702C9.56651 2.94802 10.4732 2.74702 11.3641 2.68802L11.569 2.672L9.57051 5.57001L8.56921 3.32202L8.66381 3.28702ZM5.88071 4.974C6.56271 4.403 7.30381 3.922 8.08431 3.543L8.17891 3.5L9.16051 5.73102L5.71921 5.108L5.88071 4.974ZM9.27871 6.20001L8.87271 8.862L6.20401 9.272L5.52601 5.522L9.27871 6.20001ZM3.48401 8.18402C3.90191 7.32402 4.39071 6.56701 4.98201 5.87701L5.11601 5.716L5.73491 9.16501L3.43671 8.27802L3.48401 8.18402ZM2.73111 11.377C2.77441 10.51 2.95191 9.63802 3.26721 8.78702L3.30271 8.69202L5.58111 9.57901L2.72321 11.578L2.73111 11.377ZM3.28691 15.312C2.96371 14.409 2.77051 13.502 2.71141 12.615L2.69561 12.41L5.57331 14.405L3.32241 15.41L3.28691 15.312ZM5.11601 18.273L4.98201 18.115C4.40641 17.457 3.93731 16.735 3.54711 15.911L3.50371 15.82L5.73491 14.839L5.11601 18.273ZM6.20401 14.72L8.87271 15.15L9.27871 17.792L5.52601 18.47L6.20401 14.72ZM8.19081 20.512C7.33141 20.09 6.57451 19.601 5.88071 19.014L5.7231 18.88L9.17231 18.261L8.28931 20.559L8.19081 20.512ZM11.3838 21.285C10.5402 21.222 9.67691 21.044 8.81751 20.749L8.71901 20.717L9.58621 18.434L11.5927 21.297L11.3838 21.285ZM9.83461 18.028L12.0066 16.428L14.1786 18.009L12.0066 21.147L9.83461 18.028ZM15.3494 20.705C14.4467 21.044 13.54 21.245 12.6492 21.305L12.4442 21.32L14.4428 18.423L15.444 20.67L15.3494 20.705ZM18.1325 19.014C17.5096 19.558 16.7646 20.039 15.9289 20.449L15.8343 20.492L14.8527 18.261L18.2862 18.88L18.1325 19.014ZM14.7345 17.792L15.1405 15.127L17.8092 14.72L18.4873 18.47L14.7345 17.792ZM20.5292 15.809C20.1114 16.668 19.6225 17.421 19.0313 18.115L18.8972 18.273L18.2783 14.827L20.5765 15.71L20.5292 15.809ZM21.2821 12.615C21.2388 13.482 21.0613 14.354 20.746 15.205L20.7105 15.3L18.4321 14.413L21.29 12.414L21.2821 12.615ZM18.4399 9.58301L20.6908 8.582L20.7263 8.68002C21.0495 9.58302 21.2427 10.49 21.3018 11.373L21.3176 11.578L18.4399 9.58301Z" stroke="black" stroke-opacity="0.2" stroke-width="0.2"/>
</svg>
