<svg width="34" height="38" viewBox="0 0 34 38" fill="none" xmlns="http://www.w3.org/2000/svg">
<path d="M2 9.00004L7 2.33337H27L32 9.00004M2 9.00004V32.3334C2 33.2174 2.35119 34.0653 2.97631 34.6904C3.60143 35.3155 4.44928 35.6667 5.33333 35.6667H28.6667C29.5507 35.6667 30.3986 35.3155 31.0237 34.6904C31.6488 34.0653 32 33.2174 32 32.3334V9.00004M2 9.00004H32M23.6667 15.6667C23.6667 17.4348 22.9643 19.1305 21.714 20.3808C20.4638 21.631 18.7681 22.3334 17 22.3334C15.2319 22.3334 13.5362 21.631 12.286 20.3808C11.0357 19.1305 10.3333 17.4348 10.3333 15.6667" stroke="#F8F2E7" stroke-width="4" stroke-linecap="round" stroke-linejoin="round"/>
</svg>
