<svg width="28" height="27" viewBox="0 0 28 27" fill="none" xmlns="http://www.w3.org/2000/svg">
<path d="M18.3086 8.97363C20.075 8.97363 21.769 9.68271 23.0181 10.9449C24.2671 12.2071 24.9688 13.9189 24.9688 15.7039V23.5559H20.5287V15.7039C20.5287 15.1089 20.2948 14.5383 19.8784 14.1176C19.4621 13.6968 18.8974 13.4605 18.3086 13.4605C17.7198 13.4605 17.1551 13.6968 16.7388 14.1176C16.3225 14.5383 16.0886 15.1089 16.0886 15.7039V23.5559H11.6484V15.7039C11.6484 13.9189 12.3501 12.2071 13.5992 10.9449C14.8482 9.68271 16.5422 8.97363 18.3086 8.97363Z" fill="#FFF2D6" stroke="#FFF2D6" stroke-width="0.560857" stroke-linecap="round" stroke-linejoin="round"/>
<path d="M7.20574 10.0957H2.76562V23.5563H7.20574V10.0957Z" fill="#FFF2D6" stroke="#FFF2D6" stroke-width="0.560857" stroke-linecap="round" stroke-linejoin="round"/>
<path d="M4.98764 6.73002C6.21374 6.73002 7.2077 5.7256 7.2077 4.48659C7.2077 3.24758 6.21374 2.24316 4.98764 2.24316C3.76153 2.24316 2.76758 3.24758 2.76758 4.48659C2.76758 5.7256 3.76153 6.73002 4.98764 6.73002Z" fill="#FFF2D6" stroke="#FFF2D6" stroke-width="0.560857" stroke-linecap="round" stroke-linejoin="round"/>
</svg>
