<svg width="41" height="34" viewBox="0 0 41 34" fill="none" xmlns="http://www.w3.org/2000/svg">
<path d="M20.5001 25.2H8.20014V14.95H4.10014V31.35C4.10014 32.4839 5.01623 33.4 6.15014 33.4H22.5501C23.684 33.4 24.6001 32.4839 24.6001 31.35V14.95H20.5001V25.2ZM40.6542 9.70966L35.1897 1.50966C34.8053 0.939507 34.1647 0.599976 33.4792 0.599976H7.52108C6.83561 0.599976 6.19498 0.939507 5.81701 1.50966L0.352482 9.70966C-0.557205 11.0742 0.416545 12.9 2.05654 12.9H38.9501C40.5837 12.9 41.5575 11.0742 40.6542 9.70966ZM32.8001 32.375C32.8001 32.9387 33.2614 33.4 33.8251 33.4H35.8751C36.4389 33.4 36.9001 32.9387 36.9001 32.375V14.95H32.8001V32.375Z" fill="#F8F2E7"/>
</svg>
