<svg width="24" height="19" viewBox="0 0 24 19" fill="none" xmlns="http://www.w3.org/2000/svg">
<path d="M23.4032 0.417331C22.4298 1.0961 21.3519 1.61524 20.2113 1.95478C19.599 1.25892 18.7854 0.765711 17.8803 0.541861C16.9753 0.31801 16.0225 0.374318 15.1509 0.703169C14.2793 1.03202 13.5309 1.61755 13.0069 2.38056C12.4829 3.14357 12.2086 4.04725 12.2211 4.96939V5.97425C10.4347 6.02004 8.66451 5.62839 7.06825 4.83418C5.47199 4.03996 4.09921 2.86784 3.07217 1.4222C3.07217 1.4222 -0.994044 10.466 8.15493 14.4855C6.06137 15.8903 3.56739 16.5946 1.03906 16.4952C10.188 21.5196 21.3701 16.4952 21.3701 4.93924C21.3692 4.65934 21.342 4.38013 21.2888 4.1052C22.3263 3.09379 23.0584 1.81682 23.4032 0.417331Z" fill="#FFF2D6" stroke="#FFF2D6" stroke-width="0.560857" stroke-linecap="round" stroke-linejoin="round"/>
</svg>
