<svg width="34" height="34" viewBox="0 0 34 34" fill="none" xmlns="http://www.w3.org/2000/svg">
<path d="M6.75016 25.5C8.16683 24.4167 9.75016 23.5625 11.5002 22.9375C13.2502 22.3125 15.0835 22 17.0002 22C18.9168 22 20.7502 22.3125 22.5002 22.9375C24.2502 23.5625 25.8335 24.4167 27.2502 25.5C28.2224 24.3612 28.9793 23.0695 29.521 21.625C30.0627 20.1806 30.3335 18.6389 30.3335 17C30.3335 13.3056 29.0349 10.1598 26.4377 7.56254C23.8404 4.96532 20.6946 3.66671 17.0002 3.66671C13.3057 3.66671 10.1599 4.96532 7.56266 7.56254C4.96544 10.1598 3.66683 13.3056 3.66683 17C3.66683 18.6389 3.93766 20.1806 4.47933 21.625C5.021 23.0695 5.77794 24.3612 6.75016 25.5ZM17.0002 18.6667C15.3613 18.6667 13.9793 18.1042 12.8543 16.9792C11.7293 15.8542 11.1668 14.4723 11.1668 12.8334C11.1668 11.1945 11.7293 9.81254 12.8543 8.68754C13.9793 7.56254 15.3613 7.00004 17.0002 7.00004C18.6391 7.00004 20.021 7.56254 21.146 8.68754C22.271 9.81254 22.8335 11.1945 22.8335 12.8334C22.8335 14.4723 22.271 15.8542 21.146 16.9792C20.021 18.1042 18.6391 18.6667 17.0002 18.6667ZM17.0002 33.6667C14.6946 33.6667 12.5279 33.2292 10.5002 32.3542C8.47238 31.4792 6.7085 30.2917 5.2085 28.7917C3.7085 27.2917 2.521 25.5278 1.646 23.5C0.770996 21.4723 0.333496 19.3056 0.333496 17C0.333496 14.6945 0.770996 12.5278 1.646 10.5C2.521 8.47226 3.7085 6.70837 5.2085 5.20837C6.7085 3.70837 8.47238 2.52087 10.5002 1.64587C12.5279 0.770874 14.6946 0.333374 17.0002 0.333374C19.3057 0.333374 21.4724 0.770874 23.5002 1.64587C25.5279 2.52087 27.2918 3.70837 28.7918 5.20837C30.2918 6.70837 31.4793 8.47226 32.3543 10.5C33.2293 12.5278 33.6668 14.6945 33.6668 17C33.6668 19.3056 33.2293 21.4723 32.3543 23.5C31.4793 25.5278 30.2918 27.2917 28.7918 28.7917C27.2918 30.2917 25.5279 31.4792 23.5002 32.3542C21.4724 33.2292 19.3057 33.6667 17.0002 33.6667ZM17.0002 30.3334C18.4724 30.3334 19.8613 30.1181 21.1668 29.6875C22.4724 29.257 23.6668 28.6389 24.7502 27.8334C23.6668 27.0278 22.4724 26.4098 21.1668 25.9792C19.8613 25.5487 18.4724 25.3334 17.0002 25.3334C15.5279 25.3334 14.1391 25.5487 12.8335 25.9792C11.5279 26.4098 10.3335 27.0278 9.25016 27.8334C10.3335 28.6389 11.5279 29.257 12.8335 29.6875C14.1391 30.1181 15.5279 30.3334 17.0002 30.3334ZM17.0002 15.3334C17.7224 15.3334 18.3196 15.0973 18.7918 14.625C19.2641 14.1528 19.5002 13.5556 19.5002 12.8334C19.5002 12.1112 19.2641 11.5139 18.7918 11.0417C18.3196 10.5695 17.7224 10.3334 17.0002 10.3334C16.2779 10.3334 15.6807 10.5695 15.2085 11.0417C14.7363 11.5139 14.5002 12.1112 14.5002 12.8334C14.5002 13.5556 14.7363 14.1528 15.2085 14.625C15.6807 15.0973 16.2779 15.3334 17.0002 15.3334Z" fill="#F8F2E7"/>
</svg>
