<svg width="42" height="36" viewBox="0 0 42 36" fill="none" xmlns="http://www.w3.org/2000/svg">
<path d="M36.6074 15.4874H23.1374C22.5524 14.9774 21.7874 14.6924 20.9998 14.6924C20.1974 14.6924 19.4474 14.9774 18.8549 15.4874H5.39236C4.00476 15.4874 2.87976 16.6124 2.87976 17.9994C2.87976 19.3874 4.00476 20.5124 5.39236 20.5124H18.8474C19.4249 21.0074 20.1824 21.3074 20.9998 21.3074C21.8174 21.3074 22.5749 21.0074 23.1524 20.5124H36.6074C37.995 20.5124 39.12 19.3874 39.12 17.9994C39.1199 16.6124 37.9949 15.4874 36.6074 15.4874ZM22.7999 18.5994L22.3573 17.9924L22.7999 17.3924L23.5499 17.9094C23.5499 17.9394 23.5574 17.9694 23.5574 17.9994C23.5574 18.0224 23.5499 18.0524 23.5499 18.0824L22.7999 18.5994ZM23.5274 18.3224C23.4974 18.5094 23.46 18.6974 23.3925 18.8694L22.9725 18.7044L23.5274 18.3224ZM20.9998 19.1324L20.1899 18.8024L19.8598 17.9924L20.1899 17.1894L20.9998 16.8524L21.8099 17.1894L22.1399 17.9924L21.8099 18.8024L20.9998 19.1324ZM21.7575 19.0274L21.6599 19.6044L21.1873 19.2594L21.7575 19.0274ZM20.8123 19.2524L20.3324 19.5974L20.2425 19.0194L20.8123 19.2524ZM18.4499 18.0824C18.4499 18.0524 18.4424 18.0224 18.4424 17.9994C18.4424 17.9694 18.4499 17.9394 18.4499 17.9094L19.1999 17.3924L19.6425 17.9924L19.1999 18.5994L18.4499 18.0824ZM19.0274 18.7044L18.6149 18.8924C18.5473 18.7124 18.5025 18.5244 18.4724 18.3224L19.0274 18.7044ZM18.4649 17.6774C18.4874 17.4824 18.54 17.3024 18.6074 17.1224L19.0274 17.2794L18.4649 17.6774ZM19.3874 17.3324L19.9649 17.2424L19.7324 17.8044L19.3874 17.3324ZM19.7399 18.1874L19.9724 18.7494L19.3949 18.6594L19.7399 18.1874ZM20.2425 16.9644L20.3399 16.3794L20.8123 16.7324L20.2425 16.9644ZM21.1873 16.7324L21.6674 16.3874L21.7575 16.9644L21.1873 16.7324ZM22.0274 17.2424L22.6049 17.3324L22.2674 17.8044L22.0274 17.2424ZM22.2675 18.1874L22.6125 18.6594L22.0275 18.7494L22.2675 18.1874ZM22.9724 17.2794L23.3849 17.0994C23.46 17.2874 23.5123 17.4744 23.5349 17.6694L22.9724 17.2794ZM23.025 16.4474C23.07 16.5144 23.1224 16.5744 23.1599 16.6494C23.22 16.7324 23.2648 16.8294 23.3099 16.9194L22.9049 17.0994L23.025 16.4474ZM22.8375 16.2374C22.845 16.2444 22.8525 16.2524 22.8598 16.2594L22.7023 17.1524L21.96 17.0324L21.8474 16.2974L22.1698 16.2374L22.7398 16.1324C22.7774 16.1624 22.8074 16.1994 22.8375 16.2374ZM22.0499 15.6744C22.2299 15.7574 22.3949 15.8544 22.5523 15.9744L21.8849 16.0944L22.0499 15.6744ZM21.4424 15.4874C21.5924 15.5094 21.7348 15.5544 21.87 15.5994L21.7125 16.0194L21.3375 15.4874L21.3225 15.4644C21.3598 15.4724 21.4048 15.4724 21.4424 15.4874ZM20.9099 15.4494C20.9399 15.4494 20.97 15.4424 20.9998 15.4424C21.0298 15.4424 21.0524 15.4494 21.0824 15.4494L21.1124 15.4874L21.6073 16.1924L21.5472 16.2374L20.9997 16.6424L20.4449 16.2374L20.3923 16.1994L20.8872 15.4874L20.9099 15.4494ZM20.6548 15.4874L20.2798 16.0194L20.0998 15.6224C20.2798 15.5544 20.46 15.5094 20.6548 15.4874ZM19.9274 15.6894L20.1074 16.0944L19.4625 15.9744C19.6124 15.8624 19.7624 15.7724 19.9274 15.6894ZM19.1624 16.2374C19.1924 16.1994 19.215 16.1624 19.2525 16.1324L19.8225 16.2374L20.1525 16.2974L20.0401 17.0394L19.2974 17.1524L19.1399 16.2674C19.1475 16.2594 19.1548 16.2444 19.1624 16.2374ZM18.9824 16.4624L19.095 17.1074L18.675 16.9424C18.72 16.8374 18.7726 16.7394 18.8325 16.6424C18.8774 16.5744 18.93 16.5224 18.9824 16.4624ZM5.39246 19.7624C4.42496 19.7624 3.62986 18.9744 3.62986 17.9994C3.62986 17.0244 4.42486 16.2374 5.39246 16.2374H18.2024C18.1951 16.2374 18.1951 16.2444 18.1951 16.2444C17.865 16.7694 17.6925 17.3774 17.6925 17.9994C17.6925 18.6444 17.88 19.2524 18.2101 19.7624H5.39246ZM18.9749 19.5444C18.8625 19.3944 18.7649 19.2374 18.6825 19.0724L19.095 18.8924L18.9749 19.5444ZM19.1548 19.7624L19.1325 19.7394L19.2973 18.8394L20.04 18.9594L20.1524 19.6944L19.7849 19.7624L19.2524 19.8594C19.2224 19.8294 19.1849 19.7924 19.1548 19.7624ZM19.9424 20.3244C19.7624 20.2424 19.5974 20.1374 19.4475 20.0174L20.1074 19.8974L19.9424 20.3244ZM20.595 20.5124C20.43 20.4824 20.2799 20.4524 20.1299 20.3924L20.2874 19.9724L20.6699 20.5124L20.6774 20.5274C20.6475 20.5194 20.6248 20.5194 20.595 20.5124ZM21.0824 20.5494C21.0524 20.5494 21.0225 20.5574 20.9998 20.5574C20.97 20.5574 20.9474 20.5494 20.9174 20.5494L20.8949 20.5124L20.3925 19.7994L20.4451 19.7624L20.9999 19.3494L21.5701 19.7624L21.6075 19.7924L21.1051 20.5124L21.0824 20.5494ZM21.4124 20.5124C21.3899 20.5194 21.3598 20.5194 21.3375 20.5274L21.345 20.5124L21.72 19.9644L21.9075 20.3844C21.7498 20.4444 21.585 20.4824 21.4124 20.5124ZM22.08 20.3094L21.8925 19.8974L22.5524 20.0174C22.4024 20.1294 22.2449 20.2274 22.08 20.3094ZM22.845 19.7624C22.8075 19.7924 22.7774 19.8294 22.7474 19.8594L22.2149 19.7624L21.8474 19.6944L21.96 18.9524L22.7023 18.8394L22.8675 19.7394C22.8598 19.7474 22.8525 19.7544 22.845 19.7624ZM23.025 19.5444L22.9049 18.8844L23.3249 19.0424C23.2425 19.2224 23.1449 19.3874 23.025 19.5444ZM36.6074 19.7624H23.79C24.12 19.2524 24.3075 18.6444 24.3075 17.9994C24.3075 17.3694 24.1275 16.7624 23.7974 16.2444C23.7974 16.2444 23.7974 16.2374 23.7901 16.2374H36.6075C37.575 16.2374 38.3701 17.0244 38.3701 17.9994C38.3699 18.9744 37.5749 19.7624 36.6074 19.7624Z" fill="black"/>
</svg>
