<svg width="42" height="36" viewBox="0 0 42 36" fill="none" xmlns="http://www.w3.org/2000/svg">
<path d="M36.6148 15.4902H5.39477C4.01477 15.4902 2.88477 16.6202 2.88477 18.0002C2.88477 19.3802 4.01477 20.5103 5.39477 20.5103H36.6048C37.9948 20.5103 39.1148 19.3802 39.1148 18.0002C39.1148 16.6202 37.9948 15.4902 36.6148 15.4902ZM30.9248 17.0902C30.9648 17.1502 30.9848 17.2202 31.0148 17.2802L30.8348 17.3602L30.8848 17.0402C30.8948 17.0502 30.9148 17.0702 30.9248 17.0902ZM31.1948 18.0002C31.1948 18.0502 31.1848 18.0903 31.1848 18.1403L30.7548 18.4402L30.4348 18.0002L30.7548 17.5602L31.1748 17.8502C31.1748 17.9102 31.1948 17.9502 31.1948 18.0002ZM30.5748 19.3203L30.0648 19.2302L30.1448 18.6902L30.6848 18.6102L30.7748 19.1202C30.7148 19.1902 30.6448 19.2603 30.5748 19.3203ZM28.3348 16.6802L28.8448 16.7703L28.7648 17.3102L28.2248 17.3903L28.1348 16.8903C28.1948 16.8203 28.2648 16.7502 28.3348 16.6802ZM30.1948 17.4602L30.6148 17.5302L30.3648 17.8702L30.1948 17.4602ZM30.6148 18.4802L30.1948 18.5502L30.3648 18.1403L30.6148 18.4802ZM30.2748 18.0002L30.0348 18.5803L29.4548 18.8203L28.8748 18.5803L28.6348 18.0002L28.8748 17.4202L29.4548 17.1802L30.0348 17.4202L30.2748 18.0002ZM29.9948 18.7402L29.9248 19.1602L29.5848 18.9102L29.9948 18.7402ZM29.3148 18.9102L28.9648 19.1602L28.9048 18.7402L29.3148 18.9102ZM28.7348 19.5803C28.6348 19.5403 28.5548 19.4902 28.4648 19.4302L28.8048 19.3702L28.7348 19.5803ZM28.3348 19.3203C28.2648 19.2603 28.1948 19.1902 28.1348 19.1202L28.2248 18.6102L28.7648 18.7003L28.8448 19.2302L28.3348 19.3203ZM27.7148 18.0002C27.7148 17.9502 27.7348 17.9002 27.7348 17.8502L28.1548 17.5602L28.4748 18.0002L28.1548 18.4402L27.7248 18.1403C27.7248 18.0903 27.7148 18.0502 27.7148 18.0002ZM28.5448 17.8602L28.2948 17.5203L28.7148 17.4602L28.5448 17.8602ZM28.5448 18.1403L28.7148 18.5502L28.2948 18.4802L28.5448 18.1403ZM28.0248 18.9802C27.9748 18.9002 27.9248 18.8202 27.8848 18.7302L28.0848 18.6403L28.0248 18.9802ZM28.9048 17.2603L28.9748 16.8402L29.3148 17.0902L28.9048 17.2603ZM29.5848 17.0902L29.9348 16.8402L29.9948 17.2603L29.5848 17.0902ZM29.9648 16.5803L29.7748 16.3102C29.8648 16.3302 29.9548 16.3502 30.0348 16.3802L29.9648 16.5803ZM29.8848 16.7003L29.4448 17.0203L29.0048 16.7003L29.2948 16.2802C29.3448 16.2802 29.3848 16.2603 29.4348 16.2603C29.4848 16.2603 29.5348 16.2702 29.5848 16.2802L29.8848 16.7003ZM28.9348 16.5803L28.8448 16.3903C28.9348 16.3603 29.0248 16.3302 29.1148 16.3102L28.9348 16.5803ZM28.8048 16.6302L28.4848 16.5703C28.5648 16.5203 28.6348 16.4702 28.7248 16.4302L28.8048 16.6302ZM28.0848 17.3602L27.8948 17.2902C27.9248 17.2202 27.9448 17.1503 27.9848 17.0803C27.9948 17.0603 28.0148 17.0502 28.0248 17.0302L28.0848 17.3602ZM28.0348 17.4902L27.7648 17.6802C27.7848 17.5902 27.8048 17.5002 27.8348 17.4202L28.0348 17.4902ZM27.7448 18.3203L28.0248 18.5203L27.8248 18.6102C27.7948 18.5102 27.7648 18.4203 27.7448 18.3203ZM28.9448 19.4202L29.1448 19.7003C29.0448 19.6803 28.9548 19.6502 28.8648 19.6202L28.9448 19.4202ZM29.0148 19.3002L29.4548 18.9802L29.8848 19.2902L29.5848 19.7202C29.5348 19.7202 29.4948 19.7302 29.4448 19.7302C29.3948 19.7302 29.3548 19.7202 29.3148 19.7202L29.0148 19.3002ZM29.9748 19.4202L30.0648 19.6202C29.9748 19.6602 29.8748 19.6903 29.7748 19.7003L29.9748 19.4202ZM30.0948 19.3702L30.4348 19.4302C30.3548 19.4902 30.2748 19.5303 30.1848 19.5703L30.0948 19.3702ZM30.8248 18.6403L31.0348 18.7202C30.9848 18.8102 30.9448 18.9002 30.8848 18.9802L30.8248 18.6403ZM30.7648 16.9002L30.6748 17.4002L30.1348 17.3102L30.0548 16.7802L30.5548 16.6902C30.6348 16.7502 30.7048 16.8202 30.7648 16.9002ZM30.0948 16.6302L30.1748 16.4302C30.2648 16.4702 30.3448 16.5203 30.4148 16.5703L30.0948 16.6302ZM30.8748 18.5103L31.1548 18.3102C31.1348 18.4102 31.1048 18.5002 31.0748 18.5902L30.8748 18.5103ZM31.1448 17.6702L30.8748 17.4902L31.0648 17.4002C31.1048 17.4902 31.1248 17.5802 31.1448 17.6702ZM27.3448 16.6802C27.3448 16.6802 27.3348 16.6903 27.3348 16.7003C27.3348 16.7003 27.3348 16.6902 27.3248 16.6902C27.2248 16.5202 27.0948 16.3802 26.9648 16.2402H27.7048C27.5748 16.3702 27.4448 16.5202 27.3448 16.6802ZM10.8148 18.0002C10.8148 17.9502 10.8348 17.9002 10.8348 17.8502L11.2548 17.5602L11.5748 18.0002L11.2648 18.4402L10.8348 18.1403C10.8248 18.0903 10.8148 18.0502 10.8148 18.0002ZM11.1248 17.0302L11.1848 17.3602L10.9948 17.2902C11.0248 17.2202 11.0448 17.1503 11.0848 17.0803C11.0948 17.0603 11.1148 17.0502 11.1248 17.0302ZM11.4348 16.6802L11.9448 16.7703L11.8648 17.3102L11.3248 17.3903L11.2348 16.8903C11.3048 16.8203 11.3648 16.7502 11.4348 16.6802ZM13.6748 19.3203L13.1648 19.2302L13.2448 18.6902L13.7848 18.6102L13.8748 19.1202C13.8148 19.1902 13.7448 19.2603 13.6748 19.3203ZM12.5548 18.8203L11.9748 18.5803L11.7348 18.0002L11.9748 17.4202L12.5548 17.1802L13.1348 17.4202L13.3748 18.0002L13.1348 18.5803L12.5548 18.8203ZM13.0948 18.7402L13.0248 19.1602L12.6948 18.9102L13.0948 18.7402ZM12.4148 18.9102L12.0748 19.1602L12.0148 18.7402L12.4148 18.9102ZM11.6448 18.1403L11.8148 18.5502L11.3948 18.4802L11.6448 18.1403ZM11.6448 17.8602L11.3948 17.5203L11.8148 17.4602L11.6448 17.8602ZM12.0148 17.2603L12.0848 16.8402L12.4148 17.0902L12.0148 17.2603ZM12.6948 17.0902L13.0348 16.8402L13.0948 17.2603L12.6948 17.0902ZM13.2948 17.4602L13.7148 17.5302L13.4648 17.8702L13.2948 17.4602ZM13.7148 18.4802L13.2948 18.5502L13.4648 18.1403L13.7148 18.4802ZM13.9248 18.6403L14.1348 18.7202C14.0948 18.8102 14.0448 18.9002 13.9848 18.9802L13.9248 18.6403ZM13.8448 18.4402L13.5248 18.0002L13.8448 17.5602L14.2648 17.8502C14.2648 17.9002 14.2848 17.9502 14.2848 18.0002C14.2848 18.0502 14.2748 18.0903 14.2748 18.1403L13.8448 18.4402ZM14.2448 17.6702L13.9748 17.4902L14.1648 17.4002C14.2048 17.4902 14.2248 17.5802 14.2448 17.6702ZM14.0248 17.0902C14.0648 17.1502 14.0848 17.2202 14.1148 17.2802L13.9348 17.3602L13.9948 17.0402C13.9948 17.0502 14.0148 17.0702 14.0248 17.0902ZM13.8748 16.9002L13.7848 17.3903L13.2448 17.3002L13.1648 16.7703L13.6648 16.6802C13.7448 16.7502 13.8048 16.8202 13.8748 16.9002ZM13.1948 16.6302L13.2748 16.4302C13.3648 16.4702 13.4448 16.5203 13.5148 16.5703L13.1948 16.6302ZM13.0648 16.5803L12.8848 16.3102C12.9748 16.3302 13.0648 16.3502 13.1448 16.3802L13.0648 16.5803ZM12.9948 16.7003L12.5548 17.0302L12.1148 16.7102L12.4048 16.2902C12.4548 16.2902 12.4948 16.2703 12.5448 16.2703C12.5948 16.2703 12.6448 16.2802 12.6948 16.2902L12.9948 16.7003ZM12.0348 16.5803L11.9548 16.3903C12.0448 16.3603 12.1348 16.3302 12.2248 16.3102L12.0348 16.5803ZM11.9148 16.6302L11.5848 16.5703C11.6648 16.5203 11.7348 16.4702 11.8248 16.4302L11.9148 16.6302ZM11.1248 18.9802C11.0648 18.9002 11.0248 18.8202 10.9848 18.7302L11.1848 18.6403L11.1248 18.9802ZM11.2348 19.1202L11.3248 18.6102L11.8648 18.6902L11.9448 19.2202L11.4348 19.3203C11.3648 19.2603 11.2948 19.1902 11.2348 19.1202ZM11.9148 19.3702L11.8348 19.5803C11.7448 19.5403 11.6548 19.4902 11.5648 19.4302L11.9148 19.3702ZM12.0448 19.4202L12.2448 19.7003C12.1448 19.6903 12.0548 19.6602 11.9648 19.6302L12.0448 19.4202ZM12.1148 19.3002L12.5548 18.9802L12.9948 19.3002L12.6948 19.7302C12.6448 19.7302 12.6048 19.7402 12.5548 19.7402C12.5048 19.7402 12.4648 19.7302 12.4248 19.7302L12.1148 19.3002ZM13.0748 19.4202L13.1648 19.6202C13.0748 19.6602 12.9748 19.6903 12.8748 19.7003L13.0748 19.4202ZM13.1948 19.3702L13.5348 19.4302C13.4648 19.4902 13.3748 19.5303 13.2848 19.5703L13.1948 19.3702ZM13.9748 18.5103L14.2548 18.3102C14.2348 18.4102 14.2048 18.5002 14.1748 18.5902L13.9748 18.5103ZM11.1348 17.4902L10.8648 17.6802C10.8848 17.5902 10.9048 17.5002 10.9348 17.4102L11.1348 17.4902ZM10.8548 18.3203L11.1348 18.5203L10.9348 18.6102C10.8948 18.5102 10.8648 18.4203 10.8548 18.3203ZM15.6648 16.6802L16.1748 16.7703L16.0848 17.3102L15.5548 17.3903L15.4648 16.8903C15.5248 16.8203 15.5848 16.7502 15.6648 16.6802ZM17.9048 19.3203L17.3848 19.2202L17.4648 18.6802L18.0048 18.6002L18.0948 19.1102C18.0348 19.1902 17.9748 19.2603 17.9048 19.3203ZM16.7748 18.8203L16.1948 18.5803L15.9548 18.0002L16.1948 17.4202L16.7748 17.1802L17.3548 17.4202L17.5948 18.0002L17.3548 18.5803L16.7748 18.8203ZM17.3248 18.7402L17.2548 19.1602L16.9148 18.9102L17.3248 18.7402ZM16.6448 18.9102L16.3048 19.1602L16.2448 18.7402L16.6448 18.9102ZM16.0548 19.5803C15.9648 19.5403 15.8748 19.4902 15.7948 19.4302L16.1448 19.3702L16.0548 19.5803ZM15.6548 19.3203C15.5848 19.2603 15.5148 19.1902 15.4548 19.1202L15.5448 18.6102L16.0848 18.6902L16.1648 19.2202L15.6548 19.3203ZM15.0448 18.0002C15.0448 17.9502 15.0648 17.9002 15.0648 17.8502L15.4848 17.5602L15.8048 18.0002L15.4848 18.4402L15.0548 18.1403C15.0548 18.0903 15.0448 18.0502 15.0448 18.0002ZM15.8648 17.8602L15.6148 17.5203L16.0348 17.4602L15.8648 17.8602ZM15.8748 18.1403L16.0448 18.5502L15.6248 18.4802L15.8748 18.1403ZM15.3448 18.9802C15.2948 18.9002 15.2448 18.8202 15.2048 18.7302L15.4048 18.6403L15.3448 18.9802ZM16.2348 17.2603L16.3048 16.8402L16.6448 17.0902L16.2348 17.2603ZM16.9148 17.0902L17.2648 16.8402L17.3248 17.2603L16.9148 17.0902ZM17.5148 17.4602L17.9348 17.5302L17.6848 17.8702L17.5148 17.4602ZM17.9448 18.4802L17.5248 18.5502L17.6948 18.1403L17.9448 18.4802ZM18.1548 18.6403L18.3648 18.7202C18.3248 18.8102 18.2748 18.9002 18.2148 18.9802L18.1548 18.6403ZM18.0748 18.4402L17.7548 18.0002L18.0748 17.5602L18.4948 17.8502C18.4948 17.9002 18.5148 17.9502 18.5148 18.0002C18.5148 18.0502 18.5048 18.0903 18.5048 18.1403L18.0748 18.4402ZM18.4648 17.6702L18.2048 17.4902L18.3948 17.4002C18.4248 17.4902 18.4548 17.5802 18.4648 17.6702ZM18.2448 17.0902C18.2848 17.1502 18.3048 17.2202 18.3348 17.2802L18.1548 17.3602L18.2148 17.0402C18.2248 17.0502 18.2348 17.0702 18.2448 17.0902ZM18.0948 16.9002L18.0048 17.4002L17.4648 17.3102L17.3848 16.7802L17.8848 16.6902C17.9648 16.7502 18.0348 16.8202 18.0948 16.9002ZM17.4148 16.6302L17.4948 16.4302C17.5848 16.4702 17.6648 16.5203 17.7348 16.5703L17.4148 16.6302ZM17.2948 16.5803L17.1048 16.3102C17.1948 16.3302 17.2848 16.3502 17.3648 16.3802L17.2948 16.5803ZM17.2148 16.7003L16.7748 17.0203L16.3348 16.7003L16.6248 16.2802C16.6748 16.2802 16.7148 16.2603 16.7648 16.2603C16.8148 16.2603 16.8648 16.2702 16.9148 16.2802L17.2148 16.7003ZM16.2648 16.5803L16.1748 16.3903C16.2648 16.3603 16.3548 16.3302 16.4448 16.3102L16.2648 16.5803ZM16.1348 16.6302L15.8148 16.5703C15.8948 16.5203 15.9648 16.4702 16.0548 16.4302L16.1348 16.6302ZM15.4048 17.3602L15.2148 17.2902C15.2448 17.2202 15.2648 17.1503 15.3048 17.0803C15.3148 17.0603 15.3348 17.0502 15.3448 17.0302L15.4048 17.3602ZM15.3548 17.4902L15.0848 17.6802C15.1048 17.5902 15.1248 17.5002 15.1548 17.4202L15.3548 17.4902ZM15.0748 18.3203L15.3548 18.5203L15.1548 18.6102C15.1248 18.5102 15.0948 18.4203 15.0748 18.3203ZM16.2648 19.4202L16.4648 19.7003C16.3648 19.6803 16.2748 19.6502 16.1848 19.6202L16.2648 19.4202ZM16.3448 19.3002L16.7848 18.9802L17.2248 19.3002L16.9248 19.7302C16.8748 19.7302 16.8348 19.7402 16.7848 19.7402C16.7348 19.7402 16.6948 19.7302 16.6548 19.7302L16.3448 19.3002ZM17.2948 19.4202L17.3848 19.6202C17.2948 19.6602 17.1948 19.6903 17.0948 19.7003L17.2948 19.4202ZM17.4248 19.3702L17.7648 19.4302C17.6848 19.4902 17.6048 19.5303 17.5148 19.5703L17.4248 19.3702ZM18.2048 18.5103L18.4848 18.3102C18.4648 18.4102 18.4348 18.5002 18.4048 18.5902L18.2048 18.5103ZM19.8848 16.6802L20.3948 16.7703L20.3148 17.3102L19.7748 17.3903L19.6848 16.8903C19.7448 16.8203 19.8148 16.7502 19.8848 16.6802ZM22.1248 19.3203L21.6148 19.2302L21.6948 18.6902L22.2348 18.6102L22.3248 19.1202C22.2648 19.1902 22.1948 19.2603 22.1248 19.3203ZM21.0048 18.8203L20.4248 18.5803L20.1848 18.0002L20.4248 17.4202L21.0048 17.1802L21.5848 17.4202L21.8248 18.0002L21.5848 18.5803L21.0048 18.8203ZM21.5448 18.7402L21.4748 19.1602L21.1348 18.9102L21.5448 18.7402ZM20.8648 18.9102L20.5148 19.1602L20.4548 18.7402L20.8648 18.9102ZM20.2848 19.5803C20.1848 19.5403 20.1048 19.4902 20.0148 19.4302L20.3548 19.3702L20.2848 19.5803ZM19.8848 19.3203C19.8148 19.2603 19.7448 19.1902 19.6848 19.1202L19.7748 18.6102L20.3148 18.7003L20.3948 19.2302L19.8848 19.3203ZM19.2648 18.0002C19.2648 17.9502 19.2848 17.9002 19.2848 17.8502L19.7048 17.5602L20.0248 18.0002L19.7048 18.4402L19.2748 18.1403C19.2748 18.0903 19.2648 18.0502 19.2648 18.0002ZM20.0948 17.8602L19.8448 17.5203L20.2648 17.4602L20.0948 17.8602ZM20.0948 18.1403L20.2648 18.5502L19.8448 18.4802L20.0948 18.1403ZM19.5748 18.9802C19.5248 18.9002 19.4748 18.8202 19.4348 18.7302L19.6348 18.6403L19.5748 18.9802ZM20.4548 17.2603L20.5248 16.8402L20.8648 17.0902L20.4548 17.2603ZM21.1348 17.0902L21.4848 16.8402L21.5448 17.2603L21.1348 17.0902ZM21.7448 17.4602L22.1648 17.5302L21.9148 17.8702L21.7448 17.4602ZM22.1648 18.4802L21.7448 18.5502L21.9148 18.1403L22.1648 18.4802ZM22.3748 18.6403L22.5848 18.7202C22.5448 18.8102 22.4948 18.9002 22.4348 18.9802L22.3748 18.6403ZM22.2948 18.4402L21.9748 18.0002L22.2948 17.5602L22.7148 17.8502C22.7148 17.9002 22.7348 17.9502 22.7348 18.0002C22.7348 18.0502 22.7248 18.0903 22.7248 18.1403L22.2948 18.4402ZM22.6948 17.6702L22.4248 17.4902L22.6148 17.4002C22.6548 17.4902 22.6748 17.5802 22.6948 17.6702ZM22.4748 17.0902C22.5148 17.1502 22.5348 17.2202 22.5648 17.2802L22.3848 17.3602L22.4448 17.0402C22.4448 17.0502 22.4648 17.0702 22.4748 17.0902ZM22.3148 16.9002L22.2248 17.4002L21.6848 17.3102L21.6048 16.7802L22.1048 16.6902C22.1848 16.7502 22.2548 16.8202 22.3148 16.9002ZM21.6448 16.6302L21.7248 16.4302C21.8148 16.4702 21.8948 16.5203 21.9648 16.5703L21.6448 16.6302ZM21.5148 16.5803L21.3248 16.3102C21.4148 16.3302 21.4948 16.3502 21.5848 16.3802L21.5148 16.5803ZM21.4348 16.7003L20.9948 17.0203L20.5548 16.7003L20.8448 16.2802C20.8948 16.2802 20.9348 16.2603 20.9848 16.2603C21.0348 16.2603 21.0848 16.2702 21.1348 16.2802L21.4348 16.7003ZM20.4848 16.5803L20.3948 16.3903C20.4848 16.3603 20.5748 16.3302 20.6648 16.3102L20.4848 16.5803ZM20.3548 16.6302L20.0348 16.5703C20.1148 16.5203 20.1848 16.4702 20.2748 16.4302L20.3548 16.6302ZM19.6348 17.3602L19.4448 17.2902C19.4748 17.2202 19.4948 17.1503 19.5348 17.0803C19.5448 17.0603 19.5648 17.0502 19.5748 17.0302L19.6348 17.3602ZM19.5848 17.4902L19.3148 17.6802C19.3348 17.5902 19.3548 17.5002 19.3848 17.4102L19.5848 17.4902ZM19.2948 18.3203L19.5748 18.5203L19.3748 18.6102C19.3448 18.5102 19.3148 18.4203 19.2948 18.3203ZM20.4948 19.4202L20.6948 19.7003C20.5948 19.6803 20.5048 19.6502 20.4148 19.6202L20.4948 19.4202ZM20.5648 19.3002L21.0048 18.9802L21.4448 19.3002L21.1448 19.7302C21.0948 19.7302 21.0548 19.7402 21.0048 19.7402C20.9548 19.7402 20.9148 19.7302 20.8748 19.7302L20.5648 19.3002ZM21.5248 19.4202L21.6148 19.6202C21.5248 19.6602 21.4248 19.6903 21.3248 19.7003L21.5248 19.4202ZM21.6448 19.3702L21.9848 19.4302C21.9048 19.4802 21.8248 19.5303 21.7348 19.5703L21.6448 19.3702ZM22.4248 18.5103L22.7048 18.3102C22.6848 18.4102 22.6548 18.5002 22.6248 18.5902L22.4248 18.5103ZM24.1148 16.6802L24.6248 16.7703L24.5448 17.3102L24.0048 17.3903L23.9148 16.8903C23.9748 16.8203 24.0348 16.7502 24.1148 16.6802ZM26.6948 17.0902C26.7348 17.1502 26.7548 17.2202 26.7848 17.2802L26.6048 17.3602L26.6648 17.0402C26.6648 17.0502 26.6848 17.0702 26.6948 17.0902ZM26.9648 18.0002C26.9648 18.0502 26.9548 18.0903 26.9548 18.1403L26.5248 18.4402L26.2048 18.0002L26.5248 17.5602L26.9448 17.8502C26.9448 17.9102 26.9648 17.9502 26.9648 18.0002ZM26.3448 19.3203L25.8348 19.2302L25.9148 18.6902L26.4548 18.6102L26.5448 19.1202C26.4848 19.1902 26.4248 19.2603 26.3448 19.3203ZM25.2248 18.8203L24.6448 18.5803L24.4048 18.0002L24.6448 17.4202L25.2248 17.1802L25.8048 17.4202L26.0448 18.0002L25.8048 18.5803L25.2248 18.8203ZM25.7748 18.7402L25.7048 19.1602L25.3648 18.9102L25.7748 18.7402ZM25.0948 18.9102L24.7448 19.1602L24.6848 18.7402L25.0948 18.9102ZM24.5048 19.5803C24.4148 19.5403 24.3248 19.4902 24.2448 19.4302L24.5848 19.3702L24.5048 19.5803ZM24.1048 19.3203C24.0348 19.2603 23.9648 19.1902 23.9048 19.1202L23.9948 18.6102L24.5348 18.7003L24.6148 19.2302L24.1048 19.3203ZM23.4948 18.0002C23.4948 17.9502 23.5148 17.9002 23.5148 17.8502L23.9348 17.5602L24.2548 18.0002L23.9348 18.4402L23.5048 18.1403C23.5048 18.0903 23.4948 18.0502 23.4948 18.0002ZM24.3148 17.8602L24.0648 17.5203L24.4848 17.4602L24.3148 17.8602ZM24.3148 18.1403L24.4848 18.5502L24.0648 18.4802L24.3148 18.1403ZM23.7948 18.9802C23.7448 18.9002 23.6948 18.8202 23.6548 18.7302L23.8548 18.6403L23.7948 18.9802ZM24.6848 17.2603L24.7548 16.8402L25.0948 17.0902L24.6848 17.2603ZM25.3648 17.0902L25.7048 16.8402L25.7648 17.2603L25.3648 17.0902ZM25.9648 17.4602L26.3848 17.5302L26.1348 17.8702L25.9648 17.4602ZM26.3848 18.4802L25.9648 18.5502L26.1348 18.1403L26.3848 18.4802ZM26.5948 18.6403L26.8048 18.7202C26.7648 18.8102 26.7148 18.9002 26.6548 18.9802L26.5948 18.6403ZM26.5448 16.9002L26.4548 17.4002L25.9148 17.3102L25.8348 16.7802L26.3348 16.6902C26.4148 16.7502 26.4748 16.8202 26.5448 16.9002ZM25.8648 16.6302L25.9448 16.4302C26.0348 16.4702 26.1148 16.5203 26.1848 16.5703L25.8648 16.6302ZM25.7448 16.5803L25.5548 16.3102C25.6448 16.3302 25.7348 16.3502 25.8148 16.3802L25.7448 16.5803ZM25.6648 16.7003L25.2248 17.0203L24.7848 16.7003L25.0748 16.2802C25.1248 16.2802 25.1648 16.2603 25.2148 16.2603C25.2648 16.2603 25.3148 16.2702 25.3648 16.2802L25.6648 16.7003ZM24.7048 16.5803L24.6248 16.3903C24.7148 16.3603 24.8048 16.3302 24.8948 16.3102L24.7048 16.5803ZM24.5848 16.6302L24.2648 16.5703C24.3448 16.5203 24.4148 16.4702 24.5048 16.4302L24.5848 16.6302ZM23.8548 17.3602L23.6648 17.2902C23.6948 17.2202 23.7148 17.1503 23.7548 17.0803C23.7648 17.0603 23.7848 17.0502 23.7948 17.0302L23.8548 17.3602ZM23.8048 17.4902L23.5348 17.6802C23.5548 17.5902 23.5748 17.5002 23.6048 17.4102L23.8048 17.4902ZM23.5248 18.3203L23.8048 18.5203L23.6048 18.6102C23.5648 18.5102 23.5448 18.4203 23.5248 18.3203ZM24.7148 19.4202L24.9148 19.7003C24.8148 19.6803 24.7248 19.6502 24.6348 19.6202L24.7148 19.4202ZM24.7948 19.3002L25.2348 18.9802L25.6748 19.3002L25.3748 19.7302C25.3248 19.7302 25.2848 19.7402 25.2348 19.7402C25.1848 19.7402 25.1448 19.7302 25.1048 19.7302L24.7948 19.3002ZM25.7448 19.4202L25.8348 19.6202C25.7448 19.6602 25.6448 19.6903 25.5448 19.7003L25.7448 19.4202ZM25.8748 19.3702L26.2148 19.4302C26.1348 19.4802 26.0548 19.5303 25.9648 19.5703L25.8748 19.3702ZM26.6448 18.5103L26.9248 18.3102C26.9148 18.4102 26.8848 18.5002 26.8548 18.5902L26.6448 18.5103ZM26.9148 17.6702L26.6448 17.4902L26.8348 17.4002C26.8748 17.4902 26.8948 17.5802 26.9148 17.6702ZM23.1248 16.6802C23.1248 16.6802 23.1248 16.6902 23.1148 16.6902C23.1148 16.6902 23.1148 16.6802 23.1048 16.6802C23.0048 16.5102 22.8748 16.3702 22.7448 16.2302H23.4848C23.3448 16.3702 23.2248 16.5202 23.1248 16.6802ZM18.8948 16.6802C18.8948 16.6802 18.8948 16.6902 18.8848 16.6902C18.8848 16.6902 18.8848 16.6802 18.8748 16.6802C18.7748 16.5102 18.6448 16.3702 18.5148 16.2302H19.2548C19.1248 16.3702 18.9948 16.5202 18.8948 16.6802ZM14.6748 16.6802C14.6748 16.6802 14.6748 16.6902 14.6648 16.6902C14.6648 16.6902 14.6648 16.6802 14.6548 16.6802C14.5548 16.5102 14.4248 16.3702 14.2948 16.2302H15.0348C14.9048 16.3702 14.7748 16.5202 14.6748 16.6802ZM14.6648 19.3002C14.7648 19.4702 14.8848 19.6303 15.0248 19.7703H14.3048C14.4448 19.6303 14.5648 19.4702 14.6648 19.3002ZM18.8948 19.3002C18.9948 19.4702 19.1148 19.6303 19.2548 19.7703H18.5348C18.6648 19.6303 18.7848 19.4702 18.8948 19.3002ZM23.1148 19.3002C23.2148 19.4702 23.3348 19.6303 23.4748 19.7703H22.7548C22.8948 19.6303 23.0148 19.4702 23.1148 19.3002ZM27.3448 19.3002C27.4448 19.4702 27.5648 19.6303 27.7048 19.7703H26.9748C27.1148 19.6303 27.2348 19.4702 27.3448 19.3002ZM3.63477 18.0002C3.63477 17.0302 4.42477 16.2402 5.39477 16.2402H10.8048C10.6748 16.3702 10.5548 16.5202 10.4448 16.6802C10.1948 17.0802 10.0648 17.5302 10.0648 18.0002C10.0648 18.6902 10.3448 19.3103 10.8048 19.7703H5.39477C4.42477 19.7703 3.63477 18.9802 3.63477 18.0002ZM36.6148 19.7703H31.2048C31.6548 19.3203 31.9448 18.6902 31.9448 18.0002C31.9448 17.5302 31.8148 17.0702 31.5648 16.6902C31.4648 16.5202 31.3348 16.3802 31.2048 16.2402H36.6248C37.5948 16.2402 38.3848 17.0302 38.3848 18.0002C38.3848 18.9702 37.5848 19.7703 36.6148 19.7703Z" fill="black"/>
</svg>
