<svg width="42" height="36" viewBox="0 0 42 36" fill="none" xmlns="http://www.w3.org/2000/svg">
<path d="M36.725 13H5.5136C4.1275 13 3 14.128 3 15.514V21.103C3 22.488 4.1275 23.616 5.5136 23.616H36.725C38.111 23.616 39.239 22.489 39.239 21.103V15.514C39.239 14.128 38.111 13 36.725 13ZM38.489 21.103C38.489 22.075 37.698 22.866 36.725 22.866H5.5136C4.5409 22.866 3.75 22.075 3.75 21.103V15.514C3.75 14.541 4.5409 13.75 5.5136 13.75H36.725C37.698 13.75 38.489 14.541 38.489 15.514V21.103Z" fill="#333335"/>
<path d="M36.725 13H5.5136C4.1275 13 3 14.128 3 15.514V21.103C3 22.488 4.1275 23.616 5.5136 23.616H36.725C38.111 23.616 39.239 22.489 39.239 21.103V15.514C39.239 14.128 38.111 13 36.725 13ZM38.489 21.103C38.489 22.075 37.698 22.866 36.725 22.866H5.5136C4.5409 22.866 3.75 22.075 3.75 21.103V15.514C3.75 14.541 4.5409 13.75 5.5136 13.75H36.725C37.698 13.75 38.489 14.541 38.489 15.514V21.103Z" fill="black" fill-opacity="0.2"/>
<path d="M36.725 13H5.5136C4.1275 13 3 14.128 3 15.514V21.103C3 22.488 4.1275 23.616 5.5136 23.616H36.725C38.111 23.616 39.239 22.489 39.239 21.103V15.514C39.239 14.128 38.111 13 36.725 13ZM38.489 21.103C38.489 22.075 37.698 22.866 36.725 22.866H5.5136C4.5409 22.866 3.75 22.075 3.75 21.103V15.514C3.75 14.541 4.5409 13.75 5.5136 13.75H36.725C37.698 13.75 38.489 14.541 38.489 15.514V21.103Z" fill="black" fill-opacity="0.2"/>
<path d="M36.725 13H5.5136C4.1275 13 3 14.128 3 15.514V21.103C3 22.488 4.1275 23.616 5.5136 23.616H36.725C38.111 23.616 39.239 22.489 39.239 21.103V15.514C39.239 14.128 38.111 13 36.725 13ZM38.489 21.103C38.489 22.075 37.698 22.866 36.725 22.866H5.5136C4.5409 22.866 3.75 22.075 3.75 21.103V15.514C3.75 14.541 4.5409 13.75 5.5136 13.75H36.725C37.698 13.75 38.489 14.541 38.489 15.514V21.103Z" fill="black" fill-opacity="0.2"/>
<path d="M36.725 13H5.5136C4.1275 13 3 14.128 3 15.514V21.103C3 22.488 4.1275 23.616 5.5136 23.616H36.725C38.111 23.616 39.239 22.489 39.239 21.103V15.514C39.239 14.128 38.111 13 36.725 13ZM38.489 21.103C38.489 22.075 37.698 22.866 36.725 22.866H5.5136C4.5409 22.866 3.75 22.075 3.75 21.103V15.514C3.75 14.541 4.5409 13.75 5.5136 13.75H36.725C37.698 13.75 38.489 14.541 38.489 15.514V21.103Z" fill="black" fill-opacity="0.2"/>
<path d="M36.725 13H5.5136C4.1275 13 3 14.128 3 15.514V21.103C3 22.488 4.1275 23.616 5.5136 23.616H36.725C38.111 23.616 39.239 22.489 39.239 21.103V15.514C39.239 14.128 38.111 13 36.725 13ZM38.489 21.103C38.489 22.075 37.698 22.866 36.725 22.866H5.5136C4.5409 22.866 3.75 22.075 3.75 21.103V15.514C3.75 14.541 4.5409 13.75 5.5136 13.75H36.725C37.698 13.75 38.489 14.541 38.489 15.514V21.103Z" fill="black" fill-opacity="0.2"/>
<path d="M36.725 13H5.5136C4.1275 13 3 14.128 3 15.514V21.103C3 22.488 4.1275 23.616 5.5136 23.616H36.725C38.111 23.616 39.239 22.489 39.239 21.103V15.514C39.239 14.128 38.111 13 36.725 13ZM38.489 21.103C38.489 22.075 37.698 22.866 36.725 22.866H5.5136C4.5409 22.866 3.75 22.075 3.75 21.103V15.514C3.75 14.541 4.5409 13.75 5.5136 13.75H36.725C37.698 13.75 38.489 14.541 38.489 15.514V21.103Z" fill="black" fill-opacity="0.2"/>
<path d="M36.725 13H5.5136C4.1275 13 3 14.128 3 15.514V21.103C3 22.488 4.1275 23.616 5.5136 23.616H36.725C38.111 23.616 39.239 22.489 39.239 21.103V15.514C39.239 14.128 38.111 13 36.725 13ZM38.489 21.103C38.489 22.075 37.698 22.866 36.725 22.866H5.5136C4.5409 22.866 3.75 22.075 3.75 21.103V15.514C3.75 14.541 4.5409 13.75 5.5136 13.75H36.725C37.698 13.75 38.489 14.541 38.489 15.514V21.103Z" fill="black" fill-opacity="0.2"/>
<path d="M36.725 13H5.5136C4.1275 13 3 14.128 3 15.514V21.103C3 22.488 4.1275 23.616 5.5136 23.616H36.725C38.111 23.616 39.239 22.489 39.239 21.103V15.514C39.239 14.128 38.111 13 36.725 13ZM38.489 21.103C38.489 22.075 37.698 22.866 36.725 22.866H5.5136C4.5409 22.866 3.75 22.075 3.75 21.103V15.514C3.75 14.541 4.5409 13.75 5.5136 13.75H36.725C37.698 13.75 38.489 14.541 38.489 15.514V21.103Z" fill="black" fill-opacity="0.2"/>
<path d="M21.116 15C19.9683 15 18.9213 15.582 18.3171 16.554C17.9864 17.08 17.8114 17.686 17.8114 18.306C17.8114 20.131 19.2942 21.616 21.116 21.616C22.942 21.616 24.427 20.131 24.427 18.306C24.427 17.681 24.25 17.074 23.918 16.557C23.327 15.597 22.254 15 21.116 15ZM21.119 19.444L20.3118 19.11L19.9776 18.304L20.3118 17.497L21.119 17.164L21.926 17.497L22.26 18.304L21.926 19.11L21.119 19.444ZM21.876 19.337L21.781 19.916L21.308 19.57L21.876 19.337ZM20.93 19.563L20.4506 19.91L20.3622 19.33L20.93 19.563ZM18.5945 18.633L19.1453 19.015L18.7311 19.2C18.6635 19.02 18.6199 18.83 18.5945 18.633ZM18.5697 18.389C18.5688 18.361 18.5613 18.334 18.5613 18.306C18.5613 18.277 18.5664 18.248 18.5673 18.219L19.3217 17.699L19.7632 18.304L19.3217 18.908L18.5697 18.389ZM18.584 17.984C18.6084 17.794 18.6582 17.608 18.7248 17.428L19.1452 17.592L18.584 17.984ZM19.5047 17.642L20.0848 17.554L19.8515 18.115L19.5047 17.642ZM19.8577 18.493L20.091 19.059L19.5109 18.965L19.8577 18.493ZM20.3622 17.271L20.4569 16.691L20.93 17.037L20.3622 17.271ZM21.308 17.044L21.787 16.697L21.876 17.277L21.308 17.044ZM23.141 16.757C23.19 16.822 23.239 16.887 23.283 16.956C23.339 17.044 23.387 17.136 23.431 17.229L23.023 17.409L23.141 16.757ZM22.982 16.57L22.822 17.46L22.077 17.34L21.964 16.603L22.86 16.441C22.903 16.482 22.942 16.527 22.982 16.57ZM22.727 17.642L22.386 18.115L22.147 17.548L22.727 17.642ZM22.386 18.493L22.733 18.965L22.147 19.059L22.386 18.493ZM22.475 18.304L22.916 17.699L23.671 18.22C23.672 18.249 23.677 18.277 23.677 18.306C23.677 18.334 23.67 18.361 23.669 18.389L22.916 18.908L22.475 18.304ZM23.645 18.629C23.62 18.82 23.578 19.004 23.514 19.179L23.093 19.015L23.645 18.629ZM23.093 17.592L23.505 17.408C23.576 17.593 23.629 17.784 23.654 17.981L23.093 17.592ZM22.67 16.283L22.008 16.401L22.169 15.984C22.347 16.065 22.515 16.164 22.67 16.283ZM21.989 15.909L21.831 16.326L21.443 15.771C21.631 15.796 21.813 15.845 21.989 15.909ZM21.724 16.502L21.119 16.949L20.5137 16.508L21.03 15.761C21.06 15.76 21.087 15.75 21.116 15.75C21.146 15.75 21.175 15.755 21.205 15.756L21.724 16.502ZM20.771 15.794L20.4 16.332L20.2209 15.932C20.3977 15.865 20.5802 15.82 20.771 15.794ZM20.2235 16.401L19.5821 16.286C19.7279 16.174 19.8807 16.078 20.0468 16.001L20.2235 16.401ZM19.3721 16.44L20.2739 16.603L20.1606 17.346L19.4165 17.46L19.2568 16.578C19.2972 16.534 19.3289 16.481 19.3721 16.44ZM19.2146 17.415L18.7916 17.253C18.8388 17.149 18.8919 17.048 18.9531 16.951C18.9947 16.885 19.0523 16.834 19.099 16.772L19.2146 17.415ZM18.8043 19.379L19.2146 19.198L19.0959 19.855C18.9828 19.707 18.8836 19.549 18.8043 19.379ZM19.4164 19.148L20.1605 19.267L20.2738 20.004L19.3727 20.167C19.3313 20.128 19.2923 20.088 19.2537 20.047L19.4164 19.148ZM19.564 20.325L20.2298 20.206L20.065 20.633C19.8846 20.551 19.7193 20.445 19.564 20.325ZM20.2464 20.703L20.4063 20.281L20.793 20.833C20.6035 20.809 20.4207 20.767 20.2464 20.703ZM20.5136 20.105L21.119 19.658L21.724 20.099L21.199 20.858C21.171 20.859 21.145 20.866 21.116 20.866C21.09 20.866 21.065 20.859 21.038 20.858L20.5136 20.105ZM21.454 20.832L21.838 20.275L22.024 20.692C21.843 20.761 21.652 20.806 21.454 20.832ZM22.014 20.206L22.673 20.325C22.525 20.439 22.367 20.539 22.196 20.619L22.014 20.206ZM22.864 20.167L21.964 20.004L22.077 19.261L22.821 19.148L22.984 20.046C22.945 20.087 22.906 20.128 22.864 20.167ZM23.023 19.192L23.447 19.355C23.365 19.534 23.261 19.699 23.142 19.854L23.023 19.192Z" fill="#333335"/>
<path d="M21.116 15C19.9683 15 18.9213 15.582 18.3171 16.554C17.9864 17.08 17.8114 17.686 17.8114 18.306C17.8114 20.131 19.2942 21.616 21.116 21.616C22.942 21.616 24.427 20.131 24.427 18.306C24.427 17.681 24.25 17.074 23.918 16.557C23.327 15.597 22.254 15 21.116 15ZM21.119 19.444L20.3118 19.11L19.9776 18.304L20.3118 17.497L21.119 17.164L21.926 17.497L22.26 18.304L21.926 19.11L21.119 19.444ZM21.876 19.337L21.781 19.916L21.308 19.57L21.876 19.337ZM20.93 19.563L20.4506 19.91L20.3622 19.33L20.93 19.563ZM18.5945 18.633L19.1453 19.015L18.7311 19.2C18.6635 19.02 18.6199 18.83 18.5945 18.633ZM18.5697 18.389C18.5688 18.361 18.5613 18.334 18.5613 18.306C18.5613 18.277 18.5664 18.248 18.5673 18.219L19.3217 17.699L19.7632 18.304L19.3217 18.908L18.5697 18.389ZM18.584 17.984C18.6084 17.794 18.6582 17.608 18.7248 17.428L19.1452 17.592L18.584 17.984ZM19.5047 17.642L20.0848 17.554L19.8515 18.115L19.5047 17.642ZM19.8577 18.493L20.091 19.059L19.5109 18.965L19.8577 18.493ZM20.3622 17.271L20.4569 16.691L20.93 17.037L20.3622 17.271ZM21.308 17.044L21.787 16.697L21.876 17.277L21.308 17.044ZM23.141 16.757C23.19 16.822 23.239 16.887 23.283 16.956C23.339 17.044 23.387 17.136 23.431 17.229L23.023 17.409L23.141 16.757ZM22.982 16.57L22.822 17.46L22.077 17.34L21.964 16.603L22.86 16.441C22.903 16.482 22.942 16.527 22.982 16.57ZM22.727 17.642L22.386 18.115L22.147 17.548L22.727 17.642ZM22.386 18.493L22.733 18.965L22.147 19.059L22.386 18.493ZM22.475 18.304L22.916 17.699L23.671 18.22C23.672 18.249 23.677 18.277 23.677 18.306C23.677 18.334 23.67 18.361 23.669 18.389L22.916 18.908L22.475 18.304ZM23.645 18.629C23.62 18.82 23.578 19.004 23.514 19.179L23.093 19.015L23.645 18.629ZM23.093 17.592L23.505 17.408C23.576 17.593 23.629 17.784 23.654 17.981L23.093 17.592ZM22.67 16.283L22.008 16.401L22.169 15.984C22.347 16.065 22.515 16.164 22.67 16.283ZM21.989 15.909L21.831 16.326L21.443 15.771C21.631 15.796 21.813 15.845 21.989 15.909ZM21.724 16.502L21.119 16.949L20.5137 16.508L21.03 15.761C21.06 15.76 21.087 15.75 21.116 15.75C21.146 15.75 21.175 15.755 21.205 15.756L21.724 16.502ZM20.771 15.794L20.4 16.332L20.2209 15.932C20.3977 15.865 20.5802 15.82 20.771 15.794ZM20.2235 16.401L19.5821 16.286C19.7279 16.174 19.8807 16.078 20.0468 16.001L20.2235 16.401ZM19.3721 16.44L20.2739 16.603L20.1606 17.346L19.4165 17.46L19.2568 16.578C19.2972 16.534 19.3289 16.481 19.3721 16.44ZM19.2146 17.415L18.7916 17.253C18.8388 17.149 18.8919 17.048 18.9531 16.951C18.9947 16.885 19.0523 16.834 19.099 16.772L19.2146 17.415ZM18.8043 19.379L19.2146 19.198L19.0959 19.855C18.9828 19.707 18.8836 19.549 18.8043 19.379ZM19.4164 19.148L20.1605 19.267L20.2738 20.004L19.3727 20.167C19.3313 20.128 19.2923 20.088 19.2537 20.047L19.4164 19.148ZM19.564 20.325L20.2298 20.206L20.065 20.633C19.8846 20.551 19.7193 20.445 19.564 20.325ZM20.2464 20.703L20.4063 20.281L20.793 20.833C20.6035 20.809 20.4207 20.767 20.2464 20.703ZM20.5136 20.105L21.119 19.658L21.724 20.099L21.199 20.858C21.171 20.859 21.145 20.866 21.116 20.866C21.09 20.866 21.065 20.859 21.038 20.858L20.5136 20.105ZM21.454 20.832L21.838 20.275L22.024 20.692C21.843 20.761 21.652 20.806 21.454 20.832ZM22.014 20.206L22.673 20.325C22.525 20.439 22.367 20.539 22.196 20.619L22.014 20.206ZM22.864 20.167L21.964 20.004L22.077 19.261L22.821 19.148L22.984 20.046C22.945 20.087 22.906 20.128 22.864 20.167ZM23.023 19.192L23.447 19.355C23.365 19.534 23.261 19.699 23.142 19.854L23.023 19.192Z" fill="black" fill-opacity="0.2"/>
<path d="M21.116 15C19.9683 15 18.9213 15.582 18.3171 16.554C17.9864 17.08 17.8114 17.686 17.8114 18.306C17.8114 20.131 19.2942 21.616 21.116 21.616C22.942 21.616 24.427 20.131 24.427 18.306C24.427 17.681 24.25 17.074 23.918 16.557C23.327 15.597 22.254 15 21.116 15ZM21.119 19.444L20.3118 19.11L19.9776 18.304L20.3118 17.497L21.119 17.164L21.926 17.497L22.26 18.304L21.926 19.11L21.119 19.444ZM21.876 19.337L21.781 19.916L21.308 19.57L21.876 19.337ZM20.93 19.563L20.4506 19.91L20.3622 19.33L20.93 19.563ZM18.5945 18.633L19.1453 19.015L18.7311 19.2C18.6635 19.02 18.6199 18.83 18.5945 18.633ZM18.5697 18.389C18.5688 18.361 18.5613 18.334 18.5613 18.306C18.5613 18.277 18.5664 18.248 18.5673 18.219L19.3217 17.699L19.7632 18.304L19.3217 18.908L18.5697 18.389ZM18.584 17.984C18.6084 17.794 18.6582 17.608 18.7248 17.428L19.1452 17.592L18.584 17.984ZM19.5047 17.642L20.0848 17.554L19.8515 18.115L19.5047 17.642ZM19.8577 18.493L20.091 19.059L19.5109 18.965L19.8577 18.493ZM20.3622 17.271L20.4569 16.691L20.93 17.037L20.3622 17.271ZM21.308 17.044L21.787 16.697L21.876 17.277L21.308 17.044ZM23.141 16.757C23.19 16.822 23.239 16.887 23.283 16.956C23.339 17.044 23.387 17.136 23.431 17.229L23.023 17.409L23.141 16.757ZM22.982 16.57L22.822 17.46L22.077 17.34L21.964 16.603L22.86 16.441C22.903 16.482 22.942 16.527 22.982 16.57ZM22.727 17.642L22.386 18.115L22.147 17.548L22.727 17.642ZM22.386 18.493L22.733 18.965L22.147 19.059L22.386 18.493ZM22.475 18.304L22.916 17.699L23.671 18.22C23.672 18.249 23.677 18.277 23.677 18.306C23.677 18.334 23.67 18.361 23.669 18.389L22.916 18.908L22.475 18.304ZM23.645 18.629C23.62 18.82 23.578 19.004 23.514 19.179L23.093 19.015L23.645 18.629ZM23.093 17.592L23.505 17.408C23.576 17.593 23.629 17.784 23.654 17.981L23.093 17.592ZM22.67 16.283L22.008 16.401L22.169 15.984C22.347 16.065 22.515 16.164 22.67 16.283ZM21.989 15.909L21.831 16.326L21.443 15.771C21.631 15.796 21.813 15.845 21.989 15.909ZM21.724 16.502L21.119 16.949L20.5137 16.508L21.03 15.761C21.06 15.76 21.087 15.75 21.116 15.75C21.146 15.75 21.175 15.755 21.205 15.756L21.724 16.502ZM20.771 15.794L20.4 16.332L20.2209 15.932C20.3977 15.865 20.5802 15.82 20.771 15.794ZM20.2235 16.401L19.5821 16.286C19.7279 16.174 19.8807 16.078 20.0468 16.001L20.2235 16.401ZM19.3721 16.44L20.2739 16.603L20.1606 17.346L19.4165 17.46L19.2568 16.578C19.2972 16.534 19.3289 16.481 19.3721 16.44ZM19.2146 17.415L18.7916 17.253C18.8388 17.149 18.8919 17.048 18.9531 16.951C18.9947 16.885 19.0523 16.834 19.099 16.772L19.2146 17.415ZM18.8043 19.379L19.2146 19.198L19.0959 19.855C18.9828 19.707 18.8836 19.549 18.8043 19.379ZM19.4164 19.148L20.1605 19.267L20.2738 20.004L19.3727 20.167C19.3313 20.128 19.2923 20.088 19.2537 20.047L19.4164 19.148ZM19.564 20.325L20.2298 20.206L20.065 20.633C19.8846 20.551 19.7193 20.445 19.564 20.325ZM20.2464 20.703L20.4063 20.281L20.793 20.833C20.6035 20.809 20.4207 20.767 20.2464 20.703ZM20.5136 20.105L21.119 19.658L21.724 20.099L21.199 20.858C21.171 20.859 21.145 20.866 21.116 20.866C21.09 20.866 21.065 20.859 21.038 20.858L20.5136 20.105ZM21.454 20.832L21.838 20.275L22.024 20.692C21.843 20.761 21.652 20.806 21.454 20.832ZM22.014 20.206L22.673 20.325C22.525 20.439 22.367 20.539 22.196 20.619L22.014 20.206ZM22.864 20.167L21.964 20.004L22.077 19.261L22.821 19.148L22.984 20.046C22.945 20.087 22.906 20.128 22.864 20.167ZM23.023 19.192L23.447 19.355C23.365 19.534 23.261 19.699 23.142 19.854L23.023 19.192Z" fill="black" fill-opacity="0.2"/>
<path d="M21.116 15C19.9683 15 18.9213 15.582 18.3171 16.554C17.9864 17.08 17.8114 17.686 17.8114 18.306C17.8114 20.131 19.2942 21.616 21.116 21.616C22.942 21.616 24.427 20.131 24.427 18.306C24.427 17.681 24.25 17.074 23.918 16.557C23.327 15.597 22.254 15 21.116 15ZM21.119 19.444L20.3118 19.11L19.9776 18.304L20.3118 17.497L21.119 17.164L21.926 17.497L22.26 18.304L21.926 19.11L21.119 19.444ZM21.876 19.337L21.781 19.916L21.308 19.57L21.876 19.337ZM20.93 19.563L20.4506 19.91L20.3622 19.33L20.93 19.563ZM18.5945 18.633L19.1453 19.015L18.7311 19.2C18.6635 19.02 18.6199 18.83 18.5945 18.633ZM18.5697 18.389C18.5688 18.361 18.5613 18.334 18.5613 18.306C18.5613 18.277 18.5664 18.248 18.5673 18.219L19.3217 17.699L19.7632 18.304L19.3217 18.908L18.5697 18.389ZM18.584 17.984C18.6084 17.794 18.6582 17.608 18.7248 17.428L19.1452 17.592L18.584 17.984ZM19.5047 17.642L20.0848 17.554L19.8515 18.115L19.5047 17.642ZM19.8577 18.493L20.091 19.059L19.5109 18.965L19.8577 18.493ZM20.3622 17.271L20.4569 16.691L20.93 17.037L20.3622 17.271ZM21.308 17.044L21.787 16.697L21.876 17.277L21.308 17.044ZM23.141 16.757C23.19 16.822 23.239 16.887 23.283 16.956C23.339 17.044 23.387 17.136 23.431 17.229L23.023 17.409L23.141 16.757ZM22.982 16.57L22.822 17.46L22.077 17.34L21.964 16.603L22.86 16.441C22.903 16.482 22.942 16.527 22.982 16.57ZM22.727 17.642L22.386 18.115L22.147 17.548L22.727 17.642ZM22.386 18.493L22.733 18.965L22.147 19.059L22.386 18.493ZM22.475 18.304L22.916 17.699L23.671 18.22C23.672 18.249 23.677 18.277 23.677 18.306C23.677 18.334 23.67 18.361 23.669 18.389L22.916 18.908L22.475 18.304ZM23.645 18.629C23.62 18.82 23.578 19.004 23.514 19.179L23.093 19.015L23.645 18.629ZM23.093 17.592L23.505 17.408C23.576 17.593 23.629 17.784 23.654 17.981L23.093 17.592ZM22.67 16.283L22.008 16.401L22.169 15.984C22.347 16.065 22.515 16.164 22.67 16.283ZM21.989 15.909L21.831 16.326L21.443 15.771C21.631 15.796 21.813 15.845 21.989 15.909ZM21.724 16.502L21.119 16.949L20.5137 16.508L21.03 15.761C21.06 15.76 21.087 15.75 21.116 15.75C21.146 15.75 21.175 15.755 21.205 15.756L21.724 16.502ZM20.771 15.794L20.4 16.332L20.2209 15.932C20.3977 15.865 20.5802 15.82 20.771 15.794ZM20.2235 16.401L19.5821 16.286C19.7279 16.174 19.8807 16.078 20.0468 16.001L20.2235 16.401ZM19.3721 16.44L20.2739 16.603L20.1606 17.346L19.4165 17.46L19.2568 16.578C19.2972 16.534 19.3289 16.481 19.3721 16.44ZM19.2146 17.415L18.7916 17.253C18.8388 17.149 18.8919 17.048 18.9531 16.951C18.9947 16.885 19.0523 16.834 19.099 16.772L19.2146 17.415ZM18.8043 19.379L19.2146 19.198L19.0959 19.855C18.9828 19.707 18.8836 19.549 18.8043 19.379ZM19.4164 19.148L20.1605 19.267L20.2738 20.004L19.3727 20.167C19.3313 20.128 19.2923 20.088 19.2537 20.047L19.4164 19.148ZM19.564 20.325L20.2298 20.206L20.065 20.633C19.8846 20.551 19.7193 20.445 19.564 20.325ZM20.2464 20.703L20.4063 20.281L20.793 20.833C20.6035 20.809 20.4207 20.767 20.2464 20.703ZM20.5136 20.105L21.119 19.658L21.724 20.099L21.199 20.858C21.171 20.859 21.145 20.866 21.116 20.866C21.09 20.866 21.065 20.859 21.038 20.858L20.5136 20.105ZM21.454 20.832L21.838 20.275L22.024 20.692C21.843 20.761 21.652 20.806 21.454 20.832ZM22.014 20.206L22.673 20.325C22.525 20.439 22.367 20.539 22.196 20.619L22.014 20.206ZM22.864 20.167L21.964 20.004L22.077 19.261L22.821 19.148L22.984 20.046C22.945 20.087 22.906 20.128 22.864 20.167ZM23.023 19.192L23.447 19.355C23.365 19.534 23.261 19.699 23.142 19.854L23.023 19.192Z" fill="black" fill-opacity="0.2"/>
<path d="M21.116 15C19.9683 15 18.9213 15.582 18.3171 16.554C17.9864 17.08 17.8114 17.686 17.8114 18.306C17.8114 20.131 19.2942 21.616 21.116 21.616C22.942 21.616 24.427 20.131 24.427 18.306C24.427 17.681 24.25 17.074 23.918 16.557C23.327 15.597 22.254 15 21.116 15ZM21.119 19.444L20.3118 19.11L19.9776 18.304L20.3118 17.497L21.119 17.164L21.926 17.497L22.26 18.304L21.926 19.11L21.119 19.444ZM21.876 19.337L21.781 19.916L21.308 19.57L21.876 19.337ZM20.93 19.563L20.4506 19.91L20.3622 19.33L20.93 19.563ZM18.5945 18.633L19.1453 19.015L18.7311 19.2C18.6635 19.02 18.6199 18.83 18.5945 18.633ZM18.5697 18.389C18.5688 18.361 18.5613 18.334 18.5613 18.306C18.5613 18.277 18.5664 18.248 18.5673 18.219L19.3217 17.699L19.7632 18.304L19.3217 18.908L18.5697 18.389ZM18.584 17.984C18.6084 17.794 18.6582 17.608 18.7248 17.428L19.1452 17.592L18.584 17.984ZM19.5047 17.642L20.0848 17.554L19.8515 18.115L19.5047 17.642ZM19.8577 18.493L20.091 19.059L19.5109 18.965L19.8577 18.493ZM20.3622 17.271L20.4569 16.691L20.93 17.037L20.3622 17.271ZM21.308 17.044L21.787 16.697L21.876 17.277L21.308 17.044ZM23.141 16.757C23.19 16.822 23.239 16.887 23.283 16.956C23.339 17.044 23.387 17.136 23.431 17.229L23.023 17.409L23.141 16.757ZM22.982 16.57L22.822 17.46L22.077 17.34L21.964 16.603L22.86 16.441C22.903 16.482 22.942 16.527 22.982 16.57ZM22.727 17.642L22.386 18.115L22.147 17.548L22.727 17.642ZM22.386 18.493L22.733 18.965L22.147 19.059L22.386 18.493ZM22.475 18.304L22.916 17.699L23.671 18.22C23.672 18.249 23.677 18.277 23.677 18.306C23.677 18.334 23.67 18.361 23.669 18.389L22.916 18.908L22.475 18.304ZM23.645 18.629C23.62 18.82 23.578 19.004 23.514 19.179L23.093 19.015L23.645 18.629ZM23.093 17.592L23.505 17.408C23.576 17.593 23.629 17.784 23.654 17.981L23.093 17.592ZM22.67 16.283L22.008 16.401L22.169 15.984C22.347 16.065 22.515 16.164 22.67 16.283ZM21.989 15.909L21.831 16.326L21.443 15.771C21.631 15.796 21.813 15.845 21.989 15.909ZM21.724 16.502L21.119 16.949L20.5137 16.508L21.03 15.761C21.06 15.76 21.087 15.75 21.116 15.75C21.146 15.75 21.175 15.755 21.205 15.756L21.724 16.502ZM20.771 15.794L20.4 16.332L20.2209 15.932C20.3977 15.865 20.5802 15.82 20.771 15.794ZM20.2235 16.401L19.5821 16.286C19.7279 16.174 19.8807 16.078 20.0468 16.001L20.2235 16.401ZM19.3721 16.44L20.2739 16.603L20.1606 17.346L19.4165 17.46L19.2568 16.578C19.2972 16.534 19.3289 16.481 19.3721 16.44ZM19.2146 17.415L18.7916 17.253C18.8388 17.149 18.8919 17.048 18.9531 16.951C18.9947 16.885 19.0523 16.834 19.099 16.772L19.2146 17.415ZM18.8043 19.379L19.2146 19.198L19.0959 19.855C18.9828 19.707 18.8836 19.549 18.8043 19.379ZM19.4164 19.148L20.1605 19.267L20.2738 20.004L19.3727 20.167C19.3313 20.128 19.2923 20.088 19.2537 20.047L19.4164 19.148ZM19.564 20.325L20.2298 20.206L20.065 20.633C19.8846 20.551 19.7193 20.445 19.564 20.325ZM20.2464 20.703L20.4063 20.281L20.793 20.833C20.6035 20.809 20.4207 20.767 20.2464 20.703ZM20.5136 20.105L21.119 19.658L21.724 20.099L21.199 20.858C21.171 20.859 21.145 20.866 21.116 20.866C21.09 20.866 21.065 20.859 21.038 20.858L20.5136 20.105ZM21.454 20.832L21.838 20.275L22.024 20.692C21.843 20.761 21.652 20.806 21.454 20.832ZM22.014 20.206L22.673 20.325C22.525 20.439 22.367 20.539 22.196 20.619L22.014 20.206ZM22.864 20.167L21.964 20.004L22.077 19.261L22.821 19.148L22.984 20.046C22.945 20.087 22.906 20.128 22.864 20.167ZM23.023 19.192L23.447 19.355C23.365 19.534 23.261 19.699 23.142 19.854L23.023 19.192Z" fill="black" fill-opacity="0.2"/>
<path d="M21.116 15C19.9683 15 18.9213 15.582 18.3171 16.554C17.9864 17.08 17.8114 17.686 17.8114 18.306C17.8114 20.131 19.2942 21.616 21.116 21.616C22.942 21.616 24.427 20.131 24.427 18.306C24.427 17.681 24.25 17.074 23.918 16.557C23.327 15.597 22.254 15 21.116 15ZM21.119 19.444L20.3118 19.11L19.9776 18.304L20.3118 17.497L21.119 17.164L21.926 17.497L22.26 18.304L21.926 19.11L21.119 19.444ZM21.876 19.337L21.781 19.916L21.308 19.57L21.876 19.337ZM20.93 19.563L20.4506 19.91L20.3622 19.33L20.93 19.563ZM18.5945 18.633L19.1453 19.015L18.7311 19.2C18.6635 19.02 18.6199 18.83 18.5945 18.633ZM18.5697 18.389C18.5688 18.361 18.5613 18.334 18.5613 18.306C18.5613 18.277 18.5664 18.248 18.5673 18.219L19.3217 17.699L19.7632 18.304L19.3217 18.908L18.5697 18.389ZM18.584 17.984C18.6084 17.794 18.6582 17.608 18.7248 17.428L19.1452 17.592L18.584 17.984ZM19.5047 17.642L20.0848 17.554L19.8515 18.115L19.5047 17.642ZM19.8577 18.493L20.091 19.059L19.5109 18.965L19.8577 18.493ZM20.3622 17.271L20.4569 16.691L20.93 17.037L20.3622 17.271ZM21.308 17.044L21.787 16.697L21.876 17.277L21.308 17.044ZM23.141 16.757C23.19 16.822 23.239 16.887 23.283 16.956C23.339 17.044 23.387 17.136 23.431 17.229L23.023 17.409L23.141 16.757ZM22.982 16.57L22.822 17.46L22.077 17.34L21.964 16.603L22.86 16.441C22.903 16.482 22.942 16.527 22.982 16.57ZM22.727 17.642L22.386 18.115L22.147 17.548L22.727 17.642ZM22.386 18.493L22.733 18.965L22.147 19.059L22.386 18.493ZM22.475 18.304L22.916 17.699L23.671 18.22C23.672 18.249 23.677 18.277 23.677 18.306C23.677 18.334 23.67 18.361 23.669 18.389L22.916 18.908L22.475 18.304ZM23.645 18.629C23.62 18.82 23.578 19.004 23.514 19.179L23.093 19.015L23.645 18.629ZM23.093 17.592L23.505 17.408C23.576 17.593 23.629 17.784 23.654 17.981L23.093 17.592ZM22.67 16.283L22.008 16.401L22.169 15.984C22.347 16.065 22.515 16.164 22.67 16.283ZM21.989 15.909L21.831 16.326L21.443 15.771C21.631 15.796 21.813 15.845 21.989 15.909ZM21.724 16.502L21.119 16.949L20.5137 16.508L21.03 15.761C21.06 15.76 21.087 15.75 21.116 15.75C21.146 15.75 21.175 15.755 21.205 15.756L21.724 16.502ZM20.771 15.794L20.4 16.332L20.2209 15.932C20.3977 15.865 20.5802 15.82 20.771 15.794ZM20.2235 16.401L19.5821 16.286C19.7279 16.174 19.8807 16.078 20.0468 16.001L20.2235 16.401ZM19.3721 16.44L20.2739 16.603L20.1606 17.346L19.4165 17.46L19.2568 16.578C19.2972 16.534 19.3289 16.481 19.3721 16.44ZM19.2146 17.415L18.7916 17.253C18.8388 17.149 18.8919 17.048 18.9531 16.951C18.9947 16.885 19.0523 16.834 19.099 16.772L19.2146 17.415ZM18.8043 19.379L19.2146 19.198L19.0959 19.855C18.9828 19.707 18.8836 19.549 18.8043 19.379ZM19.4164 19.148L20.1605 19.267L20.2738 20.004L19.3727 20.167C19.3313 20.128 19.2923 20.088 19.2537 20.047L19.4164 19.148ZM19.564 20.325L20.2298 20.206L20.065 20.633C19.8846 20.551 19.7193 20.445 19.564 20.325ZM20.2464 20.703L20.4063 20.281L20.793 20.833C20.6035 20.809 20.4207 20.767 20.2464 20.703ZM20.5136 20.105L21.119 19.658L21.724 20.099L21.199 20.858C21.171 20.859 21.145 20.866 21.116 20.866C21.09 20.866 21.065 20.859 21.038 20.858L20.5136 20.105ZM21.454 20.832L21.838 20.275L22.024 20.692C21.843 20.761 21.652 20.806 21.454 20.832ZM22.014 20.206L22.673 20.325C22.525 20.439 22.367 20.539 22.196 20.619L22.014 20.206ZM22.864 20.167L21.964 20.004L22.077 19.261L22.821 19.148L22.984 20.046C22.945 20.087 22.906 20.128 22.864 20.167ZM23.023 19.192L23.447 19.355C23.365 19.534 23.261 19.699 23.142 19.854L23.023 19.192Z" fill="black" fill-opacity="0.2"/>
<path d="M21.116 15C19.9683 15 18.9213 15.582 18.3171 16.554C17.9864 17.08 17.8114 17.686 17.8114 18.306C17.8114 20.131 19.2942 21.616 21.116 21.616C22.942 21.616 24.427 20.131 24.427 18.306C24.427 17.681 24.25 17.074 23.918 16.557C23.327 15.597 22.254 15 21.116 15ZM21.119 19.444L20.3118 19.11L19.9776 18.304L20.3118 17.497L21.119 17.164L21.926 17.497L22.26 18.304L21.926 19.11L21.119 19.444ZM21.876 19.337L21.781 19.916L21.308 19.57L21.876 19.337ZM20.93 19.563L20.4506 19.91L20.3622 19.33L20.93 19.563ZM18.5945 18.633L19.1453 19.015L18.7311 19.2C18.6635 19.02 18.6199 18.83 18.5945 18.633ZM18.5697 18.389C18.5688 18.361 18.5613 18.334 18.5613 18.306C18.5613 18.277 18.5664 18.248 18.5673 18.219L19.3217 17.699L19.7632 18.304L19.3217 18.908L18.5697 18.389ZM18.584 17.984C18.6084 17.794 18.6582 17.608 18.7248 17.428L19.1452 17.592L18.584 17.984ZM19.5047 17.642L20.0848 17.554L19.8515 18.115L19.5047 17.642ZM19.8577 18.493L20.091 19.059L19.5109 18.965L19.8577 18.493ZM20.3622 17.271L20.4569 16.691L20.93 17.037L20.3622 17.271ZM21.308 17.044L21.787 16.697L21.876 17.277L21.308 17.044ZM23.141 16.757C23.19 16.822 23.239 16.887 23.283 16.956C23.339 17.044 23.387 17.136 23.431 17.229L23.023 17.409L23.141 16.757ZM22.982 16.57L22.822 17.46L22.077 17.34L21.964 16.603L22.86 16.441C22.903 16.482 22.942 16.527 22.982 16.57ZM22.727 17.642L22.386 18.115L22.147 17.548L22.727 17.642ZM22.386 18.493L22.733 18.965L22.147 19.059L22.386 18.493ZM22.475 18.304L22.916 17.699L23.671 18.22C23.672 18.249 23.677 18.277 23.677 18.306C23.677 18.334 23.67 18.361 23.669 18.389L22.916 18.908L22.475 18.304ZM23.645 18.629C23.62 18.82 23.578 19.004 23.514 19.179L23.093 19.015L23.645 18.629ZM23.093 17.592L23.505 17.408C23.576 17.593 23.629 17.784 23.654 17.981L23.093 17.592ZM22.67 16.283L22.008 16.401L22.169 15.984C22.347 16.065 22.515 16.164 22.67 16.283ZM21.989 15.909L21.831 16.326L21.443 15.771C21.631 15.796 21.813 15.845 21.989 15.909ZM21.724 16.502L21.119 16.949L20.5137 16.508L21.03 15.761C21.06 15.76 21.087 15.75 21.116 15.75C21.146 15.75 21.175 15.755 21.205 15.756L21.724 16.502ZM20.771 15.794L20.4 16.332L20.2209 15.932C20.3977 15.865 20.5802 15.82 20.771 15.794ZM20.2235 16.401L19.5821 16.286C19.7279 16.174 19.8807 16.078 20.0468 16.001L20.2235 16.401ZM19.3721 16.44L20.2739 16.603L20.1606 17.346L19.4165 17.46L19.2568 16.578C19.2972 16.534 19.3289 16.481 19.3721 16.44ZM19.2146 17.415L18.7916 17.253C18.8388 17.149 18.8919 17.048 18.9531 16.951C18.9947 16.885 19.0523 16.834 19.099 16.772L19.2146 17.415ZM18.8043 19.379L19.2146 19.198L19.0959 19.855C18.9828 19.707 18.8836 19.549 18.8043 19.379ZM19.4164 19.148L20.1605 19.267L20.2738 20.004L19.3727 20.167C19.3313 20.128 19.2923 20.088 19.2537 20.047L19.4164 19.148ZM19.564 20.325L20.2298 20.206L20.065 20.633C19.8846 20.551 19.7193 20.445 19.564 20.325ZM20.2464 20.703L20.4063 20.281L20.793 20.833C20.6035 20.809 20.4207 20.767 20.2464 20.703ZM20.5136 20.105L21.119 19.658L21.724 20.099L21.199 20.858C21.171 20.859 21.145 20.866 21.116 20.866C21.09 20.866 21.065 20.859 21.038 20.858L20.5136 20.105ZM21.454 20.832L21.838 20.275L22.024 20.692C21.843 20.761 21.652 20.806 21.454 20.832ZM22.014 20.206L22.673 20.325C22.525 20.439 22.367 20.539 22.196 20.619L22.014 20.206ZM22.864 20.167L21.964 20.004L22.077 19.261L22.821 19.148L22.984 20.046C22.945 20.087 22.906 20.128 22.864 20.167ZM23.023 19.192L23.447 19.355C23.365 19.534 23.261 19.699 23.142 19.854L23.023 19.192Z" fill="black" fill-opacity="0.2"/>
<path d="M21.116 15C19.9683 15 18.9213 15.582 18.3171 16.554C17.9864 17.08 17.8114 17.686 17.8114 18.306C17.8114 20.131 19.2942 21.616 21.116 21.616C22.942 21.616 24.427 20.131 24.427 18.306C24.427 17.681 24.25 17.074 23.918 16.557C23.327 15.597 22.254 15 21.116 15ZM21.119 19.444L20.3118 19.11L19.9776 18.304L20.3118 17.497L21.119 17.164L21.926 17.497L22.26 18.304L21.926 19.11L21.119 19.444ZM21.876 19.337L21.781 19.916L21.308 19.57L21.876 19.337ZM20.93 19.563L20.4506 19.91L20.3622 19.33L20.93 19.563ZM18.5945 18.633L19.1453 19.015L18.7311 19.2C18.6635 19.02 18.6199 18.83 18.5945 18.633ZM18.5697 18.389C18.5688 18.361 18.5613 18.334 18.5613 18.306C18.5613 18.277 18.5664 18.248 18.5673 18.219L19.3217 17.699L19.7632 18.304L19.3217 18.908L18.5697 18.389ZM18.584 17.984C18.6084 17.794 18.6582 17.608 18.7248 17.428L19.1452 17.592L18.584 17.984ZM19.5047 17.642L20.0848 17.554L19.8515 18.115L19.5047 17.642ZM19.8577 18.493L20.091 19.059L19.5109 18.965L19.8577 18.493ZM20.3622 17.271L20.4569 16.691L20.93 17.037L20.3622 17.271ZM21.308 17.044L21.787 16.697L21.876 17.277L21.308 17.044ZM23.141 16.757C23.19 16.822 23.239 16.887 23.283 16.956C23.339 17.044 23.387 17.136 23.431 17.229L23.023 17.409L23.141 16.757ZM22.982 16.57L22.822 17.46L22.077 17.34L21.964 16.603L22.86 16.441C22.903 16.482 22.942 16.527 22.982 16.57ZM22.727 17.642L22.386 18.115L22.147 17.548L22.727 17.642ZM22.386 18.493L22.733 18.965L22.147 19.059L22.386 18.493ZM22.475 18.304L22.916 17.699L23.671 18.22C23.672 18.249 23.677 18.277 23.677 18.306C23.677 18.334 23.67 18.361 23.669 18.389L22.916 18.908L22.475 18.304ZM23.645 18.629C23.62 18.82 23.578 19.004 23.514 19.179L23.093 19.015L23.645 18.629ZM23.093 17.592L23.505 17.408C23.576 17.593 23.629 17.784 23.654 17.981L23.093 17.592ZM22.67 16.283L22.008 16.401L22.169 15.984C22.347 16.065 22.515 16.164 22.67 16.283ZM21.989 15.909L21.831 16.326L21.443 15.771C21.631 15.796 21.813 15.845 21.989 15.909ZM21.724 16.502L21.119 16.949L20.5137 16.508L21.03 15.761C21.06 15.76 21.087 15.75 21.116 15.75C21.146 15.75 21.175 15.755 21.205 15.756L21.724 16.502ZM20.771 15.794L20.4 16.332L20.2209 15.932C20.3977 15.865 20.5802 15.82 20.771 15.794ZM20.2235 16.401L19.5821 16.286C19.7279 16.174 19.8807 16.078 20.0468 16.001L20.2235 16.401ZM19.3721 16.44L20.2739 16.603L20.1606 17.346L19.4165 17.46L19.2568 16.578C19.2972 16.534 19.3289 16.481 19.3721 16.44ZM19.2146 17.415L18.7916 17.253C18.8388 17.149 18.8919 17.048 18.9531 16.951C18.9947 16.885 19.0523 16.834 19.099 16.772L19.2146 17.415ZM18.8043 19.379L19.2146 19.198L19.0959 19.855C18.9828 19.707 18.8836 19.549 18.8043 19.379ZM19.4164 19.148L20.1605 19.267L20.2738 20.004L19.3727 20.167C19.3313 20.128 19.2923 20.088 19.2537 20.047L19.4164 19.148ZM19.564 20.325L20.2298 20.206L20.065 20.633C19.8846 20.551 19.7193 20.445 19.564 20.325ZM20.2464 20.703L20.4063 20.281L20.793 20.833C20.6035 20.809 20.4207 20.767 20.2464 20.703ZM20.5136 20.105L21.119 19.658L21.724 20.099L21.199 20.858C21.171 20.859 21.145 20.866 21.116 20.866C21.09 20.866 21.065 20.859 21.038 20.858L20.5136 20.105ZM21.454 20.832L21.838 20.275L22.024 20.692C21.843 20.761 21.652 20.806 21.454 20.832ZM22.014 20.206L22.673 20.325C22.525 20.439 22.367 20.539 22.196 20.619L22.014 20.206ZM22.864 20.167L21.964 20.004L22.077 19.261L22.821 19.148L22.984 20.046C22.945 20.087 22.906 20.128 22.864 20.167ZM23.023 19.192L23.447 19.355C23.365 19.534 23.261 19.699 23.142 19.854L23.023 19.192Z" fill="black" fill-opacity="0.2"/>
<path d="M21.116 15C19.9683 15 18.9213 15.582 18.3171 16.554C17.9864 17.08 17.8114 17.686 17.8114 18.306C17.8114 20.131 19.2942 21.616 21.116 21.616C22.942 21.616 24.427 20.131 24.427 18.306C24.427 17.681 24.25 17.074 23.918 16.557C23.327 15.597 22.254 15 21.116 15ZM21.119 19.444L20.3118 19.11L19.9776 18.304L20.3118 17.497L21.119 17.164L21.926 17.497L22.26 18.304L21.926 19.11L21.119 19.444ZM21.876 19.337L21.781 19.916L21.308 19.57L21.876 19.337ZM20.93 19.563L20.4506 19.91L20.3622 19.33L20.93 19.563ZM18.5945 18.633L19.1453 19.015L18.7311 19.2C18.6635 19.02 18.6199 18.83 18.5945 18.633ZM18.5697 18.389C18.5688 18.361 18.5613 18.334 18.5613 18.306C18.5613 18.277 18.5664 18.248 18.5673 18.219L19.3217 17.699L19.7632 18.304L19.3217 18.908L18.5697 18.389ZM18.584 17.984C18.6084 17.794 18.6582 17.608 18.7248 17.428L19.1452 17.592L18.584 17.984ZM19.5047 17.642L20.0848 17.554L19.8515 18.115L19.5047 17.642ZM19.8577 18.493L20.091 19.059L19.5109 18.965L19.8577 18.493ZM20.3622 17.271L20.4569 16.691L20.93 17.037L20.3622 17.271ZM21.308 17.044L21.787 16.697L21.876 17.277L21.308 17.044ZM23.141 16.757C23.19 16.822 23.239 16.887 23.283 16.956C23.339 17.044 23.387 17.136 23.431 17.229L23.023 17.409L23.141 16.757ZM22.982 16.57L22.822 17.46L22.077 17.34L21.964 16.603L22.86 16.441C22.903 16.482 22.942 16.527 22.982 16.57ZM22.727 17.642L22.386 18.115L22.147 17.548L22.727 17.642ZM22.386 18.493L22.733 18.965L22.147 19.059L22.386 18.493ZM22.475 18.304L22.916 17.699L23.671 18.22C23.672 18.249 23.677 18.277 23.677 18.306C23.677 18.334 23.67 18.361 23.669 18.389L22.916 18.908L22.475 18.304ZM23.645 18.629C23.62 18.82 23.578 19.004 23.514 19.179L23.093 19.015L23.645 18.629ZM23.093 17.592L23.505 17.408C23.576 17.593 23.629 17.784 23.654 17.981L23.093 17.592ZM22.67 16.283L22.008 16.401L22.169 15.984C22.347 16.065 22.515 16.164 22.67 16.283ZM21.989 15.909L21.831 16.326L21.443 15.771C21.631 15.796 21.813 15.845 21.989 15.909ZM21.724 16.502L21.119 16.949L20.5137 16.508L21.03 15.761C21.06 15.76 21.087 15.75 21.116 15.75C21.146 15.75 21.175 15.755 21.205 15.756L21.724 16.502ZM20.771 15.794L20.4 16.332L20.2209 15.932C20.3977 15.865 20.5802 15.82 20.771 15.794ZM20.2235 16.401L19.5821 16.286C19.7279 16.174 19.8807 16.078 20.0468 16.001L20.2235 16.401ZM19.3721 16.44L20.2739 16.603L20.1606 17.346L19.4165 17.46L19.2568 16.578C19.2972 16.534 19.3289 16.481 19.3721 16.44ZM19.2146 17.415L18.7916 17.253C18.8388 17.149 18.8919 17.048 18.9531 16.951C18.9947 16.885 19.0523 16.834 19.099 16.772L19.2146 17.415ZM18.8043 19.379L19.2146 19.198L19.0959 19.855C18.9828 19.707 18.8836 19.549 18.8043 19.379ZM19.4164 19.148L20.1605 19.267L20.2738 20.004L19.3727 20.167C19.3313 20.128 19.2923 20.088 19.2537 20.047L19.4164 19.148ZM19.564 20.325L20.2298 20.206L20.065 20.633C19.8846 20.551 19.7193 20.445 19.564 20.325ZM20.2464 20.703L20.4063 20.281L20.793 20.833C20.6035 20.809 20.4207 20.767 20.2464 20.703ZM20.5136 20.105L21.119 19.658L21.724 20.099L21.199 20.858C21.171 20.859 21.145 20.866 21.116 20.866C21.09 20.866 21.065 20.859 21.038 20.858L20.5136 20.105ZM21.454 20.832L21.838 20.275L22.024 20.692C21.843 20.761 21.652 20.806 21.454 20.832ZM22.014 20.206L22.673 20.325C22.525 20.439 22.367 20.539 22.196 20.619L22.014 20.206ZM22.864 20.167L21.964 20.004L22.077 19.261L22.821 19.148L22.984 20.046C22.945 20.087 22.906 20.128 22.864 20.167ZM23.023 19.192L23.447 19.355C23.365 19.534 23.261 19.699 23.142 19.854L23.023 19.192Z" fill="black" fill-opacity="0.2"/>
</svg>
