<svg width="42" height="36" viewBox="0 0 42 36" fill="none" xmlns="http://www.w3.org/2000/svg">
<path d="M36.7275 15.56H28.275C28.23 15.4175 28.1776 15.275 28.1175 15.14V15.1025C28.0574 14.9675 27.9974 14.8325 27.9225 14.6975C27.5625 13.9775 27.0974 13.325 26.5199 12.74L26.4673 12.695C25.7548 12.005 24.9375 11.4575 24.0225 11.0675L23.9925 11.045H23.9399C22.0574 10.295 19.9949 10.3325 18.195 11.075L18.1575 11.0825C17.2726 11.45 16.5 11.975 15.8099 12.6575L15.7425 12.725C15.1725 13.31 14.6923 13.97 14.3398 14.6975C14.2574 14.8475 14.1824 15.005 14.115 15.1625L14.0923 15.1925V15.2525C14.0549 15.35 14.0099 15.455 13.9799 15.56H5.5124C4.125 15.56 3 16.685 3 18.0725C3 19.46 4.125 20.585 5.5124 20.585H13.9724C14.0174 20.72 14.07 20.855 14.1224 20.99L14.1299 21.0275C14.19 21.17 14.2575 21.3125 14.3324 21.4475C14.6849 22.16 15.15 22.805 15.7125 23.39L15.7575 23.435L15.8025 23.465C16.5075 24.1475 17.3173 24.6875 18.24 25.0775C18.2548 25.0925 18.2774 25.1 18.2999 25.1C19.1924 25.4675 20.1449 25.6475 21.1049 25.6475C22.1325 25.6475 23.1224 25.445 24.0525 25.055L24.0898 25.0475C24.9672 24.6725 25.7549 24.1475 26.4225 23.48C26.46 23.4575 26.4901 23.435 26.5049 23.3975C27.0824 22.7975 27.555 22.145 27.9 21.4475C27.9751 21.2975 28.0425 21.1475 28.11 20.99L28.1475 20.8775C28.1849 20.78 28.2224 20.6825 28.2524 20.585H36.7274C38.115 20.585 39.24 19.46 39.24 18.0725C39.2401 16.685 38.1151 15.56 36.7275 15.56ZM5.5124 19.835C4.5449 19.835 3.75 19.0475 3.75 18.0725C3.75 17.0975 4.5449 16.31 5.5124 16.31H13.7474C13.6125 16.8875 13.5449 17.48 13.5449 18.065C13.5449 18.665 13.6125 19.2575 13.7474 19.835H5.5124ZM26.1224 15.56L26.2725 14.6975L26.46 13.6775C26.7149 14 26.9549 14.3375 27.1574 14.6975C27.225 14.8175 27.2923 14.945 27.3524 15.0725L26.2574 15.56L26.1073 15.6275L26.1224 15.56ZM21.8099 20.585L21.12 20.87L20.4301 20.585L19.1326 20.0525L19.0425 19.835L18.3075 18.065L19.0349 16.31L19.1326 16.0775L20.3925 15.56L21.12 15.26L21.8474 15.56L23.1074 16.0775L23.205 16.31L23.9325 18.065L23.1975 19.835L23.1074 20.0525L21.8099 20.585ZM22.9349 20.855L22.8375 21.4475L22.7474 22.0175L21.9674 21.4475L21.7949 21.32L22.9349 20.855ZM20.445 21.305L20.25 21.4475L19.485 21.995L19.4023 21.4475L19.305 20.8325L20.445 21.305ZM17.5499 18.065L16.5148 19.4825L14.46 18.065L16.5148 16.6475L17.5499 18.065ZM17.1674 16.445L18.0749 16.31L18.33 16.2725L18.3149 16.31L17.8651 17.39L17.1674 16.445ZM17.8799 18.74L18.33 19.835L18.345 19.8725L18.1125 19.835L17.1825 19.685L17.8799 18.74ZM19.3125 15.275L19.4023 14.6975L19.5 14.1125L20.3026 14.6975L20.4524 14.81L19.3125 15.275ZM21.7949 14.825L21.9751 14.6975L22.7549 14.135L22.845 14.6975L22.9349 15.2975L21.7949 14.825ZM23.8949 16.2575L24.225 16.31L25.0649 16.445L24.375 17.39L23.9174 16.31L23.8949 16.2575ZM23.9099 19.835L24.3825 18.7325L25.0799 19.685L24.1349 19.835L23.8948 19.8725L23.9099 19.835ZM24.6975 18.065L25.7324 16.6475L27.7726 18.065L25.7324 19.4825L24.6975 18.065ZM25.5974 14.6975L25.4399 15.56L25.3949 15.8L23.8799 15.56L23.6475 15.5225L23.5199 14.6975L23.385 13.7975L25.8375 13.355L25.5974 14.6975ZM24.0376 11.795C24.5774 12.065 25.065 12.3725 25.5076 12.7325L23.5425 13.085L24.0376 11.795ZM23.4 11.5475L22.9126 12.815L21.7726 11.195C22.3125 11.255 22.86 11.3675 23.4 11.5475ZM21.1198 11.4125L22.5375 13.445L21.1198 14.495L19.71 13.46L21.1198 11.4125ZM20.4523 11.18L19.305 12.845L18.735 11.5775C19.305 11.3675 19.8825 11.24 20.4523 11.18ZM18.1274 11.84L18.6825 13.085L16.7324 12.7325C17.1749 12.3875 17.6397 12.0875 18.1274 11.84ZM18.8624 13.7975L18.7199 14.6975L18.5923 15.5375L18.4498 15.56L16.8524 15.8075L16.8073 15.56L16.6498 14.6975L16.4098 13.355L18.8624 13.7975ZM15.0974 14.6975C15.2999 14.3375 15.5325 14 15.7875 13.685L15.9673 14.6975L16.125 15.56L16.1398 15.65L15.9074 15.56L14.8423 15.155C14.9249 14.9975 15.0075 14.8475 15.0974 14.6975ZM14.4523 16.31C14.4973 16.13 14.5499 15.9575 14.61 15.7775L15.885 16.2725L15.8324 16.31L14.2575 17.4125C14.2876 17.045 14.3549 16.6775 14.4523 16.31ZM14.445 19.835C14.3474 19.46 14.2798 19.0925 14.2425 18.7175L15.8474 19.835L15.8924 19.865L14.6249 20.4275C14.5574 20.225 14.4974 20.03 14.445 19.835ZM16.125 20.585L15.9673 21.4475L15.7875 22.4525C15.5249 22.1375 15.2999 21.8075 15.0974 21.4475C15.0225 21.32 14.9625 21.1925 14.8949 21.0575L15.9523 20.585L16.1398 20.5025L16.125 20.585ZM16.65 21.4475L16.8075 20.585L16.8525 20.3225L18.4574 20.585L18.5923 20.6075L18.7274 21.4475L18.8622 22.3325L16.4098 22.775L16.65 21.4475ZM18.21 24.335C17.6625 24.065 17.1824 23.7575 16.7323 23.3975L18.7049 23.045L18.21 24.335ZM18.8474 24.5825L19.3273 23.315L20.46 24.935C19.9349 24.8825 19.3799 24.7625 18.8474 24.5825ZM19.71 22.685L21.1198 21.635L22.5375 22.67L21.1198 24.7175L19.71 22.685ZM21.7949 24.95L22.9424 23.285L23.5049 24.5525C22.9349 24.7625 22.3574 24.89 21.7949 24.95ZM24.1124 24.29L23.5649 23.045L25.5148 23.3975C25.1025 23.7275 24.6299 24.0275 24.1124 24.29ZM23.385 22.3325L23.5199 21.4475L23.6475 20.5925L23.6924 20.585L25.3949 20.3225L25.4399 20.585L25.5974 21.4475L25.8375 22.775L23.385 22.3325ZM27.1425 21.4475C26.94 21.8 26.7149 22.1375 26.4601 22.445L26.2726 21.4475L26.1225 20.585L26.1075 20.48L26.3776 20.585L27.3977 20.975C27.315 21.14 27.2324 21.2975 27.1425 21.4475ZM27.7876 19.835C27.7426 20.0075 27.69 20.18 27.6299 20.3525L26.3549 19.8575L26.3849 19.835L27.9823 18.7175C27.96 19.0925 27.8925 19.4675 27.7876 19.835ZM26.415 16.31L26.3474 16.265L27.615 15.7025C27.6899 15.905 27.7499 16.1075 27.7948 16.31C27.8999 16.6775 27.96 17.045 27.9973 17.405L26.415 16.31ZM36.7275 19.835H28.485C28.6275 19.25 28.7023 18.6575 28.7023 18.065C28.7023 17.465 28.6349 16.88 28.4925 16.31H36.7275C37.695 16.31 38.4901 17.0975 38.4901 18.0725C38.4901 19.0475 37.695 19.835 36.7275 19.835Z" fill="#333335"/>
<path d="M36.7275 15.56H28.275C28.23 15.4175 28.1776 15.275 28.1175 15.14V15.1025C28.0574 14.9675 27.9974 14.8325 27.9225 14.6975C27.5625 13.9775 27.0974 13.325 26.5199 12.74L26.4673 12.695C25.7548 12.005 24.9375 11.4575 24.0225 11.0675L23.9925 11.045H23.9399C22.0574 10.295 19.9949 10.3325 18.195 11.075L18.1575 11.0825C17.2726 11.45 16.5 11.975 15.8099 12.6575L15.7425 12.725C15.1725 13.31 14.6923 13.97 14.3398 14.6975C14.2574 14.8475 14.1824 15.005 14.115 15.1625L14.0923 15.1925V15.2525C14.0549 15.35 14.0099 15.455 13.9799 15.56H5.5124C4.125 15.56 3 16.685 3 18.0725C3 19.46 4.125 20.585 5.5124 20.585H13.9724C14.0174 20.72 14.07 20.855 14.1224 20.99L14.1299 21.0275C14.19 21.17 14.2575 21.3125 14.3324 21.4475C14.6849 22.16 15.15 22.805 15.7125 23.39L15.7575 23.435L15.8025 23.465C16.5075 24.1475 17.3173 24.6875 18.24 25.0775C18.2548 25.0925 18.2774 25.1 18.2999 25.1C19.1924 25.4675 20.1449 25.6475 21.1049 25.6475C22.1325 25.6475 23.1224 25.445 24.0525 25.055L24.0898 25.0475C24.9672 24.6725 25.7549 24.1475 26.4225 23.48C26.46 23.4575 26.4901 23.435 26.5049 23.3975C27.0824 22.7975 27.555 22.145 27.9 21.4475C27.9751 21.2975 28.0425 21.1475 28.11 20.99L28.1475 20.8775C28.1849 20.78 28.2224 20.6825 28.2524 20.585H36.7274C38.115 20.585 39.24 19.46 39.24 18.0725C39.2401 16.685 38.1151 15.56 36.7275 15.56ZM5.5124 19.835C4.5449 19.835 3.75 19.0475 3.75 18.0725C3.75 17.0975 4.5449 16.31 5.5124 16.31H13.7474C13.6125 16.8875 13.5449 17.48 13.5449 18.065C13.5449 18.665 13.6125 19.2575 13.7474 19.835H5.5124ZM26.1224 15.56L26.2725 14.6975L26.46 13.6775C26.7149 14 26.9549 14.3375 27.1574 14.6975C27.225 14.8175 27.2923 14.945 27.3524 15.0725L26.2574 15.56L26.1073 15.6275L26.1224 15.56ZM21.8099 20.585L21.12 20.87L20.4301 20.585L19.1326 20.0525L19.0425 19.835L18.3075 18.065L19.0349 16.31L19.1326 16.0775L20.3925 15.56L21.12 15.26L21.8474 15.56L23.1074 16.0775L23.205 16.31L23.9325 18.065L23.1975 19.835L23.1074 20.0525L21.8099 20.585ZM22.9349 20.855L22.8375 21.4475L22.7474 22.0175L21.9674 21.4475L21.7949 21.32L22.9349 20.855ZM20.445 21.305L20.25 21.4475L19.485 21.995L19.4023 21.4475L19.305 20.8325L20.445 21.305ZM17.5499 18.065L16.5148 19.4825L14.46 18.065L16.5148 16.6475L17.5499 18.065ZM17.1674 16.445L18.0749 16.31L18.33 16.2725L18.3149 16.31L17.8651 17.39L17.1674 16.445ZM17.8799 18.74L18.33 19.835L18.345 19.8725L18.1125 19.835L17.1825 19.685L17.8799 18.74ZM19.3125 15.275L19.4023 14.6975L19.5 14.1125L20.3026 14.6975L20.4524 14.81L19.3125 15.275ZM21.7949 14.825L21.9751 14.6975L22.7549 14.135L22.845 14.6975L22.9349 15.2975L21.7949 14.825ZM23.8949 16.2575L24.225 16.31L25.0649 16.445L24.375 17.39L23.9174 16.31L23.8949 16.2575ZM23.9099 19.835L24.3825 18.7325L25.0799 19.685L24.1349 19.835L23.8948 19.8725L23.9099 19.835ZM24.6975 18.065L25.7324 16.6475L27.7726 18.065L25.7324 19.4825L24.6975 18.065ZM25.5974 14.6975L25.4399 15.56L25.3949 15.8L23.8799 15.56L23.6475 15.5225L23.5199 14.6975L23.385 13.7975L25.8375 13.355L25.5974 14.6975ZM24.0376 11.795C24.5774 12.065 25.065 12.3725 25.5076 12.7325L23.5425 13.085L24.0376 11.795ZM23.4 11.5475L22.9126 12.815L21.7726 11.195C22.3125 11.255 22.86 11.3675 23.4 11.5475ZM21.1198 11.4125L22.5375 13.445L21.1198 14.495L19.71 13.46L21.1198 11.4125ZM20.4523 11.18L19.305 12.845L18.735 11.5775C19.305 11.3675 19.8825 11.24 20.4523 11.18ZM18.1274 11.84L18.6825 13.085L16.7324 12.7325C17.1749 12.3875 17.6397 12.0875 18.1274 11.84ZM18.8624 13.7975L18.7199 14.6975L18.5923 15.5375L18.4498 15.56L16.8524 15.8075L16.8073 15.56L16.6498 14.6975L16.4098 13.355L18.8624 13.7975ZM15.0974 14.6975C15.2999 14.3375 15.5325 14 15.7875 13.685L15.9673 14.6975L16.125 15.56L16.1398 15.65L15.9074 15.56L14.8423 15.155C14.9249 14.9975 15.0075 14.8475 15.0974 14.6975ZM14.4523 16.31C14.4973 16.13 14.5499 15.9575 14.61 15.7775L15.885 16.2725L15.8324 16.31L14.2575 17.4125C14.2876 17.045 14.3549 16.6775 14.4523 16.31ZM14.445 19.835C14.3474 19.46 14.2798 19.0925 14.2425 18.7175L15.8474 19.835L15.8924 19.865L14.6249 20.4275C14.5574 20.225 14.4974 20.03 14.445 19.835ZM16.125 20.585L15.9673 21.4475L15.7875 22.4525C15.5249 22.1375 15.2999 21.8075 15.0974 21.4475C15.0225 21.32 14.9625 21.1925 14.8949 21.0575L15.9523 20.585L16.1398 20.5025L16.125 20.585ZM16.65 21.4475L16.8075 20.585L16.8525 20.3225L18.4574 20.585L18.5923 20.6075L18.7274 21.4475L18.8622 22.3325L16.4098 22.775L16.65 21.4475ZM18.21 24.335C17.6625 24.065 17.1824 23.7575 16.7323 23.3975L18.7049 23.045L18.21 24.335ZM18.8474 24.5825L19.3273 23.315L20.46 24.935C19.9349 24.8825 19.3799 24.7625 18.8474 24.5825ZM19.71 22.685L21.1198 21.635L22.5375 22.67L21.1198 24.7175L19.71 22.685ZM21.7949 24.95L22.9424 23.285L23.5049 24.5525C22.9349 24.7625 22.3574 24.89 21.7949 24.95ZM24.1124 24.29L23.5649 23.045L25.5148 23.3975C25.1025 23.7275 24.6299 24.0275 24.1124 24.29ZM23.385 22.3325L23.5199 21.4475L23.6475 20.5925L23.6924 20.585L25.3949 20.3225L25.4399 20.585L25.5974 21.4475L25.8375 22.775L23.385 22.3325ZM27.1425 21.4475C26.94 21.8 26.7149 22.1375 26.4601 22.445L26.2726 21.4475L26.1225 20.585L26.1075 20.48L26.3776 20.585L27.3977 20.975C27.315 21.14 27.2324 21.2975 27.1425 21.4475ZM27.7876 19.835C27.7426 20.0075 27.69 20.18 27.6299 20.3525L26.3549 19.8575L26.3849 19.835L27.9823 18.7175C27.96 19.0925 27.8925 19.4675 27.7876 19.835ZM26.415 16.31L26.3474 16.265L27.615 15.7025C27.6899 15.905 27.7499 16.1075 27.7948 16.31C27.8999 16.6775 27.96 17.045 27.9973 17.405L26.415 16.31ZM36.7275 19.835H28.485C28.6275 19.25 28.7023 18.6575 28.7023 18.065C28.7023 17.465 28.6349 16.88 28.4925 16.31H36.7275C37.695 16.31 38.4901 17.0975 38.4901 18.0725C38.4901 19.0475 37.695 19.835 36.7275 19.835Z" fill="black" fill-opacity="0.2"/>
<path d="M36.7275 15.56H28.275C28.23 15.4175 28.1776 15.275 28.1175 15.14V15.1025C28.0574 14.9675 27.9974 14.8325 27.9225 14.6975C27.5625 13.9775 27.0974 13.325 26.5199 12.74L26.4673 12.695C25.7548 12.005 24.9375 11.4575 24.0225 11.0675L23.9925 11.045H23.9399C22.0574 10.295 19.9949 10.3325 18.195 11.075L18.1575 11.0825C17.2726 11.45 16.5 11.975 15.8099 12.6575L15.7425 12.725C15.1725 13.31 14.6923 13.97 14.3398 14.6975C14.2574 14.8475 14.1824 15.005 14.115 15.1625L14.0923 15.1925V15.2525C14.0549 15.35 14.0099 15.455 13.9799 15.56H5.5124C4.125 15.56 3 16.685 3 18.0725C3 19.46 4.125 20.585 5.5124 20.585H13.9724C14.0174 20.72 14.07 20.855 14.1224 20.99L14.1299 21.0275C14.19 21.17 14.2575 21.3125 14.3324 21.4475C14.6849 22.16 15.15 22.805 15.7125 23.39L15.7575 23.435L15.8025 23.465C16.5075 24.1475 17.3173 24.6875 18.24 25.0775C18.2548 25.0925 18.2774 25.1 18.2999 25.1C19.1924 25.4675 20.1449 25.6475 21.1049 25.6475C22.1325 25.6475 23.1224 25.445 24.0525 25.055L24.0898 25.0475C24.9672 24.6725 25.7549 24.1475 26.4225 23.48C26.46 23.4575 26.4901 23.435 26.5049 23.3975C27.0824 22.7975 27.555 22.145 27.9 21.4475C27.9751 21.2975 28.0425 21.1475 28.11 20.99L28.1475 20.8775C28.1849 20.78 28.2224 20.6825 28.2524 20.585H36.7274C38.115 20.585 39.24 19.46 39.24 18.0725C39.2401 16.685 38.1151 15.56 36.7275 15.56ZM5.5124 19.835C4.5449 19.835 3.75 19.0475 3.75 18.0725C3.75 17.0975 4.5449 16.31 5.5124 16.31H13.7474C13.6125 16.8875 13.5449 17.48 13.5449 18.065C13.5449 18.665 13.6125 19.2575 13.7474 19.835H5.5124ZM26.1224 15.56L26.2725 14.6975L26.46 13.6775C26.7149 14 26.9549 14.3375 27.1574 14.6975C27.225 14.8175 27.2923 14.945 27.3524 15.0725L26.2574 15.56L26.1073 15.6275L26.1224 15.56ZM21.8099 20.585L21.12 20.87L20.4301 20.585L19.1326 20.0525L19.0425 19.835L18.3075 18.065L19.0349 16.31L19.1326 16.0775L20.3925 15.56L21.12 15.26L21.8474 15.56L23.1074 16.0775L23.205 16.31L23.9325 18.065L23.1975 19.835L23.1074 20.0525L21.8099 20.585ZM22.9349 20.855L22.8375 21.4475L22.7474 22.0175L21.9674 21.4475L21.7949 21.32L22.9349 20.855ZM20.445 21.305L20.25 21.4475L19.485 21.995L19.4023 21.4475L19.305 20.8325L20.445 21.305ZM17.5499 18.065L16.5148 19.4825L14.46 18.065L16.5148 16.6475L17.5499 18.065ZM17.1674 16.445L18.0749 16.31L18.33 16.2725L18.3149 16.31L17.8651 17.39L17.1674 16.445ZM17.8799 18.74L18.33 19.835L18.345 19.8725L18.1125 19.835L17.1825 19.685L17.8799 18.74ZM19.3125 15.275L19.4023 14.6975L19.5 14.1125L20.3026 14.6975L20.4524 14.81L19.3125 15.275ZM21.7949 14.825L21.9751 14.6975L22.7549 14.135L22.845 14.6975L22.9349 15.2975L21.7949 14.825ZM23.8949 16.2575L24.225 16.31L25.0649 16.445L24.375 17.39L23.9174 16.31L23.8949 16.2575ZM23.9099 19.835L24.3825 18.7325L25.0799 19.685L24.1349 19.835L23.8948 19.8725L23.9099 19.835ZM24.6975 18.065L25.7324 16.6475L27.7726 18.065L25.7324 19.4825L24.6975 18.065ZM25.5974 14.6975L25.4399 15.56L25.3949 15.8L23.8799 15.56L23.6475 15.5225L23.5199 14.6975L23.385 13.7975L25.8375 13.355L25.5974 14.6975ZM24.0376 11.795C24.5774 12.065 25.065 12.3725 25.5076 12.7325L23.5425 13.085L24.0376 11.795ZM23.4 11.5475L22.9126 12.815L21.7726 11.195C22.3125 11.255 22.86 11.3675 23.4 11.5475ZM21.1198 11.4125L22.5375 13.445L21.1198 14.495L19.71 13.46L21.1198 11.4125ZM20.4523 11.18L19.305 12.845L18.735 11.5775C19.305 11.3675 19.8825 11.24 20.4523 11.18ZM18.1274 11.84L18.6825 13.085L16.7324 12.7325C17.1749 12.3875 17.6397 12.0875 18.1274 11.84ZM18.8624 13.7975L18.7199 14.6975L18.5923 15.5375L18.4498 15.56L16.8524 15.8075L16.8073 15.56L16.6498 14.6975L16.4098 13.355L18.8624 13.7975ZM15.0974 14.6975C15.2999 14.3375 15.5325 14 15.7875 13.685L15.9673 14.6975L16.125 15.56L16.1398 15.65L15.9074 15.56L14.8423 15.155C14.9249 14.9975 15.0075 14.8475 15.0974 14.6975ZM14.4523 16.31C14.4973 16.13 14.5499 15.9575 14.61 15.7775L15.885 16.2725L15.8324 16.31L14.2575 17.4125C14.2876 17.045 14.3549 16.6775 14.4523 16.31ZM14.445 19.835C14.3474 19.46 14.2798 19.0925 14.2425 18.7175L15.8474 19.835L15.8924 19.865L14.6249 20.4275C14.5574 20.225 14.4974 20.03 14.445 19.835ZM16.125 20.585L15.9673 21.4475L15.7875 22.4525C15.5249 22.1375 15.2999 21.8075 15.0974 21.4475C15.0225 21.32 14.9625 21.1925 14.8949 21.0575L15.9523 20.585L16.1398 20.5025L16.125 20.585ZM16.65 21.4475L16.8075 20.585L16.8525 20.3225L18.4574 20.585L18.5923 20.6075L18.7274 21.4475L18.8622 22.3325L16.4098 22.775L16.65 21.4475ZM18.21 24.335C17.6625 24.065 17.1824 23.7575 16.7323 23.3975L18.7049 23.045L18.21 24.335ZM18.8474 24.5825L19.3273 23.315L20.46 24.935C19.9349 24.8825 19.3799 24.7625 18.8474 24.5825ZM19.71 22.685L21.1198 21.635L22.5375 22.67L21.1198 24.7175L19.71 22.685ZM21.7949 24.95L22.9424 23.285L23.5049 24.5525C22.9349 24.7625 22.3574 24.89 21.7949 24.95ZM24.1124 24.29L23.5649 23.045L25.5148 23.3975C25.1025 23.7275 24.6299 24.0275 24.1124 24.29ZM23.385 22.3325L23.5199 21.4475L23.6475 20.5925L23.6924 20.585L25.3949 20.3225L25.4399 20.585L25.5974 21.4475L25.8375 22.775L23.385 22.3325ZM27.1425 21.4475C26.94 21.8 26.7149 22.1375 26.4601 22.445L26.2726 21.4475L26.1225 20.585L26.1075 20.48L26.3776 20.585L27.3977 20.975C27.315 21.14 27.2324 21.2975 27.1425 21.4475ZM27.7876 19.835C27.7426 20.0075 27.69 20.18 27.6299 20.3525L26.3549 19.8575L26.3849 19.835L27.9823 18.7175C27.96 19.0925 27.8925 19.4675 27.7876 19.835ZM26.415 16.31L26.3474 16.265L27.615 15.7025C27.6899 15.905 27.7499 16.1075 27.7948 16.31C27.8999 16.6775 27.96 17.045 27.9973 17.405L26.415 16.31ZM36.7275 19.835H28.485C28.6275 19.25 28.7023 18.6575 28.7023 18.065C28.7023 17.465 28.6349 16.88 28.4925 16.31H36.7275C37.695 16.31 38.4901 17.0975 38.4901 18.0725C38.4901 19.0475 37.695 19.835 36.7275 19.835Z" fill="black" fill-opacity="0.2"/>
<path d="M36.7275 15.56H28.275C28.23 15.4175 28.1776 15.275 28.1175 15.14V15.1025C28.0574 14.9675 27.9974 14.8325 27.9225 14.6975C27.5625 13.9775 27.0974 13.325 26.5199 12.74L26.4673 12.695C25.7548 12.005 24.9375 11.4575 24.0225 11.0675L23.9925 11.045H23.9399C22.0574 10.295 19.9949 10.3325 18.195 11.075L18.1575 11.0825C17.2726 11.45 16.5 11.975 15.8099 12.6575L15.7425 12.725C15.1725 13.31 14.6923 13.97 14.3398 14.6975C14.2574 14.8475 14.1824 15.005 14.115 15.1625L14.0923 15.1925V15.2525C14.0549 15.35 14.0099 15.455 13.9799 15.56H5.5124C4.125 15.56 3 16.685 3 18.0725C3 19.46 4.125 20.585 5.5124 20.585H13.9724C14.0174 20.72 14.07 20.855 14.1224 20.99L14.1299 21.0275C14.19 21.17 14.2575 21.3125 14.3324 21.4475C14.6849 22.16 15.15 22.805 15.7125 23.39L15.7575 23.435L15.8025 23.465C16.5075 24.1475 17.3173 24.6875 18.24 25.0775C18.2548 25.0925 18.2774 25.1 18.2999 25.1C19.1924 25.4675 20.1449 25.6475 21.1049 25.6475C22.1325 25.6475 23.1224 25.445 24.0525 25.055L24.0898 25.0475C24.9672 24.6725 25.7549 24.1475 26.4225 23.48C26.46 23.4575 26.4901 23.435 26.5049 23.3975C27.0824 22.7975 27.555 22.145 27.9 21.4475C27.9751 21.2975 28.0425 21.1475 28.11 20.99L28.1475 20.8775C28.1849 20.78 28.2224 20.6825 28.2524 20.585H36.7274C38.115 20.585 39.24 19.46 39.24 18.0725C39.2401 16.685 38.1151 15.56 36.7275 15.56ZM5.5124 19.835C4.5449 19.835 3.75 19.0475 3.75 18.0725C3.75 17.0975 4.5449 16.31 5.5124 16.31H13.7474C13.6125 16.8875 13.5449 17.48 13.5449 18.065C13.5449 18.665 13.6125 19.2575 13.7474 19.835H5.5124ZM26.1224 15.56L26.2725 14.6975L26.46 13.6775C26.7149 14 26.9549 14.3375 27.1574 14.6975C27.225 14.8175 27.2923 14.945 27.3524 15.0725L26.2574 15.56L26.1073 15.6275L26.1224 15.56ZM21.8099 20.585L21.12 20.87L20.4301 20.585L19.1326 20.0525L19.0425 19.835L18.3075 18.065L19.0349 16.31L19.1326 16.0775L20.3925 15.56L21.12 15.26L21.8474 15.56L23.1074 16.0775L23.205 16.31L23.9325 18.065L23.1975 19.835L23.1074 20.0525L21.8099 20.585ZM22.9349 20.855L22.8375 21.4475L22.7474 22.0175L21.9674 21.4475L21.7949 21.32L22.9349 20.855ZM20.445 21.305L20.25 21.4475L19.485 21.995L19.4023 21.4475L19.305 20.8325L20.445 21.305ZM17.5499 18.065L16.5148 19.4825L14.46 18.065L16.5148 16.6475L17.5499 18.065ZM17.1674 16.445L18.0749 16.31L18.33 16.2725L18.3149 16.31L17.8651 17.39L17.1674 16.445ZM17.8799 18.74L18.33 19.835L18.345 19.8725L18.1125 19.835L17.1825 19.685L17.8799 18.74ZM19.3125 15.275L19.4023 14.6975L19.5 14.1125L20.3026 14.6975L20.4524 14.81L19.3125 15.275ZM21.7949 14.825L21.9751 14.6975L22.7549 14.135L22.845 14.6975L22.9349 15.2975L21.7949 14.825ZM23.8949 16.2575L24.225 16.31L25.0649 16.445L24.375 17.39L23.9174 16.31L23.8949 16.2575ZM23.9099 19.835L24.3825 18.7325L25.0799 19.685L24.1349 19.835L23.8948 19.8725L23.9099 19.835ZM24.6975 18.065L25.7324 16.6475L27.7726 18.065L25.7324 19.4825L24.6975 18.065ZM25.5974 14.6975L25.4399 15.56L25.3949 15.8L23.8799 15.56L23.6475 15.5225L23.5199 14.6975L23.385 13.7975L25.8375 13.355L25.5974 14.6975ZM24.0376 11.795C24.5774 12.065 25.065 12.3725 25.5076 12.7325L23.5425 13.085L24.0376 11.795ZM23.4 11.5475L22.9126 12.815L21.7726 11.195C22.3125 11.255 22.86 11.3675 23.4 11.5475ZM21.1198 11.4125L22.5375 13.445L21.1198 14.495L19.71 13.46L21.1198 11.4125ZM20.4523 11.18L19.305 12.845L18.735 11.5775C19.305 11.3675 19.8825 11.24 20.4523 11.18ZM18.1274 11.84L18.6825 13.085L16.7324 12.7325C17.1749 12.3875 17.6397 12.0875 18.1274 11.84ZM18.8624 13.7975L18.7199 14.6975L18.5923 15.5375L18.4498 15.56L16.8524 15.8075L16.8073 15.56L16.6498 14.6975L16.4098 13.355L18.8624 13.7975ZM15.0974 14.6975C15.2999 14.3375 15.5325 14 15.7875 13.685L15.9673 14.6975L16.125 15.56L16.1398 15.65L15.9074 15.56L14.8423 15.155C14.9249 14.9975 15.0075 14.8475 15.0974 14.6975ZM14.4523 16.31C14.4973 16.13 14.5499 15.9575 14.61 15.7775L15.885 16.2725L15.8324 16.31L14.2575 17.4125C14.2876 17.045 14.3549 16.6775 14.4523 16.31ZM14.445 19.835C14.3474 19.46 14.2798 19.0925 14.2425 18.7175L15.8474 19.835L15.8924 19.865L14.6249 20.4275C14.5574 20.225 14.4974 20.03 14.445 19.835ZM16.125 20.585L15.9673 21.4475L15.7875 22.4525C15.5249 22.1375 15.2999 21.8075 15.0974 21.4475C15.0225 21.32 14.9625 21.1925 14.8949 21.0575L15.9523 20.585L16.1398 20.5025L16.125 20.585ZM16.65 21.4475L16.8075 20.585L16.8525 20.3225L18.4574 20.585L18.5923 20.6075L18.7274 21.4475L18.8622 22.3325L16.4098 22.775L16.65 21.4475ZM18.21 24.335C17.6625 24.065 17.1824 23.7575 16.7323 23.3975L18.7049 23.045L18.21 24.335ZM18.8474 24.5825L19.3273 23.315L20.46 24.935C19.9349 24.8825 19.3799 24.7625 18.8474 24.5825ZM19.71 22.685L21.1198 21.635L22.5375 22.67L21.1198 24.7175L19.71 22.685ZM21.7949 24.95L22.9424 23.285L23.5049 24.5525C22.9349 24.7625 22.3574 24.89 21.7949 24.95ZM24.1124 24.29L23.5649 23.045L25.5148 23.3975C25.1025 23.7275 24.6299 24.0275 24.1124 24.29ZM23.385 22.3325L23.5199 21.4475L23.6475 20.5925L23.6924 20.585L25.3949 20.3225L25.4399 20.585L25.5974 21.4475L25.8375 22.775L23.385 22.3325ZM27.1425 21.4475C26.94 21.8 26.7149 22.1375 26.4601 22.445L26.2726 21.4475L26.1225 20.585L26.1075 20.48L26.3776 20.585L27.3977 20.975C27.315 21.14 27.2324 21.2975 27.1425 21.4475ZM27.7876 19.835C27.7426 20.0075 27.69 20.18 27.6299 20.3525L26.3549 19.8575L26.3849 19.835L27.9823 18.7175C27.96 19.0925 27.8925 19.4675 27.7876 19.835ZM26.415 16.31L26.3474 16.265L27.615 15.7025C27.6899 15.905 27.7499 16.1075 27.7948 16.31C27.8999 16.6775 27.96 17.045 27.9973 17.405L26.415 16.31ZM36.7275 19.835H28.485C28.6275 19.25 28.7023 18.6575 28.7023 18.065C28.7023 17.465 28.6349 16.88 28.4925 16.31H36.7275C37.695 16.31 38.4901 17.0975 38.4901 18.0725C38.4901 19.0475 37.695 19.835 36.7275 19.835Z" fill="black" fill-opacity="0.2"/>
<path d="M36.7275 15.56H28.275C28.23 15.4175 28.1776 15.275 28.1175 15.14V15.1025C28.0574 14.9675 27.9974 14.8325 27.9225 14.6975C27.5625 13.9775 27.0974 13.325 26.5199 12.74L26.4673 12.695C25.7548 12.005 24.9375 11.4575 24.0225 11.0675L23.9925 11.045H23.9399C22.0574 10.295 19.9949 10.3325 18.195 11.075L18.1575 11.0825C17.2726 11.45 16.5 11.975 15.8099 12.6575L15.7425 12.725C15.1725 13.31 14.6923 13.97 14.3398 14.6975C14.2574 14.8475 14.1824 15.005 14.115 15.1625L14.0923 15.1925V15.2525C14.0549 15.35 14.0099 15.455 13.9799 15.56H5.5124C4.125 15.56 3 16.685 3 18.0725C3 19.46 4.125 20.585 5.5124 20.585H13.9724C14.0174 20.72 14.07 20.855 14.1224 20.99L14.1299 21.0275C14.19 21.17 14.2575 21.3125 14.3324 21.4475C14.6849 22.16 15.15 22.805 15.7125 23.39L15.7575 23.435L15.8025 23.465C16.5075 24.1475 17.3173 24.6875 18.24 25.0775C18.2548 25.0925 18.2774 25.1 18.2999 25.1C19.1924 25.4675 20.1449 25.6475 21.1049 25.6475C22.1325 25.6475 23.1224 25.445 24.0525 25.055L24.0898 25.0475C24.9672 24.6725 25.7549 24.1475 26.4225 23.48C26.46 23.4575 26.4901 23.435 26.5049 23.3975C27.0824 22.7975 27.555 22.145 27.9 21.4475C27.9751 21.2975 28.0425 21.1475 28.11 20.99L28.1475 20.8775C28.1849 20.78 28.2224 20.6825 28.2524 20.585H36.7274C38.115 20.585 39.24 19.46 39.24 18.0725C39.2401 16.685 38.1151 15.56 36.7275 15.56ZM5.5124 19.835C4.5449 19.835 3.75 19.0475 3.75 18.0725C3.75 17.0975 4.5449 16.31 5.5124 16.31H13.7474C13.6125 16.8875 13.5449 17.48 13.5449 18.065C13.5449 18.665 13.6125 19.2575 13.7474 19.835H5.5124ZM26.1224 15.56L26.2725 14.6975L26.46 13.6775C26.7149 14 26.9549 14.3375 27.1574 14.6975C27.225 14.8175 27.2923 14.945 27.3524 15.0725L26.2574 15.56L26.1073 15.6275L26.1224 15.56ZM21.8099 20.585L21.12 20.87L20.4301 20.585L19.1326 20.0525L19.0425 19.835L18.3075 18.065L19.0349 16.31L19.1326 16.0775L20.3925 15.56L21.12 15.26L21.8474 15.56L23.1074 16.0775L23.205 16.31L23.9325 18.065L23.1975 19.835L23.1074 20.0525L21.8099 20.585ZM22.9349 20.855L22.8375 21.4475L22.7474 22.0175L21.9674 21.4475L21.7949 21.32L22.9349 20.855ZM20.445 21.305L20.25 21.4475L19.485 21.995L19.4023 21.4475L19.305 20.8325L20.445 21.305ZM17.5499 18.065L16.5148 19.4825L14.46 18.065L16.5148 16.6475L17.5499 18.065ZM17.1674 16.445L18.0749 16.31L18.33 16.2725L18.3149 16.31L17.8651 17.39L17.1674 16.445ZM17.8799 18.74L18.33 19.835L18.345 19.8725L18.1125 19.835L17.1825 19.685L17.8799 18.74ZM19.3125 15.275L19.4023 14.6975L19.5 14.1125L20.3026 14.6975L20.4524 14.81L19.3125 15.275ZM21.7949 14.825L21.9751 14.6975L22.7549 14.135L22.845 14.6975L22.9349 15.2975L21.7949 14.825ZM23.8949 16.2575L24.225 16.31L25.0649 16.445L24.375 17.39L23.9174 16.31L23.8949 16.2575ZM23.9099 19.835L24.3825 18.7325L25.0799 19.685L24.1349 19.835L23.8948 19.8725L23.9099 19.835ZM24.6975 18.065L25.7324 16.6475L27.7726 18.065L25.7324 19.4825L24.6975 18.065ZM25.5974 14.6975L25.4399 15.56L25.3949 15.8L23.8799 15.56L23.6475 15.5225L23.5199 14.6975L23.385 13.7975L25.8375 13.355L25.5974 14.6975ZM24.0376 11.795C24.5774 12.065 25.065 12.3725 25.5076 12.7325L23.5425 13.085L24.0376 11.795ZM23.4 11.5475L22.9126 12.815L21.7726 11.195C22.3125 11.255 22.86 11.3675 23.4 11.5475ZM21.1198 11.4125L22.5375 13.445L21.1198 14.495L19.71 13.46L21.1198 11.4125ZM20.4523 11.18L19.305 12.845L18.735 11.5775C19.305 11.3675 19.8825 11.24 20.4523 11.18ZM18.1274 11.84L18.6825 13.085L16.7324 12.7325C17.1749 12.3875 17.6397 12.0875 18.1274 11.84ZM18.8624 13.7975L18.7199 14.6975L18.5923 15.5375L18.4498 15.56L16.8524 15.8075L16.8073 15.56L16.6498 14.6975L16.4098 13.355L18.8624 13.7975ZM15.0974 14.6975C15.2999 14.3375 15.5325 14 15.7875 13.685L15.9673 14.6975L16.125 15.56L16.1398 15.65L15.9074 15.56L14.8423 15.155C14.9249 14.9975 15.0075 14.8475 15.0974 14.6975ZM14.4523 16.31C14.4973 16.13 14.5499 15.9575 14.61 15.7775L15.885 16.2725L15.8324 16.31L14.2575 17.4125C14.2876 17.045 14.3549 16.6775 14.4523 16.31ZM14.445 19.835C14.3474 19.46 14.2798 19.0925 14.2425 18.7175L15.8474 19.835L15.8924 19.865L14.6249 20.4275C14.5574 20.225 14.4974 20.03 14.445 19.835ZM16.125 20.585L15.9673 21.4475L15.7875 22.4525C15.5249 22.1375 15.2999 21.8075 15.0974 21.4475C15.0225 21.32 14.9625 21.1925 14.8949 21.0575L15.9523 20.585L16.1398 20.5025L16.125 20.585ZM16.65 21.4475L16.8075 20.585L16.8525 20.3225L18.4574 20.585L18.5923 20.6075L18.7274 21.4475L18.8622 22.3325L16.4098 22.775L16.65 21.4475ZM18.21 24.335C17.6625 24.065 17.1824 23.7575 16.7323 23.3975L18.7049 23.045L18.21 24.335ZM18.8474 24.5825L19.3273 23.315L20.46 24.935C19.9349 24.8825 19.3799 24.7625 18.8474 24.5825ZM19.71 22.685L21.1198 21.635L22.5375 22.67L21.1198 24.7175L19.71 22.685ZM21.7949 24.95L22.9424 23.285L23.5049 24.5525C22.9349 24.7625 22.3574 24.89 21.7949 24.95ZM24.1124 24.29L23.5649 23.045L25.5148 23.3975C25.1025 23.7275 24.6299 24.0275 24.1124 24.29ZM23.385 22.3325L23.5199 21.4475L23.6475 20.5925L23.6924 20.585L25.3949 20.3225L25.4399 20.585L25.5974 21.4475L25.8375 22.775L23.385 22.3325ZM27.1425 21.4475C26.94 21.8 26.7149 22.1375 26.4601 22.445L26.2726 21.4475L26.1225 20.585L26.1075 20.48L26.3776 20.585L27.3977 20.975C27.315 21.14 27.2324 21.2975 27.1425 21.4475ZM27.7876 19.835C27.7426 20.0075 27.69 20.18 27.6299 20.3525L26.3549 19.8575L26.3849 19.835L27.9823 18.7175C27.96 19.0925 27.8925 19.4675 27.7876 19.835ZM26.415 16.31L26.3474 16.265L27.615 15.7025C27.6899 15.905 27.7499 16.1075 27.7948 16.31C27.8999 16.6775 27.96 17.045 27.9973 17.405L26.415 16.31ZM36.7275 19.835H28.485C28.6275 19.25 28.7023 18.6575 28.7023 18.065C28.7023 17.465 28.6349 16.88 28.4925 16.31H36.7275C37.695 16.31 38.4901 17.0975 38.4901 18.0725C38.4901 19.0475 37.695 19.835 36.7275 19.835Z" fill="black" fill-opacity="0.2"/>
<path d="M36.7275 15.56H28.275C28.23 15.4175 28.1776 15.275 28.1175 15.14V15.1025C28.0574 14.9675 27.9974 14.8325 27.9225 14.6975C27.5625 13.9775 27.0974 13.325 26.5199 12.74L26.4673 12.695C25.7548 12.005 24.9375 11.4575 24.0225 11.0675L23.9925 11.045H23.9399C22.0574 10.295 19.9949 10.3325 18.195 11.075L18.1575 11.0825C17.2726 11.45 16.5 11.975 15.8099 12.6575L15.7425 12.725C15.1725 13.31 14.6923 13.97 14.3398 14.6975C14.2574 14.8475 14.1824 15.005 14.115 15.1625L14.0923 15.1925V15.2525C14.0549 15.35 14.0099 15.455 13.9799 15.56H5.5124C4.125 15.56 3 16.685 3 18.0725C3 19.46 4.125 20.585 5.5124 20.585H13.9724C14.0174 20.72 14.07 20.855 14.1224 20.99L14.1299 21.0275C14.19 21.17 14.2575 21.3125 14.3324 21.4475C14.6849 22.16 15.15 22.805 15.7125 23.39L15.7575 23.435L15.8025 23.465C16.5075 24.1475 17.3173 24.6875 18.24 25.0775C18.2548 25.0925 18.2774 25.1 18.2999 25.1C19.1924 25.4675 20.1449 25.6475 21.1049 25.6475C22.1325 25.6475 23.1224 25.445 24.0525 25.055L24.0898 25.0475C24.9672 24.6725 25.7549 24.1475 26.4225 23.48C26.46 23.4575 26.4901 23.435 26.5049 23.3975C27.0824 22.7975 27.555 22.145 27.9 21.4475C27.9751 21.2975 28.0425 21.1475 28.11 20.99L28.1475 20.8775C28.1849 20.78 28.2224 20.6825 28.2524 20.585H36.7274C38.115 20.585 39.24 19.46 39.24 18.0725C39.2401 16.685 38.1151 15.56 36.7275 15.56ZM5.5124 19.835C4.5449 19.835 3.75 19.0475 3.75 18.0725C3.75 17.0975 4.5449 16.31 5.5124 16.31H13.7474C13.6125 16.8875 13.5449 17.48 13.5449 18.065C13.5449 18.665 13.6125 19.2575 13.7474 19.835H5.5124ZM26.1224 15.56L26.2725 14.6975L26.46 13.6775C26.7149 14 26.9549 14.3375 27.1574 14.6975C27.225 14.8175 27.2923 14.945 27.3524 15.0725L26.2574 15.56L26.1073 15.6275L26.1224 15.56ZM21.8099 20.585L21.12 20.87L20.4301 20.585L19.1326 20.0525L19.0425 19.835L18.3075 18.065L19.0349 16.31L19.1326 16.0775L20.3925 15.56L21.12 15.26L21.8474 15.56L23.1074 16.0775L23.205 16.31L23.9325 18.065L23.1975 19.835L23.1074 20.0525L21.8099 20.585ZM22.9349 20.855L22.8375 21.4475L22.7474 22.0175L21.9674 21.4475L21.7949 21.32L22.9349 20.855ZM20.445 21.305L20.25 21.4475L19.485 21.995L19.4023 21.4475L19.305 20.8325L20.445 21.305ZM17.5499 18.065L16.5148 19.4825L14.46 18.065L16.5148 16.6475L17.5499 18.065ZM17.1674 16.445L18.0749 16.31L18.33 16.2725L18.3149 16.31L17.8651 17.39L17.1674 16.445ZM17.8799 18.74L18.33 19.835L18.345 19.8725L18.1125 19.835L17.1825 19.685L17.8799 18.74ZM19.3125 15.275L19.4023 14.6975L19.5 14.1125L20.3026 14.6975L20.4524 14.81L19.3125 15.275ZM21.7949 14.825L21.9751 14.6975L22.7549 14.135L22.845 14.6975L22.9349 15.2975L21.7949 14.825ZM23.8949 16.2575L24.225 16.31L25.0649 16.445L24.375 17.39L23.9174 16.31L23.8949 16.2575ZM23.9099 19.835L24.3825 18.7325L25.0799 19.685L24.1349 19.835L23.8948 19.8725L23.9099 19.835ZM24.6975 18.065L25.7324 16.6475L27.7726 18.065L25.7324 19.4825L24.6975 18.065ZM25.5974 14.6975L25.4399 15.56L25.3949 15.8L23.8799 15.56L23.6475 15.5225L23.5199 14.6975L23.385 13.7975L25.8375 13.355L25.5974 14.6975ZM24.0376 11.795C24.5774 12.065 25.065 12.3725 25.5076 12.7325L23.5425 13.085L24.0376 11.795ZM23.4 11.5475L22.9126 12.815L21.7726 11.195C22.3125 11.255 22.86 11.3675 23.4 11.5475ZM21.1198 11.4125L22.5375 13.445L21.1198 14.495L19.71 13.46L21.1198 11.4125ZM20.4523 11.18L19.305 12.845L18.735 11.5775C19.305 11.3675 19.8825 11.24 20.4523 11.18ZM18.1274 11.84L18.6825 13.085L16.7324 12.7325C17.1749 12.3875 17.6397 12.0875 18.1274 11.84ZM18.8624 13.7975L18.7199 14.6975L18.5923 15.5375L18.4498 15.56L16.8524 15.8075L16.8073 15.56L16.6498 14.6975L16.4098 13.355L18.8624 13.7975ZM15.0974 14.6975C15.2999 14.3375 15.5325 14 15.7875 13.685L15.9673 14.6975L16.125 15.56L16.1398 15.65L15.9074 15.56L14.8423 15.155C14.9249 14.9975 15.0075 14.8475 15.0974 14.6975ZM14.4523 16.31C14.4973 16.13 14.5499 15.9575 14.61 15.7775L15.885 16.2725L15.8324 16.31L14.2575 17.4125C14.2876 17.045 14.3549 16.6775 14.4523 16.31ZM14.445 19.835C14.3474 19.46 14.2798 19.0925 14.2425 18.7175L15.8474 19.835L15.8924 19.865L14.6249 20.4275C14.5574 20.225 14.4974 20.03 14.445 19.835ZM16.125 20.585L15.9673 21.4475L15.7875 22.4525C15.5249 22.1375 15.2999 21.8075 15.0974 21.4475C15.0225 21.32 14.9625 21.1925 14.8949 21.0575L15.9523 20.585L16.1398 20.5025L16.125 20.585ZM16.65 21.4475L16.8075 20.585L16.8525 20.3225L18.4574 20.585L18.5923 20.6075L18.7274 21.4475L18.8622 22.3325L16.4098 22.775L16.65 21.4475ZM18.21 24.335C17.6625 24.065 17.1824 23.7575 16.7323 23.3975L18.7049 23.045L18.21 24.335ZM18.8474 24.5825L19.3273 23.315L20.46 24.935C19.9349 24.8825 19.3799 24.7625 18.8474 24.5825ZM19.71 22.685L21.1198 21.635L22.5375 22.67L21.1198 24.7175L19.71 22.685ZM21.7949 24.95L22.9424 23.285L23.5049 24.5525C22.9349 24.7625 22.3574 24.89 21.7949 24.95ZM24.1124 24.29L23.5649 23.045L25.5148 23.3975C25.1025 23.7275 24.6299 24.0275 24.1124 24.29ZM23.385 22.3325L23.5199 21.4475L23.6475 20.5925L23.6924 20.585L25.3949 20.3225L25.4399 20.585L25.5974 21.4475L25.8375 22.775L23.385 22.3325ZM27.1425 21.4475C26.94 21.8 26.7149 22.1375 26.4601 22.445L26.2726 21.4475L26.1225 20.585L26.1075 20.48L26.3776 20.585L27.3977 20.975C27.315 21.14 27.2324 21.2975 27.1425 21.4475ZM27.7876 19.835C27.7426 20.0075 27.69 20.18 27.6299 20.3525L26.3549 19.8575L26.3849 19.835L27.9823 18.7175C27.96 19.0925 27.8925 19.4675 27.7876 19.835ZM26.415 16.31L26.3474 16.265L27.615 15.7025C27.6899 15.905 27.7499 16.1075 27.7948 16.31C27.8999 16.6775 27.96 17.045 27.9973 17.405L26.415 16.31ZM36.7275 19.835H28.485C28.6275 19.25 28.7023 18.6575 28.7023 18.065C28.7023 17.465 28.6349 16.88 28.4925 16.31H36.7275C37.695 16.31 38.4901 17.0975 38.4901 18.0725C38.4901 19.0475 37.695 19.835 36.7275 19.835Z" fill="black" fill-opacity="0.2"/>
<path d="M36.7275 15.56H28.275C28.23 15.4175 28.1776 15.275 28.1175 15.14V15.1025C28.0574 14.9675 27.9974 14.8325 27.9225 14.6975C27.5625 13.9775 27.0974 13.325 26.5199 12.74L26.4673 12.695C25.7548 12.005 24.9375 11.4575 24.0225 11.0675L23.9925 11.045H23.9399C22.0574 10.295 19.9949 10.3325 18.195 11.075L18.1575 11.0825C17.2726 11.45 16.5 11.975 15.8099 12.6575L15.7425 12.725C15.1725 13.31 14.6923 13.97 14.3398 14.6975C14.2574 14.8475 14.1824 15.005 14.115 15.1625L14.0923 15.1925V15.2525C14.0549 15.35 14.0099 15.455 13.9799 15.56H5.5124C4.125 15.56 3 16.685 3 18.0725C3 19.46 4.125 20.585 5.5124 20.585H13.9724C14.0174 20.72 14.07 20.855 14.1224 20.99L14.1299 21.0275C14.19 21.17 14.2575 21.3125 14.3324 21.4475C14.6849 22.16 15.15 22.805 15.7125 23.39L15.7575 23.435L15.8025 23.465C16.5075 24.1475 17.3173 24.6875 18.24 25.0775C18.2548 25.0925 18.2774 25.1 18.2999 25.1C19.1924 25.4675 20.1449 25.6475 21.1049 25.6475C22.1325 25.6475 23.1224 25.445 24.0525 25.055L24.0898 25.0475C24.9672 24.6725 25.7549 24.1475 26.4225 23.48C26.46 23.4575 26.4901 23.435 26.5049 23.3975C27.0824 22.7975 27.555 22.145 27.9 21.4475C27.9751 21.2975 28.0425 21.1475 28.11 20.99L28.1475 20.8775C28.1849 20.78 28.2224 20.6825 28.2524 20.585H36.7274C38.115 20.585 39.24 19.46 39.24 18.0725C39.2401 16.685 38.1151 15.56 36.7275 15.56ZM5.5124 19.835C4.5449 19.835 3.75 19.0475 3.75 18.0725C3.75 17.0975 4.5449 16.31 5.5124 16.31H13.7474C13.6125 16.8875 13.5449 17.48 13.5449 18.065C13.5449 18.665 13.6125 19.2575 13.7474 19.835H5.5124ZM26.1224 15.56L26.2725 14.6975L26.46 13.6775C26.7149 14 26.9549 14.3375 27.1574 14.6975C27.225 14.8175 27.2923 14.945 27.3524 15.0725L26.2574 15.56L26.1073 15.6275L26.1224 15.56ZM21.8099 20.585L21.12 20.87L20.4301 20.585L19.1326 20.0525L19.0425 19.835L18.3075 18.065L19.0349 16.31L19.1326 16.0775L20.3925 15.56L21.12 15.26L21.8474 15.56L23.1074 16.0775L23.205 16.31L23.9325 18.065L23.1975 19.835L23.1074 20.0525L21.8099 20.585ZM22.9349 20.855L22.8375 21.4475L22.7474 22.0175L21.9674 21.4475L21.7949 21.32L22.9349 20.855ZM20.445 21.305L20.25 21.4475L19.485 21.995L19.4023 21.4475L19.305 20.8325L20.445 21.305ZM17.5499 18.065L16.5148 19.4825L14.46 18.065L16.5148 16.6475L17.5499 18.065ZM17.1674 16.445L18.0749 16.31L18.33 16.2725L18.3149 16.31L17.8651 17.39L17.1674 16.445ZM17.8799 18.74L18.33 19.835L18.345 19.8725L18.1125 19.835L17.1825 19.685L17.8799 18.74ZM19.3125 15.275L19.4023 14.6975L19.5 14.1125L20.3026 14.6975L20.4524 14.81L19.3125 15.275ZM21.7949 14.825L21.9751 14.6975L22.7549 14.135L22.845 14.6975L22.9349 15.2975L21.7949 14.825ZM23.8949 16.2575L24.225 16.31L25.0649 16.445L24.375 17.39L23.9174 16.31L23.8949 16.2575ZM23.9099 19.835L24.3825 18.7325L25.0799 19.685L24.1349 19.835L23.8948 19.8725L23.9099 19.835ZM24.6975 18.065L25.7324 16.6475L27.7726 18.065L25.7324 19.4825L24.6975 18.065ZM25.5974 14.6975L25.4399 15.56L25.3949 15.8L23.8799 15.56L23.6475 15.5225L23.5199 14.6975L23.385 13.7975L25.8375 13.355L25.5974 14.6975ZM24.0376 11.795C24.5774 12.065 25.065 12.3725 25.5076 12.7325L23.5425 13.085L24.0376 11.795ZM23.4 11.5475L22.9126 12.815L21.7726 11.195C22.3125 11.255 22.86 11.3675 23.4 11.5475ZM21.1198 11.4125L22.5375 13.445L21.1198 14.495L19.71 13.46L21.1198 11.4125ZM20.4523 11.18L19.305 12.845L18.735 11.5775C19.305 11.3675 19.8825 11.24 20.4523 11.18ZM18.1274 11.84L18.6825 13.085L16.7324 12.7325C17.1749 12.3875 17.6397 12.0875 18.1274 11.84ZM18.8624 13.7975L18.7199 14.6975L18.5923 15.5375L18.4498 15.56L16.8524 15.8075L16.8073 15.56L16.6498 14.6975L16.4098 13.355L18.8624 13.7975ZM15.0974 14.6975C15.2999 14.3375 15.5325 14 15.7875 13.685L15.9673 14.6975L16.125 15.56L16.1398 15.65L15.9074 15.56L14.8423 15.155C14.9249 14.9975 15.0075 14.8475 15.0974 14.6975ZM14.4523 16.31C14.4973 16.13 14.5499 15.9575 14.61 15.7775L15.885 16.2725L15.8324 16.31L14.2575 17.4125C14.2876 17.045 14.3549 16.6775 14.4523 16.31ZM14.445 19.835C14.3474 19.46 14.2798 19.0925 14.2425 18.7175L15.8474 19.835L15.8924 19.865L14.6249 20.4275C14.5574 20.225 14.4974 20.03 14.445 19.835ZM16.125 20.585L15.9673 21.4475L15.7875 22.4525C15.5249 22.1375 15.2999 21.8075 15.0974 21.4475C15.0225 21.32 14.9625 21.1925 14.8949 21.0575L15.9523 20.585L16.1398 20.5025L16.125 20.585ZM16.65 21.4475L16.8075 20.585L16.8525 20.3225L18.4574 20.585L18.5923 20.6075L18.7274 21.4475L18.8622 22.3325L16.4098 22.775L16.65 21.4475ZM18.21 24.335C17.6625 24.065 17.1824 23.7575 16.7323 23.3975L18.7049 23.045L18.21 24.335ZM18.8474 24.5825L19.3273 23.315L20.46 24.935C19.9349 24.8825 19.3799 24.7625 18.8474 24.5825ZM19.71 22.685L21.1198 21.635L22.5375 22.67L21.1198 24.7175L19.71 22.685ZM21.7949 24.95L22.9424 23.285L23.5049 24.5525C22.9349 24.7625 22.3574 24.89 21.7949 24.95ZM24.1124 24.29L23.5649 23.045L25.5148 23.3975C25.1025 23.7275 24.6299 24.0275 24.1124 24.29ZM23.385 22.3325L23.5199 21.4475L23.6475 20.5925L23.6924 20.585L25.3949 20.3225L25.4399 20.585L25.5974 21.4475L25.8375 22.775L23.385 22.3325ZM27.1425 21.4475C26.94 21.8 26.7149 22.1375 26.4601 22.445L26.2726 21.4475L26.1225 20.585L26.1075 20.48L26.3776 20.585L27.3977 20.975C27.315 21.14 27.2324 21.2975 27.1425 21.4475ZM27.7876 19.835C27.7426 20.0075 27.69 20.18 27.6299 20.3525L26.3549 19.8575L26.3849 19.835L27.9823 18.7175C27.96 19.0925 27.8925 19.4675 27.7876 19.835ZM26.415 16.31L26.3474 16.265L27.615 15.7025C27.6899 15.905 27.7499 16.1075 27.7948 16.31C27.8999 16.6775 27.96 17.045 27.9973 17.405L26.415 16.31ZM36.7275 19.835H28.485C28.6275 19.25 28.7023 18.6575 28.7023 18.065C28.7023 17.465 28.6349 16.88 28.4925 16.31H36.7275C37.695 16.31 38.4901 17.0975 38.4901 18.0725C38.4901 19.0475 37.695 19.835 36.7275 19.835Z" fill="black" fill-opacity="0.2"/>
<path d="M36.7275 15.56H28.275C28.23 15.4175 28.1776 15.275 28.1175 15.14V15.1025C28.0574 14.9675 27.9974 14.8325 27.9225 14.6975C27.5625 13.9775 27.0974 13.325 26.5199 12.74L26.4673 12.695C25.7548 12.005 24.9375 11.4575 24.0225 11.0675L23.9925 11.045H23.9399C22.0574 10.295 19.9949 10.3325 18.195 11.075L18.1575 11.0825C17.2726 11.45 16.5 11.975 15.8099 12.6575L15.7425 12.725C15.1725 13.31 14.6923 13.97 14.3398 14.6975C14.2574 14.8475 14.1824 15.005 14.115 15.1625L14.0923 15.1925V15.2525C14.0549 15.35 14.0099 15.455 13.9799 15.56H5.5124C4.125 15.56 3 16.685 3 18.0725C3 19.46 4.125 20.585 5.5124 20.585H13.9724C14.0174 20.72 14.07 20.855 14.1224 20.99L14.1299 21.0275C14.19 21.17 14.2575 21.3125 14.3324 21.4475C14.6849 22.16 15.15 22.805 15.7125 23.39L15.7575 23.435L15.8025 23.465C16.5075 24.1475 17.3173 24.6875 18.24 25.0775C18.2548 25.0925 18.2774 25.1 18.2999 25.1C19.1924 25.4675 20.1449 25.6475 21.1049 25.6475C22.1325 25.6475 23.1224 25.445 24.0525 25.055L24.0898 25.0475C24.9672 24.6725 25.7549 24.1475 26.4225 23.48C26.46 23.4575 26.4901 23.435 26.5049 23.3975C27.0824 22.7975 27.555 22.145 27.9 21.4475C27.9751 21.2975 28.0425 21.1475 28.11 20.99L28.1475 20.8775C28.1849 20.78 28.2224 20.6825 28.2524 20.585H36.7274C38.115 20.585 39.24 19.46 39.24 18.0725C39.2401 16.685 38.1151 15.56 36.7275 15.56ZM5.5124 19.835C4.5449 19.835 3.75 19.0475 3.75 18.0725C3.75 17.0975 4.5449 16.31 5.5124 16.31H13.7474C13.6125 16.8875 13.5449 17.48 13.5449 18.065C13.5449 18.665 13.6125 19.2575 13.7474 19.835H5.5124ZM26.1224 15.56L26.2725 14.6975L26.46 13.6775C26.7149 14 26.9549 14.3375 27.1574 14.6975C27.225 14.8175 27.2923 14.945 27.3524 15.0725L26.2574 15.56L26.1073 15.6275L26.1224 15.56ZM21.8099 20.585L21.12 20.87L20.4301 20.585L19.1326 20.0525L19.0425 19.835L18.3075 18.065L19.0349 16.31L19.1326 16.0775L20.3925 15.56L21.12 15.26L21.8474 15.56L23.1074 16.0775L23.205 16.31L23.9325 18.065L23.1975 19.835L23.1074 20.0525L21.8099 20.585ZM22.9349 20.855L22.8375 21.4475L22.7474 22.0175L21.9674 21.4475L21.7949 21.32L22.9349 20.855ZM20.445 21.305L20.25 21.4475L19.485 21.995L19.4023 21.4475L19.305 20.8325L20.445 21.305ZM17.5499 18.065L16.5148 19.4825L14.46 18.065L16.5148 16.6475L17.5499 18.065ZM17.1674 16.445L18.0749 16.31L18.33 16.2725L18.3149 16.31L17.8651 17.39L17.1674 16.445ZM17.8799 18.74L18.33 19.835L18.345 19.8725L18.1125 19.835L17.1825 19.685L17.8799 18.74ZM19.3125 15.275L19.4023 14.6975L19.5 14.1125L20.3026 14.6975L20.4524 14.81L19.3125 15.275ZM21.7949 14.825L21.9751 14.6975L22.7549 14.135L22.845 14.6975L22.9349 15.2975L21.7949 14.825ZM23.8949 16.2575L24.225 16.31L25.0649 16.445L24.375 17.39L23.9174 16.31L23.8949 16.2575ZM23.9099 19.835L24.3825 18.7325L25.0799 19.685L24.1349 19.835L23.8948 19.8725L23.9099 19.835ZM24.6975 18.065L25.7324 16.6475L27.7726 18.065L25.7324 19.4825L24.6975 18.065ZM25.5974 14.6975L25.4399 15.56L25.3949 15.8L23.8799 15.56L23.6475 15.5225L23.5199 14.6975L23.385 13.7975L25.8375 13.355L25.5974 14.6975ZM24.0376 11.795C24.5774 12.065 25.065 12.3725 25.5076 12.7325L23.5425 13.085L24.0376 11.795ZM23.4 11.5475L22.9126 12.815L21.7726 11.195C22.3125 11.255 22.86 11.3675 23.4 11.5475ZM21.1198 11.4125L22.5375 13.445L21.1198 14.495L19.71 13.46L21.1198 11.4125ZM20.4523 11.18L19.305 12.845L18.735 11.5775C19.305 11.3675 19.8825 11.24 20.4523 11.18ZM18.1274 11.84L18.6825 13.085L16.7324 12.7325C17.1749 12.3875 17.6397 12.0875 18.1274 11.84ZM18.8624 13.7975L18.7199 14.6975L18.5923 15.5375L18.4498 15.56L16.8524 15.8075L16.8073 15.56L16.6498 14.6975L16.4098 13.355L18.8624 13.7975ZM15.0974 14.6975C15.2999 14.3375 15.5325 14 15.7875 13.685L15.9673 14.6975L16.125 15.56L16.1398 15.65L15.9074 15.56L14.8423 15.155C14.9249 14.9975 15.0075 14.8475 15.0974 14.6975ZM14.4523 16.31C14.4973 16.13 14.5499 15.9575 14.61 15.7775L15.885 16.2725L15.8324 16.31L14.2575 17.4125C14.2876 17.045 14.3549 16.6775 14.4523 16.31ZM14.445 19.835C14.3474 19.46 14.2798 19.0925 14.2425 18.7175L15.8474 19.835L15.8924 19.865L14.6249 20.4275C14.5574 20.225 14.4974 20.03 14.445 19.835ZM16.125 20.585L15.9673 21.4475L15.7875 22.4525C15.5249 22.1375 15.2999 21.8075 15.0974 21.4475C15.0225 21.32 14.9625 21.1925 14.8949 21.0575L15.9523 20.585L16.1398 20.5025L16.125 20.585ZM16.65 21.4475L16.8075 20.585L16.8525 20.3225L18.4574 20.585L18.5923 20.6075L18.7274 21.4475L18.8622 22.3325L16.4098 22.775L16.65 21.4475ZM18.21 24.335C17.6625 24.065 17.1824 23.7575 16.7323 23.3975L18.7049 23.045L18.21 24.335ZM18.8474 24.5825L19.3273 23.315L20.46 24.935C19.9349 24.8825 19.3799 24.7625 18.8474 24.5825ZM19.71 22.685L21.1198 21.635L22.5375 22.67L21.1198 24.7175L19.71 22.685ZM21.7949 24.95L22.9424 23.285L23.5049 24.5525C22.9349 24.7625 22.3574 24.89 21.7949 24.95ZM24.1124 24.29L23.5649 23.045L25.5148 23.3975C25.1025 23.7275 24.6299 24.0275 24.1124 24.29ZM23.385 22.3325L23.5199 21.4475L23.6475 20.5925L23.6924 20.585L25.3949 20.3225L25.4399 20.585L25.5974 21.4475L25.8375 22.775L23.385 22.3325ZM27.1425 21.4475C26.94 21.8 26.7149 22.1375 26.4601 22.445L26.2726 21.4475L26.1225 20.585L26.1075 20.48L26.3776 20.585L27.3977 20.975C27.315 21.14 27.2324 21.2975 27.1425 21.4475ZM27.7876 19.835C27.7426 20.0075 27.69 20.18 27.6299 20.3525L26.3549 19.8575L26.3849 19.835L27.9823 18.7175C27.96 19.0925 27.8925 19.4675 27.7876 19.835ZM26.415 16.31L26.3474 16.265L27.615 15.7025C27.6899 15.905 27.7499 16.1075 27.7948 16.31C27.8999 16.6775 27.96 17.045 27.9973 17.405L26.415 16.31ZM36.7275 19.835H28.485C28.6275 19.25 28.7023 18.6575 28.7023 18.065C28.7023 17.465 28.6349 16.88 28.4925 16.31H36.7275C37.695 16.31 38.4901 17.0975 38.4901 18.0725C38.4901 19.0475 37.695 19.835 36.7275 19.835Z" fill="black" fill-opacity="0.2"/>
<path d="M36.7275 15.56H28.275C28.23 15.4175 28.1776 15.275 28.1175 15.14V15.1025C28.0574 14.9675 27.9974 14.8325 27.9225 14.6975C27.5625 13.9775 27.0974 13.325 26.5199 12.74L26.4673 12.695C25.7548 12.005 24.9375 11.4575 24.0225 11.0675L23.9925 11.045H23.9399C22.0574 10.295 19.9949 10.3325 18.195 11.075L18.1575 11.0825C17.2726 11.45 16.5 11.975 15.8099 12.6575L15.7425 12.725C15.1725 13.31 14.6923 13.97 14.3398 14.6975C14.2574 14.8475 14.1824 15.005 14.115 15.1625L14.0923 15.1925V15.2525C14.0549 15.35 14.0099 15.455 13.9799 15.56H5.5124C4.125 15.56 3 16.685 3 18.0725C3 19.46 4.125 20.585 5.5124 20.585H13.9724C14.0174 20.72 14.07 20.855 14.1224 20.99L14.1299 21.0275C14.19 21.17 14.2575 21.3125 14.3324 21.4475C14.6849 22.16 15.15 22.805 15.7125 23.39L15.7575 23.435L15.8025 23.465C16.5075 24.1475 17.3173 24.6875 18.24 25.0775C18.2548 25.0925 18.2774 25.1 18.2999 25.1C19.1924 25.4675 20.1449 25.6475 21.1049 25.6475C22.1325 25.6475 23.1224 25.445 24.0525 25.055L24.0898 25.0475C24.9672 24.6725 25.7549 24.1475 26.4225 23.48C26.46 23.4575 26.4901 23.435 26.5049 23.3975C27.0824 22.7975 27.555 22.145 27.9 21.4475C27.9751 21.2975 28.0425 21.1475 28.11 20.99L28.1475 20.8775C28.1849 20.78 28.2224 20.6825 28.2524 20.585H36.7274C38.115 20.585 39.24 19.46 39.24 18.0725C39.2401 16.685 38.1151 15.56 36.7275 15.56ZM5.5124 19.835C4.5449 19.835 3.75 19.0475 3.75 18.0725C3.75 17.0975 4.5449 16.31 5.5124 16.31H13.7474C13.6125 16.8875 13.5449 17.48 13.5449 18.065C13.5449 18.665 13.6125 19.2575 13.7474 19.835H5.5124ZM26.1224 15.56L26.2725 14.6975L26.46 13.6775C26.7149 14 26.9549 14.3375 27.1574 14.6975C27.225 14.8175 27.2923 14.945 27.3524 15.0725L26.2574 15.56L26.1073 15.6275L26.1224 15.56ZM21.8099 20.585L21.12 20.87L20.4301 20.585L19.1326 20.0525L19.0425 19.835L18.3075 18.065L19.0349 16.31L19.1326 16.0775L20.3925 15.56L21.12 15.26L21.8474 15.56L23.1074 16.0775L23.205 16.31L23.9325 18.065L23.1975 19.835L23.1074 20.0525L21.8099 20.585ZM22.9349 20.855L22.8375 21.4475L22.7474 22.0175L21.9674 21.4475L21.7949 21.32L22.9349 20.855ZM20.445 21.305L20.25 21.4475L19.485 21.995L19.4023 21.4475L19.305 20.8325L20.445 21.305ZM17.5499 18.065L16.5148 19.4825L14.46 18.065L16.5148 16.6475L17.5499 18.065ZM17.1674 16.445L18.0749 16.31L18.33 16.2725L18.3149 16.31L17.8651 17.39L17.1674 16.445ZM17.8799 18.74L18.33 19.835L18.345 19.8725L18.1125 19.835L17.1825 19.685L17.8799 18.74ZM19.3125 15.275L19.4023 14.6975L19.5 14.1125L20.3026 14.6975L20.4524 14.81L19.3125 15.275ZM21.7949 14.825L21.9751 14.6975L22.7549 14.135L22.845 14.6975L22.9349 15.2975L21.7949 14.825ZM23.8949 16.2575L24.225 16.31L25.0649 16.445L24.375 17.39L23.9174 16.31L23.8949 16.2575ZM23.9099 19.835L24.3825 18.7325L25.0799 19.685L24.1349 19.835L23.8948 19.8725L23.9099 19.835ZM24.6975 18.065L25.7324 16.6475L27.7726 18.065L25.7324 19.4825L24.6975 18.065ZM25.5974 14.6975L25.4399 15.56L25.3949 15.8L23.8799 15.56L23.6475 15.5225L23.5199 14.6975L23.385 13.7975L25.8375 13.355L25.5974 14.6975ZM24.0376 11.795C24.5774 12.065 25.065 12.3725 25.5076 12.7325L23.5425 13.085L24.0376 11.795ZM23.4 11.5475L22.9126 12.815L21.7726 11.195C22.3125 11.255 22.86 11.3675 23.4 11.5475ZM21.1198 11.4125L22.5375 13.445L21.1198 14.495L19.71 13.46L21.1198 11.4125ZM20.4523 11.18L19.305 12.845L18.735 11.5775C19.305 11.3675 19.8825 11.24 20.4523 11.18ZM18.1274 11.84L18.6825 13.085L16.7324 12.7325C17.1749 12.3875 17.6397 12.0875 18.1274 11.84ZM18.8624 13.7975L18.7199 14.6975L18.5923 15.5375L18.4498 15.56L16.8524 15.8075L16.8073 15.56L16.6498 14.6975L16.4098 13.355L18.8624 13.7975ZM15.0974 14.6975C15.2999 14.3375 15.5325 14 15.7875 13.685L15.9673 14.6975L16.125 15.56L16.1398 15.65L15.9074 15.56L14.8423 15.155C14.9249 14.9975 15.0075 14.8475 15.0974 14.6975ZM14.4523 16.31C14.4973 16.13 14.5499 15.9575 14.61 15.7775L15.885 16.2725L15.8324 16.31L14.2575 17.4125C14.2876 17.045 14.3549 16.6775 14.4523 16.31ZM14.445 19.835C14.3474 19.46 14.2798 19.0925 14.2425 18.7175L15.8474 19.835L15.8924 19.865L14.6249 20.4275C14.5574 20.225 14.4974 20.03 14.445 19.835ZM16.125 20.585L15.9673 21.4475L15.7875 22.4525C15.5249 22.1375 15.2999 21.8075 15.0974 21.4475C15.0225 21.32 14.9625 21.1925 14.8949 21.0575L15.9523 20.585L16.1398 20.5025L16.125 20.585ZM16.65 21.4475L16.8075 20.585L16.8525 20.3225L18.4574 20.585L18.5923 20.6075L18.7274 21.4475L18.8622 22.3325L16.4098 22.775L16.65 21.4475ZM18.21 24.335C17.6625 24.065 17.1824 23.7575 16.7323 23.3975L18.7049 23.045L18.21 24.335ZM18.8474 24.5825L19.3273 23.315L20.46 24.935C19.9349 24.8825 19.3799 24.7625 18.8474 24.5825ZM19.71 22.685L21.1198 21.635L22.5375 22.67L21.1198 24.7175L19.71 22.685ZM21.7949 24.95L22.9424 23.285L23.5049 24.5525C22.9349 24.7625 22.3574 24.89 21.7949 24.95ZM24.1124 24.29L23.5649 23.045L25.5148 23.3975C25.1025 23.7275 24.6299 24.0275 24.1124 24.29ZM23.385 22.3325L23.5199 21.4475L23.6475 20.5925L23.6924 20.585L25.3949 20.3225L25.4399 20.585L25.5974 21.4475L25.8375 22.775L23.385 22.3325ZM27.1425 21.4475C26.94 21.8 26.7149 22.1375 26.4601 22.445L26.2726 21.4475L26.1225 20.585L26.1075 20.48L26.3776 20.585L27.3977 20.975C27.315 21.14 27.2324 21.2975 27.1425 21.4475ZM27.7876 19.835C27.7426 20.0075 27.69 20.18 27.6299 20.3525L26.3549 19.8575L26.3849 19.835L27.9823 18.7175C27.96 19.0925 27.8925 19.4675 27.7876 19.835ZM26.415 16.31L26.3474 16.265L27.615 15.7025C27.6899 15.905 27.7499 16.1075 27.7948 16.31C27.8999 16.6775 27.96 17.045 27.9973 17.405L26.415 16.31ZM36.7275 19.835H28.485C28.6275 19.25 28.7023 18.6575 28.7023 18.065C28.7023 17.465 28.6349 16.88 28.4925 16.31H36.7275C37.695 16.31 38.4901 17.0975 38.4901 18.0725C38.4901 19.0475 37.695 19.835 36.7275 19.835Z" fill="black" fill-opacity="0.2"/>
</svg>
