<svg width="42" height="36" viewBox="0 0 42 36" fill="none" xmlns="http://www.w3.org/2000/svg">
<path d="M36.6055 15.4863H5.3942C4.0081 15.4863 2.88049 16.6142 2.88049 18C2.88049 19.3858 4.0081 20.5137 5.3942 20.5137H36.6055C37.9915 20.5137 39.1195 19.3858 39.1195 18C39.1195 16.6142 37.9915 15.4863 36.6055 15.4863ZM28.3315 16.6801L28.8405 16.7719L28.7585 17.3072L28.2225 17.3888L28.1325 16.8886C28.1945 16.8137 28.2585 16.7424 28.3315 16.6801ZM30.5715 19.3141L30.0575 19.2213L30.1385 18.6861L30.6745 18.6044L30.7675 19.1166C30.7065 19.1878 30.6415 19.2534 30.5715 19.3141ZM29.4485 18.8176L28.8675 18.5772L28.6265 17.9966L28.8675 17.416L29.4485 17.1756L30.0295 17.416L30.2705 17.9966L30.0295 18.5772L29.4485 18.8176ZM29.9935 18.7405L29.9255 19.1578L29.5845 18.9083L29.9935 18.7405ZM29.3125 18.9038L28.9675 19.1533L28.9035 18.736L29.3125 18.9038ZM28.7275 19.5761C28.6355 19.5337 28.5465 19.4856 28.4635 19.4282L28.8085 19.3664L28.7275 19.5761ZM28.3255 19.3142C28.2555 19.2536 28.1905 19.1882 28.1295 19.1171L28.2225 18.6045L28.7585 18.6907L28.8405 19.2214L28.3255 19.3142ZM27.7125 17.9978C27.7125 17.9484 27.7285 17.9013 27.7325 17.8522L28.1545 17.5612L28.4725 17.9966L28.1545 18.4321L27.7265 18.1364C27.7225 18.0899 27.7125 18.0453 27.7125 17.9978ZM28.5365 17.8606L28.2865 17.5204L28.7035 17.4569L28.5365 17.8606ZM28.5405 18.1327L28.7085 18.5409L28.2905 18.4729L28.5405 18.1327ZM28.0165 18.9789C27.9625 18.9004 27.9185 18.8155 27.8785 18.7285L28.0775 18.6407L28.0165 18.9789ZM28.9035 17.2527L28.9715 16.8354L29.3125 17.0849L28.9035 17.2527ZM29.5845 17.0894L29.9305 16.84L29.9935 17.2573L29.5845 17.0894ZM30.1885 17.4523L30.6065 17.5203L30.3615 17.8605L30.1885 17.4523ZM30.6115 18.4729L30.1885 18.5409L30.3615 18.1327L30.6115 18.4729ZM30.8205 18.6362L31.0265 18.7157C30.9845 18.8073 30.9375 18.8962 30.8815 18.9785L30.8205 18.6362ZM30.7425 18.4321L30.4255 17.9966L30.7425 17.5612L31.1655 17.8526C31.1695 17.9016 31.1855 17.9484 31.1855 17.9978C31.1855 18.0451 31.1755 18.0896 31.1725 18.136L30.7425 18.4321ZM31.1395 17.6708L30.8695 17.4841L31.0625 17.3984C31.0965 17.4874 31.1205 17.5771 31.1395 17.6708ZM30.9185 17.0823C30.9555 17.1412 30.9745 17.2087 31.0045 17.2714L30.8205 17.3526L30.8785 17.0326C30.8895 17.0505 30.9065 17.0638 30.9185 17.0823ZM30.7645 16.8928L30.6745 17.3887L30.1385 17.3025L30.0575 16.7718L30.5605 16.681C30.6355 16.7447 30.7005 16.8167 30.7645 16.8928ZM30.0895 16.6267L30.1645 16.4318C30.2495 16.4712 30.3305 16.5169 30.4085 16.5695L30.0895 16.6267ZM29.9615 16.5723L29.7745 16.3051C29.8645 16.3227 29.9495 16.3486 30.0345 16.3798L29.9615 16.5723ZM29.8845 16.6994L29.4485 17.0214L29.0125 16.7039L29.3055 16.2806C29.3535 16.2767 29.3985 16.2627 29.4465 16.2627C29.4975 16.2627 29.5445 16.2774 29.5935 16.2817L29.8845 16.6994ZM28.9315 16.5769L28.8445 16.3835C28.9345 16.3502 29.0245 16.3224 29.1195 16.3043L28.9315 16.5769ZM28.8035 16.6267L28.4835 16.5688C28.5585 16.5176 28.6365 16.4722 28.7185 16.4336L28.8035 16.6267ZM28.0775 17.3571L27.8865 17.2834C27.9175 17.215 27.9375 17.1424 27.9785 17.0779C27.9895 17.0595 28.0065 17.0464 28.0185 17.0286L28.0775 17.3571ZM28.0275 17.484L27.7585 17.6723C27.7755 17.5817 27.7985 17.4942 27.8305 17.4073L28.0275 17.484ZM27.7435 18.3125L28.0275 18.5092L27.8255 18.5994C27.7905 18.5066 27.7625 18.4118 27.7435 18.3125ZM28.9355 19.4209L29.1355 19.7057C29.0395 19.6881 28.9475 19.6598 28.8575 19.627L28.9355 19.4209ZM29.0125 19.2939L29.4485 18.9719L29.8845 19.2894L29.5845 19.7235C29.5385 19.7272 29.4945 19.7374 29.4465 19.7374C29.4005 19.7374 29.3575 19.7273 29.3125 19.7238L29.0125 19.2939ZM29.9665 19.4164L30.0575 19.6208C29.9645 19.6562 29.8675 19.6861 29.7675 19.7049L29.9665 19.4164ZM30.0935 19.3665L30.4335 19.4278C30.3545 19.4822 30.2695 19.5271 30.1825 19.5682L30.0935 19.3665ZM30.8695 18.5092L31.1545 18.3103C31.1365 18.4068 31.1085 18.4989 31.0755 18.5891L30.8695 18.5092ZM35.1425 17.0823C35.1805 17.1413 35.1985 17.2087 35.2285 17.2713L35.0435 17.3526L35.1015 17.0323C35.1135 17.0503 35.1315 17.0637 35.1425 17.0823ZM35.4095 17.9978C35.4095 18.0451 35.3995 18.0897 35.3955 18.1361L34.9665 18.4321L34.6495 17.9966L34.9665 17.5612L35.3895 17.8525C35.3935 17.9015 35.4095 17.9482 35.4095 17.9978ZM34.7945 19.3141L34.2815 19.2214L34.3625 18.6862L34.8985 18.6045L34.9915 19.1166C34.9315 19.1878 34.8655 19.2534 34.7945 19.3141ZM32.5555 16.6801L33.0645 16.7719L32.9825 17.3072L32.4465 17.3888L32.3565 16.8883C32.4185 16.8136 32.4825 16.7423 32.5555 16.6801ZM34.4125 17.4523L34.8305 17.5203L34.5855 17.8605L34.4125 17.4523ZM34.8355 18.4729L34.4125 18.5409L34.5855 18.1327L34.8355 18.4729ZM34.4945 17.9966L34.2535 18.5772L33.6725 18.8176L33.0915 18.5772L32.8505 17.9966L33.0915 17.416L33.6725 17.1756L34.2535 17.416L34.4945 17.9966ZM34.2175 18.7405L34.1495 19.1578L33.8095 18.9083L34.2175 18.7405ZM33.5365 18.9038L33.1915 19.1533L33.1275 18.736L33.5365 18.9038ZM32.9515 19.5761C32.8595 19.5337 32.7705 19.4857 32.6875 19.4283L33.0325 19.3665L32.9515 19.5761ZM32.5495 19.3142C32.4795 19.2536 32.4145 19.1882 32.3545 19.1171L32.4465 18.6044L32.9825 18.6906L33.0645 19.2213L32.5495 19.3142ZM31.9355 17.9978C31.9355 17.9484 31.9525 17.9013 31.9565 17.8523L32.3785 17.5612L32.6965 17.9966L32.3785 18.4321L31.9495 18.1363C31.9465 18.0899 31.9355 18.0452 31.9355 17.9978ZM32.7595 17.8606L32.5105 17.5204L32.9275 17.4569L32.7595 17.8606ZM32.7645 18.1327L32.9325 18.5409L32.5145 18.4729L32.7645 18.1327ZM32.2405 18.9791C32.1865 18.9006 32.1425 18.8156 32.1015 18.7286L32.3015 18.6408L32.2405 18.9791ZM33.1275 17.2527L33.1955 16.8354L33.5365 17.0849L33.1275 17.2527ZM33.8095 17.0894L34.1545 16.84L34.2175 17.2573L33.8095 17.0894ZM34.1855 16.5723L33.9985 16.3051C34.0885 16.3227 34.1735 16.3486 34.2585 16.3798L34.1855 16.5723ZM34.1085 16.6994L33.6725 17.0214L33.2365 16.7039L33.5295 16.2807C33.5775 16.2768 33.6225 16.2628 33.6715 16.2628C33.7215 16.2628 33.7685 16.2775 33.8175 16.2818L34.1085 16.6994ZM33.1555 16.5769L33.0685 16.3836C33.1585 16.3503 33.2485 16.3225 33.3425 16.3043L33.1555 16.5769ZM33.0275 16.6267L32.7075 16.5689C32.7825 16.5177 32.8605 16.4723 32.9425 16.4338L33.0275 16.6267ZM32.3015 17.3571L32.1095 17.2833C32.1415 17.215 32.1615 17.1424 32.2015 17.0779C32.2135 17.0594 32.2305 17.0461 32.2425 17.0281L32.3015 17.3571ZM32.2515 17.484L31.9815 17.6725C31.9995 17.5818 32.0225 17.4942 32.0545 17.4073L32.2515 17.484ZM31.9675 18.3124L32.2515 18.5092L32.0495 18.5995C32.0145 18.5067 31.9855 18.4118 31.9675 18.3124ZM33.1595 19.4209L33.3595 19.7057C33.2635 19.6881 33.1715 19.6598 33.0815 19.627L33.1595 19.4209ZM33.2365 19.2939L33.6725 18.9719L34.1085 19.2894L33.8085 19.7235C33.7625 19.7272 33.7185 19.7374 33.6715 19.7374C33.6255 19.7374 33.5815 19.7273 33.5365 19.7237L33.2365 19.2939ZM34.1905 19.4164L34.2815 19.6208C34.1885 19.6562 34.0925 19.686 33.9915 19.7049L34.1905 19.4164ZM34.3175 19.3665L34.6575 19.4277C34.5785 19.4821 34.4935 19.5271 34.4065 19.5682L34.3175 19.3665ZM35.0435 18.6362L35.2505 18.7157C35.2085 18.8073 35.1615 18.8961 35.1055 18.9784L35.0435 18.6362ZM34.9885 16.8926L34.8985 17.3888L34.3625 17.3026L34.2815 16.7719L34.7845 16.6811C34.8595 16.7446 34.9245 16.8165 34.9885 16.8926ZM34.3135 16.6267L34.3885 16.4317C34.4745 16.4711 34.5545 16.5168 34.6325 16.5694L34.3135 16.6267ZM35.0935 18.5092L35.3785 18.3104C35.3605 18.4069 35.3325 18.4988 35.2995 18.5891L35.0935 18.5092ZM35.3635 17.6708L35.0945 17.4841L35.2865 17.3983C35.3205 17.4873 35.3445 17.5772 35.3635 17.6708ZM31.5665 16.6809C31.5635 16.6851 31.5615 16.6897 31.5595 16.6939C31.5575 16.6906 31.5555 16.687 31.5535 16.6838C31.4515 16.5181 31.3265 16.3711 31.1895 16.2363H31.9275C31.7935 16.37 31.6685 16.5154 31.5665 16.6809ZM27.3425 16.6809C27.3395 16.6858 27.3375 16.6913 27.3335 16.6963C27.3315 16.6923 27.3295 16.6878 27.3275 16.6838C27.2255 16.5181 27.0995 16.3711 26.9635 16.2363H27.7035C27.5695 16.37 27.4455 16.5154 27.3425 16.6809ZM6.5898 17.9978C6.5898 17.9484 6.6063 17.9013 6.6103 17.8522L7.0322 17.5612L7.3501 17.9966L7.0322 18.4321L6.60369 18.1365C6.60009 18.0899 6.5898 18.0453 6.5898 17.9978ZM6.8961 17.0285L6.95509 17.357L6.76379 17.2833C6.79529 17.2149 6.81539 17.1423 6.85609 17.0778C6.86739 17.0595 6.8842 17.0464 6.8961 17.0285ZM7.2094 16.6801L7.7179 16.7719L7.63619 17.3072L7.1003 17.3888L7.0098 16.8886C7.0725 16.8138 7.1364 16.7425 7.2094 16.6801ZM9.44879 19.3141L8.93479 19.2213L9.01659 18.6861L9.55239 18.6044L9.6451 19.1167C9.5847 19.1878 9.51969 19.2534 9.44879 19.3141ZM8.32639 18.8176L7.74519 18.5772L7.50459 17.9966L7.74519 17.416L8.32639 17.1756L8.90759 17.416L9.14839 17.9966L8.90759 18.5772L8.32639 18.8176ZM8.87129 18.7405L8.80319 19.1578L8.46259 18.9083L8.87129 18.7405ZM8.19009 18.9038L7.84509 19.1533L7.78139 18.736L8.19009 18.9038ZM7.4182 18.1327L7.5863 18.5409L7.1685 18.4729L7.4182 18.1327ZM7.4138 17.8606L7.16399 17.5204L7.5817 17.4569L7.4138 17.8606ZM7.78149 17.2527L7.84959 16.8354L8.19019 17.0849L7.78149 17.2527ZM8.46259 17.0894L8.80779 16.84L8.87129 17.2573L8.46259 17.0894ZM9.0665 17.4523L9.48429 17.5203L9.2391 17.8605L9.0665 17.4523ZM9.48889 18.4729L9.0665 18.5409L9.2392 18.1327L9.48889 18.4729ZM9.69779 18.6362L9.9043 18.7157C9.8624 18.8073 9.81549 18.8962 9.75909 18.9785L9.69779 18.6362ZM9.6206 18.4321L9.3027 17.9966L9.6206 17.5612L10.043 17.8526C10.0472 17.9016 10.0637 17.9484 10.0637 17.9978C10.0637 18.0451 10.0534 18.0896 10.0498 18.136L9.6206 18.4321ZM10.017 17.6708L9.7477 17.4841L9.93999 17.3984C9.97379 17.4874 9.9985 17.5771 10.017 17.6708ZM9.796 17.0823C9.8337 17.1412 9.852 17.2087 9.8821 17.2714L9.69789 17.3526L9.7558 17.0326C9.7676 17.0505 9.7846 17.0638 9.796 17.0823ZM9.6422 16.8928L9.5525 17.3888L9.01669 17.3026L8.9349 16.7719L9.4379 16.6811C9.5129 16.7447 9.5785 16.8167 9.6422 16.8928ZM8.9667 16.6267L9.04199 16.4318C9.12769 16.4711 9.2077 16.5169 9.2859 16.5695L8.9667 16.6267ZM8.83939 16.5723L8.6523 16.3051C8.742 16.3227 8.8273 16.3486 8.9125 16.3798L8.83939 16.5723ZM8.7624 16.6994L8.32639 17.0214L7.89059 16.7039L8.1832 16.2806C8.2308 16.2767 8.27599 16.2627 8.32459 16.2627C8.37479 16.2627 8.422 16.2774 8.4715 16.2817L8.7624 16.6994ZM7.80869 16.5769L7.7223 16.3835C7.8117 16.3502 7.9017 16.3224 7.9968 16.3043L7.80869 16.5769ZM7.68169 16.6267L7.36089 16.5688C7.43649 16.5176 7.5138 16.4722 7.5966 16.4336L7.68169 16.6267ZM6.8939 18.9789C6.8403 18.9004 6.79609 18.8155 6.75569 18.7285L6.95509 18.6407L6.8939 18.9789ZM7.0077 19.117L7.1004 18.6044L7.63629 18.6906L7.71799 19.2213L7.20349 19.3142C7.13269 19.2536 7.0677 19.1881 7.0077 19.117ZM7.6862 19.3665L7.60529 19.5761C7.51299 19.5337 7.42399 19.4856 7.34129 19.4282L7.6862 19.3665ZM7.81329 19.4209L8.01289 19.7057C7.91679 19.6881 7.82499 19.6598 7.73509 19.627L7.81329 19.4209ZM7.89059 19.2939L8.32639 18.9719L8.7624 19.2894L8.4623 19.7235C8.4162 19.7272 8.37179 19.7374 8.32459 19.7374C8.27849 19.7374 8.2351 19.7273 8.1898 19.7238L7.89059 19.2939ZM8.84399 19.4164L8.93539 19.6208C8.84179 19.6562 8.7457 19.6861 8.6452 19.7049L8.84399 19.4164ZM8.9713 19.3665L9.311 19.4278C9.2324 19.4822 9.1475 19.5272 9.0603 19.5682L8.9713 19.3665ZM9.7476 18.5092L10.0321 18.3103C10.0143 18.4068 9.98609 18.4989 9.95319 18.5892L9.7476 18.5092ZM6.9051 17.484L6.63589 17.6723C6.65349 17.5817 6.67599 17.4943 6.70799 17.4074L6.9051 17.484ZM6.6215 18.3125L6.9051 18.5092L6.703 18.5994C6.6687 18.5066 6.6398 18.4118 6.6215 18.3125ZM11.4335 16.6801L11.942 16.7719L11.8603 17.3072L11.3244 17.3888L11.2339 16.8883C11.2965 16.8136 11.3604 16.7423 11.4335 16.6801ZM13.6727 19.3141L13.1589 19.2214L13.2406 18.6862L13.7765 18.6045L13.8692 19.1166C13.8087 19.1878 13.7436 19.2534 13.6727 19.3141ZM12.5504 18.8176L11.9692 18.5772L11.7284 17.9966L11.9692 17.416L12.5504 17.1756L13.1316 17.416L13.3724 17.9966L13.1316 18.5772L12.5504 18.8176ZM13.0954 18.7405L13.0273 19.1578L12.6867 18.9083L13.0954 18.7405ZM12.4142 18.9038L12.069 19.1533L12.0055 18.736L12.4142 18.9038ZM11.8294 19.5761C11.7371 19.5337 11.6479 19.4857 11.5652 19.4283L11.9102 19.3665L11.8294 19.5761ZM11.4275 19.3142C11.3568 19.2536 11.2918 19.1882 11.2318 19.1171L11.3245 18.6044L11.8604 18.6906L11.9421 19.2213L11.4275 19.3142ZM10.8137 17.9978C10.8137 17.9484 10.8302 17.9013 10.8342 17.8523L11.2564 17.5612L11.5741 17.9966L11.2564 18.4321L10.8276 18.1363C10.8239 18.0899 10.8137 18.0452 10.8137 17.9978ZM11.6377 17.8606L11.3879 17.5204L11.8057 17.4569L11.6377 17.8606ZM11.6422 18.1327L11.8103 18.5409L11.3925 18.4729L11.6422 18.1327ZM11.118 18.9791C11.0642 18.9006 11.0202 18.8156 10.9796 18.7286L11.1792 18.6408L11.118 18.9791ZM12.0055 17.2527L12.0736 16.8354L12.4142 17.0849L12.0055 17.2527ZM12.6867 17.0894L13.0319 16.84L13.0954 17.2573L12.6867 17.0894ZM13.2905 17.4523L13.7083 17.5203L13.4631 17.8605L13.2905 17.4523ZM13.713 18.4729L13.2906 18.5409L13.4633 18.1327L13.713 18.4729ZM13.9217 18.6362L14.1282 18.7157C14.0865 18.8073 14.0396 18.8961 13.9832 18.9784L13.9217 18.6362ZM13.8446 18.4321L13.5267 17.9966L13.8446 17.5612L14.2668 17.8525C14.271 17.9015 14.2875 17.9482 14.2875 17.9978C14.2875 18.0451 14.2772 18.0897 14.2736 18.1361L13.8446 18.4321ZM14.2411 17.6708L13.9718 17.4841L14.1641 17.3983C14.1978 17.4873 14.2226 17.5771 14.2411 17.6708ZM14.0202 17.0823C14.0579 17.1413 14.0762 17.2087 14.1063 17.2713L13.9217 17.3526L13.9796 17.0323C13.9917 17.0503 14.0089 17.0637 14.0202 17.0823ZM13.8662 16.8926L13.7765 17.3888L13.2406 17.3026L13.1589 16.7719L13.6621 16.6811C13.7371 16.7446 13.8025 16.8165 13.8662 16.8926ZM13.1908 16.6267L13.2659 16.4317C13.3518 16.4711 13.432 16.5168 13.5102 16.5694L13.1908 16.6267ZM13.0635 16.5723L12.8762 16.3051C12.9659 16.3227 13.0512 16.3486 13.1366 16.3798L13.0635 16.5723ZM12.9864 16.6994L12.5504 17.0214L12.1144 16.7039L12.407 16.2807C12.455 16.2768 12.5002 16.2628 12.5487 16.2628C12.5987 16.2628 12.6461 16.2775 12.6954 16.2818L12.9864 16.6994ZM12.0328 16.5769L11.9464 16.3836C12.0358 16.3503 12.1258 16.3225 12.2207 16.3043L12.0328 16.5769ZM11.9057 16.6267L11.5849 16.5689C11.6603 16.5177 11.7378 16.4723 11.8204 16.4338L11.9057 16.6267ZM11.1792 17.3571L10.9875 17.2833C11.019 17.215 11.0391 17.1424 11.0796 17.0779C11.0911 17.0594 11.108 17.0461 11.1201 17.0281L11.1792 17.3571ZM11.1292 17.484L10.8597 17.6725C10.8775 17.5818 10.9 17.4942 10.932 17.4073L11.1292 17.484ZM10.8454 18.3124L11.1292 18.5092L10.9271 18.5994C10.8926 18.5066 10.8637 18.4118 10.8454 18.3124ZM12.0374 19.4209L12.237 19.7057C12.1409 19.6881 12.0491 19.6598 11.9592 19.627L12.0374 19.4209ZM12.1145 19.2939L12.5505 18.9719L12.9865 19.2894L12.6864 19.7235C12.6403 19.7272 12.5959 19.7374 12.5489 19.7374C12.5028 19.7374 12.4592 19.7273 12.414 19.7237L12.1145 19.2939ZM13.0681 19.4164L13.1597 19.6208C13.0659 19.6562 12.9698 19.686 12.8693 19.7049L13.0681 19.4164ZM13.1952 19.3665L13.535 19.4277C13.4564 19.4821 13.3715 19.5271 13.2843 19.5682L13.1952 19.3665ZM13.9717 18.5092L14.2561 18.3104C14.2383 18.4069 14.2101 18.4988 14.1772 18.5891L13.9717 18.5092ZM15.6576 16.6801L16.1661 16.7719L16.0843 17.3072L15.5485 17.3888L15.458 16.8886C15.5206 16.8138 15.5845 16.7425 15.6576 16.6801ZM17.8968 19.3141L17.383 19.2213L17.4647 18.6861L18.0006 18.6044L18.0933 19.1167C18.0328 19.1879 17.9676 19.2534 17.8968 19.3141ZM16.7745 18.8176L16.1933 18.5772L15.9525 17.9966L16.1933 17.416L16.7745 17.1756L17.3557 17.416L17.5963 17.9966L17.3557 18.5772L16.7745 18.8176ZM17.3194 18.7405L17.2513 19.1578L16.9107 18.9083L17.3194 18.7405ZM16.6383 18.9038L16.2931 19.1533L16.2296 18.736L16.6383 18.9038ZM16.0532 19.5762C15.9609 19.5337 15.8717 19.4857 15.789 19.4283L16.1342 19.3665L16.0532 19.5762ZM15.6513 19.3142C15.5806 19.2536 15.5158 19.1883 15.4557 19.1173L15.5484 18.6044L16.0842 18.6906L16.166 19.2213L15.6513 19.3142ZM15.0376 17.9978C15.0376 17.9484 15.0541 17.9013 15.0583 17.8524L15.4804 17.5612L15.7983 17.9966L15.4804 18.4321L15.0516 18.1362C15.0478 18.0898 15.0376 18.0452 15.0376 17.9978ZM15.8617 17.8606L15.6119 17.5204L16.0297 17.4569L15.8617 17.8606ZM15.8663 18.1327L16.0344 18.5409L15.6166 18.4729L15.8663 18.1327ZM15.3419 18.9792C15.2883 18.9006 15.2441 18.8157 15.2035 18.7286L15.4031 18.6407L15.3419 18.9792ZM16.2296 17.2527L16.2977 16.8354L16.6383 17.0849L16.2296 17.2527ZM16.9107 17.0894L17.2557 16.84L17.3194 17.2573L16.9107 17.0894ZM17.5146 17.4523L17.9324 17.5203L17.687 17.8605L17.5146 17.4523ZM17.9369 18.4729L17.5147 18.5409L17.6872 18.1327L17.9369 18.4729ZM18.1458 18.6362L18.3525 18.7158C18.3106 18.8074 18.2637 18.8963 18.2073 18.9786L18.1458 18.6362ZM18.0687 18.4321L17.7508 17.9966L18.0687 17.5612L18.4911 17.8527C18.4953 17.9017 18.5118 17.9484 18.5118 17.9979C18.5118 18.0452 18.5015 18.0896 18.4979 18.136L18.0687 18.4321ZM18.4651 17.6708L18.1958 17.484L18.3881 17.3982C18.4219 17.4874 18.4466 17.5771 18.4651 17.6708ZM18.2441 17.0823C18.2818 17.1412 18.3001 17.2087 18.3302 17.2714L18.1458 17.3526L18.2037 17.0325C18.2157 17.0504 18.2327 17.0638 18.2441 17.0823ZM18.0903 16.8928L18.0006 17.3888L17.4647 17.3026L17.383 16.7719L17.886 16.6811C17.961 16.7446 18.0266 16.8166 18.0903 16.8928ZM17.4146 16.6267L17.4899 16.4318C17.5756 16.4712 17.6558 16.5169 17.734 16.5695L17.4146 16.6267ZM17.2876 16.5723L17.1005 16.3051C17.1902 16.3226 17.2754 16.3486 17.3607 16.3798L17.2876 16.5723ZM17.2103 16.6994L16.7745 17.0214L16.3385 16.7039L16.6311 16.2806C16.6789 16.2767 16.7241 16.2627 16.7726 16.2627C16.8226 16.2627 16.87 16.2774 16.9195 16.2817L17.2103 16.6994ZM16.2569 16.5769L16.1703 16.3835C16.2598 16.3502 16.3497 16.3224 16.4448 16.3042L16.2569 16.5769ZM16.1296 16.6267L15.8088 16.5688C15.8844 16.5176 15.9617 16.4722 16.0445 16.4336L16.1296 16.6267ZM15.403 17.3571L15.2118 17.2834C15.2433 17.215 15.2634 17.1425 15.3041 17.0779C15.3155 17.0595 15.3321 17.0465 15.344 17.0286L15.403 17.3571ZM15.3532 17.484L15.0837 17.6724C15.1015 17.5818 15.124 17.4942 15.1562 17.4074L15.3532 17.484ZM15.0692 18.3123L15.3532 18.5092L15.1509 18.5995C15.1165 18.5067 15.0874 18.4117 15.0692 18.3123ZM16.2614 19.4209L16.461 19.7057C16.3647 19.6881 16.2731 19.6598 16.183 19.627L16.2614 19.4209ZM16.3385 19.2939L16.7745 18.9719L17.2103 19.2894L16.9104 19.7235C16.8641 19.7272 16.8198 19.7374 16.7727 19.7374C16.7266 19.7374 16.6832 19.7273 16.6379 19.7238L16.3385 19.2939ZM17.2921 19.4164L17.3835 19.6208C17.2899 19.6562 17.1938 19.686 17.0933 19.7049L17.2921 19.4164ZM17.4192 19.3665L17.759 19.4278C17.6804 19.4822 17.5955 19.5272 17.5083 19.5682L17.4192 19.3665ZM18.1958 18.5092L18.4803 18.3103C18.4625 18.4068 18.4343 18.4989 18.4014 18.5892L18.1958 18.5092ZM19.8814 16.6801L20.3901 16.7719L20.3083 17.3072L19.7725 17.3888L19.6819 16.8884C19.7445 16.8137 19.8084 16.7424 19.8814 16.6801ZM22.1205 19.3141L21.6065 19.2214L21.6885 18.6862L22.2245 18.6045L22.3175 19.1167C22.2565 19.1878 22.1915 19.2534 22.1205 19.3141ZM20.9985 18.8176L20.4172 18.5772L20.1766 17.9966L20.4172 17.416L20.9985 17.1756L21.5795 17.416L21.8205 17.9966L21.5795 18.5772L20.9985 18.8176ZM21.5435 18.7405L21.4755 19.1578L21.1345 18.9083L21.5435 18.7405ZM20.8625 18.9038L20.5171 19.1533L20.4536 18.736L20.8625 18.9038ZM20.2773 19.5761C20.185 19.5336 20.096 19.4856 20.0133 19.4282L20.3583 19.3664L20.2773 19.5761ZM19.8754 19.3142C19.8049 19.2536 19.7399 19.1882 19.6797 19.1171L19.7725 18.6044L20.3083 18.6906L20.3901 19.2213L19.8754 19.3142ZM19.2618 17.9978C19.2618 17.9484 19.2783 17.9013 19.2823 17.8523L19.7044 17.5612L20.0223 17.9966L19.7044 18.4321L19.2758 18.1364C19.2721 18.0899 19.2618 18.0453 19.2618 17.9978ZM20.0858 17.8606L19.836 17.5204L20.2538 17.4569L20.0858 17.8606ZM20.0904 18.1327L20.2583 18.5409L19.8406 18.4729L20.0904 18.1327ZM19.5659 18.979C19.5123 18.9005 19.4683 18.8156 19.4277 18.7286L19.6271 18.6408L19.5659 18.979ZM20.4536 17.2527L20.5217 16.8354L20.8625 17.0849L20.4536 17.2527ZM21.1345 17.0894L21.4795 16.84L21.5435 17.2573L21.1345 17.0894ZM21.7385 17.4523L22.1565 17.5203L21.9115 17.8605L21.7385 17.4523ZM22.1605 18.4729L21.7385 18.5409L21.9115 18.1327L22.1605 18.4729ZM22.3695 18.6362L22.5765 18.7157C22.5345 18.8073 22.4875 18.8961 22.4315 18.9784L22.3695 18.6362ZM22.2925 18.4321L21.9745 17.9966L22.2925 17.5612L22.7145 17.8526C22.7195 17.9016 22.7355 17.9482 22.7355 17.9978C22.7355 18.0451 22.7255 18.0896 22.7215 18.136L22.2925 18.4321ZM22.6895 17.6709L22.4195 17.4841L22.6125 17.3983C22.6455 17.4873 22.6705 17.5772 22.6895 17.6709ZM22.4685 17.0823C22.5065 17.1413 22.5245 17.2086 22.5545 17.2713L22.3695 17.3526L22.4275 17.0323C22.4395 17.0503 22.4575 17.0637 22.4685 17.0823ZM22.3145 16.8926L22.2245 17.3888L21.6885 17.3026L21.6065 16.7719L22.1095 16.6811C22.1855 16.7446 22.2505 16.8166 22.3145 16.8926ZM21.6385 16.6267L21.7145 16.4318C21.7995 16.4712 21.8795 16.5169 21.9585 16.5695L21.6385 16.6267ZM21.5115 16.5723L21.3245 16.3051C21.4135 16.3227 21.4995 16.3486 21.5845 16.3798L21.5115 16.5723ZM21.4345 16.6994L20.9985 17.0214L20.5625 16.7039L20.8555 16.2806C20.9025 16.2767 20.9475 16.2627 20.9965 16.2627C21.0465 16.2627 21.0935 16.2774 21.1435 16.2817L21.4345 16.6994ZM20.4809 16.5769L20.3943 16.3835C20.4838 16.3502 20.5735 16.3224 20.6685 16.3042L20.4809 16.5769ZM20.3537 16.6267L20.0331 16.5688C20.1085 16.5176 20.1858 16.4722 20.2686 16.4337L20.3537 16.6267ZM19.6271 17.3571L19.4356 17.2833C19.4671 17.2149 19.4872 17.1424 19.5277 17.0779C19.5392 17.0594 19.5559 17.0462 19.5682 17.0282L19.6271 17.3571ZM19.5771 17.484L19.3079 17.6724C19.3255 17.5817 19.348 17.4942 19.38 17.4073L19.5771 17.484ZM19.2935 18.3125L19.5771 18.5092L19.3751 18.5994C19.3407 18.5067 19.3118 18.4118 19.2935 18.3125ZM20.4853 19.4209L20.6845 19.7057C20.5885 19.6881 20.497 19.6598 20.4071 19.627L20.4853 19.4209ZM20.5625 19.2939L20.9985 18.9719L21.4345 19.2894L21.1345 19.7235C21.0885 19.7272 21.0435 19.7374 20.9965 19.7374C20.9505 19.7374 20.9075 19.7273 20.8615 19.7238L20.5625 19.2939ZM21.5165 19.4164L21.6075 19.6208C21.5135 19.6562 21.4175 19.6861 21.3175 19.7049L21.5165 19.4164ZM21.6435 19.3665L21.9835 19.4277C21.9045 19.4821 21.8195 19.527 21.7325 19.5681L21.6435 19.3665ZM22.4195 18.5092L22.7045 18.3104C22.6865 18.4069 22.6585 18.4989 22.6255 18.5892L22.4195 18.5092ZM24.1055 16.6801L24.6135 16.7719L24.5325 17.3072L23.9965 17.3888L23.9055 16.8882C23.9685 16.8136 24.0325 16.7424 24.1055 16.6801ZM26.6925 17.0823C26.7295 17.1412 26.7485 17.2087 26.7785 17.2713L26.5935 17.3526L26.6515 17.0324C26.6635 17.0503 26.6805 17.0637 26.6925 17.0823ZM26.9595 17.9978C26.9595 18.0451 26.9495 18.0895 26.9455 18.1359L26.5165 18.4321L26.1985 17.9966L26.5165 17.5612L26.9395 17.8527C26.9435 17.9016 26.9595 17.9484 26.9595 17.9978ZM26.3445 19.3141L25.8305 19.2213L25.9125 18.6861L26.4485 18.6044L26.5415 19.1168C26.4805 19.1879 26.4155 19.2535 26.3445 19.3141ZM25.2225 18.8176L24.6415 18.5772L24.4005 17.9966L24.6415 17.416L25.2225 17.1756L25.8035 17.416L26.0445 17.9966L25.8035 18.5772L25.2225 18.8176ZM25.7675 18.7405L25.6995 19.1578L25.3585 18.9083L25.7675 18.7405ZM25.0865 18.9038L24.7415 19.1533L24.6775 18.736L25.0865 18.9038ZM24.5015 19.5761C24.4095 19.5337 24.3195 19.4856 24.2375 19.4282L24.5825 19.3664L24.5015 19.5761ZM24.0995 19.3142C24.0285 19.2536 23.9635 19.1882 23.9035 19.1172L23.9965 18.6044L24.5325 18.6906L24.6135 19.2213L24.0995 19.3142ZM23.4855 17.9978C23.4855 17.9484 23.5025 17.9013 23.5065 17.8524L23.9285 17.5612L24.2465 17.9966L23.9285 18.4321L23.4995 18.1363C23.4955 18.0898 23.4855 18.0452 23.4855 17.9978ZM24.3095 17.8606L24.0595 17.5204L24.4775 17.4569L24.3095 17.8606ZM24.3145 18.1327L24.4825 18.5409L24.0645 18.4729L24.3145 18.1327ZM23.7895 18.9791C23.7365 18.9006 23.6925 18.8156 23.6515 18.7286L23.8515 18.6407L23.7895 18.9791ZM24.6775 17.2527L24.7455 16.8354L25.0865 17.0849L24.6775 17.2527ZM25.3585 17.0894L25.7035 16.84L25.7675 17.2573L25.3585 17.0894ZM25.9625 17.4523L26.3805 17.5203L26.1355 17.8605L25.9625 17.4523ZM26.3845 18.4729L25.9625 18.5409L26.1355 18.1327L26.3845 18.4729ZM26.5935 18.6362L26.8005 18.7158C26.7585 18.8075 26.7115 18.8963 26.6555 18.9786L26.5935 18.6362ZM26.5385 16.8927L26.4485 17.3888L25.9125 17.3026L25.8305 16.7719L26.3345 16.6811C26.4095 16.7446 26.4745 16.8166 26.5385 16.8927ZM25.8625 16.6267L25.9385 16.4318C26.0235 16.4712 26.1045 16.5169 26.1825 16.5695L25.8625 16.6267ZM25.7355 16.5723L25.5485 16.3051C25.6385 16.3227 25.7235 16.3486 25.8085 16.3798L25.7355 16.5723ZM25.6585 16.6994L25.2225 17.0214L24.7865 16.7039L25.0795 16.2807C25.1265 16.2768 25.1725 16.2628 25.2205 16.2628C25.2705 16.2628 25.3185 16.2775 25.3675 16.2818L25.6585 16.6994ZM24.7045 16.5769L24.6185 16.3836C24.7075 16.3503 24.7975 16.3224 24.8925 16.3043L24.7045 16.5769ZM24.5775 16.6267L24.2565 16.5688C24.3325 16.5176 24.4095 16.4722 24.4925 16.4337L24.5775 16.6267ZM23.8515 17.3571L23.6595 17.2833C23.6905 17.215 23.7115 17.1425 23.7515 17.0779C23.7635 17.0594 23.7795 17.0461 23.7925 17.0281L23.8515 17.3571ZM23.8015 17.484L23.5315 17.6725C23.5495 17.5819 23.5715 17.4942 23.6035 17.4073L23.8015 17.484ZM23.5175 18.3123L23.8015 18.5091L23.5995 18.5994C23.5645 18.5067 23.5355 18.4117 23.5175 18.3123ZM24.7095 19.4209L24.9085 19.7057C24.8125 19.6881 24.7215 19.6598 24.6315 19.627L24.7095 19.4209ZM24.7865 19.2939L25.2225 18.9719L25.6585 19.2894L25.3585 19.7235C25.3125 19.7272 25.2675 19.7374 25.2205 19.7374C25.1745 19.7374 25.1315 19.7273 25.0855 19.7237L24.7865 19.2939ZM25.7405 19.4164L25.8315 19.6208C25.7375 19.6562 25.6425 19.6861 25.5415 19.7049L25.7405 19.4164ZM25.8675 19.3665L26.2075 19.4278C26.1285 19.4822 26.0435 19.5272 25.9565 19.5683L25.8675 19.3665ZM26.6435 18.5092L26.9285 18.3102C26.9105 18.4068 26.8825 18.4989 26.8495 18.5893L26.6435 18.5092ZM26.9135 17.6709L26.6435 17.484L26.8365 17.3982C26.8695 17.4874 26.8945 17.5772 26.9135 17.6709ZM23.1155 16.6809C23.1135 16.6851 23.1115 16.6897 23.1085 16.6939C23.1065 16.6906 23.1055 16.687 23.1035 16.6838C23.0015 16.5181 22.8755 16.3711 22.7395 16.2363H23.4775C23.3435 16.37 23.2185 16.5154 23.1155 16.6809ZM18.8919 16.6809C18.8892 16.6852 18.8875 16.69 18.8848 16.6943C18.8828 16.691 18.8813 16.6872 18.8791 16.6839C18.7773 16.5182 18.6519 16.3712 18.5156 16.2364H19.2535C19.1195 16.37 18.9948 16.5154 18.8919 16.6809ZM14.6681 16.6809C14.6654 16.6852 14.6637 16.69 14.661 16.6943C14.659 16.691 14.6575 16.6872 14.6553 16.6839C14.5535 16.5182 14.4281 16.3712 14.2918 16.2364H15.0293C14.8955 16.37 14.771 16.5154 14.6681 16.6809ZM10.4438 16.6809C10.4412 16.6851 10.4394 16.6897 10.4368 16.6939C10.4348 16.6906 10.4333 16.687 10.4313 16.6838C10.3295 16.5181 10.2039 16.3711 10.0677 16.2363H10.8054C10.6714 16.37 10.5467 16.5154 10.4438 16.6809ZM10.4383 19.296C10.5425 19.4651 10.66 19.6245 10.8001 19.7637H10.0761C10.2164 19.6245 10.3341 19.4651 10.4383 19.296ZM14.6622 19.296C14.7664 19.4651 14.8839 19.6245 15.024 19.7637H14.3C14.4403 19.6245 14.558 19.4651 14.6622 19.296ZM18.8864 19.296C18.9904 19.4651 19.1081 19.6244 19.2482 19.7637H18.5242C18.6645 19.6245 18.7822 19.4651 18.8864 19.296ZM23.1105 19.296C23.2145 19.4651 23.3315 19.6245 23.4725 19.7637H22.7485C22.8885 19.6245 23.0065 19.4651 23.1105 19.296ZM27.3355 19.294C27.4405 19.4638 27.5575 19.624 27.6985 19.7637H26.9725C27.1135 19.6239 27.2315 19.4638 27.3355 19.294ZM31.5605 19.296C31.6645 19.4651 31.7825 19.6245 31.9225 19.7637H31.1985C31.3385 19.6245 31.4565 19.4651 31.5605 19.296ZM3.63049 18C3.63049 17.0273 4.4215 16.2363 5.3942 16.2363H6.58129C6.44739 16.37 6.32289 16.5154 6.21999 16.6809C5.97129 17.0764 5.8399 17.532 5.8399 17.9978C5.8399 18.6877 6.12219 19.3123 6.57639 19.7637H5.39429C4.42149 19.7637 3.63049 18.9727 3.63049 18ZM36.6055 19.7637H35.4225C35.8775 19.3123 36.1595 18.6877 36.1595 17.9978C36.1595 17.5283 36.0265 17.072 35.7775 16.6838C35.6755 16.5181 35.5505 16.3711 35.4145 16.2363H36.6055C37.5785 16.2363 38.3695 17.0273 38.3695 18C38.3695 18.9727 37.5785 19.7637 36.6055 19.7637Z" fill="black"/>
</svg>
